<svg enable-background="new 0 0 40 40" height="40" viewBox="0 0 40 40" width="40" xmlns="http://www.w3.org/2000/svg"><path d="m22.746 31.173h-5.538c-.505 0-.912-.41-.912-.912v-.641c.006-.551-.021-.938-.079-1.154-.311-1.139-1.134-2.094-1.931-3.02-.263-.303-.511-.592-.739-.883-1.147-1.459-1.757-3.207-1.757-5.061 0-4.526 3.684-8.207 8.21-8.207 4.525 0 8.208 3.681 8.208 8.207 0 1.855-.607 3.605-1.757 5.063-.201.258-.433.528-.675.813-.816.96-1.727 2.031-2.041 3.162-.055.202-.082.565-.078 1.073v.646c0 .504-.407.914-.911.914zm-4.624-1.826h3.712c.01-.71.079-1.06.142-1.288.423-1.523 1.471-2.76 2.396-3.846.243-.286.456-.536.645-.774.893-1.136 1.366-2.495 1.366-3.936 0-3.52-2.862-6.384-6.382-6.384s-6.384 2.864-6.384 6.384c0 1.438.472 2.798 1.366 3.934.211.27.442.535.687.818.843.979 1.888 2.192 2.31 3.733.062.241.134.608.142 1.359z"/><path d="m22.746 33.588h-5.538c-.505 0-.912-.409-.912-.914 0-.504.407-.911.912-.911h5.538c.504 0 .911.407.911.911 0 .505-.407.914-.911.914z"/><path d="m21.362 36h-2.769c-.505 0-.914-.409-.914-.912 0-.504.409-.914.914-.914h2.769c.502 0 .912.41.912.914 0 .503-.41.912-.912.912z"/><path d="m34.592 20.415h-3.648c-.504 0-.914-.407-.914-.912 0-.504.41-.912.914-.912h3.648c.504 0 .911.408.911.912 0 .505-.407.912-.911.912z"/><path d="m9.057 20.415h-3.649c-.504 0-.911-.407-.911-.912 0-.504.407-.912.911-.912h3.648c.504 0 .914.408.914.912.001.505-.409.912-.913.912z"/><path d="m20 9.474c-.505 0-.914-.407-.914-.912v-3.65c0-.503.409-.912.914-.912s.912.409.912.912v3.649c0 .505-.407.913-.912.913z"/><path d="m30.314 30.733c-.232 0-.465-.089-.644-.268l-2.579-2.58c-.356-.355-.356-.934 0-1.291.357-.356.934-.354 1.29.002l2.579 2.579c.357.357.357.936 0 1.292-.178.179-.41.266-.646.266z"/><path d="m12.26 12.679c-.232 0-.466-.089-.646-.268l-2.577-2.578c-.357-.357-.357-.936 0-1.293.357-.356.934-.356 1.29 0l2.579 2.579c.357.356.357.936 0 1.292-.178.179-.411.268-.646.268z"/><path d="m9.682 30.733c-.233 0-.466-.087-.645-.266-.357-.356-.357-.935 0-1.292l2.581-2.581c.354-.356.931-.356 1.288 0 .357.357.357.936 0 1.293l-2.579 2.58c-.179.178-.411.266-.645.266z"/><path d="m27.738 12.679c-.233 0-.466-.089-.646-.268-.354-.356-.354-.934 0-1.29l2.579-2.579c.354-.356.935-.358 1.29-.002.357.357.357.934 0 1.291l-2.577 2.578c-.178.179-.411.27-.646.27z"/></svg>