G04 #@! TF.GenerationSoftware,KiCad,Pcbnew,6.0.11-2627ca5db0~126~ubuntu22.04.1*
G04 #@! TF.CreationDate,2023-09-27T18:56:04-03:00*
G04 #@! TF.ProjectId,Drone FCC,44726f6e-6520-4464-9343-2e6b69636164,rev?*
G04 #@! TF.SameCoordinates,Original*
G04 #@! TF.FileFunction,Legend,Top*
G04 #@! TF.FilePolarity,Positive*
%FSLAX46Y46*%
G04 Gerber Fmt 4.6, Leading zero omitted, Abs format (unit mm)*
G04 Created by KiCad (PCBNEW 6.0.11-2627ca5db0~126~ubuntu22.04.1) date 2023-09-27 18:56:04*
%MOMM*%
%LPD*%
G01*
G04 APERTURE LIST*
%ADD10C,0.150000*%
%ADD11C,0.120000*%
%ADD12C,0.200000*%
%ADD13C,0.127000*%
%ADD14C,0.280000*%
%ADD15C,0.250000*%
%ADD16C,0.100000*%
G04 APERTURE END LIST*
D10*
G04 #@! TO.C,C24*
X166981142Y-101353857D02*
X167028761Y-101401476D01*
X167076380Y-101544333D01*
X167076380Y-101639571D01*
X167028761Y-101782428D01*
X166933523Y-101877666D01*
X166838285Y-101925285D01*
X166647809Y-101972904D01*
X166504952Y-101972904D01*
X166314476Y-101925285D01*
X166219238Y-101877666D01*
X166124000Y-101782428D01*
X166076380Y-101639571D01*
X166076380Y-101544333D01*
X166124000Y-101401476D01*
X166171619Y-101353857D01*
X166171619Y-100972904D02*
X166124000Y-100925285D01*
X166076380Y-100830047D01*
X166076380Y-100591952D01*
X166124000Y-100496714D01*
X166171619Y-100449095D01*
X166266857Y-100401476D01*
X166362095Y-100401476D01*
X166504952Y-100449095D01*
X167076380Y-101020523D01*
X167076380Y-100401476D01*
X166409714Y-99544333D02*
X167076380Y-99544333D01*
X166028761Y-99782428D02*
X166743047Y-100020523D01*
X166743047Y-99401476D01*
G04 #@! TO.C,C9*
X142327333Y-102465142D02*
X142279714Y-102512761D01*
X142136857Y-102560380D01*
X142041619Y-102560380D01*
X141898761Y-102512761D01*
X141803523Y-102417523D01*
X141755904Y-102322285D01*
X141708285Y-102131809D01*
X141708285Y-101988952D01*
X141755904Y-101798476D01*
X141803523Y-101703238D01*
X141898761Y-101608000D01*
X142041619Y-101560380D01*
X142136857Y-101560380D01*
X142279714Y-101608000D01*
X142327333Y-101655619D01*
X142803523Y-102560380D02*
X142994000Y-102560380D01*
X143089238Y-102512761D01*
X143136857Y-102465142D01*
X143232095Y-102322285D01*
X143279714Y-102131809D01*
X143279714Y-101750857D01*
X143232095Y-101655619D01*
X143184476Y-101608000D01*
X143089238Y-101560380D01*
X142898761Y-101560380D01*
X142803523Y-101608000D01*
X142755904Y-101655619D01*
X142708285Y-101750857D01*
X142708285Y-101988952D01*
X142755904Y-102084190D01*
X142803523Y-102131809D01*
X142898761Y-102179428D01*
X143089238Y-102179428D01*
X143184476Y-102131809D01*
X143232095Y-102084190D01*
X143279714Y-101988952D01*
G04 #@! TO.C,C31*
X167870142Y-97035857D02*
X167917761Y-97083476D01*
X167965380Y-97226333D01*
X167965380Y-97321571D01*
X167917761Y-97464428D01*
X167822523Y-97559666D01*
X167727285Y-97607285D01*
X167536809Y-97654904D01*
X167393952Y-97654904D01*
X167203476Y-97607285D01*
X167108238Y-97559666D01*
X167013000Y-97464428D01*
X166965380Y-97321571D01*
X166965380Y-97226333D01*
X167013000Y-97083476D01*
X167060619Y-97035857D01*
X166965380Y-96702523D02*
X166965380Y-96083476D01*
X167346333Y-96416809D01*
X167346333Y-96273952D01*
X167393952Y-96178714D01*
X167441571Y-96131095D01*
X167536809Y-96083476D01*
X167774904Y-96083476D01*
X167870142Y-96131095D01*
X167917761Y-96178714D01*
X167965380Y-96273952D01*
X167965380Y-96559666D01*
X167917761Y-96654904D01*
X167870142Y-96702523D01*
X167965380Y-95131095D02*
X167965380Y-95702523D01*
X167965380Y-95416809D02*
X166965380Y-95416809D01*
X167108238Y-95512047D01*
X167203476Y-95607285D01*
X167251095Y-95702523D01*
G04 #@! TO.C,C3*
X127738142Y-130087666D02*
X127785761Y-130135285D01*
X127833380Y-130278142D01*
X127833380Y-130373380D01*
X127785761Y-130516238D01*
X127690523Y-130611476D01*
X127595285Y-130659095D01*
X127404809Y-130706714D01*
X127261952Y-130706714D01*
X127071476Y-130659095D01*
X126976238Y-130611476D01*
X126881000Y-130516238D01*
X126833380Y-130373380D01*
X126833380Y-130278142D01*
X126881000Y-130135285D01*
X126928619Y-130087666D01*
X126833380Y-129754333D02*
X126833380Y-129135285D01*
X127214333Y-129468619D01*
X127214333Y-129325761D01*
X127261952Y-129230523D01*
X127309571Y-129182904D01*
X127404809Y-129135285D01*
X127642904Y-129135285D01*
X127738142Y-129182904D01*
X127785761Y-129230523D01*
X127833380Y-129325761D01*
X127833380Y-129611476D01*
X127785761Y-129706714D01*
X127738142Y-129754333D01*
G04 #@! TO.C,R28*
X177363380Y-59951857D02*
X176887190Y-60285190D01*
X177363380Y-60523285D02*
X176363380Y-60523285D01*
X176363380Y-60142333D01*
X176411000Y-60047095D01*
X176458619Y-59999476D01*
X176553857Y-59951857D01*
X176696714Y-59951857D01*
X176791952Y-59999476D01*
X176839571Y-60047095D01*
X176887190Y-60142333D01*
X176887190Y-60523285D01*
X176458619Y-59570904D02*
X176411000Y-59523285D01*
X176363380Y-59428047D01*
X176363380Y-59189952D01*
X176411000Y-59094714D01*
X176458619Y-59047095D01*
X176553857Y-58999476D01*
X176649095Y-58999476D01*
X176791952Y-59047095D01*
X177363380Y-59618523D01*
X177363380Y-58999476D01*
X176791952Y-58428047D02*
X176744333Y-58523285D01*
X176696714Y-58570904D01*
X176601476Y-58618523D01*
X176553857Y-58618523D01*
X176458619Y-58570904D01*
X176411000Y-58523285D01*
X176363380Y-58428047D01*
X176363380Y-58237571D01*
X176411000Y-58142333D01*
X176458619Y-58094714D01*
X176553857Y-58047095D01*
X176601476Y-58047095D01*
X176696714Y-58094714D01*
X176744333Y-58142333D01*
X176791952Y-58237571D01*
X176791952Y-58428047D01*
X176839571Y-58523285D01*
X176887190Y-58570904D01*
X176982428Y-58618523D01*
X177172904Y-58618523D01*
X177268142Y-58570904D01*
X177315761Y-58523285D01*
X177363380Y-58428047D01*
X177363380Y-58237571D01*
X177315761Y-58142333D01*
X177268142Y-58094714D01*
X177172904Y-58047095D01*
X176982428Y-58047095D01*
X176887190Y-58094714D01*
X176839571Y-58142333D01*
X176791952Y-58237571D01*
G04 #@! TO.C,C7*
X141184333Y-67413142D02*
X141136714Y-67460761D01*
X140993857Y-67508380D01*
X140898619Y-67508380D01*
X140755761Y-67460761D01*
X140660523Y-67365523D01*
X140612904Y-67270285D01*
X140565285Y-67079809D01*
X140565285Y-66936952D01*
X140612904Y-66746476D01*
X140660523Y-66651238D01*
X140755761Y-66556000D01*
X140898619Y-66508380D01*
X140993857Y-66508380D01*
X141136714Y-66556000D01*
X141184333Y-66603619D01*
X141517666Y-66508380D02*
X142184333Y-66508380D01*
X141755761Y-67508380D01*
G04 #@! TO.C,J14*
X161267680Y-129633923D02*
X161981966Y-129633923D01*
X162124823Y-129681542D01*
X162220061Y-129776780D01*
X162267680Y-129919638D01*
X162267680Y-130014876D01*
X162267680Y-128633923D02*
X162267680Y-129205352D01*
X162267680Y-128919638D02*
X161267680Y-128919638D01*
X161410538Y-129014876D01*
X161505776Y-129110114D01*
X161553395Y-129205352D01*
X161601014Y-127776780D02*
X162267680Y-127776780D01*
X161220061Y-128014876D02*
X161934347Y-128252971D01*
X161934347Y-127633923D01*
G04 #@! TO.C,J20*
X130770380Y-111426523D02*
X131484666Y-111426523D01*
X131627523Y-111474142D01*
X131722761Y-111569380D01*
X131770380Y-111712238D01*
X131770380Y-111807476D01*
X130865619Y-110997952D02*
X130818000Y-110950333D01*
X130770380Y-110855095D01*
X130770380Y-110617000D01*
X130818000Y-110521761D01*
X130865619Y-110474142D01*
X130960857Y-110426523D01*
X131056095Y-110426523D01*
X131198952Y-110474142D01*
X131770380Y-111045571D01*
X131770380Y-110426523D01*
X130770380Y-109807476D02*
X130770380Y-109712238D01*
X130818000Y-109617000D01*
X130865619Y-109569380D01*
X130960857Y-109521761D01*
X131151333Y-109474142D01*
X131389428Y-109474142D01*
X131579904Y-109521761D01*
X131675142Y-109569380D01*
X131722761Y-109617000D01*
X131770380Y-109712238D01*
X131770380Y-109807476D01*
X131722761Y-109902714D01*
X131675142Y-109950333D01*
X131579904Y-109997952D01*
X131389428Y-110045571D01*
X131151333Y-110045571D01*
X130960857Y-109997952D01*
X130865619Y-109950333D01*
X130818000Y-109902714D01*
X130770380Y-109807476D01*
G04 #@! TO.C,J28*
X173315380Y-112950523D02*
X174029666Y-112950523D01*
X174172523Y-112998142D01*
X174267761Y-113093380D01*
X174315380Y-113236238D01*
X174315380Y-113331476D01*
X173410619Y-112521952D02*
X173363000Y-112474333D01*
X173315380Y-112379095D01*
X173315380Y-112141000D01*
X173363000Y-112045761D01*
X173410619Y-111998142D01*
X173505857Y-111950523D01*
X173601095Y-111950523D01*
X173743952Y-111998142D01*
X174315380Y-112569571D01*
X174315380Y-111950523D01*
X173743952Y-111379095D02*
X173696333Y-111474333D01*
X173648714Y-111521952D01*
X173553476Y-111569571D01*
X173505857Y-111569571D01*
X173410619Y-111521952D01*
X173363000Y-111474333D01*
X173315380Y-111379095D01*
X173315380Y-111188619D01*
X173363000Y-111093380D01*
X173410619Y-111045761D01*
X173505857Y-110998142D01*
X173553476Y-110998142D01*
X173648714Y-111045761D01*
X173696333Y-111093380D01*
X173743952Y-111188619D01*
X173743952Y-111379095D01*
X173791571Y-111474333D01*
X173839190Y-111521952D01*
X173934428Y-111569571D01*
X174124904Y-111569571D01*
X174220142Y-111521952D01*
X174267761Y-111474333D01*
X174315380Y-111379095D01*
X174315380Y-111188619D01*
X174267761Y-111093380D01*
X174220142Y-111045761D01*
X174124904Y-110998142D01*
X173934428Y-110998142D01*
X173839190Y-111045761D01*
X173791571Y-111093380D01*
X173743952Y-111188619D01*
G04 #@! TO.C,J23*
X130770380Y-104705923D02*
X131484666Y-104705923D01*
X131627523Y-104753542D01*
X131722761Y-104848780D01*
X131770380Y-104991638D01*
X131770380Y-105086876D01*
X130865619Y-104277352D02*
X130818000Y-104229733D01*
X130770380Y-104134495D01*
X130770380Y-103896400D01*
X130818000Y-103801161D01*
X130865619Y-103753542D01*
X130960857Y-103705923D01*
X131056095Y-103705923D01*
X131198952Y-103753542D01*
X131770380Y-104324971D01*
X131770380Y-103705923D01*
X130770380Y-103372590D02*
X130770380Y-102753542D01*
X131151333Y-103086876D01*
X131151333Y-102944019D01*
X131198952Y-102848780D01*
X131246571Y-102801161D01*
X131341809Y-102753542D01*
X131579904Y-102753542D01*
X131675142Y-102801161D01*
X131722761Y-102848780D01*
X131770380Y-102944019D01*
X131770380Y-103229733D01*
X131722761Y-103324971D01*
X131675142Y-103372590D01*
G04 #@! TO.C,C19*
X150344142Y-106687857D02*
X150391761Y-106735476D01*
X150439380Y-106878333D01*
X150439380Y-106973571D01*
X150391761Y-107116428D01*
X150296523Y-107211666D01*
X150201285Y-107259285D01*
X150010809Y-107306904D01*
X149867952Y-107306904D01*
X149677476Y-107259285D01*
X149582238Y-107211666D01*
X149487000Y-107116428D01*
X149439380Y-106973571D01*
X149439380Y-106878333D01*
X149487000Y-106735476D01*
X149534619Y-106687857D01*
X150439380Y-105735476D02*
X150439380Y-106306904D01*
X150439380Y-106021190D02*
X149439380Y-106021190D01*
X149582238Y-106116428D01*
X149677476Y-106211666D01*
X149725095Y-106306904D01*
X150439380Y-105259285D02*
X150439380Y-105068809D01*
X150391761Y-104973571D01*
X150344142Y-104925952D01*
X150201285Y-104830714D01*
X150010809Y-104783095D01*
X149629857Y-104783095D01*
X149534619Y-104830714D01*
X149487000Y-104878333D01*
X149439380Y-104973571D01*
X149439380Y-105164047D01*
X149487000Y-105259285D01*
X149534619Y-105306904D01*
X149629857Y-105354523D01*
X149867952Y-105354523D01*
X149963190Y-105306904D01*
X150010809Y-105259285D01*
X150058428Y-105164047D01*
X150058428Y-104973571D01*
X150010809Y-104878333D01*
X149963190Y-104830714D01*
X149867952Y-104783095D01*
G04 #@! TO.C,R13*
X147899380Y-111894857D02*
X147423190Y-112228190D01*
X147899380Y-112466285D02*
X146899380Y-112466285D01*
X146899380Y-112085333D01*
X146947000Y-111990095D01*
X146994619Y-111942476D01*
X147089857Y-111894857D01*
X147232714Y-111894857D01*
X147327952Y-111942476D01*
X147375571Y-111990095D01*
X147423190Y-112085333D01*
X147423190Y-112466285D01*
X147899380Y-110942476D02*
X147899380Y-111513904D01*
X147899380Y-111228190D02*
X146899380Y-111228190D01*
X147042238Y-111323428D01*
X147137476Y-111418666D01*
X147185095Y-111513904D01*
X146899380Y-110609142D02*
X146899380Y-109990095D01*
X147280333Y-110323428D01*
X147280333Y-110180571D01*
X147327952Y-110085333D01*
X147375571Y-110037714D01*
X147470809Y-109990095D01*
X147708904Y-109990095D01*
X147804142Y-110037714D01*
X147851761Y-110085333D01*
X147899380Y-110180571D01*
X147899380Y-110466285D01*
X147851761Y-110561523D01*
X147804142Y-110609142D01*
G04 #@! TO.C,C34*
X144137142Y-100052142D02*
X144089523Y-100099761D01*
X143946666Y-100147380D01*
X143851428Y-100147380D01*
X143708571Y-100099761D01*
X143613333Y-100004523D01*
X143565714Y-99909285D01*
X143518095Y-99718809D01*
X143518095Y-99575952D01*
X143565714Y-99385476D01*
X143613333Y-99290238D01*
X143708571Y-99195000D01*
X143851428Y-99147380D01*
X143946666Y-99147380D01*
X144089523Y-99195000D01*
X144137142Y-99242619D01*
X144470476Y-99147380D02*
X145089523Y-99147380D01*
X144756190Y-99528333D01*
X144899047Y-99528333D01*
X144994285Y-99575952D01*
X145041904Y-99623571D01*
X145089523Y-99718809D01*
X145089523Y-99956904D01*
X145041904Y-100052142D01*
X144994285Y-100099761D01*
X144899047Y-100147380D01*
X144613333Y-100147380D01*
X144518095Y-100099761D01*
X144470476Y-100052142D01*
X145946666Y-99480714D02*
X145946666Y-100147380D01*
X145708571Y-99099761D02*
X145470476Y-99814047D01*
X146089523Y-99814047D01*
G04 #@! TO.C,C8*
X151090333Y-67032142D02*
X151042714Y-67079761D01*
X150899857Y-67127380D01*
X150804619Y-67127380D01*
X150661761Y-67079761D01*
X150566523Y-66984523D01*
X150518904Y-66889285D01*
X150471285Y-66698809D01*
X150471285Y-66555952D01*
X150518904Y-66365476D01*
X150566523Y-66270238D01*
X150661761Y-66175000D01*
X150804619Y-66127380D01*
X150899857Y-66127380D01*
X151042714Y-66175000D01*
X151090333Y-66222619D01*
X151661761Y-66555952D02*
X151566523Y-66508333D01*
X151518904Y-66460714D01*
X151471285Y-66365476D01*
X151471285Y-66317857D01*
X151518904Y-66222619D01*
X151566523Y-66175000D01*
X151661761Y-66127380D01*
X151852238Y-66127380D01*
X151947476Y-66175000D01*
X151995095Y-66222619D01*
X152042714Y-66317857D01*
X152042714Y-66365476D01*
X151995095Y-66460714D01*
X151947476Y-66508333D01*
X151852238Y-66555952D01*
X151661761Y-66555952D01*
X151566523Y-66603571D01*
X151518904Y-66651190D01*
X151471285Y-66746428D01*
X151471285Y-66936904D01*
X151518904Y-67032142D01*
X151566523Y-67079761D01*
X151661761Y-67127380D01*
X151852238Y-67127380D01*
X151947476Y-67079761D01*
X151995095Y-67032142D01*
X152042714Y-66936904D01*
X152042714Y-66746428D01*
X151995095Y-66651190D01*
X151947476Y-66603571D01*
X151852238Y-66555952D01*
G04 #@! TO.C,J12*
X155984480Y-129633923D02*
X156698766Y-129633923D01*
X156841623Y-129681542D01*
X156936861Y-129776780D01*
X156984480Y-129919638D01*
X156984480Y-130014876D01*
X156984480Y-128633923D02*
X156984480Y-129205352D01*
X156984480Y-128919638D02*
X155984480Y-128919638D01*
X156127338Y-129014876D01*
X156222576Y-129110114D01*
X156270195Y-129205352D01*
X156079719Y-128252971D02*
X156032100Y-128205352D01*
X155984480Y-128110114D01*
X155984480Y-127872019D01*
X156032100Y-127776780D01*
X156079719Y-127729161D01*
X156174957Y-127681542D01*
X156270195Y-127681542D01*
X156413052Y-127729161D01*
X156984480Y-128300590D01*
X156984480Y-127681542D01*
G04 #@! TO.C,C41*
X169902142Y-92717857D02*
X169949761Y-92765476D01*
X169997380Y-92908333D01*
X169997380Y-93003571D01*
X169949761Y-93146428D01*
X169854523Y-93241666D01*
X169759285Y-93289285D01*
X169568809Y-93336904D01*
X169425952Y-93336904D01*
X169235476Y-93289285D01*
X169140238Y-93241666D01*
X169045000Y-93146428D01*
X168997380Y-93003571D01*
X168997380Y-92908333D01*
X169045000Y-92765476D01*
X169092619Y-92717857D01*
X169330714Y-91860714D02*
X169997380Y-91860714D01*
X168949761Y-92098809D02*
X169664047Y-92336904D01*
X169664047Y-91717857D01*
X169997380Y-90813095D02*
X169997380Y-91384523D01*
X169997380Y-91098809D02*
X168997380Y-91098809D01*
X169140238Y-91194047D01*
X169235476Y-91289285D01*
X169283095Y-91384523D01*
G04 #@! TO.C,R17*
X156938742Y-103527180D02*
X156605409Y-103050990D01*
X156367314Y-103527180D02*
X156367314Y-102527180D01*
X156748266Y-102527180D01*
X156843504Y-102574800D01*
X156891123Y-102622419D01*
X156938742Y-102717657D01*
X156938742Y-102860514D01*
X156891123Y-102955752D01*
X156843504Y-103003371D01*
X156748266Y-103050990D01*
X156367314Y-103050990D01*
X157891123Y-103527180D02*
X157319695Y-103527180D01*
X157605409Y-103527180D02*
X157605409Y-102527180D01*
X157510171Y-102670038D01*
X157414933Y-102765276D01*
X157319695Y-102812895D01*
X158224457Y-102527180D02*
X158891123Y-102527180D01*
X158462552Y-103527180D01*
G04 #@! TO.C,J9*
X148890580Y-129758333D02*
X149604866Y-129758333D01*
X149747723Y-129805952D01*
X149842961Y-129901190D01*
X149890580Y-130044047D01*
X149890580Y-130139285D01*
X149890580Y-129234523D02*
X149890580Y-129044047D01*
X149842961Y-128948809D01*
X149795342Y-128901190D01*
X149652485Y-128805952D01*
X149462009Y-128758333D01*
X149081057Y-128758333D01*
X148985819Y-128805952D01*
X148938200Y-128853571D01*
X148890580Y-128948809D01*
X148890580Y-129139285D01*
X148938200Y-129234523D01*
X148985819Y-129282142D01*
X149081057Y-129329761D01*
X149319152Y-129329761D01*
X149414390Y-129282142D01*
X149462009Y-129234523D01*
X149509628Y-129139285D01*
X149509628Y-128948809D01*
X149462009Y-128853571D01*
X149414390Y-128805952D01*
X149319152Y-128758333D01*
G04 #@! TO.C,C32*
X140819142Y-92082857D02*
X140866761Y-92130476D01*
X140914380Y-92273333D01*
X140914380Y-92368571D01*
X140866761Y-92511428D01*
X140771523Y-92606666D01*
X140676285Y-92654285D01*
X140485809Y-92701904D01*
X140342952Y-92701904D01*
X140152476Y-92654285D01*
X140057238Y-92606666D01*
X139962000Y-92511428D01*
X139914380Y-92368571D01*
X139914380Y-92273333D01*
X139962000Y-92130476D01*
X140009619Y-92082857D01*
X139914380Y-91749523D02*
X139914380Y-91130476D01*
X140295333Y-91463809D01*
X140295333Y-91320952D01*
X140342952Y-91225714D01*
X140390571Y-91178095D01*
X140485809Y-91130476D01*
X140723904Y-91130476D01*
X140819142Y-91178095D01*
X140866761Y-91225714D01*
X140914380Y-91320952D01*
X140914380Y-91606666D01*
X140866761Y-91701904D01*
X140819142Y-91749523D01*
X140009619Y-90749523D02*
X139962000Y-90701904D01*
X139914380Y-90606666D01*
X139914380Y-90368571D01*
X139962000Y-90273333D01*
X140009619Y-90225714D01*
X140104857Y-90178095D01*
X140200095Y-90178095D01*
X140342952Y-90225714D01*
X140914380Y-90797142D01*
X140914380Y-90178095D01*
G04 #@! TO.C,D9*
X122832904Y-69286380D02*
X122832904Y-68286380D01*
X123071000Y-68286380D01*
X123213857Y-68334000D01*
X123309095Y-68429238D01*
X123356714Y-68524476D01*
X123404333Y-68714952D01*
X123404333Y-68857809D01*
X123356714Y-69048285D01*
X123309095Y-69143523D01*
X123213857Y-69238761D01*
X123071000Y-69286380D01*
X122832904Y-69286380D01*
X123880523Y-69286380D02*
X124071000Y-69286380D01*
X124166238Y-69238761D01*
X124213857Y-69191142D01*
X124309095Y-69048285D01*
X124356714Y-68857809D01*
X124356714Y-68476857D01*
X124309095Y-68381619D01*
X124261476Y-68334000D01*
X124166238Y-68286380D01*
X123975761Y-68286380D01*
X123880523Y-68334000D01*
X123832904Y-68381619D01*
X123785285Y-68476857D01*
X123785285Y-68714952D01*
X123832904Y-68810190D01*
X123880523Y-68857809D01*
X123975761Y-68905428D01*
X124166238Y-68905428D01*
X124261476Y-68857809D01*
X124309095Y-68810190D01*
X124356714Y-68714952D01*
G04 #@! TO.C,C42*
X155694142Y-100941142D02*
X155646523Y-100988761D01*
X155503666Y-101036380D01*
X155408428Y-101036380D01*
X155265571Y-100988761D01*
X155170333Y-100893523D01*
X155122714Y-100798285D01*
X155075095Y-100607809D01*
X155075095Y-100464952D01*
X155122714Y-100274476D01*
X155170333Y-100179238D01*
X155265571Y-100084000D01*
X155408428Y-100036380D01*
X155503666Y-100036380D01*
X155646523Y-100084000D01*
X155694142Y-100131619D01*
X156551285Y-100369714D02*
X156551285Y-101036380D01*
X156313190Y-99988761D02*
X156075095Y-100703047D01*
X156694142Y-100703047D01*
X157027476Y-100131619D02*
X157075095Y-100084000D01*
X157170333Y-100036380D01*
X157408428Y-100036380D01*
X157503666Y-100084000D01*
X157551285Y-100131619D01*
X157598904Y-100226857D01*
X157598904Y-100322095D01*
X157551285Y-100464952D01*
X156979857Y-101036380D01*
X157598904Y-101036380D01*
G04 #@! TO.C,J11*
X153596880Y-129633923D02*
X154311166Y-129633923D01*
X154454023Y-129681542D01*
X154549261Y-129776780D01*
X154596880Y-129919638D01*
X154596880Y-130014876D01*
X154596880Y-128633923D02*
X154596880Y-129205352D01*
X154596880Y-128919638D02*
X153596880Y-128919638D01*
X153739738Y-129014876D01*
X153834976Y-129110114D01*
X153882595Y-129205352D01*
X154596880Y-127681542D02*
X154596880Y-128252971D01*
X154596880Y-127967257D02*
X153596880Y-127967257D01*
X153739738Y-128062495D01*
X153834976Y-128157733D01*
X153882595Y-128252971D01*
G04 #@! TO.C,U5*
X154900380Y-105917904D02*
X155709904Y-105917904D01*
X155805142Y-105870285D01*
X155852761Y-105822666D01*
X155900380Y-105727428D01*
X155900380Y-105536952D01*
X155852761Y-105441714D01*
X155805142Y-105394095D01*
X155709904Y-105346476D01*
X154900380Y-105346476D01*
X154900380Y-104394095D02*
X154900380Y-104870285D01*
X155376571Y-104917904D01*
X155328952Y-104870285D01*
X155281333Y-104775047D01*
X155281333Y-104536952D01*
X155328952Y-104441714D01*
X155376571Y-104394095D01*
X155471809Y-104346476D01*
X155709904Y-104346476D01*
X155805142Y-104394095D01*
X155852761Y-104441714D01*
X155900380Y-104536952D01*
X155900380Y-104775047D01*
X155852761Y-104870285D01*
X155805142Y-104917904D01*
G04 #@! TO.C,JP1*
X150797366Y-131282380D02*
X150797366Y-131996666D01*
X150749747Y-132139523D01*
X150654509Y-132234761D01*
X150511652Y-132282380D01*
X150416414Y-132282380D01*
X151273557Y-132282380D02*
X151273557Y-131282380D01*
X151654509Y-131282380D01*
X151749747Y-131330000D01*
X151797366Y-131377619D01*
X151844985Y-131472857D01*
X151844985Y-131615714D01*
X151797366Y-131710952D01*
X151749747Y-131758571D01*
X151654509Y-131806190D01*
X151273557Y-131806190D01*
X152797366Y-132282380D02*
X152225938Y-132282380D01*
X152511652Y-132282380D02*
X152511652Y-131282380D01*
X152416414Y-131425238D01*
X152321176Y-131520476D01*
X152225938Y-131568095D01*
G04 #@! TO.C,R24*
X170172142Y-80335380D02*
X169838809Y-79859190D01*
X169600714Y-80335380D02*
X169600714Y-79335380D01*
X169981666Y-79335380D01*
X170076904Y-79383000D01*
X170124523Y-79430619D01*
X170172142Y-79525857D01*
X170172142Y-79668714D01*
X170124523Y-79763952D01*
X170076904Y-79811571D01*
X169981666Y-79859190D01*
X169600714Y-79859190D01*
X170553095Y-79430619D02*
X170600714Y-79383000D01*
X170695952Y-79335380D01*
X170934047Y-79335380D01*
X171029285Y-79383000D01*
X171076904Y-79430619D01*
X171124523Y-79525857D01*
X171124523Y-79621095D01*
X171076904Y-79763952D01*
X170505476Y-80335380D01*
X171124523Y-80335380D01*
X171981666Y-79668714D02*
X171981666Y-80335380D01*
X171743571Y-79287761D02*
X171505476Y-80002047D01*
X172124523Y-80002047D01*
G04 #@! TO.C,R7*
X142200333Y-103957380D02*
X141867000Y-103481190D01*
X141628904Y-103957380D02*
X141628904Y-102957380D01*
X142009857Y-102957380D01*
X142105095Y-103005000D01*
X142152714Y-103052619D01*
X142200333Y-103147857D01*
X142200333Y-103290714D01*
X142152714Y-103385952D01*
X142105095Y-103433571D01*
X142009857Y-103481190D01*
X141628904Y-103481190D01*
X142533666Y-102957380D02*
X143200333Y-102957380D01*
X142771761Y-103957380D01*
G04 #@! TO.C,R23*
X139771380Y-88272857D02*
X139295190Y-88606190D01*
X139771380Y-88844285D02*
X138771380Y-88844285D01*
X138771380Y-88463333D01*
X138819000Y-88368095D01*
X138866619Y-88320476D01*
X138961857Y-88272857D01*
X139104714Y-88272857D01*
X139199952Y-88320476D01*
X139247571Y-88368095D01*
X139295190Y-88463333D01*
X139295190Y-88844285D01*
X138866619Y-87891904D02*
X138819000Y-87844285D01*
X138771380Y-87749047D01*
X138771380Y-87510952D01*
X138819000Y-87415714D01*
X138866619Y-87368095D01*
X138961857Y-87320476D01*
X139057095Y-87320476D01*
X139199952Y-87368095D01*
X139771380Y-87939523D01*
X139771380Y-87320476D01*
X138771380Y-86987142D02*
X138771380Y-86368095D01*
X139152333Y-86701428D01*
X139152333Y-86558571D01*
X139199952Y-86463333D01*
X139247571Y-86415714D01*
X139342809Y-86368095D01*
X139580904Y-86368095D01*
X139676142Y-86415714D01*
X139723761Y-86463333D01*
X139771380Y-86558571D01*
X139771380Y-86844285D01*
X139723761Y-86939523D01*
X139676142Y-86987142D01*
G04 #@! TO.C,J7*
X143759780Y-129758333D02*
X144474066Y-129758333D01*
X144616923Y-129805952D01*
X144712161Y-129901190D01*
X144759780Y-130044047D01*
X144759780Y-130139285D01*
X143759780Y-129377380D02*
X143759780Y-128710714D01*
X144759780Y-129139285D01*
G04 #@! TO.C,J29*
X172934380Y-97456523D02*
X173648666Y-97456523D01*
X173791523Y-97504142D01*
X173886761Y-97599380D01*
X173934380Y-97742238D01*
X173934380Y-97837476D01*
X173029619Y-97027952D02*
X172982000Y-96980333D01*
X172934380Y-96885095D01*
X172934380Y-96647000D01*
X172982000Y-96551761D01*
X173029619Y-96504142D01*
X173124857Y-96456523D01*
X173220095Y-96456523D01*
X173362952Y-96504142D01*
X173934380Y-97075571D01*
X173934380Y-96456523D01*
X173934380Y-95980333D02*
X173934380Y-95789857D01*
X173886761Y-95694619D01*
X173839142Y-95647000D01*
X173696285Y-95551761D01*
X173505809Y-95504142D01*
X173124857Y-95504142D01*
X173029619Y-95551761D01*
X172982000Y-95599380D01*
X172934380Y-95694619D01*
X172934380Y-95885095D01*
X172982000Y-95980333D01*
X173029619Y-96027952D01*
X173124857Y-96075571D01*
X173362952Y-96075571D01*
X173458190Y-96027952D01*
X173505809Y-95980333D01*
X173553428Y-95885095D01*
X173553428Y-95694619D01*
X173505809Y-95599380D01*
X173458190Y-95551761D01*
X173362952Y-95504142D01*
G04 #@! TO.C,U7*
X172720095Y-76033380D02*
X172720095Y-76842904D01*
X172767714Y-76938142D01*
X172815333Y-76985761D01*
X172910571Y-77033380D01*
X173101047Y-77033380D01*
X173196285Y-76985761D01*
X173243904Y-76938142D01*
X173291523Y-76842904D01*
X173291523Y-76033380D01*
X173672476Y-76033380D02*
X174339142Y-76033380D01*
X173910571Y-77033380D01*
G04 #@! TO.C,C26*
X171299142Y-76588857D02*
X171346761Y-76636476D01*
X171394380Y-76779333D01*
X171394380Y-76874571D01*
X171346761Y-77017428D01*
X171251523Y-77112666D01*
X171156285Y-77160285D01*
X170965809Y-77207904D01*
X170822952Y-77207904D01*
X170632476Y-77160285D01*
X170537238Y-77112666D01*
X170442000Y-77017428D01*
X170394380Y-76874571D01*
X170394380Y-76779333D01*
X170442000Y-76636476D01*
X170489619Y-76588857D01*
X170489619Y-76207904D02*
X170442000Y-76160285D01*
X170394380Y-76065047D01*
X170394380Y-75826952D01*
X170442000Y-75731714D01*
X170489619Y-75684095D01*
X170584857Y-75636476D01*
X170680095Y-75636476D01*
X170822952Y-75684095D01*
X171394380Y-76255523D01*
X171394380Y-75636476D01*
X170394380Y-74779333D02*
X170394380Y-74969809D01*
X170442000Y-75065047D01*
X170489619Y-75112666D01*
X170632476Y-75207904D01*
X170822952Y-75255523D01*
X171203904Y-75255523D01*
X171299142Y-75207904D01*
X171346761Y-75160285D01*
X171394380Y-75065047D01*
X171394380Y-74874571D01*
X171346761Y-74779333D01*
X171299142Y-74731714D01*
X171203904Y-74684095D01*
X170965809Y-74684095D01*
X170870571Y-74731714D01*
X170822952Y-74779333D01*
X170775333Y-74874571D01*
X170775333Y-75065047D01*
X170822952Y-75160285D01*
X170870571Y-75207904D01*
X170965809Y-75255523D01*
G04 #@! TO.C,C25*
X168759142Y-88780857D02*
X168806761Y-88828476D01*
X168854380Y-88971333D01*
X168854380Y-89066571D01*
X168806761Y-89209428D01*
X168711523Y-89304666D01*
X168616285Y-89352285D01*
X168425809Y-89399904D01*
X168282952Y-89399904D01*
X168092476Y-89352285D01*
X167997238Y-89304666D01*
X167902000Y-89209428D01*
X167854380Y-89066571D01*
X167854380Y-88971333D01*
X167902000Y-88828476D01*
X167949619Y-88780857D01*
X167949619Y-88399904D02*
X167902000Y-88352285D01*
X167854380Y-88257047D01*
X167854380Y-88018952D01*
X167902000Y-87923714D01*
X167949619Y-87876095D01*
X168044857Y-87828476D01*
X168140095Y-87828476D01*
X168282952Y-87876095D01*
X168854380Y-88447523D01*
X168854380Y-87828476D01*
X167854380Y-86923714D02*
X167854380Y-87399904D01*
X168330571Y-87447523D01*
X168282952Y-87399904D01*
X168235333Y-87304666D01*
X168235333Y-87066571D01*
X168282952Y-86971333D01*
X168330571Y-86923714D01*
X168425809Y-86876095D01*
X168663904Y-86876095D01*
X168759142Y-86923714D01*
X168806761Y-86971333D01*
X168854380Y-87066571D01*
X168854380Y-87304666D01*
X168806761Y-87399904D01*
X168759142Y-87447523D01*
G04 #@! TO.C,C20*
X145264142Y-106814857D02*
X145311761Y-106862476D01*
X145359380Y-107005333D01*
X145359380Y-107100571D01*
X145311761Y-107243428D01*
X145216523Y-107338666D01*
X145121285Y-107386285D01*
X144930809Y-107433904D01*
X144787952Y-107433904D01*
X144597476Y-107386285D01*
X144502238Y-107338666D01*
X144407000Y-107243428D01*
X144359380Y-107100571D01*
X144359380Y-107005333D01*
X144407000Y-106862476D01*
X144454619Y-106814857D01*
X144454619Y-106433904D02*
X144407000Y-106386285D01*
X144359380Y-106291047D01*
X144359380Y-106052952D01*
X144407000Y-105957714D01*
X144454619Y-105910095D01*
X144549857Y-105862476D01*
X144645095Y-105862476D01*
X144787952Y-105910095D01*
X145359380Y-106481523D01*
X145359380Y-105862476D01*
X144359380Y-105243428D02*
X144359380Y-105148190D01*
X144407000Y-105052952D01*
X144454619Y-105005333D01*
X144549857Y-104957714D01*
X144740333Y-104910095D01*
X144978428Y-104910095D01*
X145168904Y-104957714D01*
X145264142Y-105005333D01*
X145311761Y-105052952D01*
X145359380Y-105148190D01*
X145359380Y-105243428D01*
X145311761Y-105338666D01*
X145264142Y-105386285D01*
X145168904Y-105433904D01*
X144978428Y-105481523D01*
X144740333Y-105481523D01*
X144549857Y-105433904D01*
X144454619Y-105386285D01*
X144407000Y-105338666D01*
X144359380Y-105243428D01*
G04 #@! TO.C,C35*
X141470142Y-74398142D02*
X141422523Y-74445761D01*
X141279666Y-74493380D01*
X141184428Y-74493380D01*
X141041571Y-74445761D01*
X140946333Y-74350523D01*
X140898714Y-74255285D01*
X140851095Y-74064809D01*
X140851095Y-73921952D01*
X140898714Y-73731476D01*
X140946333Y-73636238D01*
X141041571Y-73541000D01*
X141184428Y-73493380D01*
X141279666Y-73493380D01*
X141422523Y-73541000D01*
X141470142Y-73588619D01*
X141803476Y-73493380D02*
X142422523Y-73493380D01*
X142089190Y-73874333D01*
X142232047Y-73874333D01*
X142327285Y-73921952D01*
X142374904Y-73969571D01*
X142422523Y-74064809D01*
X142422523Y-74302904D01*
X142374904Y-74398142D01*
X142327285Y-74445761D01*
X142232047Y-74493380D01*
X141946333Y-74493380D01*
X141851095Y-74445761D01*
X141803476Y-74398142D01*
X143327285Y-73493380D02*
X142851095Y-73493380D01*
X142803476Y-73969571D01*
X142851095Y-73921952D01*
X142946333Y-73874333D01*
X143184428Y-73874333D01*
X143279666Y-73921952D01*
X143327285Y-73969571D01*
X143374904Y-74064809D01*
X143374904Y-74302904D01*
X143327285Y-74398142D01*
X143279666Y-74445761D01*
X143184428Y-74493380D01*
X142946333Y-74493380D01*
X142851095Y-74445761D01*
X142803476Y-74398142D01*
G04 #@! TO.C,C6*
X156297333Y-69445142D02*
X156249714Y-69492761D01*
X156106857Y-69540380D01*
X156011619Y-69540380D01*
X155868761Y-69492761D01*
X155773523Y-69397523D01*
X155725904Y-69302285D01*
X155678285Y-69111809D01*
X155678285Y-68968952D01*
X155725904Y-68778476D01*
X155773523Y-68683238D01*
X155868761Y-68588000D01*
X156011619Y-68540380D01*
X156106857Y-68540380D01*
X156249714Y-68588000D01*
X156297333Y-68635619D01*
X157154476Y-68540380D02*
X156964000Y-68540380D01*
X156868761Y-68588000D01*
X156821142Y-68635619D01*
X156725904Y-68778476D01*
X156678285Y-68968952D01*
X156678285Y-69349904D01*
X156725904Y-69445142D01*
X156773523Y-69492761D01*
X156868761Y-69540380D01*
X157059238Y-69540380D01*
X157154476Y-69492761D01*
X157202095Y-69445142D01*
X157249714Y-69349904D01*
X157249714Y-69111809D01*
X157202095Y-69016571D01*
X157154476Y-68968952D01*
X157059238Y-68921333D01*
X156868761Y-68921333D01*
X156773523Y-68968952D01*
X156725904Y-69016571D01*
X156678285Y-69111809D01*
G04 #@! TO.C,C15*
X157218142Y-108815142D02*
X157170523Y-108862761D01*
X157027666Y-108910380D01*
X156932428Y-108910380D01*
X156789571Y-108862761D01*
X156694333Y-108767523D01*
X156646714Y-108672285D01*
X156599095Y-108481809D01*
X156599095Y-108338952D01*
X156646714Y-108148476D01*
X156694333Y-108053238D01*
X156789571Y-107958000D01*
X156932428Y-107910380D01*
X157027666Y-107910380D01*
X157170523Y-107958000D01*
X157218142Y-108005619D01*
X158170523Y-108910380D02*
X157599095Y-108910380D01*
X157884809Y-108910380D02*
X157884809Y-107910380D01*
X157789571Y-108053238D01*
X157694333Y-108148476D01*
X157599095Y-108196095D01*
X159075285Y-107910380D02*
X158599095Y-107910380D01*
X158551476Y-108386571D01*
X158599095Y-108338952D01*
X158694333Y-108291333D01*
X158932428Y-108291333D01*
X159027666Y-108338952D01*
X159075285Y-108386571D01*
X159122904Y-108481809D01*
X159122904Y-108719904D01*
X159075285Y-108815142D01*
X159027666Y-108862761D01*
X158932428Y-108910380D01*
X158694333Y-108910380D01*
X158599095Y-108862761D01*
X158551476Y-108815142D01*
G04 #@! TO.C,C1*
X124420333Y-59031142D02*
X124372714Y-59078761D01*
X124229857Y-59126380D01*
X124134619Y-59126380D01*
X123991761Y-59078761D01*
X123896523Y-58983523D01*
X123848904Y-58888285D01*
X123801285Y-58697809D01*
X123801285Y-58554952D01*
X123848904Y-58364476D01*
X123896523Y-58269238D01*
X123991761Y-58174000D01*
X124134619Y-58126380D01*
X124229857Y-58126380D01*
X124372714Y-58174000D01*
X124420333Y-58221619D01*
X125372714Y-59126380D02*
X124801285Y-59126380D01*
X125087000Y-59126380D02*
X125087000Y-58126380D01*
X124991761Y-58269238D01*
X124896523Y-58364476D01*
X124801285Y-58412095D01*
G04 #@! TO.C,C28*
X171807142Y-86367857D02*
X171854761Y-86415476D01*
X171902380Y-86558333D01*
X171902380Y-86653571D01*
X171854761Y-86796428D01*
X171759523Y-86891666D01*
X171664285Y-86939285D01*
X171473809Y-86986904D01*
X171330952Y-86986904D01*
X171140476Y-86939285D01*
X171045238Y-86891666D01*
X170950000Y-86796428D01*
X170902380Y-86653571D01*
X170902380Y-86558333D01*
X170950000Y-86415476D01*
X170997619Y-86367857D01*
X170997619Y-85986904D02*
X170950000Y-85939285D01*
X170902380Y-85844047D01*
X170902380Y-85605952D01*
X170950000Y-85510714D01*
X170997619Y-85463095D01*
X171092857Y-85415476D01*
X171188095Y-85415476D01*
X171330952Y-85463095D01*
X171902380Y-86034523D01*
X171902380Y-85415476D01*
X171330952Y-84844047D02*
X171283333Y-84939285D01*
X171235714Y-84986904D01*
X171140476Y-85034523D01*
X171092857Y-85034523D01*
X170997619Y-84986904D01*
X170950000Y-84939285D01*
X170902380Y-84844047D01*
X170902380Y-84653571D01*
X170950000Y-84558333D01*
X170997619Y-84510714D01*
X171092857Y-84463095D01*
X171140476Y-84463095D01*
X171235714Y-84510714D01*
X171283333Y-84558333D01*
X171330952Y-84653571D01*
X171330952Y-84844047D01*
X171378571Y-84939285D01*
X171426190Y-84986904D01*
X171521428Y-85034523D01*
X171711904Y-85034523D01*
X171807142Y-84986904D01*
X171854761Y-84939285D01*
X171902380Y-84844047D01*
X171902380Y-84653571D01*
X171854761Y-84558333D01*
X171807142Y-84510714D01*
X171711904Y-84463095D01*
X171521428Y-84463095D01*
X171426190Y-84510714D01*
X171378571Y-84558333D01*
X171330952Y-84653571D01*
G04 #@! TO.C,C39*
X150614142Y-99290142D02*
X150566523Y-99337761D01*
X150423666Y-99385380D01*
X150328428Y-99385380D01*
X150185571Y-99337761D01*
X150090333Y-99242523D01*
X150042714Y-99147285D01*
X149995095Y-98956809D01*
X149995095Y-98813952D01*
X150042714Y-98623476D01*
X150090333Y-98528238D01*
X150185571Y-98433000D01*
X150328428Y-98385380D01*
X150423666Y-98385380D01*
X150566523Y-98433000D01*
X150614142Y-98480619D01*
X150947476Y-98385380D02*
X151566523Y-98385380D01*
X151233190Y-98766333D01*
X151376047Y-98766333D01*
X151471285Y-98813952D01*
X151518904Y-98861571D01*
X151566523Y-98956809D01*
X151566523Y-99194904D01*
X151518904Y-99290142D01*
X151471285Y-99337761D01*
X151376047Y-99385380D01*
X151090333Y-99385380D01*
X150995095Y-99337761D01*
X150947476Y-99290142D01*
X152042714Y-99385380D02*
X152233190Y-99385380D01*
X152328428Y-99337761D01*
X152376047Y-99290142D01*
X152471285Y-99147285D01*
X152518904Y-98956809D01*
X152518904Y-98575857D01*
X152471285Y-98480619D01*
X152423666Y-98433000D01*
X152328428Y-98385380D01*
X152137952Y-98385380D01*
X152042714Y-98433000D01*
X151995095Y-98480619D01*
X151947476Y-98575857D01*
X151947476Y-98813952D01*
X151995095Y-98909190D01*
X152042714Y-98956809D01*
X152137952Y-99004428D01*
X152328428Y-99004428D01*
X152423666Y-98956809D01*
X152471285Y-98909190D01*
X152518904Y-98813952D01*
G04 #@! TO.C,C2*
X180554333Y-60555142D02*
X180506714Y-60602761D01*
X180363857Y-60650380D01*
X180268619Y-60650380D01*
X180125761Y-60602761D01*
X180030523Y-60507523D01*
X179982904Y-60412285D01*
X179935285Y-60221809D01*
X179935285Y-60078952D01*
X179982904Y-59888476D01*
X180030523Y-59793238D01*
X180125761Y-59698000D01*
X180268619Y-59650380D01*
X180363857Y-59650380D01*
X180506714Y-59698000D01*
X180554333Y-59745619D01*
X180935285Y-59745619D02*
X180982904Y-59698000D01*
X181078142Y-59650380D01*
X181316238Y-59650380D01*
X181411476Y-59698000D01*
X181459095Y-59745619D01*
X181506714Y-59840857D01*
X181506714Y-59936095D01*
X181459095Y-60078952D01*
X180887666Y-60650380D01*
X181506714Y-60650380D01*
G04 #@! TO.C,J27*
X130770380Y-94911523D02*
X131484666Y-94911523D01*
X131627523Y-94959142D01*
X131722761Y-95054380D01*
X131770380Y-95197238D01*
X131770380Y-95292476D01*
X130865619Y-94482952D02*
X130818000Y-94435333D01*
X130770380Y-94340095D01*
X130770380Y-94102000D01*
X130818000Y-94006761D01*
X130865619Y-93959142D01*
X130960857Y-93911523D01*
X131056095Y-93911523D01*
X131198952Y-93959142D01*
X131770380Y-94530571D01*
X131770380Y-93911523D01*
X130770380Y-93578190D02*
X130770380Y-92911523D01*
X131770380Y-93340095D01*
G04 #@! TO.C,J2*
X131110580Y-129758333D02*
X131824866Y-129758333D01*
X131967723Y-129805952D01*
X132062961Y-129901190D01*
X132110580Y-130044047D01*
X132110580Y-130139285D01*
X131205819Y-129329761D02*
X131158200Y-129282142D01*
X131110580Y-129186904D01*
X131110580Y-128948809D01*
X131158200Y-128853571D01*
X131205819Y-128805952D01*
X131301057Y-128758333D01*
X131396295Y-128758333D01*
X131539152Y-128805952D01*
X132110580Y-129377380D01*
X132110580Y-128758333D01*
G04 #@! TO.C,C21*
X139565142Y-76176142D02*
X139517523Y-76223761D01*
X139374666Y-76271380D01*
X139279428Y-76271380D01*
X139136571Y-76223761D01*
X139041333Y-76128523D01*
X138993714Y-76033285D01*
X138946095Y-75842809D01*
X138946095Y-75699952D01*
X138993714Y-75509476D01*
X139041333Y-75414238D01*
X139136571Y-75319000D01*
X139279428Y-75271380D01*
X139374666Y-75271380D01*
X139517523Y-75319000D01*
X139565142Y-75366619D01*
X139946095Y-75366619D02*
X139993714Y-75319000D01*
X140088952Y-75271380D01*
X140327047Y-75271380D01*
X140422285Y-75319000D01*
X140469904Y-75366619D01*
X140517523Y-75461857D01*
X140517523Y-75557095D01*
X140469904Y-75699952D01*
X139898476Y-76271380D01*
X140517523Y-76271380D01*
X141469904Y-76271380D02*
X140898476Y-76271380D01*
X141184190Y-76271380D02*
X141184190Y-75271380D01*
X141088952Y-75414238D01*
X140993714Y-75509476D01*
X140898476Y-75557095D01*
G04 #@! TO.C,R21*
X142613142Y-72969380D02*
X142279809Y-72493190D01*
X142041714Y-72969380D02*
X142041714Y-71969380D01*
X142422666Y-71969380D01*
X142517904Y-72017000D01*
X142565523Y-72064619D01*
X142613142Y-72159857D01*
X142613142Y-72302714D01*
X142565523Y-72397952D01*
X142517904Y-72445571D01*
X142422666Y-72493190D01*
X142041714Y-72493190D01*
X142994095Y-72064619D02*
X143041714Y-72017000D01*
X143136952Y-71969380D01*
X143375047Y-71969380D01*
X143470285Y-72017000D01*
X143517904Y-72064619D01*
X143565523Y-72159857D01*
X143565523Y-72255095D01*
X143517904Y-72397952D01*
X142946476Y-72969380D01*
X143565523Y-72969380D01*
X144517904Y-72969380D02*
X143946476Y-72969380D01*
X144232190Y-72969380D02*
X144232190Y-71969380D01*
X144136952Y-72112238D01*
X144041714Y-72207476D01*
X143946476Y-72255095D01*
G04 #@! TO.C,R16*
X157345142Y-105608380D02*
X157011809Y-105132190D01*
X156773714Y-105608380D02*
X156773714Y-104608380D01*
X157154666Y-104608380D01*
X157249904Y-104656000D01*
X157297523Y-104703619D01*
X157345142Y-104798857D01*
X157345142Y-104941714D01*
X157297523Y-105036952D01*
X157249904Y-105084571D01*
X157154666Y-105132190D01*
X156773714Y-105132190D01*
X158297523Y-105608380D02*
X157726095Y-105608380D01*
X158011809Y-105608380D02*
X158011809Y-104608380D01*
X157916571Y-104751238D01*
X157821333Y-104846476D01*
X157726095Y-104894095D01*
X159154666Y-104608380D02*
X158964190Y-104608380D01*
X158868952Y-104656000D01*
X158821333Y-104703619D01*
X158726095Y-104846476D01*
X158678476Y-105036952D01*
X158678476Y-105417904D01*
X158726095Y-105513142D01*
X158773714Y-105560761D01*
X158868952Y-105608380D01*
X159059428Y-105608380D01*
X159154666Y-105560761D01*
X159202285Y-105513142D01*
X159249904Y-105417904D01*
X159249904Y-105179809D01*
X159202285Y-105084571D01*
X159154666Y-105036952D01*
X159059428Y-104989333D01*
X158868952Y-104989333D01*
X158773714Y-105036952D01*
X158726095Y-105084571D01*
X158678476Y-105179809D01*
G04 #@! TO.C,J10*
X168527380Y-130730523D02*
X169241666Y-130730523D01*
X169384523Y-130778142D01*
X169479761Y-130873380D01*
X169527380Y-131016238D01*
X169527380Y-131111476D01*
X169527380Y-129730523D02*
X169527380Y-130301952D01*
X169527380Y-130016238D02*
X168527380Y-130016238D01*
X168670238Y-130111476D01*
X168765476Y-130206714D01*
X168813095Y-130301952D01*
X168527380Y-129111476D02*
X168527380Y-129016238D01*
X168575000Y-128921000D01*
X168622619Y-128873380D01*
X168717857Y-128825761D01*
X168908333Y-128778142D01*
X169146428Y-128778142D01*
X169336904Y-128825761D01*
X169432142Y-128873380D01*
X169479761Y-128921000D01*
X169527380Y-129016238D01*
X169527380Y-129111476D01*
X169479761Y-129206714D01*
X169432142Y-129254333D01*
X169336904Y-129301952D01*
X169146428Y-129349571D01*
X168908333Y-129349571D01*
X168717857Y-129301952D01*
X168622619Y-129254333D01*
X168575000Y-129206714D01*
X168527380Y-129111476D01*
G04 #@! TO.C,R12*
X149550380Y-109481857D02*
X149074190Y-109815190D01*
X149550380Y-110053285D02*
X148550380Y-110053285D01*
X148550380Y-109672333D01*
X148598000Y-109577095D01*
X148645619Y-109529476D01*
X148740857Y-109481857D01*
X148883714Y-109481857D01*
X148978952Y-109529476D01*
X149026571Y-109577095D01*
X149074190Y-109672333D01*
X149074190Y-110053285D01*
X149550380Y-108529476D02*
X149550380Y-109100904D01*
X149550380Y-108815190D02*
X148550380Y-108815190D01*
X148693238Y-108910428D01*
X148788476Y-109005666D01*
X148836095Y-109100904D01*
X148645619Y-108148523D02*
X148598000Y-108100904D01*
X148550380Y-108005666D01*
X148550380Y-107767571D01*
X148598000Y-107672333D01*
X148645619Y-107624714D01*
X148740857Y-107577095D01*
X148836095Y-107577095D01*
X148978952Y-107624714D01*
X149550380Y-108196142D01*
X149550380Y-107577095D01*
G04 #@! TO.C,R4*
X150082180Y-60034466D02*
X149605990Y-60367800D01*
X150082180Y-60605895D02*
X149082180Y-60605895D01*
X149082180Y-60224942D01*
X149129800Y-60129704D01*
X149177419Y-60082085D01*
X149272657Y-60034466D01*
X149415514Y-60034466D01*
X149510752Y-60082085D01*
X149558371Y-60129704D01*
X149605990Y-60224942D01*
X149605990Y-60605895D01*
X149415514Y-59177323D02*
X150082180Y-59177323D01*
X149034561Y-59415419D02*
X149748847Y-59653514D01*
X149748847Y-59034466D01*
G04 #@! TO.C,C17*
X149963142Y-101353857D02*
X150010761Y-101401476D01*
X150058380Y-101544333D01*
X150058380Y-101639571D01*
X150010761Y-101782428D01*
X149915523Y-101877666D01*
X149820285Y-101925285D01*
X149629809Y-101972904D01*
X149486952Y-101972904D01*
X149296476Y-101925285D01*
X149201238Y-101877666D01*
X149106000Y-101782428D01*
X149058380Y-101639571D01*
X149058380Y-101544333D01*
X149106000Y-101401476D01*
X149153619Y-101353857D01*
X150058380Y-100401476D02*
X150058380Y-100972904D01*
X150058380Y-100687190D02*
X149058380Y-100687190D01*
X149201238Y-100782428D01*
X149296476Y-100877666D01*
X149344095Y-100972904D01*
X149058380Y-100068142D02*
X149058380Y-99401476D01*
X150058380Y-99830047D01*
G04 #@! TO.C,C36*
X138041142Y-78970142D02*
X137993523Y-79017761D01*
X137850666Y-79065380D01*
X137755428Y-79065380D01*
X137612571Y-79017761D01*
X137517333Y-78922523D01*
X137469714Y-78827285D01*
X137422095Y-78636809D01*
X137422095Y-78493952D01*
X137469714Y-78303476D01*
X137517333Y-78208238D01*
X137612571Y-78113000D01*
X137755428Y-78065380D01*
X137850666Y-78065380D01*
X137993523Y-78113000D01*
X138041142Y-78160619D01*
X138374476Y-78065380D02*
X138993523Y-78065380D01*
X138660190Y-78446333D01*
X138803047Y-78446333D01*
X138898285Y-78493952D01*
X138945904Y-78541571D01*
X138993523Y-78636809D01*
X138993523Y-78874904D01*
X138945904Y-78970142D01*
X138898285Y-79017761D01*
X138803047Y-79065380D01*
X138517333Y-79065380D01*
X138422095Y-79017761D01*
X138374476Y-78970142D01*
X139850666Y-78065380D02*
X139660190Y-78065380D01*
X139564952Y-78113000D01*
X139517333Y-78160619D01*
X139422095Y-78303476D01*
X139374476Y-78493952D01*
X139374476Y-78874904D01*
X139422095Y-78970142D01*
X139469714Y-79017761D01*
X139564952Y-79065380D01*
X139755428Y-79065380D01*
X139850666Y-79017761D01*
X139898285Y-78970142D01*
X139945904Y-78874904D01*
X139945904Y-78636809D01*
X139898285Y-78541571D01*
X139850666Y-78493952D01*
X139755428Y-78446333D01*
X139564952Y-78446333D01*
X139469714Y-78493952D01*
X139422095Y-78541571D01*
X139374476Y-78636809D01*
G04 #@! TO.C,U1*
X147534380Y-62356904D02*
X148343904Y-62356904D01*
X148439142Y-62309285D01*
X148486761Y-62261666D01*
X148534380Y-62166428D01*
X148534380Y-61975952D01*
X148486761Y-61880714D01*
X148439142Y-61833095D01*
X148343904Y-61785476D01*
X147534380Y-61785476D01*
X148534380Y-60785476D02*
X148534380Y-61356904D01*
X148534380Y-61071190D02*
X147534380Y-61071190D01*
X147677238Y-61166428D01*
X147772476Y-61261666D01*
X147820095Y-61356904D01*
G04 #@! TO.C,C10*
X143994142Y-98051857D02*
X144041761Y-98099476D01*
X144089380Y-98242333D01*
X144089380Y-98337571D01*
X144041761Y-98480428D01*
X143946523Y-98575666D01*
X143851285Y-98623285D01*
X143660809Y-98670904D01*
X143517952Y-98670904D01*
X143327476Y-98623285D01*
X143232238Y-98575666D01*
X143137000Y-98480428D01*
X143089380Y-98337571D01*
X143089380Y-98242333D01*
X143137000Y-98099476D01*
X143184619Y-98051857D01*
X144089380Y-97099476D02*
X144089380Y-97670904D01*
X144089380Y-97385190D02*
X143089380Y-97385190D01*
X143232238Y-97480428D01*
X143327476Y-97575666D01*
X143375095Y-97670904D01*
X143089380Y-96480428D02*
X143089380Y-96385190D01*
X143137000Y-96289952D01*
X143184619Y-96242333D01*
X143279857Y-96194714D01*
X143470333Y-96147095D01*
X143708428Y-96147095D01*
X143898904Y-96194714D01*
X143994142Y-96242333D01*
X144041761Y-96289952D01*
X144089380Y-96385190D01*
X144089380Y-96480428D01*
X144041761Y-96575666D01*
X143994142Y-96623285D01*
X143898904Y-96670904D01*
X143708428Y-96718523D01*
X143470333Y-96718523D01*
X143279857Y-96670904D01*
X143184619Y-96623285D01*
X143137000Y-96575666D01*
X143089380Y-96480428D01*
G04 #@! TO.C,R15*
X170172142Y-104973380D02*
X169838809Y-104497190D01*
X169600714Y-104973380D02*
X169600714Y-103973380D01*
X169981666Y-103973380D01*
X170076904Y-104021000D01*
X170124523Y-104068619D01*
X170172142Y-104163857D01*
X170172142Y-104306714D01*
X170124523Y-104401952D01*
X170076904Y-104449571D01*
X169981666Y-104497190D01*
X169600714Y-104497190D01*
X171124523Y-104973380D02*
X170553095Y-104973380D01*
X170838809Y-104973380D02*
X170838809Y-103973380D01*
X170743571Y-104116238D01*
X170648333Y-104211476D01*
X170553095Y-104259095D01*
X172029285Y-103973380D02*
X171553095Y-103973380D01*
X171505476Y-104449571D01*
X171553095Y-104401952D01*
X171648333Y-104354333D01*
X171886428Y-104354333D01*
X171981666Y-104401952D01*
X172029285Y-104449571D01*
X172076904Y-104544809D01*
X172076904Y-104782904D01*
X172029285Y-104878142D01*
X171981666Y-104925761D01*
X171886428Y-104973380D01*
X171648333Y-104973380D01*
X171553095Y-104925761D01*
X171505476Y-104878142D01*
G04 #@! TO.C,C29*
X139422142Y-93987857D02*
X139469761Y-94035476D01*
X139517380Y-94178333D01*
X139517380Y-94273571D01*
X139469761Y-94416428D01*
X139374523Y-94511666D01*
X139279285Y-94559285D01*
X139088809Y-94606904D01*
X138945952Y-94606904D01*
X138755476Y-94559285D01*
X138660238Y-94511666D01*
X138565000Y-94416428D01*
X138517380Y-94273571D01*
X138517380Y-94178333D01*
X138565000Y-94035476D01*
X138612619Y-93987857D01*
X138612619Y-93606904D02*
X138565000Y-93559285D01*
X138517380Y-93464047D01*
X138517380Y-93225952D01*
X138565000Y-93130714D01*
X138612619Y-93083095D01*
X138707857Y-93035476D01*
X138803095Y-93035476D01*
X138945952Y-93083095D01*
X139517380Y-93654523D01*
X139517380Y-93035476D01*
X139517380Y-92559285D02*
X139517380Y-92368809D01*
X139469761Y-92273571D01*
X139422142Y-92225952D01*
X139279285Y-92130714D01*
X139088809Y-92083095D01*
X138707857Y-92083095D01*
X138612619Y-92130714D01*
X138565000Y-92178333D01*
X138517380Y-92273571D01*
X138517380Y-92464047D01*
X138565000Y-92559285D01*
X138612619Y-92606904D01*
X138707857Y-92654523D01*
X138945952Y-92654523D01*
X139041190Y-92606904D01*
X139088809Y-92559285D01*
X139136428Y-92464047D01*
X139136428Y-92273571D01*
X139088809Y-92178333D01*
X139041190Y-92130714D01*
X138945952Y-92083095D01*
G04 #@! TO.C,Y1*
X136755190Y-87979190D02*
X137231380Y-87979190D01*
X136231380Y-88312523D02*
X136755190Y-87979190D01*
X136231380Y-87645857D01*
X137231380Y-86788714D02*
X137231380Y-87360142D01*
X137231380Y-87074428D02*
X136231380Y-87074428D01*
X136374238Y-87169666D01*
X136469476Y-87264904D01*
X136517095Y-87360142D01*
G04 #@! TO.C,U6*
X154746145Y-85380580D02*
X154746145Y-86190104D01*
X154793764Y-86285342D01*
X154841383Y-86332961D01*
X154936621Y-86380580D01*
X155127097Y-86380580D01*
X155222335Y-86332961D01*
X155269954Y-86285342D01*
X155317573Y-86190104D01*
X155317573Y-85380580D01*
X156222335Y-85380580D02*
X156031859Y-85380580D01*
X155936621Y-85428200D01*
X155889002Y-85475819D01*
X155793764Y-85618676D01*
X155746145Y-85809152D01*
X155746145Y-86190104D01*
X155793764Y-86285342D01*
X155841383Y-86332961D01*
X155936621Y-86380580D01*
X156127097Y-86380580D01*
X156222335Y-86332961D01*
X156269954Y-86285342D01*
X156317573Y-86190104D01*
X156317573Y-85952009D01*
X156269954Y-85856771D01*
X156222335Y-85809152D01*
X156127097Y-85761533D01*
X155936621Y-85761533D01*
X155841383Y-85809152D01*
X155793764Y-85856771D01*
X155746145Y-85952009D01*
G04 #@! TO.C,Y2*
X140366809Y-77700190D02*
X140366809Y-78176380D01*
X140033476Y-77176380D02*
X140366809Y-77700190D01*
X140700142Y-77176380D01*
X140985857Y-77271619D02*
X141033476Y-77224000D01*
X141128714Y-77176380D01*
X141366809Y-77176380D01*
X141462047Y-77224000D01*
X141509666Y-77271619D01*
X141557285Y-77366857D01*
X141557285Y-77462095D01*
X141509666Y-77604952D01*
X140938238Y-78176380D01*
X141557285Y-78176380D01*
X137196580Y-80467200D02*
X137434676Y-80467200D01*
X137339438Y-80705295D02*
X137434676Y-80467200D01*
X137339438Y-80229104D01*
X137625152Y-80610057D02*
X137434676Y-80467200D01*
X137625152Y-80324342D01*
G04 #@! TO.C,D1*
X176299904Y-83891380D02*
X176299904Y-82891380D01*
X176538000Y-82891380D01*
X176680857Y-82939000D01*
X176776095Y-83034238D01*
X176823714Y-83129476D01*
X176871333Y-83319952D01*
X176871333Y-83462809D01*
X176823714Y-83653285D01*
X176776095Y-83748523D01*
X176680857Y-83843761D01*
X176538000Y-83891380D01*
X176299904Y-83891380D01*
X177823714Y-83891380D02*
X177252285Y-83891380D01*
X177538000Y-83891380D02*
X177538000Y-82891380D01*
X177442761Y-83034238D01*
X177347523Y-83129476D01*
X177252285Y-83177095D01*
G04 #@! TO.C,C27*
X134850142Y-88018857D02*
X134897761Y-88066476D01*
X134945380Y-88209333D01*
X134945380Y-88304571D01*
X134897761Y-88447428D01*
X134802523Y-88542666D01*
X134707285Y-88590285D01*
X134516809Y-88637904D01*
X134373952Y-88637904D01*
X134183476Y-88590285D01*
X134088238Y-88542666D01*
X133993000Y-88447428D01*
X133945380Y-88304571D01*
X133945380Y-88209333D01*
X133993000Y-88066476D01*
X134040619Y-88018857D01*
X134040619Y-87637904D02*
X133993000Y-87590285D01*
X133945380Y-87495047D01*
X133945380Y-87256952D01*
X133993000Y-87161714D01*
X134040619Y-87114095D01*
X134135857Y-87066476D01*
X134231095Y-87066476D01*
X134373952Y-87114095D01*
X134945380Y-87685523D01*
X134945380Y-87066476D01*
X133945380Y-86733142D02*
X133945380Y-86066476D01*
X134945380Y-86495047D01*
G04 #@! TO.C,C22*
X140438142Y-96781857D02*
X140485761Y-96829476D01*
X140533380Y-96972333D01*
X140533380Y-97067571D01*
X140485761Y-97210428D01*
X140390523Y-97305666D01*
X140295285Y-97353285D01*
X140104809Y-97400904D01*
X139961952Y-97400904D01*
X139771476Y-97353285D01*
X139676238Y-97305666D01*
X139581000Y-97210428D01*
X139533380Y-97067571D01*
X139533380Y-96972333D01*
X139581000Y-96829476D01*
X139628619Y-96781857D01*
X139628619Y-96400904D02*
X139581000Y-96353285D01*
X139533380Y-96258047D01*
X139533380Y-96019952D01*
X139581000Y-95924714D01*
X139628619Y-95877095D01*
X139723857Y-95829476D01*
X139819095Y-95829476D01*
X139961952Y-95877095D01*
X140533380Y-96448523D01*
X140533380Y-95829476D01*
X139628619Y-95448523D02*
X139581000Y-95400904D01*
X139533380Y-95305666D01*
X139533380Y-95067571D01*
X139581000Y-94972333D01*
X139628619Y-94924714D01*
X139723857Y-94877095D01*
X139819095Y-94877095D01*
X139961952Y-94924714D01*
X140533380Y-95496142D01*
X140533380Y-94877095D01*
G04 #@! TO.C,C37*
X141657142Y-88747142D02*
X141609523Y-88794761D01*
X141466666Y-88842380D01*
X141371428Y-88842380D01*
X141228571Y-88794761D01*
X141133333Y-88699523D01*
X141085714Y-88604285D01*
X141038095Y-88413809D01*
X141038095Y-88270952D01*
X141085714Y-88080476D01*
X141133333Y-87985238D01*
X141228571Y-87890000D01*
X141371428Y-87842380D01*
X141466666Y-87842380D01*
X141609523Y-87890000D01*
X141657142Y-87937619D01*
X141990476Y-87842380D02*
X142609523Y-87842380D01*
X142276190Y-88223333D01*
X142419047Y-88223333D01*
X142514285Y-88270952D01*
X142561904Y-88318571D01*
X142609523Y-88413809D01*
X142609523Y-88651904D01*
X142561904Y-88747142D01*
X142514285Y-88794761D01*
X142419047Y-88842380D01*
X142133333Y-88842380D01*
X142038095Y-88794761D01*
X141990476Y-88747142D01*
X142942857Y-87842380D02*
X143609523Y-87842380D01*
X143180952Y-88842380D01*
G04 #@! TO.C,C14*
X168124142Y-123959857D02*
X168171761Y-124007476D01*
X168219380Y-124150333D01*
X168219380Y-124245571D01*
X168171761Y-124388428D01*
X168076523Y-124483666D01*
X167981285Y-124531285D01*
X167790809Y-124578904D01*
X167647952Y-124578904D01*
X167457476Y-124531285D01*
X167362238Y-124483666D01*
X167267000Y-124388428D01*
X167219380Y-124245571D01*
X167219380Y-124150333D01*
X167267000Y-124007476D01*
X167314619Y-123959857D01*
X168219380Y-123007476D02*
X168219380Y-123578904D01*
X168219380Y-123293190D02*
X167219380Y-123293190D01*
X167362238Y-123388428D01*
X167457476Y-123483666D01*
X167505095Y-123578904D01*
X167552714Y-122150333D02*
X168219380Y-122150333D01*
X167171761Y-122388428D02*
X167886047Y-122626523D01*
X167886047Y-122007476D01*
G04 #@! TO.C,J18*
X175093380Y-89963523D02*
X175807666Y-89963523D01*
X175950523Y-90011142D01*
X176045761Y-90106380D01*
X176093380Y-90249238D01*
X176093380Y-90344476D01*
X176093380Y-88963523D02*
X176093380Y-89534952D01*
X176093380Y-89249238D02*
X175093380Y-89249238D01*
X175236238Y-89344476D01*
X175331476Y-89439714D01*
X175379095Y-89534952D01*
X175521952Y-88392095D02*
X175474333Y-88487333D01*
X175426714Y-88534952D01*
X175331476Y-88582571D01*
X175283857Y-88582571D01*
X175188619Y-88534952D01*
X175141000Y-88487333D01*
X175093380Y-88392095D01*
X175093380Y-88201619D01*
X175141000Y-88106380D01*
X175188619Y-88058761D01*
X175283857Y-88011142D01*
X175331476Y-88011142D01*
X175426714Y-88058761D01*
X175474333Y-88106380D01*
X175521952Y-88201619D01*
X175521952Y-88392095D01*
X175569571Y-88487333D01*
X175617190Y-88534952D01*
X175712428Y-88582571D01*
X175902904Y-88582571D01*
X175998142Y-88534952D01*
X176045761Y-88487333D01*
X176093380Y-88392095D01*
X176093380Y-88201619D01*
X176045761Y-88106380D01*
X175998142Y-88058761D01*
X175902904Y-88011142D01*
X175712428Y-88011142D01*
X175617190Y-88058761D01*
X175569571Y-88106380D01*
X175521952Y-88201619D01*
G04 #@! TO.C,J4*
X136127380Y-129758333D02*
X136841666Y-129758333D01*
X136984523Y-129805952D01*
X137079761Y-129901190D01*
X137127380Y-130044047D01*
X137127380Y-130139285D01*
X136460714Y-128853571D02*
X137127380Y-128853571D01*
X136079761Y-129091666D02*
X136794047Y-129329761D01*
X136794047Y-128710714D01*
G04 #@! TO.C,D8*
X122832904Y-76144380D02*
X122832904Y-75144380D01*
X123071000Y-75144380D01*
X123213857Y-75192000D01*
X123309095Y-75287238D01*
X123356714Y-75382476D01*
X123404333Y-75572952D01*
X123404333Y-75715809D01*
X123356714Y-75906285D01*
X123309095Y-76001523D01*
X123213857Y-76096761D01*
X123071000Y-76144380D01*
X122832904Y-76144380D01*
X123975761Y-75572952D02*
X123880523Y-75525333D01*
X123832904Y-75477714D01*
X123785285Y-75382476D01*
X123785285Y-75334857D01*
X123832904Y-75239619D01*
X123880523Y-75192000D01*
X123975761Y-75144380D01*
X124166238Y-75144380D01*
X124261476Y-75192000D01*
X124309095Y-75239619D01*
X124356714Y-75334857D01*
X124356714Y-75382476D01*
X124309095Y-75477714D01*
X124261476Y-75525333D01*
X124166238Y-75572952D01*
X123975761Y-75572952D01*
X123880523Y-75620571D01*
X123832904Y-75668190D01*
X123785285Y-75763428D01*
X123785285Y-75953904D01*
X123832904Y-76049142D01*
X123880523Y-76096761D01*
X123975761Y-76144380D01*
X124166238Y-76144380D01*
X124261476Y-76096761D01*
X124309095Y-76049142D01*
X124356714Y-75953904D01*
X124356714Y-75763428D01*
X124309095Y-75668190D01*
X124261476Y-75620571D01*
X124166238Y-75572952D01*
G04 #@! TO.C,R18*
X163187142Y-102941380D02*
X162853809Y-102465190D01*
X162615714Y-102941380D02*
X162615714Y-101941380D01*
X162996666Y-101941380D01*
X163091904Y-101989000D01*
X163139523Y-102036619D01*
X163187142Y-102131857D01*
X163187142Y-102274714D01*
X163139523Y-102369952D01*
X163091904Y-102417571D01*
X162996666Y-102465190D01*
X162615714Y-102465190D01*
X164139523Y-102941380D02*
X163568095Y-102941380D01*
X163853809Y-102941380D02*
X163853809Y-101941380D01*
X163758571Y-102084238D01*
X163663333Y-102179476D01*
X163568095Y-102227095D01*
X164710952Y-102369952D02*
X164615714Y-102322333D01*
X164568095Y-102274714D01*
X164520476Y-102179476D01*
X164520476Y-102131857D01*
X164568095Y-102036619D01*
X164615714Y-101989000D01*
X164710952Y-101941380D01*
X164901428Y-101941380D01*
X164996666Y-101989000D01*
X165044285Y-102036619D01*
X165091904Y-102131857D01*
X165091904Y-102179476D01*
X165044285Y-102274714D01*
X164996666Y-102322333D01*
X164901428Y-102369952D01*
X164710952Y-102369952D01*
X164615714Y-102417571D01*
X164568095Y-102465190D01*
X164520476Y-102560428D01*
X164520476Y-102750904D01*
X164568095Y-102846142D01*
X164615714Y-102893761D01*
X164710952Y-102941380D01*
X164901428Y-102941380D01*
X164996666Y-102893761D01*
X165044285Y-102846142D01*
X165091904Y-102750904D01*
X165091904Y-102560428D01*
X165044285Y-102465190D01*
X164996666Y-102417571D01*
X164901428Y-102369952D01*
G04 #@! TO.C,U2*
X157440380Y-62737904D02*
X158249904Y-62737904D01*
X158345142Y-62690285D01*
X158392761Y-62642666D01*
X158440380Y-62547428D01*
X158440380Y-62356952D01*
X158392761Y-62261714D01*
X158345142Y-62214095D01*
X158249904Y-62166476D01*
X157440380Y-62166476D01*
X157535619Y-61737904D02*
X157488000Y-61690285D01*
X157440380Y-61595047D01*
X157440380Y-61356952D01*
X157488000Y-61261714D01*
X157535619Y-61214095D01*
X157630857Y-61166476D01*
X157726095Y-61166476D01*
X157868952Y-61214095D01*
X158440380Y-61785523D01*
X158440380Y-61166476D01*
G04 #@! TO.C,R14*
X170172142Y-106624380D02*
X169838809Y-106148190D01*
X169600714Y-106624380D02*
X169600714Y-105624380D01*
X169981666Y-105624380D01*
X170076904Y-105672000D01*
X170124523Y-105719619D01*
X170172142Y-105814857D01*
X170172142Y-105957714D01*
X170124523Y-106052952D01*
X170076904Y-106100571D01*
X169981666Y-106148190D01*
X169600714Y-106148190D01*
X171124523Y-106624380D02*
X170553095Y-106624380D01*
X170838809Y-106624380D02*
X170838809Y-105624380D01*
X170743571Y-105767238D01*
X170648333Y-105862476D01*
X170553095Y-105910095D01*
X171981666Y-105957714D02*
X171981666Y-106624380D01*
X171743571Y-105576761D02*
X171505476Y-106291047D01*
X172124523Y-106291047D01*
G04 #@! TO.C,J15*
X146510476Y-56221380D02*
X146510476Y-56935666D01*
X146462857Y-57078523D01*
X146367619Y-57173761D01*
X146224761Y-57221380D01*
X146129523Y-57221380D01*
X147510476Y-57221380D02*
X146939047Y-57221380D01*
X147224761Y-57221380D02*
X147224761Y-56221380D01*
X147129523Y-56364238D01*
X147034285Y-56459476D01*
X146939047Y-56507095D01*
X148415238Y-56221380D02*
X147939047Y-56221380D01*
X147891428Y-56697571D01*
X147939047Y-56649952D01*
X148034285Y-56602333D01*
X148272380Y-56602333D01*
X148367619Y-56649952D01*
X148415238Y-56697571D01*
X148462857Y-56792809D01*
X148462857Y-57030904D01*
X148415238Y-57126142D01*
X148367619Y-57173761D01*
X148272380Y-57221380D01*
X148034285Y-57221380D01*
X147939047Y-57173761D01*
X147891428Y-57126142D01*
G04 #@! TO.C,D10*
X122864714Y-79065380D02*
X122864714Y-78065380D01*
X123102809Y-78065380D01*
X123245666Y-78113000D01*
X123340904Y-78208238D01*
X123388523Y-78303476D01*
X123436142Y-78493952D01*
X123436142Y-78636809D01*
X123388523Y-78827285D01*
X123340904Y-78922523D01*
X123245666Y-79017761D01*
X123102809Y-79065380D01*
X122864714Y-79065380D01*
X124388523Y-79065380D02*
X123817095Y-79065380D01*
X124102809Y-79065380D02*
X124102809Y-78065380D01*
X124007571Y-78208238D01*
X123912333Y-78303476D01*
X123817095Y-78351095D01*
X125007571Y-78065380D02*
X125102809Y-78065380D01*
X125198047Y-78113000D01*
X125245666Y-78160619D01*
X125293285Y-78255857D01*
X125340904Y-78446333D01*
X125340904Y-78684428D01*
X125293285Y-78874904D01*
X125245666Y-78970142D01*
X125198047Y-79017761D01*
X125102809Y-79065380D01*
X125007571Y-79065380D01*
X124912333Y-79017761D01*
X124864714Y-78970142D01*
X124817095Y-78874904D01*
X124769476Y-78684428D01*
X124769476Y-78446333D01*
X124817095Y-78255857D01*
X124864714Y-78160619D01*
X124912333Y-78113000D01*
X125007571Y-78065380D01*
G04 #@! TO.C,J5*
X138777380Y-129758333D02*
X139491666Y-129758333D01*
X139634523Y-129805952D01*
X139729761Y-129901190D01*
X139777380Y-130044047D01*
X139777380Y-130139285D01*
X138777380Y-128805952D02*
X138777380Y-129282142D01*
X139253571Y-129329761D01*
X139205952Y-129282142D01*
X139158333Y-129186904D01*
X139158333Y-128948809D01*
X139205952Y-128853571D01*
X139253571Y-128805952D01*
X139348809Y-128758333D01*
X139586904Y-128758333D01*
X139682142Y-128805952D01*
X139729761Y-128853571D01*
X139777380Y-128948809D01*
X139777380Y-129186904D01*
X139729761Y-129282142D01*
X139682142Y-129329761D01*
G04 #@! TO.C,R20*
X149169380Y-70111857D02*
X148693190Y-70445190D01*
X149169380Y-70683285D02*
X148169380Y-70683285D01*
X148169380Y-70302333D01*
X148217000Y-70207095D01*
X148264619Y-70159476D01*
X148359857Y-70111857D01*
X148502714Y-70111857D01*
X148597952Y-70159476D01*
X148645571Y-70207095D01*
X148693190Y-70302333D01*
X148693190Y-70683285D01*
X148264619Y-69730904D02*
X148217000Y-69683285D01*
X148169380Y-69588047D01*
X148169380Y-69349952D01*
X148217000Y-69254714D01*
X148264619Y-69207095D01*
X148359857Y-69159476D01*
X148455095Y-69159476D01*
X148597952Y-69207095D01*
X149169380Y-69778523D01*
X149169380Y-69159476D01*
X148169380Y-68540428D02*
X148169380Y-68445190D01*
X148217000Y-68349952D01*
X148264619Y-68302333D01*
X148359857Y-68254714D01*
X148550333Y-68207095D01*
X148788428Y-68207095D01*
X148978904Y-68254714D01*
X149074142Y-68302333D01*
X149121761Y-68349952D01*
X149169380Y-68445190D01*
X149169380Y-68540428D01*
X149121761Y-68635666D01*
X149074142Y-68683285D01*
X148978904Y-68730904D01*
X148788428Y-68778523D01*
X148550333Y-68778523D01*
X148359857Y-68730904D01*
X148264619Y-68683285D01*
X148217000Y-68635666D01*
X148169380Y-68540428D01*
G04 #@! TO.C,D5*
X122832904Y-71572380D02*
X122832904Y-70572380D01*
X123071000Y-70572380D01*
X123213857Y-70620000D01*
X123309095Y-70715238D01*
X123356714Y-70810476D01*
X123404333Y-71000952D01*
X123404333Y-71143809D01*
X123356714Y-71334285D01*
X123309095Y-71429523D01*
X123213857Y-71524761D01*
X123071000Y-71572380D01*
X122832904Y-71572380D01*
X124309095Y-70572380D02*
X123832904Y-70572380D01*
X123785285Y-71048571D01*
X123832904Y-71000952D01*
X123928142Y-70953333D01*
X124166238Y-70953333D01*
X124261476Y-71000952D01*
X124309095Y-71048571D01*
X124356714Y-71143809D01*
X124356714Y-71381904D01*
X124309095Y-71477142D01*
X124261476Y-71524761D01*
X124166238Y-71572380D01*
X123928142Y-71572380D01*
X123832904Y-71524761D01*
X123785285Y-71477142D01*
G04 #@! TO.C,J26*
X173188380Y-124380523D02*
X173902666Y-124380523D01*
X174045523Y-124428142D01*
X174140761Y-124523380D01*
X174188380Y-124666238D01*
X174188380Y-124761476D01*
X173283619Y-123951952D02*
X173236000Y-123904333D01*
X173188380Y-123809095D01*
X173188380Y-123571000D01*
X173236000Y-123475761D01*
X173283619Y-123428142D01*
X173378857Y-123380523D01*
X173474095Y-123380523D01*
X173616952Y-123428142D01*
X174188380Y-123999571D01*
X174188380Y-123380523D01*
X173188380Y-122523380D02*
X173188380Y-122713857D01*
X173236000Y-122809095D01*
X173283619Y-122856714D01*
X173426476Y-122951952D01*
X173616952Y-122999571D01*
X173997904Y-122999571D01*
X174093142Y-122951952D01*
X174140761Y-122904333D01*
X174188380Y-122809095D01*
X174188380Y-122618619D01*
X174140761Y-122523380D01*
X174093142Y-122475761D01*
X173997904Y-122428142D01*
X173759809Y-122428142D01*
X173664571Y-122475761D01*
X173616952Y-122523380D01*
X173569333Y-122618619D01*
X173569333Y-122809095D01*
X173616952Y-122904333D01*
X173664571Y-122951952D01*
X173759809Y-122999571D01*
G04 #@! TO.C,J17*
X164806380Y-113424690D02*
X165520666Y-113424690D01*
X165663523Y-113472309D01*
X165758761Y-113567547D01*
X165806380Y-113710404D01*
X165806380Y-113805642D01*
X165806380Y-112424690D02*
X165806380Y-112996119D01*
X165806380Y-112710404D02*
X164806380Y-112710404D01*
X164949238Y-112805642D01*
X165044476Y-112900880D01*
X165092095Y-112996119D01*
X164806380Y-112091357D02*
X164806380Y-111424690D01*
X165806380Y-111853261D01*
G04 #@! TO.C,R10*
X146677142Y-101290380D02*
X146343809Y-100814190D01*
X146105714Y-101290380D02*
X146105714Y-100290380D01*
X146486666Y-100290380D01*
X146581904Y-100338000D01*
X146629523Y-100385619D01*
X146677142Y-100480857D01*
X146677142Y-100623714D01*
X146629523Y-100718952D01*
X146581904Y-100766571D01*
X146486666Y-100814190D01*
X146105714Y-100814190D01*
X147629523Y-101290380D02*
X147058095Y-101290380D01*
X147343809Y-101290380D02*
X147343809Y-100290380D01*
X147248571Y-100433238D01*
X147153333Y-100528476D01*
X147058095Y-100576095D01*
X148248571Y-100290380D02*
X148343809Y-100290380D01*
X148439047Y-100338000D01*
X148486666Y-100385619D01*
X148534285Y-100480857D01*
X148581904Y-100671333D01*
X148581904Y-100909428D01*
X148534285Y-101099904D01*
X148486666Y-101195142D01*
X148439047Y-101242761D01*
X148343809Y-101290380D01*
X148248571Y-101290380D01*
X148153333Y-101242761D01*
X148105714Y-101195142D01*
X148058095Y-101099904D01*
X148010476Y-100909428D01*
X148010476Y-100671333D01*
X148058095Y-100480857D01*
X148105714Y-100385619D01*
X148153333Y-100338000D01*
X148248571Y-100290380D01*
G04 #@! TO.C,C13*
X164187142Y-127769857D02*
X164234761Y-127817476D01*
X164282380Y-127960333D01*
X164282380Y-128055571D01*
X164234761Y-128198428D01*
X164139523Y-128293666D01*
X164044285Y-128341285D01*
X163853809Y-128388904D01*
X163710952Y-128388904D01*
X163520476Y-128341285D01*
X163425238Y-128293666D01*
X163330000Y-128198428D01*
X163282380Y-128055571D01*
X163282380Y-127960333D01*
X163330000Y-127817476D01*
X163377619Y-127769857D01*
X164282380Y-126817476D02*
X164282380Y-127388904D01*
X164282380Y-127103190D02*
X163282380Y-127103190D01*
X163425238Y-127198428D01*
X163520476Y-127293666D01*
X163568095Y-127388904D01*
X163282380Y-126484142D02*
X163282380Y-125865095D01*
X163663333Y-126198428D01*
X163663333Y-126055571D01*
X163710952Y-125960333D01*
X163758571Y-125912714D01*
X163853809Y-125865095D01*
X164091904Y-125865095D01*
X164187142Y-125912714D01*
X164234761Y-125960333D01*
X164282380Y-126055571D01*
X164282380Y-126341285D01*
X164234761Y-126436523D01*
X164187142Y-126484142D01*
G04 #@! TO.C,D4*
X122832904Y-67000380D02*
X122832904Y-66000380D01*
X123071000Y-66000380D01*
X123213857Y-66048000D01*
X123309095Y-66143238D01*
X123356714Y-66238476D01*
X123404333Y-66428952D01*
X123404333Y-66571809D01*
X123356714Y-66762285D01*
X123309095Y-66857523D01*
X123213857Y-66952761D01*
X123071000Y-67000380D01*
X122832904Y-67000380D01*
X124261476Y-66333714D02*
X124261476Y-67000380D01*
X124023380Y-65952761D02*
X123785285Y-66667047D01*
X124404333Y-66667047D01*
G04 #@! TO.C,C23*
X135231142Y-97289857D02*
X135278761Y-97337476D01*
X135326380Y-97480333D01*
X135326380Y-97575571D01*
X135278761Y-97718428D01*
X135183523Y-97813666D01*
X135088285Y-97861285D01*
X134897809Y-97908904D01*
X134754952Y-97908904D01*
X134564476Y-97861285D01*
X134469238Y-97813666D01*
X134374000Y-97718428D01*
X134326380Y-97575571D01*
X134326380Y-97480333D01*
X134374000Y-97337476D01*
X134421619Y-97289857D01*
X134421619Y-96908904D02*
X134374000Y-96861285D01*
X134326380Y-96766047D01*
X134326380Y-96527952D01*
X134374000Y-96432714D01*
X134421619Y-96385095D01*
X134516857Y-96337476D01*
X134612095Y-96337476D01*
X134754952Y-96385095D01*
X135326380Y-96956523D01*
X135326380Y-96337476D01*
X134326380Y-96004142D02*
X134326380Y-95385095D01*
X134707333Y-95718428D01*
X134707333Y-95575571D01*
X134754952Y-95480333D01*
X134802571Y-95432714D01*
X134897809Y-95385095D01*
X135135904Y-95385095D01*
X135231142Y-95432714D01*
X135278761Y-95480333D01*
X135326380Y-95575571D01*
X135326380Y-95861285D01*
X135278761Y-95956523D01*
X135231142Y-96004142D01*
G04 #@! TO.C,D7*
X122832904Y-62301380D02*
X122832904Y-61301380D01*
X123071000Y-61301380D01*
X123213857Y-61349000D01*
X123309095Y-61444238D01*
X123356714Y-61539476D01*
X123404333Y-61729952D01*
X123404333Y-61872809D01*
X123356714Y-62063285D01*
X123309095Y-62158523D01*
X123213857Y-62253761D01*
X123071000Y-62301380D01*
X122832904Y-62301380D01*
X123737666Y-61301380D02*
X124404333Y-61301380D01*
X123975761Y-62301380D01*
G04 #@! TO.C,J25*
X178006476Y-73112380D02*
X178006476Y-73826666D01*
X177958857Y-73969523D01*
X177863619Y-74064761D01*
X177720761Y-74112380D01*
X177625523Y-74112380D01*
X178435047Y-73207619D02*
X178482666Y-73160000D01*
X178577904Y-73112380D01*
X178816000Y-73112380D01*
X178911238Y-73160000D01*
X178958857Y-73207619D01*
X179006476Y-73302857D01*
X179006476Y-73398095D01*
X178958857Y-73540952D01*
X178387428Y-74112380D01*
X179006476Y-74112380D01*
X179911238Y-73112380D02*
X179435047Y-73112380D01*
X179387428Y-73588571D01*
X179435047Y-73540952D01*
X179530285Y-73493333D01*
X179768380Y-73493333D01*
X179863619Y-73540952D01*
X179911238Y-73588571D01*
X179958857Y-73683809D01*
X179958857Y-73921904D01*
X179911238Y-74017142D01*
X179863619Y-74064761D01*
X179768380Y-74112380D01*
X179530285Y-74112380D01*
X179435047Y-74064761D01*
X179387428Y-74017142D01*
G04 #@! TO.C,J24*
X170466109Y-69230664D02*
X170466109Y-69946041D01*
X170418417Y-70089116D01*
X170323033Y-70184500D01*
X170179958Y-70232192D01*
X170084574Y-70232192D01*
X170895335Y-69326047D02*
X170943027Y-69278356D01*
X171038410Y-69230664D01*
X171276870Y-69230664D01*
X171372253Y-69278356D01*
X171419945Y-69326047D01*
X171467637Y-69421431D01*
X171467637Y-69516815D01*
X171419945Y-69659890D01*
X170847643Y-70232192D01*
X171467637Y-70232192D01*
X172326089Y-69564506D02*
X172326089Y-70232192D01*
X172087630Y-69182972D02*
X171849171Y-69898349D01*
X172469165Y-69898349D01*
G04 #@! TO.C,C4*
X175871142Y-132246666D02*
X175918761Y-132294285D01*
X175966380Y-132437142D01*
X175966380Y-132532380D01*
X175918761Y-132675238D01*
X175823523Y-132770476D01*
X175728285Y-132818095D01*
X175537809Y-132865714D01*
X175394952Y-132865714D01*
X175204476Y-132818095D01*
X175109238Y-132770476D01*
X175014000Y-132675238D01*
X174966380Y-132532380D01*
X174966380Y-132437142D01*
X175014000Y-132294285D01*
X175061619Y-132246666D01*
X175299714Y-131389523D02*
X175966380Y-131389523D01*
X174918761Y-131627619D02*
X175633047Y-131865714D01*
X175633047Y-131246666D01*
G04 #@! TO.C,J22*
X137374380Y-101901523D02*
X138088666Y-101901523D01*
X138231523Y-101949142D01*
X138326761Y-102044380D01*
X138374380Y-102187238D01*
X138374380Y-102282476D01*
X137469619Y-101472952D02*
X137422000Y-101425333D01*
X137374380Y-101330095D01*
X137374380Y-101092000D01*
X137422000Y-100996761D01*
X137469619Y-100949142D01*
X137564857Y-100901523D01*
X137660095Y-100901523D01*
X137802952Y-100949142D01*
X138374380Y-101520571D01*
X138374380Y-100901523D01*
X137469619Y-100520571D02*
X137422000Y-100472952D01*
X137374380Y-100377714D01*
X137374380Y-100139619D01*
X137422000Y-100044380D01*
X137469619Y-99996761D01*
X137564857Y-99949142D01*
X137660095Y-99949142D01*
X137802952Y-99996761D01*
X138374380Y-100568190D01*
X138374380Y-99949142D01*
G04 #@! TO.C,J6*
X141402380Y-129758333D02*
X142116666Y-129758333D01*
X142259523Y-129805952D01*
X142354761Y-129901190D01*
X142402380Y-130044047D01*
X142402380Y-130139285D01*
X141402380Y-128853571D02*
X141402380Y-129044047D01*
X141450000Y-129139285D01*
X141497619Y-129186904D01*
X141640476Y-129282142D01*
X141830952Y-129329761D01*
X142211904Y-129329761D01*
X142307142Y-129282142D01*
X142354761Y-129234523D01*
X142402380Y-129139285D01*
X142402380Y-128948809D01*
X142354761Y-128853571D01*
X142307142Y-128805952D01*
X142211904Y-128758333D01*
X141973809Y-128758333D01*
X141878571Y-128805952D01*
X141830952Y-128853571D01*
X141783333Y-128948809D01*
X141783333Y-129139285D01*
X141830952Y-129234523D01*
X141878571Y-129282142D01*
X141973809Y-129329761D01*
G04 #@! TO.C,C44*
X138041142Y-82526142D02*
X137993523Y-82573761D01*
X137850666Y-82621380D01*
X137755428Y-82621380D01*
X137612571Y-82573761D01*
X137517333Y-82478523D01*
X137469714Y-82383285D01*
X137422095Y-82192809D01*
X137422095Y-82049952D01*
X137469714Y-81859476D01*
X137517333Y-81764238D01*
X137612571Y-81669000D01*
X137755428Y-81621380D01*
X137850666Y-81621380D01*
X137993523Y-81669000D01*
X138041142Y-81716619D01*
X138898285Y-81954714D02*
X138898285Y-82621380D01*
X138660190Y-81573761D02*
X138422095Y-82288047D01*
X139041142Y-82288047D01*
X139850666Y-81954714D02*
X139850666Y-82621380D01*
X139612571Y-81573761D02*
X139374476Y-82288047D01*
X139993523Y-82288047D01*
G04 #@! TO.C,J3*
X133599780Y-129758333D02*
X134314066Y-129758333D01*
X134456923Y-129805952D01*
X134552161Y-129901190D01*
X134599780Y-130044047D01*
X134599780Y-130139285D01*
X133599780Y-129377380D02*
X133599780Y-128758333D01*
X133980733Y-129091666D01*
X133980733Y-128948809D01*
X134028352Y-128853571D01*
X134075971Y-128805952D01*
X134171209Y-128758333D01*
X134409304Y-128758333D01*
X134504542Y-128805952D01*
X134552161Y-128853571D01*
X134599780Y-128948809D01*
X134599780Y-129234523D01*
X134552161Y-129329761D01*
X134504542Y-129377380D01*
G04 #@! TO.C,C5*
X145121333Y-69826142D02*
X145073714Y-69873761D01*
X144930857Y-69921380D01*
X144835619Y-69921380D01*
X144692761Y-69873761D01*
X144597523Y-69778523D01*
X144549904Y-69683285D01*
X144502285Y-69492809D01*
X144502285Y-69349952D01*
X144549904Y-69159476D01*
X144597523Y-69064238D01*
X144692761Y-68969000D01*
X144835619Y-68921380D01*
X144930857Y-68921380D01*
X145073714Y-68969000D01*
X145121333Y-69016619D01*
X146026095Y-68921380D02*
X145549904Y-68921380D01*
X145502285Y-69397571D01*
X145549904Y-69349952D01*
X145645142Y-69302333D01*
X145883238Y-69302333D01*
X145978476Y-69349952D01*
X146026095Y-69397571D01*
X146073714Y-69492809D01*
X146073714Y-69730904D01*
X146026095Y-69826142D01*
X145978476Y-69873761D01*
X145883238Y-69921380D01*
X145645142Y-69921380D01*
X145549904Y-69873761D01*
X145502285Y-69826142D01*
G04 #@! TO.C,U3*
X155763980Y-117601904D02*
X156573504Y-117601904D01*
X156668742Y-117554285D01*
X156716361Y-117506666D01*
X156763980Y-117411428D01*
X156763980Y-117220952D01*
X156716361Y-117125714D01*
X156668742Y-117078095D01*
X156573504Y-117030476D01*
X155763980Y-117030476D01*
X155763980Y-116649523D02*
X155763980Y-116030476D01*
X156144933Y-116363809D01*
X156144933Y-116220952D01*
X156192552Y-116125714D01*
X156240171Y-116078095D01*
X156335409Y-116030476D01*
X156573504Y-116030476D01*
X156668742Y-116078095D01*
X156716361Y-116125714D01*
X156763980Y-116220952D01*
X156763980Y-116506666D01*
X156716361Y-116601904D01*
X156668742Y-116649523D01*
G04 #@! TO.C,R2*
X159456380Y-65190666D02*
X158980190Y-65524000D01*
X159456380Y-65762095D02*
X158456380Y-65762095D01*
X158456380Y-65381142D01*
X158504000Y-65285904D01*
X158551619Y-65238285D01*
X158646857Y-65190666D01*
X158789714Y-65190666D01*
X158884952Y-65238285D01*
X158932571Y-65285904D01*
X158980190Y-65381142D01*
X158980190Y-65762095D01*
X158551619Y-64809714D02*
X158504000Y-64762095D01*
X158456380Y-64666857D01*
X158456380Y-64428761D01*
X158504000Y-64333523D01*
X158551619Y-64285904D01*
X158646857Y-64238285D01*
X158742095Y-64238285D01*
X158884952Y-64285904D01*
X159456380Y-64857333D01*
X159456380Y-64238285D01*
G04 #@! TO.C,J21*
X138263380Y-115744523D02*
X138977666Y-115744523D01*
X139120523Y-115792142D01*
X139215761Y-115887380D01*
X139263380Y-116030238D01*
X139263380Y-116125476D01*
X138358619Y-115315952D02*
X138311000Y-115268333D01*
X138263380Y-115173095D01*
X138263380Y-114935000D01*
X138311000Y-114839761D01*
X138358619Y-114792142D01*
X138453857Y-114744523D01*
X138549095Y-114744523D01*
X138691952Y-114792142D01*
X139263380Y-115363571D01*
X139263380Y-114744523D01*
X139263380Y-113792142D02*
X139263380Y-114363571D01*
X139263380Y-114077857D02*
X138263380Y-114077857D01*
X138406238Y-114173095D01*
X138501476Y-114268333D01*
X138549095Y-114363571D01*
G04 #@! TO.C,J8*
X146299780Y-129758333D02*
X147014066Y-129758333D01*
X147156923Y-129805952D01*
X147252161Y-129901190D01*
X147299780Y-130044047D01*
X147299780Y-130139285D01*
X146728352Y-129139285D02*
X146680733Y-129234523D01*
X146633114Y-129282142D01*
X146537876Y-129329761D01*
X146490257Y-129329761D01*
X146395019Y-129282142D01*
X146347400Y-129234523D01*
X146299780Y-129139285D01*
X146299780Y-128948809D01*
X146347400Y-128853571D01*
X146395019Y-128805952D01*
X146490257Y-128758333D01*
X146537876Y-128758333D01*
X146633114Y-128805952D01*
X146680733Y-128853571D01*
X146728352Y-128948809D01*
X146728352Y-129139285D01*
X146775971Y-129234523D01*
X146823590Y-129282142D01*
X146918828Y-129329761D01*
X147109304Y-129329761D01*
X147204542Y-129282142D01*
X147252161Y-129234523D01*
X147299780Y-129139285D01*
X147299780Y-128948809D01*
X147252161Y-128853571D01*
X147204542Y-128805952D01*
X147109304Y-128758333D01*
X146918828Y-128758333D01*
X146823590Y-128805952D01*
X146775971Y-128853571D01*
X146728352Y-128948809D01*
G04 #@! TO.C,C12*
X163695142Y-115673142D02*
X163647523Y-115720761D01*
X163504666Y-115768380D01*
X163409428Y-115768380D01*
X163266571Y-115720761D01*
X163171333Y-115625523D01*
X163123714Y-115530285D01*
X163076095Y-115339809D01*
X163076095Y-115196952D01*
X163123714Y-115006476D01*
X163171333Y-114911238D01*
X163266571Y-114816000D01*
X163409428Y-114768380D01*
X163504666Y-114768380D01*
X163647523Y-114816000D01*
X163695142Y-114863619D01*
X164647523Y-115768380D02*
X164076095Y-115768380D01*
X164361809Y-115768380D02*
X164361809Y-114768380D01*
X164266571Y-114911238D01*
X164171333Y-115006476D01*
X164076095Y-115054095D01*
X165028476Y-114863619D02*
X165076095Y-114816000D01*
X165171333Y-114768380D01*
X165409428Y-114768380D01*
X165504666Y-114816000D01*
X165552285Y-114863619D01*
X165599904Y-114958857D01*
X165599904Y-115054095D01*
X165552285Y-115196952D01*
X164980857Y-115768380D01*
X165599904Y-115768380D01*
G04 #@! TO.C,C11*
X166997142Y-119737142D02*
X166949523Y-119784761D01*
X166806666Y-119832380D01*
X166711428Y-119832380D01*
X166568571Y-119784761D01*
X166473333Y-119689523D01*
X166425714Y-119594285D01*
X166378095Y-119403809D01*
X166378095Y-119260952D01*
X166425714Y-119070476D01*
X166473333Y-118975238D01*
X166568571Y-118880000D01*
X166711428Y-118832380D01*
X166806666Y-118832380D01*
X166949523Y-118880000D01*
X166997142Y-118927619D01*
X167949523Y-119832380D02*
X167378095Y-119832380D01*
X167663809Y-119832380D02*
X167663809Y-118832380D01*
X167568571Y-118975238D01*
X167473333Y-119070476D01*
X167378095Y-119118095D01*
X168901904Y-119832380D02*
X168330476Y-119832380D01*
X168616190Y-119832380D02*
X168616190Y-118832380D01*
X168520952Y-118975238D01*
X168425714Y-119070476D01*
X168330476Y-119118095D01*
G04 #@! TO.C,R8*
X141549380Y-101004666D02*
X141073190Y-101338000D01*
X141549380Y-101576095D02*
X140549380Y-101576095D01*
X140549380Y-101195142D01*
X140597000Y-101099904D01*
X140644619Y-101052285D01*
X140739857Y-101004666D01*
X140882714Y-101004666D01*
X140977952Y-101052285D01*
X141025571Y-101099904D01*
X141073190Y-101195142D01*
X141073190Y-101576095D01*
X140977952Y-100433238D02*
X140930333Y-100528476D01*
X140882714Y-100576095D01*
X140787476Y-100623714D01*
X140739857Y-100623714D01*
X140644619Y-100576095D01*
X140597000Y-100528476D01*
X140549380Y-100433238D01*
X140549380Y-100242761D01*
X140597000Y-100147523D01*
X140644619Y-100099904D01*
X140739857Y-100052285D01*
X140787476Y-100052285D01*
X140882714Y-100099904D01*
X140930333Y-100147523D01*
X140977952Y-100242761D01*
X140977952Y-100433238D01*
X141025571Y-100528476D01*
X141073190Y-100576095D01*
X141168428Y-100623714D01*
X141358904Y-100623714D01*
X141454142Y-100576095D01*
X141501761Y-100528476D01*
X141549380Y-100433238D01*
X141549380Y-100242761D01*
X141501761Y-100147523D01*
X141454142Y-100099904D01*
X141358904Y-100052285D01*
X141168428Y-100052285D01*
X141073190Y-100099904D01*
X141025571Y-100147523D01*
X140977952Y-100242761D01*
G04 #@! TO.C,R11*
X163187142Y-101671380D02*
X162853809Y-101195190D01*
X162615714Y-101671380D02*
X162615714Y-100671380D01*
X162996666Y-100671380D01*
X163091904Y-100719000D01*
X163139523Y-100766619D01*
X163187142Y-100861857D01*
X163187142Y-101004714D01*
X163139523Y-101099952D01*
X163091904Y-101147571D01*
X162996666Y-101195190D01*
X162615714Y-101195190D01*
X164139523Y-101671380D02*
X163568095Y-101671380D01*
X163853809Y-101671380D02*
X163853809Y-100671380D01*
X163758571Y-100814238D01*
X163663333Y-100909476D01*
X163568095Y-100957095D01*
X165091904Y-101671380D02*
X164520476Y-101671380D01*
X164806190Y-101671380D02*
X164806190Y-100671380D01*
X164710952Y-100814238D01*
X164615714Y-100909476D01*
X164520476Y-100957095D01*
G04 #@! TO.C,D2*
X131643380Y-121642095D02*
X130643380Y-121642095D01*
X130643380Y-121404000D01*
X130691000Y-121261142D01*
X130786238Y-121165904D01*
X130881476Y-121118285D01*
X131071952Y-121070666D01*
X131214809Y-121070666D01*
X131405285Y-121118285D01*
X131500523Y-121165904D01*
X131595761Y-121261142D01*
X131643380Y-121404000D01*
X131643380Y-121642095D01*
X130738619Y-120689714D02*
X130691000Y-120642095D01*
X130643380Y-120546857D01*
X130643380Y-120308761D01*
X130691000Y-120213523D01*
X130738619Y-120165904D01*
X130833857Y-120118285D01*
X130929095Y-120118285D01*
X131071952Y-120165904D01*
X131643380Y-120737333D01*
X131643380Y-120118285D01*
G04 #@! TO.C,J1*
X180113266Y-61504580D02*
X180113266Y-62218866D01*
X180065647Y-62361723D01*
X179970409Y-62456961D01*
X179827552Y-62504580D01*
X179732314Y-62504580D01*
X181113266Y-62504580D02*
X180541838Y-62504580D01*
X180827552Y-62504580D02*
X180827552Y-61504580D01*
X180732314Y-61647438D01*
X180637076Y-61742676D01*
X180541838Y-61790295D01*
G04 #@! TO.C,D3*
X122832904Y-73858380D02*
X122832904Y-72858380D01*
X123071000Y-72858380D01*
X123213857Y-72906000D01*
X123309095Y-73001238D01*
X123356714Y-73096476D01*
X123404333Y-73286952D01*
X123404333Y-73429809D01*
X123356714Y-73620285D01*
X123309095Y-73715523D01*
X123213857Y-73810761D01*
X123071000Y-73858380D01*
X122832904Y-73858380D01*
X123737666Y-72858380D02*
X124356714Y-72858380D01*
X124023380Y-73239333D01*
X124166238Y-73239333D01*
X124261476Y-73286952D01*
X124309095Y-73334571D01*
X124356714Y-73429809D01*
X124356714Y-73667904D01*
X124309095Y-73763142D01*
X124261476Y-73810761D01*
X124166238Y-73858380D01*
X123880523Y-73858380D01*
X123785285Y-73810761D01*
X123737666Y-73763142D01*
G04 #@! TO.C,J16*
X156289476Y-55967380D02*
X156289476Y-56681666D01*
X156241857Y-56824523D01*
X156146619Y-56919761D01*
X156003761Y-56967380D01*
X155908523Y-56967380D01*
X157289476Y-56967380D02*
X156718047Y-56967380D01*
X157003761Y-56967380D02*
X157003761Y-55967380D01*
X156908523Y-56110238D01*
X156813285Y-56205476D01*
X156718047Y-56253095D01*
X158146619Y-55967380D02*
X157956142Y-55967380D01*
X157860904Y-56015000D01*
X157813285Y-56062619D01*
X157718047Y-56205476D01*
X157670428Y-56395952D01*
X157670428Y-56776904D01*
X157718047Y-56872142D01*
X157765666Y-56919761D01*
X157860904Y-56967380D01*
X158051380Y-56967380D01*
X158146619Y-56919761D01*
X158194238Y-56872142D01*
X158241857Y-56776904D01*
X158241857Y-56538809D01*
X158194238Y-56443571D01*
X158146619Y-56395952D01*
X158051380Y-56348333D01*
X157860904Y-56348333D01*
X157765666Y-56395952D01*
X157718047Y-56443571D01*
X157670428Y-56538809D01*
G04 #@! TO.C,D6*
X122832904Y-64587380D02*
X122832904Y-63587380D01*
X123071000Y-63587380D01*
X123213857Y-63635000D01*
X123309095Y-63730238D01*
X123356714Y-63825476D01*
X123404333Y-64015952D01*
X123404333Y-64158809D01*
X123356714Y-64349285D01*
X123309095Y-64444523D01*
X123213857Y-64539761D01*
X123071000Y-64587380D01*
X122832904Y-64587380D01*
X124261476Y-63587380D02*
X124071000Y-63587380D01*
X123975761Y-63635000D01*
X123928142Y-63682619D01*
X123832904Y-63825476D01*
X123785285Y-64015952D01*
X123785285Y-64396904D01*
X123832904Y-64492142D01*
X123880523Y-64539761D01*
X123975761Y-64587380D01*
X124166238Y-64587380D01*
X124261476Y-64539761D01*
X124309095Y-64492142D01*
X124356714Y-64396904D01*
X124356714Y-64158809D01*
X124309095Y-64063571D01*
X124261476Y-64015952D01*
X124166238Y-63968333D01*
X123975761Y-63968333D01*
X123880523Y-64015952D01*
X123832904Y-64063571D01*
X123785285Y-64158809D01*
G04 #@! TO.C,R9*
X140152380Y-101004666D02*
X139676190Y-101338000D01*
X140152380Y-101576095D02*
X139152380Y-101576095D01*
X139152380Y-101195142D01*
X139200000Y-101099904D01*
X139247619Y-101052285D01*
X139342857Y-101004666D01*
X139485714Y-101004666D01*
X139580952Y-101052285D01*
X139628571Y-101099904D01*
X139676190Y-101195142D01*
X139676190Y-101576095D01*
X140152380Y-100528476D02*
X140152380Y-100338000D01*
X140104761Y-100242761D01*
X140057142Y-100195142D01*
X139914285Y-100099904D01*
X139723809Y-100052285D01*
X139342857Y-100052285D01*
X139247619Y-100099904D01*
X139200000Y-100147523D01*
X139152380Y-100242761D01*
X139152380Y-100433238D01*
X139200000Y-100528476D01*
X139247619Y-100576095D01*
X139342857Y-100623714D01*
X139580952Y-100623714D01*
X139676190Y-100576095D01*
X139723809Y-100528476D01*
X139771428Y-100433238D01*
X139771428Y-100242761D01*
X139723809Y-100147523D01*
X139676190Y-100099904D01*
X139580952Y-100052285D01*
G04 #@! TO.C,U4*
X151511095Y-108799380D02*
X151511095Y-109608904D01*
X151558714Y-109704142D01*
X151606333Y-109751761D01*
X151701571Y-109799380D01*
X151892047Y-109799380D01*
X151987285Y-109751761D01*
X152034904Y-109704142D01*
X152082523Y-109608904D01*
X152082523Y-108799380D01*
X152987285Y-109132714D02*
X152987285Y-109799380D01*
X152749190Y-108751761D02*
X152511095Y-109466047D01*
X153130142Y-109466047D01*
G04 #@! TO.C,J19*
X127341380Y-118284523D02*
X128055666Y-118284523D01*
X128198523Y-118332142D01*
X128293761Y-118427380D01*
X128341380Y-118570238D01*
X128341380Y-118665476D01*
X128341380Y-117284523D02*
X128341380Y-117855952D01*
X128341380Y-117570238D02*
X127341380Y-117570238D01*
X127484238Y-117665476D01*
X127579476Y-117760714D01*
X127627095Y-117855952D01*
X128341380Y-116808333D02*
X128341380Y-116617857D01*
X128293761Y-116522619D01*
X128246142Y-116475000D01*
X128103285Y-116379761D01*
X127912809Y-116332142D01*
X127531857Y-116332142D01*
X127436619Y-116379761D01*
X127389000Y-116427380D01*
X127341380Y-116522619D01*
X127341380Y-116713095D01*
X127389000Y-116808333D01*
X127436619Y-116855952D01*
X127531857Y-116903571D01*
X127769952Y-116903571D01*
X127865190Y-116855952D01*
X127912809Y-116808333D01*
X127960428Y-116713095D01*
X127960428Y-116522619D01*
X127912809Y-116427380D01*
X127865190Y-116379761D01*
X127769952Y-116332142D01*
G04 #@! TO.C,C40*
X142851142Y-85097857D02*
X142898761Y-85145476D01*
X142946380Y-85288333D01*
X142946380Y-85383571D01*
X142898761Y-85526428D01*
X142803523Y-85621666D01*
X142708285Y-85669285D01*
X142517809Y-85716904D01*
X142374952Y-85716904D01*
X142184476Y-85669285D01*
X142089238Y-85621666D01*
X141994000Y-85526428D01*
X141946380Y-85383571D01*
X141946380Y-85288333D01*
X141994000Y-85145476D01*
X142041619Y-85097857D01*
X142279714Y-84240714D02*
X142946380Y-84240714D01*
X141898761Y-84478809D02*
X142613047Y-84716904D01*
X142613047Y-84097857D01*
X141946380Y-83526428D02*
X141946380Y-83431190D01*
X141994000Y-83335952D01*
X142041619Y-83288333D01*
X142136857Y-83240714D01*
X142327333Y-83193095D01*
X142565428Y-83193095D01*
X142755904Y-83240714D01*
X142851142Y-83288333D01*
X142898761Y-83335952D01*
X142946380Y-83431190D01*
X142946380Y-83526428D01*
X142898761Y-83621666D01*
X142851142Y-83669285D01*
X142755904Y-83716904D01*
X142565428Y-83764523D01*
X142327333Y-83764523D01*
X142136857Y-83716904D01*
X142041619Y-83669285D01*
X141994000Y-83621666D01*
X141946380Y-83526428D01*
G04 #@! TO.C,C18*
X159488142Y-111844057D02*
X159535761Y-111891676D01*
X159583380Y-112034533D01*
X159583380Y-112129771D01*
X159535761Y-112272628D01*
X159440523Y-112367866D01*
X159345285Y-112415485D01*
X159154809Y-112463104D01*
X159011952Y-112463104D01*
X158821476Y-112415485D01*
X158726238Y-112367866D01*
X158631000Y-112272628D01*
X158583380Y-112129771D01*
X158583380Y-112034533D01*
X158631000Y-111891676D01*
X158678619Y-111844057D01*
X159583380Y-110891676D02*
X159583380Y-111463104D01*
X159583380Y-111177390D02*
X158583380Y-111177390D01*
X158726238Y-111272628D01*
X158821476Y-111367866D01*
X158869095Y-111463104D01*
X159011952Y-110320247D02*
X158964333Y-110415485D01*
X158916714Y-110463104D01*
X158821476Y-110510723D01*
X158773857Y-110510723D01*
X158678619Y-110463104D01*
X158631000Y-110415485D01*
X158583380Y-110320247D01*
X158583380Y-110129771D01*
X158631000Y-110034533D01*
X158678619Y-109986914D01*
X158773857Y-109939295D01*
X158821476Y-109939295D01*
X158916714Y-109986914D01*
X158964333Y-110034533D01*
X159011952Y-110129771D01*
X159011952Y-110320247D01*
X159059571Y-110415485D01*
X159107190Y-110463104D01*
X159202428Y-110510723D01*
X159392904Y-110510723D01*
X159488142Y-110463104D01*
X159535761Y-110415485D01*
X159583380Y-110320247D01*
X159583380Y-110129771D01*
X159535761Y-110034533D01*
X159488142Y-109986914D01*
X159392904Y-109939295D01*
X159202428Y-109939295D01*
X159107190Y-109986914D01*
X159059571Y-110034533D01*
X159011952Y-110129771D01*
G04 #@! TO.C,J13*
X158676880Y-129633923D02*
X159391166Y-129633923D01*
X159534023Y-129681542D01*
X159629261Y-129776780D01*
X159676880Y-129919638D01*
X159676880Y-130014876D01*
X159676880Y-128633923D02*
X159676880Y-129205352D01*
X159676880Y-128919638D02*
X158676880Y-128919638D01*
X158819738Y-129014876D01*
X158914976Y-129110114D01*
X158962595Y-129205352D01*
X158676880Y-128300590D02*
X158676880Y-127681542D01*
X159057833Y-128014876D01*
X159057833Y-127872019D01*
X159105452Y-127776780D01*
X159153071Y-127729161D01*
X159248309Y-127681542D01*
X159486404Y-127681542D01*
X159581642Y-127729161D01*
X159629261Y-127776780D01*
X159676880Y-127872019D01*
X159676880Y-128157733D01*
X159629261Y-128252971D01*
X159581642Y-128300590D01*
G04 #@! TO.C,R25*
X171315142Y-83891380D02*
X170981809Y-83415190D01*
X170743714Y-83891380D02*
X170743714Y-82891380D01*
X171124666Y-82891380D01*
X171219904Y-82939000D01*
X171267523Y-82986619D01*
X171315142Y-83081857D01*
X171315142Y-83224714D01*
X171267523Y-83319952D01*
X171219904Y-83367571D01*
X171124666Y-83415190D01*
X170743714Y-83415190D01*
X171696095Y-82986619D02*
X171743714Y-82939000D01*
X171838952Y-82891380D01*
X172077047Y-82891380D01*
X172172285Y-82939000D01*
X172219904Y-82986619D01*
X172267523Y-83081857D01*
X172267523Y-83177095D01*
X172219904Y-83319952D01*
X171648476Y-83891380D01*
X172267523Y-83891380D01*
X173172285Y-82891380D02*
X172696095Y-82891380D01*
X172648476Y-83367571D01*
X172696095Y-83319952D01*
X172791333Y-83272333D01*
X173029428Y-83272333D01*
X173124666Y-83319952D01*
X173172285Y-83367571D01*
X173219904Y-83462809D01*
X173219904Y-83700904D01*
X173172285Y-83796142D01*
X173124666Y-83843761D01*
X173029428Y-83891380D01*
X172791333Y-83891380D01*
X172696095Y-83843761D01*
X172648476Y-83796142D01*
G04 #@! TO.C,R3*
X141422380Y-61380666D02*
X140946190Y-61714000D01*
X141422380Y-61952095D02*
X140422380Y-61952095D01*
X140422380Y-61571142D01*
X140470000Y-61475904D01*
X140517619Y-61428285D01*
X140612857Y-61380666D01*
X140755714Y-61380666D01*
X140850952Y-61428285D01*
X140898571Y-61475904D01*
X140946190Y-61571142D01*
X140946190Y-61952095D01*
X140422380Y-61047333D02*
X140422380Y-60428285D01*
X140803333Y-60761619D01*
X140803333Y-60618761D01*
X140850952Y-60523523D01*
X140898571Y-60475904D01*
X140993809Y-60428285D01*
X141231904Y-60428285D01*
X141327142Y-60475904D01*
X141374761Y-60523523D01*
X141422380Y-60618761D01*
X141422380Y-60904476D01*
X141374761Y-60999714D01*
X141327142Y-61047333D01*
G04 #@! TO.C,C16*
X155140942Y-111386857D02*
X155188561Y-111434476D01*
X155236180Y-111577333D01*
X155236180Y-111672571D01*
X155188561Y-111815428D01*
X155093323Y-111910666D01*
X154998085Y-111958285D01*
X154807609Y-112005904D01*
X154664752Y-112005904D01*
X154474276Y-111958285D01*
X154379038Y-111910666D01*
X154283800Y-111815428D01*
X154236180Y-111672571D01*
X154236180Y-111577333D01*
X154283800Y-111434476D01*
X154331419Y-111386857D01*
X155236180Y-110434476D02*
X155236180Y-111005904D01*
X155236180Y-110720190D02*
X154236180Y-110720190D01*
X154379038Y-110815428D01*
X154474276Y-110910666D01*
X154521895Y-111005904D01*
X154236180Y-109577333D02*
X154236180Y-109767809D01*
X154283800Y-109863047D01*
X154331419Y-109910666D01*
X154474276Y-110005904D01*
X154664752Y-110053523D01*
X155045704Y-110053523D01*
X155140942Y-110005904D01*
X155188561Y-109958285D01*
X155236180Y-109863047D01*
X155236180Y-109672571D01*
X155188561Y-109577333D01*
X155140942Y-109529714D01*
X155045704Y-109482095D01*
X154807609Y-109482095D01*
X154712371Y-109529714D01*
X154664752Y-109577333D01*
X154617133Y-109672571D01*
X154617133Y-109863047D01*
X154664752Y-109958285D01*
X154712371Y-110005904D01*
X154807609Y-110053523D01*
D11*
G04 #@! TO.C,C24*
X164206600Y-99198165D02*
X164206600Y-99429835D01*
X164926600Y-99198165D02*
X164926600Y-99429835D01*
G04 #@! TO.C,C9*
X144534165Y-101690000D02*
X144765835Y-101690000D01*
X144534165Y-102410000D02*
X144765835Y-102410000D01*
G04 #@! TO.C,C31*
X165756000Y-97550235D02*
X165756000Y-97318565D01*
X166476000Y-97550235D02*
X166476000Y-97318565D01*
G04 #@! TO.C,R43*
X132126729Y-73659000D02*
X132461971Y-73659000D01*
X132126729Y-72899000D02*
X132461971Y-72899000D01*
G04 #@! TO.C,R51*
X132530121Y-78724850D02*
X132194879Y-78724850D01*
X132530121Y-79484850D02*
X132194879Y-79484850D01*
G04 #@! TO.C,R22*
X143370121Y-69912000D02*
X143034879Y-69912000D01*
X143370121Y-70672000D02*
X143034879Y-70672000D01*
G04 #@! TO.C,R57*
X129566400Y-80545321D02*
X129566400Y-80210079D01*
X130326400Y-80545321D02*
X130326400Y-80210079D01*
G04 #@! TO.C,R37*
X160385779Y-70560200D02*
X160721021Y-70560200D01*
X160385779Y-69800200D02*
X160721021Y-69800200D01*
G04 #@! TO.C,C3*
X126858335Y-132160000D02*
X126626665Y-132160000D01*
X126858335Y-131440000D02*
X126626665Y-131440000D01*
G04 #@! TO.C,R30*
X163119800Y-71033621D02*
X163119800Y-70698379D01*
X163879800Y-71033621D02*
X163879800Y-70698379D01*
G04 #@! TO.C,R49*
X132194880Y-80627849D02*
X132530122Y-80627849D01*
X132194880Y-79867849D02*
X132530122Y-79867849D01*
G04 #@! TO.C,R19*
X149480000Y-66646479D02*
X149480000Y-66981721D01*
X150240000Y-66646479D02*
X150240000Y-66981721D01*
G04 #@! TO.C,Q3*
X130723200Y-76592550D02*
X130723200Y-78267550D01*
X130723200Y-76592550D02*
X130723200Y-75942550D01*
X133843200Y-76592550D02*
X133843200Y-77242550D01*
X133843200Y-76592550D02*
X133843200Y-75942550D01*
G04 #@! TO.C,Q8*
X126314200Y-84491000D02*
X125664200Y-84491000D01*
X126314200Y-81371000D02*
X125664200Y-81371000D01*
X126314200Y-81371000D02*
X126964200Y-81371000D01*
X126314200Y-84491000D02*
X127989200Y-84491000D01*
G04 #@! TO.C,R50*
X135720479Y-72899000D02*
X136055721Y-72899000D01*
X135720479Y-73659000D02*
X136055721Y-73659000D01*
G04 #@! TO.C,R28*
X175792400Y-58557179D02*
X175792400Y-58892421D01*
X175032400Y-58557179D02*
X175032400Y-58892421D01*
G04 #@! TO.C,C7*
X144460965Y-66326200D02*
X144692635Y-66326200D01*
X144460965Y-67046200D02*
X144692635Y-67046200D01*
D12*
G04 #@! TO.C,J14*
X163068000Y-137795000D02*
X160528000Y-137795000D01*
X160528000Y-140335000D02*
X160528000Y-137795000D01*
X163068000Y-140335000D02*
X160528000Y-140335000D01*
X163068000Y-137795000D02*
X163068000Y-140335000D01*
X160628000Y-130683000D02*
G75*
G03*
X160628000Y-130683000I-100000J0D01*
G01*
D11*
G04 #@! TO.C,R48*
X134330421Y-61416200D02*
X133995179Y-61416200D01*
X134330421Y-60656200D02*
X133995179Y-60656200D01*
G04 #@! TO.C,J20*
X128116071Y-107529600D02*
X127661929Y-107529600D01*
X122519000Y-112949600D02*
X116519000Y-112949600D01*
X122519000Y-113189600D02*
X116519000Y-113189600D01*
X125179000Y-106579600D02*
X122519000Y-106579600D01*
X125576071Y-113369600D02*
X125179000Y-113369600D01*
X128116071Y-110069600D02*
X127661929Y-110069600D01*
X125576071Y-110829600D02*
X125179000Y-110829600D01*
X122519000Y-113309600D02*
X116519000Y-113309600D01*
X125179000Y-114319600D02*
X125179000Y-106579600D01*
X128116071Y-108289600D02*
X127661929Y-108289600D01*
X122519000Y-113069600D02*
X116519000Y-113069600D01*
X122519000Y-112829600D02*
X116519000Y-112829600D01*
X130429000Y-114259600D02*
X129159000Y-114259600D01*
X122519000Y-106579600D02*
X122519000Y-114319600D01*
X116519000Y-113369600D02*
X116519000Y-112609600D01*
X128049000Y-113369600D02*
X127661929Y-113369600D01*
X125576071Y-107529600D02*
X125179000Y-107529600D01*
X125179000Y-111719600D02*
X122519000Y-111719600D01*
X128116071Y-110829600D02*
X127661929Y-110829600D01*
X116519000Y-112609600D02*
X122519000Y-112609600D01*
X122519000Y-112709600D02*
X116519000Y-112709600D01*
X122519000Y-114319600D02*
X125179000Y-114319600D01*
X116519000Y-110069600D02*
X122519000Y-110069600D01*
X130429000Y-112989600D02*
X130429000Y-114259600D01*
X125576071Y-108289600D02*
X125179000Y-108289600D01*
X116519000Y-108289600D02*
X116519000Y-107529600D01*
X122519000Y-108289600D02*
X116519000Y-108289600D01*
X116519000Y-107529600D02*
X122519000Y-107529600D01*
X125576071Y-110069600D02*
X125179000Y-110069600D01*
X125179000Y-109179600D02*
X122519000Y-109179600D01*
X125576071Y-112609600D02*
X125179000Y-112609600D01*
X128049000Y-112609600D02*
X127661929Y-112609600D01*
X122519000Y-110829600D02*
X116519000Y-110829600D01*
X116519000Y-110829600D02*
X116519000Y-110069600D01*
X122519000Y-113369600D02*
X116519000Y-113369600D01*
G04 #@! TO.C,C33*
X167897715Y-75611400D02*
X168129385Y-75611400D01*
X167897715Y-76331400D02*
X168129385Y-76331400D01*
G04 #@! TO.C,J28*
X179288929Y-113467800D02*
X179686000Y-113467800D01*
X176816000Y-108387800D02*
X177203071Y-108387800D01*
X188346000Y-116767800D02*
X182346000Y-116767800D01*
X188346000Y-111687800D02*
X182346000Y-111687800D01*
X176748929Y-116767800D02*
X177203071Y-116767800D01*
X179686000Y-115117800D02*
X182346000Y-115117800D01*
X179288929Y-111687800D02*
X179686000Y-111687800D01*
X179686000Y-117717800D02*
X182346000Y-117717800D01*
X182346000Y-107437800D02*
X179686000Y-107437800D01*
X182346000Y-108927800D02*
X188346000Y-108927800D01*
X188346000Y-108387800D02*
X188346000Y-109147800D01*
X176748929Y-116007800D02*
X177203071Y-116007800D01*
X182346000Y-117717800D02*
X182346000Y-107437800D01*
X179288929Y-116007800D02*
X179686000Y-116007800D01*
X188346000Y-114227800D02*
X182346000Y-114227800D01*
X176748929Y-114227800D02*
X177203071Y-114227800D01*
X179288929Y-108387800D02*
X179686000Y-108387800D01*
X179288929Y-116767800D02*
X179686000Y-116767800D01*
X182346000Y-108807800D02*
X188346000Y-108807800D01*
X182346000Y-108447800D02*
X188346000Y-108447800D01*
X176748929Y-111687800D02*
X177203071Y-111687800D01*
X182346000Y-108567800D02*
X188346000Y-108567800D01*
X188346000Y-109147800D02*
X182346000Y-109147800D01*
X182346000Y-110927800D02*
X188346000Y-110927800D01*
X179288929Y-109147800D02*
X179686000Y-109147800D01*
X179686000Y-107437800D02*
X179686000Y-117717800D01*
X182346000Y-116007800D02*
X188346000Y-116007800D01*
X174436000Y-108767800D02*
X174436000Y-107497800D01*
X182346000Y-109047800D02*
X188346000Y-109047800D01*
X179686000Y-110037800D02*
X182346000Y-110037800D01*
X174436000Y-107497800D02*
X175706000Y-107497800D01*
X176748929Y-113467800D02*
X177203071Y-113467800D01*
X182346000Y-108687800D02*
X188346000Y-108687800D01*
X179288929Y-114227800D02*
X179686000Y-114227800D01*
X176816000Y-109147800D02*
X177203071Y-109147800D01*
X188346000Y-113467800D02*
X188346000Y-114227800D01*
X179686000Y-112577800D02*
X182346000Y-112577800D01*
X179288929Y-110927800D02*
X179686000Y-110927800D01*
X176748929Y-110927800D02*
X177203071Y-110927800D01*
X182346000Y-113467800D02*
X188346000Y-113467800D01*
X188346000Y-116007800D02*
X188346000Y-116767800D01*
X188346000Y-110927800D02*
X188346000Y-111687800D01*
X182346000Y-108387800D02*
X188346000Y-108387800D01*
G04 #@! TO.C,R6*
X150902400Y-70234121D02*
X150902400Y-69898879D01*
X151662400Y-70234121D02*
X151662400Y-69898879D01*
G04 #@! TO.C,J23*
X122519000Y-106699600D02*
X125179000Y-106699600D01*
X125576071Y-102449600D02*
X125179000Y-102449600D01*
X130429000Y-105369600D02*
X130429000Y-106639600D01*
X128049000Y-104989600D02*
X127661929Y-104989600D01*
X122519000Y-105569600D02*
X116519000Y-105569600D01*
X128116071Y-99909600D02*
X127661929Y-99909600D01*
X122519000Y-105329600D02*
X116519000Y-105329600D01*
X125576071Y-100669600D02*
X125179000Y-100669600D01*
X125179000Y-106699600D02*
X125179000Y-98959600D01*
X116519000Y-104989600D02*
X122519000Y-104989600D01*
X122519000Y-103209600D02*
X116519000Y-103209600D01*
X125576071Y-103209600D02*
X125179000Y-103209600D01*
X122519000Y-105449600D02*
X116519000Y-105449600D01*
X122519000Y-98959600D02*
X122519000Y-106699600D01*
X122519000Y-105689600D02*
X116519000Y-105689600D01*
X116519000Y-102449600D02*
X122519000Y-102449600D01*
X128049000Y-105749600D02*
X127661929Y-105749600D01*
X125179000Y-98959600D02*
X122519000Y-98959600D01*
X128116071Y-102449600D02*
X127661929Y-102449600D01*
X125179000Y-104099600D02*
X122519000Y-104099600D01*
X122519000Y-100669600D02*
X116519000Y-100669600D01*
X125179000Y-101559600D02*
X122519000Y-101559600D01*
X116519000Y-105749600D02*
X116519000Y-104989600D01*
X122519000Y-105089600D02*
X116519000Y-105089600D01*
X125576071Y-105749600D02*
X125179000Y-105749600D01*
X122519000Y-105209600D02*
X116519000Y-105209600D01*
X128116071Y-100669600D02*
X127661929Y-100669600D01*
X116519000Y-100669600D02*
X116519000Y-99909600D01*
X122519000Y-105749600D02*
X116519000Y-105749600D01*
X125576071Y-99909600D02*
X125179000Y-99909600D01*
X130429000Y-106639600D02*
X129159000Y-106639600D01*
X116519000Y-99909600D02*
X122519000Y-99909600D01*
X125576071Y-104989600D02*
X125179000Y-104989600D01*
X128116071Y-103209600D02*
X127661929Y-103209600D01*
X116519000Y-103209600D02*
X116519000Y-102449600D01*
G04 #@! TO.C,C19*
X148313800Y-106025135D02*
X148313800Y-105793465D01*
X149033800Y-106025135D02*
X149033800Y-105793465D01*
G04 #@! TO.C,R13*
X149376400Y-111389179D02*
X149376400Y-111724421D01*
X148616400Y-111389179D02*
X148616400Y-111724421D01*
G04 #@! TO.C,R38*
X168170279Y-72992550D02*
X168505521Y-72992550D01*
X168170279Y-72232550D02*
X168505521Y-72232550D01*
G04 #@! TO.C,R34*
X174293800Y-71358779D02*
X174293800Y-71694021D01*
X173533800Y-71358779D02*
X173533800Y-71694021D01*
G04 #@! TO.C,C34*
X146699235Y-98912000D02*
X146467565Y-98912000D01*
X146699235Y-98192000D02*
X146467565Y-98192000D01*
G04 #@! TO.C,C8*
X154197865Y-67046200D02*
X154429535Y-67046200D01*
X154197865Y-66326200D02*
X154429535Y-66326200D01*
G04 #@! TO.C,C30*
X154806915Y-72308850D02*
X155038585Y-72308850D01*
X154806915Y-73028850D02*
X155038585Y-73028850D01*
G04 #@! TO.C,R5*
X147530000Y-70967621D02*
X147530000Y-70632379D01*
X146770000Y-70967621D02*
X146770000Y-70632379D01*
D12*
G04 #@! TO.C,J12*
X157988000Y-137795000D02*
X157988000Y-140335000D01*
X157988000Y-140335000D02*
X155448000Y-140335000D01*
X157988000Y-137795000D02*
X155448000Y-137795000D01*
X155448000Y-140335000D02*
X155448000Y-137795000D01*
X155548000Y-130683000D02*
G75*
G03*
X155548000Y-130683000I-100000J0D01*
G01*
D11*
G04 #@! TO.C,C41*
X169270450Y-89368365D02*
X169270450Y-89600035D01*
X169990450Y-89368365D02*
X169990450Y-89600035D01*
G04 #@! TO.C,R17*
X157749221Y-102284800D02*
X157413979Y-102284800D01*
X157749221Y-101524800D02*
X157413979Y-101524800D01*
D12*
G04 #@! TO.C,J9*
X150690900Y-137795600D02*
X148150900Y-137795600D01*
X150690900Y-140335600D02*
X148150900Y-140335600D01*
X150690900Y-137795600D02*
X150690900Y-140335600D01*
X148150900Y-140335600D02*
X148150900Y-137795600D01*
X148250900Y-130683600D02*
G75*
G03*
X148250900Y-130683600I-100000J0D01*
G01*
D11*
G04 #@! TO.C,R60*
X128980200Y-60512979D02*
X128980200Y-60848221D01*
X128220200Y-60512979D02*
X128220200Y-60848221D01*
G04 #@! TO.C,C32*
X142935000Y-91465835D02*
X142935000Y-91234165D01*
X142215000Y-91465835D02*
X142215000Y-91234165D01*
G04 #@! TO.C,R40*
X134279621Y-56336200D02*
X133944379Y-56336200D01*
X134279621Y-55576200D02*
X133944379Y-55576200D01*
G04 #@! TO.C,D9*
X125187200Y-68574800D02*
X128047200Y-68574800D01*
X128047200Y-66654800D02*
X125187200Y-66654800D01*
X128047200Y-68574800D02*
X128047200Y-66654800D01*
G04 #@! TO.C,C42*
X158933335Y-99597800D02*
X158701665Y-99597800D01*
X158933335Y-98877800D02*
X158701665Y-98877800D01*
D12*
G04 #@! TO.C,J11*
X155448000Y-137795000D02*
X155448000Y-140335000D01*
X155448000Y-137795000D02*
X152908000Y-137795000D01*
X152908000Y-140335000D02*
X152908000Y-137795000D01*
X155448000Y-140335000D02*
X152908000Y-140335000D01*
X153008000Y-130683000D02*
G75*
G03*
X153008000Y-130683000I-100000J0D01*
G01*
D11*
G04 #@! TO.C,Q1*
X126314200Y-84520600D02*
X125664200Y-84520600D01*
X126314200Y-87640600D02*
X125664200Y-87640600D01*
X126314200Y-87640600D02*
X127989200Y-87640600D01*
X126314200Y-84520600D02*
X126964200Y-84520600D01*
G04 #@! TO.C,R26*
X134406621Y-65888600D02*
X134071379Y-65888600D01*
X134406621Y-66648600D02*
X134071379Y-66648600D01*
G04 #@! TO.C,R1*
X147600400Y-65115421D02*
X147600400Y-64780179D01*
X148360400Y-65115421D02*
X148360400Y-64780179D01*
D13*
G04 #@! TO.C,U5*
X151486900Y-105513000D02*
X151486900Y-105003000D01*
X151486900Y-102513000D02*
X151486900Y-103023000D01*
X153986900Y-102513000D02*
X153986900Y-103023000D01*
X153986900Y-105003000D02*
X153986900Y-105513000D01*
D12*
X153636900Y-102013000D02*
G75*
G03*
X153636900Y-102013000I-100000J0D01*
G01*
D11*
G04 #@! TO.C,JP1*
X153030700Y-134630000D02*
X150230700Y-134630000D01*
X150230700Y-134630000D02*
X150230700Y-132630000D01*
X153030700Y-132630000D02*
X153030700Y-134630000D01*
X150230700Y-132630000D02*
X153030700Y-132630000D01*
G04 #@! TO.C,R62*
X135265179Y-80513550D02*
X135600421Y-80513550D01*
X135265179Y-79753550D02*
X135600421Y-79753550D01*
G04 #@! TO.C,R24*
X171516021Y-80620600D02*
X171180779Y-80620600D01*
X171516021Y-81380600D02*
X171180779Y-81380600D01*
G04 #@! TO.C,R7*
X144507379Y-102720000D02*
X144842621Y-102720000D01*
X144507379Y-103480000D02*
X144842621Y-103480000D01*
G04 #@! TO.C,R23*
X138946802Y-90262179D02*
X138946802Y-90597421D01*
X139706802Y-90262179D02*
X139706802Y-90597421D01*
D12*
G04 #@! TO.C,J7*
X145610900Y-140335600D02*
X143070900Y-140335600D01*
X143070900Y-140335600D02*
X143070900Y-137795600D01*
X145610900Y-137795600D02*
X143070900Y-137795600D01*
X145610900Y-137795600D02*
X145610900Y-140335600D01*
X143170900Y-130683600D02*
G75*
G03*
X143170900Y-130683600I-100000J0D01*
G01*
D11*
G04 #@! TO.C,J29*
X182346000Y-92197800D02*
X179686000Y-92197800D01*
X176748929Y-105847800D02*
X177203071Y-105847800D01*
X179288929Y-103307800D02*
X179686000Y-103307800D01*
X188346000Y-105847800D02*
X188346000Y-106607800D01*
X188346000Y-96447800D02*
X182346000Y-96447800D01*
X188346000Y-100767800D02*
X188346000Y-101527800D01*
X176816000Y-93907800D02*
X177203071Y-93907800D01*
X182346000Y-98227800D02*
X188346000Y-98227800D01*
X176748929Y-101527800D02*
X177203071Y-101527800D01*
X188346000Y-95687800D02*
X188346000Y-96447800D01*
X176816000Y-93147800D02*
X177203071Y-93147800D01*
X182346000Y-93687800D02*
X188346000Y-93687800D01*
X179288929Y-101527800D02*
X179686000Y-101527800D01*
X176748929Y-95687800D02*
X177203071Y-95687800D01*
X179288929Y-98227800D02*
X179686000Y-98227800D01*
X182346000Y-100767800D02*
X188346000Y-100767800D01*
X179686000Y-92197800D02*
X179686000Y-107557800D01*
X176748929Y-106607800D02*
X177203071Y-106607800D01*
X182346000Y-93327800D02*
X188346000Y-93327800D01*
X176748929Y-96447800D02*
X177203071Y-96447800D01*
X179288929Y-106607800D02*
X179686000Y-106607800D01*
X182346000Y-107557800D02*
X182346000Y-92197800D01*
X182346000Y-93807800D02*
X188346000Y-93807800D01*
X176748929Y-104067800D02*
X177203071Y-104067800D01*
X179288929Y-104067800D02*
X179686000Y-104067800D01*
X182346000Y-93567800D02*
X188346000Y-93567800D01*
X179288929Y-100767800D02*
X179686000Y-100767800D01*
X179686000Y-97337800D02*
X182346000Y-97337800D01*
X179288929Y-93907800D02*
X179686000Y-93907800D01*
X179288929Y-95687800D02*
X179686000Y-95687800D01*
X182346000Y-95687800D02*
X188346000Y-95687800D01*
X179288929Y-105847800D02*
X179686000Y-105847800D01*
X182346000Y-93447800D02*
X188346000Y-93447800D01*
X179686000Y-94797800D02*
X182346000Y-94797800D01*
X182346000Y-93207800D02*
X188346000Y-93207800D01*
X182346000Y-105847800D02*
X188346000Y-105847800D01*
X176748929Y-103307800D02*
X177203071Y-103307800D01*
X182346000Y-103307800D02*
X188346000Y-103307800D01*
X179288929Y-96447800D02*
X179686000Y-96447800D01*
X188346000Y-101527800D02*
X182346000Y-101527800D01*
X176748929Y-98227800D02*
X177203071Y-98227800D01*
X188346000Y-93147800D02*
X188346000Y-93907800D01*
X176748929Y-98987800D02*
X177203071Y-98987800D01*
X174436000Y-93527800D02*
X174436000Y-92257800D01*
X179288929Y-93147800D02*
X179686000Y-93147800D01*
X188346000Y-98227800D02*
X188346000Y-98987800D01*
X188346000Y-106607800D02*
X182346000Y-106607800D01*
X179686000Y-107557800D02*
X182346000Y-107557800D01*
X179686000Y-102417800D02*
X182346000Y-102417800D01*
X188346000Y-93907800D02*
X182346000Y-93907800D01*
X188346000Y-98987800D02*
X182346000Y-98987800D01*
X179686000Y-99877800D02*
X182346000Y-99877800D01*
X188346000Y-104067800D02*
X182346000Y-104067800D01*
X182346000Y-93147800D02*
X188346000Y-93147800D01*
X188346000Y-103307800D02*
X188346000Y-104067800D01*
X174436000Y-92257800D02*
X175706000Y-92257800D01*
X179686000Y-104957800D02*
X182346000Y-104957800D01*
X179288929Y-98987800D02*
X179686000Y-98987800D01*
X176748929Y-100767800D02*
X177203071Y-100767800D01*
G04 #@! TO.C,U7*
X174630500Y-77449200D02*
X175430500Y-77449200D01*
X174630500Y-80569200D02*
X173830500Y-80569200D01*
X174630500Y-80569200D02*
X176430500Y-80569200D01*
X174630500Y-77449200D02*
X173830500Y-77449200D01*
G04 #@! TO.C,C48*
X137975535Y-61396200D02*
X137743865Y-61396200D01*
X137975535Y-60676200D02*
X137743865Y-60676200D01*
G04 #@! TO.C,C26*
X170092050Y-76620635D02*
X170092050Y-76388965D01*
X169372050Y-76620635D02*
X169372050Y-76388965D01*
G04 #@! TO.C,R63*
X129566400Y-83708221D02*
X129566400Y-83372979D01*
X130326400Y-83708221D02*
X130326400Y-83372979D01*
G04 #@! TO.C,R64*
X135615021Y-78712150D02*
X135279779Y-78712150D01*
X135615021Y-79472150D02*
X135279779Y-79472150D01*
G04 #@! TO.C,C25*
X168203200Y-84542365D02*
X168203200Y-84774035D01*
X167483200Y-84542365D02*
X167483200Y-84774035D01*
G04 #@! TO.C,C20*
X146817600Y-106182567D02*
X146817600Y-105890033D01*
X147837600Y-106182567D02*
X147837600Y-105890033D01*
G04 #@! TO.C,C35*
X144828335Y-73427000D02*
X144596665Y-73427000D01*
X144828335Y-74147000D02*
X144596665Y-74147000D01*
G04 #@! TO.C,C6*
X154185233Y-68459700D02*
X154477767Y-68459700D01*
X154185233Y-67439700D02*
X154477767Y-67439700D01*
G04 #@! TO.C,R42*
X130301000Y-86857821D02*
X130301000Y-86522579D01*
X129541000Y-86857821D02*
X129541000Y-86522579D01*
G04 #@! TO.C,C15*
X154522435Y-108868800D02*
X154290765Y-108868800D01*
X154522435Y-108148800D02*
X154290765Y-108148800D01*
G04 #@! TO.C,C1*
X126870535Y-58314000D02*
X126638865Y-58314000D01*
X126870535Y-59034000D02*
X126638865Y-59034000D01*
G04 #@! TO.C,C28*
X170254600Y-84291448D02*
X170254600Y-84813952D01*
X168784600Y-84291448D02*
X168784600Y-84813952D01*
G04 #@! TO.C,C39*
X154081935Y-98792625D02*
X153850265Y-98792625D01*
X154081935Y-99512625D02*
X153850265Y-99512625D01*
G04 #@! TO.C,C2*
X179490635Y-58390200D02*
X179258965Y-58390200D01*
X179490635Y-59110200D02*
X179258965Y-59110200D01*
G04 #@! TO.C,R47*
X128220200Y-65135779D02*
X128220200Y-65471021D01*
X128980200Y-65135779D02*
X128980200Y-65471021D01*
G04 #@! TO.C,J27*
X122519000Y-98069600D02*
X116519000Y-98069600D01*
X128049000Y-97369600D02*
X127661929Y-97369600D01*
X125576071Y-94829600D02*
X125179000Y-94829600D01*
X125179000Y-96479600D02*
X122519000Y-96479600D01*
X122519000Y-97829600D02*
X116519000Y-97829600D01*
X130429000Y-99019600D02*
X129159000Y-99019600D01*
X128116071Y-92289600D02*
X127661929Y-92289600D01*
X125179000Y-93939600D02*
X122519000Y-93939600D01*
X125179000Y-91399600D02*
X122519000Y-91399600D01*
X116519000Y-95589600D02*
X116519000Y-94829600D01*
X116519000Y-89749600D02*
X122519000Y-89749600D01*
X122519000Y-97589600D02*
X116519000Y-97589600D01*
X128116071Y-90509600D02*
X127661929Y-90509600D01*
X122519000Y-93049600D02*
X116519000Y-93049600D01*
X122519000Y-98129600D02*
X116519000Y-98129600D01*
X128116071Y-94829600D02*
X127661929Y-94829600D01*
X128049000Y-98129600D02*
X127661929Y-98129600D01*
X116519000Y-97369600D02*
X122519000Y-97369600D01*
X125576071Y-98129600D02*
X125179000Y-98129600D01*
X122519000Y-97469600D02*
X116519000Y-97469600D01*
X128116071Y-93049600D02*
X127661929Y-93049600D01*
X125576071Y-93049600D02*
X125179000Y-93049600D01*
X122519000Y-95589600D02*
X116519000Y-95589600D01*
X125576071Y-90509600D02*
X125179000Y-90509600D01*
X125179000Y-99079600D02*
X125179000Y-88799600D01*
X116519000Y-94829600D02*
X122519000Y-94829600D01*
X122519000Y-99079600D02*
X125179000Y-99079600D01*
X125179000Y-88799600D02*
X122519000Y-88799600D01*
X125576071Y-95589600D02*
X125179000Y-95589600D01*
X128116071Y-89749600D02*
X127661929Y-89749600D01*
X122519000Y-97949600D02*
X116519000Y-97949600D01*
X116519000Y-93049600D02*
X116519000Y-92289600D01*
X122519000Y-97709600D02*
X116519000Y-97709600D01*
X125576071Y-92289600D02*
X125179000Y-92289600D01*
X122519000Y-88799600D02*
X122519000Y-99079600D01*
X116519000Y-98129600D02*
X116519000Y-97369600D01*
X130429000Y-97749600D02*
X130429000Y-99019600D01*
X122519000Y-90509600D02*
X116519000Y-90509600D01*
X116519000Y-92289600D02*
X122519000Y-92289600D01*
X125576071Y-97369600D02*
X125179000Y-97369600D01*
X128116071Y-95589600D02*
X127661929Y-95589600D01*
X125576071Y-89749600D02*
X125179000Y-89749600D01*
X116519000Y-90509600D02*
X116519000Y-89749600D01*
D12*
G04 #@! TO.C,J2*
X130370900Y-140335600D02*
X130370900Y-137795600D01*
X132910900Y-137795600D02*
X130370900Y-137795600D01*
X132910900Y-140335600D02*
X130370900Y-140335600D01*
X132910900Y-137795600D02*
X132910900Y-140335600D01*
X130470900Y-130683600D02*
G75*
G03*
X130470900Y-130683600I-100000J0D01*
G01*
D11*
G04 #@! TO.C,C21*
X143362000Y-76524665D02*
X143362000Y-76756335D01*
X142642000Y-76524665D02*
X142642000Y-76756335D01*
G04 #@! TO.C,R21*
X143034879Y-71687999D02*
X143370121Y-71687999D01*
X143034879Y-70927999D02*
X143370121Y-70927999D01*
G04 #@! TO.C,R16*
X160086021Y-104240600D02*
X159750779Y-104240600D01*
X160086021Y-103480600D02*
X159750779Y-103480600D01*
G04 #@! TO.C,R29*
X169351979Y-73273950D02*
X169687221Y-73273950D01*
X169351979Y-74033950D02*
X169687221Y-74033950D01*
D13*
G04 #@! TO.C,J10*
X164105900Y-139865200D02*
X164105900Y-131565200D01*
X174105900Y-139865200D02*
X164105900Y-139865200D01*
X164105900Y-131565200D02*
X174105900Y-131565200D01*
X174105900Y-131565200D02*
X174105900Y-139865200D01*
D14*
X173045900Y-137365200D02*
G75*
G03*
X173045900Y-137365200I-140000J0D01*
G01*
D11*
G04 #@! TO.C,R12*
X151002000Y-108625621D02*
X151002000Y-108290379D01*
X150242000Y-108625621D02*
X150242000Y-108290379D01*
G04 #@! TO.C,R67*
X128980200Y-76641979D02*
X128980200Y-76977221D01*
X128220200Y-76641979D02*
X128220200Y-76977221D01*
G04 #@! TO.C,R65*
X129208800Y-83372979D02*
X129208800Y-83708221D01*
X128448800Y-83372979D02*
X128448800Y-83708221D01*
G04 #@! TO.C,Q6*
X126314200Y-78221400D02*
X125664200Y-78221400D01*
X126314200Y-81341400D02*
X125664200Y-81341400D01*
X126314200Y-81341400D02*
X127989200Y-81341400D01*
X126314200Y-78221400D02*
X126964200Y-78221400D01*
G04 #@! TO.C,R4*
X150419800Y-60035421D02*
X150419800Y-59700179D01*
X151179800Y-60035421D02*
X151179800Y-59700179D01*
G04 #@! TO.C,C46*
X168297833Y-71757000D02*
X168590367Y-71757000D01*
X168297833Y-70737000D02*
X168590367Y-70737000D01*
G04 #@! TO.C,C17*
X149966000Y-103312965D02*
X149966000Y-103544635D01*
X149246000Y-103312965D02*
X149246000Y-103544635D01*
G04 #@! TO.C,C36*
X139185215Y-79497600D02*
X139416885Y-79497600D01*
X139185215Y-80217600D02*
X139416885Y-80217600D01*
D12*
G04 #@! TO.C,SW3*
X137581500Y-56697000D02*
X131381500Y-56697000D01*
X131381500Y-56697000D02*
X131381500Y-57447000D01*
X137581500Y-57347000D02*
X137581500Y-56697000D01*
X137581500Y-59647000D02*
X137581500Y-60397000D01*
X131381500Y-60397000D02*
X131381500Y-59647000D01*
X137581500Y-60397000D02*
X131381500Y-60397000D01*
X137181500Y-59747000D02*
G75*
G03*
X137181500Y-59747000I-100000J0D01*
G01*
D11*
G04 #@! TO.C,U1*
X147136800Y-62382400D02*
X147136800Y-60432400D01*
X142016800Y-62382400D02*
X142016800Y-60432400D01*
X142016800Y-62382400D02*
X142016800Y-65832400D01*
X147136800Y-62382400D02*
X147136800Y-64332400D01*
G04 #@! TO.C,C43*
X154666183Y-70660250D02*
X154958717Y-70660250D01*
X154666183Y-71680250D02*
X154958717Y-71680250D01*
G04 #@! TO.C,R35*
X164972000Y-70647579D02*
X164972000Y-70982821D01*
X164212000Y-70647579D02*
X164212000Y-70982821D01*
G04 #@! TO.C,C10*
X142033400Y-98848335D02*
X142033400Y-98616665D01*
X142753400Y-98848335D02*
X142753400Y-98616665D01*
G04 #@! TO.C,R15*
X168023929Y-104674400D02*
X168359171Y-104674400D01*
X168023929Y-105434400D02*
X168359171Y-105434400D01*
G04 #@! TO.C,C29*
X137221835Y-93751200D02*
X136990165Y-93751200D01*
X137221835Y-93031200D02*
X136990165Y-93031200D01*
G04 #@! TO.C,R32*
X175335200Y-71694021D02*
X175335200Y-71358779D01*
X174575200Y-71694021D02*
X174575200Y-71358779D01*
D13*
G04 #@! TO.C,Y1*
X137975000Y-91075000D02*
X137975000Y-90475000D01*
X135475000Y-90475000D02*
X135475000Y-91075000D01*
D12*
X135855000Y-88425000D02*
G75*
G03*
X135855000Y-88425000I-100000J0D01*
G01*
D11*
G04 #@! TO.C,R54*
X128980200Y-69783979D02*
X128980200Y-70119221D01*
X128220200Y-69783979D02*
X128220200Y-70119221D01*
G04 #@! TO.C,Q4*
X137079200Y-69723000D02*
X137079200Y-70373000D01*
X133959200Y-69723000D02*
X133959200Y-69073000D01*
X137079200Y-69723000D02*
X137079200Y-69073000D01*
X133959200Y-69723000D02*
X133959200Y-71398000D01*
G04 #@! TO.C,U6*
X164668050Y-96038200D02*
X165618050Y-96038200D01*
X145398050Y-96038200D02*
X145398050Y-95088200D01*
X146348050Y-75818200D02*
X145398050Y-75818200D01*
X165618050Y-75818200D02*
X165618050Y-76768200D01*
X146348050Y-96038200D02*
X145398050Y-96038200D01*
X164668050Y-75818200D02*
X165618050Y-75818200D01*
X165618050Y-96038200D02*
X165618050Y-95088200D01*
X145398050Y-76768200D02*
X144108050Y-76768200D01*
X145398050Y-75818200D02*
X145398050Y-76768200D01*
G04 #@! TO.C,Y2*
X140627100Y-79758897D02*
X140627100Y-81175503D01*
X142481300Y-81175503D02*
X142481300Y-79758897D01*
D12*
G04 #@! TO.C,D1*
X175754400Y-84891400D02*
X175754400Y-82291400D01*
X174054400Y-85651400D02*
X174054400Y-82291400D01*
D11*
G04 #@! TO.C,Q2*
X130733400Y-69723000D02*
X130733400Y-69073000D01*
X133853400Y-69723000D02*
X133853400Y-69073000D01*
X133853400Y-69723000D02*
X133853400Y-70373000D01*
X130733400Y-69723000D02*
X130733400Y-71398000D01*
G04 #@! TO.C,C27*
X134053600Y-90255836D02*
X134053600Y-90024166D01*
X134773600Y-90255836D02*
X134773600Y-90024166D01*
G04 #@! TO.C,C22*
X137933251Y-96777935D02*
X137933251Y-96546265D01*
X138653251Y-96777935D02*
X138653251Y-96546265D01*
G04 #@! TO.C,C37*
X142184165Y-89910000D02*
X142415835Y-89910000D01*
X142184165Y-89190000D02*
X142415835Y-89190000D01*
G04 #@! TO.C,R53*
X131905921Y-60656200D02*
X131570679Y-60656200D01*
X131905921Y-61416200D02*
X131570679Y-61416200D01*
G04 #@! TO.C,C14*
X166739950Y-123221533D02*
X166739950Y-123514067D01*
X165719950Y-123221533D02*
X165719950Y-123514067D01*
G04 #@! TO.C,R56*
X139173679Y-73648200D02*
X139508921Y-73648200D01*
X139173679Y-72888200D02*
X139508921Y-72888200D01*
G04 #@! TO.C,J18*
X182346000Y-85827800D02*
X188346000Y-85827800D01*
X179288929Y-88067800D02*
X179686000Y-88067800D01*
X179288929Y-91367800D02*
X179686000Y-91367800D01*
X179686000Y-89717800D02*
X182346000Y-89717800D01*
X188346000Y-86287800D02*
X182346000Y-86287800D01*
X188346000Y-88067800D02*
X188346000Y-88827800D01*
X188346000Y-85527800D02*
X188346000Y-86287800D01*
X188346000Y-88827800D02*
X182346000Y-88827800D01*
X179686000Y-87177800D02*
X182346000Y-87177800D01*
X179356000Y-85527800D02*
X179686000Y-85527800D01*
X182346000Y-88067800D02*
X188346000Y-88067800D01*
X179686000Y-92317800D02*
X182346000Y-92317800D01*
X182346000Y-84577800D02*
X179686000Y-84577800D01*
X182346000Y-85707800D02*
X188346000Y-85707800D01*
X179686000Y-84577800D02*
X179686000Y-92317800D01*
X182346000Y-85947800D02*
X188346000Y-85947800D01*
X179288929Y-90607800D02*
X179686000Y-90607800D01*
X182346000Y-90607800D02*
X188346000Y-90607800D01*
X182346000Y-86067800D02*
X188346000Y-86067800D01*
X188346000Y-91367800D02*
X182346000Y-91367800D01*
X176976000Y-84637800D02*
X178246000Y-84637800D01*
X182346000Y-86187800D02*
X188346000Y-86187800D01*
X179356000Y-86287800D02*
X179686000Y-86287800D01*
X176976000Y-85907800D02*
X176976000Y-84637800D01*
X182346000Y-85527800D02*
X188346000Y-85527800D01*
X182346000Y-85587800D02*
X188346000Y-85587800D01*
X182346000Y-92317800D02*
X182346000Y-84577800D01*
X179288929Y-88827800D02*
X179686000Y-88827800D01*
X188346000Y-90607800D02*
X188346000Y-91367800D01*
G04 #@! TO.C,R68*
X176150000Y-75143379D02*
X176150000Y-75478621D01*
X176910000Y-75143379D02*
X176910000Y-75478621D01*
D12*
G04 #@! TO.C,J4*
X137990900Y-137795600D02*
X135450900Y-137795600D01*
X137990900Y-137795600D02*
X137990900Y-140335600D01*
X135450900Y-140335600D02*
X135450900Y-137795600D01*
X137990900Y-140335600D02*
X135450900Y-140335600D01*
X135550900Y-130683600D02*
G75*
G03*
X135550900Y-130683600I-100000J0D01*
G01*
D11*
G04 #@! TO.C,D8*
X128047200Y-73563600D02*
X125187200Y-73563600D01*
X128047200Y-75483600D02*
X128047200Y-73563600D01*
X125187200Y-75483600D02*
X128047200Y-75483600D01*
G04 #@! TO.C,R18*
X161457621Y-102261400D02*
X161122379Y-102261400D01*
X161457621Y-103021400D02*
X161122379Y-103021400D01*
G04 #@! TO.C,U2*
X151745000Y-62382400D02*
X151745000Y-65832400D01*
X156865000Y-62382400D02*
X156865000Y-64332400D01*
X151745000Y-62382400D02*
X151745000Y-60432400D01*
X156865000Y-62382400D02*
X156865000Y-60432400D01*
G04 #@! TO.C,R14*
X168017879Y-106552000D02*
X168353121Y-106552000D01*
X168017879Y-105792000D02*
X168353121Y-105792000D01*
D13*
G04 #@! TO.C,J15*
X145861800Y-55589200D02*
X147391800Y-55589200D01*
X147391800Y-50589200D02*
X140491800Y-50589200D01*
X140491800Y-50589200D02*
X140491800Y-51869200D01*
X147391800Y-55589200D02*
X147391800Y-54709200D01*
X140491800Y-55589200D02*
X140491800Y-54709200D01*
X147391800Y-51869200D02*
X147391800Y-50589200D01*
X140491800Y-55589200D02*
X142021800Y-55589200D01*
D12*
X142791800Y-58239200D02*
G75*
G03*
X142791800Y-58239200I-100000J0D01*
G01*
D11*
G04 #@! TO.C,R58*
X139508921Y-72606800D02*
X139173679Y-72606800D01*
X139508921Y-71846800D02*
X139173679Y-71846800D01*
G04 #@! TO.C,D10*
X128047200Y-75849600D02*
X125187200Y-75849600D01*
X125187200Y-77769600D02*
X128047200Y-77769600D01*
X128047200Y-77769600D02*
X128047200Y-75849600D01*
D12*
G04 #@! TO.C,J5*
X137990900Y-140335600D02*
X137990900Y-137795600D01*
X140530900Y-137795600D02*
X140530900Y-140335600D01*
X140530900Y-137795600D02*
X137990900Y-137795600D01*
X140530900Y-140335600D02*
X137990900Y-140335600D01*
X138090900Y-130683600D02*
G75*
G03*
X138090900Y-130683600I-100000J0D01*
G01*
D11*
G04 #@! TO.C,R20*
X150240000Y-69174379D02*
X150240000Y-69509621D01*
X149480000Y-69174379D02*
X149480000Y-69509621D01*
G04 #@! TO.C,D5*
X125187200Y-70911600D02*
X128047200Y-70911600D01*
X128047200Y-68991600D02*
X125187200Y-68991600D01*
X128047200Y-70911600D02*
X128047200Y-68991600D01*
G04 #@! TO.C,R52*
X136055721Y-72617600D02*
X135720479Y-72617600D01*
X136055721Y-71857600D02*
X135720479Y-71857600D01*
G04 #@! TO.C,J26*
X182346000Y-118967800D02*
X188346000Y-118967800D01*
X182346000Y-118607800D02*
X188346000Y-118607800D01*
X179288929Y-119307800D02*
X179686000Y-119307800D01*
X182346000Y-119207800D02*
X188346000Y-119207800D01*
X179288929Y-128707800D02*
X179686000Y-128707800D01*
X179288929Y-129467800D02*
X179686000Y-129467800D01*
X188346000Y-121087800D02*
X188346000Y-121847800D01*
X182346000Y-117597800D02*
X179686000Y-117597800D01*
X188346000Y-123627800D02*
X188346000Y-124387800D01*
X179686000Y-125277800D02*
X182346000Y-125277800D01*
X176816000Y-119307800D02*
X177203071Y-119307800D01*
X182346000Y-126167800D02*
X188346000Y-126167800D01*
X176816000Y-118547800D02*
X177203071Y-118547800D01*
X182346000Y-128707800D02*
X188346000Y-128707800D01*
X179288929Y-121847800D02*
X179686000Y-121847800D01*
X176748929Y-129467800D02*
X177203071Y-129467800D01*
X179288929Y-126167800D02*
X179686000Y-126167800D01*
X188346000Y-126167800D02*
X188346000Y-126927800D01*
X179686000Y-130417800D02*
X182346000Y-130417800D01*
X188346000Y-119307800D02*
X182346000Y-119307800D01*
X174436000Y-117657800D02*
X175706000Y-117657800D01*
X179288929Y-124387800D02*
X179686000Y-124387800D01*
X176748929Y-123627800D02*
X177203071Y-123627800D01*
X179686000Y-120197800D02*
X182346000Y-120197800D01*
X176748929Y-126167800D02*
X177203071Y-126167800D01*
X188346000Y-126927800D02*
X182346000Y-126927800D01*
X176748929Y-128707800D02*
X177203071Y-128707800D01*
X188346000Y-128707800D02*
X188346000Y-129467800D01*
X176748929Y-126927800D02*
X177203071Y-126927800D01*
X182346000Y-118847800D02*
X188346000Y-118847800D01*
X176748929Y-124387800D02*
X177203071Y-124387800D01*
X182346000Y-123627800D02*
X188346000Y-123627800D01*
X174436000Y-118927800D02*
X174436000Y-117657800D01*
X182346000Y-130417800D02*
X182346000Y-117597800D01*
X188346000Y-124387800D02*
X182346000Y-124387800D01*
X179288929Y-123627800D02*
X179686000Y-123627800D01*
X182346000Y-121087800D02*
X188346000Y-121087800D01*
X182346000Y-118727800D02*
X188346000Y-118727800D01*
X179686000Y-122737800D02*
X182346000Y-122737800D01*
X176748929Y-121847800D02*
X177203071Y-121847800D01*
X182346000Y-118547800D02*
X188346000Y-118547800D01*
X179288929Y-121087800D02*
X179686000Y-121087800D01*
X179686000Y-127817800D02*
X182346000Y-127817800D01*
X179686000Y-117597800D02*
X179686000Y-130417800D01*
X188346000Y-121847800D02*
X182346000Y-121847800D01*
X188346000Y-118547800D02*
X188346000Y-119307800D01*
X176748929Y-121087800D02*
X177203071Y-121087800D01*
X188346000Y-129467800D02*
X182346000Y-129467800D01*
X182346000Y-119087800D02*
X188346000Y-119087800D01*
X179288929Y-118547800D02*
X179686000Y-118547800D01*
X179288929Y-126927800D02*
X179686000Y-126927800D01*
D10*
G04 #@! TO.C,J17*
X160173000Y-112944600D02*
X159948000Y-112944600D01*
X160173000Y-105444600D02*
X159948000Y-105444600D01*
X163648000Y-112944600D02*
X163223000Y-112944600D01*
X163648000Y-106969600D02*
X163648000Y-105444600D01*
X159948000Y-112944600D02*
X159948000Y-105444600D01*
X163648000Y-112944600D02*
X163648000Y-111419600D01*
X163648000Y-105444600D02*
X163223000Y-105444600D01*
D15*
X166241000Y-106908600D02*
G75*
G03*
X166241000Y-106908600I-125000J0D01*
G01*
D11*
G04 #@! TO.C,R10*
X144507379Y-100595000D02*
X144842621Y-100595000D01*
X144507379Y-101355000D02*
X144842621Y-101355000D01*
D13*
G04 #@! TO.C,C13*
X162930000Y-122670800D02*
X162930000Y-123810800D01*
X164730000Y-122670800D02*
X164730000Y-123810800D01*
D11*
G04 #@! TO.C,R61*
X128220200Y-74355979D02*
X128220200Y-74691221D01*
X128980200Y-74355979D02*
X128980200Y-74691221D01*
G04 #@! TO.C,D4*
X128047200Y-66263400D02*
X128047200Y-64343400D01*
X128047200Y-64343400D02*
X125187200Y-64343400D01*
X125187200Y-66263400D02*
X128047200Y-66263400D01*
G04 #@! TO.C,R41*
X131905321Y-55576200D02*
X131570079Y-55576200D01*
X131905321Y-56336200D02*
X131570079Y-56336200D01*
G04 #@! TO.C,R27*
X131917421Y-66648600D02*
X131582179Y-66648600D01*
X131917421Y-65888600D02*
X131582179Y-65888600D01*
G04 #@! TO.C,C23*
X137444200Y-96923352D02*
X137444200Y-96400848D01*
X135974200Y-96923352D02*
X135974200Y-96400848D01*
G04 #@! TO.C,C45*
X168328265Y-69617000D02*
X168559935Y-69617000D01*
X168328265Y-70337000D02*
X168559935Y-70337000D01*
G04 #@! TO.C,D7*
X128047200Y-59720600D02*
X125187200Y-59720600D01*
X128047200Y-61640600D02*
X128047200Y-59720600D01*
X125187200Y-61640600D02*
X128047200Y-61640600D01*
D13*
G04 #@! TO.C,J25*
X181921800Y-74938000D02*
X182921800Y-74938000D01*
X181921800Y-82438000D02*
X182921800Y-82438000D01*
X182921800Y-82438000D02*
X182921800Y-74938000D01*
G04 #@! TO.C,J24*
X173340100Y-67593100D02*
X173790100Y-67593100D01*
X161790100Y-50043100D02*
X161790100Y-46543100D01*
X161790100Y-50843100D02*
X161790100Y-50543100D01*
X162290100Y-46043100D02*
X172290100Y-46043100D01*
X161790100Y-67593100D02*
X159940100Y-67593100D01*
X172290100Y-50843100D02*
X172790100Y-50843100D01*
X161790100Y-51343100D02*
X161790100Y-50843100D01*
X172790100Y-50843100D02*
X172790100Y-50543100D01*
X161790100Y-50843100D02*
X162290100Y-50843100D01*
X172290100Y-50043100D02*
X172790100Y-50043100D01*
X162290100Y-50843100D02*
X172290100Y-50843100D01*
X172790100Y-51643100D02*
X172790100Y-51343100D01*
X172790100Y-50043100D02*
X172790100Y-46543100D01*
X172790100Y-50843100D02*
X172790100Y-51343100D01*
X172790100Y-51643100D02*
X161790100Y-51643100D01*
X161790100Y-51643100D02*
X161790100Y-51343100D01*
X173790100Y-54443100D02*
X173790100Y-56043100D01*
X162290100Y-50043100D02*
X172290100Y-50043100D01*
X173790100Y-67593100D02*
X173790100Y-67043100D01*
X159940100Y-67593100D02*
X159940100Y-53443100D01*
X172790100Y-50043100D02*
X172790100Y-50543100D01*
X161790100Y-50043100D02*
X162290100Y-50043100D01*
X161790100Y-50543100D02*
X161790100Y-50043100D01*
X172790100Y-50543100D02*
G75*
G03*
X172290100Y-50043100I-500001J-1D01*
G01*
X172790100Y-46543100D02*
G75*
G03*
X172290100Y-46043100I-500001J-1D01*
G01*
X162290100Y-50843100D02*
G75*
G03*
X161790100Y-51343100I0J-500000D01*
G01*
X172790100Y-51343100D02*
G75*
G03*
X172290100Y-50843100I-500001J-1D01*
G01*
X162290100Y-50043100D02*
G75*
G03*
X161790100Y-50543100I0J-500000D01*
G01*
X162290100Y-46043100D02*
G75*
G03*
X161790100Y-46543100I0J-500000D01*
G01*
D12*
X164290100Y-68843100D02*
G75*
G03*
X164290100Y-68843100I-250000J0D01*
G01*
D11*
G04 #@! TO.C,C4*
X178132665Y-132160000D02*
X178364335Y-132160000D01*
X178132665Y-131440000D02*
X178364335Y-131440000D01*
D13*
G04 #@! TO.C,J22*
X136687900Y-111446200D02*
X136687900Y-109921200D01*
X136687900Y-100796200D02*
X136687900Y-102321200D01*
X133287900Y-100796200D02*
X133287900Y-111446200D01*
X136407900Y-111446200D02*
X136687900Y-111446200D01*
X136407900Y-100796200D02*
X136687900Y-100796200D01*
D12*
X139387900Y-103011200D02*
G75*
G03*
X139387900Y-103011200I-100000J0D01*
G01*
G04 #@! TO.C,SW2*
X137581500Y-52190800D02*
X137581500Y-51540800D01*
X131381500Y-51540800D02*
X131381500Y-52290800D01*
X137581500Y-51540800D02*
X131381500Y-51540800D01*
X131381500Y-55240800D02*
X131381500Y-54490800D01*
X137581500Y-55240800D02*
X131381500Y-55240800D01*
X137581500Y-54490800D02*
X137581500Y-55240800D01*
X137181500Y-54590800D02*
G75*
G03*
X137181500Y-54590800I-100000J0D01*
G01*
G04 #@! TO.C,J6*
X140530900Y-140335600D02*
X140530900Y-137795600D01*
X143070900Y-140335600D02*
X140530900Y-140335600D01*
X143070900Y-137795600D02*
X143070900Y-140335600D01*
X143070900Y-137795600D02*
X140530900Y-137795600D01*
X140630900Y-130683600D02*
G75*
G03*
X140630900Y-130683600I-100000J0D01*
G01*
D11*
G04 #@! TO.C,R66*
X128220200Y-67447179D02*
X128220200Y-67782421D01*
X128980200Y-67447179D02*
X128980200Y-67782421D01*
D12*
G04 #@! TO.C,SW1*
X137593000Y-61954800D02*
X131393000Y-61954800D01*
X131393000Y-61954800D02*
X131393000Y-62704800D01*
X131393000Y-65654800D02*
X131393000Y-64904800D01*
X137593000Y-62604800D02*
X137593000Y-61954800D01*
X137593000Y-64904800D02*
X137593000Y-65654800D01*
X137593000Y-65654800D02*
X131393000Y-65654800D01*
X137193000Y-65004800D02*
G75*
G03*
X137193000Y-65004800I-100000J0D01*
G01*
D11*
G04 #@! TO.C,C44*
X139416885Y-81335200D02*
X139185215Y-81335200D01*
X139416885Y-80615200D02*
X139185215Y-80615200D01*
D12*
G04 #@! TO.C,J3*
X132910900Y-140335600D02*
X132910900Y-137795600D01*
X135450900Y-137795600D02*
X132910900Y-137795600D01*
X135450900Y-140335600D02*
X132910900Y-140335600D01*
X135450900Y-137795600D02*
X135450900Y-140335600D01*
X133010900Y-130683600D02*
G75*
G03*
X133010900Y-130683600I-100000J0D01*
G01*
D11*
G04 #@! TO.C,C5*
X144430533Y-67439700D02*
X144723067Y-67439700D01*
X144430533Y-68459700D02*
X144723067Y-68459700D01*
G04 #@! TO.C,U3*
X160411600Y-125304600D02*
X154401600Y-125304600D01*
X154401600Y-118484600D02*
X154401600Y-119744600D01*
X154401600Y-125304600D02*
X154401600Y-124044600D01*
X158161600Y-118484600D02*
X154401600Y-118484600D01*
G04 #@! TO.C,R33*
X172340000Y-72391921D02*
X172340000Y-72056679D01*
X173100000Y-72391921D02*
X173100000Y-72056679D01*
G04 #@! TO.C,R46*
X128980200Y-72056679D02*
X128980200Y-72391921D01*
X128220200Y-72056679D02*
X128220200Y-72391921D01*
G04 #@! TO.C,R2*
X158012400Y-65191621D02*
X158012400Y-64856379D01*
X157252400Y-65191621D02*
X157252400Y-64856379D01*
G04 #@! TO.C,C38*
X158346065Y-74070800D02*
X158577735Y-74070800D01*
X158346065Y-73350800D02*
X158577735Y-73350800D01*
G04 #@! TO.C,R36*
X172058600Y-72056679D02*
X172058600Y-72391921D01*
X171298600Y-72056679D02*
X171298600Y-72391921D01*
G04 #@! TO.C,J21*
X133559400Y-115154200D02*
X133119400Y-115154200D01*
X136719400Y-115154200D02*
X136279400Y-115154200D01*
X136719400Y-116844200D02*
X138519400Y-116844200D01*
X136719400Y-121814200D02*
X136719400Y-123504200D01*
X133119400Y-115154200D02*
X133119400Y-123504200D01*
X136719400Y-123504200D02*
X136279400Y-123504200D01*
X136719400Y-116844200D02*
X136719400Y-115154200D01*
X133119400Y-123504200D02*
X133559400Y-123504200D01*
D12*
G04 #@! TO.C,J8*
X148150900Y-137795600D02*
X145610900Y-137795600D01*
X148150900Y-140335600D02*
X145610900Y-140335600D01*
X148150900Y-137795600D02*
X148150900Y-140335600D01*
X145610900Y-140335600D02*
X145610900Y-137795600D01*
X145710900Y-130683600D02*
G75*
G03*
X145710900Y-130683600I-100000J0D01*
G01*
D11*
G04 #@! TO.C,R59*
X128448800Y-80210079D02*
X128448800Y-80545321D01*
X129208800Y-80210079D02*
X129208800Y-80545321D01*
G04 #@! TO.C,C12*
X163563648Y-116463400D02*
X164986152Y-116463400D01*
X163563648Y-118283400D02*
X164986152Y-118283400D01*
G04 #@! TO.C,C11*
X163721167Y-119915400D02*
X163428633Y-119915400D01*
X163721167Y-118895400D02*
X163428633Y-118895400D01*
G04 #@! TO.C,Q7*
X133949000Y-76592550D02*
X133949000Y-75942550D01*
X133949000Y-76592550D02*
X133949000Y-78267550D01*
X137069000Y-76592550D02*
X137069000Y-75942550D01*
X137069000Y-76592550D02*
X137069000Y-77242550D01*
G04 #@! TO.C,R8*
X140946599Y-98900121D02*
X140946599Y-98564879D01*
X141706599Y-98900121D02*
X141706599Y-98564879D01*
G04 #@! TO.C,R11*
X161406821Y-100762800D02*
X161071579Y-100762800D01*
X161406821Y-101522800D02*
X161071579Y-101522800D01*
G04 #@! TO.C,R45*
X132461971Y-71857600D02*
X132126729Y-71857600D01*
X132461971Y-72617600D02*
X132126729Y-72617600D01*
G04 #@! TO.C,R39*
X157379400Y-70926979D02*
X157379400Y-71262221D01*
X158139400Y-70926979D02*
X158139400Y-71262221D01*
D12*
G04 #@! TO.C,D2*
X131964800Y-115262600D02*
X131964800Y-118622600D01*
X130264800Y-116022600D02*
X130264800Y-118622600D01*
D11*
G04 #@! TO.C,J1*
X179202000Y-68692000D02*
X179202000Y-71292000D01*
X181802000Y-68692000D02*
X179202000Y-68692000D01*
X176602000Y-71292000D02*
X176602000Y-63552000D01*
X181802000Y-63552000D02*
X176602000Y-63552000D01*
X179202000Y-71292000D02*
X176602000Y-71292000D01*
X181802000Y-68692000D02*
X181802000Y-63552000D01*
X181802000Y-69962000D02*
X181802000Y-71292000D01*
X181802000Y-71292000D02*
X180472000Y-71292000D01*
G04 #@! TO.C,R44*
X129208800Y-86522579D02*
X129208800Y-86857821D01*
X128448800Y-86522579D02*
X128448800Y-86857821D01*
G04 #@! TO.C,D3*
X128047200Y-73184300D02*
X128047200Y-71264300D01*
X128047200Y-71264300D02*
X125187200Y-71264300D01*
X125187200Y-73184300D02*
X128047200Y-73184300D01*
G04 #@! TO.C,R55*
X128980200Y-62824379D02*
X128980200Y-63159621D01*
X128220200Y-62824379D02*
X128220200Y-63159621D01*
D13*
G04 #@! TO.C,J16*
X150245400Y-55589200D02*
X150245400Y-54709200D01*
X150245400Y-50589200D02*
X150245400Y-51869200D01*
X157145400Y-55589200D02*
X157145400Y-54709200D01*
X150245400Y-55589200D02*
X151775400Y-55589200D01*
X157145400Y-51869200D02*
X157145400Y-50589200D01*
X157145400Y-50589200D02*
X150245400Y-50589200D01*
X155615400Y-55589200D02*
X157145400Y-55589200D01*
D12*
X152545400Y-58239200D02*
G75*
G03*
X152545400Y-58239200I-100000J0D01*
G01*
D11*
G04 #@! TO.C,R31*
X160746421Y-71576200D02*
X160411179Y-71576200D01*
X160746421Y-70816200D02*
X160411179Y-70816200D01*
G04 #@! TO.C,D6*
X128047200Y-63952000D02*
X128047200Y-62032000D01*
X125187200Y-63952000D02*
X128047200Y-63952000D01*
X128047200Y-62032000D02*
X125187200Y-62032000D01*
G04 #@! TO.C,R9*
X140614399Y-98900121D02*
X140614399Y-98564879D01*
X139854399Y-98900121D02*
X139854399Y-98564879D01*
G04 #@! TO.C,U4*
X153581100Y-110236100D02*
X153081603Y-110236100D01*
X151218900Y-110236100D02*
X151218900Y-110485534D01*
X153581100Y-110485534D02*
X153581100Y-110236100D01*
X151218900Y-112348866D02*
X151218900Y-112598300D01*
X153081603Y-112598300D02*
X153581100Y-112598300D01*
X153581100Y-112598300D02*
X153581100Y-112348866D01*
X151218900Y-112598300D02*
X151718397Y-112598300D01*
X151718397Y-110236100D02*
X151218900Y-110236100D01*
G36*
X152781000Y-110147200D02*
G01*
X152400000Y-110147200D01*
X152400000Y-109893200D01*
X152781000Y-109893200D01*
X152781000Y-110147200D01*
G37*
D16*
X152781000Y-110147200D02*
X152400000Y-110147200D01*
X152400000Y-109893200D01*
X152781000Y-109893200D01*
X152781000Y-110147200D01*
D13*
G04 #@! TO.C,J19*
X122887000Y-117839600D02*
X122887000Y-128489600D01*
X126007000Y-117839600D02*
X126287000Y-117839600D01*
X126287000Y-128489600D02*
X126287000Y-126964600D01*
X126007000Y-128489600D02*
X126287000Y-128489600D01*
X126287000Y-117839600D02*
X126287000Y-119364600D01*
D12*
X128987000Y-120054600D02*
G75*
G03*
X128987000Y-120054600I-100000J0D01*
G01*
D11*
G04 #@! TO.C,C40*
X141457000Y-84545435D02*
X141457000Y-84313765D01*
X140737000Y-84545435D02*
X140737000Y-84313765D01*
G04 #@! TO.C,C18*
X156901400Y-110939948D02*
X156901400Y-111462452D01*
X158371400Y-110939948D02*
X158371400Y-111462452D01*
D12*
G04 #@! TO.C,J13*
X160528000Y-140335000D02*
X157988000Y-140335000D01*
X160528000Y-137795000D02*
X160528000Y-140335000D01*
X160528000Y-137795000D02*
X157988000Y-137795000D01*
X157988000Y-140335000D02*
X157988000Y-137795000D01*
X158088000Y-130683000D02*
G75*
G03*
X158088000Y-130683000I-100000J0D01*
G01*
D11*
G04 #@! TO.C,R25*
X171167479Y-81738200D02*
X171502721Y-81738200D01*
X171167479Y-82498200D02*
X171502721Y-82498200D01*
G04 #@! TO.C,R3*
X140844000Y-63535579D02*
X140844000Y-63870821D01*
X141604000Y-63535579D02*
X141604000Y-63870821D01*
G04 #@! TO.C,C16*
X156345400Y-111047365D02*
X156345400Y-111279035D01*
X155625400Y-111047365D02*
X155625400Y-111279035D01*
G04 #@! TO.C,C47*
X137961635Y-55596200D02*
X137729965Y-55596200D01*
X137961635Y-56316200D02*
X137729965Y-56316200D01*
G04 #@! TO.C,Q5*
X137185000Y-69723000D02*
X137185000Y-69073000D01*
X137185000Y-69723000D02*
X137185000Y-71398000D01*
X140305000Y-69723000D02*
X140305000Y-69073000D01*
X140305000Y-69723000D02*
X140305000Y-70373000D01*
G04 #@! TD*
M02*
