G04 #@! TF.GenerationSoftware,KiCad,Pcbnew,6.0.11-2627ca5db0~126~ubuntu22.04.1*
G04 #@! TF.CreationDate,2023-09-27T18:56:04-03:00*
G04 #@! TF.ProjectId,Drone FCC,44726f6e-6520-4464-9343-2e6b69636164,rev?*
G04 #@! TF.SameCoordinates,Original*
G04 #@! TF.FileFunction,Paste,Top*
G04 #@! TF.FilePolarity,Positive*
%FSLAX46Y46*%
G04 Gerber Fmt 4.6, Leading zero omitted, Abs format (unit mm)*
G04 Created by KiCad (PCBNEW 6.0.11-2627ca5db0~126~ubuntu22.04.1) date 2023-09-27 18:56:04*
%MOMM*%
%LPD*%
G01*
G04 APERTURE LIST*
G04 Aperture macros list*
%AMRoundRect*
0 Rectangle with rounded corners*
0 $1 Rounding radius*
0 $2 $3 $4 $5 $6 $7 $8 $9 X,Y pos of 4 corners*
0 Add a 4 corners polygon primitive as box body*
4,1,4,$2,$3,$4,$5,$6,$7,$8,$9,$2,$3,0*
0 Add four circle primitives for the rounded corners*
1,1,$1+$1,$2,$3*
1,1,$1+$1,$4,$5*
1,1,$1+$1,$6,$7*
1,1,$1+$1,$8,$9*
0 Add four rect primitives between the rounded corners*
20,1,$1+$1,$2,$3,$4,$5,0*
20,1,$1+$1,$4,$5,$6,$7,0*
20,1,$1+$1,$6,$7,$8,$9,0*
20,1,$1+$1,$8,$9,$2,$3,0*%
G04 Aperture macros list end*
%ADD10RoundRect,0.155000X-0.155000X0.212500X-0.155000X-0.212500X0.155000X-0.212500X0.155000X0.212500X0*%
%ADD11RoundRect,0.155000X-0.212500X-0.155000X0.212500X-0.155000X0.212500X0.155000X-0.212500X0.155000X0*%
%ADD12RoundRect,0.155000X0.155000X-0.212500X0.155000X0.212500X-0.155000X0.212500X-0.155000X-0.212500X0*%
%ADD13RoundRect,0.160000X-0.197500X-0.160000X0.197500X-0.160000X0.197500X0.160000X-0.197500X0.160000X0*%
%ADD14RoundRect,0.160000X0.197500X0.160000X-0.197500X0.160000X-0.197500X-0.160000X0.197500X-0.160000X0*%
%ADD15RoundRect,0.160000X0.160000X-0.197500X0.160000X0.197500X-0.160000X0.197500X-0.160000X-0.197500X0*%
%ADD16RoundRect,0.155000X0.212500X0.155000X-0.212500X0.155000X-0.212500X-0.155000X0.212500X-0.155000X0*%
%ADD17RoundRect,0.160000X-0.160000X0.197500X-0.160000X-0.197500X0.160000X-0.197500X0.160000X0.197500X0*%
%ADD18RoundRect,0.150000X0.150000X-0.587500X0.150000X0.587500X-0.150000X0.587500X-0.150000X-0.587500X0*%
%ADD19RoundRect,0.150000X0.587500X0.150000X-0.587500X0.150000X-0.587500X-0.150000X0.587500X-0.150000X0*%
%ADD20RoundRect,0.250000X0.325000X0.450000X-0.325000X0.450000X-0.325000X-0.450000X0.325000X-0.450000X0*%
%ADD21RoundRect,0.031500X-0.143500X0.263500X-0.143500X-0.263500X0.143500X-0.263500X0.143500X0.263500X0*%
%ADD22RoundRect,0.031500X-0.263500X-0.143500X0.263500X-0.143500X0.263500X0.143500X-0.263500X0.143500X0*%
%ADD23RoundRect,0.031500X0.143500X-0.263500X0.143500X0.263500X-0.143500X0.263500X-0.143500X-0.263500X0*%
%ADD24RoundRect,0.031500X0.263500X0.143500X-0.263500X0.143500X-0.263500X-0.143500X0.263500X-0.143500X0*%
%ADD25RoundRect,0.150000X0.512500X0.150000X-0.512500X0.150000X-0.512500X-0.150000X0.512500X-0.150000X0*%
%ADD26RoundRect,0.237500X0.237500X-0.300000X0.237500X0.300000X-0.237500X0.300000X-0.237500X-0.300000X0*%
%ADD27RoundRect,0.237500X-0.300000X-0.237500X0.300000X-0.237500X0.300000X0.237500X-0.300000X0.237500X0*%
%ADD28RoundRect,0.250000X-0.475000X0.337500X-0.475000X-0.337500X0.475000X-0.337500X0.475000X0.337500X0*%
%ADD29R,2.300000X1.500000*%
%ADD30RoundRect,0.150000X0.150000X-0.825000X0.150000X0.825000X-0.150000X0.825000X-0.150000X-0.825000X0*%
%ADD31R,1.100000X1.300000*%
%ADD32RoundRect,0.075000X-0.662500X-0.075000X0.662500X-0.075000X0.662500X0.075000X-0.662500X0.075000X0*%
%ADD33RoundRect,0.075000X-0.075000X-0.662500X0.075000X-0.662500X0.075000X0.662500X-0.075000X0.662500X0*%
%ADD34R,1.295400X0.609600*%
%ADD35R,1.080000X0.920000*%
%ADD36RoundRect,0.237500X-0.237500X0.300000X-0.237500X-0.300000X0.237500X-0.300000X0.237500X0.300000X0*%
%ADD37R,0.700000X1.800000*%
%ADD38R,1.600000X2.200000*%
%ADD39R,3.600000X0.700000*%
%ADD40R,1.820000X1.160000*%
%ADD41RoundRect,0.250000X0.475000X-0.337500X0.475000X0.337500X-0.475000X0.337500X-0.475000X-0.337500X0*%
%ADD42R,1.350000X0.400000*%
%ADD43R,1.900000X1.500000*%
%ADD44R,1.900000X1.800000*%
%ADD45R,0.700000X1.200000*%
%ADD46R,1.000000X1.200000*%
%ADD47R,1.000000X2.800000*%
%ADD48R,1.300000X1.900000*%
%ADD49R,1.000000X0.800000*%
%ADD50R,1.800000X0.700000*%
%ADD51R,2.200000X1.600000*%
%ADD52R,2.000000X1.500000*%
%ADD53R,2.000000X3.800000*%
%ADD54RoundRect,0.250000X-0.412500X-0.650000X0.412500X-0.650000X0.412500X0.650000X-0.412500X0.650000X0*%
%ADD55RoundRect,0.237500X0.300000X0.237500X-0.300000X0.237500X-0.300000X-0.237500X0.300000X-0.237500X0*%
%ADD56R,0.304800X0.330200*%
%ADD57R,0.330200X0.304800*%
G04 APERTURE END LIST*
D10*
G04 #@! TO.C,C24*
X164566600Y-98746500D03*
X164566600Y-99881500D03*
G04 #@! TD*
D11*
G04 #@! TO.C,C9*
X144082500Y-102050000D03*
X145217500Y-102050000D03*
G04 #@! TD*
D12*
G04 #@! TO.C,C31*
X166116000Y-98001900D03*
X166116000Y-96866900D03*
G04 #@! TD*
D13*
G04 #@! TO.C,R43*
X131696850Y-73279000D03*
X132891850Y-73279000D03*
G04 #@! TD*
D14*
G04 #@! TO.C,R51*
X132960000Y-79104850D03*
X131765000Y-79104850D03*
G04 #@! TD*
G04 #@! TO.C,R22*
X143800000Y-70292000D03*
X142605000Y-70292000D03*
G04 #@! TD*
D15*
G04 #@! TO.C,R57*
X129946400Y-80975200D03*
X129946400Y-79780200D03*
G04 #@! TD*
D13*
G04 #@! TO.C,R37*
X159955900Y-70180200D03*
X161150900Y-70180200D03*
G04 #@! TD*
D16*
G04 #@! TO.C,C3*
X127310000Y-131800000D03*
X126175000Y-131800000D03*
G04 #@! TD*
D15*
G04 #@! TO.C,R30*
X163499800Y-71463500D03*
X163499800Y-70268500D03*
G04 #@! TD*
D13*
G04 #@! TO.C,R49*
X131765001Y-80247849D03*
X132960001Y-80247849D03*
G04 #@! TD*
D17*
G04 #@! TO.C,R19*
X149860000Y-66216600D03*
X149860000Y-67411600D03*
G04 #@! TD*
D18*
G04 #@! TO.C,Q3*
X131333200Y-77530050D03*
X133233200Y-77530050D03*
X132283200Y-75655050D03*
G04 #@! TD*
D19*
G04 #@! TO.C,Q8*
X127251700Y-83881000D03*
X127251700Y-81981000D03*
X125376700Y-82931000D03*
G04 #@! TD*
D13*
G04 #@! TO.C,R50*
X135290600Y-73279000D03*
X136485600Y-73279000D03*
G04 #@! TD*
D17*
G04 #@! TO.C,R28*
X175412400Y-58127300D03*
X175412400Y-59322300D03*
G04 #@! TD*
D11*
G04 #@! TO.C,C7*
X144009300Y-66686200D03*
X145144300Y-66686200D03*
G04 #@! TD*
D14*
G04 #@! TO.C,R48*
X134760300Y-61036200D03*
X133565300Y-61036200D03*
G04 #@! TD*
D11*
G04 #@! TO.C,C33*
X167446050Y-75971400D03*
X168581050Y-75971400D03*
G04 #@! TD*
D15*
G04 #@! TO.C,R6*
X151282400Y-70664000D03*
X151282400Y-69469000D03*
G04 #@! TD*
D12*
G04 #@! TO.C,C19*
X148673800Y-106476800D03*
X148673800Y-105341800D03*
G04 #@! TD*
D17*
G04 #@! TO.C,R13*
X148996400Y-110959300D03*
X148996400Y-112154300D03*
G04 #@! TD*
D13*
G04 #@! TO.C,R38*
X167740400Y-72612550D03*
X168935400Y-72612550D03*
G04 #@! TD*
D17*
G04 #@! TO.C,R34*
X173913800Y-70928900D03*
X173913800Y-72123900D03*
G04 #@! TD*
D16*
G04 #@! TO.C,C34*
X147150900Y-98552000D03*
X146015900Y-98552000D03*
G04 #@! TD*
D11*
G04 #@! TO.C,C8*
X153746200Y-66686200D03*
X154881200Y-66686200D03*
G04 #@! TD*
G04 #@! TO.C,C30*
X154355250Y-72668850D03*
X155490250Y-72668850D03*
G04 #@! TD*
D15*
G04 #@! TO.C,R5*
X147150000Y-71397500D03*
X147150000Y-70202500D03*
G04 #@! TD*
D10*
G04 #@! TO.C,C41*
X169630450Y-88916700D03*
X169630450Y-90051700D03*
G04 #@! TD*
D14*
G04 #@! TO.C,R17*
X158179100Y-101904800D03*
X156984100Y-101904800D03*
G04 #@! TD*
D17*
G04 #@! TO.C,R60*
X128600200Y-60083100D03*
X128600200Y-61278100D03*
G04 #@! TD*
D12*
G04 #@! TO.C,C32*
X142575000Y-91917500D03*
X142575000Y-90782500D03*
G04 #@! TD*
D14*
G04 #@! TO.C,R40*
X134709500Y-55956200D03*
X133514500Y-55956200D03*
G04 #@! TD*
D20*
G04 #@! TO.C,D9*
X127212200Y-67614800D03*
X125162200Y-67614800D03*
G04 #@! TD*
D16*
G04 #@! TO.C,C42*
X159385000Y-99237800D03*
X158250000Y-99237800D03*
G04 #@! TD*
D19*
G04 #@! TO.C,Q1*
X127251700Y-87030600D03*
X127251700Y-85130600D03*
X125376700Y-86080600D03*
G04 #@! TD*
D14*
G04 #@! TO.C,R26*
X134836500Y-66268600D03*
X133641500Y-66268600D03*
G04 #@! TD*
D15*
G04 #@! TO.C,R1*
X147980400Y-65545300D03*
X147980400Y-64350300D03*
G04 #@! TD*
D21*
G04 #@! TO.C,U5*
X153486900Y-102848000D03*
X152986900Y-102848000D03*
X152486900Y-102848000D03*
X151986900Y-102848000D03*
D22*
X151821900Y-103513000D03*
X151821900Y-104013000D03*
X151821900Y-104513000D03*
D23*
X151986900Y-105178000D03*
X152486900Y-105178000D03*
X152986900Y-105178000D03*
X153486900Y-105178000D03*
D24*
X153651900Y-104513000D03*
X153651900Y-104013000D03*
X153651900Y-103513000D03*
G04 #@! TD*
D13*
G04 #@! TO.C,R62*
X134835300Y-80133550D03*
X136030300Y-80133550D03*
G04 #@! TD*
D14*
G04 #@! TO.C,R24*
X171945900Y-81000600D03*
X170750900Y-81000600D03*
G04 #@! TD*
D13*
G04 #@! TO.C,R7*
X144077500Y-103100000D03*
X145272500Y-103100000D03*
G04 #@! TD*
D17*
G04 #@! TO.C,R23*
X139326802Y-89832300D03*
X139326802Y-91027300D03*
G04 #@! TD*
D25*
G04 #@! TO.C,U7*
X175768000Y-79959200D03*
X175768000Y-79009200D03*
X175768000Y-78059200D03*
X173493000Y-78059200D03*
X173493000Y-79009200D03*
X173493000Y-79959200D03*
G04 #@! TD*
D16*
G04 #@! TO.C,C48*
X138427200Y-61036200D03*
X137292200Y-61036200D03*
G04 #@! TD*
D12*
G04 #@! TO.C,C26*
X169732050Y-77072300D03*
X169732050Y-75937300D03*
G04 #@! TD*
D15*
G04 #@! TO.C,R63*
X129946400Y-84138100D03*
X129946400Y-82943100D03*
G04 #@! TD*
D14*
G04 #@! TO.C,R64*
X136044900Y-79092150D03*
X134849900Y-79092150D03*
G04 #@! TD*
D10*
G04 #@! TO.C,C25*
X167843200Y-84090700D03*
X167843200Y-85225700D03*
G04 #@! TD*
D26*
G04 #@! TO.C,C20*
X147327600Y-106898800D03*
X147327600Y-105173800D03*
G04 #@! TD*
D16*
G04 #@! TO.C,C35*
X145280000Y-73787000D03*
X144145000Y-73787000D03*
G04 #@! TD*
D27*
G04 #@! TO.C,C6*
X153469000Y-67949700D03*
X155194000Y-67949700D03*
G04 #@! TD*
D15*
G04 #@! TO.C,R42*
X129921000Y-87287700D03*
X129921000Y-86092700D03*
G04 #@! TD*
D16*
G04 #@! TO.C,C15*
X154974100Y-108508800D03*
X153839100Y-108508800D03*
G04 #@! TD*
G04 #@! TO.C,C1*
X127322200Y-58674000D03*
X126187200Y-58674000D03*
G04 #@! TD*
D28*
G04 #@! TO.C,C28*
X169519600Y-83515200D03*
X169519600Y-85590200D03*
G04 #@! TD*
D16*
G04 #@! TO.C,C39*
X154533600Y-99152625D03*
X153398600Y-99152625D03*
G04 #@! TD*
G04 #@! TO.C,C2*
X179942300Y-58750200D03*
X178807300Y-58750200D03*
G04 #@! TD*
D17*
G04 #@! TO.C,R47*
X128600200Y-64705900D03*
X128600200Y-65900900D03*
G04 #@! TD*
D10*
G04 #@! TO.C,C21*
X143002000Y-76073000D03*
X143002000Y-77208000D03*
G04 #@! TD*
D13*
G04 #@! TO.C,R21*
X142605000Y-71307999D03*
X143800000Y-71307999D03*
G04 #@! TD*
D14*
G04 #@! TO.C,R16*
X160515900Y-103860600D03*
X159320900Y-103860600D03*
G04 #@! TD*
D13*
G04 #@! TO.C,R29*
X168922100Y-73653950D03*
X170117100Y-73653950D03*
G04 #@! TD*
D15*
G04 #@! TO.C,R12*
X150622000Y-109055500D03*
X150622000Y-107860500D03*
G04 #@! TD*
D17*
G04 #@! TO.C,R67*
X128600200Y-76212100D03*
X128600200Y-77407100D03*
G04 #@! TD*
G04 #@! TO.C,R65*
X128828800Y-82943100D03*
X128828800Y-84138100D03*
G04 #@! TD*
D19*
G04 #@! TO.C,Q6*
X127251700Y-80731400D03*
X127251700Y-78831400D03*
X125376700Y-79781400D03*
G04 #@! TD*
D15*
G04 #@! TO.C,R4*
X150799800Y-60465300D03*
X150799800Y-59270300D03*
G04 #@! TD*
D27*
G04 #@! TO.C,C46*
X167581600Y-71247000D03*
X169306600Y-71247000D03*
G04 #@! TD*
D10*
G04 #@! TO.C,C17*
X149606000Y-102861300D03*
X149606000Y-103996300D03*
G04 #@! TD*
D11*
G04 #@! TO.C,C36*
X138733550Y-79857600D03*
X139868550Y-79857600D03*
G04 #@! TD*
D29*
G04 #@! TO.C,SW3*
X137831500Y-58547000D03*
X131131500Y-58547000D03*
G04 #@! TD*
D30*
G04 #@! TO.C,U1*
X142671800Y-64857400D03*
X143941800Y-64857400D03*
X145211800Y-64857400D03*
X146481800Y-64857400D03*
X146481800Y-59907400D03*
X145211800Y-59907400D03*
X143941800Y-59907400D03*
X142671800Y-59907400D03*
G04 #@! TD*
D27*
G04 #@! TO.C,C43*
X153949950Y-71170250D03*
X155674950Y-71170250D03*
G04 #@! TD*
D17*
G04 #@! TO.C,R35*
X164592000Y-70217700D03*
X164592000Y-71412700D03*
G04 #@! TD*
D12*
G04 #@! TO.C,C10*
X142393400Y-99300000D03*
X142393400Y-98165000D03*
G04 #@! TD*
D13*
G04 #@! TO.C,R15*
X167594050Y-105054400D03*
X168789050Y-105054400D03*
G04 #@! TD*
D16*
G04 #@! TO.C,C29*
X137673500Y-93391200D03*
X136538500Y-93391200D03*
G04 #@! TD*
D15*
G04 #@! TO.C,R32*
X174955200Y-72123900D03*
X174955200Y-70928900D03*
G04 #@! TD*
D31*
G04 #@! TO.C,Y1*
X135825000Y-89625000D03*
X135825000Y-91925000D03*
X137625000Y-91925000D03*
X137625000Y-89625000D03*
G04 #@! TD*
D17*
G04 #@! TO.C,R54*
X128600200Y-69354100D03*
X128600200Y-70549100D03*
G04 #@! TD*
D18*
G04 #@! TO.C,Q4*
X134569200Y-70660500D03*
X136469200Y-70660500D03*
X135519200Y-68785500D03*
G04 #@! TD*
D32*
G04 #@! TO.C,U6*
X144845550Y-77178200D03*
X144845550Y-77678200D03*
X144845550Y-78178200D03*
X144845550Y-78678200D03*
X144845550Y-79178200D03*
X144845550Y-79678200D03*
X144845550Y-80178200D03*
X144845550Y-80678200D03*
X144845550Y-81178200D03*
X144845550Y-81678200D03*
X144845550Y-82178200D03*
X144845550Y-82678200D03*
X144845550Y-83178200D03*
X144845550Y-83678200D03*
X144845550Y-84178200D03*
X144845550Y-84678200D03*
X144845550Y-85178200D03*
X144845550Y-85678200D03*
X144845550Y-86178200D03*
X144845550Y-86678200D03*
X144845550Y-87178200D03*
X144845550Y-87678200D03*
X144845550Y-88178200D03*
X144845550Y-88678200D03*
X144845550Y-89178200D03*
X144845550Y-89678200D03*
X144845550Y-90178200D03*
X144845550Y-90678200D03*
X144845550Y-91178200D03*
X144845550Y-91678200D03*
X144845550Y-92178200D03*
X144845550Y-92678200D03*
X144845550Y-93178200D03*
X144845550Y-93678200D03*
X144845550Y-94178200D03*
X144845550Y-94678200D03*
D33*
X146758050Y-96590700D03*
X147258050Y-96590700D03*
X147758050Y-96590700D03*
X148258050Y-96590700D03*
X148758050Y-96590700D03*
X149258050Y-96590700D03*
X149758050Y-96590700D03*
X150258050Y-96590700D03*
X150758050Y-96590700D03*
X151258050Y-96590700D03*
X151758050Y-96590700D03*
X152258050Y-96590700D03*
X152758050Y-96590700D03*
X153258050Y-96590700D03*
X153758050Y-96590700D03*
X154258050Y-96590700D03*
X154758050Y-96590700D03*
X155258050Y-96590700D03*
X155758050Y-96590700D03*
X156258050Y-96590700D03*
X156758050Y-96590700D03*
X157258050Y-96590700D03*
X157758050Y-96590700D03*
X158258050Y-96590700D03*
X158758050Y-96590700D03*
X159258050Y-96590700D03*
X159758050Y-96590700D03*
X160258050Y-96590700D03*
X160758050Y-96590700D03*
X161258050Y-96590700D03*
X161758050Y-96590700D03*
X162258050Y-96590700D03*
X162758050Y-96590700D03*
X163258050Y-96590700D03*
X163758050Y-96590700D03*
X164258050Y-96590700D03*
D32*
X166170550Y-94678200D03*
X166170550Y-94178200D03*
X166170550Y-93678200D03*
X166170550Y-93178200D03*
X166170550Y-92678200D03*
X166170550Y-92178200D03*
X166170550Y-91678200D03*
X166170550Y-91178200D03*
X166170550Y-90678200D03*
X166170550Y-90178200D03*
X166170550Y-89678200D03*
X166170550Y-89178200D03*
X166170550Y-88678200D03*
X166170550Y-88178200D03*
X166170550Y-87678200D03*
X166170550Y-87178200D03*
X166170550Y-86678200D03*
X166170550Y-86178200D03*
X166170550Y-85678200D03*
X166170550Y-85178200D03*
X166170550Y-84678200D03*
X166170550Y-84178200D03*
X166170550Y-83678200D03*
X166170550Y-83178200D03*
X166170550Y-82678200D03*
X166170550Y-82178200D03*
X166170550Y-81678200D03*
X166170550Y-81178200D03*
X166170550Y-80678200D03*
X166170550Y-80178200D03*
X166170550Y-79678200D03*
X166170550Y-79178200D03*
X166170550Y-78678200D03*
X166170550Y-78178200D03*
X166170550Y-77678200D03*
X166170550Y-77178200D03*
D33*
X164258050Y-75265700D03*
X163758050Y-75265700D03*
X163258050Y-75265700D03*
X162758050Y-75265700D03*
X162258050Y-75265700D03*
X161758050Y-75265700D03*
X161258050Y-75265700D03*
X160758050Y-75265700D03*
X160258050Y-75265700D03*
X159758050Y-75265700D03*
X159258050Y-75265700D03*
X158758050Y-75265700D03*
X158258050Y-75265700D03*
X157758050Y-75265700D03*
X157258050Y-75265700D03*
X156758050Y-75265700D03*
X156258050Y-75265700D03*
X155758050Y-75265700D03*
X155258050Y-75265700D03*
X154758050Y-75265700D03*
X154258050Y-75265700D03*
X153758050Y-75265700D03*
X153258050Y-75265700D03*
X152758050Y-75265700D03*
X152258050Y-75265700D03*
X151758050Y-75265700D03*
X151258050Y-75265700D03*
X150758050Y-75265700D03*
X150258050Y-75265700D03*
X149758050Y-75265700D03*
X149258050Y-75265700D03*
X148758050Y-75265700D03*
X148258050Y-75265700D03*
X147758050Y-75265700D03*
X147258050Y-75265700D03*
X146758050Y-75265700D03*
G04 #@! TD*
D34*
G04 #@! TO.C,Y2*
X141554200Y-79273400D03*
X141554200Y-81661000D03*
G04 #@! TD*
D35*
G04 #@! TO.C,D1*
X174904400Y-85191400D03*
X174904400Y-81991400D03*
G04 #@! TD*
D18*
G04 #@! TO.C,Q2*
X131343400Y-70660500D03*
X133243400Y-70660500D03*
X132293400Y-68785500D03*
G04 #@! TD*
D12*
G04 #@! TO.C,C27*
X134413600Y-90707501D03*
X134413600Y-89572501D03*
G04 #@! TD*
G04 #@! TO.C,C22*
X138293251Y-97229600D03*
X138293251Y-96094600D03*
G04 #@! TD*
D11*
G04 #@! TO.C,C37*
X141732500Y-89550000D03*
X142867500Y-89550000D03*
G04 #@! TD*
D14*
G04 #@! TO.C,R53*
X132335800Y-61036200D03*
X131140800Y-61036200D03*
G04 #@! TD*
D36*
G04 #@! TO.C,C14*
X166229950Y-122505300D03*
X166229950Y-124230300D03*
G04 #@! TD*
D13*
G04 #@! TO.C,R56*
X138743800Y-73268200D03*
X139938800Y-73268200D03*
G04 #@! TD*
D17*
G04 #@! TO.C,R68*
X176530000Y-74713500D03*
X176530000Y-75908500D03*
G04 #@! TD*
D20*
G04 #@! TO.C,D8*
X127212200Y-74523600D03*
X125162200Y-74523600D03*
G04 #@! TD*
D14*
G04 #@! TO.C,R18*
X161887500Y-102641400D03*
X160692500Y-102641400D03*
G04 #@! TD*
D30*
G04 #@! TO.C,U2*
X152400000Y-64857400D03*
X153670000Y-64857400D03*
X154940000Y-64857400D03*
X156210000Y-64857400D03*
X156210000Y-59907400D03*
X154940000Y-59907400D03*
X153670000Y-59907400D03*
X152400000Y-59907400D03*
G04 #@! TD*
D13*
G04 #@! TO.C,R14*
X167588000Y-106172000D03*
X168783000Y-106172000D03*
G04 #@! TD*
D37*
G04 #@! TO.C,J15*
X142691800Y-56589200D03*
X143941800Y-56589200D03*
X145191800Y-56589200D03*
D38*
X140341800Y-53289200D03*
X147541800Y-53289200D03*
G04 #@! TD*
D14*
G04 #@! TO.C,R58*
X139938800Y-72226800D03*
X138743800Y-72226800D03*
G04 #@! TD*
D20*
G04 #@! TO.C,D10*
X127212200Y-76809600D03*
X125162200Y-76809600D03*
G04 #@! TD*
D17*
G04 #@! TO.C,R20*
X149860000Y-68744500D03*
X149860000Y-69939500D03*
G04 #@! TD*
D20*
G04 #@! TO.C,D5*
X127212200Y-69951600D03*
X125162200Y-69951600D03*
G04 #@! TD*
D14*
G04 #@! TO.C,R52*
X136485600Y-72237600D03*
X135290600Y-72237600D03*
G04 #@! TD*
D39*
G04 #@! TO.C,J17*
X163748000Y-107694600D03*
X163748000Y-109194600D03*
X163748000Y-110694600D03*
D29*
X161698000Y-112744600D03*
X161698000Y-105644600D03*
G04 #@! TD*
D13*
G04 #@! TO.C,R10*
X144077500Y-100975000D03*
X145272500Y-100975000D03*
G04 #@! TD*
D40*
G04 #@! TO.C,C13*
X163830000Y-121765800D03*
X163830000Y-124715800D03*
G04 #@! TD*
D17*
G04 #@! TO.C,R61*
X128600200Y-73926100D03*
X128600200Y-75121100D03*
G04 #@! TD*
D20*
G04 #@! TO.C,D4*
X127212200Y-65303400D03*
X125162200Y-65303400D03*
G04 #@! TD*
D14*
G04 #@! TO.C,R41*
X132335200Y-55956200D03*
X131140200Y-55956200D03*
G04 #@! TD*
G04 #@! TO.C,R27*
X132347300Y-66268600D03*
X131152300Y-66268600D03*
G04 #@! TD*
D41*
G04 #@! TO.C,C23*
X136709200Y-97699600D03*
X136709200Y-95624600D03*
G04 #@! TD*
D11*
G04 #@! TO.C,C45*
X167876600Y-69977000D03*
X169011600Y-69977000D03*
G04 #@! TD*
D20*
G04 #@! TO.C,D7*
X127212200Y-60680600D03*
X125162200Y-60680600D03*
G04 #@! TD*
D42*
G04 #@! TO.C,J25*
X178096800Y-79988000D03*
X178096800Y-79338000D03*
X178096800Y-78688000D03*
X178096800Y-78038000D03*
X178096800Y-77388000D03*
D43*
X180771800Y-77688000D03*
D44*
X180771800Y-75488000D03*
D43*
X180771800Y-79688000D03*
D44*
X180771800Y-81888000D03*
G04 #@! TD*
D45*
G04 #@! TO.C,J24*
X164090100Y-67343100D03*
X165190100Y-67343100D03*
X166290100Y-67343100D03*
X167390100Y-67343100D03*
X168490100Y-67343100D03*
X169590100Y-67343100D03*
X170690100Y-67343100D03*
X171790100Y-67343100D03*
D46*
X173690100Y-63043100D03*
D47*
X173690100Y-52693100D03*
D48*
X160190100Y-52243100D03*
D46*
X162540100Y-67343100D03*
D49*
X173690100Y-56843100D03*
D45*
X172740100Y-67343100D03*
G04 #@! TD*
D11*
G04 #@! TO.C,C4*
X177681000Y-131800000D03*
X178816000Y-131800000D03*
G04 #@! TD*
D50*
G04 #@! TO.C,J22*
X137687900Y-102996200D03*
X137687900Y-104246200D03*
X137687900Y-105496200D03*
X137687900Y-106746200D03*
X137687900Y-107996200D03*
X137687900Y-109246200D03*
D51*
X134987900Y-100646200D03*
X134987900Y-111596200D03*
G04 #@! TD*
D29*
G04 #@! TO.C,SW2*
X137831500Y-53390800D03*
X131131500Y-53390800D03*
G04 #@! TD*
D17*
G04 #@! TO.C,R66*
X128600200Y-67017300D03*
X128600200Y-68212300D03*
G04 #@! TD*
D29*
G04 #@! TO.C,SW1*
X137843000Y-63804800D03*
X131143000Y-63804800D03*
G04 #@! TD*
D16*
G04 #@! TO.C,C44*
X139868550Y-80975200D03*
X138733550Y-80975200D03*
G04 #@! TD*
D27*
G04 #@! TO.C,C5*
X143714300Y-67949700D03*
X145439300Y-67949700D03*
G04 #@! TD*
D52*
G04 #@! TO.C,U3*
X159461600Y-124194600D03*
X159461600Y-121894600D03*
D53*
X153161600Y-121894600D03*
D52*
X159461600Y-119594600D03*
G04 #@! TD*
D15*
G04 #@! TO.C,R33*
X172720000Y-72821800D03*
X172720000Y-71626800D03*
G04 #@! TD*
D17*
G04 #@! TO.C,R46*
X128600200Y-71626800D03*
X128600200Y-72821800D03*
G04 #@! TD*
D15*
G04 #@! TO.C,R2*
X157632400Y-65621500D03*
X157632400Y-64426500D03*
G04 #@! TD*
D11*
G04 #@! TO.C,C38*
X157894400Y-73710800D03*
X159029400Y-73710800D03*
G04 #@! TD*
D17*
G04 #@! TO.C,R36*
X171678600Y-71626800D03*
X171678600Y-72821800D03*
G04 #@! TD*
D50*
G04 #@! TO.C,J21*
X137619400Y-117454200D03*
X137619400Y-118704200D03*
X137619400Y-119954200D03*
X137619400Y-121204200D03*
D51*
X134919400Y-115204200D03*
X134919400Y-123454200D03*
G04 #@! TD*
D17*
G04 #@! TO.C,R59*
X128828800Y-79780200D03*
X128828800Y-80975200D03*
G04 #@! TD*
D54*
G04 #@! TO.C,C12*
X162712400Y-117373400D03*
X165837400Y-117373400D03*
G04 #@! TD*
D55*
G04 #@! TO.C,C11*
X164437400Y-119405400D03*
X162712400Y-119405400D03*
G04 #@! TD*
D18*
G04 #@! TO.C,Q7*
X134559000Y-77530050D03*
X136459000Y-77530050D03*
X135509000Y-75655050D03*
G04 #@! TD*
D15*
G04 #@! TO.C,R8*
X141326599Y-99330000D03*
X141326599Y-98135000D03*
G04 #@! TD*
D14*
G04 #@! TO.C,R11*
X161836700Y-101142800D03*
X160641700Y-101142800D03*
G04 #@! TD*
G04 #@! TO.C,R45*
X132891850Y-72237600D03*
X131696850Y-72237600D03*
G04 #@! TD*
D17*
G04 #@! TO.C,R39*
X157759400Y-70497100D03*
X157759400Y-71692100D03*
G04 #@! TD*
D35*
G04 #@! TO.C,D2*
X131114800Y-115722600D03*
X131114800Y-118922600D03*
G04 #@! TD*
D17*
G04 #@! TO.C,R44*
X128828800Y-86092700D03*
X128828800Y-87287700D03*
G04 #@! TD*
D20*
G04 #@! TO.C,D3*
X127212200Y-72224300D03*
X125162200Y-72224300D03*
G04 #@! TD*
D17*
G04 #@! TO.C,R55*
X128600200Y-62394500D03*
X128600200Y-63589500D03*
G04 #@! TD*
D37*
G04 #@! TO.C,J16*
X152445400Y-56589200D03*
X153695400Y-56589200D03*
X154945400Y-56589200D03*
D38*
X150095400Y-53289200D03*
X157295400Y-53289200D03*
G04 #@! TD*
D14*
G04 #@! TO.C,R31*
X161176300Y-71196200D03*
X159981300Y-71196200D03*
G04 #@! TD*
D20*
G04 #@! TO.C,D6*
X127212200Y-62992000D03*
X125162200Y-62992000D03*
G04 #@! TD*
D15*
G04 #@! TO.C,R9*
X140234399Y-99330000D03*
X140234399Y-98135000D03*
G04 #@! TD*
D56*
G04 #@! TO.C,U4*
X152650063Y-110582299D03*
X152149937Y-110582299D03*
D57*
X151565099Y-110917074D03*
X151565099Y-111417200D03*
X151565099Y-111917326D03*
D56*
X152149937Y-112252101D03*
X152650063Y-112252101D03*
D57*
X153234901Y-111917326D03*
X153234901Y-111417200D03*
X153234901Y-110917074D03*
G04 #@! TD*
D50*
G04 #@! TO.C,J19*
X127287000Y-120039600D03*
X127287000Y-121289600D03*
X127287000Y-122539600D03*
X127287000Y-123789600D03*
X127287000Y-125039600D03*
X127287000Y-126289600D03*
D51*
X124587000Y-117689600D03*
X124587000Y-128639600D03*
G04 #@! TD*
D12*
G04 #@! TO.C,C40*
X141097000Y-84997100D03*
X141097000Y-83862100D03*
G04 #@! TD*
D28*
G04 #@! TO.C,C18*
X157636400Y-110163700D03*
X157636400Y-112238700D03*
G04 #@! TD*
D13*
G04 #@! TO.C,R25*
X170737600Y-82118200D03*
X171932600Y-82118200D03*
G04 #@! TD*
D17*
G04 #@! TO.C,R3*
X141224000Y-63105700D03*
X141224000Y-64300700D03*
G04 #@! TD*
D10*
G04 #@! TO.C,C16*
X155985400Y-110595700D03*
X155985400Y-111730700D03*
G04 #@! TD*
D16*
G04 #@! TO.C,C47*
X138413300Y-55956200D03*
X137278300Y-55956200D03*
G04 #@! TD*
D18*
G04 #@! TO.C,Q5*
X137795000Y-70660500D03*
X139695000Y-70660500D03*
X138745000Y-68785500D03*
G04 #@! TD*
M02*
