M48
INCH,TZ
T1C0.0157
T2C0.0236
T3C0.0335
T4C0.0394
T5C0.0402
T6C0.0512
T7C0.1260
%
G90
G05
T1
X48810Y-29340
X48810Y-30240
X48820Y-23890
X48820Y-25700
X48820Y-26610
X48820Y-27530
X48820Y-33880
X48830Y-24790
X48830Y-28415
X48840Y-31410
X48840Y-32660
X49560Y-32250
X49560Y-33510
X49580Y-31020
X50502Y-51900
X50510Y-23100
X50790Y-49750
X50800Y-49250
X51010Y-24460
X51010Y-25720
X51010Y-26420
X51020Y-23800
X51030Y-29270
X51040Y-27330
X51040Y-28310
X51070Y-30100
X51150Y-31030
X51150Y-32250
X51300Y-48250
X51300Y-48740
X51480Y-28840
X51510Y-33920
X51530Y-34350
X51550Y-33120
X51610Y-32660
X51870Y-31950
X51930Y-29270
X52100Y-26520
X52350Y-31950
X52480Y-30005
X52484Y-27281
X52810Y-28420
X52870Y-28830
X52919Y-36110
X52969Y-36570
X53080Y-31930
X53350Y-29250
X53369Y-36770
X53370Y-26500
X53430Y-22000
X53470Y-26090
X53480Y-24040
X53550Y-31920
X53764Y-27281
X53790Y-29985
X54140Y-28430
X54230Y-31440
X54240Y-31890
X54260Y-28840
X54416Y-37453
X54446Y-38703
X54620Y-26470
X54810Y-43030
X54810Y-46740
X54810Y-47250
X54860Y-47720
X54890Y-24020
X54895Y-26055
X54900Y-22000
X54900Y-41010
X54900Y-41490
X54910Y-42000
X55020Y-24520
X55024Y-27291
X55050Y-25100
X55150Y-29250
X55170Y-33460
X55180Y-33020
X55340Y-23170
X55413Y-35285
X55580Y-25700
X55644Y-37544
X55650Y-37077
X55748Y-35728
X55758Y-27677
X55758Y-28071
X55758Y-36191
X55837Y-44665
X55950Y-29900
X55950Y-30400
X56050Y-38250
X56130Y-26740
X56170Y-22880
X56200Y-37450
X56310Y-26260
X56457Y-44656
X56673Y-29400
X57156Y-43642
X57156Y-44695
X57223Y-29400
X57350Y-28050
X57350Y-38440
X57520Y-26260
X57520Y-42080
X57549Y-40138
X57550Y-44250
X57580Y-41520
X57660Y-30300
X57670Y-31330
X57700Y-32230
X57710Y-26750
X57710Y-33110
X57730Y-42670
X57810Y-32610
X57940Y-30560
X58040Y-30960
X58050Y-43050
X58110Y-44620
X58190Y-35070
X58270Y-38680
X58410Y-30380
X58540Y-40500
X58540Y-40940
X58600Y-47480
X58600Y-47980
X58600Y-48480
X58650Y-44530
X59030Y-27950
X59040Y-25690
X59100Y-47480
X59100Y-47980
X59100Y-48480
X59168Y-43539
X59180Y-44580
X59370Y-22950
X59650Y-30390
X59650Y-42400
X59760Y-44572
X59807Y-28840
X59890Y-37420
X59970Y-26750
X60020Y-22890
X60160Y-26250
X60260Y-44572
X60383Y-39396
X60390Y-28630
X60450Y-42400
X60620Y-27570
X60720Y-42030
X60750Y-44550
X60843Y-39386
X60895Y-30355
X61170Y-47480
X61170Y-47980
X61170Y-48480
X61280Y-39040
X61310Y-27580
X61350Y-26240
X61389Y-44400
X61390Y-42700
X61422Y-43162
X61540Y-38680
X61550Y-26760
X61610Y-28630
X61650Y-30210
X61670Y-47480
X61670Y-47980
X61670Y-48480
X61770Y-29010
X61790Y-37170
X61800Y-39040
X62060Y-30330
X62200Y-37420
X62270Y-39430
X62410Y-26450
X62510Y-20490
X62530Y-27170
X62540Y-30480
X62630Y-28020
X62750Y-39450
X62970Y-29020
X63010Y-30380
X63090Y-38660
X63350Y-39040
X63650Y-39310
X63820Y-28827
X63840Y-30380
X63980Y-26940
X64000Y-27630
X64018Y-38710
X64390Y-39150
X64440Y-27090
X64790Y-28540
X64830Y-32550
X65050Y-40730
X65138Y-39325
X65180Y-28880
X65210Y-47030
X65260Y-38970
X65370Y-29430
X65390Y-37767
X65445Y-47800
X65450Y-49350
X65520Y-28050
X65577Y-41340
X65605Y-41790
X65610Y-43610
X65630Y-43020
X65720Y-27540
X65800Y-38760
X65810Y-46220
X65940Y-29540
X66060Y-39510
X66090Y-32740
X66100Y-33950
X66270Y-39950
X66290Y-32030
X66330Y-27020
X66380Y-29560
X66410Y-38650
X66460Y-40980
X66460Y-42170
X66560Y-44150
X66660Y-44610
X66670Y-32230
X66740Y-39000
X66810Y-29520
X66910Y-27560
X67040Y-28600
X67100Y-28050
X67140Y-35010
X67150Y-35470
X67400Y-29950
X67520Y-44150
X67520Y-44700
X68010Y-27815
X68050Y-29150
X68070Y-32350
X68230Y-27100
X68850Y-20690
X68885Y-29685
X68890Y-27490
X69020Y-25530
X69120Y-24030
X69150Y-30250
X69587Y-51890
X71230Y-23140
T3
X70107Y-29995
X70107Y-31964
T4
X49850Y-35484
X49850Y-36484
X49850Y-37484
X49850Y-38484
X49850Y-39484
X49850Y-40484
X49850Y-41484
X49850Y-42484
X49850Y-43484
X49850Y-44484
X50850Y-35484
X50850Y-36484
X50850Y-37484
X50850Y-38484
X50850Y-39484
X50850Y-40484
X50850Y-41484
X50850Y-42484
X50850Y-43484
X50850Y-44484
X69176Y-36822
X69176Y-37822
X69176Y-38822
X69176Y-39822
X69176Y-40822
X69176Y-41822
X69176Y-42822
X69176Y-43822
X69176Y-44822
X69176Y-45822
X69176Y-46822
X69176Y-47822
X69176Y-48822
X69176Y-49822
X69176Y-50822
X70052Y-25544
X70052Y-26544
X70052Y-27544
X70176Y-33822
X70176Y-34822
X70176Y-35822
X70176Y-36822
X70176Y-37822
X70176Y-38822
X70176Y-39822
X70176Y-40822
X70176Y-41822
X70176Y-42822
X70176Y-43822
X70176Y-44822
X70176Y-45822
X70176Y-46822
X70176Y-47822
X70176Y-48822
X70176Y-49822
X70176Y-50822
X71052Y-25544
X71052Y-26544
X71052Y-27544
T5
X51827Y-51660
X51827Y-52660
X51827Y-53660
X52827Y-51660
X52827Y-52660
X52827Y-53660
X53827Y-51660
X53827Y-52660
X53827Y-53660
X54827Y-51660
X54827Y-52660
X54827Y-53660
X55827Y-51660
X55827Y-52660
X55827Y-53660
X56827Y-51660
X56827Y-52660
X56827Y-53660
X57827Y-51660
X57827Y-52660
X57827Y-53660
X58827Y-51660
X58827Y-52660
X58827Y-53660
X60700Y-51659
X60700Y-52659
X60700Y-53659
X61700Y-51659
X61700Y-52659
X61700Y-53659
X62700Y-51659
X62700Y-52659
X62700Y-53659
X63700Y-51659
X63700Y-52659
X63700Y-53659
T6
X65593Y-53490
X67561Y-53490
T7
X49695Y-21410
X49695Y-53890
X70403Y-21410
X70403Y-53890
T2
G00X71032Y-29602
M15
G01X71308Y-29602
M16
G05
G00X71032Y-32357
M15
G01X71308Y-32357
M16
G05
T0
M30
