G04 #@! TF.GenerationSoftware,KiCad,Pcbnew,6.0.11-2627ca5db0~126~ubuntu20.04.1*
G04 #@! TF.CreationDate,2023-09-04T21:17:00-03:00*
G04 #@! TF.ProjectId,Drone FCC,44726f6e-6520-4464-9343-2e6b69636164,rev?*
G04 #@! TF.SameCoordinates,Original*
G04 #@! TF.FileFunction,Copper,L1,Top*
G04 #@! TF.FilePolarity,Positive*
%FSLAX46Y46*%
G04 Gerber Fmt 4.6, Leading zero omitted, Abs format (unit mm)*
G04 Created by KiCad (PCBNEW 6.0.11-2627ca5db0~126~ubuntu20.04.1) date 2023-09-04 21:17:00*
%MOMM*%
%LPD*%
G01*
G04 APERTURE LIST*
G04 Aperture macros list*
%AMRoundRect*
0 Rectangle with rounded corners*
0 $1 Rounding radius*
0 $2 $3 $4 $5 $6 $7 $8 $9 X,Y pos of 4 corners*
0 Add a 4 corners polygon primitive as box body*
4,1,4,$2,$3,$4,$5,$6,$7,$8,$9,$2,$3,0*
0 Add four circle primitives for the rounded corners*
1,1,$1+$1,$2,$3*
1,1,$1+$1,$4,$5*
1,1,$1+$1,$6,$7*
1,1,$1+$1,$8,$9*
0 Add four rect primitives between the rounded corners*
20,1,$1+$1,$2,$3,$4,$5,0*
20,1,$1+$1,$4,$5,$6,$7,0*
20,1,$1+$1,$6,$7,$8,$9,0*
20,1,$1+$1,$8,$9,$2,$3,0*%
G04 Aperture macros list end*
G04 #@! TA.AperFunction,SMDPad,CuDef*
%ADD10RoundRect,0.075000X-0.662500X-0.075000X0.662500X-0.075000X0.662500X0.075000X-0.662500X0.075000X0*%
G04 #@! TD*
G04 #@! TA.AperFunction,SMDPad,CuDef*
%ADD11RoundRect,0.075000X-0.075000X-0.662500X0.075000X-0.662500X0.075000X0.662500X-0.075000X0.662500X0*%
G04 #@! TD*
G04 #@! TA.AperFunction,SMDPad,CuDef*
%ADD12RoundRect,0.155000X-0.155000X0.212500X-0.155000X-0.212500X0.155000X-0.212500X0.155000X0.212500X0*%
G04 #@! TD*
G04 #@! TA.AperFunction,SMDPad,CuDef*
%ADD13RoundRect,0.155000X-0.212500X-0.155000X0.212500X-0.155000X0.212500X0.155000X-0.212500X0.155000X0*%
G04 #@! TD*
G04 #@! TA.AperFunction,SMDPad,CuDef*
%ADD14RoundRect,0.155000X0.155000X-0.212500X0.155000X0.212500X-0.155000X0.212500X-0.155000X-0.212500X0*%
G04 #@! TD*
G04 #@! TA.AperFunction,SMDPad,CuDef*
%ADD15RoundRect,0.160000X-0.197500X-0.160000X0.197500X-0.160000X0.197500X0.160000X-0.197500X0.160000X0*%
G04 #@! TD*
G04 #@! TA.AperFunction,SMDPad,CuDef*
%ADD16RoundRect,0.160000X0.197500X0.160000X-0.197500X0.160000X-0.197500X-0.160000X0.197500X-0.160000X0*%
G04 #@! TD*
G04 #@! TA.AperFunction,SMDPad,CuDef*
%ADD17RoundRect,0.160000X0.160000X-0.197500X0.160000X0.197500X-0.160000X0.197500X-0.160000X-0.197500X0*%
G04 #@! TD*
G04 #@! TA.AperFunction,SMDPad,CuDef*
%ADD18RoundRect,0.155000X0.212500X0.155000X-0.212500X0.155000X-0.212500X-0.155000X0.212500X-0.155000X0*%
G04 #@! TD*
G04 #@! TA.AperFunction,SMDPad,CuDef*
%ADD19RoundRect,0.160000X-0.160000X0.197500X-0.160000X-0.197500X0.160000X-0.197500X0.160000X0.197500X0*%
G04 #@! TD*
G04 #@! TA.AperFunction,SMDPad,CuDef*
%ADD20RoundRect,0.150000X0.150000X-0.587500X0.150000X0.587500X-0.150000X0.587500X-0.150000X-0.587500X0*%
G04 #@! TD*
G04 #@! TA.AperFunction,SMDPad,CuDef*
%ADD21RoundRect,0.150000X0.587500X0.150000X-0.587500X0.150000X-0.587500X-0.150000X0.587500X-0.150000X0*%
G04 #@! TD*
G04 #@! TA.AperFunction,ComponentPad*
%ADD22C,1.370000*%
G04 #@! TD*
G04 #@! TA.AperFunction,ComponentPad*
%ADD23R,1.370000X1.370000*%
G04 #@! TD*
G04 #@! TA.AperFunction,ComponentPad*
%ADD24R,1.700000X1.700000*%
G04 #@! TD*
G04 #@! TA.AperFunction,ComponentPad*
%ADD25O,1.700000X1.700000*%
G04 #@! TD*
G04 #@! TA.AperFunction,SMDPad,CuDef*
%ADD26RoundRect,0.250000X0.325000X0.450000X-0.325000X0.450000X-0.325000X-0.450000X0.325000X-0.450000X0*%
G04 #@! TD*
G04 #@! TA.AperFunction,SMDPad,CuDef*
%ADD27RoundRect,0.031500X-0.143500X0.263500X-0.143500X-0.263500X0.143500X-0.263500X0.143500X0.263500X0*%
G04 #@! TD*
G04 #@! TA.AperFunction,SMDPad,CuDef*
%ADD28RoundRect,0.031500X-0.263500X-0.143500X0.263500X-0.143500X0.263500X0.143500X-0.263500X0.143500X0*%
G04 #@! TD*
G04 #@! TA.AperFunction,SMDPad,CuDef*
%ADD29RoundRect,0.031500X0.143500X-0.263500X0.143500X0.263500X-0.143500X0.263500X-0.143500X-0.263500X0*%
G04 #@! TD*
G04 #@! TA.AperFunction,SMDPad,CuDef*
%ADD30RoundRect,0.031500X0.263500X0.143500X-0.263500X0.143500X-0.263500X-0.143500X0.263500X-0.143500X0*%
G04 #@! TD*
G04 #@! TA.AperFunction,SMDPad,CuDef*
%ADD31R,1.000000X1.500000*%
G04 #@! TD*
G04 #@! TA.AperFunction,SMDPad,CuDef*
%ADD32RoundRect,0.150000X0.512500X0.150000X-0.512500X0.150000X-0.512500X-0.150000X0.512500X-0.150000X0*%
G04 #@! TD*
G04 #@! TA.AperFunction,SMDPad,CuDef*
%ADD33RoundRect,0.237500X0.300000X0.237500X-0.300000X0.237500X-0.300000X-0.237500X0.300000X-0.237500X0*%
G04 #@! TD*
G04 #@! TA.AperFunction,SMDPad,CuDef*
%ADD34RoundRect,0.237500X-0.300000X-0.237500X0.300000X-0.237500X0.300000X0.237500X-0.300000X0.237500X0*%
G04 #@! TD*
G04 #@! TA.AperFunction,SMDPad,CuDef*
%ADD35RoundRect,0.250000X-0.475000X0.337500X-0.475000X-0.337500X0.475000X-0.337500X0.475000X0.337500X0*%
G04 #@! TD*
G04 #@! TA.AperFunction,ComponentPad*
%ADD36C,3.600000*%
G04 #@! TD*
G04 #@! TA.AperFunction,ConnectorPad*
%ADD37C,6.400000*%
G04 #@! TD*
G04 #@! TA.AperFunction,ComponentPad*
%ADD38R,1.950000X1.950000*%
G04 #@! TD*
G04 #@! TA.AperFunction,ComponentPad*
%ADD39C,1.950000*%
G04 #@! TD*
G04 #@! TA.AperFunction,SMDPad,CuDef*
%ADD40R,2.300000X1.500000*%
G04 #@! TD*
G04 #@! TA.AperFunction,SMDPad,CuDef*
%ADD41RoundRect,0.150000X0.150000X-0.825000X0.150000X0.825000X-0.150000X0.825000X-0.150000X-0.825000X0*%
G04 #@! TD*
G04 #@! TA.AperFunction,SMDPad,CuDef*
%ADD42R,1.100000X1.300000*%
G04 #@! TD*
G04 #@! TA.AperFunction,SMDPad,CuDef*
%ADD43R,1.295400X0.609600*%
G04 #@! TD*
G04 #@! TA.AperFunction,SMDPad,CuDef*
%ADD44R,1.080000X0.920000*%
G04 #@! TD*
G04 #@! TA.AperFunction,SMDPad,CuDef*
%ADD45RoundRect,0.237500X-0.237500X0.300000X-0.237500X-0.300000X0.237500X-0.300000X0.237500X0.300000X0*%
G04 #@! TD*
G04 #@! TA.AperFunction,SMDPad,CuDef*
%ADD46R,0.700000X1.800000*%
G04 #@! TD*
G04 #@! TA.AperFunction,SMDPad,CuDef*
%ADD47R,1.600000X2.200000*%
G04 #@! TD*
G04 #@! TA.AperFunction,SMDPad,CuDef*
%ADD48R,3.600000X0.700000*%
G04 #@! TD*
G04 #@! TA.AperFunction,SMDPad,CuDef*
%ADD49R,1.820000X1.160000*%
G04 #@! TD*
G04 #@! TA.AperFunction,SMDPad,CuDef*
%ADD50RoundRect,0.250000X0.475000X-0.337500X0.475000X0.337500X-0.475000X0.337500X-0.475000X-0.337500X0*%
G04 #@! TD*
G04 #@! TA.AperFunction,SMDPad,CuDef*
%ADD51R,1.350000X0.400000*%
G04 #@! TD*
G04 #@! TA.AperFunction,ComponentPad*
%ADD52O,1.700000X1.000000*%
G04 #@! TD*
G04 #@! TA.AperFunction,SMDPad,CuDef*
%ADD53R,1.900000X1.500000*%
G04 #@! TD*
G04 #@! TA.AperFunction,SMDPad,CuDef*
%ADD54R,1.900000X1.800000*%
G04 #@! TD*
G04 #@! TA.AperFunction,ComponentPad*
%ADD55C,1.450000*%
G04 #@! TD*
G04 #@! TA.AperFunction,SMDPad,CuDef*
%ADD56R,0.700000X1.200000*%
G04 #@! TD*
G04 #@! TA.AperFunction,SMDPad,CuDef*
%ADD57R,1.000000X1.200000*%
G04 #@! TD*
G04 #@! TA.AperFunction,SMDPad,CuDef*
%ADD58R,1.000000X2.800000*%
G04 #@! TD*
G04 #@! TA.AperFunction,SMDPad,CuDef*
%ADD59R,1.300000X1.900000*%
G04 #@! TD*
G04 #@! TA.AperFunction,SMDPad,CuDef*
%ADD60R,1.000000X0.800000*%
G04 #@! TD*
G04 #@! TA.AperFunction,SMDPad,CuDef*
%ADD61R,1.800000X0.700000*%
G04 #@! TD*
G04 #@! TA.AperFunction,SMDPad,CuDef*
%ADD62R,2.200000X1.600000*%
G04 #@! TD*
G04 #@! TA.AperFunction,SMDPad,CuDef*
%ADD63R,2.000000X1.500000*%
G04 #@! TD*
G04 #@! TA.AperFunction,SMDPad,CuDef*
%ADD64R,2.000000X3.800000*%
G04 #@! TD*
G04 #@! TA.AperFunction,SMDPad,CuDef*
%ADD65RoundRect,0.250000X-0.412500X-0.650000X0.412500X-0.650000X0.412500X0.650000X-0.412500X0.650000X0*%
G04 #@! TD*
G04 #@! TA.AperFunction,SMDPad,CuDef*
%ADD66R,0.304800X0.330200*%
G04 #@! TD*
G04 #@! TA.AperFunction,SMDPad,CuDef*
%ADD67R,0.330200X0.304800*%
G04 #@! TD*
G04 #@! TA.AperFunction,ViaPad*
%ADD68C,0.800000*%
G04 #@! TD*
G04 #@! TA.AperFunction,Conductor*
%ADD69C,0.200000*%
G04 #@! TD*
G04 #@! TA.AperFunction,Conductor*
%ADD70C,0.600000*%
G04 #@! TD*
G04 #@! TA.AperFunction,Conductor*
%ADD71C,2.000000*%
G04 #@! TD*
G04 #@! TA.AperFunction,Conductor*
%ADD72C,0.254000*%
G04 #@! TD*
G04 #@! TA.AperFunction,Conductor*
%ADD73C,0.500000*%
G04 #@! TD*
G04 APERTURE END LIST*
D10*
G04 #@! TO.P,U6,1,PE2*
G04 #@! TO.N,/Interfaz_CAN/CAN1_MODE*
X144845550Y-77178200D03*
G04 #@! TO.P,U6,2,PE3*
G04 #@! TO.N,/Leds indicadores + pulsadores/LED2*
X144845550Y-77678200D03*
G04 #@! TO.P,U6,3,PE4*
G04 #@! TO.N,/Leds indicadores + pulsadores/LED1*
X144845550Y-78178200D03*
G04 #@! TO.P,U6,4,PE5*
G04 #@! TO.N,/Leds indicadores + pulsadores/LED7*
X144845550Y-78678200D03*
G04 #@! TO.P,U6,5,PE6*
G04 #@! TO.N,/Leds indicadores + pulsadores/LED4*
X144845550Y-79178200D03*
G04 #@! TO.P,U6,6,VBAT*
G04 #@! TO.N,3V3*
X144845550Y-79678200D03*
G04 #@! TO.P,U6,7,PC13*
G04 #@! TO.N,unconnected-(U6-Pad7)*
X144845550Y-80178200D03*
G04 #@! TO.P,U6,8,PC14*
G04 #@! TO.N,/MCU/OSC32_IN*
X144845550Y-80678200D03*
G04 #@! TO.P,U6,9,PC15*
G04 #@! TO.N,/MCU/OSC32_OUT*
X144845550Y-81178200D03*
G04 #@! TO.P,U6,10,PF0*
G04 #@! TO.N,unconnected-(U6-Pad10)*
X144845550Y-81678200D03*
G04 #@! TO.P,U6,11,PF1*
G04 #@! TO.N,unconnected-(U6-Pad11)*
X144845550Y-82178200D03*
G04 #@! TO.P,U6,12,PF2*
G04 #@! TO.N,/Leds indicadores + pulsadores/LED6*
X144845550Y-82678200D03*
G04 #@! TO.P,U6,13,PF3*
G04 #@! TO.N,/Leds indicadores + pulsadores/LED8*
X144845550Y-83178200D03*
G04 #@! TO.P,U6,14,PF4*
G04 #@! TO.N,/Leds indicadores + pulsadores/LED5*
X144845550Y-83678200D03*
G04 #@! TO.P,U6,15,PF5*
G04 #@! TO.N,/Conexiones_extra/SPI_EOC*
X144845550Y-84178200D03*
G04 #@! TO.P,U6,16,VSS*
G04 #@! TO.N,GND*
X144845550Y-84678200D03*
G04 #@! TO.P,U6,17,VDD*
G04 #@! TO.N,3V3*
X144845550Y-85178200D03*
G04 #@! TO.P,U6,18,PF6*
G04 #@! TO.N,/Conexiones_extra/SPI_CS*
X144845550Y-85678200D03*
G04 #@! TO.P,U6,19,PF7*
G04 #@! TO.N,/Conexiones_extra/SPI_SCK*
X144845550Y-86178200D03*
G04 #@! TO.P,U6,20,PF8*
G04 #@! TO.N,/Conexiones_extra/SPI_MISO*
X144845550Y-86678200D03*
G04 #@! TO.P,U6,21,PF9*
G04 #@! TO.N,/Conexiones_extra/SPI_MOSI*
X144845550Y-87178200D03*
G04 #@! TO.P,U6,22,PF10*
G04 #@! TO.N,unconnected-(U6-Pad22)*
X144845550Y-87678200D03*
G04 #@! TO.P,U6,23,PH0*
G04 #@! TO.N,/MCU/OSC_IN*
X144845550Y-88178200D03*
G04 #@! TO.P,U6,24,PH1*
G04 #@! TO.N,/MCU/OSC_OUT*
X144845550Y-88678200D03*
G04 #@! TO.P,U6,25,NRST*
G04 #@! TO.N,/Debug/NRST*
X144845550Y-89178200D03*
G04 #@! TO.P,U6,26,PC0*
G04 #@! TO.N,unconnected-(U6-Pad26)*
X144845550Y-89678200D03*
G04 #@! TO.P,U6,27,PC1*
G04 #@! TO.N,unconnected-(U6-Pad27)*
X144845550Y-90178200D03*
G04 #@! TO.P,U6,28,PC2*
G04 #@! TO.N,unconnected-(U6-Pad28)*
X144845550Y-90678200D03*
G04 #@! TO.P,U6,29,PC3*
G04 #@! TO.N,unconnected-(U6-Pad29)*
X144845550Y-91178200D03*
G04 #@! TO.P,U6,30,VDD*
G04 #@! TO.N,3V3*
X144845550Y-91678200D03*
G04 #@! TO.P,U6,31,VSSA*
G04 #@! TO.N,GND*
X144845550Y-92178200D03*
G04 #@! TO.P,U6,32,VREF+*
G04 #@! TO.N,3V3*
X144845550Y-92678200D03*
G04 #@! TO.P,U6,33,VDDA*
X144845550Y-93178200D03*
G04 #@! TO.P,U6,34,PA0*
G04 #@! TO.N,/Sensores/GNSS_Tx*
X144845550Y-93678200D03*
G04 #@! TO.P,U6,35,PA1*
G04 #@! TO.N,/Sensores/GNSS_Rx*
X144845550Y-94178200D03*
G04 #@! TO.P,U6,36,PA2*
G04 #@! TO.N,/Sensores/GNSS_PPS*
X144845550Y-94678200D03*
D11*
G04 #@! TO.P,U6,37,PA3*
G04 #@! TO.N,/Alimentaci\u00F3n/I_MEAS*
X146758050Y-96590700D03*
G04 #@! TO.P,U6,38,VSS*
G04 #@! TO.N,GND*
X147258050Y-96590700D03*
G04 #@! TO.P,U6,39,VDD*
G04 #@! TO.N,3V3*
X147758050Y-96590700D03*
G04 #@! TO.P,U6,40,PA4*
G04 #@! TO.N,unconnected-(U6-Pad40)*
X148258050Y-96590700D03*
G04 #@! TO.P,U6,41,PA5*
G04 #@! TO.N,/Alimentaci\u00F3n/V_MEAS*
X148758050Y-96590700D03*
G04 #@! TO.P,U6,42,PA6*
G04 #@! TO.N,/MCU/TIM3_CH1*
X149258050Y-96590700D03*
G04 #@! TO.P,U6,43,PA7*
G04 #@! TO.N,/MCU/TIM3_CH2*
X149758050Y-96590700D03*
G04 #@! TO.P,U6,44,PC4*
G04 #@! TO.N,unconnected-(U6-Pad44)*
X150258050Y-96590700D03*
G04 #@! TO.P,U6,45,PC5*
G04 #@! TO.N,unconnected-(U6-Pad45)*
X150758050Y-96590700D03*
G04 #@! TO.P,U6,46,PB0*
G04 #@! TO.N,/MCU/TIM3_CH3*
X151258050Y-96590700D03*
G04 #@! TO.P,U6,47,PB1*
G04 #@! TO.N,/MCU/TIM3_CH4*
X151758050Y-96590700D03*
G04 #@! TO.P,U6,48,PB2*
G04 #@! TO.N,/Sensores/MAG_INT_DATA_RDY*
X152258050Y-96590700D03*
G04 #@! TO.P,U6,49,PF11*
G04 #@! TO.N,unconnected-(U6-Pad49)*
X152758050Y-96590700D03*
G04 #@! TO.P,U6,50,PF12*
G04 #@! TO.N,/MCU/PF12(EXTI12)*
X153258050Y-96590700D03*
G04 #@! TO.P,U6,51,VSS*
G04 #@! TO.N,GND*
X153758050Y-96590700D03*
G04 #@! TO.P,U6,52,VDD*
G04 #@! TO.N,3V3*
X154258050Y-96590700D03*
G04 #@! TO.P,U6,53,PF13*
G04 #@! TO.N,unconnected-(U6-Pad53)*
X154758050Y-96590700D03*
G04 #@! TO.P,U6,54,PF14*
G04 #@! TO.N,/Sensores/GNSS_SCL*
X155258050Y-96590700D03*
G04 #@! TO.P,U6,55,PF15*
G04 #@! TO.N,/Sensores/GNSS_SDA*
X155758050Y-96590700D03*
G04 #@! TO.P,U6,56,PG0*
G04 #@! TO.N,unconnected-(U6-Pad56)*
X156258050Y-96590700D03*
G04 #@! TO.P,U6,57,PG1*
G04 #@! TO.N,unconnected-(U6-Pad57)*
X156758050Y-96590700D03*
G04 #@! TO.P,U6,58,PE7*
G04 #@! TO.N,/Conexiones_extra/UARTA_RX*
X157258050Y-96590700D03*
G04 #@! TO.P,U6,59,PE8*
G04 #@! TO.N,/Conexiones_extra/UARTA_TX*
X157758050Y-96590700D03*
G04 #@! TO.P,U6,60,PE9*
G04 #@! TO.N,/MCU/TIM1_CH1*
X158258050Y-96590700D03*
G04 #@! TO.P,U6,61,VSS*
G04 #@! TO.N,GND*
X158758050Y-96590700D03*
G04 #@! TO.P,U6,62,VDD*
G04 #@! TO.N,3V3*
X159258050Y-96590700D03*
G04 #@! TO.P,U6,63,PE10*
G04 #@! TO.N,unconnected-(U6-Pad63)*
X159758050Y-96590700D03*
G04 #@! TO.P,U6,64,PE11*
G04 #@! TO.N,/MCU/TIM1_CH2*
X160258050Y-96590700D03*
G04 #@! TO.P,U6,65,PE12*
G04 #@! TO.N,unconnected-(U6-Pad65)*
X160758050Y-96590700D03*
G04 #@! TO.P,U6,66,PE13*
G04 #@! TO.N,/MCU/TIM1_CH3*
X161258050Y-96590700D03*
G04 #@! TO.P,U6,67,PE14*
G04 #@! TO.N,/MCU/TIM1_CH4*
X161758050Y-96590700D03*
G04 #@! TO.P,U6,68,PE15*
G04 #@! TO.N,unconnected-(U6-Pad68)*
X162258050Y-96590700D03*
G04 #@! TO.P,U6,69,PB10*
G04 #@! TO.N,/Conexiones_extra/I2CA_SCL*
X162758050Y-96590700D03*
G04 #@! TO.P,U6,70,PB11*
G04 #@! TO.N,/Conexiones_extra/I2CA_SDA*
X163258050Y-96590700D03*
G04 #@! TO.P,U6,71,VCAP_1*
G04 #@! TO.N,/MCU/VCAP_1*
X163758050Y-96590700D03*
G04 #@! TO.P,U6,72,VDD*
G04 #@! TO.N,3V3*
X164258050Y-96590700D03*
D10*
G04 #@! TO.P,U6,73,PB12*
G04 #@! TO.N,Net-(R16-Pad1)*
X166170550Y-94678200D03*
G04 #@! TO.P,U6,74,PB13*
G04 #@! TO.N,Net-(R18-Pad1)*
X166170550Y-94178200D03*
G04 #@! TO.P,U6,75,PB14*
G04 #@! TO.N,/MCU/SPI2_MISO*
X166170550Y-93678200D03*
G04 #@! TO.P,U6,76,PB15*
G04 #@! TO.N,Net-(R17-Pad1)*
X166170550Y-93178200D03*
G04 #@! TO.P,U6,77,PD8*
G04 #@! TO.N,unconnected-(U6-Pad77)*
X166170550Y-92678200D03*
G04 #@! TO.P,U6,78,PD9*
G04 #@! TO.N,/MCU/USART3_RX*
X166170550Y-92178200D03*
G04 #@! TO.P,U6,79,PD10*
G04 #@! TO.N,unconnected-(U6-Pad79)*
X166170550Y-91678200D03*
G04 #@! TO.P,U6,80,PD11*
G04 #@! TO.N,unconnected-(U6-Pad80)*
X166170550Y-91178200D03*
G04 #@! TO.P,U6,81,PD12*
G04 #@! TO.N,/MCU/TIM4_CH1*
X166170550Y-90678200D03*
G04 #@! TO.P,U6,82,PD13*
G04 #@! TO.N,/MCU/TIM4_CH2*
X166170550Y-90178200D03*
G04 #@! TO.P,U6,83,VSS*
G04 #@! TO.N,GND*
X166170550Y-89678200D03*
G04 #@! TO.P,U6,84,VDD*
G04 #@! TO.N,3V3*
X166170550Y-89178200D03*
G04 #@! TO.P,U6,85,PD14*
G04 #@! TO.N,/MCU/TIM4_CH3*
X166170550Y-88678200D03*
G04 #@! TO.P,U6,86,PD15*
G04 #@! TO.N,/MCU/TIM4_CH4*
X166170550Y-88178200D03*
G04 #@! TO.P,U6,87,PG2*
G04 #@! TO.N,unconnected-(U6-Pad87)*
X166170550Y-87678200D03*
G04 #@! TO.P,U6,88,PG3*
G04 #@! TO.N,unconnected-(U6-Pad88)*
X166170550Y-87178200D03*
G04 #@! TO.P,U6,89,PG4*
G04 #@! TO.N,unconnected-(U6-Pad89)*
X166170550Y-86678200D03*
G04 #@! TO.P,U6,90,PG5*
G04 #@! TO.N,unconnected-(U6-Pad90)*
X166170550Y-86178200D03*
G04 #@! TO.P,U6,91,PG6*
G04 #@! TO.N,unconnected-(U6-Pad91)*
X166170550Y-85678200D03*
G04 #@! TO.P,U6,92,PG7*
G04 #@! TO.N,unconnected-(U6-Pad92)*
X166170550Y-85178200D03*
G04 #@! TO.P,U6,93,PG8*
G04 #@! TO.N,unconnected-(U6-Pad93)*
X166170550Y-84678200D03*
G04 #@! TO.P,U6,94,VSS*
G04 #@! TO.N,GND*
X166170550Y-84178200D03*
G04 #@! TO.P,U6,95,VDDUSB*
G04 #@! TO.N,3V3*
X166170550Y-83678200D03*
G04 #@! TO.P,U6,96,PC6*
G04 #@! TO.N,unconnected-(U6-Pad96)*
X166170550Y-83178200D03*
G04 #@! TO.P,U6,97,PC7*
G04 #@! TO.N,/MCU/TIM8_CH2*
X166170550Y-82678200D03*
G04 #@! TO.P,U6,98,PC8*
G04 #@! TO.N,/MCU/SDMMC1_D0*
X166170550Y-82178200D03*
G04 #@! TO.P,U6,99,PC9*
G04 #@! TO.N,/MCU/SDMMC1_D1*
X166170550Y-81678200D03*
G04 #@! TO.P,U6,100,PA8*
G04 #@! TO.N,unconnected-(U6-Pad100)*
X166170550Y-81178200D03*
G04 #@! TO.P,U6,101,PA9*
G04 #@! TO.N,/MCU/OTG_FS_VBUS*
X166170550Y-80678200D03*
G04 #@! TO.P,U6,102,PA10*
G04 #@! TO.N,/MCU/OTG_FS_ID*
X166170550Y-80178200D03*
G04 #@! TO.P,U6,103,PA11*
G04 #@! TO.N,/USB/D-*
X166170550Y-79678200D03*
G04 #@! TO.P,U6,104,PA12*
G04 #@! TO.N,/USB/D+*
X166170550Y-79178200D03*
G04 #@! TO.P,U6,105,PA13*
G04 #@! TO.N,/Debug/SWDIO*
X166170550Y-78678200D03*
G04 #@! TO.P,U6,106,VCAP_2*
G04 #@! TO.N,/MCU/VCAP_2*
X166170550Y-78178200D03*
G04 #@! TO.P,U6,107,VSS*
G04 #@! TO.N,GND*
X166170550Y-77678200D03*
G04 #@! TO.P,U6,108,VDD*
G04 #@! TO.N,3V3*
X166170550Y-77178200D03*
D11*
G04 #@! TO.P,U6,109,PA14*
G04 #@! TO.N,/Debug/SWCLK*
X164258050Y-75265700D03*
G04 #@! TO.P,U6,110,PA15*
G04 #@! TO.N,unconnected-(U6-Pad110)*
X163758050Y-75265700D03*
G04 #@! TO.P,U6,111,PC10*
G04 #@! TO.N,/MCU/SDMMC1_D2*
X163258050Y-75265700D03*
G04 #@! TO.P,U6,112,PC11*
G04 #@! TO.N,/MCU/SDMMC1_D3*
X162758050Y-75265700D03*
G04 #@! TO.P,U6,113,PC12*
G04 #@! TO.N,/MCU/SDMMC1_CK*
X162258050Y-75265700D03*
G04 #@! TO.P,U6,114,PD0*
G04 #@! TO.N,unconnected-(U6-Pad114)*
X161758050Y-75265700D03*
G04 #@! TO.P,U6,115,PD1*
G04 #@! TO.N,unconnected-(U6-Pad115)*
X161258050Y-75265700D03*
G04 #@! TO.P,U6,116,PD2*
G04 #@! TO.N,/MCU/SDMMC1_CMD*
X160758050Y-75265700D03*
G04 #@! TO.P,U6,117,PD3*
G04 #@! TO.N,/MCU/PD3(EXTI3)*
X160258050Y-75265700D03*
G04 #@! TO.P,U6,118,PD4*
G04 #@! TO.N,unconnected-(U6-Pad118)*
X159758050Y-75265700D03*
G04 #@! TO.P,U6,119,PD5*
G04 #@! TO.N,/Conexiones_extra/UARTC_TX*
X159258050Y-75265700D03*
G04 #@! TO.P,U6,120,VSS*
G04 #@! TO.N,GND*
X158758050Y-75265700D03*
G04 #@! TO.P,U6,121,VDD*
G04 #@! TO.N,3V3*
X158258050Y-75265700D03*
G04 #@! TO.P,U6,122,PD6*
G04 #@! TO.N,/Conexiones_extra/UARTC_RX*
X157758050Y-75265700D03*
G04 #@! TO.P,U6,123,PD7*
G04 #@! TO.N,unconnected-(U6-Pad123)*
X157258050Y-75265700D03*
G04 #@! TO.P,U6,124,PG9*
G04 #@! TO.N,/Conexiones_extra/UARTB_RX*
X156758050Y-75265700D03*
G04 #@! TO.P,U6,125,PG10*
G04 #@! TO.N,unconnected-(U6-Pad125)*
X156258050Y-75265700D03*
G04 #@! TO.P,U6,126,PG11*
G04 #@! TO.N,unconnected-(U6-Pad126)*
X155758050Y-75265700D03*
G04 #@! TO.P,U6,127,PG12*
G04 #@! TO.N,unconnected-(U6-Pad127)*
X155258050Y-75265700D03*
G04 #@! TO.P,U6,128,PG13*
G04 #@! TO.N,unconnected-(U6-Pad128)*
X154758050Y-75265700D03*
G04 #@! TO.P,U6,129,PG14*
G04 #@! TO.N,/Conexiones_extra/UARTB_TX*
X154258050Y-75265700D03*
G04 #@! TO.P,U6,130,VSS*
G04 #@! TO.N,GND*
X153758050Y-75265700D03*
G04 #@! TO.P,U6,131,VDD*
G04 #@! TO.N,3V3*
X153258050Y-75265700D03*
G04 #@! TO.P,U6,132,PG15*
G04 #@! TO.N,unconnected-(U6-Pad132)*
X152758050Y-75265700D03*
G04 #@! TO.P,U6,133,PB3*
G04 #@! TO.N,/Debug/SWO*
X152258050Y-75265700D03*
G04 #@! TO.P,U6,134,PB4*
G04 #@! TO.N,/Leds indicadores + pulsadores/SW_1*
X151758050Y-75265700D03*
G04 #@! TO.P,U6,135,PB5*
G04 #@! TO.N,/Interfaz_CAN/CAN2_RX*
X151258050Y-75265700D03*
G04 #@! TO.P,U6,136,PB6*
G04 #@! TO.N,/Interfaz_CAN/CAN2_TX*
X150758050Y-75265700D03*
G04 #@! TO.P,U6,137,PB7*
G04 #@! TO.N,/Interfaz_CAN/CAN2_MODE*
X150258050Y-75265700D03*
G04 #@! TO.P,U6,138,BOOT0*
G04 #@! TO.N,/MCU/BOOT0*
X149758050Y-75265700D03*
G04 #@! TO.P,U6,139,PB8*
G04 #@! TO.N,/Interfaz_CAN/CAN1_RX*
X149258050Y-75265700D03*
G04 #@! TO.P,U6,140,PB9*
G04 #@! TO.N,/Interfaz_CAN/CAN1_TX*
X148758050Y-75265700D03*
G04 #@! TO.P,U6,141,PE0*
G04 #@! TO.N,/Leds indicadores + pulsadores/SW_2*
X148258050Y-75265700D03*
G04 #@! TO.P,U6,142,PE1*
G04 #@! TO.N,/Leds indicadores + pulsadores/LED3*
X147758050Y-75265700D03*
G04 #@! TO.P,U6,143,PDR_ON*
G04 #@! TO.N,/MCU/PDR_ON*
X147258050Y-75265700D03*
G04 #@! TO.P,U6,144,VDD*
G04 #@! TO.N,3V3*
X146758050Y-75265700D03*
G04 #@! TD*
D12*
G04 #@! TO.P,C24,1*
G04 #@! TO.N,/MCU/VCAP_1*
X164566600Y-98746500D03*
G04 #@! TO.P,C24,2*
G04 #@! TO.N,GND*
X164566600Y-99881500D03*
G04 #@! TD*
D13*
G04 #@! TO.P,C9,1*
G04 #@! TO.N,Net-(C9-Pad1)*
X143602900Y-101974950D03*
G04 #@! TO.P,C9,2*
G04 #@! TO.N,GND*
X144737900Y-101974950D03*
G04 #@! TD*
D14*
G04 #@! TO.P,C31,1*
G04 #@! TO.N,3V3*
X166116000Y-98001900D03*
G04 #@! TO.P,C31,2*
G04 #@! TO.N,GND*
X166116000Y-96866900D03*
G04 #@! TD*
D15*
G04 #@! TO.P,R43,1*
G04 #@! TO.N,GND*
X131696850Y-73279000D03*
G04 #@! TO.P,R43,2*
G04 #@! TO.N,/Leds indicadores + pulsadores/LED1*
X132891850Y-73279000D03*
G04 #@! TD*
D16*
G04 #@! TO.P,R51,1*
G04 #@! TO.N,/Leds indicadores + pulsadores/LED6*
X132960000Y-79104850D03*
G04 #@! TO.P,R51,2*
G04 #@! TO.N,Net-(Q3-Pad1)*
X131765000Y-79104850D03*
G04 #@! TD*
G04 #@! TO.P,R22,1*
G04 #@! TO.N,/MCU/PDR_ON*
X144386900Y-69646800D03*
G04 #@! TO.P,R22,2*
G04 #@! TO.N,GND*
X143191900Y-69646800D03*
G04 #@! TD*
D17*
G04 #@! TO.P,R57,1*
G04 #@! TO.N,GND*
X129946400Y-80975200D03*
G04 #@! TO.P,R57,2*
G04 #@! TO.N,/Leds indicadores + pulsadores/LED7*
X129946400Y-79780200D03*
G04 #@! TD*
D15*
G04 #@! TO.P,R37,2*
G04 #@! TO.N,/MCU/SDMMC1_D2*
X161150900Y-70180200D03*
G04 #@! TO.P,R37,1*
G04 #@! TO.N,Net-(J24-Pad1)*
X159955900Y-70180200D03*
G04 #@! TD*
D18*
G04 #@! TO.P,C3,1*
G04 #@! TO.N,GND*
X127304800Y-132613400D03*
G04 #@! TO.P,C3,2*
G04 #@! TO.N,/Chassis_Bond_3*
X126169800Y-132613400D03*
G04 #@! TD*
D17*
G04 #@! TO.P,R30,1*
G04 #@! TO.N,/MCU/SDMMC1_D3*
X163499800Y-71463500D03*
G04 #@! TO.P,R30,2*
G04 #@! TO.N,3V3*
X163499800Y-70268500D03*
G04 #@! TD*
D15*
G04 #@! TO.P,R49,1*
G04 #@! TO.N,GND*
X131765001Y-80247849D03*
G04 #@! TO.P,R49,2*
G04 #@! TO.N,/Leds indicadores + pulsadores/LED6*
X132960001Y-80247849D03*
G04 #@! TD*
D19*
G04 #@! TO.P,R19,1*
G04 #@! TO.N,3V3*
X149377400Y-66216600D03*
G04 #@! TO.P,R19,2*
G04 #@! TO.N,/MCU/BOOT0*
X149377400Y-67411600D03*
G04 #@! TD*
D20*
G04 #@! TO.P,Q3,1,G*
G04 #@! TO.N,Net-(Q3-Pad1)*
X131333200Y-77530050D03*
G04 #@! TO.P,Q3,2,S*
G04 #@! TO.N,GND*
X133233200Y-77530050D03*
G04 #@! TO.P,Q3,3,D*
G04 #@! TO.N,Net-(Q3-Pad3)*
X132283200Y-75655050D03*
G04 #@! TD*
D21*
G04 #@! TO.P,Q8,1,G*
G04 #@! TO.N,Net-(Q8-Pad1)*
X127251700Y-83881000D03*
G04 #@! TO.P,Q8,2,S*
G04 #@! TO.N,GND*
X127251700Y-81981000D03*
G04 #@! TO.P,Q8,3,D*
G04 #@! TO.N,Net-(Q8-Pad3)*
X125376700Y-82931000D03*
G04 #@! TD*
D15*
G04 #@! TO.P,R50,1*
G04 #@! TO.N,GND*
X135290600Y-73279000D03*
G04 #@! TO.P,R50,2*
G04 #@! TO.N,/Leds indicadores + pulsadores/LED3*
X136485600Y-73279000D03*
G04 #@! TD*
D19*
G04 #@! TO.P,R28,1*
G04 #@! TO.N,/MCU/PD3(EXTI3)*
X175412400Y-58127300D03*
G04 #@! TO.P,R28,2*
G04 #@! TO.N,3V3*
X175412400Y-59322300D03*
G04 #@! TD*
D13*
G04 #@! TO.P,C7,1*
G04 #@! TO.N,GND*
X144009300Y-66686200D03*
G04 #@! TO.P,C7,2*
G04 #@! TO.N,3V3*
X145144300Y-66686200D03*
G04 #@! TD*
D22*
G04 #@! TO.P,J14,1,Pin_1*
G04 #@! TO.N,/MCU/TIM4_CH4*
X161392400Y-131215600D03*
G04 #@! TO.P,J14,2,Pin_2*
G04 #@! TO.N,/Motores_servos_PWM/Vdd_servos*
X161392400Y-133755600D03*
D23*
G04 #@! TO.P,J14,3,Pin_3*
G04 #@! TO.N,GND*
X161392400Y-136295600D03*
G04 #@! TD*
D16*
G04 #@! TO.P,R48,1*
G04 #@! TO.N,3V3*
X134760300Y-61036200D03*
G04 #@! TO.P,R48,2*
G04 #@! TO.N,/Leds indicadores + pulsadores/SW_2*
X133565300Y-61036200D03*
G04 #@! TD*
D24*
G04 #@! TO.P,J20,1,Pin_1*
G04 #@! TO.N,3V3*
X129159000Y-112989600D03*
D25*
G04 #@! TO.P,J20,2,Pin_2*
G04 #@! TO.N,unconnected-(J20-Pad2)*
X126619000Y-112989600D03*
G04 #@! TO.P,J20,3,Pin_3*
G04 #@! TO.N,GND*
X129159000Y-110449600D03*
G04 #@! TO.P,J20,4,Pin_4*
G04 #@! TO.N,/Sensores/GNSS_SDA*
X126619000Y-110449600D03*
G04 #@! TO.P,J20,5,Pin_5*
G04 #@! TO.N,/Sensores/MAG_INT_DATA_RDY*
X129159000Y-107909600D03*
G04 #@! TO.P,J20,6,Pin_6*
G04 #@! TO.N,/Sensores/GNSS_SCL*
X126619000Y-107909600D03*
G04 #@! TD*
D13*
G04 #@! TO.P,C33,1*
G04 #@! TO.N,3V3*
X167446050Y-75971400D03*
G04 #@! TO.P,C33,2*
G04 #@! TO.N,GND*
X168581050Y-75971400D03*
G04 #@! TD*
D24*
G04 #@! TO.P,J28,1,Pin_1*
G04 #@! TO.N,5V*
X175706000Y-108767800D03*
D25*
G04 #@! TO.P,J28,2,Pin_2*
X178246000Y-108767800D03*
G04 #@! TO.P,J28,3,Pin_3*
G04 #@! TO.N,GND*
X175706000Y-111307800D03*
G04 #@! TO.P,J28,4,Pin_4*
X178246000Y-111307800D03*
G04 #@! TO.P,J28,5,Pin_5*
X175706000Y-113847800D03*
G04 #@! TO.P,J28,6,Pin_6*
X178246000Y-113847800D03*
G04 #@! TO.P,J28,7,Pin_7*
G04 #@! TO.N,3V3*
X175706000Y-116387800D03*
G04 #@! TO.P,J28,8,Pin_8*
X178246000Y-116387800D03*
G04 #@! TD*
D17*
G04 #@! TO.P,R6,1*
G04 #@! TO.N,/Interfaz_CAN/CAN2_TX*
X151282400Y-70664000D03*
G04 #@! TO.P,R6,2*
G04 #@! TO.N,Net-(R6-Pad2)*
X151282400Y-69469000D03*
G04 #@! TD*
D24*
G04 #@! TO.P,J23,1,Pin_1*
G04 #@! TO.N,3V3*
X129159000Y-105369600D03*
D25*
G04 #@! TO.P,J23,2,Pin_2*
G04 #@! TO.N,/Sensores/GNSS_PPS*
X126619000Y-105369600D03*
G04 #@! TO.P,J23,3,Pin_3*
G04 #@! TO.N,GND*
X129159000Y-102829600D03*
G04 #@! TO.P,J23,4,Pin_4*
G04 #@! TO.N,/Sensores/GNSS_Rx*
X126619000Y-102829600D03*
G04 #@! TO.P,J23,5,Pin_5*
G04 #@! TO.N,5V*
X129159000Y-100289600D03*
G04 #@! TO.P,J23,6,Pin_6*
G04 #@! TO.N,/Sensores/GNSS_Tx*
X126619000Y-100289600D03*
G04 #@! TD*
D18*
G04 #@! TO.P,C19,1*
G04 #@! TO.N,3V3*
X151257000Y-107696000D03*
G04 #@! TO.P,C19,2*
G04 #@! TO.N,GND*
X150122000Y-107696000D03*
G04 #@! TD*
D19*
G04 #@! TO.P,R13,1*
G04 #@! TO.N,/Sensores/GNSS_SDA*
X152577800Y-111467300D03*
G04 #@! TO.P,R13,2*
G04 #@! TO.N,3V3*
X152577800Y-112662300D03*
G04 #@! TD*
D15*
G04 #@! TO.P,R38,1*
G04 #@! TO.N,Net-(J24-Pad3)*
X167740400Y-72612550D03*
G04 #@! TO.P,R38,2*
G04 #@! TO.N,/MCU/SDMMC1_CMD*
X168935400Y-72612550D03*
G04 #@! TD*
D19*
G04 #@! TO.P,R34,1*
G04 #@! TO.N,Net-(J24-Pad8)*
X173913800Y-70928900D03*
G04 #@! TO.P,R34,2*
G04 #@! TO.N,/MCU/SDMMC1_D1*
X173913800Y-72123900D03*
G04 #@! TD*
D18*
G04 #@! TO.P,C34,1*
G04 #@! TO.N,3V3*
X147150900Y-98552000D03*
G04 #@! TO.P,C34,2*
G04 #@! TO.N,GND*
X146015900Y-98552000D03*
G04 #@! TD*
D13*
G04 #@! TO.P,C8,1*
G04 #@! TO.N,GND*
X153746200Y-66686200D03*
G04 #@! TO.P,C8,2*
G04 #@! TO.N,3V3*
X154881200Y-66686200D03*
G04 #@! TD*
G04 #@! TO.P,C30,2*
G04 #@! TO.N,GND*
X155490250Y-72668850D03*
G04 #@! TO.P,C30,1*
G04 #@! TO.N,3V3*
X154355250Y-72668850D03*
G04 #@! TD*
D17*
G04 #@! TO.P,R5,1*
G04 #@! TO.N,/Interfaz_CAN/CAN1_TX*
X146837400Y-71082500D03*
G04 #@! TO.P,R5,2*
G04 #@! TO.N,Net-(R5-Pad2)*
X146837400Y-69887500D03*
G04 #@! TD*
D22*
G04 #@! TO.P,J12,1,Pin_1*
G04 #@! TO.N,/MCU/TIM4_CH2*
X156312400Y-131215600D03*
G04 #@! TO.P,J12,2,Pin_2*
G04 #@! TO.N,/Motores_servos_PWM/Vdd_servos*
X156312400Y-133755600D03*
D23*
G04 #@! TO.P,J12,3,Pin_3*
G04 #@! TO.N,GND*
X156312400Y-136295600D03*
G04 #@! TD*
D12*
G04 #@! TO.P,C41,1*
G04 #@! TO.N,3V3*
X169630450Y-88916700D03*
G04 #@! TO.P,C41,2*
G04 #@! TO.N,GND*
X169630450Y-90051700D03*
G04 #@! TD*
D16*
G04 #@! TO.P,R17,1*
G04 #@! TO.N,Net-(R17-Pad1)*
X158179100Y-101904800D03*
G04 #@! TO.P,R17,2*
G04 #@! TO.N,/MCU/SPI2_MOSI*
X156984100Y-101904800D03*
G04 #@! TD*
D22*
G04 #@! TO.P,J9,1,Pin_1*
G04 #@! TO.N,/MCU/TIM1_CH4*
X149420900Y-131215600D03*
G04 #@! TO.P,J9,2,Pin_2*
G04 #@! TO.N,/Motores_servos_PWM/Vdd_ESC*
X149420900Y-133755600D03*
D23*
G04 #@! TO.P,J9,3,Pin_3*
G04 #@! TO.N,GND*
X149420900Y-136295600D03*
G04 #@! TD*
D19*
G04 #@! TO.P,R60,1*
G04 #@! TO.N,Net-(Q5-Pad3)*
X128600200Y-60083100D03*
G04 #@! TO.P,R60,2*
G04 #@! TO.N,Net-(D7-Pad1)*
X128600200Y-61278100D03*
G04 #@! TD*
D14*
G04 #@! TO.P,C32,1*
G04 #@! TO.N,3V3*
X142925800Y-91516200D03*
G04 #@! TO.P,C32,2*
G04 #@! TO.N,GND*
X142925800Y-90381200D03*
G04 #@! TD*
D16*
G04 #@! TO.P,R40,1*
G04 #@! TO.N,3V3*
X134722800Y-55880000D03*
G04 #@! TO.P,R40,2*
G04 #@! TO.N,/Leds indicadores + pulsadores/SW_1*
X133527800Y-55880000D03*
G04 #@! TD*
D26*
G04 #@! TO.P,D9,1,K*
G04 #@! TO.N,Net-(D9-Pad1)*
X127212200Y-67614800D03*
G04 #@! TO.P,D9,2,A*
G04 #@! TO.N,3V3*
X125162200Y-67614800D03*
G04 #@! TD*
D18*
G04 #@! TO.P,C42,1*
G04 #@! TO.N,3V3*
X159385000Y-99237800D03*
G04 #@! TO.P,C42,2*
G04 #@! TO.N,GND*
X158250000Y-99237800D03*
G04 #@! TD*
D22*
G04 #@! TO.P,J11,1,Pin_1*
G04 #@! TO.N,/MCU/TIM4_CH1*
X153772400Y-131215600D03*
G04 #@! TO.P,J11,2,Pin_2*
G04 #@! TO.N,/Motores_servos_PWM/Vdd_servos*
X153772400Y-133755600D03*
D23*
G04 #@! TO.P,J11,3,Pin_3*
G04 #@! TO.N,GND*
X153772400Y-136295600D03*
G04 #@! TD*
D21*
G04 #@! TO.P,Q1,1,G*
G04 #@! TO.N,Net-(Q1-Pad1)*
X127251700Y-87030600D03*
G04 #@! TO.P,Q1,2,S*
G04 #@! TO.N,GND*
X127251700Y-85130600D03*
G04 #@! TO.P,Q1,3,D*
G04 #@! TO.N,Net-(Q1-Pad3)*
X125376700Y-86080600D03*
G04 #@! TD*
D16*
G04 #@! TO.P,R26,1*
G04 #@! TO.N,3V3*
X134836500Y-66268600D03*
G04 #@! TO.P,R26,2*
G04 #@! TO.N,/Debug/NRST*
X133641500Y-66268600D03*
G04 #@! TD*
D17*
G04 #@! TO.P,R1,1*
G04 #@! TO.N,/Interfaz_CAN/CAN1_RX*
X147980400Y-65545300D03*
G04 #@! TO.P,R1,2*
G04 #@! TO.N,Net-(R1-Pad2)*
X147980400Y-64350300D03*
G04 #@! TD*
D27*
G04 #@! TO.P,U5,1,AP_SDO/AP_AD0*
G04 #@! TO.N,Net-(R11-Pad2)*
X153486900Y-102848000D03*
G04 #@! TO.P,U5,2,RESV_2*
G04 #@! TO.N,unconnected-(U5-Pad2)*
X152986900Y-102848000D03*
G04 #@! TO.P,U5,3,RESV_3*
G04 #@! TO.N,unconnected-(U5-Pad3)*
X152486900Y-102848000D03*
G04 #@! TO.P,U5,4,INT1/INT*
G04 #@! TO.N,/MCU/PF12(EXTI12)*
X151986900Y-102848000D03*
D28*
G04 #@! TO.P,U5,5,VDDIO*
G04 #@! TO.N,3V3*
X151821900Y-103513000D03*
G04 #@! TO.P,U5,6,GND*
G04 #@! TO.N,GND*
X151821900Y-104013000D03*
G04 #@! TO.P,U5,7,RESV_7*
X151821900Y-104513000D03*
D29*
G04 #@! TO.P,U5,8,VDD*
G04 #@! TO.N,3V3*
X151986900Y-105178000D03*
G04 #@! TO.P,U5,9,INT2/FSYNC/CLKIN*
G04 #@! TO.N,GND*
X152486900Y-105178000D03*
G04 #@! TO.P,U5,10,RESV_10*
G04 #@! TO.N,unconnected-(U5-Pad10)*
X152986900Y-105178000D03*
G04 #@! TO.P,U5,11,RESV_11*
G04 #@! TO.N,GND*
X153486900Y-105178000D03*
D30*
G04 #@! TO.P,U5,12,AP_CS*
G04 #@! TO.N,/MCU/SPI2_CS*
X153651900Y-104513000D03*
G04 #@! TO.P,U5,13,AP_SCL/AP_SCLK*
G04 #@! TO.N,/MCU/SPI2_SCK*
X153651900Y-104013000D03*
G04 #@! TO.P,U5,14,AP_SDA/AP_SDIO/AP_SDI*
G04 #@! TO.N,/MCU/SPI2_MOSI*
X153651900Y-103513000D03*
G04 #@! TD*
D31*
G04 #@! TO.P,JP1,1,A*
G04 #@! TO.N,/Motores_servos_PWM/Vdd_ESC*
X150980700Y-133630000D03*
G04 #@! TO.P,JP1,2,B*
G04 #@! TO.N,/Motores_servos_PWM/Vdd_servos*
X152280700Y-133630000D03*
G04 #@! TD*
D15*
G04 #@! TO.P,R62,1*
G04 #@! TO.N,GND*
X134835300Y-80133550D03*
G04 #@! TO.P,R62,2*
G04 #@! TO.N,/Leds indicadores + pulsadores/LED4*
X136030300Y-80133550D03*
G04 #@! TD*
D16*
G04 #@! TO.P,R24,1*
G04 #@! TO.N,/Vbus*
X171945900Y-81000600D03*
G04 #@! TO.P,R24,2*
G04 #@! TO.N,/MCU/OTG_FS_VBUS*
X170750900Y-81000600D03*
G04 #@! TD*
D15*
G04 #@! TO.P,R7,1*
G04 #@! TO.N,Net-(C9-Pad1)*
X143547500Y-103041750D03*
G04 #@! TO.P,R7,2*
G04 #@! TO.N,GND*
X144742500Y-103041750D03*
G04 #@! TD*
D19*
G04 #@! TO.P,R23,1*
G04 #@! TO.N,/MCU/OSC_OUT*
X139965002Y-89851900D03*
G04 #@! TO.P,R23,2*
G04 #@! TO.N,Net-(C29-Pad1)*
X139965002Y-91046900D03*
G04 #@! TD*
D22*
G04 #@! TO.P,J7,1,Pin_1*
G04 #@! TO.N,/MCU/TIM1_CH2*
X144340900Y-131215600D03*
G04 #@! TO.P,J7,2,Pin_2*
G04 #@! TO.N,/Motores_servos_PWM/Vdd_ESC*
X144340900Y-133755600D03*
D23*
G04 #@! TO.P,J7,3,Pin_3*
G04 #@! TO.N,GND*
X144340900Y-136295600D03*
G04 #@! TD*
D24*
G04 #@! TO.P,J29,1,Pin_1*
G04 #@! TO.N,GND*
X175706000Y-93527800D03*
D25*
G04 #@! TO.P,J29,2,Pin_2*
G04 #@! TO.N,/Conexiones_extra/UARTC_TX*
X178246000Y-93527800D03*
G04 #@! TO.P,J29,3,Pin_3*
G04 #@! TO.N,3V3*
X175706000Y-96067800D03*
G04 #@! TO.P,J29,4,Pin_4*
G04 #@! TO.N,/Conexiones_extra/UARTC_RX*
X178246000Y-96067800D03*
G04 #@! TO.P,J29,5,Pin_5*
G04 #@! TO.N,GND*
X175706000Y-98607800D03*
G04 #@! TO.P,J29,6,Pin_6*
G04 #@! TO.N,/Conexiones_extra/UARTB_TX*
X178246000Y-98607800D03*
G04 #@! TO.P,J29,7,Pin_7*
G04 #@! TO.N,3V3*
X175706000Y-101147800D03*
G04 #@! TO.P,J29,8,Pin_8*
G04 #@! TO.N,/Conexiones_extra/UARTB_RX*
X178246000Y-101147800D03*
G04 #@! TO.P,J29,9,Pin_9*
G04 #@! TO.N,GND*
X175706000Y-103687800D03*
G04 #@! TO.P,J29,10,Pin_10*
G04 #@! TO.N,/Conexiones_extra/UARTA_TX*
X178246000Y-103687800D03*
G04 #@! TO.P,J29,11,Pin_11*
G04 #@! TO.N,3V3*
X175706000Y-106227800D03*
G04 #@! TO.P,J29,12,Pin_12*
G04 #@! TO.N,/Conexiones_extra/UARTA_RX*
X178246000Y-106227800D03*
G04 #@! TD*
D32*
G04 #@! TO.P,U7,1,I/O1*
G04 #@! TO.N,/USB/D_connector-*
X175768000Y-79959200D03*
G04 #@! TO.P,U7,2,GND*
G04 #@! TO.N,GND*
X175768000Y-79009200D03*
G04 #@! TO.P,U7,3,I/O2*
G04 #@! TO.N,/USB/D_connector+*
X175768000Y-78059200D03*
G04 #@! TO.P,U7,4,I/O2*
G04 #@! TO.N,/USB/D+*
X173493000Y-78059200D03*
G04 #@! TO.P,U7,5,VBUS*
G04 #@! TO.N,/Vbus*
X173493000Y-79009200D03*
G04 #@! TO.P,U7,6,I/O1*
G04 #@! TO.N,/USB/D-*
X173493000Y-79959200D03*
G04 #@! TD*
D18*
G04 #@! TO.P,C48,1*
G04 #@! TO.N,GND*
X138427200Y-61036200D03*
G04 #@! TO.P,C48,2*
G04 #@! TO.N,/Leds indicadores + pulsadores/SW_2*
X137292200Y-61036200D03*
G04 #@! TD*
D14*
G04 #@! TO.P,C26,1*
G04 #@! TO.N,/MCU/VCAP_2*
X169732050Y-77072300D03*
G04 #@! TO.P,C26,2*
G04 #@! TO.N,GND*
X169732050Y-75937300D03*
G04 #@! TD*
D17*
G04 #@! TO.P,R63,1*
G04 #@! TO.N,GND*
X129946400Y-84138100D03*
G04 #@! TO.P,R63,2*
G04 #@! TO.N,/Leds indicadores + pulsadores/LED8*
X129946400Y-82943100D03*
G04 #@! TD*
D16*
G04 #@! TO.P,R64,1*
G04 #@! TO.N,/Leds indicadores + pulsadores/LED4*
X136044900Y-79092150D03*
G04 #@! TO.P,R64,2*
G04 #@! TO.N,Net-(Q7-Pad1)*
X134849900Y-79092150D03*
G04 #@! TD*
D12*
G04 #@! TO.P,C25,1*
G04 #@! TO.N,3V3*
X167843200Y-84090700D03*
G04 #@! TO.P,C25,2*
G04 #@! TO.N,GND*
X167843200Y-85225700D03*
G04 #@! TD*
D33*
G04 #@! TO.P,C20,1*
G04 #@! TO.N,3V3*
X151679000Y-109042200D03*
G04 #@! TO.P,C20,2*
G04 #@! TO.N,GND*
X149954000Y-109042200D03*
G04 #@! TD*
D12*
G04 #@! TO.P,C35,1*
G04 #@! TO.N,3V3*
X145161000Y-74286300D03*
G04 #@! TO.P,C35,2*
G04 #@! TO.N,GND*
X145161000Y-75421300D03*
G04 #@! TD*
D34*
G04 #@! TO.P,C6,1*
G04 #@! TO.N,GND*
X153469000Y-67949700D03*
G04 #@! TO.P,C6,2*
G04 #@! TO.N,3V3*
X155194000Y-67949700D03*
G04 #@! TD*
D17*
G04 #@! TO.P,R42,1*
G04 #@! TO.N,GND*
X129921000Y-87287700D03*
G04 #@! TO.P,R42,2*
G04 #@! TO.N,/Leds indicadores + pulsadores/LED5*
X129921000Y-86092700D03*
G04 #@! TD*
D18*
G04 #@! TO.P,C15,1*
G04 #@! TO.N,GND*
X158530100Y-107873800D03*
G04 #@! TO.P,C15,2*
G04 #@! TO.N,3V3*
X157395100Y-107873800D03*
G04 #@! TD*
G04 #@! TO.P,C1,1*
G04 #@! TO.N,GND*
X127322200Y-58674000D03*
G04 #@! TO.P,C1,2*
G04 #@! TO.N,/Chassis_Bond_1*
X126187200Y-58674000D03*
G04 #@! TD*
D35*
G04 #@! TO.P,C28,1*
G04 #@! TO.N,3V3*
X169519600Y-83515200D03*
G04 #@! TO.P,C28,2*
G04 #@! TO.N,GND*
X169519600Y-85590200D03*
G04 #@! TD*
D18*
G04 #@! TO.P,C39,1*
G04 #@! TO.N,3V3*
X154533600Y-99152625D03*
G04 #@! TO.P,C39,2*
G04 #@! TO.N,GND*
X153398600Y-99152625D03*
G04 #@! TD*
G04 #@! TO.P,C2,1*
G04 #@! TO.N,GND*
X179942300Y-58750200D03*
G04 #@! TO.P,C2,2*
G04 #@! TO.N,/Chassis_Bond_2*
X178807300Y-58750200D03*
G04 #@! TD*
D19*
G04 #@! TO.P,R47,1*
G04 #@! TO.N,Net-(Q2-Pad3)*
X128600200Y-64705900D03*
G04 #@! TO.P,R47,2*
G04 #@! TO.N,Net-(D4-Pad1)*
X128600200Y-65900900D03*
G04 #@! TD*
D36*
G04 #@! TO.P,H2,1,1*
G04 #@! TO.N,/Chassis_Bond_2*
X178824400Y-54381400D03*
D37*
X178824400Y-54381400D03*
G04 #@! TD*
D24*
G04 #@! TO.P,J27,1,Pin_1*
G04 #@! TO.N,5V*
X129159000Y-97749600D03*
D25*
G04 #@! TO.P,J27,2,Pin_2*
G04 #@! TO.N,/Conexiones_extra/SPI_MOSI*
X126619000Y-97749600D03*
G04 #@! TO.P,J27,3,Pin_3*
G04 #@! TO.N,3V3*
X129159000Y-95209600D03*
G04 #@! TO.P,J27,4,Pin_4*
G04 #@! TO.N,/Conexiones_extra/SPI_MISO*
X126619000Y-95209600D03*
G04 #@! TO.P,J27,5,Pin_5*
G04 #@! TO.N,/Conexiones_extra/SPI_SCK*
X129159000Y-92669600D03*
G04 #@! TO.P,J27,6,Pin_6*
G04 #@! TO.N,/Conexiones_extra/SPI_CS*
X126619000Y-92669600D03*
G04 #@! TO.P,J27,7,Pin_7*
G04 #@! TO.N,GND*
X129159000Y-90129600D03*
G04 #@! TO.P,J27,8,Pin_8*
G04 #@! TO.N,/Conexiones_extra/SPI_EOC*
X126619000Y-90129600D03*
G04 #@! TD*
D22*
G04 #@! TO.P,J2,1,Pin_1*
G04 #@! TO.N,/MCU/TIM3_CH1*
X131640900Y-131215600D03*
G04 #@! TO.P,J2,2,Pin_2*
G04 #@! TO.N,/Motores_servos_PWM/Vdd_ESC*
X131640900Y-133755600D03*
D23*
G04 #@! TO.P,J2,3,Pin_3*
G04 #@! TO.N,GND*
X131640900Y-136295600D03*
G04 #@! TD*
D13*
G04 #@! TO.P,C21,1*
G04 #@! TO.N,GND*
X140224700Y-77089000D03*
G04 #@! TO.P,C21,2*
G04 #@! TO.N,3V3*
X141359700Y-77089000D03*
G04 #@! TD*
D15*
G04 #@! TO.P,R21,1*
G04 #@! TO.N,3V3*
X143191900Y-70662799D03*
G04 #@! TO.P,R21,2*
G04 #@! TO.N,/MCU/PDR_ON*
X144386900Y-70662799D03*
G04 #@! TD*
D16*
G04 #@! TO.P,R16,1*
G04 #@! TO.N,Net-(R16-Pad1)*
X160515900Y-103860600D03*
G04 #@! TO.P,R16,2*
G04 #@! TO.N,/MCU/SPI2_CS*
X159320900Y-103860600D03*
G04 #@! TD*
D15*
G04 #@! TO.P,R29,1*
G04 #@! TO.N,/MCU/SDMMC1_CMD*
X168922100Y-73653950D03*
G04 #@! TO.P,R29,2*
G04 #@! TO.N,3V3*
X170117100Y-73653950D03*
G04 #@! TD*
D38*
G04 #@! TO.P,J10,1,Pin_1*
G04 #@! TO.N,/Motores_servos_PWM/Vdd_servos*
X171605900Y-135865200D03*
D39*
G04 #@! TO.P,J10,2,Pin_2*
G04 #@! TO.N,GND*
X166605900Y-135865200D03*
G04 #@! TD*
D17*
G04 #@! TO.P,R12,1*
G04 #@! TO.N,/Sensores/GNSS_SCL*
X155829000Y-108953900D03*
G04 #@! TO.P,R12,2*
G04 #@! TO.N,3V3*
X155829000Y-107758900D03*
G04 #@! TD*
D19*
G04 #@! TO.P,R67,1*
G04 #@! TO.N,Net-(Q1-Pad3)*
X128600200Y-76212100D03*
G04 #@! TO.P,R67,2*
G04 #@! TO.N,Net-(D10-Pad1)*
X128600200Y-77407100D03*
G04 #@! TD*
G04 #@! TO.P,R65,1*
G04 #@! TO.N,/Leds indicadores + pulsadores/LED8*
X128828800Y-82943100D03*
G04 #@! TO.P,R65,2*
G04 #@! TO.N,Net-(Q8-Pad1)*
X128828800Y-84138100D03*
G04 #@! TD*
D21*
G04 #@! TO.P,Q6,1,G*
G04 #@! TO.N,Net-(Q6-Pad1)*
X127251700Y-80731400D03*
G04 #@! TO.P,Q6,2,S*
G04 #@! TO.N,GND*
X127251700Y-78831400D03*
G04 #@! TO.P,Q6,3,D*
G04 #@! TO.N,Net-(Q6-Pad3)*
X125376700Y-79781400D03*
G04 #@! TD*
D17*
G04 #@! TO.P,R4,1*
G04 #@! TO.N,/Interfaz_CAN/CAN2_MODE*
X150926800Y-64300700D03*
G04 #@! TO.P,R4,2*
G04 #@! TO.N,Net-(R4-Pad2)*
X150926800Y-63105700D03*
G04 #@! TD*
D34*
G04 #@! TO.P,C46,1*
G04 #@! TO.N,3V3*
X167581600Y-71247000D03*
G04 #@! TO.P,C46,2*
G04 #@! TO.N,GND*
X169306600Y-71247000D03*
G04 #@! TD*
D12*
G04 #@! TO.P,C17,1*
G04 #@! TO.N,3V3*
X149606000Y-102861300D03*
G04 #@! TO.P,C17,2*
G04 #@! TO.N,GND*
X149606000Y-103996300D03*
G04 #@! TD*
D13*
G04 #@! TO.P,C36,1*
G04 #@! TO.N,GND*
X138733550Y-79857600D03*
G04 #@! TO.P,C36,2*
G04 #@! TO.N,/MCU/OSC32_IN*
X139868550Y-79857600D03*
G04 #@! TD*
D40*
G04 #@! TO.P,SW3,1,A*
G04 #@! TO.N,GND*
X137831500Y-58547000D03*
G04 #@! TO.P,SW3,2,B*
G04 #@! TO.N,Net-(R53-Pad2)*
X131131500Y-58547000D03*
G04 #@! TD*
D41*
G04 #@! TO.P,U1,1,D*
G04 #@! TO.N,Net-(R5-Pad2)*
X142671800Y-64857400D03*
G04 #@! TO.P,U1,2,GND*
G04 #@! TO.N,GND*
X143941800Y-64857400D03*
G04 #@! TO.P,U1,3,VCC*
G04 #@! TO.N,3V3*
X145211800Y-64857400D03*
G04 #@! TO.P,U1,4,R*
G04 #@! TO.N,Net-(R1-Pad2)*
X146481800Y-64857400D03*
G04 #@! TO.P,U1,5,Vref*
G04 #@! TO.N,unconnected-(U1-Pad5)*
X146481800Y-59907400D03*
G04 #@! TO.P,U1,6,CANL*
G04 #@! TO.N,/Interfaz_CAN/CAN1-*
X145211800Y-59907400D03*
G04 #@! TO.P,U1,7,CANH*
G04 #@! TO.N,/Interfaz_CAN/CAN1+*
X143941800Y-59907400D03*
G04 #@! TO.P,U1,8,Rs*
G04 #@! TO.N,Net-(R3-Pad2)*
X142671800Y-59907400D03*
G04 #@! TD*
D34*
G04 #@! TO.P,C43,2*
G04 #@! TO.N,GND*
X155674950Y-71170250D03*
G04 #@! TO.P,C43,1*
G04 #@! TO.N,3V3*
X153949950Y-71170250D03*
G04 #@! TD*
D19*
G04 #@! TO.P,R35,1*
G04 #@! TO.N,Net-(J24-Pad2)*
X164592000Y-70217700D03*
G04 #@! TO.P,R35,2*
G04 #@! TO.N,/MCU/SDMMC1_D3*
X164592000Y-71412700D03*
G04 #@! TD*
D13*
G04 #@! TO.P,C10,1*
G04 #@! TO.N,Net-(C10-Pad1)*
X141443900Y-99390201D03*
G04 #@! TO.P,C10,2*
G04 #@! TO.N,GND*
X142578900Y-99390201D03*
G04 #@! TD*
D15*
G04 #@! TO.P,R15,1*
G04 #@! TO.N,3V3*
X167594050Y-105054400D03*
G04 #@! TO.P,R15,2*
G04 #@! TO.N,/Conexiones_extra/I2CA_SDA*
X168789050Y-105054400D03*
G04 #@! TD*
D18*
G04 #@! TO.P,C29,1*
G04 #@! TO.N,Net-(C29-Pad1)*
X138311700Y-93410800D03*
G04 #@! TO.P,C29,2*
G04 #@! TO.N,GND*
X137176700Y-93410800D03*
G04 #@! TD*
D17*
G04 #@! TO.P,R32,1*
G04 #@! TO.N,/MCU/SDMMC1_D1*
X174955200Y-72123900D03*
G04 #@! TO.P,R32,2*
G04 #@! TO.N,3V3*
X174955200Y-70928900D03*
G04 #@! TD*
D42*
G04 #@! TO.P,Y1,1,1*
G04 #@! TO.N,/MCU/OSC_IN*
X136463200Y-89644600D03*
G04 #@! TO.P,Y1,2,2*
G04 #@! TO.N,GND*
X136463200Y-91944600D03*
G04 #@! TO.P,Y1,3,3*
G04 #@! TO.N,Net-(C29-Pad1)*
X138263200Y-91944600D03*
G04 #@! TO.P,Y1,4,4*
G04 #@! TO.N,GND*
X138263200Y-89644600D03*
G04 #@! TD*
D19*
G04 #@! TO.P,R54,1*
G04 #@! TO.N,Net-(Q3-Pad3)*
X128600200Y-69354100D03*
G04 #@! TO.P,R54,2*
G04 #@! TO.N,Net-(D5-Pad1)*
X128600200Y-70549100D03*
G04 #@! TD*
D20*
G04 #@! TO.P,Q4,1,G*
G04 #@! TO.N,Net-(Q4-Pad1)*
X134569200Y-70660500D03*
G04 #@! TO.P,Q4,2,S*
G04 #@! TO.N,GND*
X136469200Y-70660500D03*
G04 #@! TO.P,Q4,3,D*
G04 #@! TO.N,Net-(Q4-Pad3)*
X135519200Y-68785500D03*
G04 #@! TD*
D43*
G04 #@! TO.P,Y2,1,1*
G04 #@! TO.N,/MCU/OSC32_IN*
X141554200Y-79273400D03*
G04 #@! TO.P,Y2,2,2*
G04 #@! TO.N,/MCU/OSC32_OUT*
X141554200Y-81661000D03*
G04 #@! TD*
D44*
G04 #@! TO.P,D1,1,K*
G04 #@! TO.N,5V*
X174904400Y-85191400D03*
G04 #@! TO.P,D1,2,A*
G04 #@! TO.N,/Vbus*
X174904400Y-81991400D03*
G04 #@! TD*
D20*
G04 #@! TO.P,Q2,1,G*
G04 #@! TO.N,Net-(Q2-Pad1)*
X131343400Y-70660500D03*
G04 #@! TO.P,Q2,2,S*
G04 #@! TO.N,GND*
X133243400Y-70660500D03*
G04 #@! TO.P,Q2,3,D*
G04 #@! TO.N,Net-(Q2-Pad3)*
X132293400Y-68785500D03*
G04 #@! TD*
D14*
G04 #@! TO.P,C27,1*
G04 #@! TO.N,GND*
X135051800Y-90727101D03*
G04 #@! TO.P,C27,2*
G04 #@! TO.N,/MCU/OSC_IN*
X135051800Y-89592101D03*
G04 #@! TD*
G04 #@! TO.P,C22,1*
G04 #@! TO.N,3V3*
X138293251Y-97229600D03*
G04 #@! TO.P,C22,2*
G04 #@! TO.N,GND*
X138293251Y-96094600D03*
G04 #@! TD*
D12*
G04 #@! TO.P,C37,1*
G04 #@! TO.N,GND*
X139827000Y-64481900D03*
G04 #@! TO.P,C37,2*
G04 #@! TO.N,/Debug/NRST*
X139827000Y-65616900D03*
G04 #@! TD*
D37*
G04 #@! TO.P,H1,1,1*
G04 #@! TO.N,/Chassis_Bond_1*
X126224400Y-54381400D03*
D36*
X126224400Y-54381400D03*
G04 #@! TD*
D16*
G04 #@! TO.P,R53,1*
G04 #@! TO.N,/Leds indicadores + pulsadores/SW_2*
X132335800Y-61036200D03*
G04 #@! TO.P,R53,2*
G04 #@! TO.N,Net-(R53-Pad2)*
X131140800Y-61036200D03*
G04 #@! TD*
D45*
G04 #@! TO.P,C14,1*
G04 #@! TO.N,3V3*
X165086950Y-122505300D03*
G04 #@! TO.P,C14,2*
G04 #@! TO.N,GND*
X165086950Y-124230300D03*
G04 #@! TD*
D15*
G04 #@! TO.P,R56,1*
G04 #@! TO.N,GND*
X138743800Y-73268200D03*
G04 #@! TO.P,R56,2*
G04 #@! TO.N,/Leds indicadores + pulsadores/LED2*
X139938800Y-73268200D03*
G04 #@! TD*
D24*
G04 #@! TO.P,J18,1,Pin_1*
G04 #@! TO.N,5V*
X178246000Y-85907800D03*
D25*
G04 #@! TO.P,J18,2,Pin_2*
G04 #@! TO.N,GND*
X178246000Y-88447800D03*
G04 #@! TO.P,J18,3,Pin_3*
G04 #@! TO.N,/MCU/TIM8_CH2*
X178246000Y-90987800D03*
G04 #@! TD*
D22*
G04 #@! TO.P,J4,1,Pin_1*
G04 #@! TO.N,/MCU/TIM3_CH3*
X136720900Y-131215600D03*
G04 #@! TO.P,J4,2,Pin_2*
G04 #@! TO.N,/Motores_servos_PWM/Vdd_ESC*
X136720900Y-133755600D03*
D23*
G04 #@! TO.P,J4,3,Pin_3*
G04 #@! TO.N,GND*
X136720900Y-136295600D03*
G04 #@! TD*
D26*
G04 #@! TO.P,D8,1,K*
G04 #@! TO.N,Net-(D8-Pad1)*
X127212200Y-74523600D03*
G04 #@! TO.P,D8,2,A*
G04 #@! TO.N,3V3*
X125162200Y-74523600D03*
G04 #@! TD*
D16*
G04 #@! TO.P,R18,1*
G04 #@! TO.N,Net-(R18-Pad1)*
X161887500Y-102641400D03*
G04 #@! TO.P,R18,2*
G04 #@! TO.N,/MCU/SPI2_SCK*
X160692500Y-102641400D03*
G04 #@! TD*
D41*
G04 #@! TO.P,U2,1,D*
G04 #@! TO.N,Net-(R6-Pad2)*
X152400000Y-64857400D03*
G04 #@! TO.P,U2,2,GND*
G04 #@! TO.N,GND*
X153670000Y-64857400D03*
G04 #@! TO.P,U2,3,VCC*
G04 #@! TO.N,3V3*
X154940000Y-64857400D03*
G04 #@! TO.P,U2,4,R*
G04 #@! TO.N,Net-(R2-Pad2)*
X156210000Y-64857400D03*
G04 #@! TO.P,U2,5,Vref*
G04 #@! TO.N,unconnected-(U2-Pad5)*
X156210000Y-59907400D03*
G04 #@! TO.P,U2,6,CANL*
G04 #@! TO.N,/Interfaz_CAN/CAN2-*
X154940000Y-59907400D03*
G04 #@! TO.P,U2,7,CANH*
G04 #@! TO.N,/Interfaz_CAN/CAN2+*
X153670000Y-59907400D03*
G04 #@! TO.P,U2,8,Rs*
G04 #@! TO.N,Net-(R4-Pad2)*
X152400000Y-59907400D03*
G04 #@! TD*
D15*
G04 #@! TO.P,R14,1*
G04 #@! TO.N,3V3*
X167588000Y-106172000D03*
G04 #@! TO.P,R14,2*
G04 #@! TO.N,/Conexiones_extra/I2CA_SCL*
X168783000Y-106172000D03*
G04 #@! TD*
D46*
G04 #@! TO.P,J15,1,1*
G04 #@! TO.N,GND*
X142691800Y-56589200D03*
G04 #@! TO.P,J15,2,2*
G04 #@! TO.N,/Interfaz_CAN/CAN1+*
X143941800Y-56589200D03*
G04 #@! TO.P,J15,3,3*
G04 #@! TO.N,/Interfaz_CAN/CAN1-*
X145191800Y-56589200D03*
D47*
G04 #@! TO.P,J15,S1,SHIELD*
G04 #@! TO.N,unconnected-(J15-PadS1)*
X140341800Y-53289200D03*
G04 #@! TO.P,J15,S2,SHIELD*
G04 #@! TO.N,unconnected-(J15-PadS2)*
X147541800Y-53289200D03*
G04 #@! TD*
D16*
G04 #@! TO.P,R58,1*
G04 #@! TO.N,/Leds indicadores + pulsadores/LED2*
X139938800Y-72226800D03*
G04 #@! TO.P,R58,2*
G04 #@! TO.N,Net-(Q5-Pad1)*
X138743800Y-72226800D03*
G04 #@! TD*
D26*
G04 #@! TO.P,D10,1,K*
G04 #@! TO.N,Net-(D10-Pad1)*
X127212200Y-76809600D03*
G04 #@! TO.P,D10,2,A*
G04 #@! TO.N,3V3*
X125162200Y-76809600D03*
G04 #@! TD*
D22*
G04 #@! TO.P,J5,1,Pin_1*
G04 #@! TO.N,/MCU/TIM3_CH4*
X139260900Y-131215600D03*
G04 #@! TO.P,J5,2,Pin_2*
G04 #@! TO.N,/Motores_servos_PWM/Vdd_ESC*
X139260900Y-133755600D03*
D23*
G04 #@! TO.P,J5,3,Pin_3*
G04 #@! TO.N,GND*
X139260900Y-136295600D03*
G04 #@! TD*
D19*
G04 #@! TO.P,R20,1*
G04 #@! TO.N,/MCU/BOOT0*
X149377400Y-68744500D03*
G04 #@! TO.P,R20,2*
G04 #@! TO.N,GND*
X149377400Y-69939500D03*
G04 #@! TD*
D26*
G04 #@! TO.P,D5,1,K*
G04 #@! TO.N,Net-(D5-Pad1)*
X127212200Y-69951600D03*
G04 #@! TO.P,D5,2,A*
G04 #@! TO.N,3V3*
X125162200Y-69951600D03*
G04 #@! TD*
D16*
G04 #@! TO.P,R52,1*
G04 #@! TO.N,/Leds indicadores + pulsadores/LED3*
X136485600Y-72237600D03*
G04 #@! TO.P,R52,2*
G04 #@! TO.N,Net-(Q4-Pad1)*
X135290600Y-72237600D03*
G04 #@! TD*
D24*
G04 #@! TO.P,J26,1,Pin_1*
G04 #@! TO.N,/Conexiones_extra/I2CA_SDA*
X175706000Y-118927800D03*
D25*
G04 #@! TO.P,J26,2,Pin_2*
X178246000Y-118927800D03*
G04 #@! TO.P,J26,3,Pin_3*
G04 #@! TO.N,GND*
X175706000Y-121467800D03*
G04 #@! TO.P,J26,4,Pin_4*
X178246000Y-121467800D03*
G04 #@! TO.P,J26,5,Pin_5*
G04 #@! TO.N,/Conexiones_extra/I2CA_SCL*
X175706000Y-124007800D03*
G04 #@! TO.P,J26,6,Pin_6*
X178246000Y-124007800D03*
G04 #@! TO.P,J26,7,Pin_7*
G04 #@! TO.N,5V*
X175706000Y-126547800D03*
G04 #@! TO.P,J26,8,Pin_8*
G04 #@! TO.N,3V3*
X178246000Y-126547800D03*
G04 #@! TO.P,J26,9,Pin_9*
G04 #@! TO.N,5V*
X175706000Y-129087800D03*
G04 #@! TO.P,J26,10,Pin_10*
G04 #@! TO.N,3V3*
X178246000Y-129087800D03*
G04 #@! TD*
D48*
G04 #@! TO.P,J17,1,Pin_1*
G04 #@! TO.N,3V3*
X164891000Y-110720000D03*
G04 #@! TO.P,J17,2,Pin_2*
G04 #@! TO.N,GND*
X164891000Y-109220000D03*
G04 #@! TO.P,J17,3,Pin_3*
G04 #@! TO.N,/MCU/USART3_RX*
X164891000Y-107720000D03*
D40*
G04 #@! TO.P,J17,4,Pin_4*
G04 #@! TO.N,unconnected-(J17-Pad4)*
X162841000Y-112770000D03*
G04 #@! TO.P,J17,5,Pin_5*
G04 #@! TO.N,unconnected-(J17-Pad5)*
X162841000Y-105670000D03*
G04 #@! TD*
D15*
G04 #@! TO.P,R10,1*
G04 #@! TO.N,Net-(C9-Pad1)*
X143547500Y-100914200D03*
G04 #@! TO.P,R10,2*
G04 #@! TO.N,/Alimentaci\u00F3n/V_MEAS*
X144742500Y-100914200D03*
G04 #@! TD*
D49*
G04 #@! TO.P,C13,1*
G04 #@! TO.N,3V3*
X162687000Y-121765800D03*
G04 #@! TO.P,C13,2*
G04 #@! TO.N,GND*
X162687000Y-124715800D03*
G04 #@! TD*
D19*
G04 #@! TO.P,R61,1*
G04 #@! TO.N,Net-(Q8-Pad3)*
X128600200Y-73926100D03*
G04 #@! TO.P,R61,2*
G04 #@! TO.N,Net-(D8-Pad1)*
X128600200Y-75121100D03*
G04 #@! TD*
D26*
G04 #@! TO.P,D4,1,K*
G04 #@! TO.N,Net-(D4-Pad1)*
X127212200Y-65303400D03*
G04 #@! TO.P,D4,2,A*
G04 #@! TO.N,3V3*
X125162200Y-65303400D03*
G04 #@! TD*
D16*
G04 #@! TO.P,R41,1*
G04 #@! TO.N,/Leds indicadores + pulsadores/SW_1*
X132335800Y-55880000D03*
G04 #@! TO.P,R41,2*
G04 #@! TO.N,Net-(R41-Pad2)*
X131140800Y-55880000D03*
G04 #@! TD*
G04 #@! TO.P,R27,1*
G04 #@! TO.N,/Debug/NRST*
X132347300Y-66268600D03*
G04 #@! TO.P,R27,2*
G04 #@! TO.N,Net-(R27-Pad2)*
X131152300Y-66268600D03*
G04 #@! TD*
D50*
G04 #@! TO.P,C23,1*
G04 #@! TO.N,3V3*
X136709200Y-97699600D03*
G04 #@! TO.P,C23,2*
G04 #@! TO.N,GND*
X136709200Y-95624600D03*
G04 #@! TD*
D13*
G04 #@! TO.P,C45,1*
G04 #@! TO.N,3V3*
X167876600Y-69977000D03*
G04 #@! TO.P,C45,2*
G04 #@! TO.N,GND*
X169011600Y-69977000D03*
G04 #@! TD*
D36*
G04 #@! TO.P,H3,1,1*
G04 #@! TO.N,/Chassis_Bond_3*
X126224400Y-136880600D03*
D37*
X126224400Y-136880600D03*
G04 #@! TD*
D26*
G04 #@! TO.P,D7,1,K*
G04 #@! TO.N,Net-(D7-Pad1)*
X127212200Y-60680600D03*
G04 #@! TO.P,D7,2,A*
G04 #@! TO.N,3V3*
X125162200Y-60680600D03*
G04 #@! TD*
D51*
G04 #@! TO.P,J25,1,VDD*
G04 #@! TO.N,/Vbus*
X178096800Y-79988000D03*
G04 #@! TO.P,J25,2,D-*
G04 #@! TO.N,/USB/D_connector-*
X178096800Y-79338000D03*
G04 #@! TO.P,J25,3,D+*
G04 #@! TO.N,/USB/D_connector+*
X178096800Y-78688000D03*
G04 #@! TO.P,J25,4,ID*
G04 #@! TO.N,unconnected-(J25-Pad4)*
X178096800Y-78038000D03*
G04 #@! TO.P,J25,5,GND*
G04 #@! TO.N,GND*
X178096800Y-77388000D03*
D52*
G04 #@! TO.P,J25,6,SHIELD*
X180771800Y-75188000D03*
D53*
X180771800Y-77688000D03*
D54*
X180771800Y-75488000D03*
D52*
X180771800Y-82188000D03*
D53*
X180771800Y-79688000D03*
D54*
X180771800Y-81888000D03*
D55*
G04 #@! TO.P,J25,7,MOUNT_1*
X178071800Y-76188000D03*
X178071800Y-81188000D03*
G04 #@! TD*
D56*
G04 #@! TO.P,J24,1,DAT2*
G04 #@! TO.N,Net-(J24-Pad1)*
X164090100Y-67343100D03*
G04 #@! TO.P,J24,2,CD/DAT3*
G04 #@! TO.N,Net-(J24-Pad2)*
X165190100Y-67343100D03*
G04 #@! TO.P,J24,3,CMD*
G04 #@! TO.N,Net-(J24-Pad3)*
X166290100Y-67343100D03*
G04 #@! TO.P,J24,4,VDD*
G04 #@! TO.N,3V3*
X167390100Y-67343100D03*
G04 #@! TO.P,J24,5,CLK*
G04 #@! TO.N,Net-(J24-Pad5)*
X168490100Y-67343100D03*
G04 #@! TO.P,J24,6,VSS*
G04 #@! TO.N,GND*
X169590100Y-67343100D03*
G04 #@! TO.P,J24,7,DAT0*
G04 #@! TO.N,Net-(J24-Pad7)*
X170690100Y-67343100D03*
G04 #@! TO.P,J24,8,DAT1*
G04 #@! TO.N,Net-(J24-Pad8)*
X171790100Y-67343100D03*
D57*
G04 #@! TO.P,J24,P1,SHIELD*
G04 #@! TO.N,GND*
X173690100Y-63043100D03*
D58*
G04 #@! TO.P,J24,P2,SHIELD*
X173690100Y-52693100D03*
D59*
G04 #@! TO.P,J24,P3,SHIELD*
X160190100Y-52243100D03*
D57*
G04 #@! TO.P,J24,P4,SHIELD*
X162540100Y-67343100D03*
D60*
G04 #@! TO.P,J24,SWA*
G04 #@! TO.N,/MCU/PD3(EXTI3)*
X173690100Y-56843100D03*
D56*
G04 #@! TO.P,J24,SWB*
G04 #@! TO.N,GND*
X172740100Y-67343100D03*
G04 #@! TD*
D13*
G04 #@! TO.P,C4,1*
G04 #@! TO.N,GND*
X177681000Y-132410200D03*
G04 #@! TO.P,C4,2*
G04 #@! TO.N,/Chassis_Bond_4*
X178816000Y-132410200D03*
G04 #@! TD*
D61*
G04 #@! TO.P,J22,1,1*
G04 #@! TO.N,5V*
X137687900Y-102996200D03*
G04 #@! TO.P,J22,2,2*
G04 #@! TO.N,/Sensores/GNSS_Tx*
X137687900Y-104246200D03*
G04 #@! TO.P,J22,3,3*
G04 #@! TO.N,/Sensores/GNSS_Rx*
X137687900Y-105496200D03*
G04 #@! TO.P,J22,4,4*
G04 #@! TO.N,/Sensores/GNSS_PPS*
X137687900Y-106746200D03*
G04 #@! TO.P,J22,5,5*
G04 #@! TO.N,unconnected-(J22-Pad5)*
X137687900Y-107996200D03*
G04 #@! TO.P,J22,6,6*
G04 #@! TO.N,GND*
X137687900Y-109246200D03*
D62*
G04 #@! TO.P,J22,S1,SHIELD*
G04 #@! TO.N,unconnected-(J22-PadS1)*
X134987900Y-100646200D03*
G04 #@! TO.P,J22,S2,SHIELD*
G04 #@! TO.N,unconnected-(J22-PadS2)*
X134987900Y-111596200D03*
G04 #@! TD*
D40*
G04 #@! TO.P,SW2,1,A*
G04 #@! TO.N,GND*
X137831500Y-53390800D03*
G04 #@! TO.P,SW2,2,B*
G04 #@! TO.N,Net-(R41-Pad2)*
X131131500Y-53390800D03*
G04 #@! TD*
D22*
G04 #@! TO.P,J6,1,Pin_1*
G04 #@! TO.N,/MCU/TIM1_CH1*
X141800900Y-131215600D03*
G04 #@! TO.P,J6,2,Pin_2*
G04 #@! TO.N,/Motores_servos_PWM/Vdd_ESC*
X141800900Y-133755600D03*
D23*
G04 #@! TO.P,J6,3,Pin_3*
G04 #@! TO.N,GND*
X141800900Y-136295600D03*
G04 #@! TD*
D19*
G04 #@! TO.P,R66,1*
G04 #@! TO.N,Net-(Q7-Pad3)*
X128600200Y-67017300D03*
G04 #@! TO.P,R66,2*
G04 #@! TO.N,Net-(D9-Pad1)*
X128600200Y-68212300D03*
G04 #@! TD*
D40*
G04 #@! TO.P,SW1,1,A*
G04 #@! TO.N,GND*
X137843000Y-63804800D03*
G04 #@! TO.P,SW1,2,B*
G04 #@! TO.N,Net-(R27-Pad2)*
X131143000Y-63804800D03*
G04 #@! TD*
D18*
G04 #@! TO.P,C44,1*
G04 #@! TO.N,/MCU/OSC32_OUT*
X139868550Y-80975200D03*
G04 #@! TO.P,C44,2*
G04 #@! TO.N,GND*
X138733550Y-80975200D03*
G04 #@! TD*
D22*
G04 #@! TO.P,J3,1,Pin_1*
G04 #@! TO.N,/MCU/TIM3_CH2*
X134180900Y-131215600D03*
G04 #@! TO.P,J3,2,Pin_2*
G04 #@! TO.N,/Motores_servos_PWM/Vdd_ESC*
X134180900Y-133755600D03*
D23*
G04 #@! TO.P,J3,3,Pin_3*
G04 #@! TO.N,GND*
X134180900Y-136295600D03*
G04 #@! TD*
D34*
G04 #@! TO.P,C5,1*
G04 #@! TO.N,GND*
X143714300Y-67949700D03*
G04 #@! TO.P,C5,2*
G04 #@! TO.N,3V3*
X145439300Y-67949700D03*
G04 #@! TD*
D63*
G04 #@! TO.P,U3,1,GND*
G04 #@! TO.N,GND*
X159461600Y-124194600D03*
G04 #@! TO.P,U3,2,VO*
G04 #@! TO.N,3V3*
X159461600Y-121894600D03*
D64*
X153161600Y-121894600D03*
D63*
G04 #@! TO.P,U3,3,VI*
G04 #@! TO.N,5V*
X159461600Y-119594600D03*
G04 #@! TD*
D17*
G04 #@! TO.P,R33,1*
G04 #@! TO.N,/MCU/SDMMC1_D0*
X172720000Y-72821800D03*
G04 #@! TO.P,R33,2*
G04 #@! TO.N,3V3*
X172720000Y-71626800D03*
G04 #@! TD*
D19*
G04 #@! TO.P,R46,1*
G04 #@! TO.N,Net-(Q6-Pad3)*
X128600200Y-71626800D03*
G04 #@! TO.P,R46,2*
G04 #@! TO.N,Net-(D3-Pad1)*
X128600200Y-72821800D03*
G04 #@! TD*
D17*
G04 #@! TO.P,R2,1*
G04 #@! TO.N,/Interfaz_CAN/CAN2_RX*
X157632400Y-65621500D03*
G04 #@! TO.P,R2,2*
G04 #@! TO.N,Net-(R2-Pad2)*
X157632400Y-64426500D03*
G04 #@! TD*
D13*
G04 #@! TO.P,C38,1*
G04 #@! TO.N,3V3*
X157894400Y-73710800D03*
G04 #@! TO.P,C38,2*
G04 #@! TO.N,GND*
X159029400Y-73710800D03*
G04 #@! TD*
D37*
G04 #@! TO.P,H4,1,1*
G04 #@! TO.N,/Chassis_Bond_4*
X178824400Y-136880600D03*
D36*
X178824400Y-136880600D03*
G04 #@! TD*
D19*
G04 #@! TO.P,R36,1*
G04 #@! TO.N,Net-(J24-Pad7)*
X171678600Y-71626800D03*
G04 #@! TO.P,R36,2*
G04 #@! TO.N,/MCU/SDMMC1_D0*
X171678600Y-72821800D03*
G04 #@! TD*
D61*
G04 #@! TO.P,J21,1,1*
G04 #@! TO.N,5V*
X137619400Y-117454200D03*
G04 #@! TO.P,J21,2,2*
G04 #@! TO.N,/Sensores/GNSS_SCL*
X137619400Y-118704200D03*
G04 #@! TO.P,J21,3,3*
G04 #@! TO.N,/Sensores/GNSS_SDA*
X137619400Y-119954200D03*
G04 #@! TO.P,J21,4,4*
G04 #@! TO.N,GND*
X137619400Y-121204200D03*
D62*
G04 #@! TO.P,J21,S1,SHIELD*
G04 #@! TO.N,unconnected-(J21-PadS1)*
X134919400Y-115204200D03*
G04 #@! TO.P,J21,S2,SHIELD*
G04 #@! TO.N,unconnected-(J21-PadS2)*
X134919400Y-123454200D03*
G04 #@! TD*
D22*
G04 #@! TO.P,J8,1,Pin_1*
G04 #@! TO.N,/MCU/TIM1_CH3*
X146880900Y-131215600D03*
G04 #@! TO.P,J8,2,Pin_2*
G04 #@! TO.N,/Motores_servos_PWM/Vdd_ESC*
X146880900Y-133755600D03*
D23*
G04 #@! TO.P,J8,3,Pin_3*
G04 #@! TO.N,GND*
X146880900Y-136295600D03*
G04 #@! TD*
D19*
G04 #@! TO.P,R59,1*
G04 #@! TO.N,/Leds indicadores + pulsadores/LED7*
X128828800Y-79780200D03*
G04 #@! TO.P,R59,2*
G04 #@! TO.N,Net-(Q6-Pad1)*
X128828800Y-80975200D03*
G04 #@! TD*
D65*
G04 #@! TO.P,C12,1*
G04 #@! TO.N,5V*
X162712400Y-117373400D03*
G04 #@! TO.P,C12,2*
G04 #@! TO.N,GND*
X165837400Y-117373400D03*
G04 #@! TD*
D33*
G04 #@! TO.P,C11,1*
G04 #@! TO.N,GND*
X164437400Y-119405400D03*
G04 #@! TO.P,C11,2*
G04 #@! TO.N,5V*
X162712400Y-119405400D03*
G04 #@! TD*
D20*
G04 #@! TO.P,Q7,1,G*
G04 #@! TO.N,Net-(Q7-Pad1)*
X134559000Y-77530050D03*
G04 #@! TO.P,Q7,2,S*
G04 #@! TO.N,GND*
X136459000Y-77530050D03*
G04 #@! TO.P,Q7,3,D*
G04 #@! TO.N,Net-(Q7-Pad3)*
X135509000Y-75655050D03*
G04 #@! TD*
D15*
G04 #@! TO.P,R8,1*
G04 #@! TO.N,Net-(C10-Pad1)*
X141413900Y-98323400D03*
G04 #@! TO.P,R8,2*
G04 #@! TO.N,GND*
X142608900Y-98323400D03*
G04 #@! TD*
D16*
G04 #@! TO.P,R11,1*
G04 #@! TO.N,/MCU/SPI2_MISO*
X161836700Y-101142800D03*
G04 #@! TO.P,R11,2*
G04 #@! TO.N,Net-(R11-Pad2)*
X160641700Y-101142800D03*
G04 #@! TD*
G04 #@! TO.P,R45,1*
G04 #@! TO.N,/Leds indicadores + pulsadores/LED1*
X132891850Y-72237600D03*
G04 #@! TO.P,R45,2*
G04 #@! TO.N,Net-(Q2-Pad1)*
X131696850Y-72237600D03*
G04 #@! TD*
D19*
G04 #@! TO.P,R39,1*
G04 #@! TO.N,Net-(J24-Pad5)*
X157759400Y-70497100D03*
G04 #@! TO.P,R39,2*
G04 #@! TO.N,/MCU/SDMMC1_CK*
X157759400Y-71692100D03*
G04 #@! TD*
D44*
G04 #@! TO.P,D2,1,K*
G04 #@! TO.N,5V*
X131114800Y-115722600D03*
G04 #@! TO.P,D2,2,A*
G04 #@! TO.N,/Alimentaci\u00F3n/5Vin*
X131114800Y-118922600D03*
G04 #@! TD*
D24*
G04 #@! TO.P,J1,1,Pin_1*
G04 #@! TO.N,/Debug/SWDIO*
X180492400Y-70774800D03*
D25*
G04 #@! TO.P,J1,2,Pin_2*
G04 #@! TO.N,3V3*
X177952400Y-70774800D03*
G04 #@! TO.P,J1,3,Pin_3*
G04 #@! TO.N,/Debug/NRST*
X180492400Y-68234800D03*
G04 #@! TO.P,J1,4,Pin_4*
G04 #@! TO.N,/Debug/SWCLK*
X177952400Y-68234800D03*
G04 #@! TO.P,J1,5,Pin_5*
G04 #@! TO.N,/Debug/SWO*
X180492400Y-65694800D03*
G04 #@! TO.P,J1,6,Pin_6*
G04 #@! TO.N,GND*
X177952400Y-65694800D03*
G04 #@! TD*
D19*
G04 #@! TO.P,R44,1*
G04 #@! TO.N,/Leds indicadores + pulsadores/LED5*
X128828800Y-86092700D03*
G04 #@! TO.P,R44,2*
G04 #@! TO.N,Net-(Q1-Pad1)*
X128828800Y-87287700D03*
G04 #@! TD*
D26*
G04 #@! TO.P,D3,1,K*
G04 #@! TO.N,Net-(D3-Pad1)*
X127212200Y-72224300D03*
G04 #@! TO.P,D3,2,A*
G04 #@! TO.N,3V3*
X125162200Y-72224300D03*
G04 #@! TD*
D19*
G04 #@! TO.P,R55,1*
G04 #@! TO.N,Net-(Q4-Pad3)*
X128600200Y-62394500D03*
G04 #@! TO.P,R55,2*
G04 #@! TO.N,Net-(D6-Pad1)*
X128600200Y-63589500D03*
G04 #@! TD*
D46*
G04 #@! TO.P,J16,1,1*
G04 #@! TO.N,GND*
X152445400Y-56589200D03*
G04 #@! TO.P,J16,2,2*
G04 #@! TO.N,/Interfaz_CAN/CAN2+*
X153695400Y-56589200D03*
G04 #@! TO.P,J16,3,3*
G04 #@! TO.N,/Interfaz_CAN/CAN2-*
X154945400Y-56589200D03*
D47*
G04 #@! TO.P,J16,S1,SHIELD*
G04 #@! TO.N,unconnected-(J16-PadS1)*
X150095400Y-53289200D03*
G04 #@! TO.P,J16,S2,SHIELD*
G04 #@! TO.N,unconnected-(J16-PadS2)*
X157295400Y-53289200D03*
G04 #@! TD*
D16*
G04 #@! TO.P,R31,1*
G04 #@! TO.N,/MCU/SDMMC1_D2*
X161176300Y-71196200D03*
G04 #@! TO.P,R31,2*
G04 #@! TO.N,3V3*
X159981300Y-71196200D03*
G04 #@! TD*
D26*
G04 #@! TO.P,D6,1,K*
G04 #@! TO.N,Net-(D6-Pad1)*
X127212200Y-62992000D03*
G04 #@! TO.P,D6,2,A*
G04 #@! TO.N,3V3*
X125162200Y-62992000D03*
G04 #@! TD*
D15*
G04 #@! TO.P,R9,1*
G04 #@! TO.N,Net-(C10-Pad1)*
X141413900Y-97231201D03*
G04 #@! TO.P,R9,2*
G04 #@! TO.N,/Alimentaci\u00F3n/I_MEAS*
X142608900Y-97231201D03*
G04 #@! TD*
D66*
G04 #@! TO.P,U4,1,VDD_IO*
G04 #@! TO.N,3V3*
X156134213Y-110584349D03*
G04 #@! TO.P,U4,2,SCL/SPC*
G04 #@! TO.N,/Sensores/GNSS_SCL*
X155634087Y-110584349D03*
D67*
G04 #@! TO.P,U4,3,RES*
G04 #@! TO.N,GND*
X155049249Y-110919124D03*
G04 #@! TO.P,U4,4,SDA/SDI/SDO*
G04 #@! TO.N,/Sensores/GNSS_SDA*
X155049249Y-111419250D03*
G04 #@! TO.P,U4,5,AH2*
G04 #@! TO.N,GND*
X155049249Y-111919376D03*
D66*
G04 #@! TO.P,U4,6,CS*
G04 #@! TO.N,3V3*
X155634087Y-112254151D03*
G04 #@! TO.P,U4,7,AH1*
G04 #@! TO.N,GND*
X156134213Y-112254151D03*
D67*
G04 #@! TO.P,U4,8,GND_IO*
X156719051Y-111919376D03*
G04 #@! TO.P,U4,9,GND*
X156719051Y-111419250D03*
G04 #@! TO.P,U4,10,VDD*
G04 #@! TO.N,3V3*
X156719051Y-110919124D03*
G04 #@! TD*
D61*
G04 #@! TO.P,J19,1,1*
G04 #@! TO.N,/Alimentaci\u00F3n/5Vin*
X127287000Y-120039600D03*
G04 #@! TO.P,J19,2,2*
X127287000Y-121289600D03*
G04 #@! TO.P,J19,3,3*
G04 #@! TO.N,Net-(C10-Pad1)*
X127287000Y-122539600D03*
G04 #@! TO.P,J19,4,4*
G04 #@! TO.N,Net-(C9-Pad1)*
X127287000Y-123789600D03*
G04 #@! TO.P,J19,5,5*
G04 #@! TO.N,GND*
X127287000Y-125039600D03*
G04 #@! TO.P,J19,6,6*
X127287000Y-126289600D03*
D62*
G04 #@! TO.P,J19,S1,SHIELD*
G04 #@! TO.N,unconnected-(J19-PadS1)*
X124587000Y-117689600D03*
G04 #@! TO.P,J19,S2,SHIELD*
G04 #@! TO.N,unconnected-(J19-PadS2)*
X124587000Y-128639600D03*
G04 #@! TD*
D14*
G04 #@! TO.P,C40,1*
G04 #@! TO.N,3V3*
X141097000Y-84997100D03*
G04 #@! TO.P,C40,2*
G04 #@! TO.N,GND*
X141097000Y-83862100D03*
G04 #@! TD*
D35*
G04 #@! TO.P,C18,1*
G04 #@! TO.N,3V3*
X159719550Y-110165750D03*
G04 #@! TO.P,C18,2*
G04 #@! TO.N,GND*
X159719550Y-112240750D03*
G04 #@! TD*
D22*
G04 #@! TO.P,J13,1,Pin_1*
G04 #@! TO.N,/MCU/TIM4_CH3*
X158852400Y-131215600D03*
G04 #@! TO.P,J13,2,Pin_2*
G04 #@! TO.N,/Motores_servos_PWM/Vdd_servos*
X158852400Y-133755600D03*
D23*
G04 #@! TO.P,J13,3,Pin_3*
G04 #@! TO.N,GND*
X158852400Y-136295600D03*
G04 #@! TD*
D15*
G04 #@! TO.P,R25,1*
G04 #@! TO.N,/MCU/OTG_FS_VBUS*
X170737600Y-82118200D03*
G04 #@! TO.P,R25,2*
G04 #@! TO.N,GND*
X171932600Y-82118200D03*
G04 #@! TD*
D17*
G04 #@! TO.P,R3,1*
G04 #@! TO.N,/Interfaz_CAN/CAN1_MODE*
X141224000Y-64300700D03*
G04 #@! TO.P,R3,2*
G04 #@! TO.N,Net-(R3-Pad2)*
X141224000Y-63105700D03*
G04 #@! TD*
D12*
G04 #@! TO.P,C16,1*
G04 #@! TO.N,3V3*
X158068550Y-110597750D03*
G04 #@! TO.P,C16,2*
G04 #@! TO.N,GND*
X158068550Y-111732750D03*
G04 #@! TD*
D18*
G04 #@! TO.P,C47,1*
G04 #@! TO.N,GND*
X138427200Y-55880000D03*
G04 #@! TO.P,C47,2*
G04 #@! TO.N,/Leds indicadores + pulsadores/SW_1*
X137292200Y-55880000D03*
G04 #@! TD*
D20*
G04 #@! TO.P,Q5,1,G*
G04 #@! TO.N,Net-(Q5-Pad1)*
X137795000Y-70660500D03*
G04 #@! TO.P,Q5,2,S*
G04 #@! TO.N,GND*
X139695000Y-70660500D03*
G04 #@! TO.P,Q5,3,D*
G04 #@! TO.N,Net-(Q5-Pad3)*
X138745000Y-68785500D03*
G04 #@! TD*
D68*
G04 #@! TO.N,/MCU/SDMMC1_D3*
X162102800Y-73219700D03*
G04 #@! TO.N,/MCU/SDMMC1_CMD*
X162153600Y-77165200D03*
X166039800Y-74752200D03*
G04 #@! TO.N,/Debug/SWCLK*
X165557200Y-73355200D03*
G04 #@! TO.N,/MCU/SDMMC1_D3*
X164566600Y-72491600D03*
G04 #@! TO.N,3V3*
X159080200Y-71170800D03*
G04 #@! TO.N,Net-(J24-Pad1)*
X158826200Y-69011800D03*
X163677600Y-68808600D03*
G04 #@! TO.N,3V3*
X167487600Y-75031600D03*
X162560000Y-70180200D03*
X170281600Y-72644000D03*
X174980600Y-69824600D03*
G04 #@! TO.N,GND*
X131749800Y-81153000D03*
X142163800Y-69646800D03*
X143535400Y-99466400D03*
X139217400Y-109296200D03*
X129006600Y-126365000D03*
X139446000Y-55880000D03*
X153771600Y-112649000D03*
X158165800Y-100152200D03*
X129921000Y-81915000D03*
X139344400Y-121208800D03*
X142570200Y-67919600D03*
X156544550Y-113213750D03*
X133299200Y-76211550D03*
X142671800Y-58115200D03*
X170434000Y-71247000D03*
X162509200Y-68427600D03*
X175056800Y-62814200D03*
X157509750Y-112756550D03*
X155726850Y-70052650D03*
X153771600Y-110591600D03*
X137744200Y-79857600D03*
X137820400Y-73253600D03*
X169697400Y-74980800D03*
X128328800Y-132630100D03*
X149707600Y-105257600D03*
X152323800Y-67945000D03*
X166217600Y-124256800D03*
X154228800Y-106756200D03*
X125882400Y-81915000D03*
X152806400Y-66675000D03*
X165451675Y-99884249D03*
X159744950Y-113540050D03*
X141986000Y-90424000D03*
X128295400Y-58674000D03*
X148767800Y-108889800D03*
X156488850Y-72719650D03*
X170561000Y-90093800D03*
X176758600Y-77343000D03*
X165633400Y-119456200D03*
X135051800Y-91739650D03*
X136194800Y-93416051D03*
X139761000Y-69318500D03*
X143027400Y-66700400D03*
X125882400Y-85115400D03*
X174879000Y-52552600D03*
X144653000Y-104013000D03*
X152450800Y-58140600D03*
X144246600Y-75522900D03*
X130937000Y-84124800D03*
X125933200Y-78790800D03*
X180924200Y-58775600D03*
X148691600Y-103987600D03*
X166090600Y-95927300D03*
X140208000Y-76174600D03*
X168605200Y-75082400D03*
X152476200Y-107365800D03*
X145084800Y-98526600D03*
X159486600Y-107873800D03*
X135307400Y-95540600D03*
X135178800Y-92908050D03*
X130759200Y-73253600D03*
X133309400Y-69293100D03*
X129032000Y-125095000D03*
X138217051Y-95129400D03*
X139852400Y-63500000D03*
X140157200Y-83870800D03*
X130886200Y-87249000D03*
X176682400Y-132410200D03*
X134823200Y-81102200D03*
X136626600Y-76160750D03*
X170942000Y-85598000D03*
X149453600Y-70993000D03*
X167335200Y-109270800D03*
X173304200Y-68834000D03*
X149072600Y-107645200D03*
X159943800Y-73710800D03*
X172897800Y-82169000D03*
X153372650Y-100067025D03*
X167157400Y-117398800D03*
X137769600Y-81000600D03*
X134289800Y-73228200D03*
X136560600Y-69293100D03*
X158775400Y-52044600D03*
X167894000Y-86233000D03*
X169951400Y-70002400D03*
X139420600Y-61010800D03*
G04 #@! TO.N,3V3*
X123977400Y-76809600D03*
X148844000Y-120599200D03*
X156159200Y-106705400D03*
X156641800Y-120599200D03*
X123977400Y-74523600D03*
X159719550Y-108968050D03*
X124002800Y-65278000D03*
X166565950Y-105003600D03*
X151688800Y-112699800D03*
X155371800Y-121869200D03*
X155371800Y-120599200D03*
X148844000Y-121869200D03*
X156641800Y-121869200D03*
X153390050Y-72719650D03*
X172745400Y-70649500D03*
X167284400Y-110769400D03*
X166636100Y-106146600D03*
X142227900Y-70662799D03*
X135839200Y-61061600D03*
X167868600Y-83159600D03*
X157454600Y-106857800D03*
X149479000Y-65252600D03*
X159385000Y-100203000D03*
X153974250Y-70027250D03*
X156641800Y-123139200D03*
X166928800Y-69951600D03*
X144297400Y-74303700D03*
X148844000Y-123139200D03*
X141986000Y-91567000D03*
X150114000Y-120599200D03*
X124002800Y-69926200D03*
X148691600Y-102870000D03*
X135813800Y-66268600D03*
X166192200Y-122580400D03*
X151231600Y-106807000D03*
X155274550Y-113213750D03*
X154541050Y-100041625D03*
X150114000Y-121869200D03*
X124028200Y-62966600D03*
X150114000Y-123139200D03*
X158093950Y-109632350D03*
X170865800Y-83515200D03*
X156895800Y-73685400D03*
X141376400Y-76225400D03*
X156337000Y-67970400D03*
X124002800Y-60680600D03*
X146100800Y-66700400D03*
X124028200Y-72173500D03*
X140131800Y-84988400D03*
X165760400Y-98983800D03*
X148005800Y-98247200D03*
X124002800Y-67589400D03*
X175564800Y-61036200D03*
X155829000Y-66649600D03*
X170535600Y-88925400D03*
X138293250Y-98304400D03*
X155371800Y-123139200D03*
X166420800Y-71247000D03*
X135332800Y-97750400D03*
X135712200Y-55880000D03*
X152857200Y-109067600D03*
X146583400Y-67945000D03*
G04 #@! TO.N,Net-(C9-Pad1)*
X130302000Y-123799600D03*
X143560800Y-113157000D03*
G04 #@! TO.N,Net-(C10-Pad1)*
X130302000Y-122555000D03*
X142494000Y-112014000D03*
G04 #@! TO.N,/Sensores/GNSS_Tx*
X139446000Y-104165400D03*
X141401800Y-94335600D03*
G04 #@! TO.N,/Sensores/GNSS_Rx*
X141351000Y-95453200D03*
X139446000Y-105384600D03*
G04 #@! TO.N,/Conexiones_extra/I2CA_SCL*
X162606150Y-98323400D03*
X168808400Y-107111800D03*
G04 #@! TO.N,/Sensores/GNSS_SDA*
X139217400Y-120015000D03*
X156311600Y-98247200D03*
X151130000Y-111429800D03*
G04 #@! TO.N,/Sensores/GNSS_SCL*
X155651200Y-99161600D03*
X139217400Y-118719600D03*
X146685000Y-107264200D03*
G04 #@! TO.N,/Conexiones_extra/I2CA_SDA*
X168808400Y-104089200D03*
X163550600Y-99441000D03*
G04 #@! TO.N,/MCU/TIM3_CH1*
X144729200Y-112293400D03*
G04 #@! TO.N,/MCU/TIM3_CH2*
X145694400Y-113360200D03*
G04 #@! TO.N,/Debug/NRST*
X140309600Y-67056000D03*
X147802600Y-89077800D03*
G04 #@! TO.N,/MCU/TIM3_CH3*
X146608800Y-111988600D03*
G04 #@! TO.N,/MCU/TIM3_CH4*
X147599400Y-113334800D03*
G04 #@! TO.N,/MCU/TIM4_CH1*
X169062400Y-112141000D03*
G04 #@! TO.N,/Debug/SWO*
X151909950Y-73253600D03*
G04 #@! TO.N,/MCU/TIM4_CH2*
X169316400Y-113309400D03*
G04 #@! TO.N,/MCU/TIM4_CH3*
X171500800Y-112141000D03*
G04 #@! TO.N,/MCU/TIM4_CH4*
X171500800Y-113538000D03*
G04 #@! TO.N,/Conexiones_extra/UARTA_TX*
X157988000Y-95046800D03*
G04 #@! TO.N,/Conexiones_extra/UARTB_TX*
X154673300Y-77101700D03*
G04 #@! TO.N,/Conexiones_extra/UARTA_RX*
X156946600Y-94411800D03*
G04 #@! TO.N,/Conexiones_extra/UARTB_RX*
X156591000Y-76733400D03*
G04 #@! TO.N,/Conexiones_extra/UARTC_TX*
X158851600Y-77419200D03*
G04 #@! TO.N,/Sensores/MAG_INT_DATA_RDY*
X152120600Y-95046800D03*
G04 #@! TO.N,/MCU/SDMMC1_D0*
X169341800Y-81864200D03*
X173202600Y-74523600D03*
G04 #@! TO.N,/MCU/SDMMC1_D1*
X168376600Y-81356200D03*
X172212000Y-75819000D03*
G04 #@! TO.N,/MCU/TIM1_CH1*
X156972000Y-99161600D03*
G04 #@! TO.N,/MCU/TIM1_CH2*
X160248600Y-98196400D03*
G04 #@! TO.N,/MCU/TIM1_CH3*
X160909000Y-99161600D03*
G04 #@! TO.N,/MCU/TIM1_CH4*
X161671000Y-99847400D03*
G04 #@! TO.N,/Conexiones_extra/UARTC_RX*
X157632400Y-77038200D03*
G04 #@! TO.N,Net-(J24-Pad5)*
X168478200Y-68630800D03*
X158521400Y-67183000D03*
G04 #@! TO.N,Net-(Q2-Pad3)*
X129565400Y-65328800D03*
X132334000Y-67360800D03*
G04 #@! TO.N,Net-(Q3-Pad3)*
X129641600Y-69418200D03*
X131902200Y-74345800D03*
G04 #@! TO.N,Net-(Q4-Pad3)*
X129565400Y-62128400D03*
X135559800Y-67310000D03*
G04 #@! TO.N,Net-(Q5-Pad3)*
X129590800Y-60452000D03*
X138734800Y-67233800D03*
G04 #@! TO.N,Net-(Q7-Pad3)*
X135509000Y-74295000D03*
X129565400Y-67106800D03*
G04 #@! TO.N,/MCU/SPI2_MISO*
X167792400Y-100355400D03*
X168681400Y-98171000D03*
G04 #@! TO.N,/MCU/PD3(EXTI3)*
X175310800Y-64846200D03*
X160045400Y-77165200D03*
G04 #@! TO.N,Net-(R16-Pad1)*
X165227000Y-103454200D03*
X167132000Y-98450400D03*
G04 #@! TO.N,Net-(R17-Pad1)*
X168325800Y-101473000D03*
X169519600Y-99060000D03*
G04 #@! TO.N,/Leds indicadores + pulsadores/LED1*
X147167600Y-77622400D03*
X134137400Y-72186800D03*
G04 #@! TO.N,/Leds indicadores + pulsadores/LED2*
X140919200Y-73329800D03*
X146456400Y-76962000D03*
G04 #@! TO.N,/Leds indicadores + pulsadores/LED3*
X148361400Y-77165200D03*
X137515600Y-72212200D03*
G04 #@! TO.N,/Leds indicadores + pulsadores/LED4*
X146481800Y-79578200D03*
X136017000Y-81076800D03*
G04 #@! TO.N,/Leds indicadores + pulsadores/LED5*
X130835400Y-86156800D03*
X146583400Y-84099400D03*
G04 #@! TO.N,/Leds indicadores + pulsadores/LED6*
X146558000Y-81864200D03*
X132969000Y-81153000D03*
G04 #@! TO.N,/Leds indicadores + pulsadores/LED7*
X129921000Y-78816200D03*
X147421600Y-78638400D03*
G04 #@! TO.N,/Leds indicadores + pulsadores/LED8*
X131089400Y-82956400D03*
X146837400Y-82829400D03*
G04 #@! TO.N,/Leds indicadores + pulsadores/SW_1*
X151511000Y-77190600D03*
X140563600Y-58851800D03*
G04 #@! TO.N,/Leds indicadores + pulsadores/SW_2*
X139750800Y-62280800D03*
X145669000Y-70104000D03*
G04 #@! TO.N,/Sensores/GNSS_PPS*
X139471400Y-106680000D03*
X142849600Y-95173800D03*
G04 #@! TO.N,/MCU/TIM8_CH2*
X164668200Y-82677000D03*
G04 #@! TO.N,Net-(Q1-Pad3)*
X124002800Y-86055200D03*
X129717800Y-76454000D03*
G04 #@! TO.N,Net-(Q8-Pad3)*
X129616200Y-74345800D03*
X124053600Y-82956400D03*
G04 #@! TO.N,Net-(Q6-Pad3)*
X124053600Y-79781400D03*
X129641600Y-71907400D03*
G04 #@! TD*
D69*
G04 #@! TO.N,/MCU/SDMMC1_D3*
X162758050Y-75265700D02*
X162758050Y-73874950D01*
X162758050Y-73874950D02*
X162102800Y-73219700D01*
G04 #@! TO.N,/MCU/SDMMC1_CK*
X157759400Y-71692100D02*
X157759400Y-72212200D01*
X157759400Y-72212200D02*
X158191200Y-72644000D01*
X158191200Y-72644000D02*
X160070800Y-72644000D01*
X160070800Y-72644000D02*
X161315400Y-73888600D01*
X161315400Y-73888600D02*
X161925000Y-73888600D01*
X162258050Y-74221650D02*
X162258050Y-75265700D01*
X161925000Y-73888600D02*
X162258050Y-74221650D01*
G04 #@! TO.N,/MCU/SDMMC1_CMD*
X161290000Y-77165200D02*
X162153600Y-77165200D01*
X160758050Y-76633250D02*
X161290000Y-77165200D01*
X167138050Y-73653950D02*
X166039800Y-74752200D01*
X168922100Y-73653950D02*
X167138050Y-73653950D01*
G04 #@! TO.N,/Debug/SWCLK*
X165100000Y-73355200D02*
X165557200Y-73355200D01*
X164719000Y-73736200D02*
X165100000Y-73355200D01*
X164258050Y-75265700D02*
X164258050Y-74197150D01*
X164258050Y-74197150D02*
X164719000Y-73736200D01*
G04 #@! TO.N,/MCU/SDMMC1_D3*
X164566600Y-72491600D02*
X164566600Y-71438100D01*
X164566600Y-71438100D02*
X164592000Y-71412700D01*
G04 #@! TO.N,/MCU/SDMMC1_D2*
X161176300Y-72200100D02*
X161176300Y-71742900D01*
X163258050Y-75265700D02*
X163258050Y-74282750D01*
X163258050Y-74282750D02*
X163855400Y-73685400D01*
X163449000Y-72567800D02*
X161544000Y-72567800D01*
X163855400Y-73685400D02*
X163855400Y-72974200D01*
X163855400Y-72974200D02*
X163449000Y-72567800D01*
X161544000Y-72567800D02*
X161176300Y-72200100D01*
X161176300Y-71196200D02*
X161176300Y-71742900D01*
X161150900Y-70180200D02*
X161150900Y-71170800D01*
X161150900Y-71170800D02*
X161176300Y-71196200D01*
G04 #@! TO.N,3V3*
X159105600Y-71196200D02*
X159080200Y-71170800D01*
X159981300Y-71196200D02*
X159105600Y-71196200D01*
G04 #@! TO.N,Net-(J24-Pad1)*
X158826200Y-69697600D02*
X158826200Y-69011800D01*
G04 #@! TO.N,Net-(J24-Pad5)*
X158521400Y-67183000D02*
X158521400Y-67995800D01*
X158521400Y-67995800D02*
X157759400Y-68757800D01*
X157759400Y-68757800D02*
X157759400Y-70497100D01*
G04 #@! TO.N,Net-(J24-Pad1)*
X159955900Y-70180200D02*
X159308800Y-70180200D01*
X159308800Y-70180200D02*
X158826200Y-69697600D01*
X164090100Y-67343100D02*
X164090100Y-68396100D01*
X164090100Y-68396100D02*
X163677600Y-68808600D01*
X164090100Y-68396100D02*
X164090100Y-67139900D01*
G04 #@! TO.N,3V3*
X167446050Y-75971400D02*
X167446050Y-75073150D01*
X167446050Y-75073150D02*
X167487600Y-75031600D01*
G04 #@! TO.N,Net-(J24-Pad2)*
X164592000Y-70217700D02*
X164592000Y-69088000D01*
X164592000Y-69088000D02*
X165190100Y-68489900D01*
X165190100Y-68489900D02*
X165190100Y-67343100D01*
G04 #@! TO.N,/MCU/SDMMC1_D3*
X163499800Y-71463500D02*
X164541200Y-71463500D01*
X164541200Y-71463500D02*
X164592000Y-71412700D01*
G04 #@! TO.N,3V3*
X162648300Y-70268500D02*
X162560000Y-70180200D01*
X163499800Y-70268500D02*
X162648300Y-70268500D01*
G04 #@! TO.N,Net-(J24-Pad3)*
X167740400Y-72612550D02*
X166236950Y-72612550D01*
X166236950Y-72612550D02*
X165519100Y-71894700D01*
X165519100Y-71894700D02*
X165519100Y-69329300D01*
X165519100Y-69329300D02*
X166290100Y-68558300D01*
X166290100Y-68558300D02*
X166290100Y-67139900D01*
G04 #@! TO.N,3V3*
X170117100Y-72808500D02*
X170281600Y-72644000D01*
X170117100Y-73653950D02*
X170117100Y-72808500D01*
G04 #@! TO.N,/MCU/SDMMC1_CMD*
X160758050Y-76633250D02*
X160758050Y-75265700D01*
G04 #@! TO.N,/MCU/SDMMC1_D1*
X174955200Y-72123900D02*
X174955200Y-74803000D01*
X174955200Y-74803000D02*
X174269400Y-75488800D01*
X174269400Y-75488800D02*
X172542200Y-75488800D01*
X172542200Y-75488800D02*
X172212000Y-75819000D01*
X173913800Y-72123900D02*
X174955200Y-72123900D01*
G04 #@! TO.N,3V3*
X174955200Y-69850000D02*
X174980600Y-69824600D01*
X174955200Y-70928900D02*
X174955200Y-69850000D01*
G04 #@! TO.N,Net-(J24-Pad8)*
X173913800Y-70928900D02*
X173913800Y-70002400D01*
G04 #@! TO.N,GND*
X155490250Y-72668850D02*
X155490250Y-73338350D01*
X155490250Y-73338350D02*
X155092400Y-73736200D01*
X155092400Y-73736200D02*
X154228800Y-73736200D01*
X154228800Y-73736200D02*
X153758050Y-74206950D01*
X153758050Y-74206950D02*
X153758050Y-75265700D01*
G04 #@! TO.N,3V3*
X154355250Y-72668850D02*
X154355250Y-72974750D01*
X154355250Y-72974750D02*
X153258050Y-74071950D01*
X153258050Y-74071950D02*
X153258050Y-75265700D01*
G04 #@! TO.N,GND*
X135290600Y-73279000D02*
X134340600Y-73279000D01*
X125973800Y-78831400D02*
X125933200Y-78790800D01*
X135051800Y-90727100D02*
X135051800Y-91739650D01*
X136142250Y-91944600D02*
X135178800Y-92908050D01*
X167843200Y-86182200D02*
X167894000Y-86233000D01*
X169306600Y-70627600D02*
X169306600Y-71247000D01*
X139589700Y-64481900D02*
X138912600Y-63804800D01*
X145110200Y-98552000D02*
X145084800Y-98526600D01*
X136200050Y-93410800D02*
X136194800Y-93416051D01*
X168994900Y-90051700D02*
X169630450Y-90051700D01*
X156134213Y-112803413D02*
X156544550Y-113213750D01*
X153758050Y-98159150D02*
X153398600Y-98518600D01*
X135358200Y-95489800D02*
X135307400Y-95540600D01*
X153469000Y-67949700D02*
X152328500Y-67949700D01*
X136709200Y-95624600D02*
X136483600Y-95624600D01*
X147258050Y-96590700D02*
X147258050Y-97343950D01*
X142691800Y-58095200D02*
X142671800Y-58115200D01*
X173690100Y-52489900D02*
X174816300Y-52489900D01*
X176758600Y-77343000D02*
X174904400Y-77343000D01*
X150122000Y-107696000D02*
X149123400Y-107696000D01*
X137831500Y-58547000D02*
X137831500Y-59802700D01*
X167660400Y-77678200D02*
X168581050Y-76757550D01*
X162540100Y-68396700D02*
X162509200Y-68427600D01*
X169630450Y-90051700D02*
X170518900Y-90051700D01*
X158517950Y-111732750D02*
X159025950Y-112240750D01*
X151821900Y-104013000D02*
X150393400Y-104013000D01*
X151821900Y-104513000D02*
X150452200Y-104513000D01*
X167284400Y-109220000D02*
X167335200Y-109270800D01*
X153771600Y-112649000D02*
X153771600Y-112430700D01*
X130847500Y-87287700D02*
X130886200Y-87249000D01*
X169732050Y-75015450D02*
X169697400Y-74980800D01*
X154099124Y-110919124D02*
X153771600Y-110591600D01*
X129946400Y-80975200D02*
X129946400Y-81889600D01*
X127287000Y-125039600D02*
X128976600Y-125039600D01*
X137835000Y-73268200D02*
X137820400Y-73253600D01*
X142925800Y-90381200D02*
X142028800Y-90381200D01*
X136483600Y-95624600D02*
X136348800Y-95489800D01*
X144009300Y-67064700D02*
X143714300Y-67359700D01*
X154379526Y-110919124D02*
X154137574Y-110919124D01*
X179942300Y-58750200D02*
X180898800Y-58750200D01*
X143154400Y-92633800D02*
X141224000Y-92633800D01*
X153771600Y-112430700D02*
X154282924Y-111919376D01*
X149123400Y-107696000D02*
X149072600Y-107645200D01*
X165448926Y-99881500D02*
X165451675Y-99884249D01*
X138293251Y-96094601D02*
X138293251Y-95205600D01*
X140436600Y-92633800D02*
X141224000Y-92633800D01*
X143610000Y-92178200D02*
X143154400Y-92633800D01*
X144845550Y-92178200D02*
X143610000Y-92178200D01*
X137831500Y-53390800D02*
X137831500Y-54468700D01*
X139674600Y-93395800D02*
X140436600Y-92633800D01*
X142578900Y-99390201D02*
X143459201Y-99390201D01*
X137831500Y-54468700D02*
X138427200Y-55064400D01*
X174675800Y-77571600D02*
X174815500Y-77431900D01*
X175768000Y-79009200D02*
X175046600Y-79009200D01*
X138263202Y-90144600D02*
X136463200Y-91944600D01*
X127287000Y-126289600D02*
X128931200Y-126289600D01*
X167843200Y-85225700D02*
X167843200Y-86182200D01*
X158068550Y-112197750D02*
X157509750Y-112756550D01*
X152476200Y-106781600D02*
X152476200Y-107365800D01*
X162687000Y-124715800D02*
X161469600Y-124715800D01*
X133233200Y-77530050D02*
X133233200Y-76277550D01*
X131765001Y-80247849D02*
X131765001Y-81137799D01*
X169011600Y-69977000D02*
X169011600Y-70332600D01*
X142028100Y-83862100D02*
X141097000Y-83862100D01*
X174904400Y-77343000D02*
X174815500Y-77431900D01*
X164134800Y-124155200D02*
X165011850Y-124155200D01*
X129946400Y-84138100D02*
X130923700Y-84138100D01*
X156719051Y-111419250D02*
X157264650Y-111419250D01*
X162540100Y-67139900D02*
X162540100Y-68396700D01*
X138427200Y-55880000D02*
X139446000Y-55880000D01*
X178096800Y-77388000D02*
X176803600Y-77388000D01*
X138427200Y-61036200D02*
X139395200Y-61036200D01*
X138733550Y-80975200D02*
X137795000Y-80975200D01*
X155674950Y-71170250D02*
X155674950Y-70104550D01*
X125897600Y-85130600D02*
X125882400Y-85115400D01*
X158318200Y-98653600D02*
X158318200Y-99169600D01*
X138427200Y-60398400D02*
X138427200Y-61036200D01*
X134835300Y-81090100D02*
X134823200Y-81102200D01*
X150452200Y-104513000D02*
X149707600Y-105257600D01*
X176803600Y-77388000D02*
X176758600Y-77343000D01*
X158758050Y-74413950D02*
X158758050Y-75265700D01*
X158758050Y-96590700D02*
X158758050Y-98213750D01*
X136469200Y-69384500D02*
X136560600Y-69293100D01*
X174675800Y-78638400D02*
X174675800Y-78257400D01*
X143714300Y-67949700D02*
X142600300Y-67949700D01*
X144009300Y-66686200D02*
X143041600Y-66686200D01*
X164437400Y-119405400D02*
X165582600Y-119405400D01*
X159029400Y-73710800D02*
X159943800Y-73710800D01*
X134835300Y-80133550D02*
X134835300Y-81090100D01*
X173690100Y-62839900D02*
X175031100Y-62839900D01*
X152817600Y-66686200D02*
X152806400Y-66675000D01*
X153398600Y-99152625D02*
X153398600Y-100041075D01*
X139827000Y-64481900D02*
X139589700Y-64481900D01*
X174816300Y-52489900D02*
X174879000Y-52552600D01*
X138293251Y-96094600D02*
X139084000Y-96094600D01*
X143459201Y-99390201D02*
X143535400Y-99466400D01*
X156134213Y-112254151D02*
X156134213Y-112803413D01*
X168621400Y-89678200D02*
X168994900Y-90051700D01*
X172740100Y-68142900D02*
X172740100Y-68269900D01*
X138733550Y-79857600D02*
X137744200Y-79857600D01*
X155049249Y-110919124D02*
X154379526Y-110919124D01*
X168581050Y-75971400D02*
X168581050Y-75106550D01*
X127304800Y-132613400D02*
X128312100Y-132613400D01*
X130923700Y-84138100D02*
X130937000Y-84124800D01*
X157578150Y-111732750D02*
X158068550Y-111732750D01*
X138743800Y-73268200D02*
X137835000Y-73268200D01*
X143714300Y-67359700D02*
X143714300Y-67949700D01*
X137176700Y-93410800D02*
X136200050Y-93410800D01*
X128976600Y-125039600D02*
X129032000Y-125095000D01*
X137687900Y-109246200D02*
X139167400Y-109246200D01*
X139084000Y-96094600D02*
X139674600Y-95504000D01*
X157509750Y-112324750D02*
X157509750Y-112756550D01*
X142844200Y-84678200D02*
X142028100Y-83862100D01*
X129921000Y-87287700D02*
X130847500Y-87287700D01*
X144742500Y-103923500D02*
X144653000Y-104013000D01*
X164891000Y-109220000D02*
X167284400Y-109220000D01*
X157331950Y-112146950D02*
X157509750Y-112324750D01*
X175046600Y-79009200D02*
X174752000Y-78714600D01*
X152486900Y-106770900D02*
X152476200Y-106781600D01*
X155674950Y-71170250D02*
X155674950Y-71780950D01*
X156719051Y-111919376D02*
X157104376Y-111919376D01*
X153398600Y-98518600D02*
X153398600Y-99152625D01*
X153398600Y-100041075D02*
X153372650Y-100067025D01*
X142608900Y-99360201D02*
X142578900Y-99390201D01*
X149910800Y-108999000D02*
X149954000Y-109042200D01*
X138293251Y-96094601D02*
X137852200Y-96094600D01*
X127251700Y-78831400D02*
X125973800Y-78831400D01*
X137852200Y-96094600D02*
X137382200Y-95624600D01*
X149377400Y-69939500D02*
X149377400Y-70916800D01*
X144845550Y-84678200D02*
X142844200Y-84678200D01*
X168581050Y-76757550D02*
X168581050Y-75971400D01*
X153746200Y-66686200D02*
X152817600Y-66686200D01*
X154137574Y-110919124D02*
X154099124Y-110919124D01*
X134340600Y-73279000D02*
X134289800Y-73228200D01*
X136469200Y-70660500D02*
X136469200Y-69384500D01*
X165837400Y-117373400D02*
X167132000Y-117373400D01*
X159029400Y-74142600D02*
X158758050Y-74413950D01*
X144009300Y-66686200D02*
X144009300Y-67064700D01*
X139695000Y-69384500D02*
X139761000Y-69318500D01*
X146015900Y-98552000D02*
X145110200Y-98552000D01*
X158250000Y-100068000D02*
X158165800Y-100152200D01*
X148700300Y-103996300D02*
X148691600Y-103987600D01*
X174752000Y-78714600D02*
X174675800Y-78638400D01*
X168581050Y-75106550D02*
X168605200Y-75082400D01*
X137795000Y-80975200D02*
X137769600Y-81000600D01*
X157264650Y-111419250D02*
X157578150Y-111732750D01*
X166116000Y-95952700D02*
X166090600Y-95927300D01*
X159719550Y-112240750D02*
X159719550Y-113514650D01*
X137831500Y-59802700D02*
X138427200Y-60398400D01*
X171932600Y-82118200D02*
X172847000Y-82118200D01*
X127251700Y-81981000D02*
X125948400Y-81981000D01*
X145161000Y-75421300D02*
X144348200Y-75421300D01*
X143191900Y-69646800D02*
X142177100Y-69646799D01*
X149954000Y-109042200D02*
X148920200Y-109042200D01*
X158250000Y-99237800D02*
X158250000Y-100068000D01*
X140224700Y-77089000D02*
X140224700Y-76191300D01*
X140165900Y-83862100D02*
X140157200Y-83870800D01*
X169011600Y-69291200D02*
X169011600Y-69977000D01*
X139395200Y-61036200D02*
X139420600Y-61010800D01*
X180771800Y-75488000D02*
X180771800Y-77688000D01*
X150317200Y-104089200D02*
X149698900Y-104089200D01*
X148920200Y-109042200D02*
X148767800Y-108889800D01*
X147258050Y-97343950D02*
X146050000Y-98552000D01*
X169590100Y-68712700D02*
X169011600Y-69291200D01*
X152445400Y-58135200D02*
X152450800Y-58140600D01*
X149606000Y-103996300D02*
X148700300Y-103996300D01*
X128312100Y-132613400D02*
X128328800Y-132630100D01*
X165582600Y-119405400D02*
X165633400Y-119456200D01*
X149377400Y-70916800D02*
X149453600Y-70993000D01*
X150122000Y-107696000D02*
X150122000Y-108018200D01*
X158530100Y-107873800D02*
X159486600Y-107873800D01*
X159719550Y-113514650D02*
X159744950Y-113540050D01*
X180771800Y-79688000D02*
X180771800Y-81888000D01*
X158068550Y-111732750D02*
X158068550Y-112197750D01*
X146050000Y-98552000D02*
X146015900Y-98552000D01*
X169519600Y-85590200D02*
X170934200Y-85590200D01*
X172740100Y-68269900D02*
X173304200Y-68834000D01*
X142600300Y-67949700D02*
X142570200Y-67919600D01*
X169732050Y-75937300D02*
X169732050Y-75015450D01*
X129946400Y-81889600D02*
X129921000Y-81915000D01*
X125948400Y-81981000D02*
X125882400Y-81915000D01*
X164891000Y-109220000D02*
X166116000Y-109220000D01*
X166116000Y-109220000D02*
X166192200Y-109296200D01*
X169306600Y-71247000D02*
X170434000Y-71247000D01*
X167843200Y-85115400D02*
X167843200Y-85225700D01*
X158318200Y-99169600D02*
X158250000Y-99237800D01*
X141097000Y-83862100D02*
X140165900Y-83862100D01*
X154379526Y-110919124D02*
X154326124Y-110919124D01*
X153746200Y-66686200D02*
X153746200Y-66979800D01*
X155674950Y-71780950D02*
X155447450Y-72008450D01*
X143041600Y-66686200D02*
X143027400Y-66700400D01*
X163574200Y-124715800D02*
X164134800Y-124155200D01*
X153486900Y-106014300D02*
X154228800Y-106756200D01*
X166170550Y-77678200D02*
X167660400Y-77678200D01*
X170518900Y-90051700D02*
X170561000Y-90093800D01*
X139167400Y-109246200D02*
X139217400Y-109296200D01*
X153670000Y-66610000D02*
X153746200Y-66686200D01*
X152328500Y-67949700D02*
X152323800Y-67945000D01*
X138912600Y-63804800D02*
X137843000Y-63804800D01*
X144737900Y-101974950D02*
X144737900Y-103037150D01*
X160948400Y-124194600D02*
X159461600Y-124194600D01*
X136459000Y-77530050D02*
X136459000Y-76328350D01*
X169011600Y-70332600D02*
X169306600Y-70627600D01*
X139827000Y-64481900D02*
X139827000Y-63525400D01*
X158068550Y-111732750D02*
X158517950Y-111732750D01*
X166170550Y-89678200D02*
X168621400Y-89678200D01*
X174675800Y-78257400D02*
X174675800Y-77571600D01*
X144737900Y-103037150D02*
X144742500Y-103041750D01*
X166116000Y-96866900D02*
X166116000Y-95952700D01*
X139827000Y-63525400D02*
X139852400Y-63500000D01*
X169926000Y-69977000D02*
X169951400Y-70002400D01*
X140224700Y-76191300D02*
X140208000Y-76174600D01*
X130784600Y-73279000D02*
X130759200Y-73253600D01*
X139695000Y-70660500D02*
X139695000Y-69384500D01*
X127322200Y-58674000D02*
X128295400Y-58674000D01*
X167843200Y-85225700D02*
X168309100Y-85225700D01*
X169590100Y-67139900D02*
X169590100Y-68712700D01*
X175031100Y-62839900D02*
X175056800Y-62814200D01*
X166170550Y-84178200D02*
X166906000Y-84178200D01*
X155049249Y-111919376D02*
X154282924Y-111919376D01*
X150393400Y-104013000D02*
X150317200Y-104089200D01*
X172740100Y-67139900D02*
X172740100Y-68142900D01*
X142028800Y-90381200D02*
X141986000Y-90424000D01*
X155447450Y-72008450D02*
X155447450Y-72626050D01*
X153746200Y-66979800D02*
X153469000Y-67257000D01*
X153758050Y-96590700D02*
X153758050Y-98159150D01*
X153486900Y-105178000D02*
X153486900Y-106014300D01*
X133243400Y-70660500D02*
X133243400Y-69359100D01*
X138293251Y-95205600D02*
X138217051Y-95129400D01*
X143941800Y-66618700D02*
X144009300Y-66686200D01*
X157104376Y-111919376D02*
X157331950Y-112146950D01*
X139674600Y-95504000D02*
X139674600Y-93395800D01*
X143941800Y-64857400D02*
X143941800Y-66618700D01*
X155490250Y-72668850D02*
X156438050Y-72668850D01*
X166906000Y-84178200D02*
X167843200Y-85115400D01*
X169011600Y-69977000D02*
X169926000Y-69977000D01*
X164566600Y-99881500D02*
X165448926Y-99881500D01*
X150122000Y-108018200D02*
X149910800Y-108229400D01*
X136348800Y-95489800D02*
X135358200Y-95489800D01*
X128931200Y-126289600D02*
X129006600Y-126365000D01*
X137619400Y-121204200D02*
X139339800Y-121204200D01*
X161469600Y-124715800D02*
X160948400Y-124194600D01*
X160190100Y-52039900D02*
X158780100Y-52039900D01*
X142691800Y-56589200D02*
X142691800Y-58095200D01*
X180898800Y-58750200D02*
X180924200Y-58775600D01*
X177681000Y-132410200D02*
X176682400Y-132410200D01*
X139339800Y-121204200D02*
X139344400Y-121208800D01*
X152445400Y-56589200D02*
X152445400Y-58135200D01*
X136463200Y-91944600D02*
X136142250Y-91944600D01*
X153670000Y-64857400D02*
X153670000Y-66610000D01*
X162687000Y-124715800D02*
X163574200Y-124715800D01*
X158780100Y-52039900D02*
X158775400Y-52044600D01*
X165011850Y-124155200D02*
X165086950Y-124230300D01*
X165086950Y-124230300D02*
X166191100Y-124230300D01*
X138427200Y-55064400D02*
X138427200Y-55880000D01*
X137382200Y-95624600D02*
X136709200Y-95624600D01*
X144742500Y-103041750D02*
X144742500Y-103923500D01*
X149698900Y-104089200D02*
X149606000Y-103996300D01*
X142608900Y-98323400D02*
X142608900Y-99360201D01*
X131765001Y-81137799D02*
X131749800Y-81153000D01*
X166191100Y-124230300D02*
X166217600Y-124256800D01*
X127251700Y-85130600D02*
X125897600Y-85130600D01*
X159025950Y-112240750D02*
X159719550Y-112240750D01*
X152486900Y-105178000D02*
X152486900Y-106770900D01*
X158758050Y-98213750D02*
X158318200Y-98653600D01*
X159029400Y-73710800D02*
X159029400Y-74142600D01*
X168673600Y-85590200D02*
X169519600Y-85590200D01*
X133243400Y-69359100D02*
X133309400Y-69293100D01*
X168309100Y-85225700D02*
X168673600Y-85590200D01*
X131696850Y-73279000D02*
X130784600Y-73279000D01*
X149910800Y-108229400D02*
X149910800Y-108999000D01*
X153469000Y-67257000D02*
X153469000Y-67949700D01*
X170934200Y-85590200D02*
X170942000Y-85598000D01*
G04 #@! TO.N,3V3*
X166116000Y-98001900D02*
X166116000Y-98628200D01*
X145161000Y-74286300D02*
X146650900Y-74286300D01*
X143191900Y-70662799D02*
X142227900Y-70662799D01*
X141060600Y-93178200D02*
X140360400Y-93878400D01*
X157894400Y-73710800D02*
X157894400Y-74023600D01*
X167142600Y-83678200D02*
X167555100Y-84090700D01*
X141097000Y-84997100D02*
X140140500Y-84997100D01*
X154258050Y-96590700D02*
X154258050Y-98047850D01*
X150257700Y-102861300D02*
X150909400Y-103513000D01*
X155829000Y-107035600D02*
X156159200Y-106705400D01*
X175412400Y-60883800D02*
X175564800Y-61036200D01*
X124028200Y-67614800D02*
X124002800Y-67589400D01*
X145144300Y-66686200D02*
X146086600Y-66686200D01*
X152577800Y-112662300D02*
X151726300Y-112662300D01*
X141359700Y-76242100D02*
X141376400Y-76225400D01*
X168156700Y-84090700D02*
X168732200Y-83515200D01*
X167876600Y-70324600D02*
X167581600Y-70619600D01*
X143484600Y-77978000D02*
X142595600Y-77089000D01*
X172720000Y-70674900D02*
X172745400Y-70649500D01*
X159258050Y-98653650D02*
X159385000Y-98780600D01*
X167235000Y-110720000D02*
X167284400Y-110769400D01*
X158550950Y-110597750D02*
X158982950Y-110165750D01*
X159258050Y-96590700D02*
X159258050Y-98653650D01*
X142925800Y-91516200D02*
X142036800Y-91516200D01*
X167581600Y-71247000D02*
X166420800Y-71247000D01*
X154940000Y-64857400D02*
X154940000Y-66627400D01*
X168682600Y-89178200D02*
X168944100Y-88916700D01*
X140360400Y-95808800D02*
X138939600Y-97229600D01*
X138293250Y-97229600D02*
X138293250Y-98304400D01*
X154355250Y-72160850D02*
X154355250Y-72668850D01*
X167876600Y-69197600D02*
X167876600Y-69977000D01*
X158982950Y-110165750D02*
X159719550Y-110165750D01*
X154258050Y-98047850D02*
X154533600Y-98323400D01*
X158258050Y-74387250D02*
X158258050Y-75265700D01*
X167876600Y-69977000D02*
X167876600Y-70324600D01*
X151679000Y-109042200D02*
X152831800Y-109042200D01*
X124053600Y-62992000D02*
X124028200Y-62966600D01*
X158068550Y-109657750D02*
X158093950Y-109632350D01*
X151986900Y-105178000D02*
X151986900Y-106026300D01*
X164891000Y-110720000D02*
X167235000Y-110720000D01*
X144845550Y-91678200D02*
X143748200Y-91678200D01*
X135383600Y-97699600D02*
X135332800Y-97750400D01*
X125162200Y-62992000D02*
X124053600Y-62992000D01*
X167594050Y-105054400D02*
X166616750Y-105054400D01*
X159461600Y-121894600D02*
X162558200Y-121894600D01*
X138939600Y-97229600D02*
X138293251Y-97229600D01*
X135813800Y-61036200D02*
X135839200Y-61061600D01*
X167843200Y-84090700D02*
X167843200Y-83185000D01*
X140360400Y-93878400D02*
X140360400Y-95808800D01*
X153949950Y-71170250D02*
X153949950Y-70051550D01*
X158068550Y-110597750D02*
X158068550Y-109657750D01*
X169519600Y-83515200D02*
X170865800Y-83515200D01*
X147701000Y-98552000D02*
X148005800Y-98247200D01*
X149377400Y-66216600D02*
X149377400Y-65354200D01*
X150909400Y-103513000D02*
X151821900Y-103513000D01*
X159385000Y-99237800D02*
X159385000Y-100203000D01*
X147758050Y-97478950D02*
X147150900Y-98086100D01*
X166170550Y-83678200D02*
X167142600Y-83678200D01*
X125162200Y-69951600D02*
X124028200Y-69951600D01*
X148700300Y-102861300D02*
X148691600Y-102870000D01*
X155194000Y-67310000D02*
X155194000Y-67949700D01*
X167843200Y-83185000D02*
X167868600Y-83159600D01*
X165032500Y-98001900D02*
X164258050Y-97227450D01*
X145439300Y-67949700D02*
X146578700Y-67949700D01*
X157395100Y-107873800D02*
X157395100Y-106917300D01*
X143586200Y-91516200D02*
X142925800Y-91516200D01*
X138293251Y-97229600D02*
X138038000Y-97229600D01*
X145144300Y-66686200D02*
X145144300Y-67064700D01*
X154940000Y-66627400D02*
X154881200Y-66686200D01*
X155634087Y-112254151D02*
X155634087Y-112854213D01*
X146758050Y-74393450D02*
X146758050Y-75265700D01*
X157894400Y-73710800D02*
X156921200Y-73710800D01*
X153949950Y-71170250D02*
X153949950Y-71755550D01*
X154881200Y-66686200D02*
X155792400Y-66686200D01*
X159385000Y-98780600D02*
X159385000Y-99237800D01*
X144845550Y-93178200D02*
X141060600Y-93178200D01*
X146578700Y-67949700D02*
X146583400Y-67945000D01*
X151986900Y-106026300D02*
X151231600Y-106781600D01*
X156719051Y-110919124D02*
X157213576Y-110919124D01*
X151257000Y-107696000D02*
X151257000Y-106832400D01*
X146086600Y-66686200D02*
X146100800Y-66700400D01*
X166116000Y-98628200D02*
X165760400Y-98983800D01*
X153949950Y-71755550D02*
X154355250Y-72160850D01*
X164258050Y-97227450D02*
X164258050Y-96590700D01*
X167555100Y-84090700D02*
X167843200Y-84090700D01*
X143748200Y-91678200D02*
X143586200Y-91516200D01*
X151257000Y-108204000D02*
X151257000Y-107696000D01*
X175412400Y-59322300D02*
X175412400Y-60883800D01*
X125162200Y-67614800D02*
X124028200Y-67614800D01*
X125162200Y-72224300D02*
X124079000Y-72224300D01*
X142036800Y-91516200D02*
X141986000Y-91567000D01*
X149606000Y-102861300D02*
X148700300Y-102861300D01*
X156316300Y-67949700D02*
X156337000Y-67970400D01*
X142595600Y-77089000D02*
X141359700Y-77089000D01*
X170526900Y-88916700D02*
X170535600Y-88925400D01*
X156134213Y-110584349D02*
X156134213Y-110118887D01*
X157534950Y-110597750D02*
X158068550Y-110597750D01*
X155829000Y-107758900D02*
X155829000Y-107035600D01*
X167446050Y-76749550D02*
X167017400Y-77178200D01*
X156921200Y-73710800D02*
X156895800Y-73685400D01*
X154881200Y-66997200D02*
X155194000Y-67310000D01*
X140140500Y-84997100D02*
X140131800Y-84988400D01*
X142506000Y-85178200D02*
X144845550Y-85178200D01*
X124028200Y-65303400D02*
X124002800Y-65278000D01*
X136709200Y-97699600D02*
X135383600Y-97699600D01*
X154533600Y-100034175D02*
X154541050Y-100041625D01*
X167446050Y-75971400D02*
X167446050Y-76749550D01*
X143484600Y-79324200D02*
X143484600Y-77978000D01*
X141097000Y-84997100D02*
X142324900Y-84997100D01*
X167390100Y-67139900D02*
X167390100Y-68711100D01*
X145161000Y-74286300D02*
X144314800Y-74286300D01*
X162558200Y-121894600D02*
X162687000Y-121765800D01*
X146650900Y-74286300D02*
X146758050Y-74393450D01*
X157213576Y-110919124D02*
X157534950Y-110597750D01*
X163498000Y-121765800D02*
X164237500Y-122505300D01*
X155792400Y-66686200D02*
X155829000Y-66649600D01*
X154881200Y-66686200D02*
X154881200Y-66997200D01*
X162687000Y-121765800D02*
X163498000Y-121765800D01*
X166116000Y-98001900D02*
X165032500Y-98001900D01*
X167017400Y-77178200D02*
X166170550Y-77178200D01*
X151726300Y-112662300D02*
X151688800Y-112699800D01*
X166954200Y-69977000D02*
X166928800Y-69951600D01*
X134760300Y-61036200D02*
X135813800Y-61036200D01*
X154533600Y-99152625D02*
X154533600Y-100034175D01*
X155634087Y-112854213D02*
X155274550Y-113213750D01*
X125162200Y-76809600D02*
X123977400Y-76809600D01*
X158068550Y-110597750D02*
X158550950Y-110597750D01*
X145211800Y-64857400D02*
X145211800Y-66618700D01*
X144845550Y-79678200D02*
X143838600Y-79678200D01*
X164237500Y-122505300D02*
X165086950Y-122505300D01*
X134722800Y-55880000D02*
X135712200Y-55880000D01*
X166117100Y-122505300D02*
X166192200Y-122580400D01*
X145439300Y-67359700D02*
X145439300Y-67949700D01*
X167390100Y-68711100D02*
X167876600Y-69197600D01*
X168732200Y-83515200D02*
X169519600Y-83515200D01*
X172720000Y-71626800D02*
X172720000Y-70674900D01*
X166170550Y-89178200D02*
X168682600Y-89178200D01*
X155194000Y-67949700D02*
X156316300Y-67949700D01*
X165086950Y-122505300D02*
X166117100Y-122505300D01*
X125162200Y-65303400D02*
X124028200Y-65303400D01*
X167588000Y-106172000D02*
X166661500Y-106172000D01*
X125162200Y-60680600D02*
X124002800Y-60680600D01*
X137568000Y-97699600D02*
X136709200Y-97699600D01*
X167843200Y-84090700D02*
X168156700Y-84090700D01*
X157395100Y-108858000D02*
X157395100Y-107873800D01*
X167581600Y-70619600D02*
X167581600Y-71247000D01*
X147150900Y-98086100D02*
X147150900Y-98552000D01*
X169630450Y-88916700D02*
X170526900Y-88916700D01*
X145144300Y-67064700D02*
X145439300Y-67359700D01*
X125162200Y-74523600D02*
X123977400Y-74523600D01*
X167876600Y-69977000D02*
X166954200Y-69977000D01*
X168944100Y-88916700D02*
X169630450Y-88916700D01*
X156134213Y-110118887D02*
X156551663Y-109701437D01*
X149606000Y-102861300D02*
X150257700Y-102861300D01*
X159719550Y-110165750D02*
X159719550Y-108968050D01*
X151679000Y-108626000D02*
X151257000Y-108204000D01*
X149377400Y-65354200D02*
X149479000Y-65252600D01*
X138038000Y-97229600D02*
X137568000Y-97699600D01*
X143838600Y-79678200D02*
X143484600Y-79324200D01*
X157894400Y-74023600D02*
X158258050Y-74387250D01*
X142324900Y-84997100D02*
X142506000Y-85178200D01*
X145211800Y-66618700D02*
X145144300Y-66686200D01*
X134836500Y-66268600D02*
X135813800Y-66268600D01*
X154355250Y-72668850D02*
X153440850Y-72668850D01*
X141359700Y-77089000D02*
X141359700Y-76242100D01*
X156551663Y-109701437D02*
X157395100Y-108858000D01*
X147150900Y-98552000D02*
X147701000Y-98552000D01*
X147758050Y-96590700D02*
X147758050Y-97478950D01*
X166661500Y-106172000D02*
X166636100Y-106146600D01*
X154533600Y-98323400D02*
X154533600Y-99152625D01*
X157395100Y-106917300D02*
X157454600Y-106857800D01*
D70*
G04 #@! TO.N,5V*
X161340800Y-119405400D02*
X161137600Y-119608600D01*
X162712400Y-119405400D02*
X161340800Y-119405400D01*
X140055600Y-113258600D02*
X139522200Y-113258600D01*
X173888400Y-115620800D02*
X173888400Y-125857000D01*
X173888400Y-128752600D02*
X174472600Y-129336800D01*
X141478000Y-114477800D02*
X140843000Y-115112800D01*
X140843000Y-116560600D02*
X139949400Y-117454200D01*
X131114800Y-114274600D02*
X132130800Y-113258600D01*
X137687900Y-102996200D02*
X139978600Y-102996200D01*
X174904400Y-85191400D02*
X174904400Y-86334600D01*
X140792200Y-112522000D02*
X140055600Y-113258600D01*
X174828200Y-108889800D02*
X173888400Y-109829600D01*
X130439400Y-100289600D02*
X129159000Y-100289600D01*
X162712400Y-117373400D02*
X162712400Y-115341400D01*
X131114800Y-115722600D02*
X131114800Y-114274600D01*
X140843000Y-115112800D02*
X140843000Y-116560600D01*
X175706000Y-108767800D02*
X178246000Y-108767800D01*
X174904400Y-86334600D02*
X174282100Y-86956900D01*
X173837600Y-87401400D02*
X173837600Y-107899200D01*
X161137600Y-119608600D02*
X161123600Y-119594600D01*
X175457000Y-129336800D02*
X175706000Y-129087800D01*
X161848800Y-114477800D02*
X162712400Y-115341400D01*
X130987800Y-98221800D02*
X130987800Y-99822000D01*
X163372800Y-114681000D02*
X172897800Y-114681000D01*
X173888400Y-125857000D02*
X174579200Y-126547800D01*
X174579200Y-126547800D02*
X174416800Y-126547800D01*
X174579200Y-126547800D02*
X175706000Y-126547800D01*
X131114800Y-100965000D02*
X131114800Y-112242600D01*
X130515600Y-97749600D02*
X130987800Y-98221800D01*
X175996600Y-86334600D02*
X176423400Y-85907800D01*
X140792200Y-103809800D02*
X140792200Y-112522000D01*
X139949400Y-117454200D02*
X137619400Y-117454200D01*
X174904400Y-86334600D02*
X175996600Y-86334600D01*
X172897800Y-114681000D02*
X173888400Y-113690400D01*
X140055600Y-113258600D02*
X141274800Y-114477800D01*
X129159000Y-97749600D02*
X130515600Y-97749600D01*
X162712400Y-117373400D02*
X162712400Y-119405400D01*
X139978600Y-102996200D02*
X140792200Y-103809800D01*
X141274800Y-114477800D02*
X141478000Y-114477800D01*
X139522200Y-113258600D02*
X132130800Y-113258600D01*
X141478000Y-114477800D02*
X161848800Y-114477800D01*
X173837600Y-107899200D02*
X174828200Y-108889800D01*
X132130800Y-113258600D02*
X131114800Y-112242600D01*
X174472600Y-129336800D02*
X175457000Y-129336800D01*
X173888400Y-127076200D02*
X173888400Y-128752600D01*
X174416800Y-126547800D02*
X173888400Y-127076200D01*
X130479800Y-100330000D02*
X130439400Y-100289600D01*
X130439400Y-100289600D02*
X131114800Y-100965000D01*
X130987800Y-99822000D02*
X130479800Y-100330000D01*
X174828200Y-108889800D02*
X175584000Y-108889800D01*
X172897800Y-114681000D02*
X172948600Y-114681000D01*
X174282100Y-86956900D02*
X173837600Y-87401400D01*
X176423400Y-85907800D02*
X178246000Y-85907800D01*
X162712400Y-115341400D02*
X163372800Y-114681000D01*
X161123600Y-119594600D02*
X159461600Y-119594600D01*
X173888400Y-109829600D02*
X173888400Y-113690400D01*
X172948600Y-114681000D02*
X173888400Y-115620800D01*
X175584000Y-108889800D02*
X175706000Y-108767800D01*
D69*
G04 #@! TO.N,/Conexiones_extra/SPI_SCK*
X132054600Y-88696800D02*
X132054600Y-92100400D01*
X144845550Y-86178200D02*
X134573200Y-86178200D01*
X131485400Y-92669600D02*
X129159000Y-92669600D01*
X134573200Y-86178200D02*
X132054600Y-88696800D01*
X132054600Y-92100400D02*
X131485400Y-92669600D01*
G04 #@! TO.N,/Conexiones_extra/SPI_MOSI*
X133197600Y-88976200D02*
X133197600Y-95224600D01*
X127899400Y-96469200D02*
X126619000Y-97749600D01*
X144845550Y-87178200D02*
X134995600Y-87178200D01*
X133197600Y-95224600D02*
X131953000Y-96469200D01*
X134995600Y-87178200D02*
X133197600Y-88976200D01*
X131953000Y-96469200D02*
X130225800Y-96469200D01*
X130225800Y-96469200D02*
X127899400Y-96469200D01*
G04 #@! TO.N,/Conexiones_extra/SPI_CS*
X131495800Y-88595200D02*
X131495800Y-90474800D01*
X134412800Y-85678200D02*
X131495800Y-88595200D01*
X131495800Y-90474800D02*
X130606800Y-91363800D01*
X130606800Y-91363800D02*
X127924800Y-91363800D01*
X127924800Y-91363800D02*
X126619000Y-92669600D01*
X144845550Y-85678200D02*
X134412800Y-85678200D01*
G04 #@! TO.N,/Conexiones_extra/SPI_MISO*
X134835200Y-86678200D02*
X132664200Y-88849200D01*
X131572000Y-93929200D02*
X127899400Y-93929200D01*
X132664200Y-88849200D02*
X132664200Y-92837000D01*
X127899400Y-93929200D02*
X126619000Y-95209600D01*
X132664200Y-92837000D02*
X131572000Y-93929200D01*
X144845550Y-86678200D02*
X134835200Y-86678200D01*
G04 #@! TO.N,/Conexiones_extra/SPI_EOC*
X126619000Y-90129600D02*
X128128000Y-88620600D01*
X130784600Y-88620600D02*
X136347200Y-83058000D01*
X142494000Y-83058000D02*
X143614200Y-84178200D01*
X143614200Y-84178200D02*
X144845550Y-84178200D01*
X128128000Y-88620600D02*
X130784600Y-88620600D01*
X136347200Y-83058000D02*
X142494000Y-83058000D01*
G04 #@! TO.N,Net-(C9-Pad1)*
X143560800Y-110845600D02*
X143560800Y-113157000D01*
X143602900Y-101974950D02*
X143602900Y-102986350D01*
X143078200Y-105689400D02*
X142748000Y-106019600D01*
X130292000Y-123789600D02*
X130302000Y-123799600D01*
X143547500Y-100914200D02*
X143547500Y-101919550D01*
X127287000Y-123789600D02*
X130292000Y-123789600D01*
X143602900Y-102986350D02*
X143547500Y-103041750D01*
X142748000Y-110032800D02*
X143560800Y-110845600D01*
X143547500Y-105220100D02*
X143078200Y-105689400D01*
X143547500Y-103041750D02*
X143547500Y-105220100D01*
X143547500Y-101919550D02*
X143602900Y-101974950D01*
X142748000Y-106019600D02*
X142748000Y-110032800D01*
G04 #@! TO.N,Net-(C10-Pad1)*
X141413900Y-99360201D02*
X141443900Y-99390201D01*
X141443900Y-99390201D02*
X141443900Y-102835900D01*
X141413900Y-97231201D02*
X141413900Y-98323400D01*
X141443900Y-102835900D02*
X141833600Y-103225600D01*
X141833600Y-103225600D02*
X141833600Y-111353600D01*
X141413900Y-98323400D02*
X141413900Y-99360201D01*
X127287000Y-122539600D02*
X130286600Y-122539600D01*
X130286600Y-122539600D02*
X130302000Y-122555000D01*
X141833600Y-111353600D02*
X142494000Y-112014000D01*
G04 #@! TO.N,Net-(C29-Pad1)*
X138311700Y-91993099D02*
X138263200Y-91944600D01*
X138311700Y-93410800D02*
X138311700Y-91993099D01*
X138263200Y-91944600D02*
X139485802Y-91944600D01*
X139965002Y-91465400D02*
X139965002Y-91046900D01*
X139485802Y-91944600D02*
X139965002Y-91465400D01*
G04 #@! TO.N,/Sensores/GNSS_Tx*
X137768700Y-104165400D02*
X137687900Y-104246200D01*
X143786400Y-93678200D02*
X142059200Y-93678200D01*
X144845550Y-93678200D02*
X143786400Y-93678200D01*
X139446000Y-104165400D02*
X137768700Y-104165400D01*
X142059200Y-93678200D02*
X141401800Y-94335600D01*
G04 #@! TO.N,/Sensores/GNSS_Rx*
X142626000Y-94178200D02*
X141351000Y-95453200D01*
X144845550Y-94178200D02*
X142626000Y-94178200D01*
X139334400Y-105496200D02*
X139446000Y-105384600D01*
X137687900Y-105496200D02*
X139334400Y-105496200D01*
G04 #@! TO.N,/MCU/VCAP_1*
X163855400Y-98501200D02*
X163855400Y-98120200D01*
X163758050Y-98022850D02*
X163758050Y-96590700D01*
X164100700Y-98746500D02*
X163855400Y-98501200D01*
X164566600Y-98746500D02*
X164100700Y-98746500D01*
X163855400Y-98120200D02*
X163758050Y-98022850D01*
G04 #@! TO.N,/MCU/VCAP_2*
X169732050Y-77072300D02*
X169079100Y-77072300D01*
X167973200Y-78178200D02*
X166170550Y-78178200D01*
X169079100Y-77072300D02*
X167973200Y-78178200D01*
G04 #@! TO.N,/Conexiones_extra/I2CA_SCL*
X162758050Y-96590700D02*
X162758050Y-98171500D01*
X162758050Y-98171500D02*
X162606150Y-98323400D01*
X168783000Y-107086400D02*
X168808400Y-107111800D01*
X168783000Y-106172000D02*
X168783000Y-107086400D01*
G04 #@! TO.N,/Interfaz_CAN/CAN1+*
X143941800Y-56589200D02*
X143941800Y-59907400D01*
G04 #@! TO.N,/MCU/BOOT0*
X149758050Y-72643650D02*
X149758050Y-75265700D01*
X148882698Y-68744500D02*
X148539199Y-69087999D01*
X149758050Y-72643650D02*
X148539199Y-71424799D01*
X149377400Y-67411600D02*
X149377400Y-68744500D01*
X149377400Y-68744500D02*
X148882698Y-68744500D01*
X148539199Y-71424799D02*
X148539199Y-69087999D01*
G04 #@! TO.N,/MCU/PDR_ON*
X145148300Y-73571100D02*
X144386900Y-72809700D01*
X146900900Y-73571100D02*
X145148300Y-73571100D01*
X144386900Y-72809700D02*
X144386900Y-70662799D01*
X147248800Y-73919000D02*
X146900900Y-73571100D01*
X147248800Y-75274400D02*
X147248800Y-73919000D01*
X144386900Y-69646800D02*
X144386900Y-70662799D01*
G04 #@! TO.N,/Interfaz_CAN/CAN1-*
X145191800Y-56589200D02*
X145191800Y-59887400D01*
X145191800Y-59887400D02*
X145211800Y-59907400D01*
G04 #@! TO.N,/Sensores/GNSS_SDA*
X155758050Y-96590700D02*
X155758050Y-97693650D01*
X139156600Y-119954200D02*
X139217400Y-120015000D01*
X153045550Y-111419250D02*
X153035000Y-111429800D01*
X155758050Y-97693650D02*
X156311600Y-98247200D01*
X151130000Y-111429800D02*
X153035000Y-111429800D01*
X137619400Y-119954200D02*
X139156600Y-119954200D01*
X155049249Y-111419250D02*
X153045550Y-111419250D01*
X152617150Y-111427950D02*
X152577800Y-111467300D01*
G04 #@! TO.N,/Sensores/GNSS_SCL*
X155498800Y-98374200D02*
X155651200Y-98526600D01*
X155634087Y-110396687D02*
X155634087Y-109668913D01*
X147688300Y-108267500D02*
X147688300Y-109181900D01*
X155634087Y-109668913D02*
X155829000Y-109474000D01*
X155829000Y-109474000D02*
X155829000Y-108953900D01*
X155258050Y-96590700D02*
X155258050Y-98133450D01*
X154367900Y-108953900D02*
X153162000Y-110159800D01*
X155258050Y-98133450D02*
X155498800Y-98374200D01*
X148932900Y-110426500D02*
X152895300Y-110426500D01*
X153162000Y-110159800D02*
X152895300Y-110426500D01*
X146685000Y-107264200D02*
X147688300Y-108267500D01*
X139202000Y-118704200D02*
X139217400Y-118719600D01*
X147688300Y-109181900D02*
X148932900Y-110426500D01*
X155634087Y-110396687D02*
X155634087Y-110584349D01*
X155829000Y-108953900D02*
X154367900Y-108953900D01*
X155651200Y-98526600D02*
X155651200Y-99161600D01*
X137619400Y-118704200D02*
X139202000Y-118704200D01*
G04 #@! TO.N,/Conexiones_extra/I2CA_SDA*
X163258050Y-96590700D02*
X163258050Y-99148450D01*
X168789050Y-105054400D02*
X168789050Y-104108550D01*
X168789050Y-104108550D02*
X168808400Y-104089200D01*
X163258050Y-99148450D02*
X163550600Y-99441000D01*
G04 #@! TO.N,/MCU/TIM3_CH1*
X149258050Y-99687350D02*
X148818600Y-100126800D01*
X148818600Y-100126800D02*
X146456400Y-100126800D01*
X149258050Y-96590700D02*
X149258050Y-99687350D01*
X146456400Y-100126800D02*
X145796000Y-100787200D01*
X145796000Y-100787200D02*
X145796000Y-104292400D01*
X145796000Y-104292400D02*
X143433800Y-106654600D01*
X143433800Y-109753400D02*
X144729200Y-111048800D01*
X143433800Y-106654600D02*
X143433800Y-109753400D01*
X144729200Y-111048800D02*
X144729200Y-112293400D01*
G04 #@! TO.N,/MCU/TIM3_CH2*
X146304000Y-101193600D02*
X146304000Y-104419400D01*
X149758050Y-100050950D02*
X149123400Y-100685600D01*
X145694400Y-110896400D02*
X145694400Y-113360200D01*
X149123400Y-100685600D02*
X146812000Y-100685600D01*
X143992600Y-106730800D02*
X143992600Y-109194600D01*
X146304000Y-104419400D02*
X143992600Y-106730800D01*
X149758050Y-96590700D02*
X149758050Y-100050950D01*
X146812000Y-100685600D02*
X146304000Y-101193600D01*
X143992600Y-109194600D02*
X145694400Y-110896400D01*
G04 #@! TO.N,/Debug/SWDIO*
X174853600Y-76225400D02*
X177876200Y-73202800D01*
X180492400Y-70774800D02*
X180492400Y-72009000D01*
X173024800Y-76225400D02*
X174853600Y-76225400D01*
X179298600Y-73202800D02*
X178181000Y-73202800D01*
X171246800Y-78003400D02*
X173024800Y-76225400D01*
X180492400Y-72009000D02*
X179298600Y-73202800D01*
X168768600Y-78678200D02*
X169443400Y-78003400D01*
X177876200Y-73202800D02*
X178181000Y-73202800D01*
X169443400Y-78003400D02*
X171246800Y-78003400D01*
X166170550Y-78678200D02*
X168768600Y-78678200D01*
G04 #@! TO.N,/Debug/NRST*
X139827000Y-66573400D02*
X140309600Y-67056000D01*
X136940100Y-65616900D02*
X136525000Y-65201800D01*
X144845550Y-89178200D02*
X147702200Y-89178200D01*
X139827000Y-65616900D02*
X139827000Y-66573400D01*
X147702200Y-89178200D02*
X147802600Y-89077800D01*
X133641500Y-66268600D02*
X133641500Y-65951700D01*
X133641500Y-66268600D02*
X132347300Y-66268600D01*
X133641500Y-65951700D02*
X134391400Y-65201800D01*
X134391400Y-65201800D02*
X136525000Y-65201800D01*
X139827000Y-65616900D02*
X136940100Y-65616900D01*
G04 #@! TO.N,/MCU/TIM3_CH3*
X151258050Y-99109750D02*
X150317200Y-100050600D01*
X146837400Y-101904800D02*
X146837400Y-104749600D01*
X149504400Y-101168200D02*
X147574000Y-101168200D01*
X151258050Y-96590700D02*
X151258050Y-99109750D01*
X146608800Y-110693200D02*
X146608800Y-111988600D01*
X144678400Y-108762800D02*
X146608800Y-110693200D01*
X147574000Y-101168200D02*
X146837400Y-101904800D01*
X150317200Y-100355400D02*
X149504400Y-101168200D01*
X146837400Y-104749600D02*
X144678400Y-106908600D01*
X150317200Y-100050600D02*
X150317200Y-100355400D01*
X144678400Y-106908600D02*
X144678400Y-108762800D01*
G04 #@! TO.N,/MCU/TIM3_CH4*
X150850600Y-100177600D02*
X150850600Y-100711000D01*
X150850600Y-100711000D02*
X150520400Y-101041200D01*
X147574000Y-102362000D02*
X147574000Y-104800400D01*
X145262600Y-107111800D02*
X145262600Y-108254800D01*
X145262600Y-108254800D02*
X147574000Y-110566200D01*
X151758050Y-96590700D02*
X151758050Y-99270150D01*
X150495000Y-101041200D02*
X149733000Y-101803200D01*
X150520400Y-101041200D02*
X150495000Y-101041200D01*
X147574000Y-110566200D02*
X147574000Y-113309400D01*
X151758050Y-99270150D02*
X150850600Y-100177600D01*
X147574000Y-113309400D02*
X147599400Y-113334800D01*
X148132800Y-101803200D02*
X147574000Y-102362000D01*
X149733000Y-101803200D02*
X148132800Y-101803200D01*
X147574000Y-104800400D02*
X145262600Y-107111800D01*
G04 #@! TO.N,/MCU/TIM4_CH1*
X170992800Y-92532200D02*
X170992800Y-110210600D01*
X168046400Y-91668600D02*
X170129200Y-91668600D01*
X170129200Y-91668600D02*
X170992800Y-92532200D01*
X167056000Y-90678200D02*
X168046400Y-91668600D01*
X166170550Y-90678200D02*
X167056000Y-90678200D01*
X170992800Y-110210600D02*
X169062400Y-112141000D01*
G04 #@! TO.N,/Debug/SWO*
X152258050Y-73601700D02*
X151909950Y-73253600D01*
X152258050Y-75265700D02*
X152258050Y-73601700D01*
D71*
G04 #@! TO.N,/Motores_servos_PWM/Vdd_servos*
X153772400Y-133755600D02*
X161392400Y-133755600D01*
X171620500Y-134323800D02*
X171620500Y-135850600D01*
X162077400Y-133070600D02*
X170367300Y-133070600D01*
X153772400Y-133755600D02*
X152803664Y-133755600D01*
X152803664Y-133755600D02*
X152780700Y-133732636D01*
X170367300Y-133070600D02*
X171620500Y-134323800D01*
X161392400Y-133755600D02*
X162077400Y-133070600D01*
X171620500Y-135850600D02*
X171605900Y-135865200D01*
D69*
G04 #@! TO.N,/MCU/TIM4_CH2*
X171627800Y-110998000D02*
X169316400Y-113309400D01*
X171627800Y-92075000D02*
X171627800Y-110998000D01*
X170637200Y-91084400D02*
X171627800Y-92075000D01*
X168503600Y-91084400D02*
X170637200Y-91084400D01*
X166170550Y-90178200D02*
X167597400Y-90178200D01*
X167597400Y-90178200D02*
X168503600Y-91084400D01*
G04 #@! TO.N,/MCU/TIM4_CH3*
X172288200Y-111353600D02*
X172288200Y-105664000D01*
X171323000Y-87630000D02*
X172110400Y-88417400D01*
X172288200Y-88595200D02*
X172288200Y-94691200D01*
X172288200Y-104089200D02*
X172288200Y-105664000D01*
X170992800Y-87630000D02*
X171323000Y-87630000D01*
X172110400Y-88417400D02*
X172288200Y-88595200D01*
X172288200Y-94691200D02*
X172288200Y-104089200D01*
X168192000Y-88678200D02*
X168579800Y-88290400D01*
X171500800Y-112141000D02*
X172288200Y-111353600D01*
X169240200Y-87630000D02*
X170992800Y-87630000D01*
X166170550Y-88678200D02*
X168192000Y-88678200D01*
X168579800Y-88290400D02*
X169240200Y-87630000D01*
G04 #@! TO.N,/MCU/TIM4_CH4*
X166170550Y-88178200D02*
X167930000Y-88178200D01*
X172847000Y-112191800D02*
X171500800Y-113538000D01*
X167930000Y-88178200D02*
X169011600Y-87096600D01*
X171704000Y-87096600D02*
X172847000Y-88239600D01*
X172847000Y-88239600D02*
X172847000Y-112191800D01*
X169011600Y-87096600D02*
X171704000Y-87096600D01*
G04 #@! TO.N,/Vbus*
X175234600Y-81051400D02*
X174904400Y-81381600D01*
X174015400Y-81000600D02*
X174167800Y-80848200D01*
X177339400Y-79988000D02*
X176276000Y-81051400D01*
X174167800Y-80848200D02*
X174625000Y-80391000D01*
X174625000Y-80238600D02*
X174625000Y-80391000D01*
X176276000Y-81051400D02*
X175285400Y-81051400D01*
X174284600Y-79009200D02*
X174548800Y-79273400D01*
X175285400Y-81051400D02*
X174625000Y-80391000D01*
X175285400Y-81051400D02*
X175234600Y-81051400D01*
X173493000Y-79009200D02*
X174284600Y-79009200D01*
X171945900Y-81000600D02*
X174015400Y-81000600D01*
X174625000Y-79349600D02*
X174625000Y-80238600D01*
X178096800Y-79988000D02*
X177339400Y-79988000D01*
X174548800Y-79273400D02*
X174625000Y-79349600D01*
X174904400Y-81381600D02*
X174904400Y-81991400D01*
G04 #@! TO.N,/Conexiones_extra/UARTA_TX*
X157988000Y-95046800D02*
X157758050Y-95276750D01*
X157758050Y-95276750D02*
X157758050Y-96590700D01*
G04 #@! TO.N,/Conexiones_extra/UARTB_TX*
X154258050Y-75265700D02*
X154258050Y-76686450D01*
X154258050Y-76686450D02*
X154673300Y-77101700D01*
G04 #@! TO.N,/Conexiones_extra/UARTA_RX*
X157258050Y-94723250D02*
X156946600Y-94411800D01*
X157258050Y-96590700D02*
X157258050Y-94723250D01*
G04 #@! TO.N,Net-(D4-Pad1)*
X128384900Y-65900900D02*
X128600200Y-65900900D01*
X127787400Y-65303400D02*
X128384900Y-65900900D01*
X127212200Y-65303400D02*
X127787400Y-65303400D01*
G04 #@! TO.N,Net-(D5-Pad1)*
X127584200Y-69951600D02*
X128181700Y-70549100D01*
X128181700Y-70549100D02*
X128600200Y-70549100D01*
G04 #@! TO.N,Net-(D6-Pad1)*
X127212200Y-62992000D02*
X127457200Y-62992000D01*
X128054700Y-63589500D02*
X128600200Y-63589500D01*
X127457200Y-62992000D02*
X128054700Y-63589500D01*
G04 #@! TO.N,/Conexiones_extra/UARTB_RX*
X156758050Y-76566350D02*
X156591000Y-76733400D01*
X156758050Y-75265700D02*
X156758050Y-76566350D01*
G04 #@! TO.N,Net-(D7-Pad1)*
X127609600Y-60680600D02*
X128207100Y-61278100D01*
X128207100Y-61278100D02*
X128600200Y-61278100D01*
X127212200Y-60680600D02*
X127609600Y-60680600D01*
G04 #@! TO.N,/Conexiones_extra/UARTC_TX*
X159258050Y-75265700D02*
X159258050Y-76454050D01*
X158851600Y-77419200D02*
X158851600Y-76860500D01*
X158851600Y-76860500D02*
X159258050Y-76454050D01*
G04 #@! TO.N,/MCU/OSC32_IN*
X141554200Y-79273400D02*
X140919200Y-79273400D01*
X140335000Y-79857600D02*
X139868550Y-79857600D01*
X142392400Y-79273400D02*
X143797200Y-80678200D01*
X140919200Y-79273400D02*
X140335000Y-79857600D01*
X141554200Y-79273400D02*
X142392400Y-79273400D01*
X143797200Y-80678200D02*
X144845550Y-80678200D01*
G04 #@! TO.N,/MCU/OSC32_OUT*
X140995400Y-81661000D02*
X141554200Y-81661000D01*
X142824200Y-81661000D02*
X141554200Y-81661000D01*
X139868550Y-80975200D02*
X140309600Y-80975200D01*
X144845550Y-81178200D02*
X143307000Y-81178200D01*
X140309600Y-80975200D02*
X140995400Y-81661000D01*
X143307000Y-81178200D02*
X142824200Y-81661000D01*
G04 #@! TO.N,/MCU/OSC_IN*
X136953002Y-88178200D02*
X136463200Y-88668002D01*
X144845550Y-88178200D02*
X136953002Y-88178200D01*
X136463200Y-88668002D02*
X136463200Y-89644600D01*
X135051799Y-89592100D02*
X136410700Y-89592100D01*
G04 #@! TO.N,Net-(D8-Pad1)*
X127212200Y-74523600D02*
X127533400Y-74523600D01*
X127533400Y-74523600D02*
X128130900Y-75121100D01*
X128130900Y-75121100D02*
X128600200Y-75121100D01*
G04 #@! TO.N,/Sensores/MAG_INT_DATA_RDY*
X152258050Y-96590700D02*
X152258050Y-95184250D01*
X152258050Y-95184250D02*
X152120600Y-95046800D01*
G04 #@! TO.N,/MCU/OSC_OUT*
X139965002Y-89255600D02*
X139965002Y-89851900D01*
X144845550Y-88678200D02*
X140542402Y-88678200D01*
X140542402Y-88678200D02*
X139965002Y-89255600D01*
G04 #@! TO.N,/Interfaz_CAN/CAN1_RX*
X149258050Y-73058050D02*
X147650200Y-71450200D01*
X147980400Y-66624200D02*
X147980400Y-65545300D01*
X147650200Y-71450200D02*
X147650200Y-66954400D01*
X149258050Y-75265700D02*
X149258050Y-73058050D01*
X147650200Y-66954400D02*
X147980400Y-66624200D01*
G04 #@! TO.N,/Interfaz_CAN/CAN1_TX*
X148758050Y-73472450D02*
X148758050Y-73878850D01*
X148758050Y-75265700D02*
X148758050Y-73878850D01*
X147497800Y-72644000D02*
X147929600Y-72644000D01*
X146837400Y-71082500D02*
X146837400Y-71983600D01*
X147929600Y-72644000D02*
X148758050Y-73472450D01*
X146837400Y-71983600D02*
X147497800Y-72644000D01*
G04 #@! TO.N,/Interfaz_CAN/CAN2_RX*
X153162000Y-69062600D02*
X156718000Y-69062600D01*
X152247600Y-71678800D02*
X152247600Y-69977000D01*
X151258050Y-75265700D02*
X151258050Y-72668350D01*
X156718000Y-69062600D02*
X156883100Y-68897500D01*
X152247600Y-69977000D02*
X153162000Y-69062600D01*
X151258050Y-72668350D02*
X152247600Y-71678800D01*
X156883100Y-68897500D02*
X157632400Y-68148200D01*
X157632400Y-68148200D02*
X157632400Y-65621500D01*
G04 #@! TO.N,/MCU/OTG_FS_VBUS*
X166170550Y-80678200D02*
X169435600Y-80678200D01*
X169758000Y-81000600D02*
X169435600Y-80678200D01*
X170750900Y-81000600D02*
X169758000Y-81000600D01*
X170750900Y-81000600D02*
X170750900Y-82104900D01*
G04 #@! TO.N,/MCU/SDMMC1_CMD*
X168935400Y-72612550D02*
X168935400Y-73640650D01*
G04 #@! TO.N,/MCU/SDMMC1_D0*
X169027800Y-82178200D02*
X169341800Y-81864200D01*
X173202600Y-74523600D02*
X173177200Y-74523600D01*
X172720000Y-74066400D02*
X172720000Y-72821800D01*
X171678600Y-72821800D02*
X172720000Y-72821800D01*
X173177200Y-74523600D02*
X172720000Y-74066400D01*
X166170550Y-82178200D02*
X169027800Y-82178200D01*
G04 #@! TO.N,/MCU/SDMMC1_D1*
X168054600Y-81678200D02*
X168376600Y-81356200D01*
X166170550Y-81678200D02*
X168054600Y-81678200D01*
G04 #@! TO.N,/Interfaz_CAN/CAN2_TX*
X150758050Y-71999950D02*
X150758050Y-75265700D01*
X151218900Y-71539100D02*
X150758050Y-71999950D01*
X151282400Y-70664000D02*
X151282400Y-71475600D01*
X151282400Y-71475600D02*
X151218900Y-71539100D01*
G04 #@! TO.N,/MCU/TIM1_CH1*
X157480000Y-97942400D02*
X157403800Y-97942400D01*
X158258050Y-97519950D02*
X157886400Y-97891600D01*
X157886400Y-97891600D02*
X157835600Y-97942400D01*
X157403800Y-97942400D02*
X157073600Y-98272600D01*
X157835600Y-97942400D02*
X157480000Y-97942400D01*
X158258050Y-96590700D02*
X158258050Y-97469150D01*
X157073600Y-98272600D02*
X156972000Y-98374200D01*
X158258050Y-97469150D02*
X158258050Y-97519950D01*
X156972000Y-98374200D02*
X156972000Y-99161600D01*
G04 #@! TO.N,/MCU/TIM1_CH2*
X160248600Y-96600150D02*
X160258050Y-96590700D01*
X160248600Y-98196400D02*
X160248600Y-96600150D01*
G04 #@! TO.N,/MCU/TIM1_CH3*
X161258050Y-98812550D02*
X160909000Y-99161600D01*
X161258050Y-96590700D02*
X161258050Y-98812550D01*
G04 #@! TO.N,/MCU/TIM1_CH4*
X161758050Y-99760350D02*
X161671000Y-99847400D01*
X161758050Y-96590700D02*
X161758050Y-99760350D01*
G04 #@! TO.N,/Conexiones_extra/UARTC_RX*
X157758050Y-75265700D02*
X157758050Y-76912550D01*
X157758050Y-76912550D02*
X157632400Y-77038200D01*
G04 #@! TO.N,Net-(D9-Pad1)*
X128308700Y-68212300D02*
X128600200Y-68212300D01*
X127212200Y-67614800D02*
X127711200Y-67614800D01*
X127711200Y-67614800D02*
X128308700Y-68212300D01*
G04 #@! TO.N,Net-(D3-Pad1)*
X128029300Y-72821800D02*
X128600200Y-72821800D01*
X127431800Y-72224300D02*
X128029300Y-72821800D01*
G04 #@! TO.N,/Alimentaci\u00F3n/I_MEAS*
X146758050Y-95678650D02*
X146354800Y-95275400D01*
X142608900Y-97231201D02*
X143281399Y-97231201D01*
X146354800Y-95275400D02*
X145973800Y-95275400D01*
X146758050Y-96590700D02*
X146758050Y-95678650D01*
X145237200Y-95275400D02*
X145973800Y-95275400D01*
X143281399Y-97231201D02*
X145237200Y-95275400D01*
G04 #@! TO.N,/Alimentaci\u00F3n/V_MEAS*
X147828000Y-99644200D02*
X148758050Y-98714150D01*
X144742500Y-100138900D02*
X145237200Y-99644200D01*
X148758050Y-98714150D02*
X148758050Y-96590700D01*
X145237200Y-99644200D02*
X147828000Y-99644200D01*
X144742500Y-100914200D02*
X144742500Y-100138900D01*
G04 #@! TO.N,/Interfaz_CAN/CAN2_MODE*
X150258050Y-71695850D02*
X150469600Y-71484300D01*
X150469600Y-67106800D02*
X150926800Y-66649600D01*
X150258050Y-75265700D02*
X150258050Y-71695850D01*
X150469600Y-71484300D02*
X150469600Y-67106800D01*
X150926800Y-66649600D02*
X150926800Y-64300700D01*
G04 #@! TO.N,/Interfaz_CAN/CAN1_MODE*
X142697200Y-72644000D02*
X142570200Y-72644000D01*
X142570200Y-72644000D02*
X141224000Y-71297800D01*
X144845550Y-77178200D02*
X143827800Y-77178200D01*
X143827800Y-77178200D02*
X143332200Y-76682600D01*
X141224000Y-71297800D02*
X141224000Y-64300700D01*
X143332200Y-76682600D02*
X143332200Y-73279000D01*
X143332200Y-73279000D02*
X142697200Y-72644000D01*
G04 #@! TO.N,Net-(J24-Pad5)*
X168490100Y-68618900D02*
X168478200Y-68630800D01*
X168490100Y-67139900D02*
X168490100Y-68618900D01*
G04 #@! TO.N,Net-(J24-Pad7)*
X170690100Y-67139900D02*
X170690100Y-68988500D01*
X171678600Y-69977000D02*
X171678600Y-71626800D01*
X170690100Y-68988500D02*
X171678600Y-69977000D01*
G04 #@! TO.N,Net-(J24-Pad8)*
X173913800Y-70002400D02*
X173456600Y-69545200D01*
X173456600Y-69545200D02*
X172262800Y-69545200D01*
X171790100Y-69072500D02*
X171790100Y-67139900D01*
X172262800Y-69545200D02*
X171790100Y-69072500D01*
G04 #@! TO.N,Net-(Q1-Pad1)*
X127251700Y-87030600D02*
X128077000Y-87030600D01*
X128334100Y-87287700D02*
X128828800Y-87287700D01*
X128077000Y-87030600D02*
X128334100Y-87287700D01*
G04 #@! TO.N,Net-(Q2-Pad1)*
X131343400Y-70660500D02*
X131343400Y-71518100D01*
X131343400Y-71518100D02*
X131696850Y-71871550D01*
X131696850Y-71871550D02*
X131696850Y-72237600D01*
G04 #@! TO.N,Net-(Q2-Pad3)*
X128600200Y-64705900D02*
X128942500Y-64705900D01*
X132293400Y-67401400D02*
X132334000Y-67360800D01*
X128942500Y-64705900D02*
X129565400Y-65328800D01*
X132293400Y-68785500D02*
X132293400Y-67401400D01*
G04 #@! TO.N,Net-(Q3-Pad1)*
X131333200Y-78323400D02*
X131765000Y-78755200D01*
X131765000Y-78755200D02*
X131765000Y-79104850D01*
X131333200Y-77530050D02*
X131333200Y-78323400D01*
G04 #@! TO.N,Net-(Q3-Pad3)*
X129577500Y-69354100D02*
X129641600Y-69418200D01*
X132283200Y-74726800D02*
X131902200Y-74345800D01*
X128967900Y-69354100D02*
X129247300Y-69354100D01*
X128967900Y-69354100D02*
X129577500Y-69354100D01*
X128600200Y-69354100D02*
X128967900Y-69354100D01*
X132283200Y-75655050D02*
X132283200Y-74726800D01*
G04 #@! TO.N,Net-(Q4-Pad1)*
X134569200Y-70660500D02*
X134569200Y-71424800D01*
X134569200Y-71424800D02*
X135290600Y-72146200D01*
X135290600Y-72146200D02*
X135290600Y-72237600D01*
G04 #@! TO.N,Net-(Q4-Pad3)*
X135519200Y-68785500D02*
X135519200Y-67350600D01*
X128600200Y-62394500D02*
X129299300Y-62394500D01*
X135519200Y-67350600D02*
X135559800Y-67310000D01*
X129299300Y-62394500D02*
X129565400Y-62128400D01*
G04 #@! TO.N,Net-(Q5-Pad1)*
X137795000Y-71213300D02*
X138743800Y-72162100D01*
X137795000Y-70660500D02*
X137795000Y-71213300D01*
X138743800Y-72162100D02*
X138743800Y-72226800D01*
X137795000Y-70660500D02*
X137795000Y-71264100D01*
G04 #@! TO.N,Net-(Q5-Pad3)*
X138745000Y-68785500D02*
X138745000Y-67244000D01*
X129221900Y-60083100D02*
X129590800Y-60452000D01*
X128600200Y-60083100D02*
X129221900Y-60083100D01*
X138745000Y-67244000D02*
X138734800Y-67233800D01*
G04 #@! TO.N,Net-(Q6-Pad1)*
X128397000Y-80975200D02*
X128828800Y-80975200D01*
X128153200Y-80731400D02*
X128397000Y-80975200D01*
X127251700Y-80731400D02*
X128153200Y-80731400D01*
G04 #@! TO.N,Net-(Q7-Pad1)*
X134559000Y-77530050D02*
X134559000Y-78323400D01*
X134559000Y-78323400D02*
X134849900Y-78614300D01*
X134849900Y-78614300D02*
X134849900Y-79092150D01*
G04 #@! TO.N,Net-(Q7-Pad3)*
X129475900Y-67017300D02*
X129565400Y-67106800D01*
X135509000Y-75655050D02*
X135509000Y-74295000D01*
X128600200Y-67017300D02*
X129475900Y-67017300D01*
G04 #@! TO.N,Net-(Q8-Pad1)*
X128102400Y-83881000D02*
X128397000Y-84175600D01*
X128791300Y-84175600D02*
X128828800Y-84138100D01*
X128397000Y-84175600D02*
X128791300Y-84175600D01*
X127251700Y-83881000D02*
X128102400Y-83881000D01*
D72*
G04 #@! TO.N,/USB/D-*
X166170550Y-79678200D02*
X166174551Y-79682201D01*
X166174551Y-79682201D02*
X170232011Y-79682201D01*
X170651011Y-79263201D02*
X172024001Y-79263201D01*
X170232011Y-79682201D02*
X170651011Y-79263201D01*
X172720000Y-79959200D02*
X172024001Y-79263201D01*
X173493000Y-79959200D02*
X172720000Y-79959200D01*
G04 #@! TO.N,/USB/D+*
X173493000Y-78059200D02*
X172719998Y-78059200D01*
X170440589Y-78755199D02*
X172023999Y-78755199D01*
X166174551Y-79174199D02*
X170021589Y-79174199D01*
X170021589Y-79174199D02*
X170440589Y-78755199D01*
X166170550Y-79178200D02*
X166174551Y-79174199D01*
X172719998Y-78059200D02*
X172023999Y-78755199D01*
D70*
G04 #@! TO.N,/Alimentaci\u00F3n/5Vin*
X127287000Y-120039600D02*
X127287000Y-121289600D01*
X127287000Y-120039600D02*
X130328200Y-120039600D01*
X130328200Y-120039600D02*
X131114800Y-119253000D01*
X131114800Y-119253000D02*
X131114800Y-118922600D01*
D69*
G04 #@! TO.N,/MCU/SPI2_MOSI*
X156984100Y-101904800D02*
X156133800Y-101904800D01*
X154525600Y-103513000D02*
X153651900Y-103513000D01*
X156133800Y-101904800D02*
X154525600Y-103513000D01*
G04 #@! TO.N,/MCU/SPI2_MISO*
X167005000Y-101142800D02*
X167792400Y-100355400D01*
X167566800Y-93678200D02*
X168529000Y-94640400D01*
X167109600Y-93678200D02*
X167566800Y-93678200D01*
X161836700Y-101142800D02*
X167005000Y-101142800D01*
X168529000Y-94640400D02*
X168681400Y-94792800D01*
X168681400Y-94792800D02*
X168681400Y-98171000D01*
X166170550Y-93678200D02*
X167109600Y-93678200D01*
G04 #@! TO.N,/MCU/SPI2_SCK*
X160692500Y-102641400D02*
X157276800Y-102641400D01*
X157276800Y-102641400D02*
X155905200Y-104013000D01*
X155905200Y-104013000D02*
X153651900Y-104013000D01*
G04 #@! TO.N,/MCU/SPI2_CS*
X156667200Y-105156000D02*
X155244800Y-105156000D01*
X154601800Y-104513000D02*
X153651900Y-104513000D01*
X157264100Y-104559100D02*
X156667200Y-105156000D01*
X155244800Y-105156000D02*
X154601800Y-104513000D01*
X159320900Y-103860600D02*
X157962600Y-103860600D01*
X157962600Y-103860600D02*
X157264100Y-104559100D01*
G04 #@! TO.N,Net-(R1-Pad2)*
X146964400Y-63246000D02*
X147599400Y-63246000D01*
X146481800Y-63728600D02*
X146964400Y-63246000D01*
X148031200Y-63677800D02*
X148031200Y-64299500D01*
X147599400Y-63246000D02*
X148031200Y-63677800D01*
X148031200Y-64299500D02*
X147980400Y-64350300D01*
X146481800Y-64857400D02*
X146481800Y-63728600D01*
G04 #@! TO.N,/Interfaz_CAN/CAN2+*
X153695400Y-56589200D02*
X153695400Y-59882000D01*
X153695400Y-59882000D02*
X153670000Y-59907400D01*
G04 #@! TO.N,/Interfaz_CAN/CAN2-*
X154945400Y-56589200D02*
X154945400Y-59902000D01*
X154945400Y-59902000D02*
X154940000Y-59907400D01*
D72*
G04 #@! TO.N,/USB/D_connector+*
X178096800Y-78688000D02*
X177113000Y-78688000D01*
X177113000Y-78688000D02*
X176484200Y-78059200D01*
X176484200Y-78059200D02*
X175768000Y-78059200D01*
G04 #@! TO.N,/USB/D_connector-*
X177100400Y-79338000D02*
X178096800Y-79338000D01*
X175768000Y-79959200D02*
X176479200Y-79959200D01*
X176479200Y-79959200D02*
X177100400Y-79338000D01*
D69*
G04 #@! TO.N,/MCU/PD3(EXTI3)*
X176352200Y-58547000D02*
X176352200Y-62992000D01*
X175412400Y-58127300D02*
X175932500Y-58127300D01*
X160045400Y-76657200D02*
X160045400Y-77165200D01*
X160258050Y-76444550D02*
X160045400Y-76657200D01*
X175412400Y-57454800D02*
X174800700Y-56843100D01*
X175412400Y-58127300D02*
X175412400Y-57454800D01*
X160258050Y-75265700D02*
X160258050Y-76444550D01*
X176352200Y-62992000D02*
X175310800Y-64033400D01*
X173690100Y-56843100D02*
X174800700Y-56843100D01*
X175932500Y-58127300D02*
X176352200Y-58547000D01*
X175310800Y-64033400D02*
X175310800Y-64846200D01*
G04 #@! TO.N,Net-(R2-Pad2)*
X156210000Y-63576200D02*
X156616400Y-63169800D01*
X156616400Y-63169800D02*
X157327600Y-63169800D01*
X157327600Y-63169800D02*
X157683200Y-63525400D01*
X156210000Y-64857400D02*
X156210000Y-63576200D01*
X157683200Y-64375700D02*
X157632400Y-64426500D01*
X157683200Y-63525400D02*
X157683200Y-64375700D01*
G04 #@! TO.N,Net-(R3-Pad2)*
X141224000Y-63105700D02*
X141224000Y-62534800D01*
X141224000Y-62534800D02*
X142671800Y-61087000D01*
X142671800Y-61087000D02*
X142671800Y-59907400D01*
G04 #@! TO.N,Net-(R4-Pad2)*
X152400000Y-61010800D02*
X150926800Y-62484000D01*
X152400000Y-59907400D02*
X152400000Y-61010800D01*
X150926800Y-62484000D02*
X150926800Y-63105700D01*
G04 #@! TO.N,Net-(R5-Pad2)*
X146278600Y-68935600D02*
X142087600Y-68935600D01*
X146837400Y-69494400D02*
X146278600Y-68935600D01*
X146837400Y-69887500D02*
X146837400Y-69494400D01*
X142671800Y-66014600D02*
X142671800Y-64857400D01*
X142087600Y-68935600D02*
X141820900Y-68668900D01*
X141820900Y-66865500D02*
X142671800Y-66014600D01*
X141820900Y-68668900D02*
X141820900Y-66865500D01*
G04 #@! TO.N,Net-(R6-Pad2)*
X152400000Y-66090800D02*
X152400000Y-64857400D01*
X151282400Y-67208400D02*
X152400000Y-66090800D01*
X151282400Y-69469000D02*
X151282400Y-67208400D01*
G04 #@! TO.N,Net-(R11-Pad2)*
X160641700Y-101142800D02*
X154381200Y-101142800D01*
X154381200Y-101142800D02*
X153486900Y-102037100D01*
X153486900Y-102037100D02*
X153486900Y-102848000D01*
G04 #@! TO.N,Net-(R16-Pad1)*
X160515900Y-103860600D02*
X162712400Y-103860600D01*
X166992000Y-94678200D02*
X167538400Y-95224600D01*
X167538400Y-98044000D02*
X167132000Y-98450400D01*
X167538400Y-95224600D02*
X167538400Y-98044000D01*
X162712400Y-103860600D02*
X164820600Y-103860600D01*
X166170550Y-94678200D02*
X166992000Y-94678200D01*
X164820600Y-103860600D02*
X165227000Y-103454200D01*
G04 #@! TO.N,Net-(R17-Pad1)*
X169519600Y-94869000D02*
X169519600Y-99060000D01*
X167828800Y-93178200D02*
X168960800Y-94310200D01*
X158179100Y-101904800D02*
X167894000Y-101904800D01*
X167894000Y-101904800D02*
X168325800Y-101473000D01*
X166170550Y-93178200D02*
X167828800Y-93178200D01*
X168960800Y-94310200D02*
X169519600Y-94869000D01*
G04 #@! TO.N,Net-(R18-Pad1)*
X168021000Y-98806000D02*
X169176700Y-99961700D01*
X167203200Y-94178200D02*
X168021000Y-94996000D01*
X169265600Y-100050600D02*
X169176700Y-99961700D01*
X169265600Y-101701600D02*
X168325800Y-102641400D01*
X161887500Y-102641400D02*
X168325800Y-102641400D01*
X169265600Y-101701600D02*
X169265600Y-100050600D01*
X168021000Y-94996000D02*
X168021000Y-98806000D01*
X166170550Y-94178200D02*
X167203200Y-94178200D01*
G04 #@! TO.N,Net-(R27-Pad2)*
X131143000Y-63804800D02*
X131143000Y-66259300D01*
X131143000Y-66259300D02*
X131152300Y-66268600D01*
G04 #@! TO.N,Net-(R41-Pad2)*
X131131500Y-53390800D02*
X131131500Y-55870700D01*
X131131500Y-55870700D02*
X131140800Y-55880000D01*
G04 #@! TO.N,Net-(R53-Pad2)*
X131131500Y-61026900D02*
X131140800Y-61036200D01*
X131131500Y-58547000D02*
X131131500Y-61026900D01*
G04 #@! TO.N,/Leds indicadores + pulsadores/LED1*
X132891850Y-72237600D02*
X132891850Y-73279000D01*
X144845550Y-78178200D02*
X146611800Y-78178200D01*
X146611800Y-78178200D02*
X147167600Y-77622400D01*
X134086600Y-72237600D02*
X134137400Y-72186800D01*
X132891850Y-72237600D02*
X134086600Y-72237600D01*
G04 #@! TO.N,/Leds indicadores + pulsadores/LED2*
X145740200Y-77678200D02*
X146456400Y-76962000D01*
X139938800Y-72226800D02*
X139938800Y-73268200D01*
X139938800Y-73268200D02*
X140857600Y-73268200D01*
X144845550Y-77678200D02*
X145740200Y-77678200D01*
X140857600Y-73268200D02*
X140919200Y-73329800D01*
G04 #@! TO.N,/Leds indicadores + pulsadores/LED3*
X136485600Y-72237600D02*
X137490200Y-72237600D01*
X136485600Y-72237600D02*
X136485600Y-73279000D01*
X147758050Y-76561850D02*
X148361400Y-77165200D01*
X137490200Y-72237600D02*
X137515600Y-72212200D01*
X147758050Y-75265700D02*
X147758050Y-76561850D01*
G04 #@! TO.N,/Leds indicadores + pulsadores/LED4*
X136044900Y-80118950D02*
X136030300Y-80133550D01*
X136044900Y-79092150D02*
X136044900Y-80118950D01*
X146081800Y-79178200D02*
X146481800Y-79578200D01*
X136030300Y-80133550D02*
X136030300Y-81063500D01*
X144845550Y-79178200D02*
X146081800Y-79178200D01*
X136030300Y-81063500D02*
X136017000Y-81076800D01*
G04 #@! TO.N,/Leds indicadores + pulsadores/LED5*
X130771300Y-86092700D02*
X130835400Y-86156800D01*
X129921000Y-86092700D02*
X130771300Y-86092700D01*
X144845550Y-83678200D02*
X146162200Y-83678200D01*
X128828800Y-86092700D02*
X129921000Y-86092700D01*
X146162200Y-83678200D02*
X146583400Y-84099400D01*
G04 #@! TO.N,/Leds indicadores + pulsadores/LED6*
X144845550Y-82678200D02*
X145744000Y-82678200D01*
X132960001Y-81144001D02*
X132969000Y-81153000D01*
X145744000Y-82678200D02*
X146558000Y-81864200D01*
X132960001Y-80247849D02*
X132960001Y-81144001D01*
X132960000Y-79104850D02*
X132960001Y-80247849D01*
G04 #@! TO.N,/Leds indicadores + pulsadores/LED7*
X129946400Y-79780200D02*
X129946400Y-78841600D01*
X147381800Y-78678200D02*
X147421600Y-78638400D01*
X129946400Y-78841600D02*
X129921000Y-78816200D01*
X128828800Y-79780200D02*
X129946400Y-79780200D01*
X144845550Y-78678200D02*
X147381800Y-78678200D01*
G04 #@! TO.N,/Leds indicadores + pulsadores/LED8*
X144845550Y-83178200D02*
X146488600Y-83178200D01*
X129946400Y-82943100D02*
X131076100Y-82943100D01*
X146488600Y-83178200D02*
X146837400Y-82829400D01*
X128828800Y-82943100D02*
X129946400Y-82943100D01*
X131076100Y-82943100D02*
X131089400Y-82956400D01*
G04 #@! TO.N,/Leds indicadores + pulsadores/SW_1*
X137972800Y-57150000D02*
X139496800Y-57150000D01*
X139496800Y-57150000D02*
X140462000Y-58115200D01*
X151758050Y-76943550D02*
X151511000Y-77190600D01*
X132335800Y-55880000D02*
X133527800Y-55880000D01*
X140563600Y-58216800D02*
X140563600Y-58851800D01*
X134086600Y-54940200D02*
X136829800Y-54940200D01*
X137292200Y-55880000D02*
X137292200Y-56469400D01*
X133527800Y-55499000D02*
X134086600Y-54940200D01*
X137292200Y-56469400D02*
X137972800Y-57150000D01*
X137292200Y-55402600D02*
X137292200Y-55880000D01*
X133527800Y-55880000D02*
X133527800Y-55499000D01*
X140462000Y-58115200D02*
X140563600Y-58216800D01*
X136829800Y-54940200D02*
X137292200Y-55402600D01*
X151758050Y-75265700D02*
X151758050Y-76943550D01*
G04 #@! TO.N,/Leds indicadores + pulsadores/SW_2*
X137292200Y-61036200D02*
X137292200Y-60482600D01*
X136906000Y-60096400D02*
X133959600Y-60096400D01*
X137292200Y-61036200D02*
X137292200Y-61600200D01*
X145669000Y-72593200D02*
X145669000Y-70104000D01*
X137292200Y-60482600D02*
X136906000Y-60096400D01*
X137693400Y-62001400D02*
X137972800Y-62280800D01*
X133959600Y-60096400D02*
X133565300Y-60490700D01*
X146151600Y-73075800D02*
X145669000Y-72593200D01*
X148258050Y-73836050D02*
X147497800Y-73075800D01*
X133565300Y-60490700D02*
X133565300Y-61036200D01*
X137292200Y-61600200D02*
X137693400Y-62001400D01*
X137972800Y-62280800D02*
X139750800Y-62280800D01*
X132335800Y-61036200D02*
X133565300Y-61036200D01*
X147497800Y-73075800D02*
X146151600Y-73075800D01*
X148258050Y-75265700D02*
X148258050Y-73836050D01*
G04 #@! TO.N,/Sensores/GNSS_PPS*
X137687900Y-106746200D02*
X139405200Y-106746200D01*
X143345200Y-94678200D02*
X142849600Y-95173800D01*
X144845550Y-94678200D02*
X143345200Y-94678200D01*
X139405200Y-106746200D02*
X139471400Y-106680000D01*
G04 #@! TO.N,/MCU/USART3_RX*
X169697400Y-108788200D02*
X168300400Y-108788200D01*
X170332400Y-108153200D02*
X169697400Y-108788200D01*
X168300400Y-108788200D02*
X167232200Y-107720000D01*
X167232200Y-107720000D02*
X164891000Y-107720000D01*
X170332400Y-93573600D02*
X170332400Y-108153200D01*
X168937000Y-92178200D02*
X170332400Y-93573600D01*
X166170550Y-92178200D02*
X168937000Y-92178200D01*
G04 #@! TO.N,/MCU/TIM8_CH2*
X164669400Y-82678200D02*
X164668200Y-82677000D01*
X166170550Y-82678200D02*
X164669400Y-82678200D01*
G04 #@! TO.N,unconnected-(U5-Pad2)*
X152986900Y-102848000D02*
X152986900Y-101323300D01*
G04 #@! TO.N,unconnected-(U5-Pad3)*
X152486900Y-102848000D02*
X152486900Y-101331300D01*
G04 #@! TO.N,unconnected-(U5-Pad10)*
X152986900Y-105178000D02*
X152986900Y-106728100D01*
G04 #@! TO.N,/MCU/PF12(EXTI12)*
X151231600Y-100482400D02*
X151231600Y-101269800D01*
X151231600Y-101269800D02*
X151986900Y-102025100D01*
X153258050Y-97795550D02*
X152514300Y-98539300D01*
X153258050Y-96590700D02*
X153258050Y-97795550D01*
X151231600Y-100482400D02*
X152514300Y-99199700D01*
X151986900Y-102025100D02*
X151986900Y-102848000D01*
X152514300Y-99199700D02*
X152514300Y-98539300D01*
D73*
G04 #@! TO.N,/Chassis_Bond_1*
X126288800Y-54406800D02*
X126288800Y-58572400D01*
X126288800Y-58572400D02*
X126187200Y-58674000D01*
G04 #@! TO.N,/Chassis_Bond_2*
X178807300Y-58750200D02*
X178807300Y-54398500D01*
G04 #@! TO.N,/Chassis_Bond_3*
X126169800Y-132613400D02*
X126169800Y-136888800D01*
G04 #@! TO.N,/Chassis_Bond_4*
X178816000Y-132410200D02*
X178816000Y-136935000D01*
D71*
G04 #@! TO.N,/Motores_servos_PWM/Vdd_ESC*
X149420900Y-133755600D02*
X131640900Y-133755600D01*
X149420900Y-133755600D02*
X150502700Y-133755600D01*
D69*
G04 #@! TO.N,Net-(D10-Pad1)*
X127660400Y-76809600D02*
X128257900Y-77407100D01*
X128257900Y-77407100D02*
X128600200Y-77407100D01*
X127212200Y-76809600D02*
X127660400Y-76809600D01*
G04 #@! TO.N,Net-(Q1-Pad3)*
X125376700Y-86080600D02*
X124028200Y-86080600D01*
X128600200Y-76212100D02*
X129475900Y-76212100D01*
X129475900Y-76212100D02*
X129717800Y-76454000D01*
X124028200Y-86080600D02*
X124002800Y-86055200D01*
G04 #@! TO.N,Net-(Q8-Pad3)*
X125376700Y-82931000D02*
X124079000Y-82931000D01*
X129196500Y-73926100D02*
X129616200Y-74345800D01*
X124079000Y-82931000D02*
X124053600Y-82956400D01*
X128600200Y-73926100D02*
X129196500Y-73926100D01*
G04 #@! TO.N,Net-(Q6-Pad3)*
X129361000Y-71626800D02*
X129641600Y-71907400D01*
X128600200Y-71626800D02*
X129361000Y-71626800D01*
X125376700Y-79781400D02*
X124053600Y-79781400D01*
G04 #@! TD*
G04 #@! TA.AperFunction,Conductor*
G04 #@! TO.N,/Alimentaci\u00F3n/5Vin*
G36*
X132047521Y-118460202D02*
G01*
X132094014Y-118513858D01*
X132105400Y-118566200D01*
X132105400Y-119987678D01*
X132085398Y-120055799D01*
X132067852Y-120077412D01*
X130364192Y-121756734D01*
X130301637Y-121790310D01*
X130275740Y-121793000D01*
X127354600Y-121793000D01*
X127286479Y-121772998D01*
X127239986Y-121719342D01*
X127228600Y-121667000D01*
X127228600Y-119658400D01*
X127248602Y-119590279D01*
X127302258Y-119543786D01*
X127354600Y-119532400D01*
X129184400Y-119532400D01*
X129921000Y-118795800D01*
X129921000Y-118566200D01*
X129941002Y-118498079D01*
X129994658Y-118451586D01*
X130047000Y-118440200D01*
X131979400Y-118440200D01*
X132047521Y-118460202D01*
G37*
G04 #@! TD.AperFunction*
G04 #@! TD*
G04 #@! TA.AperFunction,Conductor*
G04 #@! TO.N,3V3*
G36*
X145647503Y-92589598D02*
G01*
X145700601Y-92636727D01*
X145719800Y-92703581D01*
X145719800Y-93152819D01*
X145699798Y-93220940D01*
X145646142Y-93267433D01*
X145577354Y-93277741D01*
X145550747Y-93274238D01*
X145550742Y-93274238D01*
X145546658Y-93273700D01*
X144144442Y-93273700D01*
X144144442Y-93271712D01*
X144082965Y-93257959D01*
X144033059Y-93207463D01*
X144018000Y-93147729D01*
X144018000Y-92708671D01*
X144038002Y-92640550D01*
X144091658Y-92594057D01*
X144144442Y-92584373D01*
X144144442Y-92582700D01*
X145546658Y-92582700D01*
X145550742Y-92582162D01*
X145550747Y-92582162D01*
X145577354Y-92578659D01*
X145647503Y-92589598D01*
G37*
G04 #@! TD.AperFunction*
G04 #@! TD*
G04 #@! TA.AperFunction,Conductor*
G04 #@! TO.N,3V3*
G36*
X160521321Y-115488402D02*
G01*
X160567814Y-115542058D01*
X160579200Y-115594400D01*
X160579200Y-118210100D01*
X160559198Y-118278221D01*
X160505542Y-118324714D01*
X160453200Y-118336100D01*
X158413466Y-118336100D01*
X158410069Y-118336469D01*
X158359134Y-118342002D01*
X158359132Y-118342002D01*
X158351284Y-118342855D01*
X158343891Y-118345627D01*
X158343889Y-118345627D01*
X158316267Y-118355982D01*
X158272038Y-118364000D01*
X157937601Y-118364000D01*
X157937601Y-120802400D01*
X158211219Y-120802400D01*
X158255449Y-120810418D01*
X158351284Y-120846345D01*
X158413466Y-120853100D01*
X160509734Y-120853100D01*
X160571916Y-120846345D01*
X160667751Y-120810418D01*
X160711981Y-120802400D01*
X160758000Y-120802400D01*
X160826121Y-120822402D01*
X160872614Y-120876058D01*
X160884000Y-120928400D01*
X160884000Y-122878995D01*
X160863998Y-122947116D01*
X160810342Y-122993609D01*
X160740068Y-123003713D01*
X160708593Y-122993217D01*
X160708305Y-122993985D01*
X160571916Y-122942855D01*
X160509734Y-122936100D01*
X158413466Y-122936100D01*
X158351284Y-122942855D01*
X158214895Y-122993985D01*
X158207710Y-122999370D01*
X158207708Y-122999371D01*
X158122508Y-123063225D01*
X158056001Y-123088073D01*
X158046943Y-123088399D01*
X157937600Y-123088399D01*
X157937600Y-125628400D01*
X160554800Y-125628400D01*
X160622921Y-125648402D01*
X160669414Y-125702058D01*
X160680800Y-125754400D01*
X160680799Y-128194799D01*
X160660797Y-128262920D01*
X160607141Y-128309413D01*
X160554799Y-128320799D01*
X146684399Y-128320801D01*
X146616278Y-128300799D01*
X146569785Y-128247143D01*
X146558399Y-128194801D01*
X146558401Y-115594401D01*
X146578403Y-115526280D01*
X146632059Y-115479787D01*
X146684401Y-115468401D01*
X153568801Y-115468401D01*
X160453200Y-115468400D01*
X160521321Y-115488402D01*
G37*
G04 #@! TD.AperFunction*
G04 #@! TD*
G04 #@! TA.AperFunction,Conductor*
G04 #@! TO.N,/Motores_servos_PWM/Vdd_servos*
G36*
X153182018Y-131948202D02*
G01*
X153187958Y-131952264D01*
X153300062Y-132033713D01*
X153306091Y-132036397D01*
X153306094Y-132036399D01*
X153474443Y-132111352D01*
X153474446Y-132111353D01*
X153480479Y-132114039D01*
X153523066Y-132123091D01*
X153667198Y-132153728D01*
X153667202Y-132153728D01*
X153673655Y-132155100D01*
X153871145Y-132155100D01*
X153877598Y-132153728D01*
X153877602Y-132153728D01*
X154021734Y-132123091D01*
X154064321Y-132114039D01*
X154070354Y-132111353D01*
X154070357Y-132111352D01*
X154238706Y-132036399D01*
X154238709Y-132036397D01*
X154244738Y-132033713D01*
X154356842Y-131952264D01*
X154423709Y-131928406D01*
X154430903Y-131928200D01*
X155653897Y-131928200D01*
X155722018Y-131948202D01*
X155727958Y-131952264D01*
X155840062Y-132033713D01*
X155846091Y-132036397D01*
X155846094Y-132036399D01*
X156014443Y-132111352D01*
X156014446Y-132111353D01*
X156020479Y-132114039D01*
X156063066Y-132123091D01*
X156207198Y-132153728D01*
X156207202Y-132153728D01*
X156213655Y-132155100D01*
X156411145Y-132155100D01*
X156417598Y-132153728D01*
X156417602Y-132153728D01*
X156561734Y-132123091D01*
X156604321Y-132114039D01*
X156610354Y-132111353D01*
X156610357Y-132111352D01*
X156778706Y-132036399D01*
X156778709Y-132036397D01*
X156784738Y-132033713D01*
X156896842Y-131952264D01*
X156963709Y-131928406D01*
X156970903Y-131928200D01*
X158193897Y-131928200D01*
X158262018Y-131948202D01*
X158267958Y-131952264D01*
X158380062Y-132033713D01*
X158386091Y-132036397D01*
X158386094Y-132036399D01*
X158554443Y-132111352D01*
X158554446Y-132111353D01*
X158560479Y-132114039D01*
X158603066Y-132123091D01*
X158747198Y-132153728D01*
X158747202Y-132153728D01*
X158753655Y-132155100D01*
X158951145Y-132155100D01*
X158957598Y-132153728D01*
X158957602Y-132153728D01*
X159101734Y-132123091D01*
X159144321Y-132114039D01*
X159150354Y-132111353D01*
X159150357Y-132111352D01*
X159318706Y-132036399D01*
X159318709Y-132036397D01*
X159324738Y-132033713D01*
X159436842Y-131952264D01*
X159503709Y-131928406D01*
X159510903Y-131928200D01*
X160733897Y-131928200D01*
X160802018Y-131948202D01*
X160807958Y-131952264D01*
X160920062Y-132033713D01*
X160926091Y-132036397D01*
X160926094Y-132036399D01*
X161094443Y-132111352D01*
X161094446Y-132111353D01*
X161100479Y-132114039D01*
X161143066Y-132123091D01*
X161287198Y-132153728D01*
X161287202Y-132153728D01*
X161293655Y-132155100D01*
X161491145Y-132155100D01*
X161497598Y-132153728D01*
X161497602Y-132153728D01*
X161641734Y-132123091D01*
X161684321Y-132114039D01*
X161690354Y-132111353D01*
X161690357Y-132111352D01*
X161858706Y-132036399D01*
X161858709Y-132036397D01*
X161864738Y-132033713D01*
X161976842Y-131952264D01*
X162043709Y-131928406D01*
X162050903Y-131928200D01*
X164890500Y-131928200D01*
X164958621Y-131948202D01*
X165005114Y-132001858D01*
X165016500Y-132054200D01*
X165016500Y-135155000D01*
X164996498Y-135223121D01*
X164942842Y-135269614D01*
X164890500Y-135281000D01*
X151909100Y-135281000D01*
X151840979Y-135260998D01*
X151794486Y-135207342D01*
X151783100Y-135155000D01*
X151783100Y-135014000D01*
X151803102Y-134945879D01*
X151856758Y-134899386D01*
X151909100Y-134888000D01*
X152008585Y-134888000D01*
X152023824Y-134883525D01*
X152025029Y-134882135D01*
X152026700Y-134874452D01*
X152026700Y-134869884D01*
X152534700Y-134869884D01*
X152539175Y-134885123D01*
X152540565Y-134886328D01*
X152548248Y-134887999D01*
X152825369Y-134887999D01*
X152832190Y-134887629D01*
X152883052Y-134882105D01*
X152898304Y-134878479D01*
X153018754Y-134833324D01*
X153034349Y-134824786D01*
X153052846Y-134810923D01*
X153119353Y-134786075D01*
X153188735Y-134801128D01*
X153193360Y-134803927D01*
X153206017Y-134810800D01*
X153396856Y-134892791D01*
X153407799Y-134896346D01*
X153610379Y-134942186D01*
X153621788Y-134943688D01*
X153829336Y-134951842D01*
X153840818Y-134951240D01*
X154046379Y-134921436D01*
X154057562Y-134918751D01*
X154254248Y-134851985D01*
X154264751Y-134847309D01*
X154402886Y-134769951D01*
X154412749Y-134759874D01*
X154412096Y-134758179D01*
X155674181Y-134758179D01*
X155684063Y-134770669D01*
X155735907Y-134805310D01*
X155746017Y-134810800D01*
X155936856Y-134892791D01*
X155947799Y-134896346D01*
X156150379Y-134942186D01*
X156161788Y-134943688D01*
X156369336Y-134951842D01*
X156380818Y-134951240D01*
X156586379Y-134921436D01*
X156597562Y-134918751D01*
X156794248Y-134851985D01*
X156804751Y-134847309D01*
X156942886Y-134769951D01*
X156952749Y-134759874D01*
X156952096Y-134758179D01*
X158214181Y-134758179D01*
X158224063Y-134770669D01*
X158275907Y-134805310D01*
X158286017Y-134810800D01*
X158476856Y-134892791D01*
X158487799Y-134896346D01*
X158690379Y-134942186D01*
X158701788Y-134943688D01*
X158909336Y-134951842D01*
X158920818Y-134951240D01*
X159126379Y-134921436D01*
X159137562Y-134918751D01*
X159334248Y-134851985D01*
X159344751Y-134847309D01*
X159482886Y-134769951D01*
X159492749Y-134759874D01*
X159492096Y-134758179D01*
X160754181Y-134758179D01*
X160764063Y-134770669D01*
X160815907Y-134805310D01*
X160826017Y-134810800D01*
X161016856Y-134892791D01*
X161027799Y-134896346D01*
X161230379Y-134942186D01*
X161241788Y-134943688D01*
X161449336Y-134951842D01*
X161460818Y-134951240D01*
X161666379Y-134921436D01*
X161677562Y-134918751D01*
X161874248Y-134851985D01*
X161884751Y-134847309D01*
X162022886Y-134769951D01*
X162032749Y-134759874D01*
X162029794Y-134752204D01*
X161405212Y-134127622D01*
X161391268Y-134120008D01*
X161389435Y-134120139D01*
X161382820Y-134124390D01*
X160760377Y-134746833D01*
X160754181Y-134758179D01*
X159492096Y-134758179D01*
X159489794Y-134752204D01*
X158865212Y-134127622D01*
X158851268Y-134120008D01*
X158849435Y-134120139D01*
X158842820Y-134124390D01*
X158220377Y-134746833D01*
X158214181Y-134758179D01*
X156952096Y-134758179D01*
X156949794Y-134752204D01*
X156325212Y-134127622D01*
X156311268Y-134120008D01*
X156309435Y-134120139D01*
X156302820Y-134124390D01*
X155680377Y-134746833D01*
X155674181Y-134758179D01*
X154412096Y-134758179D01*
X154409794Y-134752204D01*
X153502285Y-133844695D01*
X153468259Y-133782383D01*
X153470094Y-133756732D01*
X154136808Y-133756732D01*
X154136939Y-133758565D01*
X154141190Y-133765180D01*
X154765088Y-134389078D01*
X154777468Y-134395838D01*
X154784048Y-134390912D01*
X154864109Y-134247951D01*
X154868785Y-134237448D01*
X154923701Y-134075671D01*
X154964538Y-134017595D01*
X155030291Y-133990816D01*
X155100083Y-134003837D01*
X155151756Y-134052524D01*
X155165137Y-134085157D01*
X155181589Y-134149938D01*
X155185430Y-134160785D01*
X155272387Y-134349410D01*
X155278138Y-134359372D01*
X155297199Y-134386343D01*
X155307787Y-134394730D01*
X155321088Y-134387702D01*
X155940378Y-133768412D01*
X155946756Y-133756732D01*
X156676808Y-133756732D01*
X156676939Y-133758565D01*
X156681190Y-133765180D01*
X157305088Y-134389078D01*
X157317468Y-134395838D01*
X157324048Y-134390912D01*
X157404109Y-134247951D01*
X157408785Y-134237448D01*
X157463701Y-134075671D01*
X157504538Y-134017595D01*
X157570291Y-133990816D01*
X157640083Y-134003837D01*
X157691756Y-134052524D01*
X157705137Y-134085157D01*
X157721589Y-134149938D01*
X157725430Y-134160785D01*
X157812387Y-134349410D01*
X157818138Y-134359372D01*
X157837199Y-134386343D01*
X157847787Y-134394730D01*
X157861088Y-134387702D01*
X158480378Y-133768412D01*
X158486756Y-133756732D01*
X159216808Y-133756732D01*
X159216939Y-133758565D01*
X159221190Y-133765180D01*
X159845088Y-134389078D01*
X159857468Y-134395838D01*
X159864048Y-134390912D01*
X159944109Y-134247951D01*
X159948785Y-134237448D01*
X160003701Y-134075671D01*
X160044538Y-134017595D01*
X160110291Y-133990816D01*
X160180083Y-134003837D01*
X160231756Y-134052524D01*
X160245137Y-134085157D01*
X160261589Y-134149938D01*
X160265430Y-134160785D01*
X160352387Y-134349410D01*
X160358138Y-134359372D01*
X160377199Y-134386343D01*
X160387787Y-134394730D01*
X160401088Y-134387702D01*
X161020378Y-133768412D01*
X161026756Y-133756732D01*
X161756808Y-133756732D01*
X161756939Y-133758565D01*
X161761190Y-133765180D01*
X162385088Y-134389078D01*
X162397468Y-134395838D01*
X162404048Y-134390912D01*
X162484109Y-134247951D01*
X162488785Y-134237448D01*
X162555551Y-134040762D01*
X162558236Y-134029579D01*
X162588336Y-133821978D01*
X162588966Y-133814595D01*
X162590414Y-133759304D01*
X162590171Y-133751905D01*
X162570978Y-133543016D01*
X162568881Y-133531701D01*
X162512501Y-133331794D01*
X162508379Y-133321055D01*
X162416511Y-133134767D01*
X162410505Y-133124965D01*
X162409264Y-133123302D01*
X162398004Y-133114853D01*
X162385586Y-133121624D01*
X161764422Y-133742788D01*
X161756808Y-133756732D01*
X161026756Y-133756732D01*
X161027992Y-133754468D01*
X161027861Y-133752635D01*
X161023610Y-133746020D01*
X160398004Y-133120414D01*
X160385624Y-133113654D01*
X160379658Y-133118120D01*
X160288182Y-133291987D01*
X160283777Y-133302621D01*
X160242487Y-133435597D01*
X160203184Y-133494722D01*
X160138155Y-133523213D01*
X160068045Y-133512023D01*
X160015115Y-133464706D01*
X160000885Y-133432435D01*
X159972501Y-133331794D01*
X159968379Y-133321055D01*
X159876511Y-133134767D01*
X159870505Y-133124965D01*
X159869264Y-133123302D01*
X159858004Y-133114853D01*
X159845586Y-133121624D01*
X159224422Y-133742788D01*
X159216808Y-133756732D01*
X158486756Y-133756732D01*
X158487992Y-133754468D01*
X158487861Y-133752635D01*
X158483610Y-133746020D01*
X157858004Y-133120414D01*
X157845624Y-133113654D01*
X157839658Y-133118120D01*
X157748182Y-133291987D01*
X157743777Y-133302621D01*
X157702487Y-133435597D01*
X157663184Y-133494722D01*
X157598155Y-133523213D01*
X157528045Y-133512023D01*
X157475115Y-133464706D01*
X157460885Y-133432435D01*
X157432501Y-133331794D01*
X157428379Y-133321055D01*
X157336511Y-133134767D01*
X157330505Y-133124965D01*
X157329264Y-133123302D01*
X157318004Y-133114853D01*
X157305586Y-133121624D01*
X156684422Y-133742788D01*
X156676808Y-133756732D01*
X155946756Y-133756732D01*
X155947992Y-133754468D01*
X155947861Y-133752635D01*
X155943610Y-133746020D01*
X155318004Y-133120414D01*
X155305624Y-133113654D01*
X155299658Y-133118120D01*
X155208182Y-133291987D01*
X155203777Y-133302621D01*
X155162487Y-133435597D01*
X155123184Y-133494722D01*
X155058155Y-133523213D01*
X154988045Y-133512023D01*
X154935115Y-133464706D01*
X154920885Y-133432435D01*
X154892501Y-133331794D01*
X154888379Y-133321055D01*
X154796511Y-133134767D01*
X154790505Y-133124965D01*
X154789264Y-133123302D01*
X154778004Y-133114853D01*
X154765586Y-133121624D01*
X154144422Y-133742788D01*
X154136808Y-133756732D01*
X153470094Y-133756732D01*
X153473324Y-133711568D01*
X153502285Y-133666505D01*
X154404309Y-132764481D01*
X154410983Y-132752259D01*
X155673171Y-132752259D01*
X155676658Y-132760648D01*
X156299588Y-133383578D01*
X156313532Y-133391192D01*
X156315365Y-133391061D01*
X156321980Y-133386810D01*
X156944309Y-132764481D01*
X156950983Y-132752259D01*
X158213171Y-132752259D01*
X158216658Y-132760648D01*
X158839588Y-133383578D01*
X158853532Y-133391192D01*
X158855365Y-133391061D01*
X158861980Y-133386810D01*
X159484309Y-132764481D01*
X159490983Y-132752259D01*
X160753171Y-132752259D01*
X160756658Y-132760648D01*
X161379588Y-133383578D01*
X161393532Y-133391192D01*
X161395365Y-133391061D01*
X161401980Y-133386810D01*
X162024309Y-132764481D01*
X162031069Y-132752101D01*
X162025039Y-132744046D01*
X161941211Y-132691154D01*
X161930968Y-132685936D01*
X161738051Y-132608970D01*
X161727014Y-132605701D01*
X161523303Y-132565179D01*
X161511858Y-132563976D01*
X161304179Y-132561258D01*
X161292699Y-132562161D01*
X161088003Y-132597335D01*
X161076883Y-132600315D01*
X160882016Y-132672205D01*
X160871638Y-132677155D01*
X160762769Y-132741926D01*
X160753171Y-132752259D01*
X159490983Y-132752259D01*
X159491069Y-132752101D01*
X159485039Y-132744046D01*
X159401211Y-132691154D01*
X159390968Y-132685936D01*
X159198051Y-132608970D01*
X159187014Y-132605701D01*
X158983303Y-132565179D01*
X158971858Y-132563976D01*
X158764179Y-132561258D01*
X158752699Y-132562161D01*
X158548003Y-132597335D01*
X158536883Y-132600315D01*
X158342016Y-132672205D01*
X158331638Y-132677155D01*
X158222769Y-132741926D01*
X158213171Y-132752259D01*
X156950983Y-132752259D01*
X156951069Y-132752101D01*
X156945039Y-132744046D01*
X156861211Y-132691154D01*
X156850968Y-132685936D01*
X156658051Y-132608970D01*
X156647014Y-132605701D01*
X156443303Y-132565179D01*
X156431858Y-132563976D01*
X156224179Y-132561258D01*
X156212699Y-132562161D01*
X156008003Y-132597335D01*
X155996883Y-132600315D01*
X155802016Y-132672205D01*
X155791638Y-132677155D01*
X155682769Y-132741926D01*
X155673171Y-132752259D01*
X154410983Y-132752259D01*
X154411069Y-132752101D01*
X154405039Y-132744046D01*
X154321211Y-132691154D01*
X154310968Y-132685936D01*
X154118051Y-132608970D01*
X154107014Y-132605701D01*
X153903303Y-132565179D01*
X153891858Y-132563976D01*
X153684179Y-132561258D01*
X153672699Y-132562161D01*
X153468003Y-132597335D01*
X153456883Y-132600315D01*
X153348433Y-132640324D01*
X153277599Y-132645136D01*
X153215409Y-132610889D01*
X153203996Y-132597677D01*
X153148985Y-132524276D01*
X153136424Y-132511715D01*
X153034349Y-132435214D01*
X153018754Y-132426676D01*
X152898306Y-132381522D01*
X152883051Y-132377895D01*
X152832186Y-132372369D01*
X152825372Y-132372000D01*
X152552815Y-132372000D01*
X152537576Y-132376475D01*
X152536371Y-132377865D01*
X152534700Y-132385548D01*
X152534700Y-133357885D01*
X152539175Y-133373124D01*
X152540565Y-133374329D01*
X152548248Y-133376000D01*
X153202700Y-133376000D01*
X153270821Y-133396002D01*
X153317314Y-133449658D01*
X153328700Y-133502000D01*
X153328700Y-133758000D01*
X153308698Y-133826121D01*
X153255042Y-133872614D01*
X153202700Y-133884000D01*
X152552815Y-133884000D01*
X152537576Y-133888475D01*
X152536371Y-133889865D01*
X152534700Y-133897548D01*
X152534700Y-134869884D01*
X152026700Y-134869884D01*
X152026700Y-132390116D01*
X152022225Y-132374877D01*
X152020835Y-132373672D01*
X152013152Y-132372001D01*
X151909100Y-132372001D01*
X151840979Y-132351999D01*
X151794486Y-132298343D01*
X151783100Y-132246001D01*
X151783100Y-132054200D01*
X151803102Y-131986079D01*
X151856758Y-131939586D01*
X151909100Y-131928200D01*
X153113897Y-131928200D01*
X153182018Y-131948202D01*
G37*
G04 #@! TD.AperFunction*
G04 #@! TD*
G04 #@! TA.AperFunction,Conductor*
G04 #@! TO.N,/Motores_servos_PWM/Vdd_ESC*
G36*
X131241289Y-132066093D02*
G01*
X131342943Y-132111352D01*
X131342946Y-132111353D01*
X131348979Y-132114039D01*
X131391566Y-132123091D01*
X131535698Y-132153728D01*
X131535702Y-132153728D01*
X131542155Y-132155100D01*
X131739645Y-132155100D01*
X131746098Y-132153728D01*
X131746102Y-132153728D01*
X131890234Y-132123091D01*
X131932821Y-132114039D01*
X131938854Y-132111353D01*
X131938857Y-132111352D01*
X132040511Y-132066093D01*
X132091759Y-132055200D01*
X133730041Y-132055200D01*
X133781289Y-132066093D01*
X133882943Y-132111352D01*
X133882946Y-132111353D01*
X133888979Y-132114039D01*
X133931566Y-132123091D01*
X134075698Y-132153728D01*
X134075702Y-132153728D01*
X134082155Y-132155100D01*
X134279645Y-132155100D01*
X134286098Y-132153728D01*
X134286102Y-132153728D01*
X134430234Y-132123091D01*
X134472821Y-132114039D01*
X134478854Y-132111353D01*
X134478857Y-132111352D01*
X134580511Y-132066093D01*
X134631759Y-132055200D01*
X136270041Y-132055200D01*
X136321289Y-132066093D01*
X136422943Y-132111352D01*
X136422946Y-132111353D01*
X136428979Y-132114039D01*
X136471566Y-132123091D01*
X136615698Y-132153728D01*
X136615702Y-132153728D01*
X136622155Y-132155100D01*
X136819645Y-132155100D01*
X136826098Y-132153728D01*
X136826102Y-132153728D01*
X136970234Y-132123091D01*
X137012821Y-132114039D01*
X137018854Y-132111353D01*
X137018857Y-132111352D01*
X137120511Y-132066093D01*
X137171759Y-132055200D01*
X138810041Y-132055200D01*
X138861289Y-132066093D01*
X138962943Y-132111352D01*
X138962946Y-132111353D01*
X138968979Y-132114039D01*
X139011566Y-132123091D01*
X139155698Y-132153728D01*
X139155702Y-132153728D01*
X139162155Y-132155100D01*
X139359645Y-132155100D01*
X139366098Y-132153728D01*
X139366102Y-132153728D01*
X139510234Y-132123091D01*
X139552821Y-132114039D01*
X139558854Y-132111353D01*
X139558857Y-132111352D01*
X139660511Y-132066093D01*
X139711759Y-132055200D01*
X141350041Y-132055200D01*
X141401289Y-132066093D01*
X141502943Y-132111352D01*
X141502946Y-132111353D01*
X141508979Y-132114039D01*
X141551566Y-132123091D01*
X141695698Y-132153728D01*
X141695702Y-132153728D01*
X141702155Y-132155100D01*
X141899645Y-132155100D01*
X141906098Y-132153728D01*
X141906102Y-132153728D01*
X142050234Y-132123091D01*
X142092821Y-132114039D01*
X142098854Y-132111353D01*
X142098857Y-132111352D01*
X142200511Y-132066093D01*
X142251759Y-132055200D01*
X143890041Y-132055200D01*
X143941289Y-132066093D01*
X144042943Y-132111352D01*
X144042946Y-132111353D01*
X144048979Y-132114039D01*
X144091566Y-132123091D01*
X144235698Y-132153728D01*
X144235702Y-132153728D01*
X144242155Y-132155100D01*
X144439645Y-132155100D01*
X144446098Y-132153728D01*
X144446102Y-132153728D01*
X144590234Y-132123091D01*
X144632821Y-132114039D01*
X144638854Y-132111353D01*
X144638857Y-132111352D01*
X144740511Y-132066093D01*
X144791759Y-132055200D01*
X146430041Y-132055200D01*
X146481289Y-132066093D01*
X146582943Y-132111352D01*
X146582946Y-132111353D01*
X146588979Y-132114039D01*
X146631566Y-132123091D01*
X146775698Y-132153728D01*
X146775702Y-132153728D01*
X146782155Y-132155100D01*
X146979645Y-132155100D01*
X146986098Y-132153728D01*
X146986102Y-132153728D01*
X147130234Y-132123091D01*
X147172821Y-132114039D01*
X147178854Y-132111353D01*
X147178857Y-132111352D01*
X147280511Y-132066093D01*
X147331759Y-132055200D01*
X148970041Y-132055200D01*
X149021289Y-132066093D01*
X149122943Y-132111352D01*
X149122946Y-132111353D01*
X149128979Y-132114039D01*
X149171566Y-132123091D01*
X149315698Y-132153728D01*
X149315702Y-132153728D01*
X149322155Y-132155100D01*
X149519645Y-132155100D01*
X149526098Y-132153728D01*
X149526102Y-132153728D01*
X149670234Y-132123091D01*
X149712821Y-132114039D01*
X149718854Y-132111353D01*
X149718857Y-132111352D01*
X149820511Y-132066093D01*
X149871759Y-132055200D01*
X151225300Y-132055200D01*
X151293421Y-132075202D01*
X151339914Y-132128858D01*
X151351300Y-132181200D01*
X151351300Y-132248760D01*
X151331298Y-132316881D01*
X151277642Y-132363374D01*
X151260798Y-132369656D01*
X151237576Y-132376475D01*
X151236371Y-132377865D01*
X151234700Y-132385548D01*
X151234700Y-134869884D01*
X151239175Y-134885123D01*
X151240565Y-134886328D01*
X151252082Y-134888833D01*
X151314395Y-134922858D01*
X151348420Y-134985170D01*
X151351300Y-135011954D01*
X151351300Y-135282000D01*
X151331298Y-135350121D01*
X151277642Y-135396614D01*
X151225300Y-135408000D01*
X150298998Y-135408000D01*
X150228995Y-135386764D01*
X150215521Y-135377761D01*
X150215518Y-135377760D01*
X150205201Y-135370866D01*
X150193032Y-135368445D01*
X150193031Y-135368445D01*
X150137035Y-135357307D01*
X150130967Y-135356100D01*
X149421015Y-135356100D01*
X148710834Y-135356101D01*
X148636599Y-135370866D01*
X148626279Y-135377761D01*
X148626278Y-135377762D01*
X148612805Y-135386764D01*
X148542802Y-135408000D01*
X147758998Y-135408000D01*
X147688995Y-135386764D01*
X147675521Y-135377761D01*
X147675518Y-135377760D01*
X147665201Y-135370866D01*
X147653032Y-135368445D01*
X147653031Y-135368445D01*
X147597035Y-135357307D01*
X147590967Y-135356100D01*
X146881015Y-135356100D01*
X146170834Y-135356101D01*
X146096599Y-135370866D01*
X146086279Y-135377761D01*
X146086278Y-135377762D01*
X146072805Y-135386764D01*
X146002802Y-135408000D01*
X145218998Y-135408000D01*
X145148995Y-135386764D01*
X145135521Y-135377761D01*
X145135518Y-135377760D01*
X145125201Y-135370866D01*
X145113032Y-135368445D01*
X145113031Y-135368445D01*
X145057035Y-135357307D01*
X145050967Y-135356100D01*
X144341015Y-135356100D01*
X143630834Y-135356101D01*
X143556599Y-135370866D01*
X143546279Y-135377761D01*
X143546278Y-135377762D01*
X143532805Y-135386764D01*
X143462802Y-135408000D01*
X142678998Y-135408000D01*
X142608995Y-135386764D01*
X142595521Y-135377761D01*
X142595518Y-135377760D01*
X142585201Y-135370866D01*
X142573032Y-135368445D01*
X142573031Y-135368445D01*
X142517035Y-135357307D01*
X142510967Y-135356100D01*
X141801015Y-135356100D01*
X141090834Y-135356101D01*
X141016599Y-135370866D01*
X141006279Y-135377761D01*
X141006278Y-135377762D01*
X140992805Y-135386764D01*
X140922802Y-135408000D01*
X140138998Y-135408000D01*
X140068995Y-135386764D01*
X140055521Y-135377761D01*
X140055518Y-135377760D01*
X140045201Y-135370866D01*
X140033032Y-135368445D01*
X140033031Y-135368445D01*
X139977035Y-135357307D01*
X139970967Y-135356100D01*
X139261015Y-135356100D01*
X138550834Y-135356101D01*
X138476599Y-135370866D01*
X138466279Y-135377761D01*
X138466278Y-135377762D01*
X138452805Y-135386764D01*
X138382802Y-135408000D01*
X137598998Y-135408000D01*
X137528995Y-135386764D01*
X137515521Y-135377761D01*
X137515518Y-135377760D01*
X137505201Y-135370866D01*
X137493032Y-135368445D01*
X137493031Y-135368445D01*
X137437035Y-135357307D01*
X137430967Y-135356100D01*
X136721015Y-135356100D01*
X136010834Y-135356101D01*
X135936599Y-135370866D01*
X135926279Y-135377761D01*
X135926278Y-135377762D01*
X135912805Y-135386764D01*
X135842802Y-135408000D01*
X135058998Y-135408000D01*
X134988995Y-135386764D01*
X134975521Y-135377761D01*
X134975518Y-135377760D01*
X134965201Y-135370866D01*
X134953032Y-135368445D01*
X134953031Y-135368445D01*
X134897035Y-135357307D01*
X134890967Y-135356100D01*
X134181015Y-135356100D01*
X133470834Y-135356101D01*
X133396599Y-135370866D01*
X133386279Y-135377761D01*
X133386278Y-135377762D01*
X133372805Y-135386764D01*
X133302802Y-135408000D01*
X132518998Y-135408000D01*
X132448995Y-135386764D01*
X132435521Y-135377761D01*
X132435518Y-135377760D01*
X132425201Y-135370866D01*
X132413032Y-135368445D01*
X132413031Y-135368445D01*
X132357035Y-135357307D01*
X132350967Y-135356100D01*
X131641015Y-135356100D01*
X130930834Y-135356101D01*
X130856599Y-135370866D01*
X130846279Y-135377761D01*
X130846278Y-135377762D01*
X130832805Y-135386764D01*
X130762802Y-135408000D01*
X130573100Y-135408000D01*
X130504979Y-135387998D01*
X130458486Y-135334342D01*
X130447100Y-135282000D01*
X130447100Y-134758179D01*
X131002681Y-134758179D01*
X131012563Y-134770669D01*
X131064407Y-134805310D01*
X131074517Y-134810800D01*
X131265356Y-134892791D01*
X131276299Y-134896346D01*
X131478879Y-134942186D01*
X131490288Y-134943688D01*
X131697836Y-134951842D01*
X131709318Y-134951240D01*
X131914879Y-134921436D01*
X131926062Y-134918751D01*
X132122748Y-134851985D01*
X132133251Y-134847309D01*
X132271386Y-134769951D01*
X132281249Y-134759874D01*
X132280596Y-134758179D01*
X133542681Y-134758179D01*
X133552563Y-134770669D01*
X133604407Y-134805310D01*
X133614517Y-134810800D01*
X133805356Y-134892791D01*
X133816299Y-134896346D01*
X134018879Y-134942186D01*
X134030288Y-134943688D01*
X134237836Y-134951842D01*
X134249318Y-134951240D01*
X134454879Y-134921436D01*
X134466062Y-134918751D01*
X134662748Y-134851985D01*
X134673251Y-134847309D01*
X134811386Y-134769951D01*
X134821249Y-134759874D01*
X134820596Y-134758179D01*
X136082681Y-134758179D01*
X136092563Y-134770669D01*
X136144407Y-134805310D01*
X136154517Y-134810800D01*
X136345356Y-134892791D01*
X136356299Y-134896346D01*
X136558879Y-134942186D01*
X136570288Y-134943688D01*
X136777836Y-134951842D01*
X136789318Y-134951240D01*
X136994879Y-134921436D01*
X137006062Y-134918751D01*
X137202748Y-134851985D01*
X137213251Y-134847309D01*
X137351386Y-134769951D01*
X137361249Y-134759874D01*
X137360596Y-134758179D01*
X138622681Y-134758179D01*
X138632563Y-134770669D01*
X138684407Y-134805310D01*
X138694517Y-134810800D01*
X138885356Y-134892791D01*
X138896299Y-134896346D01*
X139098879Y-134942186D01*
X139110288Y-134943688D01*
X139317836Y-134951842D01*
X139329318Y-134951240D01*
X139534879Y-134921436D01*
X139546062Y-134918751D01*
X139742748Y-134851985D01*
X139753251Y-134847309D01*
X139891386Y-134769951D01*
X139901249Y-134759874D01*
X139900596Y-134758179D01*
X141162681Y-134758179D01*
X141172563Y-134770669D01*
X141224407Y-134805310D01*
X141234517Y-134810800D01*
X141425356Y-134892791D01*
X141436299Y-134896346D01*
X141638879Y-134942186D01*
X141650288Y-134943688D01*
X141857836Y-134951842D01*
X141869318Y-134951240D01*
X142074879Y-134921436D01*
X142086062Y-134918751D01*
X142282748Y-134851985D01*
X142293251Y-134847309D01*
X142431386Y-134769951D01*
X142441249Y-134759874D01*
X142440596Y-134758179D01*
X143702681Y-134758179D01*
X143712563Y-134770669D01*
X143764407Y-134805310D01*
X143774517Y-134810800D01*
X143965356Y-134892791D01*
X143976299Y-134896346D01*
X144178879Y-134942186D01*
X144190288Y-134943688D01*
X144397836Y-134951842D01*
X144409318Y-134951240D01*
X144614879Y-134921436D01*
X144626062Y-134918751D01*
X144822748Y-134851985D01*
X144833251Y-134847309D01*
X144971386Y-134769951D01*
X144981249Y-134759874D01*
X144980596Y-134758179D01*
X146242681Y-134758179D01*
X146252563Y-134770669D01*
X146304407Y-134805310D01*
X146314517Y-134810800D01*
X146505356Y-134892791D01*
X146516299Y-134896346D01*
X146718879Y-134942186D01*
X146730288Y-134943688D01*
X146937836Y-134951842D01*
X146949318Y-134951240D01*
X147154879Y-134921436D01*
X147166062Y-134918751D01*
X147362748Y-134851985D01*
X147373251Y-134847309D01*
X147511386Y-134769951D01*
X147521249Y-134759874D01*
X147518294Y-134752204D01*
X146893712Y-134127622D01*
X146879768Y-134120008D01*
X146877935Y-134120139D01*
X146871320Y-134124390D01*
X146248877Y-134746833D01*
X146242681Y-134758179D01*
X144980596Y-134758179D01*
X144978294Y-134752204D01*
X144353712Y-134127622D01*
X144339768Y-134120008D01*
X144337935Y-134120139D01*
X144331320Y-134124390D01*
X143708877Y-134746833D01*
X143702681Y-134758179D01*
X142440596Y-134758179D01*
X142438294Y-134752204D01*
X141813712Y-134127622D01*
X141799768Y-134120008D01*
X141797935Y-134120139D01*
X141791320Y-134124390D01*
X141168877Y-134746833D01*
X141162681Y-134758179D01*
X139900596Y-134758179D01*
X139898294Y-134752204D01*
X139273712Y-134127622D01*
X139259768Y-134120008D01*
X139257935Y-134120139D01*
X139251320Y-134124390D01*
X138628877Y-134746833D01*
X138622681Y-134758179D01*
X137360596Y-134758179D01*
X137358294Y-134752204D01*
X136733712Y-134127622D01*
X136719768Y-134120008D01*
X136717935Y-134120139D01*
X136711320Y-134124390D01*
X136088877Y-134746833D01*
X136082681Y-134758179D01*
X134820596Y-134758179D01*
X134818294Y-134752204D01*
X134193712Y-134127622D01*
X134179768Y-134120008D01*
X134177935Y-134120139D01*
X134171320Y-134124390D01*
X133548877Y-134746833D01*
X133542681Y-134758179D01*
X132280596Y-134758179D01*
X132278294Y-134752204D01*
X131653712Y-134127622D01*
X131639768Y-134120008D01*
X131637935Y-134120139D01*
X131631320Y-134124390D01*
X131008877Y-134746833D01*
X131002681Y-134758179D01*
X130447100Y-134758179D01*
X130447100Y-134505420D01*
X130467102Y-134437299D01*
X130520758Y-134390806D01*
X130591032Y-134380702D01*
X130623736Y-134394776D01*
X130634231Y-134395816D01*
X130649588Y-134387702D01*
X131268878Y-133768412D01*
X131275256Y-133756732D01*
X132005308Y-133756732D01*
X132005439Y-133758565D01*
X132009690Y-133765180D01*
X132633588Y-134389078D01*
X132645968Y-134395838D01*
X132652548Y-134390912D01*
X132732609Y-134247951D01*
X132737285Y-134237448D01*
X132792201Y-134075671D01*
X132833038Y-134017595D01*
X132898791Y-133990816D01*
X132968583Y-134003837D01*
X133020256Y-134052524D01*
X133033637Y-134085157D01*
X133050089Y-134149938D01*
X133053930Y-134160785D01*
X133140887Y-134349410D01*
X133146638Y-134359372D01*
X133165699Y-134386343D01*
X133176287Y-134394730D01*
X133189588Y-134387702D01*
X133808878Y-133768412D01*
X133815256Y-133756732D01*
X134545308Y-133756732D01*
X134545439Y-133758565D01*
X134549690Y-133765180D01*
X135173588Y-134389078D01*
X135185968Y-134395838D01*
X135192548Y-134390912D01*
X135272609Y-134247951D01*
X135277285Y-134237448D01*
X135332201Y-134075671D01*
X135373038Y-134017595D01*
X135438791Y-133990816D01*
X135508583Y-134003837D01*
X135560256Y-134052524D01*
X135573637Y-134085157D01*
X135590089Y-134149938D01*
X135593930Y-134160785D01*
X135680887Y-134349410D01*
X135686638Y-134359372D01*
X135705699Y-134386343D01*
X135716287Y-134394730D01*
X135729588Y-134387702D01*
X136348878Y-133768412D01*
X136355256Y-133756732D01*
X137085308Y-133756732D01*
X137085439Y-133758565D01*
X137089690Y-133765180D01*
X137713588Y-134389078D01*
X137725968Y-134395838D01*
X137732548Y-134390912D01*
X137812609Y-134247951D01*
X137817285Y-134237448D01*
X137872201Y-134075671D01*
X137913038Y-134017595D01*
X137978791Y-133990816D01*
X138048583Y-134003837D01*
X138100256Y-134052524D01*
X138113637Y-134085157D01*
X138130089Y-134149938D01*
X138133930Y-134160785D01*
X138220887Y-134349410D01*
X138226638Y-134359372D01*
X138245699Y-134386343D01*
X138256287Y-134394730D01*
X138269588Y-134387702D01*
X138888878Y-133768412D01*
X138895256Y-133756732D01*
X139625308Y-133756732D01*
X139625439Y-133758565D01*
X139629690Y-133765180D01*
X140253588Y-134389078D01*
X140265968Y-134395838D01*
X140272548Y-134390912D01*
X140352609Y-134247951D01*
X140357285Y-134237448D01*
X140412201Y-134075671D01*
X140453038Y-134017595D01*
X140518791Y-133990816D01*
X140588583Y-134003837D01*
X140640256Y-134052524D01*
X140653637Y-134085157D01*
X140670089Y-134149938D01*
X140673930Y-134160785D01*
X140760887Y-134349410D01*
X140766638Y-134359372D01*
X140785699Y-134386343D01*
X140796287Y-134394730D01*
X140809588Y-134387702D01*
X141428878Y-133768412D01*
X141435256Y-133756732D01*
X142165308Y-133756732D01*
X142165439Y-133758565D01*
X142169690Y-133765180D01*
X142793588Y-134389078D01*
X142805968Y-134395838D01*
X142812548Y-134390912D01*
X142892609Y-134247951D01*
X142897285Y-134237448D01*
X142952201Y-134075671D01*
X142993038Y-134017595D01*
X143058791Y-133990816D01*
X143128583Y-134003837D01*
X143180256Y-134052524D01*
X143193637Y-134085157D01*
X143210089Y-134149938D01*
X143213930Y-134160785D01*
X143300887Y-134349410D01*
X143306638Y-134359372D01*
X143325699Y-134386343D01*
X143336287Y-134394730D01*
X143349588Y-134387702D01*
X143968878Y-133768412D01*
X143975256Y-133756732D01*
X144705308Y-133756732D01*
X144705439Y-133758565D01*
X144709690Y-133765180D01*
X145333588Y-134389078D01*
X145345968Y-134395838D01*
X145352548Y-134390912D01*
X145432609Y-134247951D01*
X145437285Y-134237448D01*
X145492201Y-134075671D01*
X145533038Y-134017595D01*
X145598791Y-133990816D01*
X145668583Y-134003837D01*
X145720256Y-134052524D01*
X145733637Y-134085157D01*
X145750089Y-134149938D01*
X145753930Y-134160785D01*
X145840887Y-134349410D01*
X145846638Y-134359372D01*
X145865699Y-134386343D01*
X145876287Y-134394730D01*
X145889588Y-134387702D01*
X146508878Y-133768412D01*
X146515256Y-133756732D01*
X147245308Y-133756732D01*
X147245439Y-133758565D01*
X147249690Y-133765180D01*
X147873588Y-134389078D01*
X147885968Y-134395838D01*
X147892548Y-134390912D01*
X147972609Y-134247951D01*
X147977285Y-134237448D01*
X148032201Y-134075671D01*
X148073038Y-134017595D01*
X148138791Y-133990816D01*
X148208583Y-134003837D01*
X148260256Y-134052524D01*
X148273637Y-134085157D01*
X148290089Y-134149938D01*
X148293930Y-134160785D01*
X148380887Y-134349410D01*
X148386638Y-134359372D01*
X148405699Y-134386343D01*
X148416287Y-134394730D01*
X148429588Y-134387702D01*
X149048878Y-133768412D01*
X149056492Y-133754468D01*
X149056361Y-133752635D01*
X149052110Y-133746020D01*
X148426504Y-133120414D01*
X148414124Y-133113654D01*
X148408158Y-133118120D01*
X148316682Y-133291987D01*
X148312277Y-133302621D01*
X148270987Y-133435597D01*
X148231684Y-133494722D01*
X148166655Y-133523213D01*
X148096545Y-133512023D01*
X148043615Y-133464706D01*
X148029385Y-133432435D01*
X148001001Y-133331794D01*
X147996879Y-133321055D01*
X147905011Y-133134767D01*
X147899005Y-133124965D01*
X147897764Y-133123302D01*
X147886504Y-133114853D01*
X147874086Y-133121624D01*
X147252922Y-133742788D01*
X147245308Y-133756732D01*
X146515256Y-133756732D01*
X146516492Y-133754468D01*
X146516361Y-133752635D01*
X146512110Y-133746020D01*
X145886504Y-133120414D01*
X145874124Y-133113654D01*
X145868158Y-133118120D01*
X145776682Y-133291987D01*
X145772277Y-133302621D01*
X145730987Y-133435597D01*
X145691684Y-133494722D01*
X145626655Y-133523213D01*
X145556545Y-133512023D01*
X145503615Y-133464706D01*
X145489385Y-133432435D01*
X145461001Y-133331794D01*
X145456879Y-133321055D01*
X145365011Y-133134767D01*
X145359005Y-133124965D01*
X145357764Y-133123302D01*
X145346504Y-133114853D01*
X145334086Y-133121624D01*
X144712922Y-133742788D01*
X144705308Y-133756732D01*
X143975256Y-133756732D01*
X143976492Y-133754468D01*
X143976361Y-133752635D01*
X143972110Y-133746020D01*
X143346504Y-133120414D01*
X143334124Y-133113654D01*
X143328158Y-133118120D01*
X143236682Y-133291987D01*
X143232277Y-133302621D01*
X143190987Y-133435597D01*
X143151684Y-133494722D01*
X143086655Y-133523213D01*
X143016545Y-133512023D01*
X142963615Y-133464706D01*
X142949385Y-133432435D01*
X142921001Y-133331794D01*
X142916879Y-133321055D01*
X142825011Y-133134767D01*
X142819005Y-133124965D01*
X142817764Y-133123302D01*
X142806504Y-133114853D01*
X142794086Y-133121624D01*
X142172922Y-133742788D01*
X142165308Y-133756732D01*
X141435256Y-133756732D01*
X141436492Y-133754468D01*
X141436361Y-133752635D01*
X141432110Y-133746020D01*
X140806504Y-133120414D01*
X140794124Y-133113654D01*
X140788158Y-133118120D01*
X140696682Y-133291987D01*
X140692277Y-133302621D01*
X140650987Y-133435597D01*
X140611684Y-133494722D01*
X140546655Y-133523213D01*
X140476545Y-133512023D01*
X140423615Y-133464706D01*
X140409385Y-133432435D01*
X140381001Y-133331794D01*
X140376879Y-133321055D01*
X140285011Y-133134767D01*
X140279005Y-133124965D01*
X140277764Y-133123302D01*
X140266504Y-133114853D01*
X140254086Y-133121624D01*
X139632922Y-133742788D01*
X139625308Y-133756732D01*
X138895256Y-133756732D01*
X138896492Y-133754468D01*
X138896361Y-133752635D01*
X138892110Y-133746020D01*
X138266504Y-133120414D01*
X138254124Y-133113654D01*
X138248158Y-133118120D01*
X138156682Y-133291987D01*
X138152277Y-133302621D01*
X138110987Y-133435597D01*
X138071684Y-133494722D01*
X138006655Y-133523213D01*
X137936545Y-133512023D01*
X137883615Y-133464706D01*
X137869385Y-133432435D01*
X137841001Y-133331794D01*
X137836879Y-133321055D01*
X137745011Y-133134767D01*
X137739005Y-133124965D01*
X137737764Y-133123302D01*
X137726504Y-133114853D01*
X137714086Y-133121624D01*
X137092922Y-133742788D01*
X137085308Y-133756732D01*
X136355256Y-133756732D01*
X136356492Y-133754468D01*
X136356361Y-133752635D01*
X136352110Y-133746020D01*
X135726504Y-133120414D01*
X135714124Y-133113654D01*
X135708158Y-133118120D01*
X135616682Y-133291987D01*
X135612277Y-133302621D01*
X135570987Y-133435597D01*
X135531684Y-133494722D01*
X135466655Y-133523213D01*
X135396545Y-133512023D01*
X135343615Y-133464706D01*
X135329385Y-133432435D01*
X135301001Y-133331794D01*
X135296879Y-133321055D01*
X135205011Y-133134767D01*
X135199005Y-133124965D01*
X135197764Y-133123302D01*
X135186504Y-133114853D01*
X135174086Y-133121624D01*
X134552922Y-133742788D01*
X134545308Y-133756732D01*
X133815256Y-133756732D01*
X133816492Y-133754468D01*
X133816361Y-133752635D01*
X133812110Y-133746020D01*
X133186504Y-133120414D01*
X133174124Y-133113654D01*
X133168158Y-133118120D01*
X133076682Y-133291987D01*
X133072277Y-133302621D01*
X133030987Y-133435597D01*
X132991684Y-133494722D01*
X132926655Y-133523213D01*
X132856545Y-133512023D01*
X132803615Y-133464706D01*
X132789385Y-133432435D01*
X132761001Y-133331794D01*
X132756879Y-133321055D01*
X132665011Y-133134767D01*
X132659005Y-133124965D01*
X132657764Y-133123302D01*
X132646504Y-133114853D01*
X132634086Y-133121624D01*
X132012922Y-133742788D01*
X132005308Y-133756732D01*
X131275256Y-133756732D01*
X131276492Y-133754468D01*
X131276361Y-133752635D01*
X131272110Y-133746020D01*
X130646504Y-133120414D01*
X130632560Y-133112800D01*
X130619282Y-133113749D01*
X130582090Y-133127622D01*
X130512716Y-133112531D01*
X130462513Y-133062330D01*
X130447100Y-133001943D01*
X130447100Y-132752259D01*
X131001671Y-132752259D01*
X131005158Y-132760648D01*
X131628088Y-133383578D01*
X131642032Y-133391192D01*
X131643865Y-133391061D01*
X131650480Y-133386810D01*
X132272809Y-132764481D01*
X132279483Y-132752259D01*
X133541671Y-132752259D01*
X133545158Y-132760648D01*
X134168088Y-133383578D01*
X134182032Y-133391192D01*
X134183865Y-133391061D01*
X134190480Y-133386810D01*
X134812809Y-132764481D01*
X134819483Y-132752259D01*
X136081671Y-132752259D01*
X136085158Y-132760648D01*
X136708088Y-133383578D01*
X136722032Y-133391192D01*
X136723865Y-133391061D01*
X136730480Y-133386810D01*
X137352809Y-132764481D01*
X137359483Y-132752259D01*
X138621671Y-132752259D01*
X138625158Y-132760648D01*
X139248088Y-133383578D01*
X139262032Y-133391192D01*
X139263865Y-133391061D01*
X139270480Y-133386810D01*
X139892809Y-132764481D01*
X139899483Y-132752259D01*
X141161671Y-132752259D01*
X141165158Y-132760648D01*
X141788088Y-133383578D01*
X141802032Y-133391192D01*
X141803865Y-133391061D01*
X141810480Y-133386810D01*
X142432809Y-132764481D01*
X142439483Y-132752259D01*
X143701671Y-132752259D01*
X143705158Y-132760648D01*
X144328088Y-133383578D01*
X144342032Y-133391192D01*
X144343865Y-133391061D01*
X144350480Y-133386810D01*
X144972809Y-132764481D01*
X144979483Y-132752259D01*
X146241671Y-132752259D01*
X146245158Y-132760648D01*
X146868088Y-133383578D01*
X146882032Y-133391192D01*
X146883865Y-133391061D01*
X146890480Y-133386810D01*
X147512809Y-132764481D01*
X147519483Y-132752259D01*
X148781671Y-132752259D01*
X148785158Y-132760648D01*
X149691015Y-133666505D01*
X149725041Y-133728817D01*
X149719976Y-133799632D01*
X149691015Y-133844695D01*
X148788877Y-134746833D01*
X148782681Y-134758179D01*
X148792563Y-134770669D01*
X148844407Y-134805310D01*
X148854517Y-134810800D01*
X149045356Y-134892791D01*
X149056299Y-134896346D01*
X149258879Y-134942186D01*
X149270288Y-134943688D01*
X149477836Y-134951842D01*
X149489318Y-134951240D01*
X149694879Y-134921436D01*
X149706062Y-134918751D01*
X149902748Y-134851985D01*
X149913251Y-134847309D01*
X150038521Y-134777155D01*
X150107729Y-134761322D01*
X150175652Y-134786264D01*
X150227052Y-134824786D01*
X150242646Y-134833324D01*
X150363094Y-134878478D01*
X150378349Y-134882105D01*
X150429214Y-134887631D01*
X150436028Y-134888000D01*
X150708585Y-134888000D01*
X150723824Y-134883525D01*
X150725029Y-134882135D01*
X150726700Y-134874452D01*
X150726700Y-132390116D01*
X150722225Y-132374877D01*
X150720835Y-132373672D01*
X150713152Y-132372001D01*
X150436031Y-132372001D01*
X150429210Y-132372371D01*
X150378348Y-132377895D01*
X150363096Y-132381521D01*
X150242646Y-132426676D01*
X150227051Y-132435214D01*
X150124976Y-132511715D01*
X150112415Y-132524276D01*
X150041819Y-132618472D01*
X149984960Y-132660987D01*
X149914141Y-132666013D01*
X149894303Y-132659937D01*
X149766551Y-132608970D01*
X149755514Y-132605701D01*
X149551803Y-132565179D01*
X149540358Y-132563976D01*
X149332679Y-132561258D01*
X149321199Y-132562161D01*
X149116503Y-132597335D01*
X149105383Y-132600315D01*
X148910516Y-132672205D01*
X148900138Y-132677155D01*
X148791269Y-132741926D01*
X148781671Y-132752259D01*
X147519483Y-132752259D01*
X147519569Y-132752101D01*
X147513539Y-132744046D01*
X147429711Y-132691154D01*
X147419468Y-132685936D01*
X147226551Y-132608970D01*
X147215514Y-132605701D01*
X147011803Y-132565179D01*
X147000358Y-132563976D01*
X146792679Y-132561258D01*
X146781199Y-132562161D01*
X146576503Y-132597335D01*
X146565383Y-132600315D01*
X146370516Y-132672205D01*
X146360138Y-132677155D01*
X146251269Y-132741926D01*
X146241671Y-132752259D01*
X144979483Y-132752259D01*
X144979569Y-132752101D01*
X144973539Y-132744046D01*
X144889711Y-132691154D01*
X144879468Y-132685936D01*
X144686551Y-132608970D01*
X144675514Y-132605701D01*
X144471803Y-132565179D01*
X144460358Y-132563976D01*
X144252679Y-132561258D01*
X144241199Y-132562161D01*
X144036503Y-132597335D01*
X144025383Y-132600315D01*
X143830516Y-132672205D01*
X143820138Y-132677155D01*
X143711269Y-132741926D01*
X143701671Y-132752259D01*
X142439483Y-132752259D01*
X142439569Y-132752101D01*
X142433539Y-132744046D01*
X142349711Y-132691154D01*
X142339468Y-132685936D01*
X142146551Y-132608970D01*
X142135514Y-132605701D01*
X141931803Y-132565179D01*
X141920358Y-132563976D01*
X141712679Y-132561258D01*
X141701199Y-132562161D01*
X141496503Y-132597335D01*
X141485383Y-132600315D01*
X141290516Y-132672205D01*
X141280138Y-132677155D01*
X141171269Y-132741926D01*
X141161671Y-132752259D01*
X139899483Y-132752259D01*
X139899569Y-132752101D01*
X139893539Y-132744046D01*
X139809711Y-132691154D01*
X139799468Y-132685936D01*
X139606551Y-132608970D01*
X139595514Y-132605701D01*
X139391803Y-132565179D01*
X139380358Y-132563976D01*
X139172679Y-132561258D01*
X139161199Y-132562161D01*
X138956503Y-132597335D01*
X138945383Y-132600315D01*
X138750516Y-132672205D01*
X138740138Y-132677155D01*
X138631269Y-132741926D01*
X138621671Y-132752259D01*
X137359483Y-132752259D01*
X137359569Y-132752101D01*
X137353539Y-132744046D01*
X137269711Y-132691154D01*
X137259468Y-132685936D01*
X137066551Y-132608970D01*
X137055514Y-132605701D01*
X136851803Y-132565179D01*
X136840358Y-132563976D01*
X136632679Y-132561258D01*
X136621199Y-132562161D01*
X136416503Y-132597335D01*
X136405383Y-132600315D01*
X136210516Y-132672205D01*
X136200138Y-132677155D01*
X136091269Y-132741926D01*
X136081671Y-132752259D01*
X134819483Y-132752259D01*
X134819569Y-132752101D01*
X134813539Y-132744046D01*
X134729711Y-132691154D01*
X134719468Y-132685936D01*
X134526551Y-132608970D01*
X134515514Y-132605701D01*
X134311803Y-132565179D01*
X134300358Y-132563976D01*
X134092679Y-132561258D01*
X134081199Y-132562161D01*
X133876503Y-132597335D01*
X133865383Y-132600315D01*
X133670516Y-132672205D01*
X133660138Y-132677155D01*
X133551269Y-132741926D01*
X133541671Y-132752259D01*
X132279483Y-132752259D01*
X132279569Y-132752101D01*
X132273539Y-132744046D01*
X132189711Y-132691154D01*
X132179468Y-132685936D01*
X131986551Y-132608970D01*
X131975514Y-132605701D01*
X131771803Y-132565179D01*
X131760358Y-132563976D01*
X131552679Y-132561258D01*
X131541199Y-132562161D01*
X131336503Y-132597335D01*
X131325383Y-132600315D01*
X131130516Y-132672205D01*
X131120138Y-132677155D01*
X131011269Y-132741926D01*
X131001671Y-132752259D01*
X130447100Y-132752259D01*
X130447100Y-132181200D01*
X130467102Y-132113079D01*
X130520758Y-132066586D01*
X130573100Y-132055200D01*
X131190041Y-132055200D01*
X131241289Y-132066093D01*
G37*
G04 #@! TD.AperFunction*
G04 #@! TD*
M02*
