G04 #@! TF.GenerationSoftware,KiCad,Pcbnew,6.0.11-2627ca5db0~126~ubuntu22.04.1*
G04 #@! TF.CreationDate,2023-09-27T18:56:04-03:00*
G04 #@! TF.ProjectId,Drone FCC,44726f6e-6520-4464-9343-2e6b69636164,rev?*
G04 #@! TF.SameCoordinates,Original*
G04 #@! TF.FileFunction,Copper,L1,Top*
G04 #@! TF.FilePolarity,Positive*
%FSLAX46Y46*%
G04 Gerber Fmt 4.6, Leading zero omitted, Abs format (unit mm)*
G04 Created by KiCad (PCBNEW 6.0.11-2627ca5db0~126~ubuntu22.04.1) date 2023-09-27 18:56:04*
%MOMM*%
%LPD*%
G01*
G04 APERTURE LIST*
G04 Aperture macros list*
%AMRoundRect*
0 Rectangle with rounded corners*
0 $1 Rounding radius*
0 $2 $3 $4 $5 $6 $7 $8 $9 X,Y pos of 4 corners*
0 Add a 4 corners polygon primitive as box body*
4,1,4,$2,$3,$4,$5,$6,$7,$8,$9,$2,$3,0*
0 Add four circle primitives for the rounded corners*
1,1,$1+$1,$2,$3*
1,1,$1+$1,$4,$5*
1,1,$1+$1,$6,$7*
1,1,$1+$1,$8,$9*
0 Add four rect primitives between the rounded corners*
20,1,$1+$1,$2,$3,$4,$5,0*
20,1,$1+$1,$4,$5,$6,$7,0*
20,1,$1+$1,$6,$7,$8,$9,0*
20,1,$1+$1,$8,$9,$2,$3,0*%
G04 Aperture macros list end*
G04 #@! TA.AperFunction,SMDPad,CuDef*
%ADD10RoundRect,0.155000X-0.155000X0.212500X-0.155000X-0.212500X0.155000X-0.212500X0.155000X0.212500X0*%
G04 #@! TD*
G04 #@! TA.AperFunction,SMDPad,CuDef*
%ADD11RoundRect,0.155000X-0.212500X-0.155000X0.212500X-0.155000X0.212500X0.155000X-0.212500X0.155000X0*%
G04 #@! TD*
G04 #@! TA.AperFunction,SMDPad,CuDef*
%ADD12RoundRect,0.155000X0.155000X-0.212500X0.155000X0.212500X-0.155000X0.212500X-0.155000X-0.212500X0*%
G04 #@! TD*
G04 #@! TA.AperFunction,SMDPad,CuDef*
%ADD13RoundRect,0.160000X-0.197500X-0.160000X0.197500X-0.160000X0.197500X0.160000X-0.197500X0.160000X0*%
G04 #@! TD*
G04 #@! TA.AperFunction,SMDPad,CuDef*
%ADD14RoundRect,0.160000X0.197500X0.160000X-0.197500X0.160000X-0.197500X-0.160000X0.197500X-0.160000X0*%
G04 #@! TD*
G04 #@! TA.AperFunction,SMDPad,CuDef*
%ADD15RoundRect,0.160000X0.160000X-0.197500X0.160000X0.197500X-0.160000X0.197500X-0.160000X-0.197500X0*%
G04 #@! TD*
G04 #@! TA.AperFunction,SMDPad,CuDef*
%ADD16RoundRect,0.155000X0.212500X0.155000X-0.212500X0.155000X-0.212500X-0.155000X0.212500X-0.155000X0*%
G04 #@! TD*
G04 #@! TA.AperFunction,SMDPad,CuDef*
%ADD17RoundRect,0.160000X-0.160000X0.197500X-0.160000X-0.197500X0.160000X-0.197500X0.160000X0.197500X0*%
G04 #@! TD*
G04 #@! TA.AperFunction,SMDPad,CuDef*
%ADD18RoundRect,0.150000X0.150000X-0.587500X0.150000X0.587500X-0.150000X0.587500X-0.150000X-0.587500X0*%
G04 #@! TD*
G04 #@! TA.AperFunction,SMDPad,CuDef*
%ADD19RoundRect,0.150000X0.587500X0.150000X-0.587500X0.150000X-0.587500X-0.150000X0.587500X-0.150000X0*%
G04 #@! TD*
G04 #@! TA.AperFunction,ComponentPad*
%ADD20C,1.370000*%
G04 #@! TD*
G04 #@! TA.AperFunction,ComponentPad*
%ADD21R,1.370000X1.370000*%
G04 #@! TD*
G04 #@! TA.AperFunction,ComponentPad*
%ADD22R,1.700000X1.700000*%
G04 #@! TD*
G04 #@! TA.AperFunction,ComponentPad*
%ADD23O,1.700000X1.700000*%
G04 #@! TD*
G04 #@! TA.AperFunction,SMDPad,CuDef*
%ADD24RoundRect,0.250000X0.325000X0.450000X-0.325000X0.450000X-0.325000X-0.450000X0.325000X-0.450000X0*%
G04 #@! TD*
G04 #@! TA.AperFunction,SMDPad,CuDef*
%ADD25RoundRect,0.031500X-0.143500X0.263500X-0.143500X-0.263500X0.143500X-0.263500X0.143500X0.263500X0*%
G04 #@! TD*
G04 #@! TA.AperFunction,SMDPad,CuDef*
%ADD26RoundRect,0.031500X-0.263500X-0.143500X0.263500X-0.143500X0.263500X0.143500X-0.263500X0.143500X0*%
G04 #@! TD*
G04 #@! TA.AperFunction,SMDPad,CuDef*
%ADD27RoundRect,0.031500X0.143500X-0.263500X0.143500X0.263500X-0.143500X0.263500X-0.143500X-0.263500X0*%
G04 #@! TD*
G04 #@! TA.AperFunction,SMDPad,CuDef*
%ADD28RoundRect,0.031500X0.263500X0.143500X-0.263500X0.143500X-0.263500X-0.143500X0.263500X-0.143500X0*%
G04 #@! TD*
G04 #@! TA.AperFunction,SMDPad,CuDef*
%ADD29R,1.000000X1.500000*%
G04 #@! TD*
G04 #@! TA.AperFunction,SMDPad,CuDef*
%ADD30RoundRect,0.150000X0.512500X0.150000X-0.512500X0.150000X-0.512500X-0.150000X0.512500X-0.150000X0*%
G04 #@! TD*
G04 #@! TA.AperFunction,SMDPad,CuDef*
%ADD31RoundRect,0.237500X0.237500X-0.300000X0.237500X0.300000X-0.237500X0.300000X-0.237500X-0.300000X0*%
G04 #@! TD*
G04 #@! TA.AperFunction,SMDPad,CuDef*
%ADD32RoundRect,0.237500X-0.300000X-0.237500X0.300000X-0.237500X0.300000X0.237500X-0.300000X0.237500X0*%
G04 #@! TD*
G04 #@! TA.AperFunction,SMDPad,CuDef*
%ADD33RoundRect,0.250000X-0.475000X0.337500X-0.475000X-0.337500X0.475000X-0.337500X0.475000X0.337500X0*%
G04 #@! TD*
G04 #@! TA.AperFunction,ComponentPad*
%ADD34C,3.600000*%
G04 #@! TD*
G04 #@! TA.AperFunction,ConnectorPad*
%ADD35C,6.400000*%
G04 #@! TD*
G04 #@! TA.AperFunction,ComponentPad*
%ADD36R,1.950000X1.950000*%
G04 #@! TD*
G04 #@! TA.AperFunction,ComponentPad*
%ADD37C,1.950000*%
G04 #@! TD*
G04 #@! TA.AperFunction,SMDPad,CuDef*
%ADD38R,2.300000X1.500000*%
G04 #@! TD*
G04 #@! TA.AperFunction,SMDPad,CuDef*
%ADD39RoundRect,0.150000X0.150000X-0.825000X0.150000X0.825000X-0.150000X0.825000X-0.150000X-0.825000X0*%
G04 #@! TD*
G04 #@! TA.AperFunction,SMDPad,CuDef*
%ADD40R,1.100000X1.300000*%
G04 #@! TD*
G04 #@! TA.AperFunction,SMDPad,CuDef*
%ADD41RoundRect,0.075000X-0.662500X-0.075000X0.662500X-0.075000X0.662500X0.075000X-0.662500X0.075000X0*%
G04 #@! TD*
G04 #@! TA.AperFunction,SMDPad,CuDef*
%ADD42RoundRect,0.075000X-0.075000X-0.662500X0.075000X-0.662500X0.075000X0.662500X-0.075000X0.662500X0*%
G04 #@! TD*
G04 #@! TA.AperFunction,SMDPad,CuDef*
%ADD43R,1.295400X0.609600*%
G04 #@! TD*
G04 #@! TA.AperFunction,SMDPad,CuDef*
%ADD44R,1.080000X0.920000*%
G04 #@! TD*
G04 #@! TA.AperFunction,SMDPad,CuDef*
%ADD45RoundRect,0.237500X-0.237500X0.300000X-0.237500X-0.300000X0.237500X-0.300000X0.237500X0.300000X0*%
G04 #@! TD*
G04 #@! TA.AperFunction,SMDPad,CuDef*
%ADD46R,0.700000X1.800000*%
G04 #@! TD*
G04 #@! TA.AperFunction,SMDPad,CuDef*
%ADD47R,1.600000X2.200000*%
G04 #@! TD*
G04 #@! TA.AperFunction,SMDPad,CuDef*
%ADD48R,3.600000X0.700000*%
G04 #@! TD*
G04 #@! TA.AperFunction,SMDPad,CuDef*
%ADD49R,1.820000X1.160000*%
G04 #@! TD*
G04 #@! TA.AperFunction,SMDPad,CuDef*
%ADD50RoundRect,0.250000X0.475000X-0.337500X0.475000X0.337500X-0.475000X0.337500X-0.475000X-0.337500X0*%
G04 #@! TD*
G04 #@! TA.AperFunction,SMDPad,CuDef*
%ADD51R,1.350000X0.400000*%
G04 #@! TD*
G04 #@! TA.AperFunction,ComponentPad*
%ADD52O,1.700000X1.000000*%
G04 #@! TD*
G04 #@! TA.AperFunction,SMDPad,CuDef*
%ADD53R,1.900000X1.500000*%
G04 #@! TD*
G04 #@! TA.AperFunction,SMDPad,CuDef*
%ADD54R,1.900000X1.800000*%
G04 #@! TD*
G04 #@! TA.AperFunction,ComponentPad*
%ADD55C,1.450000*%
G04 #@! TD*
G04 #@! TA.AperFunction,SMDPad,CuDef*
%ADD56R,0.700000X1.200000*%
G04 #@! TD*
G04 #@! TA.AperFunction,SMDPad,CuDef*
%ADD57R,1.000000X1.200000*%
G04 #@! TD*
G04 #@! TA.AperFunction,SMDPad,CuDef*
%ADD58R,1.000000X2.800000*%
G04 #@! TD*
G04 #@! TA.AperFunction,SMDPad,CuDef*
%ADD59R,1.300000X1.900000*%
G04 #@! TD*
G04 #@! TA.AperFunction,SMDPad,CuDef*
%ADD60R,1.000000X0.800000*%
G04 #@! TD*
G04 #@! TA.AperFunction,SMDPad,CuDef*
%ADD61R,1.800000X0.700000*%
G04 #@! TD*
G04 #@! TA.AperFunction,SMDPad,CuDef*
%ADD62R,2.200000X1.600000*%
G04 #@! TD*
G04 #@! TA.AperFunction,SMDPad,CuDef*
%ADD63R,2.000000X1.500000*%
G04 #@! TD*
G04 #@! TA.AperFunction,SMDPad,CuDef*
%ADD64R,2.000000X3.800000*%
G04 #@! TD*
G04 #@! TA.AperFunction,SMDPad,CuDef*
%ADD65RoundRect,0.250000X-0.412500X-0.650000X0.412500X-0.650000X0.412500X0.650000X-0.412500X0.650000X0*%
G04 #@! TD*
G04 #@! TA.AperFunction,SMDPad,CuDef*
%ADD66RoundRect,0.237500X0.300000X0.237500X-0.300000X0.237500X-0.300000X-0.237500X0.300000X-0.237500X0*%
G04 #@! TD*
G04 #@! TA.AperFunction,SMDPad,CuDef*
%ADD67R,0.304800X0.330200*%
G04 #@! TD*
G04 #@! TA.AperFunction,SMDPad,CuDef*
%ADD68R,0.330200X0.304800*%
G04 #@! TD*
G04 #@! TA.AperFunction,ViaPad*
%ADD69C,0.800000*%
G04 #@! TD*
G04 #@! TA.AperFunction,Conductor*
%ADD70C,0.200000*%
G04 #@! TD*
G04 #@! TA.AperFunction,Conductor*
%ADD71C,0.500000*%
G04 #@! TD*
G04 #@! TA.AperFunction,Conductor*
%ADD72C,0.600000*%
G04 #@! TD*
G04 #@! TA.AperFunction,Conductor*
%ADD73C,2.000000*%
G04 #@! TD*
G04 #@! TA.AperFunction,Conductor*
%ADD74C,0.254000*%
G04 #@! TD*
G04 #@! TA.AperFunction,Conductor*
%ADD75C,0.700000*%
G04 #@! TD*
G04 APERTURE END LIST*
D10*
G04 #@! TO.P,C24,1*
G04 #@! TO.N,/MCU/VCAP_1*
X164566600Y-98746500D03*
G04 #@! TO.P,C24,2*
G04 #@! TO.N,GND*
X164566600Y-99881500D03*
G04 #@! TD*
D11*
G04 #@! TO.P,C9,1*
G04 #@! TO.N,Net-(C9-Pad1)*
X144082500Y-102050000D03*
G04 #@! TO.P,C9,2*
G04 #@! TO.N,GND*
X145217500Y-102050000D03*
G04 #@! TD*
D12*
G04 #@! TO.P,C31,1*
G04 #@! TO.N,3V3*
X166116000Y-98001900D03*
G04 #@! TO.P,C31,2*
G04 #@! TO.N,GND*
X166116000Y-96866900D03*
G04 #@! TD*
D13*
G04 #@! TO.P,R43,1*
G04 #@! TO.N,GND*
X131696850Y-73279000D03*
G04 #@! TO.P,R43,2*
G04 #@! TO.N,/Leds indicadores + pulsadores/LED1*
X132891850Y-73279000D03*
G04 #@! TD*
D14*
G04 #@! TO.P,R51,1*
G04 #@! TO.N,/Leds indicadores + pulsadores/LED6*
X132960000Y-79104850D03*
G04 #@! TO.P,R51,2*
G04 #@! TO.N,Net-(Q3-Pad1)*
X131765000Y-79104850D03*
G04 #@! TD*
G04 #@! TO.P,R22,1*
G04 #@! TO.N,/MCU/PDR_ON*
X143800000Y-70292000D03*
G04 #@! TO.P,R22,2*
G04 #@! TO.N,GND*
X142605000Y-70292000D03*
G04 #@! TD*
D15*
G04 #@! TO.P,R57,1*
G04 #@! TO.N,GND*
X129946400Y-80975200D03*
G04 #@! TO.P,R57,2*
G04 #@! TO.N,/Leds indicadores + pulsadores/LED7*
X129946400Y-79780200D03*
G04 #@! TD*
D13*
G04 #@! TO.P,R37,1*
G04 #@! TO.N,Net-(J24-Pad1)*
X159955900Y-70180200D03*
G04 #@! TO.P,R37,2*
G04 #@! TO.N,/MCU/SDMMC1_D2*
X161150900Y-70180200D03*
G04 #@! TD*
D16*
G04 #@! TO.P,C3,1*
G04 #@! TO.N,GND*
X127310000Y-131800000D03*
G04 #@! TO.P,C3,2*
G04 #@! TO.N,/Chassis_Bond_3*
X126175000Y-131800000D03*
G04 #@! TD*
D15*
G04 #@! TO.P,R30,1*
G04 #@! TO.N,/MCU/SDMMC1_D3*
X163499800Y-71463500D03*
G04 #@! TO.P,R30,2*
G04 #@! TO.N,3V3*
X163499800Y-70268500D03*
G04 #@! TD*
D13*
G04 #@! TO.P,R49,1*
G04 #@! TO.N,GND*
X131765001Y-80247849D03*
G04 #@! TO.P,R49,2*
G04 #@! TO.N,/Leds indicadores + pulsadores/LED6*
X132960001Y-80247849D03*
G04 #@! TD*
D17*
G04 #@! TO.P,R19,1*
G04 #@! TO.N,3V3*
X149860000Y-66216600D03*
G04 #@! TO.P,R19,2*
G04 #@! TO.N,/MCU/BOOT0*
X149860000Y-67411600D03*
G04 #@! TD*
D18*
G04 #@! TO.P,Q3,1,G*
G04 #@! TO.N,Net-(Q3-Pad1)*
X131333200Y-77530050D03*
G04 #@! TO.P,Q3,2,S*
G04 #@! TO.N,GND*
X133233200Y-77530050D03*
G04 #@! TO.P,Q3,3,D*
G04 #@! TO.N,Net-(Q3-Pad3)*
X132283200Y-75655050D03*
G04 #@! TD*
D19*
G04 #@! TO.P,Q8,1,G*
G04 #@! TO.N,Net-(Q8-Pad1)*
X127251700Y-83881000D03*
G04 #@! TO.P,Q8,2,S*
G04 #@! TO.N,GND*
X127251700Y-81981000D03*
G04 #@! TO.P,Q8,3,D*
G04 #@! TO.N,Net-(Q8-Pad3)*
X125376700Y-82931000D03*
G04 #@! TD*
D13*
G04 #@! TO.P,R50,1*
G04 #@! TO.N,GND*
X135290600Y-73279000D03*
G04 #@! TO.P,R50,2*
G04 #@! TO.N,/Leds indicadores + pulsadores/LED3*
X136485600Y-73279000D03*
G04 #@! TD*
D17*
G04 #@! TO.P,R28,1*
G04 #@! TO.N,/MCU/PD3(EXTI3)*
X175412400Y-58127300D03*
G04 #@! TO.P,R28,2*
G04 #@! TO.N,3V3*
X175412400Y-59322300D03*
G04 #@! TD*
D11*
G04 #@! TO.P,C7,1*
G04 #@! TO.N,GND*
X144009300Y-66686200D03*
G04 #@! TO.P,C7,2*
G04 #@! TO.N,3V3*
X145144300Y-66686200D03*
G04 #@! TD*
D20*
G04 #@! TO.P,J14,1,Pin_1*
G04 #@! TO.N,/MCU/TIM4_CH4*
X161798000Y-131215000D03*
G04 #@! TO.P,J14,2,Pin_2*
G04 #@! TO.N,/Motores_servos_PWM/Vdd_servos*
X161798000Y-133755000D03*
D21*
G04 #@! TO.P,J14,3,Pin_3*
G04 #@! TO.N,GND*
X161798000Y-136295000D03*
G04 #@! TD*
D14*
G04 #@! TO.P,R48,1*
G04 #@! TO.N,3V3*
X134760300Y-61036200D03*
G04 #@! TO.P,R48,2*
G04 #@! TO.N,/Leds indicadores + pulsadores/SW_2*
X133565300Y-61036200D03*
G04 #@! TD*
D22*
G04 #@! TO.P,J20,1,Pin_1*
G04 #@! TO.N,3V3*
X129159000Y-112989600D03*
D23*
G04 #@! TO.P,J20,2,Pin_2*
G04 #@! TO.N,unconnected-(J20-Pad2)*
X126619000Y-112989600D03*
G04 #@! TO.P,J20,3,Pin_3*
G04 #@! TO.N,GND*
X129159000Y-110449600D03*
G04 #@! TO.P,J20,4,Pin_4*
G04 #@! TO.N,/Sensores/GNSS_SDA*
X126619000Y-110449600D03*
G04 #@! TO.P,J20,5,Pin_5*
G04 #@! TO.N,/Sensores/MAG_INT_DATA_RDY*
X129159000Y-107909600D03*
G04 #@! TO.P,J20,6,Pin_6*
G04 #@! TO.N,/Sensores/GNSS_SCL*
X126619000Y-107909600D03*
G04 #@! TD*
D11*
G04 #@! TO.P,C33,1*
G04 #@! TO.N,3V3*
X167446050Y-75971400D03*
G04 #@! TO.P,C33,2*
G04 #@! TO.N,GND*
X168581050Y-75971400D03*
G04 #@! TD*
D22*
G04 #@! TO.P,J28,1,Pin_1*
G04 #@! TO.N,5V*
X175706000Y-108767800D03*
D23*
G04 #@! TO.P,J28,2,Pin_2*
X178246000Y-108767800D03*
G04 #@! TO.P,J28,3,Pin_3*
G04 #@! TO.N,GND*
X175706000Y-111307800D03*
G04 #@! TO.P,J28,4,Pin_4*
X178246000Y-111307800D03*
G04 #@! TO.P,J28,5,Pin_5*
X175706000Y-113847800D03*
G04 #@! TO.P,J28,6,Pin_6*
X178246000Y-113847800D03*
G04 #@! TO.P,J28,7,Pin_7*
G04 #@! TO.N,3V3*
X175706000Y-116387800D03*
G04 #@! TO.P,J28,8,Pin_8*
X178246000Y-116387800D03*
G04 #@! TD*
D15*
G04 #@! TO.P,R6,1*
G04 #@! TO.N,/Interfaz_CAN/CAN2_TX*
X151282400Y-70664000D03*
G04 #@! TO.P,R6,2*
G04 #@! TO.N,Net-(R6-Pad2)*
X151282400Y-69469000D03*
G04 #@! TD*
D22*
G04 #@! TO.P,J23,1,Pin_1*
G04 #@! TO.N,3V3*
X129159000Y-105369600D03*
D23*
G04 #@! TO.P,J23,2,Pin_2*
G04 #@! TO.N,/Sensores/GNSS_PPS*
X126619000Y-105369600D03*
G04 #@! TO.P,J23,3,Pin_3*
G04 #@! TO.N,GND*
X129159000Y-102829600D03*
G04 #@! TO.P,J23,4,Pin_4*
G04 #@! TO.N,/Sensores/GNSS_Rx*
X126619000Y-102829600D03*
G04 #@! TO.P,J23,5,Pin_5*
G04 #@! TO.N,5V*
X129159000Y-100289600D03*
G04 #@! TO.P,J23,6,Pin_6*
G04 #@! TO.N,/Sensores/GNSS_Tx*
X126619000Y-100289600D03*
G04 #@! TD*
D12*
G04 #@! TO.P,C19,1*
G04 #@! TO.N,3V3*
X148673800Y-106476800D03*
G04 #@! TO.P,C19,2*
G04 #@! TO.N,GND*
X148673800Y-105341800D03*
G04 #@! TD*
D17*
G04 #@! TO.P,R13,1*
G04 #@! TO.N,/Sensores/GNSS_SDA*
X148996400Y-110959300D03*
G04 #@! TO.P,R13,2*
G04 #@! TO.N,3V3*
X148996400Y-112154300D03*
G04 #@! TD*
D13*
G04 #@! TO.P,R38,1*
G04 #@! TO.N,Net-(J24-Pad3)*
X167740400Y-72612550D03*
G04 #@! TO.P,R38,2*
G04 #@! TO.N,/MCU/SDMMC1_CMD*
X168935400Y-72612550D03*
G04 #@! TD*
D17*
G04 #@! TO.P,R34,1*
G04 #@! TO.N,Net-(J24-Pad8)*
X173913800Y-70928900D03*
G04 #@! TO.P,R34,2*
G04 #@! TO.N,/MCU/SDMMC1_D1*
X173913800Y-72123900D03*
G04 #@! TD*
D16*
G04 #@! TO.P,C34,1*
G04 #@! TO.N,3V3*
X147150900Y-98552000D03*
G04 #@! TO.P,C34,2*
G04 #@! TO.N,GND*
X146015900Y-98552000D03*
G04 #@! TD*
D11*
G04 #@! TO.P,C8,1*
G04 #@! TO.N,GND*
X153746200Y-66686200D03*
G04 #@! TO.P,C8,2*
G04 #@! TO.N,3V3*
X154881200Y-66686200D03*
G04 #@! TD*
G04 #@! TO.P,C30,1*
G04 #@! TO.N,3V3*
X154355250Y-72668850D03*
G04 #@! TO.P,C30,2*
G04 #@! TO.N,GND*
X155490250Y-72668850D03*
G04 #@! TD*
D15*
G04 #@! TO.P,R5,1*
G04 #@! TO.N,/Interfaz_CAN/CAN1_TX*
X147150000Y-71397500D03*
G04 #@! TO.P,R5,2*
G04 #@! TO.N,Net-(R5-Pad2)*
X147150000Y-70202500D03*
G04 #@! TD*
D20*
G04 #@! TO.P,J12,1,Pin_1*
G04 #@! TO.N,/MCU/TIM4_CH2*
X156718000Y-131215000D03*
G04 #@! TO.P,J12,2,Pin_2*
G04 #@! TO.N,/Motores_servos_PWM/Vdd_servos*
X156718000Y-133755000D03*
D21*
G04 #@! TO.P,J12,3,Pin_3*
G04 #@! TO.N,GND*
X156718000Y-136295000D03*
G04 #@! TD*
D10*
G04 #@! TO.P,C41,1*
G04 #@! TO.N,3V3*
X169630450Y-88916700D03*
G04 #@! TO.P,C41,2*
G04 #@! TO.N,GND*
X169630450Y-90051700D03*
G04 #@! TD*
D14*
G04 #@! TO.P,R17,1*
G04 #@! TO.N,Net-(R17-Pad1)*
X158179100Y-101904800D03*
G04 #@! TO.P,R17,2*
G04 #@! TO.N,/MCU/SPI2_MOSI*
X156984100Y-101904800D03*
G04 #@! TD*
D20*
G04 #@! TO.P,J9,1,Pin_1*
G04 #@! TO.N,/MCU/TIM1_CH4*
X149420900Y-131215600D03*
G04 #@! TO.P,J9,2,Pin_2*
G04 #@! TO.N,/Motores_servos_PWM/Vdd_ESC*
X149420900Y-133755600D03*
D21*
G04 #@! TO.P,J9,3,Pin_3*
G04 #@! TO.N,GND*
X149420900Y-136295600D03*
G04 #@! TD*
D17*
G04 #@! TO.P,R60,1*
G04 #@! TO.N,Net-(Q5-Pad3)*
X128600200Y-60083100D03*
G04 #@! TO.P,R60,2*
G04 #@! TO.N,Net-(D7-Pad1)*
X128600200Y-61278100D03*
G04 #@! TD*
D12*
G04 #@! TO.P,C32,1*
G04 #@! TO.N,3V3*
X142575000Y-91917500D03*
G04 #@! TO.P,C32,2*
G04 #@! TO.N,GND*
X142575000Y-90782500D03*
G04 #@! TD*
D14*
G04 #@! TO.P,R40,1*
G04 #@! TO.N,3V3*
X134709500Y-55956200D03*
G04 #@! TO.P,R40,2*
G04 #@! TO.N,/Leds indicadores + pulsadores/SW_1*
X133514500Y-55956200D03*
G04 #@! TD*
D24*
G04 #@! TO.P,D9,1,K*
G04 #@! TO.N,Net-(D9-Pad1)*
X127212200Y-67614800D03*
G04 #@! TO.P,D9,2,A*
G04 #@! TO.N,3V3*
X125162200Y-67614800D03*
G04 #@! TD*
D16*
G04 #@! TO.P,C42,1*
G04 #@! TO.N,3V3*
X159385000Y-99237800D03*
G04 #@! TO.P,C42,2*
G04 #@! TO.N,GND*
X158250000Y-99237800D03*
G04 #@! TD*
D20*
G04 #@! TO.P,J11,1,Pin_1*
G04 #@! TO.N,/MCU/TIM4_CH1*
X154178000Y-131215000D03*
G04 #@! TO.P,J11,2,Pin_2*
G04 #@! TO.N,/Motores_servos_PWM/Vdd_servos*
X154178000Y-133755000D03*
D21*
G04 #@! TO.P,J11,3,Pin_3*
G04 #@! TO.N,GND*
X154178000Y-136295000D03*
G04 #@! TD*
D19*
G04 #@! TO.P,Q1,1,G*
G04 #@! TO.N,Net-(Q1-Pad1)*
X127251700Y-87030600D03*
G04 #@! TO.P,Q1,2,S*
G04 #@! TO.N,GND*
X127251700Y-85130600D03*
G04 #@! TO.P,Q1,3,D*
G04 #@! TO.N,Net-(Q1-Pad3)*
X125376700Y-86080600D03*
G04 #@! TD*
D14*
G04 #@! TO.P,R26,1*
G04 #@! TO.N,3V3*
X134836500Y-66268600D03*
G04 #@! TO.P,R26,2*
G04 #@! TO.N,/Debug/NRST*
X133641500Y-66268600D03*
G04 #@! TD*
D15*
G04 #@! TO.P,R1,1*
G04 #@! TO.N,/Interfaz_CAN/CAN1_RX*
X147980400Y-65545300D03*
G04 #@! TO.P,R1,2*
G04 #@! TO.N,Net-(R1-Pad2)*
X147980400Y-64350300D03*
G04 #@! TD*
D25*
G04 #@! TO.P,U5,1,AP_SDO/AP_AD0*
G04 #@! TO.N,Net-(R11-Pad2)*
X153486900Y-102848000D03*
G04 #@! TO.P,U5,2,RESV_2*
G04 #@! TO.N,unconnected-(U5-Pad2)*
X152986900Y-102848000D03*
G04 #@! TO.P,U5,3,RESV_3*
G04 #@! TO.N,unconnected-(U5-Pad3)*
X152486900Y-102848000D03*
G04 #@! TO.P,U5,4,INT1/INT*
G04 #@! TO.N,/MCU/PF12(EXTI12)*
X151986900Y-102848000D03*
D26*
G04 #@! TO.P,U5,5,VDDIO*
G04 #@! TO.N,3V3*
X151821900Y-103513000D03*
G04 #@! TO.P,U5,6,GND*
G04 #@! TO.N,GND*
X151821900Y-104013000D03*
G04 #@! TO.P,U5,7,RESV_7*
X151821900Y-104513000D03*
D27*
G04 #@! TO.P,U5,8,VDD*
G04 #@! TO.N,3V3*
X151986900Y-105178000D03*
G04 #@! TO.P,U5,9,INT2/FSYNC/CLKIN*
G04 #@! TO.N,unconnected-(U5-Pad9)*
X152486900Y-105178000D03*
G04 #@! TO.P,U5,10,RESV_10*
G04 #@! TO.N,unconnected-(U5-Pad10)*
X152986900Y-105178000D03*
G04 #@! TO.P,U5,11,RESV_11*
G04 #@! TO.N,GND*
X153486900Y-105178000D03*
D28*
G04 #@! TO.P,U5,12,AP_CS*
G04 #@! TO.N,/MCU/SPI2_CS*
X153651900Y-104513000D03*
G04 #@! TO.P,U5,13,AP_SCL/AP_SCLK*
G04 #@! TO.N,/MCU/SPI2_SCK*
X153651900Y-104013000D03*
G04 #@! TO.P,U5,14,AP_SDA/AP_SDIO/AP_SDI*
G04 #@! TO.N,/MCU/SPI2_MOSI*
X153651900Y-103513000D03*
G04 #@! TD*
D29*
G04 #@! TO.P,JP1,1,A*
G04 #@! TO.N,/Motores_servos_PWM/Vdd_ESC*
X150980700Y-133630000D03*
G04 #@! TO.P,JP1,2,B*
G04 #@! TO.N,/Motores_servos_PWM/Vdd_servos*
X152280700Y-133630000D03*
G04 #@! TD*
D13*
G04 #@! TO.P,R62,1*
G04 #@! TO.N,GND*
X134835300Y-80133550D03*
G04 #@! TO.P,R62,2*
G04 #@! TO.N,/Leds indicadores + pulsadores/LED4*
X136030300Y-80133550D03*
G04 #@! TD*
D14*
G04 #@! TO.P,R24,1*
G04 #@! TO.N,/Vbus*
X171945900Y-81000600D03*
G04 #@! TO.P,R24,2*
G04 #@! TO.N,/MCU/OTG_FS_VBUS*
X170750900Y-81000600D03*
G04 #@! TD*
D13*
G04 #@! TO.P,R7,1*
G04 #@! TO.N,Net-(C9-Pad1)*
X144077500Y-103100000D03*
G04 #@! TO.P,R7,2*
G04 #@! TO.N,GND*
X145272500Y-103100000D03*
G04 #@! TD*
D17*
G04 #@! TO.P,R23,1*
G04 #@! TO.N,/MCU/OSC_OUT*
X139326802Y-89832300D03*
G04 #@! TO.P,R23,2*
G04 #@! TO.N,Net-(C29-Pad1)*
X139326802Y-91027300D03*
G04 #@! TD*
D20*
G04 #@! TO.P,J7,1,Pin_1*
G04 #@! TO.N,/MCU/TIM1_CH2*
X144340900Y-131215600D03*
G04 #@! TO.P,J7,2,Pin_2*
G04 #@! TO.N,/Motores_servos_PWM/Vdd_ESC*
X144340900Y-133755600D03*
D21*
G04 #@! TO.P,J7,3,Pin_3*
G04 #@! TO.N,GND*
X144340900Y-136295600D03*
G04 #@! TD*
D22*
G04 #@! TO.P,J29,1,Pin_1*
G04 #@! TO.N,GND*
X175706000Y-93527800D03*
D23*
G04 #@! TO.P,J29,2,Pin_2*
G04 #@! TO.N,/Conexiones_extra/UARTC_TX*
X178246000Y-93527800D03*
G04 #@! TO.P,J29,3,Pin_3*
G04 #@! TO.N,3V3*
X175706000Y-96067800D03*
G04 #@! TO.P,J29,4,Pin_4*
G04 #@! TO.N,/Conexiones_extra/UARTC_RX*
X178246000Y-96067800D03*
G04 #@! TO.P,J29,5,Pin_5*
G04 #@! TO.N,GND*
X175706000Y-98607800D03*
G04 #@! TO.P,J29,6,Pin_6*
G04 #@! TO.N,/Conexiones_extra/UARTB_TX*
X178246000Y-98607800D03*
G04 #@! TO.P,J29,7,Pin_7*
G04 #@! TO.N,3V3*
X175706000Y-101147800D03*
G04 #@! TO.P,J29,8,Pin_8*
G04 #@! TO.N,/Conexiones_extra/UARTB_RX*
X178246000Y-101147800D03*
G04 #@! TO.P,J29,9,Pin_9*
G04 #@! TO.N,GND*
X175706000Y-103687800D03*
G04 #@! TO.P,J29,10,Pin_10*
G04 #@! TO.N,/Conexiones_extra/UARTA_TX*
X178246000Y-103687800D03*
G04 #@! TO.P,J29,11,Pin_11*
G04 #@! TO.N,3V3*
X175706000Y-106227800D03*
G04 #@! TO.P,J29,12,Pin_12*
G04 #@! TO.N,/Conexiones_extra/UARTA_RX*
X178246000Y-106227800D03*
G04 #@! TD*
D30*
G04 #@! TO.P,U7,1,I/O1*
G04 #@! TO.N,/USB/D_connector-*
X175768000Y-79959200D03*
G04 #@! TO.P,U7,2,GND*
G04 #@! TO.N,GND*
X175768000Y-79009200D03*
G04 #@! TO.P,U7,3,I/O2*
G04 #@! TO.N,/USB/D_connector+*
X175768000Y-78059200D03*
G04 #@! TO.P,U7,4,I/O2*
G04 #@! TO.N,/USB/D+*
X173493000Y-78059200D03*
G04 #@! TO.P,U7,5,VBUS*
G04 #@! TO.N,/Vbus*
X173493000Y-79009200D03*
G04 #@! TO.P,U7,6,I/O1*
G04 #@! TO.N,/USB/D-*
X173493000Y-79959200D03*
G04 #@! TD*
D16*
G04 #@! TO.P,C48,1*
G04 #@! TO.N,GND*
X138427200Y-61036200D03*
G04 #@! TO.P,C48,2*
G04 #@! TO.N,/Leds indicadores + pulsadores/SW_2*
X137292200Y-61036200D03*
G04 #@! TD*
D12*
G04 #@! TO.P,C26,1*
G04 #@! TO.N,/MCU/VCAP_2*
X169732050Y-77072300D03*
G04 #@! TO.P,C26,2*
G04 #@! TO.N,GND*
X169732050Y-75937300D03*
G04 #@! TD*
D15*
G04 #@! TO.P,R63,1*
G04 #@! TO.N,GND*
X129946400Y-84138100D03*
G04 #@! TO.P,R63,2*
G04 #@! TO.N,/Leds indicadores + pulsadores/LED8*
X129946400Y-82943100D03*
G04 #@! TD*
D14*
G04 #@! TO.P,R64,1*
G04 #@! TO.N,/Leds indicadores + pulsadores/LED4*
X136044900Y-79092150D03*
G04 #@! TO.P,R64,2*
G04 #@! TO.N,Net-(Q7-Pad1)*
X134849900Y-79092150D03*
G04 #@! TD*
D10*
G04 #@! TO.P,C25,1*
G04 #@! TO.N,3V3*
X167843200Y-84090700D03*
G04 #@! TO.P,C25,2*
G04 #@! TO.N,GND*
X167843200Y-85225700D03*
G04 #@! TD*
D31*
G04 #@! TO.P,C20,1*
G04 #@! TO.N,3V3*
X147327600Y-106898800D03*
G04 #@! TO.P,C20,2*
G04 #@! TO.N,GND*
X147327600Y-105173800D03*
G04 #@! TD*
D16*
G04 #@! TO.P,C35,1*
G04 #@! TO.N,3V3*
X145280000Y-73787000D03*
G04 #@! TO.P,C35,2*
G04 #@! TO.N,GND*
X144145000Y-73787000D03*
G04 #@! TD*
D32*
G04 #@! TO.P,C6,1*
G04 #@! TO.N,GND*
X153469000Y-67949700D03*
G04 #@! TO.P,C6,2*
G04 #@! TO.N,3V3*
X155194000Y-67949700D03*
G04 #@! TD*
D15*
G04 #@! TO.P,R42,1*
G04 #@! TO.N,GND*
X129921000Y-87287700D03*
G04 #@! TO.P,R42,2*
G04 #@! TO.N,/Leds indicadores + pulsadores/LED5*
X129921000Y-86092700D03*
G04 #@! TD*
D16*
G04 #@! TO.P,C15,1*
G04 #@! TO.N,GND*
X154974100Y-108508800D03*
G04 #@! TO.P,C15,2*
G04 #@! TO.N,3V3*
X153839100Y-108508800D03*
G04 #@! TD*
G04 #@! TO.P,C1,1*
G04 #@! TO.N,GND*
X127322200Y-58674000D03*
G04 #@! TO.P,C1,2*
G04 #@! TO.N,/Chassis_Bond_1*
X126187200Y-58674000D03*
G04 #@! TD*
D33*
G04 #@! TO.P,C28,1*
G04 #@! TO.N,3V3*
X169519600Y-83515200D03*
G04 #@! TO.P,C28,2*
G04 #@! TO.N,GND*
X169519600Y-85590200D03*
G04 #@! TD*
D16*
G04 #@! TO.P,C39,1*
G04 #@! TO.N,3V3*
X154533600Y-99152625D03*
G04 #@! TO.P,C39,2*
G04 #@! TO.N,GND*
X153398600Y-99152625D03*
G04 #@! TD*
G04 #@! TO.P,C2,1*
G04 #@! TO.N,GND*
X179942300Y-58750200D03*
G04 #@! TO.P,C2,2*
G04 #@! TO.N,/Chassis_Bond_2*
X178807300Y-58750200D03*
G04 #@! TD*
D17*
G04 #@! TO.P,R47,1*
G04 #@! TO.N,Net-(Q2-Pad3)*
X128600200Y-64705900D03*
G04 #@! TO.P,R47,2*
G04 #@! TO.N,Net-(D4-Pad1)*
X128600200Y-65900900D03*
G04 #@! TD*
D34*
G04 #@! TO.P,H2,1,1*
G04 #@! TO.N,/Chassis_Bond_2*
X178824400Y-54381400D03*
D35*
X178824400Y-54381400D03*
G04 #@! TD*
D22*
G04 #@! TO.P,J27,1,Pin_1*
G04 #@! TO.N,5V*
X129159000Y-97749600D03*
D23*
G04 #@! TO.P,J27,2,Pin_2*
G04 #@! TO.N,/Conexiones_extra/SPI_MOSI*
X126619000Y-97749600D03*
G04 #@! TO.P,J27,3,Pin_3*
G04 #@! TO.N,3V3*
X129159000Y-95209600D03*
G04 #@! TO.P,J27,4,Pin_4*
G04 #@! TO.N,/Conexiones_extra/SPI_MISO*
X126619000Y-95209600D03*
G04 #@! TO.P,J27,5,Pin_5*
G04 #@! TO.N,/Conexiones_extra/SPI_SCK*
X129159000Y-92669600D03*
G04 #@! TO.P,J27,6,Pin_6*
G04 #@! TO.N,/Conexiones_extra/SPI_CS*
X126619000Y-92669600D03*
G04 #@! TO.P,J27,7,Pin_7*
G04 #@! TO.N,GND*
X129159000Y-90129600D03*
G04 #@! TO.P,J27,8,Pin_8*
G04 #@! TO.N,/Conexiones_extra/SPI_EOC*
X126619000Y-90129600D03*
G04 #@! TD*
D20*
G04 #@! TO.P,J2,1,Pin_1*
G04 #@! TO.N,/MCU/TIM3_CH1*
X131640900Y-131215600D03*
G04 #@! TO.P,J2,2,Pin_2*
G04 #@! TO.N,/Motores_servos_PWM/Vdd_ESC*
X131640900Y-133755600D03*
D21*
G04 #@! TO.P,J2,3,Pin_3*
G04 #@! TO.N,GND*
X131640900Y-136295600D03*
G04 #@! TD*
D10*
G04 #@! TO.P,C21,1*
G04 #@! TO.N,GND*
X143002000Y-76073000D03*
G04 #@! TO.P,C21,2*
G04 #@! TO.N,3V3*
X143002000Y-77208000D03*
G04 #@! TD*
D13*
G04 #@! TO.P,R21,1*
G04 #@! TO.N,3V3*
X142605000Y-71307999D03*
G04 #@! TO.P,R21,2*
G04 #@! TO.N,/MCU/PDR_ON*
X143800000Y-71307999D03*
G04 #@! TD*
D14*
G04 #@! TO.P,R16,1*
G04 #@! TO.N,Net-(R16-Pad1)*
X160515900Y-103860600D03*
G04 #@! TO.P,R16,2*
G04 #@! TO.N,/MCU/SPI2_CS*
X159320900Y-103860600D03*
G04 #@! TD*
D13*
G04 #@! TO.P,R29,1*
G04 #@! TO.N,/MCU/SDMMC1_CMD*
X168922100Y-73653950D03*
G04 #@! TO.P,R29,2*
G04 #@! TO.N,3V3*
X170117100Y-73653950D03*
G04 #@! TD*
D36*
G04 #@! TO.P,J10,1,Pin_1*
G04 #@! TO.N,/Motores_servos_PWM/Vdd_servos*
X171605900Y-135865200D03*
D37*
G04 #@! TO.P,J10,2,Pin_2*
G04 #@! TO.N,GND*
X166605900Y-135865200D03*
G04 #@! TD*
D15*
G04 #@! TO.P,R12,1*
G04 #@! TO.N,/Sensores/GNSS_SCL*
X150622000Y-109055500D03*
G04 #@! TO.P,R12,2*
G04 #@! TO.N,3V3*
X150622000Y-107860500D03*
G04 #@! TD*
D17*
G04 #@! TO.P,R67,1*
G04 #@! TO.N,Net-(Q1-Pad3)*
X128600200Y-76212100D03*
G04 #@! TO.P,R67,2*
G04 #@! TO.N,Net-(D10-Pad1)*
X128600200Y-77407100D03*
G04 #@! TD*
G04 #@! TO.P,R65,1*
G04 #@! TO.N,/Leds indicadores + pulsadores/LED8*
X128828800Y-82943100D03*
G04 #@! TO.P,R65,2*
G04 #@! TO.N,Net-(Q8-Pad1)*
X128828800Y-84138100D03*
G04 #@! TD*
D19*
G04 #@! TO.P,Q6,1,G*
G04 #@! TO.N,Net-(Q6-Pad1)*
X127251700Y-80731400D03*
G04 #@! TO.P,Q6,2,S*
G04 #@! TO.N,GND*
X127251700Y-78831400D03*
G04 #@! TO.P,Q6,3,D*
G04 #@! TO.N,Net-(Q6-Pad3)*
X125376700Y-79781400D03*
G04 #@! TD*
D15*
G04 #@! TO.P,R4,1*
G04 #@! TO.N,Net-(R4-Pad1)*
X150799800Y-60465300D03*
G04 #@! TO.P,R4,2*
G04 #@! TO.N,GND*
X150799800Y-59270300D03*
G04 #@! TD*
D32*
G04 #@! TO.P,C46,1*
G04 #@! TO.N,3V3*
X167581600Y-71247000D03*
G04 #@! TO.P,C46,2*
G04 #@! TO.N,GND*
X169306600Y-71247000D03*
G04 #@! TD*
D10*
G04 #@! TO.P,C17,1*
G04 #@! TO.N,3V3*
X149606000Y-102861300D03*
G04 #@! TO.P,C17,2*
G04 #@! TO.N,GND*
X149606000Y-103996300D03*
G04 #@! TD*
D11*
G04 #@! TO.P,C36,1*
G04 #@! TO.N,GND*
X138733550Y-79857600D03*
G04 #@! TO.P,C36,2*
G04 #@! TO.N,/MCU/OSC32_IN*
X139868550Y-79857600D03*
G04 #@! TD*
D38*
G04 #@! TO.P,SW3,1,A*
G04 #@! TO.N,GND*
X137831500Y-58547000D03*
G04 #@! TO.P,SW3,2,B*
G04 #@! TO.N,Net-(R53-Pad2)*
X131131500Y-58547000D03*
G04 #@! TD*
D39*
G04 #@! TO.P,U1,1,D*
G04 #@! TO.N,Net-(R5-Pad2)*
X142671800Y-64857400D03*
G04 #@! TO.P,U1,2,GND*
G04 #@! TO.N,GND*
X143941800Y-64857400D03*
G04 #@! TO.P,U1,3,VCC*
G04 #@! TO.N,3V3*
X145211800Y-64857400D03*
G04 #@! TO.P,U1,4,R*
G04 #@! TO.N,Net-(R1-Pad2)*
X146481800Y-64857400D03*
G04 #@! TO.P,U1,5,Vref*
G04 #@! TO.N,unconnected-(U1-Pad5)*
X146481800Y-59907400D03*
G04 #@! TO.P,U1,6,CANL*
G04 #@! TO.N,/Interfaz_CAN/CAN1-*
X145211800Y-59907400D03*
G04 #@! TO.P,U1,7,CANH*
G04 #@! TO.N,/Interfaz_CAN/CAN1+*
X143941800Y-59907400D03*
G04 #@! TO.P,U1,8,Rs*
G04 #@! TO.N,Net-(R3-Pad1)*
X142671800Y-59907400D03*
G04 #@! TD*
D32*
G04 #@! TO.P,C43,1*
G04 #@! TO.N,3V3*
X153949950Y-71170250D03*
G04 #@! TO.P,C43,2*
G04 #@! TO.N,GND*
X155674950Y-71170250D03*
G04 #@! TD*
D17*
G04 #@! TO.P,R35,1*
G04 #@! TO.N,Net-(J24-Pad2)*
X164592000Y-70217700D03*
G04 #@! TO.P,R35,2*
G04 #@! TO.N,/MCU/SDMMC1_D3*
X164592000Y-71412700D03*
G04 #@! TD*
D12*
G04 #@! TO.P,C10,1*
G04 #@! TO.N,Net-(C10-Pad1)*
X142393400Y-99300000D03*
G04 #@! TO.P,C10,2*
G04 #@! TO.N,GND*
X142393400Y-98165000D03*
G04 #@! TD*
D13*
G04 #@! TO.P,R15,1*
G04 #@! TO.N,3V3*
X167594050Y-105054400D03*
G04 #@! TO.P,R15,2*
G04 #@! TO.N,/Conexiones_extra/I2CA_SDA*
X168789050Y-105054400D03*
G04 #@! TD*
D16*
G04 #@! TO.P,C29,1*
G04 #@! TO.N,Net-(C29-Pad1)*
X137673500Y-93391200D03*
G04 #@! TO.P,C29,2*
G04 #@! TO.N,GND*
X136538500Y-93391200D03*
G04 #@! TD*
D15*
G04 #@! TO.P,R32,1*
G04 #@! TO.N,/MCU/SDMMC1_D1*
X174955200Y-72123900D03*
G04 #@! TO.P,R32,2*
G04 #@! TO.N,3V3*
X174955200Y-70928900D03*
G04 #@! TD*
D40*
G04 #@! TO.P,Y1,1,1*
G04 #@! TO.N,/MCU/OSC_IN*
X135825000Y-89625000D03*
G04 #@! TO.P,Y1,2,2*
G04 #@! TO.N,GND*
X135825000Y-91925000D03*
G04 #@! TO.P,Y1,3,3*
G04 #@! TO.N,Net-(C29-Pad1)*
X137625000Y-91925000D03*
G04 #@! TO.P,Y1,4,4*
G04 #@! TO.N,GND*
X137625000Y-89625000D03*
G04 #@! TD*
D17*
G04 #@! TO.P,R54,1*
G04 #@! TO.N,Net-(Q3-Pad3)*
X128600200Y-69354100D03*
G04 #@! TO.P,R54,2*
G04 #@! TO.N,Net-(D5-Pad1)*
X128600200Y-70549100D03*
G04 #@! TD*
D18*
G04 #@! TO.P,Q4,1,G*
G04 #@! TO.N,Net-(Q4-Pad1)*
X134569200Y-70660500D03*
G04 #@! TO.P,Q4,2,S*
G04 #@! TO.N,GND*
X136469200Y-70660500D03*
G04 #@! TO.P,Q4,3,D*
G04 #@! TO.N,Net-(Q4-Pad3)*
X135519200Y-68785500D03*
G04 #@! TD*
D41*
G04 #@! TO.P,U6,1,PE2*
G04 #@! TO.N,unconnected-(U6-Pad1)*
X144845550Y-77178200D03*
G04 #@! TO.P,U6,2,PE3*
G04 #@! TO.N,/Leds indicadores + pulsadores/LED2*
X144845550Y-77678200D03*
G04 #@! TO.P,U6,3,PE4*
G04 #@! TO.N,/Leds indicadores + pulsadores/LED1*
X144845550Y-78178200D03*
G04 #@! TO.P,U6,4,PE5*
G04 #@! TO.N,/Leds indicadores + pulsadores/LED7*
X144845550Y-78678200D03*
G04 #@! TO.P,U6,5,PE6*
G04 #@! TO.N,/Leds indicadores + pulsadores/LED4*
X144845550Y-79178200D03*
G04 #@! TO.P,U6,6,VBAT*
G04 #@! TO.N,3V3*
X144845550Y-79678200D03*
G04 #@! TO.P,U6,7,PC13*
G04 #@! TO.N,unconnected-(U6-Pad7)*
X144845550Y-80178200D03*
G04 #@! TO.P,U6,8,PC14*
G04 #@! TO.N,/MCU/OSC32_IN*
X144845550Y-80678200D03*
G04 #@! TO.P,U6,9,PC15*
G04 #@! TO.N,/MCU/OSC32_OUT*
X144845550Y-81178200D03*
G04 #@! TO.P,U6,10,PF0*
G04 #@! TO.N,unconnected-(U6-Pad10)*
X144845550Y-81678200D03*
G04 #@! TO.P,U6,11,PF1*
G04 #@! TO.N,unconnected-(U6-Pad11)*
X144845550Y-82178200D03*
G04 #@! TO.P,U6,12,PF2*
G04 #@! TO.N,/Leds indicadores + pulsadores/LED6*
X144845550Y-82678200D03*
G04 #@! TO.P,U6,13,PF3*
G04 #@! TO.N,/Leds indicadores + pulsadores/LED8*
X144845550Y-83178200D03*
G04 #@! TO.P,U6,14,PF4*
G04 #@! TO.N,/Leds indicadores + pulsadores/LED5*
X144845550Y-83678200D03*
G04 #@! TO.P,U6,15,PF5*
G04 #@! TO.N,/Conexiones_extra/SPI_EOC*
X144845550Y-84178200D03*
G04 #@! TO.P,U6,16,VSS*
G04 #@! TO.N,GND*
X144845550Y-84678200D03*
G04 #@! TO.P,U6,17,VDD*
G04 #@! TO.N,3V3*
X144845550Y-85178200D03*
G04 #@! TO.P,U6,18,PF6*
G04 #@! TO.N,/Conexiones_extra/SPI_CS*
X144845550Y-85678200D03*
G04 #@! TO.P,U6,19,PF7*
G04 #@! TO.N,/Conexiones_extra/SPI_SCK*
X144845550Y-86178200D03*
G04 #@! TO.P,U6,20,PF8*
G04 #@! TO.N,/Conexiones_extra/SPI_MISO*
X144845550Y-86678200D03*
G04 #@! TO.P,U6,21,PF9*
G04 #@! TO.N,/Conexiones_extra/SPI_MOSI*
X144845550Y-87178200D03*
G04 #@! TO.P,U6,22,PF10*
G04 #@! TO.N,unconnected-(U6-Pad22)*
X144845550Y-87678200D03*
G04 #@! TO.P,U6,23,PH0*
G04 #@! TO.N,/MCU/OSC_IN*
X144845550Y-88178200D03*
G04 #@! TO.P,U6,24,PH1*
G04 #@! TO.N,/MCU/OSC_OUT*
X144845550Y-88678200D03*
G04 #@! TO.P,U6,25,NRST*
G04 #@! TO.N,/Debug/NRST*
X144845550Y-89178200D03*
G04 #@! TO.P,U6,26,PC0*
G04 #@! TO.N,unconnected-(U6-Pad26)*
X144845550Y-89678200D03*
G04 #@! TO.P,U6,27,PC1*
G04 #@! TO.N,unconnected-(U6-Pad27)*
X144845550Y-90178200D03*
G04 #@! TO.P,U6,28,PC2*
G04 #@! TO.N,unconnected-(U6-Pad28)*
X144845550Y-90678200D03*
G04 #@! TO.P,U6,29,PC3*
G04 #@! TO.N,unconnected-(U6-Pad29)*
X144845550Y-91178200D03*
G04 #@! TO.P,U6,30,VDD*
G04 #@! TO.N,3V3*
X144845550Y-91678200D03*
G04 #@! TO.P,U6,31,VSSA*
G04 #@! TO.N,GND*
X144845550Y-92178200D03*
G04 #@! TO.P,U6,32,VREF+*
G04 #@! TO.N,3V3*
X144845550Y-92678200D03*
G04 #@! TO.P,U6,33,VDDA*
X144845550Y-93178200D03*
G04 #@! TO.P,U6,34,PA0*
G04 #@! TO.N,/Sensores/GNSS_Tx*
X144845550Y-93678200D03*
G04 #@! TO.P,U6,35,PA1*
G04 #@! TO.N,/Sensores/GNSS_Rx*
X144845550Y-94178200D03*
G04 #@! TO.P,U6,36,PA2*
G04 #@! TO.N,/Sensores/GNSS_PPS*
X144845550Y-94678200D03*
D42*
G04 #@! TO.P,U6,37,PA3*
G04 #@! TO.N,/Alimentaci\u00F3n/I_MEAS*
X146758050Y-96590700D03*
G04 #@! TO.P,U6,38,VSS*
G04 #@! TO.N,GND*
X147258050Y-96590700D03*
G04 #@! TO.P,U6,39,VDD*
G04 #@! TO.N,3V3*
X147758050Y-96590700D03*
G04 #@! TO.P,U6,40,PA4*
G04 #@! TO.N,unconnected-(U6-Pad40)*
X148258050Y-96590700D03*
G04 #@! TO.P,U6,41,PA5*
G04 #@! TO.N,unconnected-(U6-Pad41)*
X148758050Y-96590700D03*
G04 #@! TO.P,U6,42,PA6*
G04 #@! TO.N,/MCU/TIM3_CH1*
X149258050Y-96590700D03*
G04 #@! TO.P,U6,43,PA7*
G04 #@! TO.N,/MCU/TIM3_CH2*
X149758050Y-96590700D03*
G04 #@! TO.P,U6,44,PC4*
G04 #@! TO.N,/Alimentaci\u00F3n/V_MEAS*
X150258050Y-96590700D03*
G04 #@! TO.P,U6,45,PC5*
G04 #@! TO.N,unconnected-(U6-Pad45)*
X150758050Y-96590700D03*
G04 #@! TO.P,U6,46,PB0*
G04 #@! TO.N,/MCU/TIM3_CH3*
X151258050Y-96590700D03*
G04 #@! TO.P,U6,47,PB1*
G04 #@! TO.N,/MCU/TIM3_CH4*
X151758050Y-96590700D03*
G04 #@! TO.P,U6,48,PB2*
G04 #@! TO.N,/Sensores/MAG_INT_DATA_RDY*
X152258050Y-96590700D03*
G04 #@! TO.P,U6,49,PF11*
G04 #@! TO.N,unconnected-(U6-Pad49)*
X152758050Y-96590700D03*
G04 #@! TO.P,U6,50,PF12*
G04 #@! TO.N,/MCU/PF12(EXTI12)*
X153258050Y-96590700D03*
G04 #@! TO.P,U6,51,VSS*
G04 #@! TO.N,GND*
X153758050Y-96590700D03*
G04 #@! TO.P,U6,52,VDD*
G04 #@! TO.N,3V3*
X154258050Y-96590700D03*
G04 #@! TO.P,U6,53,PF13*
G04 #@! TO.N,unconnected-(U6-Pad53)*
X154758050Y-96590700D03*
G04 #@! TO.P,U6,54,PF14*
G04 #@! TO.N,/Sensores/GNSS_SCL*
X155258050Y-96590700D03*
G04 #@! TO.P,U6,55,PF15*
G04 #@! TO.N,/Sensores/GNSS_SDA*
X155758050Y-96590700D03*
G04 #@! TO.P,U6,56,PG0*
G04 #@! TO.N,unconnected-(U6-Pad56)*
X156258050Y-96590700D03*
G04 #@! TO.P,U6,57,PG1*
G04 #@! TO.N,unconnected-(U6-Pad57)*
X156758050Y-96590700D03*
G04 #@! TO.P,U6,58,PE7*
G04 #@! TO.N,/Conexiones_extra/UARTA_RX*
X157258050Y-96590700D03*
G04 #@! TO.P,U6,59,PE8*
G04 #@! TO.N,/Conexiones_extra/UARTA_TX*
X157758050Y-96590700D03*
G04 #@! TO.P,U6,60,PE9*
G04 #@! TO.N,/MCU/TIM1_CH1*
X158258050Y-96590700D03*
G04 #@! TO.P,U6,61,VSS*
G04 #@! TO.N,GND*
X158758050Y-96590700D03*
G04 #@! TO.P,U6,62,VDD*
G04 #@! TO.N,3V3*
X159258050Y-96590700D03*
G04 #@! TO.P,U6,63,PE10*
G04 #@! TO.N,unconnected-(U6-Pad63)*
X159758050Y-96590700D03*
G04 #@! TO.P,U6,64,PE11*
G04 #@! TO.N,/MCU/TIM1_CH2*
X160258050Y-96590700D03*
G04 #@! TO.P,U6,65,PE12*
G04 #@! TO.N,unconnected-(U6-Pad65)*
X160758050Y-96590700D03*
G04 #@! TO.P,U6,66,PE13*
G04 #@! TO.N,/MCU/TIM1_CH3*
X161258050Y-96590700D03*
G04 #@! TO.P,U6,67,PE14*
G04 #@! TO.N,/MCU/TIM1_CH4*
X161758050Y-96590700D03*
G04 #@! TO.P,U6,68,PE15*
G04 #@! TO.N,unconnected-(U6-Pad68)*
X162258050Y-96590700D03*
G04 #@! TO.P,U6,69,PB10*
G04 #@! TO.N,/Conexiones_extra/I2CA_SCL*
X162758050Y-96590700D03*
G04 #@! TO.P,U6,70,PB11*
G04 #@! TO.N,/Conexiones_extra/I2CA_SDA*
X163258050Y-96590700D03*
G04 #@! TO.P,U6,71,VCAP_1*
G04 #@! TO.N,/MCU/VCAP_1*
X163758050Y-96590700D03*
G04 #@! TO.P,U6,72,VDD*
G04 #@! TO.N,3V3*
X164258050Y-96590700D03*
D41*
G04 #@! TO.P,U6,73,PB12*
G04 #@! TO.N,Net-(R16-Pad1)*
X166170550Y-94678200D03*
G04 #@! TO.P,U6,74,PB13*
G04 #@! TO.N,Net-(R18-Pad1)*
X166170550Y-94178200D03*
G04 #@! TO.P,U6,75,PB14*
G04 #@! TO.N,/MCU/SPI2_MISO*
X166170550Y-93678200D03*
G04 #@! TO.P,U6,76,PB15*
G04 #@! TO.N,Net-(R17-Pad1)*
X166170550Y-93178200D03*
G04 #@! TO.P,U6,77,PD8*
G04 #@! TO.N,unconnected-(U6-Pad77)*
X166170550Y-92678200D03*
G04 #@! TO.P,U6,78,PD9*
G04 #@! TO.N,/MCU/USART3_RX*
X166170550Y-92178200D03*
G04 #@! TO.P,U6,79,PD10*
G04 #@! TO.N,unconnected-(U6-Pad79)*
X166170550Y-91678200D03*
G04 #@! TO.P,U6,80,PD11*
G04 #@! TO.N,unconnected-(U6-Pad80)*
X166170550Y-91178200D03*
G04 #@! TO.P,U6,81,PD12*
G04 #@! TO.N,/MCU/TIM4_CH1*
X166170550Y-90678200D03*
G04 #@! TO.P,U6,82,PD13*
G04 #@! TO.N,/MCU/TIM4_CH2*
X166170550Y-90178200D03*
G04 #@! TO.P,U6,83,VSS*
G04 #@! TO.N,GND*
X166170550Y-89678200D03*
G04 #@! TO.P,U6,84,VDD*
G04 #@! TO.N,3V3*
X166170550Y-89178200D03*
G04 #@! TO.P,U6,85,PD14*
G04 #@! TO.N,/MCU/TIM4_CH3*
X166170550Y-88678200D03*
G04 #@! TO.P,U6,86,PD15*
G04 #@! TO.N,/MCU/TIM4_CH4*
X166170550Y-88178200D03*
G04 #@! TO.P,U6,87,PG2*
G04 #@! TO.N,unconnected-(U6-Pad87)*
X166170550Y-87678200D03*
G04 #@! TO.P,U6,88,PG3*
G04 #@! TO.N,unconnected-(U6-Pad88)*
X166170550Y-87178200D03*
G04 #@! TO.P,U6,89,PG4*
G04 #@! TO.N,unconnected-(U6-Pad89)*
X166170550Y-86678200D03*
G04 #@! TO.P,U6,90,PG5*
G04 #@! TO.N,unconnected-(U6-Pad90)*
X166170550Y-86178200D03*
G04 #@! TO.P,U6,91,PG6*
G04 #@! TO.N,unconnected-(U6-Pad91)*
X166170550Y-85678200D03*
G04 #@! TO.P,U6,92,PG7*
G04 #@! TO.N,unconnected-(U6-Pad92)*
X166170550Y-85178200D03*
G04 #@! TO.P,U6,93,PG8*
G04 #@! TO.N,unconnected-(U6-Pad93)*
X166170550Y-84678200D03*
G04 #@! TO.P,U6,94,VSS*
G04 #@! TO.N,GND*
X166170550Y-84178200D03*
G04 #@! TO.P,U6,95,VDDUSB*
G04 #@! TO.N,3V3*
X166170550Y-83678200D03*
G04 #@! TO.P,U6,96,PC6*
G04 #@! TO.N,unconnected-(U6-Pad96)*
X166170550Y-83178200D03*
G04 #@! TO.P,U6,97,PC7*
G04 #@! TO.N,/MCU/TIM8_CH2*
X166170550Y-82678200D03*
G04 #@! TO.P,U6,98,PC8*
G04 #@! TO.N,/MCU/SDMMC1_D0*
X166170550Y-82178200D03*
G04 #@! TO.P,U6,99,PC9*
G04 #@! TO.N,/MCU/SDMMC1_D1*
X166170550Y-81678200D03*
G04 #@! TO.P,U6,100,PA8*
G04 #@! TO.N,unconnected-(U6-Pad100)*
X166170550Y-81178200D03*
G04 #@! TO.P,U6,101,PA9*
G04 #@! TO.N,/MCU/OTG_FS_VBUS*
X166170550Y-80678200D03*
G04 #@! TO.P,U6,102,PA10*
G04 #@! TO.N,/MCU/OTG_FS_ID*
X166170550Y-80178200D03*
G04 #@! TO.P,U6,103,PA11*
G04 #@! TO.N,/USB/D-*
X166170550Y-79678200D03*
G04 #@! TO.P,U6,104,PA12*
G04 #@! TO.N,/USB/D+*
X166170550Y-79178200D03*
G04 #@! TO.P,U6,105,PA13*
G04 #@! TO.N,/Debug/SWDIO*
X166170550Y-78678200D03*
G04 #@! TO.P,U6,106,VCAP_2*
G04 #@! TO.N,/MCU/VCAP_2*
X166170550Y-78178200D03*
G04 #@! TO.P,U6,107,VSS*
G04 #@! TO.N,GND*
X166170550Y-77678200D03*
G04 #@! TO.P,U6,108,VDD*
G04 #@! TO.N,3V3*
X166170550Y-77178200D03*
D42*
G04 #@! TO.P,U6,109,PA14*
G04 #@! TO.N,/Debug/SWCLK*
X164258050Y-75265700D03*
G04 #@! TO.P,U6,110,PA15*
G04 #@! TO.N,unconnected-(U6-Pad110)*
X163758050Y-75265700D03*
G04 #@! TO.P,U6,111,PC10*
G04 #@! TO.N,/MCU/SDMMC1_D2*
X163258050Y-75265700D03*
G04 #@! TO.P,U6,112,PC11*
G04 #@! TO.N,/MCU/SDMMC1_D3*
X162758050Y-75265700D03*
G04 #@! TO.P,U6,113,PC12*
G04 #@! TO.N,/MCU/SDMMC1_CK*
X162258050Y-75265700D03*
G04 #@! TO.P,U6,114,PD0*
G04 #@! TO.N,unconnected-(U6-Pad114)*
X161758050Y-75265700D03*
G04 #@! TO.P,U6,115,PD1*
G04 #@! TO.N,unconnected-(U6-Pad115)*
X161258050Y-75265700D03*
G04 #@! TO.P,U6,116,PD2*
G04 #@! TO.N,/MCU/SDMMC1_CMD*
X160758050Y-75265700D03*
G04 #@! TO.P,U6,117,PD3*
G04 #@! TO.N,/MCU/PD3(EXTI3)*
X160258050Y-75265700D03*
G04 #@! TO.P,U6,118,PD4*
G04 #@! TO.N,unconnected-(U6-Pad118)*
X159758050Y-75265700D03*
G04 #@! TO.P,U6,119,PD5*
G04 #@! TO.N,/Conexiones_extra/UARTC_TX*
X159258050Y-75265700D03*
G04 #@! TO.P,U6,120,VSS*
G04 #@! TO.N,GND*
X158758050Y-75265700D03*
G04 #@! TO.P,U6,121,VDD*
G04 #@! TO.N,3V3*
X158258050Y-75265700D03*
G04 #@! TO.P,U6,122,PD6*
G04 #@! TO.N,/Conexiones_extra/UARTC_RX*
X157758050Y-75265700D03*
G04 #@! TO.P,U6,123,PD7*
G04 #@! TO.N,unconnected-(U6-Pad123)*
X157258050Y-75265700D03*
G04 #@! TO.P,U6,124,PG9*
G04 #@! TO.N,/Conexiones_extra/UARTB_RX*
X156758050Y-75265700D03*
G04 #@! TO.P,U6,125,PG10*
G04 #@! TO.N,unconnected-(U6-Pad125)*
X156258050Y-75265700D03*
G04 #@! TO.P,U6,126,PG11*
G04 #@! TO.N,unconnected-(U6-Pad126)*
X155758050Y-75265700D03*
G04 #@! TO.P,U6,127,PG12*
G04 #@! TO.N,unconnected-(U6-Pad127)*
X155258050Y-75265700D03*
G04 #@! TO.P,U6,128,PG13*
G04 #@! TO.N,unconnected-(U6-Pad128)*
X154758050Y-75265700D03*
G04 #@! TO.P,U6,129,PG14*
G04 #@! TO.N,/Conexiones_extra/UARTB_TX*
X154258050Y-75265700D03*
G04 #@! TO.P,U6,130,VSS*
G04 #@! TO.N,GND*
X153758050Y-75265700D03*
G04 #@! TO.P,U6,131,VDD*
G04 #@! TO.N,3V3*
X153258050Y-75265700D03*
G04 #@! TO.P,U6,132,PG15*
G04 #@! TO.N,unconnected-(U6-Pad132)*
X152758050Y-75265700D03*
G04 #@! TO.P,U6,133,PB3*
G04 #@! TO.N,/Debug/SWO*
X152258050Y-75265700D03*
G04 #@! TO.P,U6,134,PB4*
G04 #@! TO.N,/Leds indicadores + pulsadores/SW_1*
X151758050Y-75265700D03*
G04 #@! TO.P,U6,135,PB5*
G04 #@! TO.N,/Interfaz_CAN/CAN2_RX*
X151258050Y-75265700D03*
G04 #@! TO.P,U6,136,PB6*
G04 #@! TO.N,/Interfaz_CAN/CAN2_TX*
X150758050Y-75265700D03*
G04 #@! TO.P,U6,137,PB7*
G04 #@! TO.N,unconnected-(U6-Pad137)*
X150258050Y-75265700D03*
G04 #@! TO.P,U6,138,BOOT0*
G04 #@! TO.N,/MCU/BOOT0*
X149758050Y-75265700D03*
G04 #@! TO.P,U6,139,PB8*
G04 #@! TO.N,/Interfaz_CAN/CAN1_RX*
X149258050Y-75265700D03*
G04 #@! TO.P,U6,140,PB9*
G04 #@! TO.N,/Interfaz_CAN/CAN1_TX*
X148758050Y-75265700D03*
G04 #@! TO.P,U6,141,PE0*
G04 #@! TO.N,/Leds indicadores + pulsadores/SW_2*
X148258050Y-75265700D03*
G04 #@! TO.P,U6,142,PE1*
G04 #@! TO.N,/Leds indicadores + pulsadores/LED3*
X147758050Y-75265700D03*
G04 #@! TO.P,U6,143,PDR_ON*
G04 #@! TO.N,/MCU/PDR_ON*
X147258050Y-75265700D03*
G04 #@! TO.P,U6,144,VDD*
G04 #@! TO.N,3V3*
X146758050Y-75265700D03*
G04 #@! TD*
D43*
G04 #@! TO.P,Y2,1,1*
G04 #@! TO.N,/MCU/OSC32_IN*
X141554200Y-79273400D03*
G04 #@! TO.P,Y2,2,2*
G04 #@! TO.N,/MCU/OSC32_OUT*
X141554200Y-81661000D03*
G04 #@! TD*
D44*
G04 #@! TO.P,D1,1,K*
G04 #@! TO.N,5V*
X174904400Y-85191400D03*
G04 #@! TO.P,D1,2,A*
G04 #@! TO.N,/Vbus*
X174904400Y-81991400D03*
G04 #@! TD*
D18*
G04 #@! TO.P,Q2,1,G*
G04 #@! TO.N,Net-(Q2-Pad1)*
X131343400Y-70660500D03*
G04 #@! TO.P,Q2,2,S*
G04 #@! TO.N,GND*
X133243400Y-70660500D03*
G04 #@! TO.P,Q2,3,D*
G04 #@! TO.N,Net-(Q2-Pad3)*
X132293400Y-68785500D03*
G04 #@! TD*
D12*
G04 #@! TO.P,C27,1*
G04 #@! TO.N,GND*
X134413600Y-90707501D03*
G04 #@! TO.P,C27,2*
G04 #@! TO.N,/MCU/OSC_IN*
X134413600Y-89572501D03*
G04 #@! TD*
G04 #@! TO.P,C22,1*
G04 #@! TO.N,3V3*
X138293251Y-97229600D03*
G04 #@! TO.P,C22,2*
G04 #@! TO.N,GND*
X138293251Y-96094600D03*
G04 #@! TD*
D11*
G04 #@! TO.P,C37,1*
G04 #@! TO.N,GND*
X141732500Y-89550000D03*
G04 #@! TO.P,C37,2*
G04 #@! TO.N,/Debug/NRST*
X142867500Y-89550000D03*
G04 #@! TD*
D35*
G04 #@! TO.P,H1,1,1*
G04 #@! TO.N,/Chassis_Bond_1*
X126224400Y-54381400D03*
D34*
X126224400Y-54381400D03*
G04 #@! TD*
D14*
G04 #@! TO.P,R53,1*
G04 #@! TO.N,/Leds indicadores + pulsadores/SW_2*
X132335800Y-61036200D03*
G04 #@! TO.P,R53,2*
G04 #@! TO.N,Net-(R53-Pad2)*
X131140800Y-61036200D03*
G04 #@! TD*
D45*
G04 #@! TO.P,C14,1*
G04 #@! TO.N,3V3*
X166229950Y-122505300D03*
G04 #@! TO.P,C14,2*
G04 #@! TO.N,GND*
X166229950Y-124230300D03*
G04 #@! TD*
D13*
G04 #@! TO.P,R56,1*
G04 #@! TO.N,GND*
X138743800Y-73268200D03*
G04 #@! TO.P,R56,2*
G04 #@! TO.N,/Leds indicadores + pulsadores/LED2*
X139938800Y-73268200D03*
G04 #@! TD*
D22*
G04 #@! TO.P,J18,1,Pin_1*
G04 #@! TO.N,5V*
X178246000Y-85907800D03*
D23*
G04 #@! TO.P,J18,2,Pin_2*
G04 #@! TO.N,GND*
X178246000Y-88447800D03*
G04 #@! TO.P,J18,3,Pin_3*
G04 #@! TO.N,/MCU/TIM8_CH2*
X178246000Y-90987800D03*
G04 #@! TD*
D17*
G04 #@! TO.P,R68,1*
G04 #@! TO.N,/USB/SHIELD_USB*
X176530000Y-74713500D03*
G04 #@! TO.P,R68,2*
G04 #@! TO.N,GND*
X176530000Y-75908500D03*
G04 #@! TD*
D20*
G04 #@! TO.P,J4,1,Pin_1*
G04 #@! TO.N,/MCU/TIM3_CH3*
X136720900Y-131215600D03*
G04 #@! TO.P,J4,2,Pin_2*
G04 #@! TO.N,/Motores_servos_PWM/Vdd_ESC*
X136720900Y-133755600D03*
D21*
G04 #@! TO.P,J4,3,Pin_3*
G04 #@! TO.N,GND*
X136720900Y-136295600D03*
G04 #@! TD*
D24*
G04 #@! TO.P,D8,1,K*
G04 #@! TO.N,Net-(D8-Pad1)*
X127212200Y-74523600D03*
G04 #@! TO.P,D8,2,A*
G04 #@! TO.N,3V3*
X125162200Y-74523600D03*
G04 #@! TD*
D14*
G04 #@! TO.P,R18,1*
G04 #@! TO.N,Net-(R18-Pad1)*
X161887500Y-102641400D03*
G04 #@! TO.P,R18,2*
G04 #@! TO.N,/MCU/SPI2_SCK*
X160692500Y-102641400D03*
G04 #@! TD*
D39*
G04 #@! TO.P,U2,1,D*
G04 #@! TO.N,Net-(R6-Pad2)*
X152400000Y-64857400D03*
G04 #@! TO.P,U2,2,GND*
G04 #@! TO.N,GND*
X153670000Y-64857400D03*
G04 #@! TO.P,U2,3,VCC*
G04 #@! TO.N,3V3*
X154940000Y-64857400D03*
G04 #@! TO.P,U2,4,R*
G04 #@! TO.N,Net-(R2-Pad2)*
X156210000Y-64857400D03*
G04 #@! TO.P,U2,5,Vref*
G04 #@! TO.N,unconnected-(U2-Pad5)*
X156210000Y-59907400D03*
G04 #@! TO.P,U2,6,CANL*
G04 #@! TO.N,/Interfaz_CAN/CAN2-*
X154940000Y-59907400D03*
G04 #@! TO.P,U2,7,CANH*
G04 #@! TO.N,/Interfaz_CAN/CAN2+*
X153670000Y-59907400D03*
G04 #@! TO.P,U2,8,Rs*
G04 #@! TO.N,Net-(R4-Pad1)*
X152400000Y-59907400D03*
G04 #@! TD*
D13*
G04 #@! TO.P,R14,1*
G04 #@! TO.N,3V3*
X167588000Y-106172000D03*
G04 #@! TO.P,R14,2*
G04 #@! TO.N,/Conexiones_extra/I2CA_SCL*
X168783000Y-106172000D03*
G04 #@! TD*
D46*
G04 #@! TO.P,J15,1,1*
G04 #@! TO.N,GND*
X142691800Y-56589200D03*
G04 #@! TO.P,J15,2,2*
G04 #@! TO.N,/Interfaz_CAN/CAN1+*
X143941800Y-56589200D03*
G04 #@! TO.P,J15,3,3*
G04 #@! TO.N,/Interfaz_CAN/CAN1-*
X145191800Y-56589200D03*
D47*
G04 #@! TO.P,J15,S1,SHIELD*
G04 #@! TO.N,unconnected-(J15-PadS1)*
X140341800Y-53289200D03*
G04 #@! TO.P,J15,S2,SHIELD*
G04 #@! TO.N,unconnected-(J15-PadS2)*
X147541800Y-53289200D03*
G04 #@! TD*
D14*
G04 #@! TO.P,R58,1*
G04 #@! TO.N,/Leds indicadores + pulsadores/LED2*
X139938800Y-72226800D03*
G04 #@! TO.P,R58,2*
G04 #@! TO.N,Net-(Q5-Pad1)*
X138743800Y-72226800D03*
G04 #@! TD*
D24*
G04 #@! TO.P,D10,1,K*
G04 #@! TO.N,Net-(D10-Pad1)*
X127212200Y-76809600D03*
G04 #@! TO.P,D10,2,A*
G04 #@! TO.N,3V3*
X125162200Y-76809600D03*
G04 #@! TD*
D20*
G04 #@! TO.P,J5,1,Pin_1*
G04 #@! TO.N,/MCU/TIM3_CH4*
X139260900Y-131215600D03*
G04 #@! TO.P,J5,2,Pin_2*
G04 #@! TO.N,/Motores_servos_PWM/Vdd_ESC*
X139260900Y-133755600D03*
D21*
G04 #@! TO.P,J5,3,Pin_3*
G04 #@! TO.N,GND*
X139260900Y-136295600D03*
G04 #@! TD*
D17*
G04 #@! TO.P,R20,1*
G04 #@! TO.N,/MCU/BOOT0*
X149860000Y-68744500D03*
G04 #@! TO.P,R20,2*
G04 #@! TO.N,GND*
X149860000Y-69939500D03*
G04 #@! TD*
D24*
G04 #@! TO.P,D5,1,K*
G04 #@! TO.N,Net-(D5-Pad1)*
X127212200Y-69951600D03*
G04 #@! TO.P,D5,2,A*
G04 #@! TO.N,3V3*
X125162200Y-69951600D03*
G04 #@! TD*
D14*
G04 #@! TO.P,R52,1*
G04 #@! TO.N,/Leds indicadores + pulsadores/LED3*
X136485600Y-72237600D03*
G04 #@! TO.P,R52,2*
G04 #@! TO.N,Net-(Q4-Pad1)*
X135290600Y-72237600D03*
G04 #@! TD*
D22*
G04 #@! TO.P,J26,1,Pin_1*
G04 #@! TO.N,/Conexiones_extra/I2CA_SDA*
X175706000Y-118927800D03*
D23*
G04 #@! TO.P,J26,2,Pin_2*
X178246000Y-118927800D03*
G04 #@! TO.P,J26,3,Pin_3*
G04 #@! TO.N,GND*
X175706000Y-121467800D03*
G04 #@! TO.P,J26,4,Pin_4*
X178246000Y-121467800D03*
G04 #@! TO.P,J26,5,Pin_5*
G04 #@! TO.N,/Conexiones_extra/I2CA_SCL*
X175706000Y-124007800D03*
G04 #@! TO.P,J26,6,Pin_6*
X178246000Y-124007800D03*
G04 #@! TO.P,J26,7,Pin_7*
G04 #@! TO.N,5V*
X175706000Y-126547800D03*
G04 #@! TO.P,J26,8,Pin_8*
G04 #@! TO.N,3V3*
X178246000Y-126547800D03*
G04 #@! TO.P,J26,9,Pin_9*
G04 #@! TO.N,5V*
X175706000Y-129087800D03*
G04 #@! TO.P,J26,10,Pin_10*
G04 #@! TO.N,3V3*
X178246000Y-129087800D03*
G04 #@! TD*
D48*
G04 #@! TO.P,J17,1,Pin_1*
G04 #@! TO.N,/MCU/USART3_RX*
X163748000Y-107694600D03*
G04 #@! TO.P,J17,2,Pin_2*
G04 #@! TO.N,GND*
X163748000Y-109194600D03*
G04 #@! TO.P,J17,3,Pin_3*
G04 #@! TO.N,3V3*
X163748000Y-110694600D03*
D38*
G04 #@! TO.P,J17,4,Pin_4*
G04 #@! TO.N,unconnected-(J17-Pad4)*
X161698000Y-112744600D03*
G04 #@! TO.P,J17,5,Pin_5*
G04 #@! TO.N,unconnected-(J17-Pad5)*
X161698000Y-105644600D03*
G04 #@! TD*
D13*
G04 #@! TO.P,R10,1*
G04 #@! TO.N,Net-(C9-Pad1)*
X144077500Y-100975000D03*
G04 #@! TO.P,R10,2*
G04 #@! TO.N,/Alimentaci\u00F3n/V_MEAS*
X145272500Y-100975000D03*
G04 #@! TD*
D49*
G04 #@! TO.P,C13,1*
G04 #@! TO.N,3V3*
X163830000Y-121765800D03*
G04 #@! TO.P,C13,2*
G04 #@! TO.N,GND*
X163830000Y-124715800D03*
G04 #@! TD*
D17*
G04 #@! TO.P,R61,1*
G04 #@! TO.N,Net-(Q8-Pad3)*
X128600200Y-73926100D03*
G04 #@! TO.P,R61,2*
G04 #@! TO.N,Net-(D8-Pad1)*
X128600200Y-75121100D03*
G04 #@! TD*
D24*
G04 #@! TO.P,D4,1,K*
G04 #@! TO.N,Net-(D4-Pad1)*
X127212200Y-65303400D03*
G04 #@! TO.P,D4,2,A*
G04 #@! TO.N,3V3*
X125162200Y-65303400D03*
G04 #@! TD*
D14*
G04 #@! TO.P,R41,1*
G04 #@! TO.N,/Leds indicadores + pulsadores/SW_1*
X132335200Y-55956200D03*
G04 #@! TO.P,R41,2*
G04 #@! TO.N,Net-(R41-Pad2)*
X131140200Y-55956200D03*
G04 #@! TD*
G04 #@! TO.P,R27,1*
G04 #@! TO.N,/Debug/NRST*
X132347300Y-66268600D03*
G04 #@! TO.P,R27,2*
G04 #@! TO.N,Net-(R27-Pad2)*
X131152300Y-66268600D03*
G04 #@! TD*
D50*
G04 #@! TO.P,C23,1*
G04 #@! TO.N,3V3*
X136709200Y-97699600D03*
G04 #@! TO.P,C23,2*
G04 #@! TO.N,GND*
X136709200Y-95624600D03*
G04 #@! TD*
D11*
G04 #@! TO.P,C45,1*
G04 #@! TO.N,3V3*
X167876600Y-69977000D03*
G04 #@! TO.P,C45,2*
G04 #@! TO.N,GND*
X169011600Y-69977000D03*
G04 #@! TD*
D34*
G04 #@! TO.P,H3,1,1*
G04 #@! TO.N,/Chassis_Bond_3*
X126224400Y-136880600D03*
D35*
X126224400Y-136880600D03*
G04 #@! TD*
D24*
G04 #@! TO.P,D7,1,K*
G04 #@! TO.N,Net-(D7-Pad1)*
X127212200Y-60680600D03*
G04 #@! TO.P,D7,2,A*
G04 #@! TO.N,3V3*
X125162200Y-60680600D03*
G04 #@! TD*
D51*
G04 #@! TO.P,J25,1,VDD*
G04 #@! TO.N,/Vbus*
X178096800Y-79988000D03*
G04 #@! TO.P,J25,2,D-*
G04 #@! TO.N,/USB/D_connector-*
X178096800Y-79338000D03*
G04 #@! TO.P,J25,3,D+*
G04 #@! TO.N,/USB/D_connector+*
X178096800Y-78688000D03*
G04 #@! TO.P,J25,4,ID*
G04 #@! TO.N,unconnected-(J25-Pad4)*
X178096800Y-78038000D03*
G04 #@! TO.P,J25,5,GND*
G04 #@! TO.N,GND*
X178096800Y-77388000D03*
D52*
G04 #@! TO.P,J25,6,SHIELD*
G04 #@! TO.N,/USB/SHIELD_USB*
X180771800Y-75188000D03*
D53*
X180771800Y-77688000D03*
D54*
X180771800Y-75488000D03*
D52*
X180771800Y-82188000D03*
D53*
X180771800Y-79688000D03*
D54*
X180771800Y-81888000D03*
D55*
G04 #@! TO.P,J25,7,MOUNT_1*
X178071800Y-76188000D03*
X178071800Y-81188000D03*
G04 #@! TD*
D56*
G04 #@! TO.P,J24,1,DAT2*
G04 #@! TO.N,Net-(J24-Pad1)*
X164090100Y-67343100D03*
G04 #@! TO.P,J24,2,CD/DAT3*
G04 #@! TO.N,Net-(J24-Pad2)*
X165190100Y-67343100D03*
G04 #@! TO.P,J24,3,CMD*
G04 #@! TO.N,Net-(J24-Pad3)*
X166290100Y-67343100D03*
G04 #@! TO.P,J24,4,VDD*
G04 #@! TO.N,3V3*
X167390100Y-67343100D03*
G04 #@! TO.P,J24,5,CLK*
G04 #@! TO.N,Net-(J24-Pad5)*
X168490100Y-67343100D03*
G04 #@! TO.P,J24,6,VSS*
G04 #@! TO.N,GND*
X169590100Y-67343100D03*
G04 #@! TO.P,J24,7,DAT0*
G04 #@! TO.N,Net-(J24-Pad7)*
X170690100Y-67343100D03*
G04 #@! TO.P,J24,8,DAT1*
G04 #@! TO.N,Net-(J24-Pad8)*
X171790100Y-67343100D03*
D57*
G04 #@! TO.P,J24,P1,SHIELD*
G04 #@! TO.N,unconnected-(J24-PadP1)*
X173690100Y-63043100D03*
D58*
G04 #@! TO.P,J24,P2,SHIELD*
G04 #@! TO.N,GND*
X173690100Y-52693100D03*
D59*
G04 #@! TO.P,J24,P3,SHIELD*
X160190100Y-52243100D03*
D57*
G04 #@! TO.P,J24,P4,SHIELD*
X162540100Y-67343100D03*
D60*
G04 #@! TO.P,J24,SWA*
G04 #@! TO.N,/MCU/PD3(EXTI3)*
X173690100Y-56843100D03*
D56*
G04 #@! TO.P,J24,SWB*
G04 #@! TO.N,GND*
X172740100Y-67343100D03*
G04 #@! TD*
D11*
G04 #@! TO.P,C4,1*
G04 #@! TO.N,GND*
X177681000Y-131800000D03*
G04 #@! TO.P,C4,2*
G04 #@! TO.N,/Chassis_Bond_4*
X178816000Y-131800000D03*
G04 #@! TD*
D61*
G04 #@! TO.P,J22,1,1*
G04 #@! TO.N,5V*
X137687900Y-102996200D03*
G04 #@! TO.P,J22,2,2*
G04 #@! TO.N,/Sensores/GNSS_Tx*
X137687900Y-104246200D03*
G04 #@! TO.P,J22,3,3*
G04 #@! TO.N,/Sensores/GNSS_Rx*
X137687900Y-105496200D03*
G04 #@! TO.P,J22,4,4*
G04 #@! TO.N,/Sensores/GNSS_PPS*
X137687900Y-106746200D03*
G04 #@! TO.P,J22,5,5*
G04 #@! TO.N,unconnected-(J22-Pad5)*
X137687900Y-107996200D03*
G04 #@! TO.P,J22,6,6*
G04 #@! TO.N,GND*
X137687900Y-109246200D03*
D62*
G04 #@! TO.P,J22,S1,SHIELD*
G04 #@! TO.N,unconnected-(J22-PadS1)*
X134987900Y-100646200D03*
G04 #@! TO.P,J22,S2,SHIELD*
G04 #@! TO.N,unconnected-(J22-PadS2)*
X134987900Y-111596200D03*
G04 #@! TD*
D38*
G04 #@! TO.P,SW2,1,A*
G04 #@! TO.N,GND*
X137831500Y-53390800D03*
G04 #@! TO.P,SW2,2,B*
G04 #@! TO.N,Net-(R41-Pad2)*
X131131500Y-53390800D03*
G04 #@! TD*
D20*
G04 #@! TO.P,J6,1,Pin_1*
G04 #@! TO.N,/MCU/TIM1_CH1*
X141800900Y-131215600D03*
G04 #@! TO.P,J6,2,Pin_2*
G04 #@! TO.N,/Motores_servos_PWM/Vdd_ESC*
X141800900Y-133755600D03*
D21*
G04 #@! TO.P,J6,3,Pin_3*
G04 #@! TO.N,GND*
X141800900Y-136295600D03*
G04 #@! TD*
D17*
G04 #@! TO.P,R66,1*
G04 #@! TO.N,Net-(Q7-Pad3)*
X128600200Y-67017300D03*
G04 #@! TO.P,R66,2*
G04 #@! TO.N,Net-(D9-Pad1)*
X128600200Y-68212300D03*
G04 #@! TD*
D38*
G04 #@! TO.P,SW1,1,A*
G04 #@! TO.N,GND*
X137843000Y-63804800D03*
G04 #@! TO.P,SW1,2,B*
G04 #@! TO.N,Net-(R27-Pad2)*
X131143000Y-63804800D03*
G04 #@! TD*
D16*
G04 #@! TO.P,C44,1*
G04 #@! TO.N,/MCU/OSC32_OUT*
X139868550Y-80975200D03*
G04 #@! TO.P,C44,2*
G04 #@! TO.N,GND*
X138733550Y-80975200D03*
G04 #@! TD*
D20*
G04 #@! TO.P,J3,1,Pin_1*
G04 #@! TO.N,/MCU/TIM3_CH2*
X134180900Y-131215600D03*
G04 #@! TO.P,J3,2,Pin_2*
G04 #@! TO.N,/Motores_servos_PWM/Vdd_ESC*
X134180900Y-133755600D03*
D21*
G04 #@! TO.P,J3,3,Pin_3*
G04 #@! TO.N,GND*
X134180900Y-136295600D03*
G04 #@! TD*
D32*
G04 #@! TO.P,C5,1*
G04 #@! TO.N,GND*
X143714300Y-67949700D03*
G04 #@! TO.P,C5,2*
G04 #@! TO.N,3V3*
X145439300Y-67949700D03*
G04 #@! TD*
D63*
G04 #@! TO.P,U3,1,GND*
G04 #@! TO.N,GND*
X159461600Y-124194600D03*
G04 #@! TO.P,U3,2,VO*
G04 #@! TO.N,3V3*
X159461600Y-121894600D03*
D64*
X153161600Y-121894600D03*
D63*
G04 #@! TO.P,U3,3,VI*
G04 #@! TO.N,5V*
X159461600Y-119594600D03*
G04 #@! TD*
D15*
G04 #@! TO.P,R33,1*
G04 #@! TO.N,/MCU/SDMMC1_D0*
X172720000Y-72821800D03*
G04 #@! TO.P,R33,2*
G04 #@! TO.N,3V3*
X172720000Y-71626800D03*
G04 #@! TD*
D17*
G04 #@! TO.P,R46,1*
G04 #@! TO.N,Net-(Q6-Pad3)*
X128600200Y-71626800D03*
G04 #@! TO.P,R46,2*
G04 #@! TO.N,Net-(D3-Pad1)*
X128600200Y-72821800D03*
G04 #@! TD*
D15*
G04 #@! TO.P,R2,1*
G04 #@! TO.N,/Interfaz_CAN/CAN2_RX*
X157632400Y-65621500D03*
G04 #@! TO.P,R2,2*
G04 #@! TO.N,Net-(R2-Pad2)*
X157632400Y-64426500D03*
G04 #@! TD*
D11*
G04 #@! TO.P,C38,1*
G04 #@! TO.N,3V3*
X157894400Y-73710800D03*
G04 #@! TO.P,C38,2*
G04 #@! TO.N,GND*
X159029400Y-73710800D03*
G04 #@! TD*
D35*
G04 #@! TO.P,H4,1,1*
G04 #@! TO.N,/Chassis_Bond_4*
X178824400Y-136880600D03*
D34*
X178824400Y-136880600D03*
G04 #@! TD*
D17*
G04 #@! TO.P,R36,1*
G04 #@! TO.N,Net-(J24-Pad7)*
X171678600Y-71626800D03*
G04 #@! TO.P,R36,2*
G04 #@! TO.N,/MCU/SDMMC1_D0*
X171678600Y-72821800D03*
G04 #@! TD*
D61*
G04 #@! TO.P,J21,1,1*
G04 #@! TO.N,5V*
X137619400Y-117454200D03*
G04 #@! TO.P,J21,2,2*
G04 #@! TO.N,/Sensores/GNSS_SCL*
X137619400Y-118704200D03*
G04 #@! TO.P,J21,3,3*
G04 #@! TO.N,/Sensores/GNSS_SDA*
X137619400Y-119954200D03*
G04 #@! TO.P,J21,4,4*
G04 #@! TO.N,GND*
X137619400Y-121204200D03*
D62*
G04 #@! TO.P,J21,S1,SHIELD*
G04 #@! TO.N,unconnected-(J21-PadS1)*
X134919400Y-115204200D03*
G04 #@! TO.P,J21,S2,SHIELD*
G04 #@! TO.N,unconnected-(J21-PadS2)*
X134919400Y-123454200D03*
G04 #@! TD*
D20*
G04 #@! TO.P,J8,1,Pin_1*
G04 #@! TO.N,/MCU/TIM1_CH3*
X146880900Y-131215600D03*
G04 #@! TO.P,J8,2,Pin_2*
G04 #@! TO.N,/Motores_servos_PWM/Vdd_ESC*
X146880900Y-133755600D03*
D21*
G04 #@! TO.P,J8,3,Pin_3*
G04 #@! TO.N,GND*
X146880900Y-136295600D03*
G04 #@! TD*
D17*
G04 #@! TO.P,R59,1*
G04 #@! TO.N,/Leds indicadores + pulsadores/LED7*
X128828800Y-79780200D03*
G04 #@! TO.P,R59,2*
G04 #@! TO.N,Net-(Q6-Pad1)*
X128828800Y-80975200D03*
G04 #@! TD*
D65*
G04 #@! TO.P,C12,1*
G04 #@! TO.N,5V*
X162712400Y-117373400D03*
G04 #@! TO.P,C12,2*
G04 #@! TO.N,GND*
X165837400Y-117373400D03*
G04 #@! TD*
D66*
G04 #@! TO.P,C11,1*
G04 #@! TO.N,GND*
X164437400Y-119405400D03*
G04 #@! TO.P,C11,2*
G04 #@! TO.N,5V*
X162712400Y-119405400D03*
G04 #@! TD*
D18*
G04 #@! TO.P,Q7,1,G*
G04 #@! TO.N,Net-(Q7-Pad1)*
X134559000Y-77530050D03*
G04 #@! TO.P,Q7,2,S*
G04 #@! TO.N,GND*
X136459000Y-77530050D03*
G04 #@! TO.P,Q7,3,D*
G04 #@! TO.N,Net-(Q7-Pad3)*
X135509000Y-75655050D03*
G04 #@! TD*
D15*
G04 #@! TO.P,R8,1*
G04 #@! TO.N,Net-(C10-Pad1)*
X141326599Y-99330000D03*
G04 #@! TO.P,R8,2*
G04 #@! TO.N,GND*
X141326599Y-98135000D03*
G04 #@! TD*
D14*
G04 #@! TO.P,R11,1*
G04 #@! TO.N,/MCU/SPI2_MISO*
X161836700Y-101142800D03*
G04 #@! TO.P,R11,2*
G04 #@! TO.N,Net-(R11-Pad2)*
X160641700Y-101142800D03*
G04 #@! TD*
G04 #@! TO.P,R45,1*
G04 #@! TO.N,/Leds indicadores + pulsadores/LED1*
X132891850Y-72237600D03*
G04 #@! TO.P,R45,2*
G04 #@! TO.N,Net-(Q2-Pad1)*
X131696850Y-72237600D03*
G04 #@! TD*
D17*
G04 #@! TO.P,R39,1*
G04 #@! TO.N,Net-(J24-Pad5)*
X157759400Y-70497100D03*
G04 #@! TO.P,R39,2*
G04 #@! TO.N,/MCU/SDMMC1_CK*
X157759400Y-71692100D03*
G04 #@! TD*
D44*
G04 #@! TO.P,D2,1,K*
G04 #@! TO.N,5V*
X131114800Y-115722600D03*
G04 #@! TO.P,D2,2,A*
G04 #@! TO.N,/Alimentaci\u00F3n/5Vin*
X131114800Y-118922600D03*
G04 #@! TD*
D22*
G04 #@! TO.P,J1,1,Pin_1*
G04 #@! TO.N,/Debug/SWDIO*
X180472000Y-69962000D03*
D23*
G04 #@! TO.P,J1,2,Pin_2*
G04 #@! TO.N,3V3*
X177932000Y-69962000D03*
G04 #@! TO.P,J1,3,Pin_3*
G04 #@! TO.N,/Debug/NRST*
X180472000Y-67422000D03*
G04 #@! TO.P,J1,4,Pin_4*
G04 #@! TO.N,/Debug/SWCLK*
X177932000Y-67422000D03*
G04 #@! TO.P,J1,5,Pin_5*
G04 #@! TO.N,/Debug/SWO*
X180472000Y-64882000D03*
G04 #@! TO.P,J1,6,Pin_6*
G04 #@! TO.N,GND*
X177932000Y-64882000D03*
G04 #@! TD*
D17*
G04 #@! TO.P,R44,1*
G04 #@! TO.N,/Leds indicadores + pulsadores/LED5*
X128828800Y-86092700D03*
G04 #@! TO.P,R44,2*
G04 #@! TO.N,Net-(Q1-Pad1)*
X128828800Y-87287700D03*
G04 #@! TD*
D24*
G04 #@! TO.P,D3,1,K*
G04 #@! TO.N,Net-(D3-Pad1)*
X127212200Y-72224300D03*
G04 #@! TO.P,D3,2,A*
G04 #@! TO.N,3V3*
X125162200Y-72224300D03*
G04 #@! TD*
D17*
G04 #@! TO.P,R55,1*
G04 #@! TO.N,Net-(Q4-Pad3)*
X128600200Y-62394500D03*
G04 #@! TO.P,R55,2*
G04 #@! TO.N,Net-(D6-Pad1)*
X128600200Y-63589500D03*
G04 #@! TD*
D46*
G04 #@! TO.P,J16,1,1*
G04 #@! TO.N,GND*
X152445400Y-56589200D03*
G04 #@! TO.P,J16,2,2*
G04 #@! TO.N,/Interfaz_CAN/CAN2+*
X153695400Y-56589200D03*
G04 #@! TO.P,J16,3,3*
G04 #@! TO.N,/Interfaz_CAN/CAN2-*
X154945400Y-56589200D03*
D47*
G04 #@! TO.P,J16,S1,SHIELD*
G04 #@! TO.N,unconnected-(J16-PadS1)*
X150095400Y-53289200D03*
G04 #@! TO.P,J16,S2,SHIELD*
G04 #@! TO.N,unconnected-(J16-PadS2)*
X157295400Y-53289200D03*
G04 #@! TD*
D14*
G04 #@! TO.P,R31,1*
G04 #@! TO.N,/MCU/SDMMC1_D2*
X161176300Y-71196200D03*
G04 #@! TO.P,R31,2*
G04 #@! TO.N,3V3*
X159981300Y-71196200D03*
G04 #@! TD*
D24*
G04 #@! TO.P,D6,1,K*
G04 #@! TO.N,Net-(D6-Pad1)*
X127212200Y-62992000D03*
G04 #@! TO.P,D6,2,A*
G04 #@! TO.N,3V3*
X125162200Y-62992000D03*
G04 #@! TD*
D15*
G04 #@! TO.P,R9,1*
G04 #@! TO.N,Net-(C10-Pad1)*
X140234399Y-99330000D03*
G04 #@! TO.P,R9,2*
G04 #@! TO.N,/Alimentaci\u00F3n/I_MEAS*
X140234399Y-98135000D03*
G04 #@! TD*
D67*
G04 #@! TO.P,U4,1,VDD_IO*
G04 #@! TO.N,3V3*
X152650063Y-110582299D03*
G04 #@! TO.P,U4,2,SCL/SPC*
G04 #@! TO.N,/Sensores/GNSS_SCL*
X152149937Y-110582299D03*
D68*
G04 #@! TO.P,U4,3,RES*
G04 #@! TO.N,GND*
X151565099Y-110917074D03*
G04 #@! TO.P,U4,4,SDA/SDI/SDO*
G04 #@! TO.N,/Sensores/GNSS_SDA*
X151565099Y-111417200D03*
G04 #@! TO.P,U4,5,AH2*
G04 #@! TO.N,GND*
X151565099Y-111917326D03*
D67*
G04 #@! TO.P,U4,6,CS*
G04 #@! TO.N,3V3*
X152149937Y-112252101D03*
G04 #@! TO.P,U4,7,AH1*
G04 #@! TO.N,GND*
X152650063Y-112252101D03*
D68*
G04 #@! TO.P,U4,8,GND_IO*
X153234901Y-111917326D03*
G04 #@! TO.P,U4,9,GND*
X153234901Y-111417200D03*
G04 #@! TO.P,U4,10,VDD*
G04 #@! TO.N,3V3*
X153234901Y-110917074D03*
G04 #@! TD*
D61*
G04 #@! TO.P,J19,1,1*
G04 #@! TO.N,/Alimentaci\u00F3n/5Vin*
X127287000Y-120039600D03*
G04 #@! TO.P,J19,2,2*
X127287000Y-121289600D03*
G04 #@! TO.P,J19,3,3*
G04 #@! TO.N,Net-(C9-Pad1)*
X127287000Y-122539600D03*
G04 #@! TO.P,J19,4,4*
G04 #@! TO.N,Net-(C10-Pad1)*
X127287000Y-123789600D03*
G04 #@! TO.P,J19,5,5*
G04 #@! TO.N,GND*
X127287000Y-125039600D03*
G04 #@! TO.P,J19,6,6*
X127287000Y-126289600D03*
D62*
G04 #@! TO.P,J19,S1,SHIELD*
G04 #@! TO.N,unconnected-(J19-PadS1)*
X124587000Y-117689600D03*
G04 #@! TO.P,J19,S2,SHIELD*
G04 #@! TO.N,unconnected-(J19-PadS2)*
X124587000Y-128639600D03*
G04 #@! TD*
D12*
G04 #@! TO.P,C40,1*
G04 #@! TO.N,3V3*
X141097000Y-84997100D03*
G04 #@! TO.P,C40,2*
G04 #@! TO.N,GND*
X141097000Y-83862100D03*
G04 #@! TD*
D33*
G04 #@! TO.P,C18,1*
G04 #@! TO.N,3V3*
X157636400Y-110163700D03*
G04 #@! TO.P,C18,2*
G04 #@! TO.N,GND*
X157636400Y-112238700D03*
G04 #@! TD*
D20*
G04 #@! TO.P,J13,1,Pin_1*
G04 #@! TO.N,/MCU/TIM4_CH3*
X159258000Y-131215000D03*
G04 #@! TO.P,J13,2,Pin_2*
G04 #@! TO.N,/Motores_servos_PWM/Vdd_servos*
X159258000Y-133755000D03*
D21*
G04 #@! TO.P,J13,3,Pin_3*
G04 #@! TO.N,GND*
X159258000Y-136295000D03*
G04 #@! TD*
D13*
G04 #@! TO.P,R25,1*
G04 #@! TO.N,/MCU/OTG_FS_VBUS*
X170737600Y-82118200D03*
G04 #@! TO.P,R25,2*
G04 #@! TO.N,GND*
X171932600Y-82118200D03*
G04 #@! TD*
D17*
G04 #@! TO.P,R3,1*
G04 #@! TO.N,Net-(R3-Pad1)*
X141224000Y-63105700D03*
G04 #@! TO.P,R3,2*
G04 #@! TO.N,GND*
X141224000Y-64300700D03*
G04 #@! TD*
D10*
G04 #@! TO.P,C16,1*
G04 #@! TO.N,3V3*
X155985400Y-110595700D03*
G04 #@! TO.P,C16,2*
G04 #@! TO.N,GND*
X155985400Y-111730700D03*
G04 #@! TD*
D16*
G04 #@! TO.P,C47,1*
G04 #@! TO.N,GND*
X138413300Y-55956200D03*
G04 #@! TO.P,C47,2*
G04 #@! TO.N,/Leds indicadores + pulsadores/SW_1*
X137278300Y-55956200D03*
G04 #@! TD*
D18*
G04 #@! TO.P,Q5,1,G*
G04 #@! TO.N,Net-(Q5-Pad1)*
X137795000Y-70660500D03*
G04 #@! TO.P,Q5,2,S*
G04 #@! TO.N,GND*
X139695000Y-70660500D03*
G04 #@! TO.P,Q5,3,D*
G04 #@! TO.N,Net-(Q5-Pad3)*
X138745000Y-68785500D03*
G04 #@! TD*
D69*
G04 #@! TO.N,GND*
X131749800Y-81153000D03*
X141173200Y-65278000D03*
X139217400Y-109296200D03*
X129006600Y-126365000D03*
X139446000Y-55880000D03*
X158165800Y-100152200D03*
X129921000Y-81915000D03*
X175641000Y-76835000D03*
X128275000Y-131825000D03*
X139344400Y-121208800D03*
X142570200Y-67919600D03*
X153060400Y-113211700D03*
X133299200Y-76211550D03*
X142671800Y-58115200D03*
X170434000Y-71247000D03*
X162509200Y-68427600D03*
X176750000Y-131800000D03*
X155726850Y-70052650D03*
X150287450Y-110589550D03*
X137744200Y-79857600D03*
X146253200Y-105460800D03*
X137820400Y-73253600D03*
X169697400Y-74980800D03*
X154305000Y-113157000D03*
X152323800Y-67945000D03*
X154228800Y-106756200D03*
X125882400Y-81915000D03*
X152806400Y-66675000D03*
X165451675Y-99884249D03*
X140750000Y-89625000D03*
X128295400Y-58674000D03*
X143950500Y-74676000D03*
X156488850Y-72719650D03*
X170561000Y-90093800D03*
X146175000Y-101950000D03*
X165633400Y-119456200D03*
X134413600Y-91720050D03*
X135556600Y-93396451D03*
X139761000Y-69318500D03*
X145669000Y-97637600D03*
X143027400Y-66700400D03*
X125882400Y-85115400D03*
X174879000Y-52552600D03*
X150799800Y-58293000D03*
X166243000Y-125349000D03*
X141600000Y-90750000D03*
X152450800Y-58140600D03*
X130937000Y-84124800D03*
X125933200Y-78790800D03*
X180924200Y-58775600D03*
X148691600Y-103987600D03*
X166090600Y-95927300D03*
X168605200Y-75082400D03*
X134540600Y-92888450D03*
X130759200Y-73253600D03*
X133309400Y-69293100D03*
X129032000Y-125095000D03*
X138217051Y-95129400D03*
X140157200Y-83870800D03*
X130886200Y-87249000D03*
X134823200Y-81102200D03*
X136626600Y-76160750D03*
X149936200Y-70993000D03*
X166700800Y-109270800D03*
X173304200Y-68834000D03*
X155926800Y-112776000D03*
X159943800Y-73710800D03*
X172897800Y-82169000D03*
X153372650Y-100067025D03*
X167157400Y-117398800D03*
X141625000Y-70300000D03*
X142367000Y-97155000D03*
X137769600Y-81000600D03*
X155930600Y-108458000D03*
X134289800Y-73228200D03*
X136560600Y-69293100D03*
X158775400Y-52044600D03*
X142113000Y-75946000D03*
X139827000Y-63754000D03*
X167894000Y-86233000D03*
X169951400Y-70002400D03*
X139420600Y-61010800D03*
X150317200Y-113233200D03*
G04 #@! TO.N,3V3*
X123977400Y-76809600D03*
X159080200Y-71170800D03*
X148844000Y-120599200D03*
X145347500Y-74676000D03*
X166229950Y-121412000D03*
X156641800Y-120599200D03*
X123977400Y-74523600D03*
X146100800Y-106883200D03*
X151511000Y-107696000D03*
X124002800Y-65278000D03*
X166565950Y-105003600D03*
X155371800Y-121869200D03*
X155371800Y-120599200D03*
X148844000Y-121869200D03*
X156641800Y-121869200D03*
X153390050Y-72719650D03*
X172745400Y-70649500D03*
X166650000Y-110769400D03*
X167487600Y-75031600D03*
X166636100Y-106146600D03*
X135839200Y-61061600D03*
X167868600Y-83159600D03*
X149961600Y-65252600D03*
X159385000Y-100203000D03*
X153974250Y-70027250D03*
X156641800Y-123139200D03*
X166928800Y-69951600D03*
X148844000Y-123139200D03*
X150114000Y-120599200D03*
X124002800Y-69926200D03*
X148691600Y-102870000D03*
X135813800Y-66268600D03*
X151790400Y-113211700D03*
X154541050Y-100041625D03*
X150114000Y-121869200D03*
X124028200Y-62966600D03*
X150114000Y-123139200D03*
X148971000Y-113106200D03*
X156010800Y-109630300D03*
X162560000Y-70180200D03*
X156895800Y-73685400D03*
X170281600Y-72644000D03*
X174980600Y-69824600D03*
X156337000Y-67970400D03*
X124002800Y-60680600D03*
X146100800Y-66700400D03*
X124028200Y-72173500D03*
X141625000Y-91925000D03*
X140131800Y-84988400D03*
X165760400Y-98983800D03*
X148005800Y-98247200D03*
X124002800Y-67589400D03*
X153543000Y-107696000D03*
X142113000Y-77216000D03*
X175564800Y-61036200D03*
X155829000Y-66649600D03*
X170535600Y-88925400D03*
X138293250Y-98304400D03*
X155371800Y-123139200D03*
X166420800Y-71247000D03*
X135712200Y-55880000D03*
X146583400Y-67945000D03*
X141625000Y-71300000D03*
G04 #@! TO.N,Net-(C9-Pad1)*
X145175000Y-110850000D03*
X130302000Y-122555000D03*
G04 #@! TO.N,Net-(C10-Pad1)*
X130302000Y-123799600D03*
X141825000Y-113450000D03*
G04 #@! TO.N,/Sensores/GNSS_Tx*
X139446000Y-104165400D03*
X141350000Y-94175000D03*
G04 #@! TO.N,/Sensores/GNSS_Rx*
X141337000Y-95363000D03*
X139446000Y-105384600D03*
G04 #@! TO.N,/Conexiones_extra/I2CA_SCL*
X162606150Y-98323400D03*
X168808400Y-107111800D03*
G04 #@! TO.N,/Sensores/GNSS_SDA*
X139217400Y-120015000D03*
X147447000Y-109347000D03*
X156311600Y-98247200D03*
G04 #@! TO.N,/Sensores/GNSS_SCL*
X155651200Y-99161600D03*
X139217400Y-118719600D03*
X146634200Y-108381800D03*
G04 #@! TO.N,/Conexiones_extra/I2CA_SDA*
X168808400Y-104089200D03*
X163550600Y-99441000D03*
G04 #@! TO.N,/MCU/TIM3_CH1*
X143400000Y-113425000D03*
G04 #@! TO.N,/Debug/SWCLK*
X165557200Y-73355200D03*
G04 #@! TO.N,/MCU/TIM3_CH2*
X145175000Y-113525000D03*
G04 #@! TO.N,/Debug/SWDIO*
X174967900Y-75399900D03*
G04 #@! TO.N,/Debug/NRST*
X147802600Y-89077800D03*
X139433300Y-66179700D03*
G04 #@! TO.N,/MCU/TIM3_CH3*
X146177000Y-112395000D03*
G04 #@! TO.N,/MCU/TIM3_CH4*
X147599400Y-113334800D03*
G04 #@! TO.N,/MCU/TIM4_CH1*
X169062400Y-112141000D03*
G04 #@! TO.N,/Debug/SWO*
X151909950Y-73253600D03*
G04 #@! TO.N,/MCU/TIM4_CH2*
X169316400Y-113309400D03*
G04 #@! TO.N,/MCU/TIM4_CH3*
X171500800Y-112141000D03*
G04 #@! TO.N,/MCU/TIM4_CH4*
X171500800Y-113538000D03*
G04 #@! TO.N,/Conexiones_extra/UARTA_TX*
X157988000Y-95046800D03*
G04 #@! TO.N,/MCU/SDMMC1_D3*
X164566600Y-72491600D03*
X162102800Y-73219700D03*
G04 #@! TO.N,/Conexiones_extra/UARTB_TX*
X154673300Y-77101700D03*
G04 #@! TO.N,/Conexiones_extra/UARTA_RX*
X156946600Y-94411800D03*
G04 #@! TO.N,/Conexiones_extra/UARTB_RX*
X156591000Y-76733400D03*
G04 #@! TO.N,/Conexiones_extra/UARTC_TX*
X158851600Y-77419200D03*
G04 #@! TO.N,/Sensores/MAG_INT_DATA_RDY*
X152120600Y-95046800D03*
G04 #@! TO.N,/MCU/SDMMC1_CMD*
X162153600Y-77165200D03*
X166039800Y-74752200D03*
G04 #@! TO.N,/MCU/SDMMC1_D0*
X169341800Y-81864200D03*
X172847000Y-74041000D03*
G04 #@! TO.N,/MCU/SDMMC1_D1*
X171196000Y-76073000D03*
X168376600Y-81356200D03*
G04 #@! TO.N,/MCU/TIM1_CH1*
X156972000Y-99161600D03*
G04 #@! TO.N,/MCU/TIM1_CH2*
X160248600Y-98196400D03*
G04 #@! TO.N,/MCU/TIM1_CH3*
X160909000Y-99161600D03*
G04 #@! TO.N,/MCU/TIM1_CH4*
X161671000Y-99847400D03*
G04 #@! TO.N,/Conexiones_extra/UARTC_RX*
X157632400Y-77038200D03*
G04 #@! TO.N,Net-(J24-Pad1)*
X158826200Y-69011800D03*
X163677600Y-68808600D03*
G04 #@! TO.N,Net-(J24-Pad5)*
X168478200Y-68630800D03*
X158521400Y-67183000D03*
G04 #@! TO.N,Net-(Q2-Pad3)*
X129565400Y-65328800D03*
X132334000Y-67360800D03*
G04 #@! TO.N,Net-(Q3-Pad3)*
X129641600Y-69418200D03*
X131902200Y-74345800D03*
G04 #@! TO.N,Net-(Q4-Pad3)*
X129565400Y-62128400D03*
X135559800Y-67310000D03*
G04 #@! TO.N,Net-(Q5-Pad3)*
X129590800Y-60452000D03*
X138734800Y-67233800D03*
G04 #@! TO.N,Net-(Q7-Pad3)*
X135509000Y-74295000D03*
X129565400Y-67106800D03*
G04 #@! TO.N,/MCU/SPI2_MISO*
X167792400Y-100355400D03*
X168681400Y-98171000D03*
G04 #@! TO.N,/MCU/PD3(EXTI3)*
X175310800Y-64846200D03*
X160045400Y-77165200D03*
G04 #@! TO.N,Net-(R16-Pad1)*
X165227000Y-103454200D03*
X167132000Y-98450400D03*
G04 #@! TO.N,Net-(R17-Pad1)*
X168325800Y-101473000D03*
X169519600Y-99060000D03*
G04 #@! TO.N,/Leds indicadores + pulsadores/LED1*
X147167600Y-77622400D03*
X134137400Y-72186800D03*
G04 #@! TO.N,/Leds indicadores + pulsadores/LED2*
X146456400Y-76962000D03*
X140081000Y-74295000D03*
G04 #@! TO.N,/Leds indicadores + pulsadores/LED3*
X148361400Y-77165200D03*
X137515600Y-72212200D03*
G04 #@! TO.N,/Leds indicadores + pulsadores/LED4*
X146481800Y-79578200D03*
X136017000Y-81076800D03*
G04 #@! TO.N,/Leds indicadores + pulsadores/LED5*
X130835400Y-86156800D03*
X146583400Y-84099400D03*
G04 #@! TO.N,/Leds indicadores + pulsadores/LED6*
X146558000Y-81864200D03*
X132969000Y-81153000D03*
G04 #@! TO.N,/Leds indicadores + pulsadores/LED7*
X129921000Y-78816200D03*
X147421600Y-78638400D03*
G04 #@! TO.N,/Leds indicadores + pulsadores/LED8*
X131089400Y-82956400D03*
X146837400Y-82829400D03*
G04 #@! TO.N,/Leds indicadores + pulsadores/SW_1*
X151511000Y-77190600D03*
X140563600Y-58851800D03*
G04 #@! TO.N,/Leds indicadores + pulsadores/SW_2*
X139750800Y-62280800D03*
X145669000Y-71247000D03*
G04 #@! TO.N,/Sensores/GNSS_PPS*
X139471400Y-106680000D03*
X142748000Y-95123000D03*
G04 #@! TO.N,/MCU/TIM8_CH2*
X164668200Y-82677000D03*
G04 #@! TO.N,Net-(Q1-Pad3)*
X124002800Y-86055200D03*
X129717800Y-76454000D03*
G04 #@! TO.N,Net-(Q8-Pad3)*
X129616200Y-74345800D03*
X124053600Y-82956400D03*
G04 #@! TO.N,Net-(Q6-Pad3)*
X124053600Y-79781400D03*
X129641600Y-71907400D03*
G04 #@! TD*
D70*
G04 #@! TO.N,GND*
X135290600Y-73279000D02*
X134340600Y-73279000D01*
X125973800Y-78831400D02*
X125933200Y-78790800D01*
X134413600Y-90707500D02*
X134413600Y-91720050D01*
D71*
X127310000Y-131800000D02*
X128250000Y-131800000D01*
D70*
X135504050Y-91925000D02*
X134540600Y-92888450D01*
X150287450Y-113203450D02*
X150317200Y-113233200D01*
X167843200Y-86182200D02*
X167894000Y-86233000D01*
X143610000Y-92178200D02*
X143154400Y-92633800D01*
X169306600Y-70627600D02*
X169306600Y-71247000D01*
X135561850Y-93391200D02*
X135556600Y-93396451D01*
X168994900Y-90051700D02*
X169630450Y-90051700D01*
X142393400Y-98165000D02*
X142393400Y-97181400D01*
X152650063Y-112801363D02*
X153060400Y-113211700D01*
X141326599Y-98135000D02*
X142363400Y-98135000D01*
X154910700Y-111730700D02*
X155985400Y-111730700D01*
X139084000Y-96094600D02*
X138293251Y-96094600D01*
X153758050Y-98159150D02*
X153398600Y-98518600D01*
X153469000Y-67949700D02*
X152328500Y-67949700D01*
X147258050Y-96590700D02*
X147258050Y-97343950D01*
X142691800Y-58095200D02*
X142671800Y-58115200D01*
X144845550Y-92178200D02*
X143610000Y-92178200D01*
X173690100Y-52489900D02*
X174816300Y-52489900D01*
X137831500Y-58547000D02*
X137831500Y-59802700D01*
D72*
X161913600Y-124194600D02*
X159461600Y-124194600D01*
D70*
X167660400Y-77678200D02*
X168581050Y-76757550D01*
X162540100Y-68396700D02*
X162509200Y-68427600D01*
X169630450Y-90051700D02*
X170518900Y-90051700D01*
X143002000Y-76073000D02*
X142240000Y-76073000D01*
X156434800Y-111730700D02*
X156942800Y-112238700D01*
X151821900Y-104013000D02*
X150393400Y-104013000D01*
X151821900Y-104513000D02*
X150452200Y-104513000D01*
X150287450Y-112646950D02*
X150287450Y-112428650D01*
X130847500Y-87287700D02*
X130886200Y-87249000D01*
X169732050Y-75015450D02*
X169697400Y-74980800D01*
X150614974Y-110917074D02*
X150287450Y-110589550D01*
X129946400Y-80975200D02*
X129946400Y-81889600D01*
X127287000Y-125039600D02*
X128976600Y-125039600D01*
X137835000Y-73268200D02*
X137820400Y-73253600D01*
X144009300Y-67064700D02*
X143714300Y-67359700D01*
X150895376Y-110917074D02*
X150653424Y-110917074D01*
X179942300Y-58750200D02*
X180898800Y-58750200D01*
X150287450Y-112428650D02*
X150798774Y-111917326D01*
X165448926Y-99881500D02*
X165451675Y-99884249D01*
X138293251Y-96094601D02*
X138293251Y-95205600D01*
X142605000Y-70292000D02*
X141633000Y-70292000D01*
X137831500Y-53390800D02*
X137831500Y-54468700D01*
X137831500Y-54468700D02*
X138427200Y-55064400D01*
X146015900Y-98552000D02*
X146015900Y-97984500D01*
D72*
X163830000Y-124715800D02*
X165085150Y-124715800D01*
D70*
X137625002Y-90125000D02*
X135825000Y-91925000D01*
X127287000Y-126289600D02*
X128931200Y-126289600D01*
X167843200Y-85225700D02*
X167843200Y-86182200D01*
X141633000Y-70292000D02*
X141625000Y-70300000D01*
X133233200Y-77530050D02*
X133233200Y-76277550D01*
X131765001Y-80247849D02*
X131765001Y-81137799D01*
X169011600Y-69977000D02*
X169011600Y-70332600D01*
X142028100Y-83862100D02*
X141097000Y-83862100D01*
X129946400Y-84138100D02*
X130923700Y-84138100D01*
X162540100Y-67139900D02*
X162540100Y-68396700D01*
X138427200Y-55880000D02*
X139446000Y-55880000D01*
X145217500Y-102050000D02*
X145217500Y-103045000D01*
X138427200Y-61036200D02*
X139395200Y-61036200D01*
X154228800Y-73736200D02*
X153758050Y-74206950D01*
X138733550Y-80975200D02*
X137795000Y-80975200D01*
X153234901Y-111917326D02*
X153972026Y-111917326D01*
X155674950Y-71170250D02*
X155674950Y-70104550D01*
X139776200Y-63804800D02*
X139827000Y-63754000D01*
X125897600Y-85130600D02*
X125882400Y-85115400D01*
X158318200Y-98653600D02*
X158318200Y-99169600D01*
X176956000Y-77388000D02*
X176403000Y-76835000D01*
X138427200Y-60398400D02*
X138427200Y-61036200D01*
X134835300Y-81090100D02*
X134823200Y-81102200D01*
D72*
X163830000Y-124715800D02*
X162434800Y-124715800D01*
D70*
X150452200Y-104513000D02*
X149707600Y-105257600D01*
X141224000Y-65227200D02*
X141173200Y-65278000D01*
X158758050Y-74413950D02*
X158758050Y-75265700D01*
X158758050Y-96590700D02*
X158758050Y-98213750D01*
X136469200Y-69384500D02*
X136560600Y-69293100D01*
X143714300Y-67949700D02*
X142600300Y-67949700D01*
X148673800Y-105341800D02*
X149623400Y-105341800D01*
X145217500Y-102050000D02*
X146075000Y-102050000D01*
X144009300Y-66686200D02*
X143041600Y-66686200D01*
D72*
X164437400Y-119405400D02*
X165582600Y-119405400D01*
D70*
X159029400Y-73710800D02*
X159943800Y-73710800D01*
X134835300Y-80133550D02*
X134835300Y-81090100D01*
X152817600Y-66686200D02*
X152806400Y-66675000D01*
X153398600Y-99152625D02*
X153398600Y-100041075D01*
X174816300Y-52489900D02*
X174879000Y-52552600D01*
X152650063Y-112252101D02*
X152650063Y-112801363D01*
X168621400Y-89678200D02*
X168994900Y-90051700D01*
X172740100Y-68142900D02*
X172740100Y-68269900D01*
X138733550Y-79857600D02*
X137744200Y-79857600D01*
X151565099Y-110917074D02*
X150895376Y-110917074D01*
X168581050Y-75971400D02*
X168581050Y-75106550D01*
X130923700Y-84138100D02*
X130937000Y-84124800D01*
X138743800Y-73268200D02*
X137835000Y-73268200D01*
X143714300Y-67359700D02*
X143714300Y-67949700D01*
X136538500Y-93391200D02*
X135561850Y-93391200D01*
X128976600Y-125039600D02*
X129032000Y-125095000D01*
X150799800Y-59270300D02*
X150799800Y-58293000D01*
X166624600Y-109194600D02*
X166700800Y-109270800D01*
X137687900Y-109246200D02*
X139167400Y-109246200D01*
X142844200Y-84678200D02*
X142028100Y-83862100D01*
X155985400Y-112717400D02*
X155926800Y-112776000D01*
X129921000Y-87287700D02*
X130847500Y-87287700D01*
X155674950Y-71170250D02*
X155674950Y-71780950D01*
D72*
X166229950Y-125335950D02*
X166243000Y-125349000D01*
D70*
X141632500Y-90782500D02*
X141600000Y-90750000D01*
X146540200Y-105173800D02*
X146253200Y-105460800D01*
X153398600Y-98518600D02*
X153398600Y-99152625D01*
D72*
X162434800Y-124715800D02*
X161913600Y-124194600D01*
D70*
X155092400Y-73736200D02*
X154228800Y-73736200D01*
X153398600Y-100041075D02*
X153372650Y-100067025D01*
X155490250Y-72668850D02*
X155490250Y-73338350D01*
X138293251Y-96094601D02*
X137852200Y-96094600D01*
X127251700Y-78831400D02*
X125973800Y-78831400D01*
X146015900Y-97984500D02*
X145669000Y-97637600D01*
X137852200Y-96094600D02*
X137382200Y-95624600D01*
X155490250Y-73338350D02*
X155092400Y-73736200D01*
X149860000Y-69939500D02*
X149860000Y-70916800D01*
X144845550Y-84678200D02*
X142844200Y-84678200D01*
X168581050Y-76757550D02*
X168581050Y-75971400D01*
X153746200Y-66686200D02*
X152817600Y-66686200D01*
X150653424Y-110917074D02*
X150614974Y-110917074D01*
X134340600Y-73279000D02*
X134289800Y-73228200D01*
X136469200Y-70660500D02*
X136469200Y-69384500D01*
D72*
X165837400Y-117373400D02*
X167132000Y-117373400D01*
D70*
X159029400Y-74142600D02*
X158758050Y-74413950D01*
X144009300Y-66686200D02*
X144009300Y-67064700D01*
X139695000Y-69384500D02*
X139761000Y-69318500D01*
X158250000Y-100068000D02*
X158165800Y-100152200D01*
X128250000Y-131800000D02*
X128275000Y-131825000D01*
X148700300Y-103996300D02*
X148691600Y-103987600D01*
X168581050Y-75106550D02*
X168605200Y-75082400D01*
X137795000Y-80975200D02*
X137769600Y-81000600D01*
X166116000Y-95952700D02*
X166090600Y-95927300D01*
X176530000Y-75908500D02*
X176530000Y-76708000D01*
X137831500Y-59802700D02*
X138427200Y-60398400D01*
X171932600Y-82118200D02*
X172847000Y-82118200D01*
D71*
X177681000Y-131800000D02*
X176750000Y-131800000D01*
D70*
X127251700Y-81981000D02*
X125948400Y-81981000D01*
X153972026Y-111917326D02*
X154186850Y-112132150D01*
X158250000Y-99237800D02*
X158250000Y-100068000D01*
X140165900Y-83862100D02*
X140157200Y-83870800D01*
X139651800Y-95526800D02*
X139084000Y-96094600D01*
X169011600Y-69291200D02*
X169011600Y-69977000D01*
X139395200Y-61036200D02*
X139420600Y-61010800D01*
X150317200Y-104089200D02*
X149698900Y-104089200D01*
X175006000Y-76835000D02*
X174675800Y-77165200D01*
X147258050Y-97343950D02*
X146050000Y-98552000D01*
X153758050Y-74206950D02*
X153758050Y-75265700D01*
X169590100Y-68712700D02*
X169011600Y-69291200D01*
X152445400Y-58135200D02*
X152450800Y-58140600D01*
X149606000Y-103996300D02*
X148700300Y-103996300D01*
D72*
X166229950Y-124230300D02*
X166229950Y-125335950D01*
D70*
X165582600Y-119405400D02*
X165633400Y-119456200D01*
X174675800Y-77165200D02*
X174675800Y-78638400D01*
X146050000Y-98552000D02*
X146015900Y-98552000D01*
X154186850Y-112132150D02*
X154305000Y-112250300D01*
X172740100Y-68269900D02*
X173304200Y-68834000D01*
X142600300Y-67949700D02*
X142570200Y-67919600D01*
X169732050Y-75937300D02*
X169732050Y-75015450D01*
X129946400Y-81889600D02*
X129921000Y-81915000D01*
X125948400Y-81981000D02*
X125882400Y-81915000D01*
X169306600Y-71247000D02*
X170434000Y-71247000D01*
X167843200Y-85115400D02*
X167843200Y-85225700D01*
X158318200Y-99169600D02*
X158250000Y-99237800D01*
X176530000Y-76708000D02*
X176403000Y-76835000D01*
X141097000Y-83862100D02*
X140165900Y-83862100D01*
X150895376Y-110917074D02*
X150841974Y-110917074D01*
X153746200Y-66686200D02*
X153746200Y-66979800D01*
X155674950Y-71780950D02*
X155447450Y-72008450D01*
X143041600Y-66686200D02*
X143027400Y-66700400D01*
D72*
X165085150Y-124715800D02*
X165570650Y-124230300D01*
D70*
X153486900Y-106014300D02*
X154228800Y-106756200D01*
X166170550Y-77678200D02*
X167660400Y-77678200D01*
X170518900Y-90051700D02*
X170561000Y-90093800D01*
X147327600Y-105173800D02*
X146540200Y-105173800D01*
X139167400Y-109246200D02*
X139217400Y-109296200D01*
X153670000Y-66610000D02*
X153746200Y-66686200D01*
X142393400Y-97181400D02*
X142367000Y-97155000D01*
X152328500Y-67949700D02*
X152323800Y-67945000D01*
X136459000Y-77530050D02*
X136459000Y-76328350D01*
X139651800Y-93323200D02*
X139651800Y-95526800D01*
X142240000Y-76073000D02*
X142113000Y-75946000D01*
X169011600Y-70332600D02*
X169306600Y-70627600D01*
X141732500Y-89550000D02*
X140825000Y-89550000D01*
X144145000Y-73787000D02*
X144145000Y-74481500D01*
X145217500Y-103045000D02*
X145272500Y-103100000D01*
X155985400Y-111730700D02*
X156434800Y-111730700D01*
X166170550Y-89678200D02*
X168621400Y-89678200D01*
D72*
X165570650Y-124230300D02*
X166229950Y-124230300D01*
D70*
X166116000Y-96866900D02*
X166116000Y-95952700D01*
X169926000Y-69977000D02*
X169951400Y-70002400D01*
X154305000Y-112250300D02*
X154305000Y-113157000D01*
X130784600Y-73279000D02*
X130759200Y-73253600D01*
X163748000Y-109194600D02*
X166624600Y-109194600D01*
X139695000Y-70660500D02*
X139695000Y-69384500D01*
X127322200Y-58674000D02*
X128295400Y-58674000D01*
X167843200Y-85225700D02*
X168309100Y-85225700D01*
X150287450Y-112646950D02*
X150287450Y-113203450D01*
X169590100Y-67139900D02*
X169590100Y-68712700D01*
X166170550Y-84178200D02*
X166906000Y-84178200D01*
X151565099Y-111917326D02*
X150798774Y-111917326D01*
X150393400Y-104013000D02*
X150317200Y-104089200D01*
X172740100Y-67139900D02*
X172740100Y-68142900D01*
X155447450Y-72008450D02*
X155447450Y-72626050D01*
X153746200Y-66979800D02*
X153469000Y-67257000D01*
X153758050Y-96590700D02*
X153758050Y-98159150D01*
X142575000Y-90782500D02*
X141632500Y-90782500D01*
X153486900Y-105178000D02*
X153486900Y-106014300D01*
X133243400Y-70660500D02*
X133243400Y-69359100D01*
X138293251Y-95205600D02*
X138217051Y-95129400D01*
X143941800Y-66618700D02*
X144009300Y-66686200D01*
X178096800Y-77388000D02*
X176956000Y-77388000D01*
X143941800Y-64857400D02*
X143941800Y-66618700D01*
X154974100Y-108508800D02*
X155879800Y-108508800D01*
X155490250Y-72668850D02*
X156438050Y-72668850D01*
X166906000Y-84178200D02*
X167843200Y-85115400D01*
X174675800Y-78638400D02*
X175046600Y-79009200D01*
X143154400Y-92633800D02*
X140341200Y-92633800D01*
X141224000Y-64300700D02*
X141224000Y-65227200D01*
X169011600Y-69977000D02*
X169926000Y-69977000D01*
X164566600Y-99881500D02*
X165448926Y-99881500D01*
X148351600Y-105341800D02*
X148140399Y-105130600D01*
X128931200Y-126289600D02*
X129006600Y-126365000D01*
X137619400Y-121204200D02*
X139339800Y-121204200D01*
X149623400Y-105341800D02*
X149707600Y-105257600D01*
X160190100Y-52039900D02*
X158780100Y-52039900D01*
X142691800Y-56589200D02*
X142691800Y-58095200D01*
X180898800Y-58750200D02*
X180924200Y-58775600D01*
X139339800Y-121204200D02*
X139344400Y-121208800D01*
X152445400Y-56589200D02*
X152445400Y-58135200D01*
X176403000Y-76835000D02*
X175006000Y-76835000D01*
X154597200Y-111417200D02*
X154910700Y-111730700D01*
X135825000Y-91925000D02*
X135504050Y-91925000D01*
X137843000Y-63804800D02*
X139776200Y-63804800D01*
X153670000Y-64857400D02*
X153670000Y-66610000D01*
X155985400Y-111730700D02*
X155985400Y-112717400D01*
X158780100Y-52039900D02*
X158775400Y-52044600D01*
X138427200Y-55064400D02*
X138427200Y-55880000D01*
X137382200Y-95624600D02*
X136709200Y-95624600D01*
X149698900Y-104089200D02*
X149606000Y-103996300D01*
X131765001Y-81137799D02*
X131749800Y-81153000D01*
X140825000Y-89550000D02*
X140750000Y-89625000D01*
X153234901Y-111417200D02*
X154597200Y-111417200D01*
X146075000Y-102050000D02*
X146175000Y-101950000D01*
X127251700Y-85130600D02*
X125897600Y-85130600D01*
X156942800Y-112238700D02*
X157636400Y-112238700D01*
X158758050Y-98213750D02*
X158318200Y-98653600D01*
X159029400Y-73710800D02*
X159029400Y-74142600D01*
X155879800Y-108508800D02*
X155930600Y-108458000D01*
X168673600Y-85590200D02*
X169519600Y-85590200D01*
X133243400Y-69359100D02*
X133309400Y-69293100D01*
X140341200Y-92633800D02*
X139651800Y-93323200D01*
X168309100Y-85225700D02*
X168673600Y-85590200D01*
X131696850Y-73279000D02*
X130784600Y-73279000D01*
X148140399Y-105130600D02*
X147370800Y-105130600D01*
X153469000Y-67257000D02*
X153469000Y-67949700D01*
X175046600Y-79009200D02*
X175768000Y-79009200D01*
G04 #@! TO.N,3V3*
X166116000Y-98001900D02*
X166116000Y-98628200D01*
X143057500Y-91917500D02*
X143296800Y-91678200D01*
X157894400Y-73710800D02*
X157894400Y-74023600D01*
X144845550Y-91678200D02*
X143296800Y-91678200D01*
X167142600Y-83678200D02*
X167555100Y-84090700D01*
X141097000Y-84997100D02*
X140140500Y-84997100D01*
X154258050Y-96590700D02*
X154258050Y-98047850D01*
X150257700Y-102861300D02*
X150909400Y-103513000D01*
X175412400Y-60883800D02*
X175564800Y-61036200D01*
X148673800Y-106476800D02*
X149428200Y-106476800D01*
X124028200Y-67614800D02*
X124002800Y-67589400D01*
X145144300Y-66686200D02*
X146086600Y-66686200D01*
X154355250Y-72974750D02*
X153258050Y-74071950D01*
X168156700Y-84090700D02*
X168732200Y-83515200D01*
X167876600Y-70324600D02*
X167581600Y-70619600D01*
X172720000Y-70674900D02*
X172745400Y-70649500D01*
X146758050Y-74114050D02*
X146758050Y-75265700D01*
X164730250Y-121894600D02*
X164859050Y-121765800D01*
X159258050Y-98653650D02*
X159385000Y-98780600D01*
X153234901Y-110917074D02*
X154512926Y-110917074D01*
X156467800Y-110595700D02*
X156899800Y-110163700D01*
X144845550Y-93178200D02*
X140896800Y-93178200D01*
X159258050Y-96590700D02*
X159258050Y-98653650D01*
X167581600Y-71247000D02*
X166420800Y-71247000D01*
X154940000Y-64857400D02*
X154940000Y-66627400D01*
X168682600Y-89178200D02*
X168944100Y-88916700D01*
X138293250Y-97229600D02*
X138293250Y-98304400D01*
X154355250Y-72160850D02*
X154355250Y-72668850D01*
X142575000Y-91917500D02*
X143057500Y-91917500D01*
X153839100Y-108508800D02*
X153839100Y-108927800D01*
X167876600Y-69197600D02*
X167876600Y-69977000D01*
X156899800Y-110163700D02*
X157636400Y-110163700D01*
X154258050Y-98047850D02*
X154533600Y-98323400D01*
X158258050Y-74387250D02*
X158258050Y-75265700D01*
X167876600Y-69977000D02*
X167876600Y-70324600D01*
X151986900Y-106026300D02*
X151986900Y-105178000D01*
X151346500Y-107860500D02*
X151511000Y-107696000D01*
X124053600Y-62992000D02*
X124028200Y-62966600D01*
X155985400Y-109655700D02*
X156010800Y-109630300D01*
X154512926Y-110917074D02*
X154834300Y-110595700D01*
X143838600Y-79678200D02*
X144845550Y-79678200D01*
X148996400Y-113080800D02*
X148971000Y-113106200D01*
X125162200Y-62992000D02*
X124053600Y-62992000D01*
X167594050Y-105054400D02*
X166616750Y-105054400D01*
X166575200Y-110694600D02*
X166650000Y-110769400D01*
X162648300Y-70268500D02*
X162560000Y-70180200D01*
X152650063Y-110116837D02*
X152650063Y-110582299D01*
X145280000Y-73787000D02*
X146431000Y-73787000D01*
X135813800Y-61036200D02*
X135839200Y-61061600D01*
X149733000Y-106781600D02*
X151231600Y-106781600D01*
X167843200Y-84090700D02*
X167843200Y-83185000D01*
X153949950Y-71170250D02*
X153949950Y-70051550D01*
X155985400Y-110595700D02*
X155985400Y-109655700D01*
X147701000Y-98552000D02*
X148005800Y-98247200D01*
X142605000Y-71307999D02*
X141632999Y-71307999D01*
X149860000Y-66216600D02*
X149860000Y-65354200D01*
X150909400Y-103513000D02*
X151821900Y-103513000D01*
D72*
X159590400Y-121765800D02*
X159461600Y-121894600D01*
D70*
X170117100Y-73653950D02*
X170117100Y-72808500D01*
D72*
X163830000Y-121765800D02*
X164805750Y-121765800D01*
D70*
X154834300Y-110595700D02*
X155985400Y-110595700D01*
D72*
X163830000Y-121765800D02*
X159590400Y-121765800D01*
D70*
X167446050Y-75971400D02*
X167446050Y-75073150D01*
X159385000Y-99237800D02*
X159385000Y-100203000D01*
X147758050Y-97478950D02*
X147150900Y-98086100D01*
X166170550Y-83678200D02*
X167142600Y-83678200D01*
X142575000Y-91917500D02*
X141632500Y-91917500D01*
X153839100Y-107992100D02*
X153543000Y-107696000D01*
X125162200Y-69951600D02*
X124028200Y-69951600D01*
X148996400Y-112154300D02*
X148996400Y-113080800D01*
X148700300Y-102861300D02*
X148691600Y-102870000D01*
X142121000Y-77208000D02*
X142113000Y-77216000D01*
X155194000Y-67310000D02*
X155194000Y-67949700D01*
X167843200Y-83185000D02*
X167868600Y-83159600D01*
X165032500Y-98001900D02*
X164258050Y-97227450D01*
X145439300Y-67949700D02*
X146578700Y-67949700D01*
X138293251Y-97229600D02*
X138038000Y-97229600D01*
X145144300Y-66686200D02*
X145144300Y-67064700D01*
X154940000Y-66627400D02*
X154881200Y-66686200D01*
X152149937Y-112252101D02*
X152149937Y-112852163D01*
X140360400Y-95808800D02*
X138939600Y-97229600D01*
X157894400Y-73710800D02*
X156921200Y-73710800D01*
X153949950Y-71170250D02*
X153949950Y-71755550D01*
X163499800Y-70268500D02*
X162648300Y-70268500D01*
X154881200Y-66686200D02*
X155792400Y-66686200D01*
X153839100Y-108927800D02*
X153102500Y-109664400D01*
X159385000Y-98780600D02*
X159385000Y-99237800D01*
X146578700Y-67949700D02*
X146583400Y-67945000D01*
X153102500Y-109664400D02*
X152650063Y-110116837D01*
X146086600Y-66686200D02*
X146100800Y-66700400D01*
X163748000Y-110694600D02*
X166575200Y-110694600D01*
X166116000Y-98628200D02*
X165760400Y-98983800D01*
X153949950Y-71755550D02*
X154355250Y-72160850D01*
X164258050Y-97227450D02*
X164258050Y-96590700D01*
X167555100Y-84090700D02*
X167843200Y-84090700D01*
X149428200Y-106476800D02*
X149733000Y-106781600D01*
X151231600Y-106781600D02*
X151986900Y-106026300D01*
X148165800Y-106476800D02*
X148673800Y-106476800D01*
X175412400Y-59322300D02*
X175412400Y-60883800D01*
X167446050Y-75073150D02*
X167487600Y-75031600D01*
X125162200Y-67614800D02*
X124028200Y-67614800D01*
X125162200Y-72224300D02*
X124079000Y-72224300D01*
X149606000Y-102861300D02*
X148700300Y-102861300D01*
X156316300Y-67949700D02*
X156337000Y-67970400D01*
X174955200Y-70928900D02*
X174955200Y-69850000D01*
X174955200Y-69850000D02*
X174980600Y-69824600D01*
X170526900Y-88916700D02*
X170535600Y-88925400D01*
X167446050Y-76749550D02*
X167017400Y-77178200D01*
X156921200Y-73710800D02*
X156895800Y-73685400D01*
X154881200Y-66997200D02*
X155194000Y-67310000D01*
X138939600Y-97229600D02*
X138293251Y-97229600D01*
X159105600Y-71196200D02*
X159080200Y-71170800D01*
X140140500Y-84997100D02*
X140131800Y-84988400D01*
X142506000Y-85178200D02*
X144845550Y-85178200D01*
D72*
X166229950Y-122505300D02*
X166229950Y-121412000D01*
D70*
X124028200Y-65303400D02*
X124002800Y-65278000D01*
X154533600Y-100034175D02*
X154541050Y-100041625D01*
X167446050Y-75971400D02*
X167446050Y-76749550D01*
X141097000Y-84997100D02*
X142324900Y-84997100D01*
X167390100Y-67139900D02*
X167390100Y-68711100D01*
X155792400Y-66686200D02*
X155829000Y-66649600D01*
X154881200Y-66686200D02*
X154881200Y-66997200D01*
X146431000Y-73787000D02*
X146758050Y-74114050D01*
X166116000Y-98001900D02*
X165032500Y-98001900D01*
X167017400Y-77178200D02*
X166170550Y-77178200D01*
X166954200Y-69977000D02*
X166928800Y-69951600D01*
X134760300Y-61036200D02*
X135813800Y-61036200D01*
X154533600Y-99152625D02*
X154533600Y-100034175D01*
X150622000Y-107860500D02*
X151346500Y-107860500D01*
X145280000Y-73787000D02*
X145280000Y-74608500D01*
X152149937Y-112852163D02*
X151790400Y-113211700D01*
X125162200Y-76809600D02*
X123977400Y-76809600D01*
X155985400Y-110595700D02*
X156467800Y-110595700D01*
X145211800Y-64857400D02*
X145211800Y-66618700D01*
X170117100Y-72808500D02*
X170281600Y-72644000D01*
X143002000Y-77208000D02*
X143002000Y-78841600D01*
X134722800Y-55880000D02*
X135712200Y-55880000D01*
X145439300Y-67359700D02*
X145439300Y-67949700D01*
X167390100Y-68711100D02*
X167876600Y-69197600D01*
X168732200Y-83515200D02*
X169519600Y-83515200D01*
X172720000Y-71626800D02*
X172720000Y-70674900D01*
X166170550Y-89178200D02*
X168682600Y-89178200D01*
X143002000Y-77208000D02*
X142121000Y-77208000D01*
X155194000Y-67949700D02*
X156316300Y-67949700D01*
X125162200Y-65303400D02*
X124028200Y-65303400D01*
X140360400Y-93714600D02*
X140360400Y-95808800D01*
X167588000Y-106172000D02*
X166661500Y-106172000D01*
X125162200Y-60680600D02*
X124002800Y-60680600D01*
X141632500Y-91917500D02*
X141625000Y-91925000D01*
X137568000Y-97699600D02*
X136709200Y-97699600D01*
X167843200Y-84090700D02*
X168156700Y-84090700D01*
X153258050Y-74071950D02*
X153258050Y-75265700D01*
D72*
X165519650Y-122505300D02*
X166204350Y-122505300D01*
D70*
X141632999Y-71307999D02*
X141625000Y-71300000D01*
X167581600Y-70619600D02*
X167581600Y-71247000D01*
X147150900Y-98086100D02*
X147150900Y-98552000D01*
X169630450Y-88916700D02*
X170526900Y-88916700D01*
X140896800Y-93178200D02*
X140360400Y-93714600D01*
X145144300Y-67064700D02*
X145439300Y-67359700D01*
X125162200Y-74523600D02*
X123977400Y-74523600D01*
X153839100Y-108508800D02*
X153839100Y-107992100D01*
X167876600Y-69977000D02*
X166954200Y-69977000D01*
X146116400Y-106898800D02*
X146100800Y-106883200D01*
X168944100Y-88916700D02*
X169630450Y-88916700D01*
X149606000Y-102861300D02*
X150257700Y-102861300D01*
D72*
X164805750Y-121765800D02*
X165545250Y-122505300D01*
D70*
X147743800Y-106898800D02*
X148165800Y-106476800D01*
X149860000Y-65354200D02*
X149961600Y-65252600D01*
X138038000Y-97229600D02*
X137568000Y-97699600D01*
X157894400Y-74023600D02*
X158258050Y-74387250D01*
X142324900Y-84997100D02*
X142506000Y-85178200D01*
X145211800Y-66618700D02*
X145144300Y-66686200D01*
X134836500Y-66268600D02*
X135813800Y-66268600D01*
X154355250Y-72668850D02*
X153440850Y-72668850D01*
X159981300Y-71196200D02*
X159105600Y-71196200D01*
X147150900Y-98552000D02*
X147701000Y-98552000D01*
X147758050Y-96590700D02*
X147758050Y-97478950D01*
X166661500Y-106172000D02*
X166636100Y-106146600D01*
X154533600Y-98323400D02*
X154533600Y-99152625D01*
X147327600Y-106898800D02*
X146116400Y-106898800D01*
X154355250Y-72668850D02*
X154355250Y-72974750D01*
X143002000Y-78841600D02*
X143838600Y-79678200D01*
D72*
G04 #@! TO.N,5V*
X140055600Y-113258600D02*
X139522200Y-113258600D01*
X173888400Y-115620800D02*
X173888400Y-125857000D01*
X173888400Y-128752600D02*
X174472600Y-129336800D01*
X141478000Y-114477800D02*
X140843000Y-115112800D01*
X140843000Y-116560600D02*
X139949400Y-117454200D01*
X131114800Y-114274600D02*
X132130800Y-113258600D01*
X137687900Y-102996200D02*
X139978600Y-102996200D01*
X174904400Y-85191400D02*
X174904400Y-86334600D01*
X140792200Y-112522000D02*
X140055600Y-113258600D01*
X174828200Y-108889800D02*
X173888400Y-109829600D01*
X130439400Y-100289600D02*
X129159000Y-100289600D01*
X162712400Y-117373400D02*
X162712400Y-115341400D01*
X131114800Y-115722600D02*
X131114800Y-114274600D01*
X140843000Y-115112800D02*
X140843000Y-116560600D01*
X175706000Y-108767800D02*
X178246000Y-108767800D01*
X174904400Y-86334600D02*
X174282100Y-86956900D01*
X173837600Y-87401400D02*
X173837600Y-107899200D01*
X175457000Y-129336800D02*
X175706000Y-129087800D01*
X159650800Y-119405400D02*
X159461600Y-119594600D01*
X161848800Y-114477800D02*
X162712400Y-115341400D01*
X130987800Y-98221800D02*
X130987800Y-99822000D01*
X163372800Y-114681000D02*
X172897800Y-114681000D01*
X173888400Y-125857000D02*
X174579200Y-126547800D01*
X174579200Y-126547800D02*
X174416800Y-126547800D01*
X174579200Y-126547800D02*
X175706000Y-126547800D01*
X131114800Y-100965000D02*
X131114800Y-112242600D01*
X130515600Y-97749600D02*
X130987800Y-98221800D01*
X175996600Y-86334600D02*
X176423400Y-85907800D01*
X140792200Y-103809800D02*
X140792200Y-112522000D01*
X139949400Y-117454200D02*
X137619400Y-117454200D01*
X174904400Y-86334600D02*
X175996600Y-86334600D01*
X172897800Y-114681000D02*
X173888400Y-113690400D01*
X140055600Y-113258600D02*
X141274800Y-114477800D01*
X129159000Y-97749600D02*
X130515600Y-97749600D01*
X162712400Y-117373400D02*
X162712400Y-119405400D01*
X139978600Y-102996200D02*
X140792200Y-103809800D01*
X141274800Y-114477800D02*
X141478000Y-114477800D01*
X139522200Y-113258600D02*
X132130800Y-113258600D01*
X141478000Y-114477800D02*
X161848800Y-114477800D01*
X162712400Y-119405400D02*
X159650800Y-119405400D01*
X173837600Y-107899200D02*
X174828200Y-108889800D01*
X132130800Y-113258600D02*
X131114800Y-112242600D01*
X174472600Y-129336800D02*
X175457000Y-129336800D01*
X173888400Y-127076200D02*
X173888400Y-128752600D01*
X174416800Y-126547800D02*
X173888400Y-127076200D01*
X130479800Y-100330000D02*
X130439400Y-100289600D01*
X130439400Y-100289600D02*
X131114800Y-100965000D01*
X130987800Y-99822000D02*
X130479800Y-100330000D01*
X174828200Y-108889800D02*
X175584000Y-108889800D01*
X172897800Y-114681000D02*
X172948600Y-114681000D01*
X174282100Y-86956900D02*
X173837600Y-87401400D01*
X176423400Y-85907800D02*
X178246000Y-85907800D01*
X162712400Y-115341400D02*
X163372800Y-114681000D01*
X173888400Y-109829600D02*
X173888400Y-113690400D01*
X172948600Y-114681000D02*
X173888400Y-115620800D01*
X175584000Y-108889800D02*
X175706000Y-108767800D01*
D70*
G04 #@! TO.N,/Conexiones_extra/SPI_SCK*
X132054600Y-88696800D02*
X132054600Y-92100400D01*
X144845550Y-86178200D02*
X134573200Y-86178200D01*
X131485400Y-92669600D02*
X129159000Y-92669600D01*
X134573200Y-86178200D02*
X132054600Y-88696800D01*
X132054600Y-92100400D02*
X131485400Y-92669600D01*
G04 #@! TO.N,/Conexiones_extra/SPI_MOSI*
X133197600Y-88976200D02*
X133197600Y-95224600D01*
X127899400Y-96469200D02*
X126619000Y-97749600D01*
X144845550Y-87178200D02*
X134995600Y-87178200D01*
X133197600Y-95224600D02*
X131953000Y-96469200D01*
X134995600Y-87178200D02*
X133197600Y-88976200D01*
X131953000Y-96469200D02*
X130225800Y-96469200D01*
X130225800Y-96469200D02*
X127899400Y-96469200D01*
G04 #@! TO.N,/Conexiones_extra/SPI_CS*
X131495800Y-88595200D02*
X131495800Y-90474800D01*
X134412800Y-85678200D02*
X131495800Y-88595200D01*
X131495800Y-90474800D02*
X130606800Y-91363800D01*
X130606800Y-91363800D02*
X127924800Y-91363800D01*
X127924800Y-91363800D02*
X126619000Y-92669600D01*
X144845550Y-85678200D02*
X134412800Y-85678200D01*
G04 #@! TO.N,/Conexiones_extra/SPI_MISO*
X134835200Y-86678200D02*
X132664200Y-88849200D01*
X131572000Y-93929200D02*
X127899400Y-93929200D01*
X132664200Y-88849200D02*
X132664200Y-92837000D01*
X127899400Y-93929200D02*
X126619000Y-95209600D01*
X132664200Y-92837000D02*
X131572000Y-93929200D01*
X144845550Y-86678200D02*
X134835200Y-86678200D01*
G04 #@! TO.N,/Conexiones_extra/SPI_EOC*
X126619000Y-90129600D02*
X128128000Y-88620600D01*
X130784600Y-88620600D02*
X136347200Y-83058000D01*
X142494000Y-83058000D02*
X143614200Y-84178200D01*
X143614200Y-84178200D02*
X144845550Y-84178200D01*
X128128000Y-88620600D02*
X130784600Y-88620600D01*
X136347200Y-83058000D02*
X142494000Y-83058000D01*
G04 #@! TO.N,Net-(C9-Pad1)*
X144475000Y-109375000D02*
X145175000Y-110075000D01*
X143475000Y-108375000D02*
X144475000Y-109375000D01*
X143475000Y-104850000D02*
X143475000Y-108375000D01*
X144077500Y-102045000D02*
X144082500Y-102050000D01*
X145175000Y-110075000D02*
X145175000Y-110850000D01*
X144077500Y-100975000D02*
X144077500Y-102045000D01*
X144082500Y-102050000D02*
X144082500Y-103095000D01*
X144077500Y-104247500D02*
X143475000Y-104850000D01*
X144077500Y-103100000D02*
X144077500Y-104247500D01*
X127287000Y-122539600D02*
X130286600Y-122539600D01*
X130286600Y-122539600D02*
X130302000Y-122555000D01*
X144082500Y-103095000D02*
X144077500Y-103100000D01*
G04 #@! TO.N,Net-(C10-Pad1)*
X142393400Y-99300000D02*
X141356599Y-99300000D01*
X130292000Y-123789600D02*
X130302000Y-123799600D01*
X127287000Y-123789600D02*
X130292000Y-123789600D01*
X141833600Y-111353600D02*
X141833600Y-113441400D01*
X140234399Y-101626399D02*
X141254000Y-102646000D01*
X140234399Y-99330000D02*
X140234399Y-101626399D01*
X141833600Y-103225600D02*
X141833600Y-111353600D01*
X141833600Y-113441400D02*
X141825000Y-113450000D01*
X140234399Y-99330000D02*
X141326599Y-99330000D01*
X141254000Y-102646000D02*
X141833600Y-103225600D01*
G04 #@! TO.N,Net-(C29-Pad1)*
X137673500Y-91973499D02*
X137625000Y-91925000D01*
X137673500Y-93391200D02*
X137673500Y-91973499D01*
X137625000Y-91925000D02*
X138847602Y-91925000D01*
X139326802Y-91445800D02*
X139326802Y-91027300D01*
X138847602Y-91925000D02*
X139326802Y-91445800D01*
G04 #@! TO.N,/Sensores/GNSS_Tx*
X141846800Y-93678200D02*
X141350000Y-94175000D01*
X142821800Y-93678200D02*
X144845550Y-93678200D01*
X137768700Y-104165400D02*
X137687900Y-104246200D01*
X139446000Y-104165400D02*
X137768700Y-104165400D01*
X142821800Y-93678200D02*
X141846800Y-93678200D01*
G04 #@! TO.N,/Sensores/GNSS_Rx*
X139334400Y-105496200D02*
X139446000Y-105384600D01*
X141975000Y-94725000D02*
X141337000Y-95363000D01*
X141975000Y-94725000D02*
X142521800Y-94178200D01*
X142521800Y-94178200D02*
X144845550Y-94178200D01*
X137687900Y-105496200D02*
X139334400Y-105496200D01*
G04 #@! TO.N,/MCU/VCAP_1*
X163855400Y-98501200D02*
X163855400Y-98120200D01*
X163758050Y-98022850D02*
X163758050Y-96590700D01*
X164100700Y-98746500D02*
X163855400Y-98501200D01*
X164566600Y-98746500D02*
X164100700Y-98746500D01*
X163855400Y-98120200D02*
X163758050Y-98022850D01*
G04 #@! TO.N,/MCU/VCAP_2*
X169732050Y-77072300D02*
X169079100Y-77072300D01*
X167973200Y-78178200D02*
X166170550Y-78178200D01*
X169079100Y-77072300D02*
X167973200Y-78178200D01*
G04 #@! TO.N,/Conexiones_extra/I2CA_SCL*
X162758050Y-96590700D02*
X162758050Y-98171500D01*
X162758050Y-98171500D02*
X162606150Y-98323400D01*
X168783000Y-107086400D02*
X168808400Y-107111800D01*
X168783000Y-106172000D02*
X168783000Y-107086400D01*
G04 #@! TO.N,/Interfaz_CAN/CAN1+*
X143941800Y-56589200D02*
X143941800Y-59907400D01*
G04 #@! TO.N,/MCU/BOOT0*
X149758050Y-72643650D02*
X149758050Y-75265700D01*
X148539199Y-71424799D02*
X149758050Y-72643650D01*
X149860000Y-68744500D02*
X148882698Y-68744500D01*
X149860000Y-67411600D02*
X149860000Y-68744500D01*
X148539199Y-69087999D02*
X148539199Y-71424799D01*
X148882698Y-68744500D02*
X148539199Y-69087999D01*
G04 #@! TO.N,/MCU/PDR_ON*
X143800000Y-71307999D02*
X143800000Y-71918000D01*
X146404800Y-73075000D02*
X147248800Y-73919000D01*
X143800000Y-71918000D02*
X144957000Y-73075000D01*
X144957000Y-73075000D02*
X146404800Y-73075000D01*
X147248800Y-73919000D02*
X147248800Y-75274400D01*
X143800000Y-70292000D02*
X143800000Y-71307999D01*
G04 #@! TO.N,/Interfaz_CAN/CAN1-*
X145191800Y-56589200D02*
X145191800Y-59887400D01*
X145191800Y-59887400D02*
X145211800Y-59907400D01*
G04 #@! TO.N,/Sensores/GNSS_SDA*
X151565099Y-111417200D02*
X150279000Y-111417200D01*
X149567300Y-110959300D02*
X150025200Y-111417200D01*
X148336000Y-109347000D02*
X148996400Y-110007400D01*
X155758050Y-96590700D02*
X155758050Y-97693650D01*
X148996400Y-110007400D02*
X148996400Y-110959300D01*
X148996400Y-110959300D02*
X149567300Y-110959300D01*
X147447000Y-109347000D02*
X148336000Y-109347000D01*
X139156600Y-119954200D02*
X139217400Y-120015000D01*
X155758050Y-97693650D02*
X156311600Y-98247200D01*
X137619400Y-119954200D02*
X139156600Y-119954200D01*
X150025200Y-111417200D02*
X150279000Y-111417200D01*
G04 #@! TO.N,/Sensores/GNSS_SCL*
X155498800Y-98374200D02*
X155651200Y-98526600D01*
X150203500Y-109055500D02*
X149529800Y-108381800D01*
X155258050Y-96590700D02*
X155258050Y-98133450D01*
X152149937Y-109673263D02*
X152149937Y-110582299D01*
X155258050Y-98133450D02*
X155498800Y-98374200D01*
X150622000Y-109055500D02*
X151532174Y-109055500D01*
X151950674Y-109474000D02*
X152149937Y-109673263D01*
X149529800Y-108381800D02*
X146634200Y-108381800D01*
X139202000Y-118704200D02*
X139217400Y-118719600D01*
X150622000Y-109055500D02*
X150203500Y-109055500D01*
X155651200Y-98526600D02*
X155651200Y-99161600D01*
X151532174Y-109055500D02*
X151950674Y-109474000D01*
X137619400Y-118704200D02*
X139202000Y-118704200D01*
G04 #@! TO.N,/Conexiones_extra/I2CA_SDA*
X163258050Y-96590700D02*
X163258050Y-99148450D01*
X168789050Y-105054400D02*
X168789050Y-104108550D01*
X168789050Y-104108550D02*
X168808400Y-104089200D01*
X163258050Y-99148450D02*
X163550600Y-99441000D01*
G04 #@! TO.N,/MCU/TIM3_CH1*
X143500000Y-99475000D02*
X142258100Y-100716900D01*
X142675000Y-112700000D02*
X143400000Y-113425000D01*
X142258100Y-109333100D02*
X142675000Y-109750000D01*
X148200000Y-99475000D02*
X143500000Y-99475000D01*
X142258100Y-100716900D02*
X142258100Y-109333100D01*
X149258050Y-96590700D02*
X149258050Y-98416950D01*
X142675000Y-109750000D02*
X142675000Y-112700000D01*
X149258050Y-98416950D02*
X148200000Y-99475000D01*
G04 #@! TO.N,/Debug/SWCLK*
X164719000Y-73736200D02*
X165100000Y-73355200D01*
X164258050Y-75265700D02*
X164258050Y-74197150D01*
X165100000Y-73355200D02*
X165557200Y-73355200D01*
X164258050Y-74197150D02*
X164719000Y-73736200D01*
G04 #@! TO.N,/MCU/TIM3_CH2*
X142866000Y-108737400D02*
X143501800Y-109373200D01*
X143675000Y-109546400D02*
X143501800Y-109373200D01*
X145175000Y-113525000D02*
X143675000Y-112025000D01*
X149758050Y-96590700D02*
X149758050Y-98666950D01*
X143825000Y-99975000D02*
X142867700Y-100932300D01*
X142867700Y-100932300D02*
X142867700Y-108730100D01*
X149758050Y-98666950D02*
X148450000Y-99975000D01*
X143675000Y-111525000D02*
X143675000Y-109546400D01*
X143675000Y-112025000D02*
X143675000Y-111525000D01*
X148450000Y-99975000D02*
X143825000Y-99975000D01*
G04 #@! TO.N,/Debug/SWDIO*
X171246800Y-78003400D02*
X173024800Y-76225400D01*
X168768600Y-78678200D02*
X169443400Y-78003400D01*
X166170550Y-78678200D02*
X168768600Y-78678200D01*
X174142400Y-76225400D02*
X174967900Y-75399900D01*
X173024800Y-76225400D02*
X174142400Y-76225400D01*
X169443400Y-78003400D02*
X171246800Y-78003400D01*
G04 #@! TO.N,/Debug/NRST*
X143467500Y-89532500D02*
X143821800Y-89178200D01*
X133641500Y-66268600D02*
X133641500Y-65951700D01*
X144845550Y-89178200D02*
X147702200Y-89178200D01*
X136817100Y-66179700D02*
X139433300Y-66179700D01*
X147702200Y-89178200D02*
X147802600Y-89077800D01*
X142725000Y-89532500D02*
X143467500Y-89532500D01*
X133641500Y-66268600D02*
X132347300Y-66268600D01*
X143821800Y-89178200D02*
X144845550Y-89178200D01*
X134391400Y-65201800D02*
X135839200Y-65201800D01*
X133641500Y-65951700D02*
X134391400Y-65201800D01*
X135839200Y-65201800D02*
X136817100Y-66179700D01*
G04 #@! TO.N,/MCU/TIM3_CH3*
X144843500Y-108927900D02*
X146100800Y-110185200D01*
X151258050Y-99109750D02*
X149199600Y-101168200D01*
X144094200Y-108204000D02*
X144818100Y-108927900D01*
X151258050Y-96590700D02*
X151258050Y-99109750D01*
X149199600Y-101168200D02*
X148463000Y-101168200D01*
X148463000Y-101168200D02*
X144094200Y-105537000D01*
X146177000Y-112395000D02*
X146177000Y-110261400D01*
X144094200Y-105537000D02*
X144094200Y-108204000D01*
X146177000Y-110261400D02*
X146100800Y-110185200D01*
X144818100Y-108927900D02*
X144843500Y-108927900D01*
G04 #@! TO.N,/MCU/TIM3_CH4*
X147599400Y-113334800D02*
X147574000Y-113309400D01*
X147574000Y-113309400D02*
X147574000Y-110820200D01*
X151758050Y-99270150D02*
X151758050Y-96590700D01*
X148640800Y-101803200D02*
X149221800Y-101803200D01*
X150850600Y-100177600D02*
X151758050Y-99270150D01*
X150850600Y-100177600D02*
X150847400Y-100177600D01*
X144830800Y-108077000D02*
X144830800Y-105613200D01*
X144830800Y-105613200D02*
X148640800Y-101803200D01*
X150847400Y-100177600D02*
X149221800Y-101803200D01*
X147574000Y-110820200D02*
X144830800Y-108077000D01*
G04 #@! TO.N,/MCU/TIM4_CH1*
X170992800Y-92532200D02*
X170992800Y-110210600D01*
X168046400Y-91668600D02*
X170129200Y-91668600D01*
X170129200Y-91668600D02*
X170992800Y-92532200D01*
X167056000Y-90678200D02*
X168046400Y-91668600D01*
X166170550Y-90678200D02*
X167056000Y-90678200D01*
X170992800Y-110210600D02*
X169062400Y-112141000D01*
G04 #@! TO.N,/Debug/SWO*
X152258050Y-73601700D02*
X151909950Y-73253600D01*
X152258050Y-75265700D02*
X152258050Y-73601700D01*
D73*
G04 #@! TO.N,/Motores_servos_PWM/Vdd_servos*
X153772400Y-133755600D02*
X161392400Y-133755600D01*
X171620500Y-134323800D02*
X171620500Y-135850600D01*
X162077400Y-133070600D02*
X170367300Y-133070600D01*
X153772400Y-133755600D02*
X152803664Y-133755600D01*
X152803664Y-133755600D02*
X152780700Y-133732636D01*
X170367300Y-133070600D02*
X171620500Y-134323800D01*
X161392400Y-133755600D02*
X162077400Y-133070600D01*
X171620500Y-135850600D02*
X171605900Y-135865200D01*
D70*
G04 #@! TO.N,/MCU/TIM4_CH2*
X171627800Y-110998000D02*
X169316400Y-113309400D01*
X171627800Y-92075000D02*
X171627800Y-110998000D01*
X170637200Y-91084400D02*
X171627800Y-92075000D01*
X168503600Y-91084400D02*
X170637200Y-91084400D01*
X166170550Y-90178200D02*
X167597400Y-90178200D01*
X167597400Y-90178200D02*
X168503600Y-91084400D01*
G04 #@! TO.N,/MCU/TIM4_CH3*
X172288200Y-111353600D02*
X172288200Y-105664000D01*
X171323000Y-87630000D02*
X172110400Y-88417400D01*
X172288200Y-88595200D02*
X172288200Y-94691200D01*
X172288200Y-104089200D02*
X172288200Y-105664000D01*
X170992800Y-87630000D02*
X171323000Y-87630000D01*
X172110400Y-88417400D02*
X172288200Y-88595200D01*
X172288200Y-94691200D02*
X172288200Y-104089200D01*
X168192000Y-88678200D02*
X168579800Y-88290400D01*
X171500800Y-112141000D02*
X172288200Y-111353600D01*
X169240200Y-87630000D02*
X170992800Y-87630000D01*
X166170550Y-88678200D02*
X168192000Y-88678200D01*
X168579800Y-88290400D02*
X169240200Y-87630000D01*
G04 #@! TO.N,/MCU/TIM4_CH4*
X166170550Y-88178200D02*
X167930000Y-88178200D01*
X172847000Y-112191800D02*
X171500800Y-113538000D01*
X167930000Y-88178200D02*
X169011600Y-87096600D01*
X171704000Y-87096600D02*
X172847000Y-88239600D01*
X172847000Y-88239600D02*
X172847000Y-112191800D01*
X169011600Y-87096600D02*
X171704000Y-87096600D01*
G04 #@! TO.N,/Vbus*
X175234600Y-81051400D02*
X174904400Y-81381600D01*
X174015400Y-81000600D02*
X174167800Y-80848200D01*
X177339400Y-79988000D02*
X176276000Y-81051400D01*
X174167800Y-80848200D02*
X174625000Y-80391000D01*
X174625000Y-80238600D02*
X174625000Y-80391000D01*
X176276000Y-81051400D02*
X175285400Y-81051400D01*
X174284600Y-79009200D02*
X174548800Y-79273400D01*
X175285400Y-81051400D02*
X174625000Y-80391000D01*
X175285400Y-81051400D02*
X175234600Y-81051400D01*
X173493000Y-79009200D02*
X174284600Y-79009200D01*
X171945900Y-81000600D02*
X174015400Y-81000600D01*
X174625000Y-79349600D02*
X174625000Y-80238600D01*
X178096800Y-79988000D02*
X177339400Y-79988000D01*
X174548800Y-79273400D02*
X174625000Y-79349600D01*
X174904400Y-81381600D02*
X174904400Y-81991400D01*
G04 #@! TO.N,/Conexiones_extra/UARTA_TX*
X157988000Y-95046800D02*
X157758050Y-95276750D01*
X157758050Y-95276750D02*
X157758050Y-96590700D01*
G04 #@! TO.N,/MCU/SDMMC1_D2*
X161150900Y-71170800D02*
X161176300Y-71196200D01*
X163258050Y-75265700D02*
X163258050Y-74282750D01*
X163258050Y-74282750D02*
X163855400Y-73685400D01*
X161176300Y-72200100D02*
X161176300Y-71742900D01*
X163449000Y-72567800D02*
X161544000Y-72567800D01*
X161176300Y-71196200D02*
X161176300Y-71742900D01*
X161150900Y-70180200D02*
X161150900Y-71170800D01*
X161544000Y-72567800D02*
X161176300Y-72200100D01*
X163855400Y-73685400D02*
X163855400Y-72974200D01*
X163855400Y-72974200D02*
X163449000Y-72567800D01*
G04 #@! TO.N,/MCU/SDMMC1_D3*
X164566600Y-72491600D02*
X164566600Y-71438100D01*
X163499800Y-71463500D02*
X164541200Y-71463500D01*
X164541200Y-71463500D02*
X164592000Y-71412700D01*
X164566600Y-71438100D02*
X164592000Y-71412700D01*
X162758050Y-73874950D02*
X162102800Y-73219700D01*
X162758050Y-75265700D02*
X162758050Y-73874950D01*
G04 #@! TO.N,/Conexiones_extra/UARTB_TX*
X154258050Y-75265700D02*
X154258050Y-76686450D01*
X154258050Y-76686450D02*
X154673300Y-77101700D01*
G04 #@! TO.N,/Conexiones_extra/UARTA_RX*
X157258050Y-94723250D02*
X156946600Y-94411800D01*
X157258050Y-96590700D02*
X157258050Y-94723250D01*
G04 #@! TO.N,Net-(D4-Pad1)*
X128384900Y-65900900D02*
X128600200Y-65900900D01*
X127787400Y-65303400D02*
X128384900Y-65900900D01*
X127212200Y-65303400D02*
X127787400Y-65303400D01*
G04 #@! TO.N,Net-(D5-Pad1)*
X127584200Y-69951600D02*
X128181700Y-70549100D01*
X128181700Y-70549100D02*
X128600200Y-70549100D01*
G04 #@! TO.N,Net-(D6-Pad1)*
X127212200Y-62992000D02*
X127457200Y-62992000D01*
X128054700Y-63589500D02*
X128600200Y-63589500D01*
X127457200Y-62992000D02*
X128054700Y-63589500D01*
G04 #@! TO.N,/Conexiones_extra/UARTB_RX*
X156758050Y-76566350D02*
X156591000Y-76733400D01*
X156758050Y-75265700D02*
X156758050Y-76566350D01*
G04 #@! TO.N,Net-(D7-Pad1)*
X127609600Y-60680600D02*
X128207100Y-61278100D01*
X128207100Y-61278100D02*
X128600200Y-61278100D01*
X127212200Y-60680600D02*
X127609600Y-60680600D01*
G04 #@! TO.N,/Conexiones_extra/UARTC_TX*
X159258050Y-75265700D02*
X159258050Y-76454050D01*
X158851600Y-77419200D02*
X158851600Y-76860500D01*
X158851600Y-76860500D02*
X159258050Y-76454050D01*
G04 #@! TO.N,/MCU/OSC32_IN*
X141554200Y-79273400D02*
X140919200Y-79273400D01*
X140335000Y-79857600D02*
X139868550Y-79857600D01*
X142392400Y-79273400D02*
X143797200Y-80678200D01*
X140919200Y-79273400D02*
X140335000Y-79857600D01*
X141554200Y-79273400D02*
X142392400Y-79273400D01*
X143797200Y-80678200D02*
X144845550Y-80678200D01*
G04 #@! TO.N,/MCU/OSC32_OUT*
X140995400Y-81661000D02*
X141554200Y-81661000D01*
X142824200Y-81661000D02*
X141554200Y-81661000D01*
X139868550Y-80975200D02*
X140309600Y-80975200D01*
X144845550Y-81178200D02*
X143307000Y-81178200D01*
X140309600Y-80975200D02*
X140995400Y-81661000D01*
X143307000Y-81178200D02*
X142824200Y-81661000D01*
G04 #@! TO.N,/MCU/OSC_IN*
X144845550Y-88178200D02*
X137128200Y-88178200D01*
X137128200Y-88178200D02*
X136295202Y-88178200D01*
X136295202Y-88178200D02*
X135825000Y-88648402D01*
X135825000Y-88648402D02*
X135825000Y-89625000D01*
X134413599Y-89572500D02*
X135772500Y-89572500D01*
G04 #@! TO.N,Net-(D8-Pad1)*
X127212200Y-74523600D02*
X127533400Y-74523600D01*
X127533400Y-74523600D02*
X128130900Y-75121100D01*
X128130900Y-75121100D02*
X128600200Y-75121100D01*
G04 #@! TO.N,/Sensores/MAG_INT_DATA_RDY*
X152258050Y-96590700D02*
X152258050Y-95184250D01*
X152258050Y-95184250D02*
X152120600Y-95046800D01*
G04 #@! TO.N,/MCU/OSC_OUT*
X139326802Y-89236000D02*
X139326802Y-89832300D01*
X144845550Y-88678200D02*
X140542402Y-88678200D01*
X139884602Y-88678200D02*
X139326802Y-89236000D01*
X140542402Y-88678200D02*
X139884602Y-88678200D01*
G04 #@! TO.N,/Interfaz_CAN/CAN1_RX*
X147980400Y-65545300D02*
X147980400Y-71780400D01*
X149258050Y-73058050D02*
X149258050Y-75265700D01*
X147980400Y-71780400D02*
X149258050Y-73058050D01*
G04 #@! TO.N,/Interfaz_CAN/CAN1_TX*
X147150000Y-71397500D02*
X147150000Y-72175000D01*
X148758050Y-74033050D02*
X148758050Y-73878850D01*
X148758050Y-75265700D02*
X148758050Y-74033050D01*
X148758050Y-73783050D02*
X148758050Y-74033050D01*
X147150000Y-72175000D02*
X148758050Y-73783050D01*
G04 #@! TO.N,/Interfaz_CAN/CAN2_RX*
X153162000Y-69062600D02*
X156718000Y-69062600D01*
X152247600Y-71678800D02*
X152247600Y-69977000D01*
X151258050Y-75265700D02*
X151258050Y-72668350D01*
X156718000Y-69062600D02*
X156883100Y-68897500D01*
X152247600Y-69977000D02*
X153162000Y-69062600D01*
X151258050Y-72668350D02*
X152247600Y-71678800D01*
X156883100Y-68897500D02*
X157632400Y-68148200D01*
X157632400Y-68148200D02*
X157632400Y-65621500D01*
G04 #@! TO.N,/MCU/OTG_FS_VBUS*
X166170550Y-80678200D02*
X169435600Y-80678200D01*
X169758000Y-81000600D02*
X169435600Y-80678200D01*
X170750900Y-81000600D02*
X169758000Y-81000600D01*
X170750900Y-81000600D02*
X170750900Y-82104900D01*
G04 #@! TO.N,/MCU/SDMMC1_CMD*
X161290000Y-77165200D02*
X162153600Y-77165200D01*
X168922100Y-73653950D02*
X167138050Y-73653950D01*
X168935400Y-72612550D02*
X168935400Y-73640650D01*
X167138050Y-73653950D02*
X166039800Y-74752200D01*
X160758050Y-76633250D02*
X161290000Y-77165200D01*
X160758050Y-76633250D02*
X160758050Y-75265700D01*
G04 #@! TO.N,/MCU/SDMMC1_CK*
X161315400Y-73888600D02*
X161925000Y-73888600D01*
X161925000Y-73888600D02*
X162258050Y-74221650D01*
X158191200Y-72644000D02*
X160070800Y-72644000D01*
X157759400Y-71692100D02*
X157759400Y-72212200D01*
X162258050Y-74221650D02*
X162258050Y-75265700D01*
X157759400Y-72212200D02*
X158191200Y-72644000D01*
X160070800Y-72644000D02*
X161315400Y-73888600D01*
G04 #@! TO.N,/MCU/SDMMC1_D0*
X172720000Y-73914000D02*
X172847000Y-74041000D01*
X169027800Y-82178200D02*
X169341800Y-81864200D01*
X171678600Y-72821800D02*
X172720000Y-72821800D01*
X166170550Y-82178200D02*
X169027800Y-82178200D01*
X172720000Y-72821800D02*
X172720000Y-73914000D01*
G04 #@! TO.N,/MCU/SDMMC1_D1*
X174955200Y-72123900D02*
X174955200Y-73964800D01*
X173431200Y-75488800D02*
X171780200Y-75488800D01*
X168054600Y-81678200D02*
X168376600Y-81356200D01*
X174955200Y-73964800D02*
X173431200Y-75488800D01*
X166170550Y-81678200D02*
X168054600Y-81678200D01*
X171780200Y-75488800D02*
X171196000Y-76073000D01*
X173913800Y-72123900D02*
X174955200Y-72123900D01*
G04 #@! TO.N,/Interfaz_CAN/CAN2_TX*
X150758050Y-71999950D02*
X150758050Y-75265700D01*
X151218900Y-71539100D02*
X150758050Y-71999950D01*
X151282400Y-70664000D02*
X151282400Y-71475600D01*
X151282400Y-71475600D02*
X151218900Y-71539100D01*
G04 #@! TO.N,/MCU/TIM1_CH1*
X157480000Y-97942400D02*
X157403800Y-97942400D01*
X158258050Y-97519950D02*
X157886400Y-97891600D01*
X157886400Y-97891600D02*
X157835600Y-97942400D01*
X157403800Y-97942400D02*
X157073600Y-98272600D01*
X157835600Y-97942400D02*
X157480000Y-97942400D01*
X158258050Y-96590700D02*
X158258050Y-97469150D01*
X157073600Y-98272600D02*
X156972000Y-98374200D01*
X158258050Y-97469150D02*
X158258050Y-97519950D01*
X156972000Y-98374200D02*
X156972000Y-99161600D01*
G04 #@! TO.N,/MCU/TIM1_CH2*
X160248600Y-96600150D02*
X160258050Y-96590700D01*
X160248600Y-98196400D02*
X160248600Y-96600150D01*
G04 #@! TO.N,/MCU/TIM1_CH3*
X161258050Y-98812550D02*
X160909000Y-99161600D01*
X161258050Y-96590700D02*
X161258050Y-98812550D01*
G04 #@! TO.N,/MCU/TIM1_CH4*
X161758050Y-99760350D02*
X161671000Y-99847400D01*
X161758050Y-96590700D02*
X161758050Y-99760350D01*
G04 #@! TO.N,/Conexiones_extra/UARTC_RX*
X157758050Y-75265700D02*
X157758050Y-76912550D01*
X157758050Y-76912550D02*
X157632400Y-77038200D01*
G04 #@! TO.N,Net-(D9-Pad1)*
X128308700Y-68212300D02*
X128600200Y-68212300D01*
X127212200Y-67614800D02*
X127711200Y-67614800D01*
X127711200Y-67614800D02*
X128308700Y-68212300D01*
G04 #@! TO.N,Net-(D3-Pad1)*
X128029300Y-72821800D02*
X128600200Y-72821800D01*
X127431800Y-72224300D02*
X128029300Y-72821800D01*
G04 #@! TO.N,/Alimentaci\u00F3n/I_MEAS*
X145237200Y-95275400D02*
X144767300Y-95745300D01*
X146758050Y-96590700D02*
X146758050Y-95678650D01*
X146354800Y-95275400D02*
X145237200Y-95275400D01*
X146758050Y-95678650D02*
X146354800Y-95275400D01*
X144246600Y-96266000D02*
X141334000Y-96266000D01*
X141334000Y-96266000D02*
X140700000Y-96900000D01*
X140234399Y-97365601D02*
X140700000Y-96900000D01*
X140234399Y-98135000D02*
X140234399Y-97365601D01*
X144767300Y-95745300D02*
X144246600Y-96266000D01*
G04 #@! TO.N,/Alimentaci\u00F3n/V_MEAS*
X150258050Y-96590700D02*
X150258050Y-99016950D01*
X146950000Y-100975000D02*
X147150000Y-100775000D01*
X150258050Y-99016950D02*
X148675000Y-100600000D01*
X145272500Y-100975000D02*
X146950000Y-100975000D01*
X148500000Y-100775000D02*
X148675000Y-100600000D01*
X147150000Y-100775000D02*
X148500000Y-100775000D01*
G04 #@! TO.N,Net-(R3-Pad1)*
X141224000Y-62534800D02*
X142671800Y-61087000D01*
X142671800Y-61087000D02*
X142671800Y-59907400D01*
X141224000Y-63105700D02*
X141224000Y-62534800D01*
G04 #@! TO.N,Net-(R4-Pad1)*
X152400000Y-61290200D02*
X152400000Y-59907400D01*
X150799800Y-61137800D02*
X151307800Y-61645800D01*
X152044400Y-61645800D02*
X152400000Y-61290200D01*
X151307800Y-61645800D02*
X152044400Y-61645800D01*
X150799800Y-60465300D02*
X150799800Y-61137800D01*
G04 #@! TO.N,Net-(J24-Pad1)*
X164090100Y-68396100D02*
X163677600Y-68808600D01*
X164090100Y-68396100D02*
X164090100Y-67139900D01*
X158826200Y-69697600D02*
X158826200Y-69011800D01*
X159955900Y-70180200D02*
X159308800Y-70180200D01*
X159308800Y-70180200D02*
X158826200Y-69697600D01*
X164090100Y-67343100D02*
X164090100Y-68396100D01*
G04 #@! TO.N,Net-(J24-Pad2)*
X164592000Y-70217700D02*
X164592000Y-69088000D01*
X164592000Y-69088000D02*
X165190100Y-68489900D01*
X165190100Y-68489900D02*
X165190100Y-67343100D01*
G04 #@! TO.N,Net-(J24-Pad3)*
X166290100Y-68558300D02*
X166290100Y-67139900D01*
X165519100Y-71894700D02*
X165519100Y-69329300D01*
X166236950Y-72612550D02*
X165519100Y-71894700D01*
X167740400Y-72612550D02*
X166236950Y-72612550D01*
X165519100Y-69329300D02*
X166290100Y-68558300D01*
G04 #@! TO.N,Net-(J24-Pad5)*
X157759400Y-68757800D02*
X157759400Y-70497100D01*
X168490100Y-68618900D02*
X168478200Y-68630800D01*
X158521400Y-67995800D02*
X157759400Y-68757800D01*
X158521400Y-67183000D02*
X158521400Y-67995800D01*
X168490100Y-67139900D02*
X168490100Y-68618900D01*
G04 #@! TO.N,Net-(J24-Pad7)*
X170690100Y-67139900D02*
X170690100Y-68988500D01*
X171678600Y-69977000D02*
X171678600Y-71626800D01*
X170690100Y-68988500D02*
X171678600Y-69977000D01*
G04 #@! TO.N,Net-(J24-Pad8)*
X173913800Y-70002400D02*
X173456600Y-69545200D01*
X173456600Y-69545200D02*
X172262800Y-69545200D01*
X171790100Y-69072500D02*
X171790100Y-67139900D01*
X173913800Y-70928900D02*
X173913800Y-70002400D01*
X172262800Y-69545200D02*
X171790100Y-69072500D01*
G04 #@! TO.N,Net-(Q1-Pad1)*
X127251700Y-87030600D02*
X128077000Y-87030600D01*
X128334100Y-87287700D02*
X128828800Y-87287700D01*
X128077000Y-87030600D02*
X128334100Y-87287700D01*
G04 #@! TO.N,Net-(Q2-Pad1)*
X131343400Y-70660500D02*
X131343400Y-71518100D01*
X131343400Y-71518100D02*
X131696850Y-71871550D01*
X131696850Y-71871550D02*
X131696850Y-72237600D01*
G04 #@! TO.N,Net-(Q2-Pad3)*
X128600200Y-64705900D02*
X128942500Y-64705900D01*
X132293400Y-67401400D02*
X132334000Y-67360800D01*
X128942500Y-64705900D02*
X129565400Y-65328800D01*
X132293400Y-68785500D02*
X132293400Y-67401400D01*
G04 #@! TO.N,Net-(Q3-Pad1)*
X131333200Y-78323400D02*
X131765000Y-78755200D01*
X131765000Y-78755200D02*
X131765000Y-79104850D01*
X131333200Y-77530050D02*
X131333200Y-78323400D01*
G04 #@! TO.N,Net-(Q3-Pad3)*
X129577500Y-69354100D02*
X129641600Y-69418200D01*
X132283200Y-74726800D02*
X131902200Y-74345800D01*
X128967900Y-69354100D02*
X129247300Y-69354100D01*
X128967900Y-69354100D02*
X129577500Y-69354100D01*
X128600200Y-69354100D02*
X128967900Y-69354100D01*
X132283200Y-75655050D02*
X132283200Y-74726800D01*
G04 #@! TO.N,Net-(Q4-Pad1)*
X134569200Y-70660500D02*
X134569200Y-71424800D01*
X134569200Y-71424800D02*
X135290600Y-72146200D01*
X135290600Y-72146200D02*
X135290600Y-72237600D01*
G04 #@! TO.N,Net-(Q4-Pad3)*
X135519200Y-68785500D02*
X135519200Y-67350600D01*
X128600200Y-62394500D02*
X129299300Y-62394500D01*
X135519200Y-67350600D02*
X135559800Y-67310000D01*
X129299300Y-62394500D02*
X129565400Y-62128400D01*
G04 #@! TO.N,Net-(Q5-Pad1)*
X137795000Y-71213300D02*
X138743800Y-72162100D01*
X137795000Y-70660500D02*
X137795000Y-71213300D01*
X138743800Y-72162100D02*
X138743800Y-72226800D01*
X137795000Y-70660500D02*
X137795000Y-71264100D01*
G04 #@! TO.N,Net-(Q5-Pad3)*
X138745000Y-68785500D02*
X138745000Y-67244000D01*
X129221900Y-60083100D02*
X129590800Y-60452000D01*
X128600200Y-60083100D02*
X129221900Y-60083100D01*
X138745000Y-67244000D02*
X138734800Y-67233800D01*
G04 #@! TO.N,Net-(Q6-Pad1)*
X128397000Y-80975200D02*
X128828800Y-80975200D01*
X128153200Y-80731400D02*
X128397000Y-80975200D01*
X127251700Y-80731400D02*
X128153200Y-80731400D01*
G04 #@! TO.N,Net-(Q7-Pad1)*
X134559000Y-77530050D02*
X134559000Y-78323400D01*
X134559000Y-78323400D02*
X134849900Y-78614300D01*
X134849900Y-78614300D02*
X134849900Y-79092150D01*
G04 #@! TO.N,Net-(Q7-Pad3)*
X129475900Y-67017300D02*
X129565400Y-67106800D01*
X135509000Y-75655050D02*
X135509000Y-74295000D01*
X128600200Y-67017300D02*
X129475900Y-67017300D01*
G04 #@! TO.N,Net-(Q8-Pad1)*
X128102400Y-83881000D02*
X128397000Y-84175600D01*
X128791300Y-84175600D02*
X128828800Y-84138100D01*
X128397000Y-84175600D02*
X128791300Y-84175600D01*
X127251700Y-83881000D02*
X128102400Y-83881000D01*
D74*
G04 #@! TO.N,/USB/D-*
X166170550Y-79678200D02*
X166174551Y-79682201D01*
X166174551Y-79682201D02*
X170232011Y-79682201D01*
X170651011Y-79263201D02*
X172024001Y-79263201D01*
X170232011Y-79682201D02*
X170651011Y-79263201D01*
X172720000Y-79959200D02*
X172024001Y-79263201D01*
X173493000Y-79959200D02*
X172720000Y-79959200D01*
G04 #@! TO.N,/USB/D+*
X173493000Y-78059200D02*
X172719998Y-78059200D01*
X170440589Y-78755199D02*
X172023999Y-78755199D01*
X166174551Y-79174199D02*
X170021589Y-79174199D01*
X170021589Y-79174199D02*
X170440589Y-78755199D01*
X166170550Y-79178200D02*
X166174551Y-79174199D01*
X172719998Y-78059200D02*
X172023999Y-78755199D01*
D72*
G04 #@! TO.N,/Alimentaci\u00F3n/5Vin*
X127287000Y-120039600D02*
X127287000Y-121289600D01*
X127287000Y-120039600D02*
X130328200Y-120039600D01*
X130328200Y-120039600D02*
X131114800Y-119253000D01*
X131114800Y-119253000D02*
X131114800Y-118922600D01*
D70*
G04 #@! TO.N,/MCU/SPI2_MOSI*
X156984100Y-101904800D02*
X156133800Y-101904800D01*
X154525600Y-103513000D02*
X153651900Y-103513000D01*
X156133800Y-101904800D02*
X154525600Y-103513000D01*
G04 #@! TO.N,/MCU/SPI2_MISO*
X167005000Y-101142800D02*
X167792400Y-100355400D01*
X167566800Y-93678200D02*
X168529000Y-94640400D01*
X167109600Y-93678200D02*
X167566800Y-93678200D01*
X161836700Y-101142800D02*
X167005000Y-101142800D01*
X168529000Y-94640400D02*
X168681400Y-94792800D01*
X168681400Y-94792800D02*
X168681400Y-98171000D01*
X166170550Y-93678200D02*
X167109600Y-93678200D01*
G04 #@! TO.N,/MCU/SPI2_SCK*
X160692500Y-102641400D02*
X157276800Y-102641400D01*
X157276800Y-102641400D02*
X155905200Y-104013000D01*
X155905200Y-104013000D02*
X153651900Y-104013000D01*
G04 #@! TO.N,/MCU/SPI2_CS*
X156667200Y-105156000D02*
X155244800Y-105156000D01*
X154601800Y-104513000D02*
X153651900Y-104513000D01*
X157264100Y-104559100D02*
X156667200Y-105156000D01*
X155244800Y-105156000D02*
X154601800Y-104513000D01*
X159320900Y-103860600D02*
X157962600Y-103860600D01*
X157962600Y-103860600D02*
X157264100Y-104559100D01*
G04 #@! TO.N,Net-(R1-Pad2)*
X146964400Y-63246000D02*
X147599400Y-63246000D01*
X146481800Y-63728600D02*
X146964400Y-63246000D01*
X148031200Y-63677800D02*
X148031200Y-64299500D01*
X147599400Y-63246000D02*
X148031200Y-63677800D01*
X148031200Y-64299500D02*
X147980400Y-64350300D01*
X146481800Y-64857400D02*
X146481800Y-63728600D01*
G04 #@! TO.N,/Interfaz_CAN/CAN2+*
X153695400Y-56589200D02*
X153695400Y-59882000D01*
X153695400Y-59882000D02*
X153670000Y-59907400D01*
G04 #@! TO.N,/Interfaz_CAN/CAN2-*
X154945400Y-56589200D02*
X154945400Y-59902000D01*
X154945400Y-59902000D02*
X154940000Y-59907400D01*
D74*
G04 #@! TO.N,/USB/D_connector+*
X178096800Y-78688000D02*
X177113000Y-78688000D01*
X177113000Y-78688000D02*
X176484200Y-78059200D01*
X176484200Y-78059200D02*
X175768000Y-78059200D01*
G04 #@! TO.N,/USB/D_connector-*
X177100400Y-79338000D02*
X178096800Y-79338000D01*
X175768000Y-79959200D02*
X176479200Y-79959200D01*
X176479200Y-79959200D02*
X177100400Y-79338000D01*
D70*
G04 #@! TO.N,/MCU/PD3(EXTI3)*
X176352200Y-58547000D02*
X176352200Y-62992000D01*
X175412400Y-58127300D02*
X175932500Y-58127300D01*
X160045400Y-76657200D02*
X160045400Y-77165200D01*
X160258050Y-76444550D02*
X160045400Y-76657200D01*
X175412400Y-57454800D02*
X174800700Y-56843100D01*
X175412400Y-58127300D02*
X175412400Y-57454800D01*
X160258050Y-75265700D02*
X160258050Y-76444550D01*
X176352200Y-62992000D02*
X175310800Y-64033400D01*
X173690100Y-56843100D02*
X174800700Y-56843100D01*
X175932500Y-58127300D02*
X176352200Y-58547000D01*
X175310800Y-64033400D02*
X175310800Y-64846200D01*
G04 #@! TO.N,Net-(R2-Pad2)*
X156210000Y-63576200D02*
X156616400Y-63169800D01*
X156616400Y-63169800D02*
X157327600Y-63169800D01*
X157327600Y-63169800D02*
X157683200Y-63525400D01*
X156210000Y-64857400D02*
X156210000Y-63576200D01*
X157683200Y-64375700D02*
X157632400Y-64426500D01*
X157683200Y-63525400D02*
X157683200Y-64375700D01*
G04 #@! TO.N,Net-(R5-Pad2)*
X142225000Y-69150000D02*
X141525000Y-68450000D01*
X142671800Y-66014600D02*
X142671800Y-64857400D01*
X146625000Y-69150000D02*
X142225000Y-69150000D01*
X141525000Y-68450000D02*
X141525000Y-67161400D01*
X141525000Y-67161400D02*
X142671800Y-66014600D01*
X147150000Y-69675000D02*
X146625000Y-69150000D01*
X147150000Y-70202500D02*
X147150000Y-69675000D01*
G04 #@! TO.N,Net-(R6-Pad2)*
X152400000Y-66090800D02*
X152400000Y-64857400D01*
X151282400Y-67208400D02*
X152400000Y-66090800D01*
X151282400Y-69469000D02*
X151282400Y-67208400D01*
G04 #@! TO.N,Net-(R11-Pad2)*
X160641700Y-101142800D02*
X154381200Y-101142800D01*
X154381200Y-101142800D02*
X153486900Y-102037100D01*
X153486900Y-102037100D02*
X153486900Y-102848000D01*
G04 #@! TO.N,Net-(R16-Pad1)*
X160515900Y-103860600D02*
X162712400Y-103860600D01*
X166992000Y-94678200D02*
X167538400Y-95224600D01*
X167538400Y-98044000D02*
X167132000Y-98450400D01*
X167538400Y-95224600D02*
X167538400Y-98044000D01*
X162712400Y-103860600D02*
X164820600Y-103860600D01*
X166170550Y-94678200D02*
X166992000Y-94678200D01*
X164820600Y-103860600D02*
X165227000Y-103454200D01*
G04 #@! TO.N,Net-(R17-Pad1)*
X169519600Y-94869000D02*
X169519600Y-99060000D01*
X167828800Y-93178200D02*
X168960800Y-94310200D01*
X158179100Y-101904800D02*
X167894000Y-101904800D01*
X167894000Y-101904800D02*
X168325800Y-101473000D01*
X166170550Y-93178200D02*
X167828800Y-93178200D01*
X168960800Y-94310200D02*
X169519600Y-94869000D01*
G04 #@! TO.N,Net-(R18-Pad1)*
X168021000Y-98806000D02*
X169176700Y-99961700D01*
X167203200Y-94178200D02*
X168021000Y-94996000D01*
X169265600Y-100050600D02*
X169176700Y-99961700D01*
X169265600Y-101701600D02*
X168325800Y-102641400D01*
X161887500Y-102641400D02*
X168325800Y-102641400D01*
X169265600Y-101701600D02*
X169265600Y-100050600D01*
X168021000Y-94996000D02*
X168021000Y-98806000D01*
X166170550Y-94178200D02*
X167203200Y-94178200D01*
G04 #@! TO.N,Net-(R27-Pad2)*
X131143000Y-63804800D02*
X131143000Y-66259300D01*
X131143000Y-66259300D02*
X131152300Y-66268600D01*
G04 #@! TO.N,Net-(R41-Pad2)*
X131131500Y-53390800D02*
X131131500Y-55870700D01*
X131131500Y-55870700D02*
X131140800Y-55880000D01*
G04 #@! TO.N,Net-(R53-Pad2)*
X131131500Y-61026900D02*
X131140800Y-61036200D01*
X131131500Y-58547000D02*
X131131500Y-61026900D01*
G04 #@! TO.N,/Leds indicadores + pulsadores/LED1*
X132891850Y-72237600D02*
X132891850Y-73279000D01*
X144845550Y-78178200D02*
X146611800Y-78178200D01*
X146611800Y-78178200D02*
X147167600Y-77622400D01*
X134086600Y-72237600D02*
X134137400Y-72186800D01*
X132891850Y-72237600D02*
X134086600Y-72237600D01*
G04 #@! TO.N,/Leds indicadores + pulsadores/LED2*
X145740200Y-77678200D02*
X146456400Y-76962000D01*
X139938800Y-72226800D02*
X139938800Y-73268200D01*
X139938800Y-73268200D02*
X139938800Y-74152800D01*
X139938800Y-74152800D02*
X140081000Y-74295000D01*
X144845550Y-77678200D02*
X145740200Y-77678200D01*
G04 #@! TO.N,/Leds indicadores + pulsadores/LED3*
X136485600Y-72237600D02*
X137490200Y-72237600D01*
X136485600Y-72237600D02*
X136485600Y-73279000D01*
X147758050Y-76561850D02*
X148361400Y-77165200D01*
X137490200Y-72237600D02*
X137515600Y-72212200D01*
X147758050Y-75265700D02*
X147758050Y-76561850D01*
G04 #@! TO.N,/Leds indicadores + pulsadores/LED4*
X136044900Y-80118950D02*
X136030300Y-80133550D01*
X136044900Y-79092150D02*
X136044900Y-80118950D01*
X146081800Y-79178200D02*
X146481800Y-79578200D01*
X136030300Y-80133550D02*
X136030300Y-81063500D01*
X144845550Y-79178200D02*
X146081800Y-79178200D01*
X136030300Y-81063500D02*
X136017000Y-81076800D01*
G04 #@! TO.N,/Leds indicadores + pulsadores/LED5*
X130771300Y-86092700D02*
X130835400Y-86156800D01*
X129921000Y-86092700D02*
X130771300Y-86092700D01*
X144845550Y-83678200D02*
X146162200Y-83678200D01*
X128828800Y-86092700D02*
X129921000Y-86092700D01*
X146162200Y-83678200D02*
X146583400Y-84099400D01*
G04 #@! TO.N,/Leds indicadores + pulsadores/LED6*
X144845550Y-82678200D02*
X145744000Y-82678200D01*
X132960001Y-81144001D02*
X132969000Y-81153000D01*
X145744000Y-82678200D02*
X146558000Y-81864200D01*
X132960001Y-80247849D02*
X132960001Y-81144001D01*
X132960000Y-79104850D02*
X132960001Y-80247849D01*
G04 #@! TO.N,/Leds indicadores + pulsadores/LED7*
X129946400Y-79780200D02*
X129946400Y-78841600D01*
X147381800Y-78678200D02*
X147421600Y-78638400D01*
X129946400Y-78841600D02*
X129921000Y-78816200D01*
X128828800Y-79780200D02*
X129946400Y-79780200D01*
X144845550Y-78678200D02*
X147381800Y-78678200D01*
G04 #@! TO.N,/Leds indicadores + pulsadores/LED8*
X144845550Y-83178200D02*
X146488600Y-83178200D01*
X129946400Y-82943100D02*
X131076100Y-82943100D01*
X146488600Y-83178200D02*
X146837400Y-82829400D01*
X128828800Y-82943100D02*
X129946400Y-82943100D01*
X131076100Y-82943100D02*
X131089400Y-82956400D01*
G04 #@! TO.N,/Leds indicadores + pulsadores/SW_1*
X137972800Y-57150000D02*
X139496800Y-57150000D01*
X139496800Y-57150000D02*
X140462000Y-58115200D01*
X151758050Y-76943550D02*
X151511000Y-77190600D01*
X140563600Y-58216800D02*
X140563600Y-58851800D01*
X134086600Y-54940200D02*
X136829800Y-54940200D01*
X137292200Y-55880000D02*
X137292200Y-56469400D01*
X133527800Y-55499000D02*
X134086600Y-54940200D01*
X137292200Y-56469400D02*
X137972800Y-57150000D01*
X132335200Y-55956200D02*
X133514500Y-55956200D01*
X137292200Y-55402600D02*
X137292200Y-55880000D01*
X133527800Y-55880000D02*
X133527800Y-55499000D01*
X140462000Y-58115200D02*
X140563600Y-58216800D01*
X136829800Y-54940200D02*
X137292200Y-55402600D01*
X151758050Y-75265700D02*
X151758050Y-76943550D01*
G04 #@! TO.N,/Leds indicadores + pulsadores/SW_2*
X137292200Y-61036200D02*
X137292200Y-60482600D01*
X136906000Y-60096400D02*
X133959600Y-60096400D01*
X137292200Y-61036200D02*
X137292200Y-61600200D01*
X137292200Y-60482600D02*
X136906000Y-60096400D01*
X137693400Y-62001400D02*
X137972800Y-62280800D01*
X133959600Y-60096400D02*
X133565300Y-60490700D01*
X133565300Y-60490700D02*
X133565300Y-61036200D01*
X137292200Y-61600200D02*
X137693400Y-62001400D01*
X145669000Y-71247000D02*
X145669000Y-71477900D01*
X137972800Y-62280800D02*
X139750800Y-62280800D01*
X148258050Y-74066950D02*
X148258050Y-75265700D01*
X145669000Y-71477900D02*
X148258050Y-74066950D01*
X132335800Y-61036200D02*
X133565300Y-61036200D01*
G04 #@! TO.N,/Sensores/GNSS_PPS*
X137687900Y-106746200D02*
X139405200Y-106746200D01*
X143071800Y-94678200D02*
X143345200Y-94678200D01*
X144845550Y-94678200D02*
X143345200Y-94678200D01*
X142475000Y-95275000D02*
X143071800Y-94678200D01*
X139405200Y-106746200D02*
X139471400Y-106680000D01*
G04 #@! TO.N,/MCU/USART3_RX*
X169697400Y-108788200D02*
X168300400Y-108788200D01*
X170332400Y-108153200D02*
X169697400Y-108788200D01*
X168300400Y-108788200D02*
X167232200Y-107720000D01*
X167232200Y-107720000D02*
X164891000Y-107720000D01*
X170332400Y-93573600D02*
X170332400Y-108153200D01*
X168937000Y-92178200D02*
X170332400Y-93573600D01*
X166170550Y-92178200D02*
X168937000Y-92178200D01*
G04 #@! TO.N,/MCU/TIM8_CH2*
X164669400Y-82678200D02*
X164668200Y-82677000D01*
X166170550Y-82678200D02*
X164669400Y-82678200D01*
G04 #@! TO.N,unconnected-(U5-Pad2)*
X152986900Y-102848000D02*
X152986900Y-101323300D01*
G04 #@! TO.N,unconnected-(U5-Pad3)*
X152486900Y-102848000D02*
X152486900Y-101331300D01*
G04 #@! TO.N,unconnected-(U5-Pad10)*
X152986900Y-105178000D02*
X152986900Y-106728100D01*
G04 #@! TO.N,/MCU/PF12(EXTI12)*
X151231600Y-100482400D02*
X151231600Y-101269800D01*
X151231600Y-101269800D02*
X151986900Y-102025100D01*
X153258050Y-97795550D02*
X152514300Y-98539300D01*
X153258050Y-96590700D02*
X153258050Y-97795550D01*
X151231600Y-100482400D02*
X152514300Y-99199700D01*
X151986900Y-102025100D02*
X151986900Y-102848000D01*
X152514300Y-99199700D02*
X152514300Y-98539300D01*
D71*
G04 #@! TO.N,/Chassis_Bond_1*
X126187200Y-54418600D02*
X126224400Y-54381400D01*
X126187200Y-58674000D02*
X126187200Y-54418600D01*
X126288800Y-58572400D02*
X126187200Y-58674000D01*
G04 #@! TO.N,/Chassis_Bond_2*
X178807300Y-58750200D02*
X178807300Y-54398500D01*
G04 #@! TO.N,/Chassis_Bond_3*
X126169800Y-136888800D02*
X126169800Y-131805200D01*
X126169800Y-131805200D02*
X126175000Y-131800000D01*
G04 #@! TO.N,/Chassis_Bond_4*
X178816000Y-136935000D02*
X178816000Y-131800000D01*
D73*
G04 #@! TO.N,/Motores_servos_PWM/Vdd_ESC*
X149420900Y-133755600D02*
X131640900Y-133755600D01*
X149420900Y-133755600D02*
X150502700Y-133755600D01*
D70*
G04 #@! TO.N,Net-(D10-Pad1)*
X127660400Y-76809600D02*
X128257900Y-77407100D01*
X128257900Y-77407100D02*
X128600200Y-77407100D01*
X127212200Y-76809600D02*
X127660400Y-76809600D01*
G04 #@! TO.N,Net-(Q1-Pad3)*
X125376700Y-86080600D02*
X124028200Y-86080600D01*
X128600200Y-76212100D02*
X129475900Y-76212100D01*
X129475900Y-76212100D02*
X129717800Y-76454000D01*
X124028200Y-86080600D02*
X124002800Y-86055200D01*
G04 #@! TO.N,Net-(Q8-Pad3)*
X125376700Y-82931000D02*
X124079000Y-82931000D01*
X129196500Y-73926100D02*
X129616200Y-74345800D01*
X124079000Y-82931000D02*
X124053600Y-82956400D01*
X128600200Y-73926100D02*
X129196500Y-73926100D01*
G04 #@! TO.N,Net-(Q6-Pad3)*
X129361000Y-71626800D02*
X129641600Y-71907400D01*
X128600200Y-71626800D02*
X129361000Y-71626800D01*
X125376700Y-79781400D02*
X124053600Y-79781400D01*
G04 #@! TO.N,unconnected-(U5-Pad9)*
X152486900Y-105178000D02*
X152486900Y-106770900D01*
D75*
G04 #@! TO.N,/USB/SHIELD_USB*
X180771800Y-77688000D02*
X180771800Y-79688000D01*
X176530000Y-73697500D02*
X176948500Y-73279000D01*
X180771800Y-75188000D02*
X179071800Y-75188000D01*
X179071800Y-82188000D02*
X178071800Y-81188000D01*
X180086000Y-73279000D02*
X176948500Y-73279000D01*
X180771800Y-75188000D02*
X180771800Y-77688000D01*
X179071800Y-75188000D02*
X178071800Y-76188000D01*
D71*
X180771800Y-75188000D02*
X180683500Y-75099700D01*
D75*
X180683500Y-75099700D02*
X180683500Y-73876500D01*
X180771800Y-82188000D02*
X179071800Y-82188000D01*
X180683500Y-73876500D02*
X180086000Y-73279000D01*
X180771800Y-79688000D02*
X180771800Y-82188000D01*
X176530000Y-74713500D02*
X176530000Y-73697500D01*
G04 #@! TD*
G04 #@! TA.AperFunction,Conductor*
G04 #@! TO.N,/Motores_servos_PWM/Vdd_servos*
G36*
X163249121Y-132242202D02*
G01*
X163295614Y-132295858D01*
X163307000Y-132348200D01*
X163307000Y-135074000D01*
X163286998Y-135142121D01*
X163233342Y-135188614D01*
X163181000Y-135200000D01*
X161893716Y-135200000D01*
X161827322Y-135180505D01*
X161800659Y-135196197D01*
X161769934Y-135200000D01*
X159353716Y-135200000D01*
X159287322Y-135180505D01*
X159260659Y-135196197D01*
X159229934Y-135200000D01*
X156813716Y-135200000D01*
X156747322Y-135180505D01*
X156720659Y-135196197D01*
X156689934Y-135200000D01*
X154273716Y-135200000D01*
X154207322Y-135180505D01*
X154180659Y-135196197D01*
X154149934Y-135200000D01*
X152121800Y-135200000D01*
X152053679Y-135179998D01*
X152007186Y-135126342D01*
X151995800Y-135074000D01*
X151995800Y-134962862D01*
X152015802Y-134894741D01*
X152024943Y-134882531D01*
X152026700Y-134874452D01*
X152026700Y-133502000D01*
X152046702Y-133433879D01*
X152100358Y-133387386D01*
X152152700Y-133376000D01*
X152408700Y-133376000D01*
X152476821Y-133396002D01*
X152523314Y-133449658D01*
X152534700Y-133502000D01*
X152534700Y-134869884D01*
X152539175Y-134885123D01*
X152540565Y-134886328D01*
X152548248Y-134887999D01*
X152825369Y-134887999D01*
X152832190Y-134887629D01*
X152883052Y-134882105D01*
X152898304Y-134878479D01*
X153018754Y-134833324D01*
X153034349Y-134824786D01*
X153124023Y-134757579D01*
X153539781Y-134757579D01*
X153549663Y-134770069D01*
X153601507Y-134804710D01*
X153611617Y-134810200D01*
X153802456Y-134892191D01*
X153813399Y-134895746D01*
X154015979Y-134941586D01*
X154027388Y-134943088D01*
X154154881Y-134948097D01*
X154214674Y-134968235D01*
X154238218Y-134953104D01*
X154255636Y-134949304D01*
X154451979Y-134920836D01*
X154463162Y-134918151D01*
X154659848Y-134851385D01*
X154670351Y-134846709D01*
X154808486Y-134769351D01*
X154818349Y-134759274D01*
X154817696Y-134757579D01*
X156079781Y-134757579D01*
X156089663Y-134770069D01*
X156141507Y-134804710D01*
X156151617Y-134810200D01*
X156342456Y-134892191D01*
X156353399Y-134895746D01*
X156555979Y-134941586D01*
X156567388Y-134943088D01*
X156694881Y-134948097D01*
X156754674Y-134968235D01*
X156778218Y-134953104D01*
X156795636Y-134949304D01*
X156991979Y-134920836D01*
X157003162Y-134918151D01*
X157199848Y-134851385D01*
X157210351Y-134846709D01*
X157348486Y-134769351D01*
X157358349Y-134759274D01*
X157357696Y-134757579D01*
X158619781Y-134757579D01*
X158629663Y-134770069D01*
X158681507Y-134804710D01*
X158691617Y-134810200D01*
X158882456Y-134892191D01*
X158893399Y-134895746D01*
X159095979Y-134941586D01*
X159107388Y-134943088D01*
X159234881Y-134948097D01*
X159294674Y-134968235D01*
X159318218Y-134953104D01*
X159335636Y-134949304D01*
X159531979Y-134920836D01*
X159543162Y-134918151D01*
X159739848Y-134851385D01*
X159750351Y-134846709D01*
X159888486Y-134769351D01*
X159898349Y-134759274D01*
X159897696Y-134757579D01*
X161159781Y-134757579D01*
X161169663Y-134770069D01*
X161221507Y-134804710D01*
X161231617Y-134810200D01*
X161422456Y-134892191D01*
X161433399Y-134895746D01*
X161635979Y-134941586D01*
X161647388Y-134943088D01*
X161774881Y-134948097D01*
X161834674Y-134968235D01*
X161858218Y-134953104D01*
X161875636Y-134949304D01*
X162071979Y-134920836D01*
X162083162Y-134918151D01*
X162279848Y-134851385D01*
X162290351Y-134846709D01*
X162428486Y-134769351D01*
X162438349Y-134759274D01*
X162435394Y-134751604D01*
X161810812Y-134127022D01*
X161796868Y-134119408D01*
X161795035Y-134119539D01*
X161788420Y-134123790D01*
X161165977Y-134746233D01*
X161159781Y-134757579D01*
X159897696Y-134757579D01*
X159895394Y-134751604D01*
X159270812Y-134127022D01*
X159256868Y-134119408D01*
X159255035Y-134119539D01*
X159248420Y-134123790D01*
X158625977Y-134746233D01*
X158619781Y-134757579D01*
X157357696Y-134757579D01*
X157355394Y-134751604D01*
X156730812Y-134127022D01*
X156716868Y-134119408D01*
X156715035Y-134119539D01*
X156708420Y-134123790D01*
X156085977Y-134746233D01*
X156079781Y-134757579D01*
X154817696Y-134757579D01*
X154815394Y-134751604D01*
X154190812Y-134127022D01*
X154176868Y-134119408D01*
X154175035Y-134119539D01*
X154168420Y-134123790D01*
X153545977Y-134746233D01*
X153539781Y-134757579D01*
X153124023Y-134757579D01*
X153136424Y-134748285D01*
X153148985Y-134735724D01*
X153225486Y-134633649D01*
X153234024Y-134618054D01*
X153244926Y-134588974D01*
X153246081Y-134573191D01*
X153238436Y-134559162D01*
X153215627Y-134536353D01*
X153181601Y-134474041D01*
X153186666Y-134403226D01*
X153215627Y-134358163D01*
X153817658Y-133756132D01*
X154542408Y-133756132D01*
X154542539Y-133757965D01*
X154546790Y-133764580D01*
X155170688Y-134388478D01*
X155183068Y-134395238D01*
X155189648Y-134390312D01*
X155269709Y-134247351D01*
X155274385Y-134236848D01*
X155329301Y-134075071D01*
X155370138Y-134016995D01*
X155435891Y-133990216D01*
X155505683Y-134003237D01*
X155557356Y-134051924D01*
X155570737Y-134084557D01*
X155587189Y-134149338D01*
X155591030Y-134160185D01*
X155677987Y-134348810D01*
X155683738Y-134358772D01*
X155702799Y-134385743D01*
X155713387Y-134394130D01*
X155726688Y-134387102D01*
X156345978Y-133767812D01*
X156352356Y-133756132D01*
X157082408Y-133756132D01*
X157082539Y-133757965D01*
X157086790Y-133764580D01*
X157710688Y-134388478D01*
X157723068Y-134395238D01*
X157729648Y-134390312D01*
X157809709Y-134247351D01*
X157814385Y-134236848D01*
X157869301Y-134075071D01*
X157910138Y-134016995D01*
X157975891Y-133990216D01*
X158045683Y-134003237D01*
X158097356Y-134051924D01*
X158110737Y-134084557D01*
X158127189Y-134149338D01*
X158131030Y-134160185D01*
X158217987Y-134348810D01*
X158223738Y-134358772D01*
X158242799Y-134385743D01*
X158253387Y-134394130D01*
X158266688Y-134387102D01*
X158885978Y-133767812D01*
X158892356Y-133756132D01*
X159622408Y-133756132D01*
X159622539Y-133757965D01*
X159626790Y-133764580D01*
X160250688Y-134388478D01*
X160263068Y-134395238D01*
X160269648Y-134390312D01*
X160349709Y-134247351D01*
X160354385Y-134236848D01*
X160409301Y-134075071D01*
X160450138Y-134016995D01*
X160515891Y-133990216D01*
X160585683Y-134003237D01*
X160637356Y-134051924D01*
X160650737Y-134084557D01*
X160667189Y-134149338D01*
X160671030Y-134160185D01*
X160757987Y-134348810D01*
X160763738Y-134358772D01*
X160782799Y-134385743D01*
X160793387Y-134394130D01*
X160806688Y-134387102D01*
X161425978Y-133767812D01*
X161432356Y-133756132D01*
X162162408Y-133756132D01*
X162162539Y-133757965D01*
X162166790Y-133764580D01*
X162790688Y-134388478D01*
X162803068Y-134395238D01*
X162809648Y-134390312D01*
X162889709Y-134247351D01*
X162894385Y-134236848D01*
X162961151Y-134040162D01*
X162963836Y-134028979D01*
X162993936Y-133821378D01*
X162994566Y-133813995D01*
X162996014Y-133758704D01*
X162995771Y-133751305D01*
X162976578Y-133542416D01*
X162974481Y-133531101D01*
X162918101Y-133331194D01*
X162913979Y-133320455D01*
X162822111Y-133134167D01*
X162816105Y-133124365D01*
X162814864Y-133122702D01*
X162803604Y-133114253D01*
X162791186Y-133121024D01*
X162170022Y-133742188D01*
X162162408Y-133756132D01*
X161432356Y-133756132D01*
X161433592Y-133753868D01*
X161433461Y-133752035D01*
X161429210Y-133745420D01*
X160803604Y-133119814D01*
X160791224Y-133113054D01*
X160785258Y-133117520D01*
X160693782Y-133291387D01*
X160689377Y-133302021D01*
X160648087Y-133434997D01*
X160608784Y-133494122D01*
X160543755Y-133522613D01*
X160473645Y-133511423D01*
X160420715Y-133464106D01*
X160406485Y-133431835D01*
X160378101Y-133331194D01*
X160373979Y-133320455D01*
X160282111Y-133134167D01*
X160276105Y-133124365D01*
X160274864Y-133122702D01*
X160263604Y-133114253D01*
X160251186Y-133121024D01*
X159630022Y-133742188D01*
X159622408Y-133756132D01*
X158892356Y-133756132D01*
X158893592Y-133753868D01*
X158893461Y-133752035D01*
X158889210Y-133745420D01*
X158263604Y-133119814D01*
X158251224Y-133113054D01*
X158245258Y-133117520D01*
X158153782Y-133291387D01*
X158149377Y-133302021D01*
X158108087Y-133434997D01*
X158068784Y-133494122D01*
X158003755Y-133522613D01*
X157933645Y-133511423D01*
X157880715Y-133464106D01*
X157866485Y-133431835D01*
X157838101Y-133331194D01*
X157833979Y-133320455D01*
X157742111Y-133134167D01*
X157736105Y-133124365D01*
X157734864Y-133122702D01*
X157723604Y-133114253D01*
X157711186Y-133121024D01*
X157090022Y-133742188D01*
X157082408Y-133756132D01*
X156352356Y-133756132D01*
X156353592Y-133753868D01*
X156353461Y-133752035D01*
X156349210Y-133745420D01*
X155723604Y-133119814D01*
X155711224Y-133113054D01*
X155705258Y-133117520D01*
X155613782Y-133291387D01*
X155609377Y-133302021D01*
X155568087Y-133434997D01*
X155528784Y-133494122D01*
X155463755Y-133522613D01*
X155393645Y-133511423D01*
X155340715Y-133464106D01*
X155326485Y-133431835D01*
X155298101Y-133331194D01*
X155293979Y-133320455D01*
X155202111Y-133134167D01*
X155196105Y-133124365D01*
X155194864Y-133122702D01*
X155183604Y-133114253D01*
X155171186Y-133121024D01*
X154550022Y-133742188D01*
X154542408Y-133756132D01*
X153817658Y-133756132D01*
X154809909Y-132763881D01*
X154816583Y-132751659D01*
X156078771Y-132751659D01*
X156082258Y-132760048D01*
X156705188Y-133382978D01*
X156719132Y-133390592D01*
X156720965Y-133390461D01*
X156727580Y-133386210D01*
X157349909Y-132763881D01*
X157356583Y-132751659D01*
X158618771Y-132751659D01*
X158622258Y-132760048D01*
X159245188Y-133382978D01*
X159259132Y-133390592D01*
X159260965Y-133390461D01*
X159267580Y-133386210D01*
X159889909Y-132763881D01*
X159896583Y-132751659D01*
X161158771Y-132751659D01*
X161162258Y-132760048D01*
X161785188Y-133382978D01*
X161799132Y-133390592D01*
X161800965Y-133390461D01*
X161807580Y-133386210D01*
X162429909Y-132763881D01*
X162436669Y-132751501D01*
X162430639Y-132743446D01*
X162346811Y-132690554D01*
X162336568Y-132685336D01*
X162143651Y-132608370D01*
X162132614Y-132605101D01*
X161928903Y-132564579D01*
X161917458Y-132563376D01*
X161709779Y-132560658D01*
X161698299Y-132561561D01*
X161493603Y-132596735D01*
X161482483Y-132599715D01*
X161287616Y-132671605D01*
X161277238Y-132676555D01*
X161168369Y-132741326D01*
X161158771Y-132751659D01*
X159896583Y-132751659D01*
X159896669Y-132751501D01*
X159890639Y-132743446D01*
X159806811Y-132690554D01*
X159796568Y-132685336D01*
X159603651Y-132608370D01*
X159592614Y-132605101D01*
X159388903Y-132564579D01*
X159377458Y-132563376D01*
X159169779Y-132560658D01*
X159158299Y-132561561D01*
X158953603Y-132596735D01*
X158942483Y-132599715D01*
X158747616Y-132671605D01*
X158737238Y-132676555D01*
X158628369Y-132741326D01*
X158618771Y-132751659D01*
X157356583Y-132751659D01*
X157356669Y-132751501D01*
X157350639Y-132743446D01*
X157266811Y-132690554D01*
X157256568Y-132685336D01*
X157063651Y-132608370D01*
X157052614Y-132605101D01*
X156848903Y-132564579D01*
X156837458Y-132563376D01*
X156629779Y-132560658D01*
X156618299Y-132561561D01*
X156413603Y-132596735D01*
X156402483Y-132599715D01*
X156207616Y-132671605D01*
X156197238Y-132676555D01*
X156088369Y-132741326D01*
X156078771Y-132751659D01*
X154816583Y-132751659D01*
X154816669Y-132751501D01*
X154810639Y-132743446D01*
X154726811Y-132690554D01*
X154716568Y-132685336D01*
X154523651Y-132608370D01*
X154512614Y-132605101D01*
X154308903Y-132564579D01*
X154297458Y-132563376D01*
X154089779Y-132560658D01*
X154078299Y-132561561D01*
X153873603Y-132596735D01*
X153862483Y-132599715D01*
X153667616Y-132671605D01*
X153657238Y-132676555D01*
X153478736Y-132782752D01*
X153464749Y-132792914D01*
X153463734Y-132791517D01*
X153406577Y-132818039D01*
X153336243Y-132808362D01*
X153282306Y-132762196D01*
X153269907Y-132737663D01*
X153234024Y-132641946D01*
X153225486Y-132626351D01*
X153148985Y-132524276D01*
X153136424Y-132511715D01*
X153052778Y-132449026D01*
X153010263Y-132392167D01*
X153005237Y-132321349D01*
X153039297Y-132259055D01*
X153101628Y-132225065D01*
X153128343Y-132222200D01*
X163181000Y-132222200D01*
X163249121Y-132242202D01*
G37*
G04 #@! TD.AperFunction*
G04 #@! TD*
G04 #@! TA.AperFunction,Conductor*
G04 #@! TO.N,/Alimentaci\u00F3n/5Vin*
G36*
X132122044Y-118460465D02*
G01*
X132168777Y-118513911D01*
X132180400Y-118566768D01*
X132180400Y-119986142D01*
X132160398Y-120054263D01*
X132140981Y-120077683D01*
X130363833Y-121758541D01*
X130300598Y-121790818D01*
X130277252Y-121793000D01*
X126629600Y-121793000D01*
X126561479Y-121772998D01*
X126514986Y-121719342D01*
X126503600Y-121667000D01*
X126503600Y-119657985D01*
X126523602Y-119589864D01*
X126577258Y-119543371D01*
X126629184Y-119531986D01*
X127657714Y-119528598D01*
X128731882Y-119525060D01*
X128731883Y-119525060D01*
X128750000Y-119525000D01*
X129964815Y-118480259D01*
X130029505Y-118451007D01*
X130046400Y-118449791D01*
X131561149Y-118442983D01*
X132053834Y-118440769D01*
X132122044Y-118460465D01*
G37*
G04 #@! TD.AperFunction*
G04 #@! TD*
G04 #@! TA.AperFunction,Conductor*
G04 #@! TO.N,3V3*
G36*
X145647503Y-92589598D02*
G01*
X145700601Y-92636727D01*
X145719800Y-92703581D01*
X145719800Y-93152819D01*
X145699798Y-93220940D01*
X145646142Y-93267433D01*
X145577354Y-93277741D01*
X145550747Y-93274238D01*
X145550742Y-93274238D01*
X145546658Y-93273700D01*
X144144442Y-93273700D01*
X144144442Y-93271712D01*
X144082965Y-93257959D01*
X144033059Y-93207463D01*
X144018000Y-93147729D01*
X144018000Y-92708671D01*
X144038002Y-92640550D01*
X144091658Y-92594057D01*
X144144442Y-92584373D01*
X144144442Y-92582700D01*
X145546658Y-92582700D01*
X145550742Y-92582162D01*
X145550747Y-92582162D01*
X145577354Y-92578659D01*
X145647503Y-92589598D01*
G37*
G04 #@! TD.AperFunction*
G04 #@! TD*
G04 #@! TA.AperFunction,Conductor*
G04 #@! TO.N,3V3*
G36*
X160521321Y-115488402D02*
G01*
X160567814Y-115542058D01*
X160579200Y-115594400D01*
X160579200Y-118210100D01*
X160559198Y-118278221D01*
X160505542Y-118324714D01*
X160453200Y-118336100D01*
X158413466Y-118336100D01*
X158410069Y-118336469D01*
X158359134Y-118342002D01*
X158359132Y-118342002D01*
X158351284Y-118342855D01*
X158343891Y-118345627D01*
X158343889Y-118345627D01*
X158316267Y-118355982D01*
X158272038Y-118364000D01*
X157937601Y-118364000D01*
X157937601Y-120802400D01*
X157945394Y-120802400D01*
X157956094Y-120811672D01*
X157994478Y-120871398D01*
X157994478Y-120942394D01*
X157991564Y-120951126D01*
X157963122Y-121026995D01*
X157959495Y-121042249D01*
X157953969Y-121093114D01*
X157953600Y-121099928D01*
X157953600Y-121622485D01*
X157958075Y-121637724D01*
X157959465Y-121638929D01*
X157967148Y-121640600D01*
X159589600Y-121640600D01*
X159657721Y-121660602D01*
X159704214Y-121714258D01*
X159715600Y-121766600D01*
X159715600Y-122022600D01*
X159695598Y-122090721D01*
X159641942Y-122137214D01*
X159589600Y-122148600D01*
X157971716Y-122148600D01*
X157956477Y-122153075D01*
X157955272Y-122154465D01*
X157953601Y-122162148D01*
X157953601Y-122689269D01*
X157953971Y-122696090D01*
X157959495Y-122746952D01*
X157963121Y-122762204D01*
X158008276Y-122882654D01*
X158021122Y-122906117D01*
X158018691Y-122907448D01*
X158038549Y-122960610D01*
X158023491Y-123029991D01*
X157973312Y-123080218D01*
X157953575Y-123088399D01*
X157937600Y-123088399D01*
X157937600Y-125628400D01*
X160554800Y-125628400D01*
X160622921Y-125648402D01*
X160669414Y-125702058D01*
X160680800Y-125754400D01*
X160680799Y-128194799D01*
X160660797Y-128262920D01*
X160607141Y-128309413D01*
X160554799Y-128320799D01*
X151282799Y-128320800D01*
X142010799Y-128320800D01*
X141942678Y-128300798D01*
X141896185Y-128247142D01*
X141884799Y-128194800D01*
X141884800Y-123839269D01*
X151653601Y-123839269D01*
X151653971Y-123846090D01*
X151659495Y-123896952D01*
X151663121Y-123912204D01*
X151708276Y-124032654D01*
X151716814Y-124048249D01*
X151793315Y-124150324D01*
X151805876Y-124162885D01*
X151907951Y-124239386D01*
X151923546Y-124247924D01*
X152043994Y-124293078D01*
X152059249Y-124296705D01*
X152110114Y-124302231D01*
X152116928Y-124302600D01*
X152889485Y-124302600D01*
X152904724Y-124298125D01*
X152905929Y-124296735D01*
X152907600Y-124289052D01*
X152907600Y-124284484D01*
X153415600Y-124284484D01*
X153420075Y-124299723D01*
X153421465Y-124300928D01*
X153429148Y-124302599D01*
X154206269Y-124302599D01*
X154213090Y-124302229D01*
X154263952Y-124296705D01*
X154279204Y-124293079D01*
X154399654Y-124247924D01*
X154415249Y-124239386D01*
X154517324Y-124162885D01*
X154529885Y-124150324D01*
X154606386Y-124048249D01*
X154614924Y-124032654D01*
X154660078Y-123912206D01*
X154663705Y-123896951D01*
X154669231Y-123846086D01*
X154669600Y-123839272D01*
X154669600Y-122166715D01*
X154665125Y-122151476D01*
X154663735Y-122150271D01*
X154656052Y-122148600D01*
X153433715Y-122148600D01*
X153418476Y-122153075D01*
X153417271Y-122154465D01*
X153415600Y-122162148D01*
X153415600Y-124284484D01*
X152907600Y-124284484D01*
X152907600Y-122166715D01*
X152903125Y-122151476D01*
X152901735Y-122150271D01*
X152894052Y-122148600D01*
X151671716Y-122148600D01*
X151656477Y-122153075D01*
X151655272Y-122154465D01*
X151653601Y-122162148D01*
X151653601Y-123839269D01*
X141884800Y-123839269D01*
X141884800Y-121622485D01*
X151653600Y-121622485D01*
X151658075Y-121637724D01*
X151659465Y-121638929D01*
X151667148Y-121640600D01*
X152889485Y-121640600D01*
X152904724Y-121636125D01*
X152905929Y-121634735D01*
X152907600Y-121627052D01*
X152907600Y-121622485D01*
X153415600Y-121622485D01*
X153420075Y-121637724D01*
X153421465Y-121638929D01*
X153429148Y-121640600D01*
X154651484Y-121640600D01*
X154666723Y-121636125D01*
X154667928Y-121634735D01*
X154669599Y-121627052D01*
X154669599Y-119949931D01*
X154669229Y-119943110D01*
X154663705Y-119892248D01*
X154660079Y-119876996D01*
X154614924Y-119756546D01*
X154606386Y-119740951D01*
X154529885Y-119638876D01*
X154517324Y-119626315D01*
X154415249Y-119549814D01*
X154399654Y-119541276D01*
X154279206Y-119496122D01*
X154263951Y-119492495D01*
X154213086Y-119486969D01*
X154206272Y-119486600D01*
X153433715Y-119486600D01*
X153418476Y-119491075D01*
X153417271Y-119492465D01*
X153415600Y-119500148D01*
X153415600Y-121622485D01*
X152907600Y-121622485D01*
X152907600Y-119504716D01*
X152903125Y-119489477D01*
X152901735Y-119488272D01*
X152894052Y-119486601D01*
X152116931Y-119486601D01*
X152110110Y-119486971D01*
X152059248Y-119492495D01*
X152043996Y-119496121D01*
X151923546Y-119541276D01*
X151907951Y-119549814D01*
X151805876Y-119626315D01*
X151793315Y-119638876D01*
X151716814Y-119740951D01*
X151708276Y-119756546D01*
X151663122Y-119876994D01*
X151659495Y-119892249D01*
X151653969Y-119943114D01*
X151653600Y-119949928D01*
X151653600Y-121622485D01*
X141884800Y-121622485D01*
X141884801Y-115594400D01*
X141904803Y-115526279D01*
X141958459Y-115479786D01*
X142010801Y-115468400D01*
X160453200Y-115468400D01*
X160521321Y-115488402D01*
G37*
G04 #@! TD.AperFunction*
G04 #@! TD*
G04 #@! TA.AperFunction,Conductor*
G04 #@! TO.N,/Motores_servos_PWM/Vdd_ESC*
G36*
X150201178Y-132242202D02*
G01*
X150247671Y-132295858D01*
X150257775Y-132366132D01*
X150228281Y-132430712D01*
X150208622Y-132449026D01*
X150124976Y-132511715D01*
X150112415Y-132524276D01*
X150041819Y-132618472D01*
X149984960Y-132660987D01*
X149914141Y-132666013D01*
X149894303Y-132659937D01*
X149766551Y-132608970D01*
X149755514Y-132605701D01*
X149551803Y-132565179D01*
X149540358Y-132563976D01*
X149332679Y-132561258D01*
X149321199Y-132562161D01*
X149116503Y-132597335D01*
X149105383Y-132600315D01*
X148910516Y-132672205D01*
X148900138Y-132677155D01*
X148791269Y-132741926D01*
X148781671Y-132752259D01*
X148785158Y-132760648D01*
X149691015Y-133666505D01*
X149725041Y-133728817D01*
X149719976Y-133799632D01*
X149691015Y-133844695D01*
X148788877Y-134746833D01*
X148782681Y-134758179D01*
X148792563Y-134770669D01*
X148844407Y-134805310D01*
X148854517Y-134810800D01*
X149045356Y-134892791D01*
X149056299Y-134896346D01*
X149258879Y-134942186D01*
X149270288Y-134943688D01*
X149382509Y-134948097D01*
X149449792Y-134970758D01*
X149452506Y-134974151D01*
X149485256Y-134953104D01*
X149502674Y-134949304D01*
X149694879Y-134921436D01*
X149706062Y-134918751D01*
X149902748Y-134851985D01*
X149913251Y-134847309D01*
X150038521Y-134777155D01*
X150107729Y-134761322D01*
X150175652Y-134786264D01*
X150227052Y-134824786D01*
X150242646Y-134833324D01*
X150363094Y-134878478D01*
X150378349Y-134882105D01*
X150429214Y-134887631D01*
X150436028Y-134888000D01*
X150708585Y-134888000D01*
X150723824Y-134883525D01*
X150725029Y-134882135D01*
X150726700Y-134874452D01*
X150726700Y-133502000D01*
X150746702Y-133433879D01*
X150800358Y-133387386D01*
X150852700Y-133376000D01*
X151108700Y-133376000D01*
X151176821Y-133396002D01*
X151223314Y-133449658D01*
X151234700Y-133502000D01*
X151234700Y-134869884D01*
X151239175Y-134885123D01*
X151240565Y-134886328D01*
X151250781Y-134888550D01*
X151313094Y-134922574D01*
X151347120Y-134984886D01*
X151350000Y-135011671D01*
X151350000Y-135074000D01*
X151329998Y-135142121D01*
X151276342Y-135188614D01*
X151224000Y-135200000D01*
X149520754Y-135200000D01*
X149452633Y-135179998D01*
X149446952Y-135173442D01*
X149408287Y-135196197D01*
X149377562Y-135200000D01*
X146980754Y-135200000D01*
X146912633Y-135179998D01*
X146906952Y-135173442D01*
X146868287Y-135196197D01*
X146837562Y-135200000D01*
X144440754Y-135200000D01*
X144372633Y-135179998D01*
X144366952Y-135173442D01*
X144328287Y-135196197D01*
X144297562Y-135200000D01*
X141900754Y-135200000D01*
X141832633Y-135179998D01*
X141826952Y-135173442D01*
X141788287Y-135196197D01*
X141757562Y-135200000D01*
X139360754Y-135200000D01*
X139292633Y-135179998D01*
X139286952Y-135173442D01*
X139248287Y-135196197D01*
X139217562Y-135200000D01*
X136820754Y-135200000D01*
X136752633Y-135179998D01*
X136746952Y-135173442D01*
X136708287Y-135196197D01*
X136677562Y-135200000D01*
X134280754Y-135200000D01*
X134212633Y-135179998D01*
X134206952Y-135173442D01*
X134168287Y-135196197D01*
X134137562Y-135200000D01*
X131740754Y-135200000D01*
X131672633Y-135179998D01*
X131666952Y-135173442D01*
X131628287Y-135196197D01*
X131597562Y-135200000D01*
X130571800Y-135200000D01*
X130503679Y-135179998D01*
X130457186Y-135126342D01*
X130445800Y-135074000D01*
X130445800Y-134758179D01*
X131002681Y-134758179D01*
X131012563Y-134770669D01*
X131064407Y-134805310D01*
X131074517Y-134810800D01*
X131265356Y-134892791D01*
X131276299Y-134896346D01*
X131478879Y-134942186D01*
X131490288Y-134943688D01*
X131602509Y-134948097D01*
X131669792Y-134970758D01*
X131672506Y-134974151D01*
X131705256Y-134953104D01*
X131722674Y-134949304D01*
X131914879Y-134921436D01*
X131926062Y-134918751D01*
X132122748Y-134851985D01*
X132133251Y-134847309D01*
X132271386Y-134769951D01*
X132281249Y-134759874D01*
X132280596Y-134758179D01*
X133542681Y-134758179D01*
X133552563Y-134770669D01*
X133604407Y-134805310D01*
X133614517Y-134810800D01*
X133805356Y-134892791D01*
X133816299Y-134896346D01*
X134018879Y-134942186D01*
X134030288Y-134943688D01*
X134142509Y-134948097D01*
X134209792Y-134970758D01*
X134212506Y-134974151D01*
X134245256Y-134953104D01*
X134262674Y-134949304D01*
X134454879Y-134921436D01*
X134466062Y-134918751D01*
X134662748Y-134851985D01*
X134673251Y-134847309D01*
X134811386Y-134769951D01*
X134821249Y-134759874D01*
X134820596Y-134758179D01*
X136082681Y-134758179D01*
X136092563Y-134770669D01*
X136144407Y-134805310D01*
X136154517Y-134810800D01*
X136345356Y-134892791D01*
X136356299Y-134896346D01*
X136558879Y-134942186D01*
X136570288Y-134943688D01*
X136682509Y-134948097D01*
X136749792Y-134970758D01*
X136752506Y-134974151D01*
X136785256Y-134953104D01*
X136802674Y-134949304D01*
X136994879Y-134921436D01*
X137006062Y-134918751D01*
X137202748Y-134851985D01*
X137213251Y-134847309D01*
X137351386Y-134769951D01*
X137361249Y-134759874D01*
X137360596Y-134758179D01*
X138622681Y-134758179D01*
X138632563Y-134770669D01*
X138684407Y-134805310D01*
X138694517Y-134810800D01*
X138885356Y-134892791D01*
X138896299Y-134896346D01*
X139098879Y-134942186D01*
X139110288Y-134943688D01*
X139222509Y-134948097D01*
X139289792Y-134970758D01*
X139292506Y-134974151D01*
X139325256Y-134953104D01*
X139342674Y-134949304D01*
X139534879Y-134921436D01*
X139546062Y-134918751D01*
X139742748Y-134851985D01*
X139753251Y-134847309D01*
X139891386Y-134769951D01*
X139901249Y-134759874D01*
X139900596Y-134758179D01*
X141162681Y-134758179D01*
X141172563Y-134770669D01*
X141224407Y-134805310D01*
X141234517Y-134810800D01*
X141425356Y-134892791D01*
X141436299Y-134896346D01*
X141638879Y-134942186D01*
X141650288Y-134943688D01*
X141762509Y-134948097D01*
X141829792Y-134970758D01*
X141832506Y-134974151D01*
X141865256Y-134953104D01*
X141882674Y-134949304D01*
X142074879Y-134921436D01*
X142086062Y-134918751D01*
X142282748Y-134851985D01*
X142293251Y-134847309D01*
X142431386Y-134769951D01*
X142441249Y-134759874D01*
X142440596Y-134758179D01*
X143702681Y-134758179D01*
X143712563Y-134770669D01*
X143764407Y-134805310D01*
X143774517Y-134810800D01*
X143965356Y-134892791D01*
X143976299Y-134896346D01*
X144178879Y-134942186D01*
X144190288Y-134943688D01*
X144302509Y-134948097D01*
X144369792Y-134970758D01*
X144372506Y-134974151D01*
X144405256Y-134953104D01*
X144422674Y-134949304D01*
X144614879Y-134921436D01*
X144626062Y-134918751D01*
X144822748Y-134851985D01*
X144833251Y-134847309D01*
X144971386Y-134769951D01*
X144981249Y-134759874D01*
X144980596Y-134758179D01*
X146242681Y-134758179D01*
X146252563Y-134770669D01*
X146304407Y-134805310D01*
X146314517Y-134810800D01*
X146505356Y-134892791D01*
X146516299Y-134896346D01*
X146718879Y-134942186D01*
X146730288Y-134943688D01*
X146842509Y-134948097D01*
X146909792Y-134970758D01*
X146912506Y-134974151D01*
X146945256Y-134953104D01*
X146962674Y-134949304D01*
X147154879Y-134921436D01*
X147166062Y-134918751D01*
X147362748Y-134851985D01*
X147373251Y-134847309D01*
X147511386Y-134769951D01*
X147521249Y-134759874D01*
X147518294Y-134752204D01*
X146893712Y-134127622D01*
X146879768Y-134120008D01*
X146877935Y-134120139D01*
X146871320Y-134124390D01*
X146248877Y-134746833D01*
X146242681Y-134758179D01*
X144980596Y-134758179D01*
X144978294Y-134752204D01*
X144353712Y-134127622D01*
X144339768Y-134120008D01*
X144337935Y-134120139D01*
X144331320Y-134124390D01*
X143708877Y-134746833D01*
X143702681Y-134758179D01*
X142440596Y-134758179D01*
X142438294Y-134752204D01*
X141813712Y-134127622D01*
X141799768Y-134120008D01*
X141797935Y-134120139D01*
X141791320Y-134124390D01*
X141168877Y-134746833D01*
X141162681Y-134758179D01*
X139900596Y-134758179D01*
X139898294Y-134752204D01*
X139273712Y-134127622D01*
X139259768Y-134120008D01*
X139257935Y-134120139D01*
X139251320Y-134124390D01*
X138628877Y-134746833D01*
X138622681Y-134758179D01*
X137360596Y-134758179D01*
X137358294Y-134752204D01*
X136733712Y-134127622D01*
X136719768Y-134120008D01*
X136717935Y-134120139D01*
X136711320Y-134124390D01*
X136088877Y-134746833D01*
X136082681Y-134758179D01*
X134820596Y-134758179D01*
X134818294Y-134752204D01*
X134193712Y-134127622D01*
X134179768Y-134120008D01*
X134177935Y-134120139D01*
X134171320Y-134124390D01*
X133548877Y-134746833D01*
X133542681Y-134758179D01*
X132280596Y-134758179D01*
X132278294Y-134752204D01*
X131653712Y-134127622D01*
X131639768Y-134120008D01*
X131637935Y-134120139D01*
X131631320Y-134124390D01*
X131008877Y-134746833D01*
X131002681Y-134758179D01*
X130445800Y-134758179D01*
X130445800Y-134504390D01*
X130465802Y-134436269D01*
X130519458Y-134389776D01*
X130589732Y-134379672D01*
X130625155Y-134394917D01*
X130634231Y-134395816D01*
X130649588Y-134387702D01*
X131268878Y-133768412D01*
X131275256Y-133756732D01*
X132005308Y-133756732D01*
X132005439Y-133758565D01*
X132009690Y-133765180D01*
X132633588Y-134389078D01*
X132645968Y-134395838D01*
X132652548Y-134390912D01*
X132732609Y-134247951D01*
X132737285Y-134237448D01*
X132792201Y-134075671D01*
X132833038Y-134017595D01*
X132898791Y-133990816D01*
X132968583Y-134003837D01*
X133020256Y-134052524D01*
X133033637Y-134085157D01*
X133050089Y-134149938D01*
X133053930Y-134160785D01*
X133140887Y-134349410D01*
X133146638Y-134359372D01*
X133165699Y-134386343D01*
X133176287Y-134394730D01*
X133189588Y-134387702D01*
X133808878Y-133768412D01*
X133815256Y-133756732D01*
X134545308Y-133756732D01*
X134545439Y-133758565D01*
X134549690Y-133765180D01*
X135173588Y-134389078D01*
X135185968Y-134395838D01*
X135192548Y-134390912D01*
X135272609Y-134247951D01*
X135277285Y-134237448D01*
X135332201Y-134075671D01*
X135373038Y-134017595D01*
X135438791Y-133990816D01*
X135508583Y-134003837D01*
X135560256Y-134052524D01*
X135573637Y-134085157D01*
X135590089Y-134149938D01*
X135593930Y-134160785D01*
X135680887Y-134349410D01*
X135686638Y-134359372D01*
X135705699Y-134386343D01*
X135716287Y-134394730D01*
X135729588Y-134387702D01*
X136348878Y-133768412D01*
X136355256Y-133756732D01*
X137085308Y-133756732D01*
X137085439Y-133758565D01*
X137089690Y-133765180D01*
X137713588Y-134389078D01*
X137725968Y-134395838D01*
X137732548Y-134390912D01*
X137812609Y-134247951D01*
X137817285Y-134237448D01*
X137872201Y-134075671D01*
X137913038Y-134017595D01*
X137978791Y-133990816D01*
X138048583Y-134003837D01*
X138100256Y-134052524D01*
X138113637Y-134085157D01*
X138130089Y-134149938D01*
X138133930Y-134160785D01*
X138220887Y-134349410D01*
X138226638Y-134359372D01*
X138245699Y-134386343D01*
X138256287Y-134394730D01*
X138269588Y-134387702D01*
X138888878Y-133768412D01*
X138895256Y-133756732D01*
X139625308Y-133756732D01*
X139625439Y-133758565D01*
X139629690Y-133765180D01*
X140253588Y-134389078D01*
X140265968Y-134395838D01*
X140272548Y-134390912D01*
X140352609Y-134247951D01*
X140357285Y-134237448D01*
X140412201Y-134075671D01*
X140453038Y-134017595D01*
X140518791Y-133990816D01*
X140588583Y-134003837D01*
X140640256Y-134052524D01*
X140653637Y-134085157D01*
X140670089Y-134149938D01*
X140673930Y-134160785D01*
X140760887Y-134349410D01*
X140766638Y-134359372D01*
X140785699Y-134386343D01*
X140796287Y-134394730D01*
X140809588Y-134387702D01*
X141428878Y-133768412D01*
X141435256Y-133756732D01*
X142165308Y-133756732D01*
X142165439Y-133758565D01*
X142169690Y-133765180D01*
X142793588Y-134389078D01*
X142805968Y-134395838D01*
X142812548Y-134390912D01*
X142892609Y-134247951D01*
X142897285Y-134237448D01*
X142952201Y-134075671D01*
X142993038Y-134017595D01*
X143058791Y-133990816D01*
X143128583Y-134003837D01*
X143180256Y-134052524D01*
X143193637Y-134085157D01*
X143210089Y-134149938D01*
X143213930Y-134160785D01*
X143300887Y-134349410D01*
X143306638Y-134359372D01*
X143325699Y-134386343D01*
X143336287Y-134394730D01*
X143349588Y-134387702D01*
X143968878Y-133768412D01*
X143975256Y-133756732D01*
X144705308Y-133756732D01*
X144705439Y-133758565D01*
X144709690Y-133765180D01*
X145333588Y-134389078D01*
X145345968Y-134395838D01*
X145352548Y-134390912D01*
X145432609Y-134247951D01*
X145437285Y-134237448D01*
X145492201Y-134075671D01*
X145533038Y-134017595D01*
X145598791Y-133990816D01*
X145668583Y-134003837D01*
X145720256Y-134052524D01*
X145733637Y-134085157D01*
X145750089Y-134149938D01*
X145753930Y-134160785D01*
X145840887Y-134349410D01*
X145846638Y-134359372D01*
X145865699Y-134386343D01*
X145876287Y-134394730D01*
X145889588Y-134387702D01*
X146508878Y-133768412D01*
X146515256Y-133756732D01*
X147245308Y-133756732D01*
X147245439Y-133758565D01*
X147249690Y-133765180D01*
X147873588Y-134389078D01*
X147885968Y-134395838D01*
X147892548Y-134390912D01*
X147972609Y-134247951D01*
X147977285Y-134237448D01*
X148032201Y-134075671D01*
X148073038Y-134017595D01*
X148138791Y-133990816D01*
X148208583Y-134003837D01*
X148260256Y-134052524D01*
X148273637Y-134085157D01*
X148290089Y-134149938D01*
X148293930Y-134160785D01*
X148380887Y-134349410D01*
X148386638Y-134359372D01*
X148405699Y-134386343D01*
X148416287Y-134394730D01*
X148429588Y-134387702D01*
X149048878Y-133768412D01*
X149056492Y-133754468D01*
X149056361Y-133752635D01*
X149052110Y-133746020D01*
X148426504Y-133120414D01*
X148414124Y-133113654D01*
X148408158Y-133118120D01*
X148316682Y-133291987D01*
X148312277Y-133302621D01*
X148270987Y-133435597D01*
X148231684Y-133494722D01*
X148166655Y-133523213D01*
X148096545Y-133512023D01*
X148043615Y-133464706D01*
X148029385Y-133432435D01*
X148001001Y-133331794D01*
X147996879Y-133321055D01*
X147905011Y-133134767D01*
X147899005Y-133124965D01*
X147897764Y-133123302D01*
X147886504Y-133114853D01*
X147874086Y-133121624D01*
X147252922Y-133742788D01*
X147245308Y-133756732D01*
X146515256Y-133756732D01*
X146516492Y-133754468D01*
X146516361Y-133752635D01*
X146512110Y-133746020D01*
X145886504Y-133120414D01*
X145874124Y-133113654D01*
X145868158Y-133118120D01*
X145776682Y-133291987D01*
X145772277Y-133302621D01*
X145730987Y-133435597D01*
X145691684Y-133494722D01*
X145626655Y-133523213D01*
X145556545Y-133512023D01*
X145503615Y-133464706D01*
X145489385Y-133432435D01*
X145461001Y-133331794D01*
X145456879Y-133321055D01*
X145365011Y-133134767D01*
X145359005Y-133124965D01*
X145357764Y-133123302D01*
X145346504Y-133114853D01*
X145334086Y-133121624D01*
X144712922Y-133742788D01*
X144705308Y-133756732D01*
X143975256Y-133756732D01*
X143976492Y-133754468D01*
X143976361Y-133752635D01*
X143972110Y-133746020D01*
X143346504Y-133120414D01*
X143334124Y-133113654D01*
X143328158Y-133118120D01*
X143236682Y-133291987D01*
X143232277Y-133302621D01*
X143190987Y-133435597D01*
X143151684Y-133494722D01*
X143086655Y-133523213D01*
X143016545Y-133512023D01*
X142963615Y-133464706D01*
X142949385Y-133432435D01*
X142921001Y-133331794D01*
X142916879Y-133321055D01*
X142825011Y-133134767D01*
X142819005Y-133124965D01*
X142817764Y-133123302D01*
X142806504Y-133114853D01*
X142794086Y-133121624D01*
X142172922Y-133742788D01*
X142165308Y-133756732D01*
X141435256Y-133756732D01*
X141436492Y-133754468D01*
X141436361Y-133752635D01*
X141432110Y-133746020D01*
X140806504Y-133120414D01*
X140794124Y-133113654D01*
X140788158Y-133118120D01*
X140696682Y-133291987D01*
X140692277Y-133302621D01*
X140650987Y-133435597D01*
X140611684Y-133494722D01*
X140546655Y-133523213D01*
X140476545Y-133512023D01*
X140423615Y-133464706D01*
X140409385Y-133432435D01*
X140381001Y-133331794D01*
X140376879Y-133321055D01*
X140285011Y-133134767D01*
X140279005Y-133124965D01*
X140277764Y-133123302D01*
X140266504Y-133114853D01*
X140254086Y-133121624D01*
X139632922Y-133742788D01*
X139625308Y-133756732D01*
X138895256Y-133756732D01*
X138896492Y-133754468D01*
X138896361Y-133752635D01*
X138892110Y-133746020D01*
X138266504Y-133120414D01*
X138254124Y-133113654D01*
X138248158Y-133118120D01*
X138156682Y-133291987D01*
X138152277Y-133302621D01*
X138110987Y-133435597D01*
X138071684Y-133494722D01*
X138006655Y-133523213D01*
X137936545Y-133512023D01*
X137883615Y-133464706D01*
X137869385Y-133432435D01*
X137841001Y-133331794D01*
X137836879Y-133321055D01*
X137745011Y-133134767D01*
X137739005Y-133124965D01*
X137737764Y-133123302D01*
X137726504Y-133114853D01*
X137714086Y-133121624D01*
X137092922Y-133742788D01*
X137085308Y-133756732D01*
X136355256Y-133756732D01*
X136356492Y-133754468D01*
X136356361Y-133752635D01*
X136352110Y-133746020D01*
X135726504Y-133120414D01*
X135714124Y-133113654D01*
X135708158Y-133118120D01*
X135616682Y-133291987D01*
X135612277Y-133302621D01*
X135570987Y-133435597D01*
X135531684Y-133494722D01*
X135466655Y-133523213D01*
X135396545Y-133512023D01*
X135343615Y-133464706D01*
X135329385Y-133432435D01*
X135301001Y-133331794D01*
X135296879Y-133321055D01*
X135205011Y-133134767D01*
X135199005Y-133124965D01*
X135197764Y-133123302D01*
X135186504Y-133114853D01*
X135174086Y-133121624D01*
X134552922Y-133742788D01*
X134545308Y-133756732D01*
X133815256Y-133756732D01*
X133816492Y-133754468D01*
X133816361Y-133752635D01*
X133812110Y-133746020D01*
X133186504Y-133120414D01*
X133174124Y-133113654D01*
X133168158Y-133118120D01*
X133076682Y-133291987D01*
X133072277Y-133302621D01*
X133030987Y-133435597D01*
X132991684Y-133494722D01*
X132926655Y-133523213D01*
X132856545Y-133512023D01*
X132803615Y-133464706D01*
X132789385Y-133432435D01*
X132761001Y-133331794D01*
X132756879Y-133321055D01*
X132665011Y-133134767D01*
X132659005Y-133124965D01*
X132657764Y-133123302D01*
X132646504Y-133114853D01*
X132634086Y-133121624D01*
X132012922Y-133742788D01*
X132005308Y-133756732D01*
X131275256Y-133756732D01*
X131276492Y-133754468D01*
X131276361Y-133752635D01*
X131272110Y-133746020D01*
X130646504Y-133120414D01*
X130632560Y-133112800D01*
X130620903Y-133113633D01*
X130580790Y-133128595D01*
X130511415Y-133113504D01*
X130461213Y-133063302D01*
X130445800Y-133002916D01*
X130445800Y-132752259D01*
X131001671Y-132752259D01*
X131005158Y-132760648D01*
X131628088Y-133383578D01*
X131642032Y-133391192D01*
X131643865Y-133391061D01*
X131650480Y-133386810D01*
X132272809Y-132764481D01*
X132279483Y-132752259D01*
X133541671Y-132752259D01*
X133545158Y-132760648D01*
X134168088Y-133383578D01*
X134182032Y-133391192D01*
X134183865Y-133391061D01*
X134190480Y-133386810D01*
X134812809Y-132764481D01*
X134819483Y-132752259D01*
X136081671Y-132752259D01*
X136085158Y-132760648D01*
X136708088Y-133383578D01*
X136722032Y-133391192D01*
X136723865Y-133391061D01*
X136730480Y-133386810D01*
X137352809Y-132764481D01*
X137359483Y-132752259D01*
X138621671Y-132752259D01*
X138625158Y-132760648D01*
X139248088Y-133383578D01*
X139262032Y-133391192D01*
X139263865Y-133391061D01*
X139270480Y-133386810D01*
X139892809Y-132764481D01*
X139899483Y-132752259D01*
X141161671Y-132752259D01*
X141165158Y-132760648D01*
X141788088Y-133383578D01*
X141802032Y-133391192D01*
X141803865Y-133391061D01*
X141810480Y-133386810D01*
X142432809Y-132764481D01*
X142439483Y-132752259D01*
X143701671Y-132752259D01*
X143705158Y-132760648D01*
X144328088Y-133383578D01*
X144342032Y-133391192D01*
X144343865Y-133391061D01*
X144350480Y-133386810D01*
X144972809Y-132764481D01*
X144979483Y-132752259D01*
X146241671Y-132752259D01*
X146245158Y-132760648D01*
X146868088Y-133383578D01*
X146882032Y-133391192D01*
X146883865Y-133391061D01*
X146890480Y-133386810D01*
X147512809Y-132764481D01*
X147519569Y-132752101D01*
X147513539Y-132744046D01*
X147429711Y-132691154D01*
X147419468Y-132685936D01*
X147226551Y-132608970D01*
X147215514Y-132605701D01*
X147011803Y-132565179D01*
X147000358Y-132563976D01*
X146792679Y-132561258D01*
X146781199Y-132562161D01*
X146576503Y-132597335D01*
X146565383Y-132600315D01*
X146370516Y-132672205D01*
X146360138Y-132677155D01*
X146251269Y-132741926D01*
X146241671Y-132752259D01*
X144979483Y-132752259D01*
X144979569Y-132752101D01*
X144973539Y-132744046D01*
X144889711Y-132691154D01*
X144879468Y-132685936D01*
X144686551Y-132608970D01*
X144675514Y-132605701D01*
X144471803Y-132565179D01*
X144460358Y-132563976D01*
X144252679Y-132561258D01*
X144241199Y-132562161D01*
X144036503Y-132597335D01*
X144025383Y-132600315D01*
X143830516Y-132672205D01*
X143820138Y-132677155D01*
X143711269Y-132741926D01*
X143701671Y-132752259D01*
X142439483Y-132752259D01*
X142439569Y-132752101D01*
X142433539Y-132744046D01*
X142349711Y-132691154D01*
X142339468Y-132685936D01*
X142146551Y-132608970D01*
X142135514Y-132605701D01*
X141931803Y-132565179D01*
X141920358Y-132563976D01*
X141712679Y-132561258D01*
X141701199Y-132562161D01*
X141496503Y-132597335D01*
X141485383Y-132600315D01*
X141290516Y-132672205D01*
X141280138Y-132677155D01*
X141171269Y-132741926D01*
X141161671Y-132752259D01*
X139899483Y-132752259D01*
X139899569Y-132752101D01*
X139893539Y-132744046D01*
X139809711Y-132691154D01*
X139799468Y-132685936D01*
X139606551Y-132608970D01*
X139595514Y-132605701D01*
X139391803Y-132565179D01*
X139380358Y-132563976D01*
X139172679Y-132561258D01*
X139161199Y-132562161D01*
X138956503Y-132597335D01*
X138945383Y-132600315D01*
X138750516Y-132672205D01*
X138740138Y-132677155D01*
X138631269Y-132741926D01*
X138621671Y-132752259D01*
X137359483Y-132752259D01*
X137359569Y-132752101D01*
X137353539Y-132744046D01*
X137269711Y-132691154D01*
X137259468Y-132685936D01*
X137066551Y-132608970D01*
X137055514Y-132605701D01*
X136851803Y-132565179D01*
X136840358Y-132563976D01*
X136632679Y-132561258D01*
X136621199Y-132562161D01*
X136416503Y-132597335D01*
X136405383Y-132600315D01*
X136210516Y-132672205D01*
X136200138Y-132677155D01*
X136091269Y-132741926D01*
X136081671Y-132752259D01*
X134819483Y-132752259D01*
X134819569Y-132752101D01*
X134813539Y-132744046D01*
X134729711Y-132691154D01*
X134719468Y-132685936D01*
X134526551Y-132608970D01*
X134515514Y-132605701D01*
X134311803Y-132565179D01*
X134300358Y-132563976D01*
X134092679Y-132561258D01*
X134081199Y-132562161D01*
X133876503Y-132597335D01*
X133865383Y-132600315D01*
X133670516Y-132672205D01*
X133660138Y-132677155D01*
X133551269Y-132741926D01*
X133541671Y-132752259D01*
X132279483Y-132752259D01*
X132279569Y-132752101D01*
X132273539Y-132744046D01*
X132189711Y-132691154D01*
X132179468Y-132685936D01*
X131986551Y-132608970D01*
X131975514Y-132605701D01*
X131771803Y-132565179D01*
X131760358Y-132563976D01*
X131552679Y-132561258D01*
X131541199Y-132562161D01*
X131336503Y-132597335D01*
X131325383Y-132600315D01*
X131130516Y-132672205D01*
X131120138Y-132677155D01*
X131011269Y-132741926D01*
X131001671Y-132752259D01*
X130445800Y-132752259D01*
X130445800Y-132348200D01*
X130465802Y-132280079D01*
X130519458Y-132233586D01*
X130571800Y-132222200D01*
X150133057Y-132222200D01*
X150201178Y-132242202D01*
G37*
G04 #@! TD.AperFunction*
G04 #@! TD*
M02*
