G04 #@! TF.GenerationSoftware,KiCad,Pcbnew,6.0.11-2627ca5db0~126~ubuntu22.04.1*
G04 #@! TF.CreationDate,2023-09-19T13:50:51-03:00*
G04 #@! TF.ProjectId,Drone FCC,44726f6e-6520-4464-9343-2e6b69636164,rev?*
G04 #@! TF.SameCoordinates,Original*
G04 #@! TF.FileFunction,Soldermask,Bot*
G04 #@! TF.FilePolarity,Negative*
%FSLAX46Y46*%
G04 Gerber Fmt 4.6, Leading zero omitted, Abs format (unit mm)*
G04 Created by KiCad (PCBNEW 6.0.11-2627ca5db0~126~ubuntu22.04.1) date 2023-09-19 13:50:51*
%MOMM*%
%LPD*%
G01*
G04 APERTURE LIST*
%ADD10C,1.370000*%
%ADD11R,1.370000X1.370000*%
%ADD12R,1.700000X1.700000*%
%ADD13O,1.700000X1.700000*%
%ADD14C,6.400000*%
%ADD15C,3.600000*%
%ADD16R,1.950000X1.950000*%
%ADD17C,1.950000*%
%ADD18O,1.700000X1.000000*%
%ADD19C,1.450000*%
G04 APERTURE END LIST*
D10*
G04 #@! TO.C,J14*
X161798000Y-131215000D03*
X161798000Y-133755000D03*
D11*
X161798000Y-136295000D03*
G04 #@! TD*
D12*
G04 #@! TO.C,J20*
X129159000Y-112989600D03*
D13*
X126619000Y-112989600D03*
X129159000Y-110449600D03*
X126619000Y-110449600D03*
X129159000Y-107909600D03*
X126619000Y-107909600D03*
G04 #@! TD*
D12*
G04 #@! TO.C,J28*
X175706000Y-108767800D03*
D13*
X178246000Y-108767800D03*
X175706000Y-111307800D03*
X178246000Y-111307800D03*
X175706000Y-113847800D03*
X178246000Y-113847800D03*
X175706000Y-116387800D03*
X178246000Y-116387800D03*
G04 #@! TD*
D12*
G04 #@! TO.C,J23*
X129159000Y-105369600D03*
D13*
X126619000Y-105369600D03*
X129159000Y-102829600D03*
X126619000Y-102829600D03*
X129159000Y-100289600D03*
X126619000Y-100289600D03*
G04 #@! TD*
D10*
G04 #@! TO.C,J12*
X156718000Y-131215000D03*
X156718000Y-133755000D03*
D11*
X156718000Y-136295000D03*
G04 #@! TD*
D10*
G04 #@! TO.C,J9*
X149420900Y-131215600D03*
X149420900Y-133755600D03*
D11*
X149420900Y-136295600D03*
G04 #@! TD*
D10*
G04 #@! TO.C,J11*
X154178000Y-131215000D03*
X154178000Y-133755000D03*
D11*
X154178000Y-136295000D03*
G04 #@! TD*
D10*
G04 #@! TO.C,J7*
X144340900Y-131215600D03*
X144340900Y-133755600D03*
D11*
X144340900Y-136295600D03*
G04 #@! TD*
D12*
G04 #@! TO.C,J29*
X175706000Y-93527800D03*
D13*
X178246000Y-93527800D03*
X175706000Y-96067800D03*
X178246000Y-96067800D03*
X175706000Y-98607800D03*
X178246000Y-98607800D03*
X175706000Y-101147800D03*
X178246000Y-101147800D03*
X175706000Y-103687800D03*
X178246000Y-103687800D03*
X175706000Y-106227800D03*
X178246000Y-106227800D03*
G04 #@! TD*
D14*
G04 #@! TO.C,H2*
X178824400Y-54381400D03*
D15*
X178824400Y-54381400D03*
G04 #@! TD*
D12*
G04 #@! TO.C,J27*
X129159000Y-97749600D03*
D13*
X126619000Y-97749600D03*
X129159000Y-95209600D03*
X126619000Y-95209600D03*
X129159000Y-92669600D03*
X126619000Y-92669600D03*
X129159000Y-90129600D03*
X126619000Y-90129600D03*
G04 #@! TD*
D10*
G04 #@! TO.C,J2*
X131640900Y-131215600D03*
X131640900Y-133755600D03*
D11*
X131640900Y-136295600D03*
G04 #@! TD*
D16*
G04 #@! TO.C,J10*
X171605900Y-135865200D03*
D17*
X166605900Y-135865200D03*
G04 #@! TD*
D14*
G04 #@! TO.C,H1*
X126224400Y-54381400D03*
D15*
X126224400Y-54381400D03*
G04 #@! TD*
D12*
G04 #@! TO.C,J18*
X178246000Y-85907800D03*
D13*
X178246000Y-88447800D03*
X178246000Y-90987800D03*
G04 #@! TD*
D10*
G04 #@! TO.C,J4*
X136720900Y-131215600D03*
X136720900Y-133755600D03*
D11*
X136720900Y-136295600D03*
G04 #@! TD*
D10*
G04 #@! TO.C,J5*
X139260900Y-131215600D03*
X139260900Y-133755600D03*
D11*
X139260900Y-136295600D03*
G04 #@! TD*
D12*
G04 #@! TO.C,J26*
X175706000Y-118927800D03*
D13*
X178246000Y-118927800D03*
X175706000Y-121467800D03*
X178246000Y-121467800D03*
X175706000Y-124007800D03*
X178246000Y-124007800D03*
X175706000Y-126547800D03*
X178246000Y-126547800D03*
X175706000Y-129087800D03*
X178246000Y-129087800D03*
G04 #@! TD*
D15*
G04 #@! TO.C,H3*
X126224400Y-136880600D03*
D14*
X126224400Y-136880600D03*
G04 #@! TD*
D18*
G04 #@! TO.C,J25*
X180771800Y-75188000D03*
X180771800Y-82188000D03*
D19*
X178071800Y-76188000D03*
X178071800Y-81188000D03*
G04 #@! TD*
D10*
G04 #@! TO.C,J6*
X141800900Y-131215600D03*
X141800900Y-133755600D03*
D11*
X141800900Y-136295600D03*
G04 #@! TD*
D10*
G04 #@! TO.C,J3*
X134180900Y-131215600D03*
X134180900Y-133755600D03*
D11*
X134180900Y-136295600D03*
G04 #@! TD*
D14*
G04 #@! TO.C,H4*
X178824400Y-136880600D03*
D15*
X178824400Y-136880600D03*
G04 #@! TD*
D10*
G04 #@! TO.C,J8*
X146880900Y-131215600D03*
X146880900Y-133755600D03*
D11*
X146880900Y-136295600D03*
G04 #@! TD*
D12*
G04 #@! TO.C,J1*
X180472000Y-69962000D03*
D13*
X177932000Y-69962000D03*
X180472000Y-67422000D03*
X177932000Y-67422000D03*
X180472000Y-64882000D03*
X177932000Y-64882000D03*
G04 #@! TD*
D10*
G04 #@! TO.C,J13*
X159258000Y-131215000D03*
X159258000Y-133755000D03*
D11*
X159258000Y-136295000D03*
G04 #@! TD*
M02*
