G04 #@! TF.GenerationSoftware,KiCad,Pcbnew,6.0.11-2627ca5db0~126~ubuntu20.04.1*
G04 #@! TF.CreationDate,2023-09-04T21:17:00-03:00*
G04 #@! TF.ProjectId,Drone FCC,44726f6e-6520-4464-9343-2e6b69636164,rev?*
G04 #@! TF.SameCoordinates,Original*
G04 #@! TF.FileFunction,Copper,L4,Bot*
G04 #@! TF.FilePolarity,Positive*
%FSLAX46Y46*%
G04 Gerber Fmt 4.6, Leading zero omitted, Abs format (unit mm)*
G04 Created by KiCad (PCBNEW 6.0.11-2627ca5db0~126~ubuntu20.04.1) date 2023-09-04 21:17:00*
%MOMM*%
%LPD*%
G01*
G04 APERTURE LIST*
G04 #@! TA.AperFunction,ComponentPad*
%ADD10C,1.370000*%
G04 #@! TD*
G04 #@! TA.AperFunction,ComponentPad*
%ADD11R,1.370000X1.370000*%
G04 #@! TD*
G04 #@! TA.AperFunction,ComponentPad*
%ADD12R,1.700000X1.700000*%
G04 #@! TD*
G04 #@! TA.AperFunction,ComponentPad*
%ADD13O,1.700000X1.700000*%
G04 #@! TD*
G04 #@! TA.AperFunction,ConnectorPad*
%ADD14C,6.400000*%
G04 #@! TD*
G04 #@! TA.AperFunction,ComponentPad*
%ADD15C,3.600000*%
G04 #@! TD*
G04 #@! TA.AperFunction,ComponentPad*
%ADD16R,1.950000X1.950000*%
G04 #@! TD*
G04 #@! TA.AperFunction,ComponentPad*
%ADD17C,1.950000*%
G04 #@! TD*
G04 #@! TA.AperFunction,ComponentPad*
%ADD18O,1.700000X1.000000*%
G04 #@! TD*
G04 #@! TA.AperFunction,ComponentPad*
%ADD19C,1.450000*%
G04 #@! TD*
G04 #@! TA.AperFunction,ViaPad*
%ADD20C,0.800000*%
G04 #@! TD*
G04 #@! TA.AperFunction,Conductor*
%ADD21C,0.200000*%
G04 #@! TD*
G04 APERTURE END LIST*
D10*
G04 #@! TO.P,J14,1,Pin_1*
G04 #@! TO.N,/MCU/TIM4_CH4*
X161392400Y-131215600D03*
G04 #@! TO.P,J14,2,Pin_2*
G04 #@! TO.N,/Motores_servos_PWM/Vdd_servos*
X161392400Y-133755600D03*
D11*
G04 #@! TO.P,J14,3,Pin_3*
G04 #@! TO.N,GND*
X161392400Y-136295600D03*
G04 #@! TD*
D12*
G04 #@! TO.P,J20,1,Pin_1*
G04 #@! TO.N,3V3*
X129159000Y-112989600D03*
D13*
G04 #@! TO.P,J20,2,Pin_2*
G04 #@! TO.N,unconnected-(J20-Pad2)*
X126619000Y-112989600D03*
G04 #@! TO.P,J20,3,Pin_3*
G04 #@! TO.N,GND*
X129159000Y-110449600D03*
G04 #@! TO.P,J20,4,Pin_4*
G04 #@! TO.N,/Sensores/GNSS_SDA*
X126619000Y-110449600D03*
G04 #@! TO.P,J20,5,Pin_5*
G04 #@! TO.N,/Sensores/MAG_INT_DATA_RDY*
X129159000Y-107909600D03*
G04 #@! TO.P,J20,6,Pin_6*
G04 #@! TO.N,/Sensores/GNSS_SCL*
X126619000Y-107909600D03*
G04 #@! TD*
D12*
G04 #@! TO.P,J28,1,Pin_1*
G04 #@! TO.N,5V*
X175706000Y-108767800D03*
D13*
G04 #@! TO.P,J28,2,Pin_2*
X178246000Y-108767800D03*
G04 #@! TO.P,J28,3,Pin_3*
G04 #@! TO.N,GND*
X175706000Y-111307800D03*
G04 #@! TO.P,J28,4,Pin_4*
X178246000Y-111307800D03*
G04 #@! TO.P,J28,5,Pin_5*
X175706000Y-113847800D03*
G04 #@! TO.P,J28,6,Pin_6*
X178246000Y-113847800D03*
G04 #@! TO.P,J28,7,Pin_7*
G04 #@! TO.N,3V3*
X175706000Y-116387800D03*
G04 #@! TO.P,J28,8,Pin_8*
X178246000Y-116387800D03*
G04 #@! TD*
D12*
G04 #@! TO.P,J23,1,Pin_1*
G04 #@! TO.N,3V3*
X129159000Y-105369600D03*
D13*
G04 #@! TO.P,J23,2,Pin_2*
G04 #@! TO.N,/Sensores/GNSS_PPS*
X126619000Y-105369600D03*
G04 #@! TO.P,J23,3,Pin_3*
G04 #@! TO.N,GND*
X129159000Y-102829600D03*
G04 #@! TO.P,J23,4,Pin_4*
G04 #@! TO.N,/Sensores/GNSS_Rx*
X126619000Y-102829600D03*
G04 #@! TO.P,J23,5,Pin_5*
G04 #@! TO.N,5V*
X129159000Y-100289600D03*
G04 #@! TO.P,J23,6,Pin_6*
G04 #@! TO.N,/Sensores/GNSS_Tx*
X126619000Y-100289600D03*
G04 #@! TD*
D10*
G04 #@! TO.P,J12,1,Pin_1*
G04 #@! TO.N,/MCU/TIM4_CH2*
X156312400Y-131215600D03*
G04 #@! TO.P,J12,2,Pin_2*
G04 #@! TO.N,/Motores_servos_PWM/Vdd_servos*
X156312400Y-133755600D03*
D11*
G04 #@! TO.P,J12,3,Pin_3*
G04 #@! TO.N,GND*
X156312400Y-136295600D03*
G04 #@! TD*
D10*
G04 #@! TO.P,J9,1,Pin_1*
G04 #@! TO.N,/MCU/TIM1_CH4*
X149420900Y-131215600D03*
G04 #@! TO.P,J9,2,Pin_2*
G04 #@! TO.N,/Motores_servos_PWM/Vdd_ESC*
X149420900Y-133755600D03*
D11*
G04 #@! TO.P,J9,3,Pin_3*
G04 #@! TO.N,GND*
X149420900Y-136295600D03*
G04 #@! TD*
D10*
G04 #@! TO.P,J11,1,Pin_1*
G04 #@! TO.N,/MCU/TIM4_CH1*
X153772400Y-131215600D03*
G04 #@! TO.P,J11,2,Pin_2*
G04 #@! TO.N,/Motores_servos_PWM/Vdd_servos*
X153772400Y-133755600D03*
D11*
G04 #@! TO.P,J11,3,Pin_3*
G04 #@! TO.N,GND*
X153772400Y-136295600D03*
G04 #@! TD*
D10*
G04 #@! TO.P,J7,1,Pin_1*
G04 #@! TO.N,/MCU/TIM1_CH2*
X144340900Y-131215600D03*
G04 #@! TO.P,J7,2,Pin_2*
G04 #@! TO.N,/Motores_servos_PWM/Vdd_ESC*
X144340900Y-133755600D03*
D11*
G04 #@! TO.P,J7,3,Pin_3*
G04 #@! TO.N,GND*
X144340900Y-136295600D03*
G04 #@! TD*
D12*
G04 #@! TO.P,J29,1,Pin_1*
G04 #@! TO.N,GND*
X175706000Y-93527800D03*
D13*
G04 #@! TO.P,J29,2,Pin_2*
G04 #@! TO.N,/Conexiones_extra/UARTC_TX*
X178246000Y-93527800D03*
G04 #@! TO.P,J29,3,Pin_3*
G04 #@! TO.N,3V3*
X175706000Y-96067800D03*
G04 #@! TO.P,J29,4,Pin_4*
G04 #@! TO.N,/Conexiones_extra/UARTC_RX*
X178246000Y-96067800D03*
G04 #@! TO.P,J29,5,Pin_5*
G04 #@! TO.N,GND*
X175706000Y-98607800D03*
G04 #@! TO.P,J29,6,Pin_6*
G04 #@! TO.N,/Conexiones_extra/UARTB_TX*
X178246000Y-98607800D03*
G04 #@! TO.P,J29,7,Pin_7*
G04 #@! TO.N,3V3*
X175706000Y-101147800D03*
G04 #@! TO.P,J29,8,Pin_8*
G04 #@! TO.N,/Conexiones_extra/UARTB_RX*
X178246000Y-101147800D03*
G04 #@! TO.P,J29,9,Pin_9*
G04 #@! TO.N,GND*
X175706000Y-103687800D03*
G04 #@! TO.P,J29,10,Pin_10*
G04 #@! TO.N,/Conexiones_extra/UARTA_TX*
X178246000Y-103687800D03*
G04 #@! TO.P,J29,11,Pin_11*
G04 #@! TO.N,3V3*
X175706000Y-106227800D03*
G04 #@! TO.P,J29,12,Pin_12*
G04 #@! TO.N,/Conexiones_extra/UARTA_RX*
X178246000Y-106227800D03*
G04 #@! TD*
D14*
G04 #@! TO.P,H2,1,1*
G04 #@! TO.N,/Chassis_Bond_2*
X178824400Y-54381400D03*
D15*
X178824400Y-54381400D03*
G04 #@! TD*
D12*
G04 #@! TO.P,J27,1,Pin_1*
G04 #@! TO.N,5V*
X129159000Y-97749600D03*
D13*
G04 #@! TO.P,J27,2,Pin_2*
G04 #@! TO.N,/Conexiones_extra/SPI_MOSI*
X126619000Y-97749600D03*
G04 #@! TO.P,J27,3,Pin_3*
G04 #@! TO.N,3V3*
X129159000Y-95209600D03*
G04 #@! TO.P,J27,4,Pin_4*
G04 #@! TO.N,/Conexiones_extra/SPI_MISO*
X126619000Y-95209600D03*
G04 #@! TO.P,J27,5,Pin_5*
G04 #@! TO.N,/Conexiones_extra/SPI_SCK*
X129159000Y-92669600D03*
G04 #@! TO.P,J27,6,Pin_6*
G04 #@! TO.N,/Conexiones_extra/SPI_CS*
X126619000Y-92669600D03*
G04 #@! TO.P,J27,7,Pin_7*
G04 #@! TO.N,GND*
X129159000Y-90129600D03*
G04 #@! TO.P,J27,8,Pin_8*
G04 #@! TO.N,/Conexiones_extra/SPI_EOC*
X126619000Y-90129600D03*
G04 #@! TD*
D10*
G04 #@! TO.P,J2,1,Pin_1*
G04 #@! TO.N,/MCU/TIM3_CH1*
X131640900Y-131215600D03*
G04 #@! TO.P,J2,2,Pin_2*
G04 #@! TO.N,/Motores_servos_PWM/Vdd_ESC*
X131640900Y-133755600D03*
D11*
G04 #@! TO.P,J2,3,Pin_3*
G04 #@! TO.N,GND*
X131640900Y-136295600D03*
G04 #@! TD*
D16*
G04 #@! TO.P,J10,1,Pin_1*
G04 #@! TO.N,/Motores_servos_PWM/Vdd_servos*
X171605900Y-135865200D03*
D17*
G04 #@! TO.P,J10,2,Pin_2*
G04 #@! TO.N,GND*
X166605900Y-135865200D03*
G04 #@! TD*
D14*
G04 #@! TO.P,H1,1,1*
G04 #@! TO.N,/Chassis_Bond_1*
X126224400Y-54381400D03*
D15*
X126224400Y-54381400D03*
G04 #@! TD*
D12*
G04 #@! TO.P,J18,1,Pin_1*
G04 #@! TO.N,5V*
X178246000Y-85907800D03*
D13*
G04 #@! TO.P,J18,2,Pin_2*
G04 #@! TO.N,GND*
X178246000Y-88447800D03*
G04 #@! TO.P,J18,3,Pin_3*
G04 #@! TO.N,/MCU/TIM8_CH2*
X178246000Y-90987800D03*
G04 #@! TD*
D10*
G04 #@! TO.P,J4,1,Pin_1*
G04 #@! TO.N,/MCU/TIM3_CH3*
X136720900Y-131215600D03*
G04 #@! TO.P,J4,2,Pin_2*
G04 #@! TO.N,/Motores_servos_PWM/Vdd_ESC*
X136720900Y-133755600D03*
D11*
G04 #@! TO.P,J4,3,Pin_3*
G04 #@! TO.N,GND*
X136720900Y-136295600D03*
G04 #@! TD*
D10*
G04 #@! TO.P,J5,1,Pin_1*
G04 #@! TO.N,/MCU/TIM3_CH4*
X139260900Y-131215600D03*
G04 #@! TO.P,J5,2,Pin_2*
G04 #@! TO.N,/Motores_servos_PWM/Vdd_ESC*
X139260900Y-133755600D03*
D11*
G04 #@! TO.P,J5,3,Pin_3*
G04 #@! TO.N,GND*
X139260900Y-136295600D03*
G04 #@! TD*
D12*
G04 #@! TO.P,J26,1,Pin_1*
G04 #@! TO.N,/Conexiones_extra/I2CA_SDA*
X175706000Y-118927800D03*
D13*
G04 #@! TO.P,J26,2,Pin_2*
X178246000Y-118927800D03*
G04 #@! TO.P,J26,3,Pin_3*
G04 #@! TO.N,GND*
X175706000Y-121467800D03*
G04 #@! TO.P,J26,4,Pin_4*
X178246000Y-121467800D03*
G04 #@! TO.P,J26,5,Pin_5*
G04 #@! TO.N,/Conexiones_extra/I2CA_SCL*
X175706000Y-124007800D03*
G04 #@! TO.P,J26,6,Pin_6*
X178246000Y-124007800D03*
G04 #@! TO.P,J26,7,Pin_7*
G04 #@! TO.N,5V*
X175706000Y-126547800D03*
G04 #@! TO.P,J26,8,Pin_8*
G04 #@! TO.N,3V3*
X178246000Y-126547800D03*
G04 #@! TO.P,J26,9,Pin_9*
G04 #@! TO.N,5V*
X175706000Y-129087800D03*
G04 #@! TO.P,J26,10,Pin_10*
G04 #@! TO.N,3V3*
X178246000Y-129087800D03*
G04 #@! TD*
D15*
G04 #@! TO.P,H3,1,1*
G04 #@! TO.N,/Chassis_Bond_3*
X126224400Y-136880600D03*
D14*
X126224400Y-136880600D03*
G04 #@! TD*
D18*
G04 #@! TO.P,J25,6,SHIELD*
G04 #@! TO.N,GND*
X180771800Y-75188000D03*
X180771800Y-82188000D03*
D19*
G04 #@! TO.P,J25,7,MOUNT_1*
X178071800Y-76188000D03*
X178071800Y-81188000D03*
G04 #@! TD*
D10*
G04 #@! TO.P,J6,1,Pin_1*
G04 #@! TO.N,/MCU/TIM1_CH1*
X141800900Y-131215600D03*
G04 #@! TO.P,J6,2,Pin_2*
G04 #@! TO.N,/Motores_servos_PWM/Vdd_ESC*
X141800900Y-133755600D03*
D11*
G04 #@! TO.P,J6,3,Pin_3*
G04 #@! TO.N,GND*
X141800900Y-136295600D03*
G04 #@! TD*
D10*
G04 #@! TO.P,J3,1,Pin_1*
G04 #@! TO.N,/MCU/TIM3_CH2*
X134180900Y-131215600D03*
G04 #@! TO.P,J3,2,Pin_2*
G04 #@! TO.N,/Motores_servos_PWM/Vdd_ESC*
X134180900Y-133755600D03*
D11*
G04 #@! TO.P,J3,3,Pin_3*
G04 #@! TO.N,GND*
X134180900Y-136295600D03*
G04 #@! TD*
D14*
G04 #@! TO.P,H4,1,1*
G04 #@! TO.N,/Chassis_Bond_4*
X178824400Y-136880600D03*
D15*
X178824400Y-136880600D03*
G04 #@! TD*
D10*
G04 #@! TO.P,J8,1,Pin_1*
G04 #@! TO.N,/MCU/TIM1_CH3*
X146880900Y-131215600D03*
G04 #@! TO.P,J8,2,Pin_2*
G04 #@! TO.N,/Motores_servos_PWM/Vdd_ESC*
X146880900Y-133755600D03*
D11*
G04 #@! TO.P,J8,3,Pin_3*
G04 #@! TO.N,GND*
X146880900Y-136295600D03*
G04 #@! TD*
D12*
G04 #@! TO.P,J1,1,Pin_1*
G04 #@! TO.N,/Debug/SWDIO*
X180492400Y-70774800D03*
D13*
G04 #@! TO.P,J1,2,Pin_2*
G04 #@! TO.N,3V3*
X177952400Y-70774800D03*
G04 #@! TO.P,J1,3,Pin_3*
G04 #@! TO.N,/Debug/NRST*
X180492400Y-68234800D03*
G04 #@! TO.P,J1,4,Pin_4*
G04 #@! TO.N,/Debug/SWCLK*
X177952400Y-68234800D03*
G04 #@! TO.P,J1,5,Pin_5*
G04 #@! TO.N,/Debug/SWO*
X180492400Y-65694800D03*
G04 #@! TO.P,J1,6,Pin_6*
G04 #@! TO.N,GND*
X177952400Y-65694800D03*
G04 #@! TD*
D10*
G04 #@! TO.P,J13,1,Pin_1*
G04 #@! TO.N,/MCU/TIM4_CH3*
X158852400Y-131215600D03*
G04 #@! TO.P,J13,2,Pin_2*
G04 #@! TO.N,/Motores_servos_PWM/Vdd_servos*
X158852400Y-133755600D03*
D11*
G04 #@! TO.P,J13,3,Pin_3*
G04 #@! TO.N,GND*
X158852400Y-136295600D03*
G04 #@! TD*
D20*
G04 #@! TO.N,/MCU/SDMMC1_D3*
X162102800Y-73219700D03*
G04 #@! TO.N,/MCU/SDMMC1_CMD*
X162153600Y-77165200D03*
X166039800Y-74752200D03*
G04 #@! TO.N,/Debug/SWCLK*
X165557200Y-73355200D03*
G04 #@! TO.N,/MCU/SDMMC1_D3*
X164566600Y-72491600D03*
G04 #@! TO.N,3V3*
X159080200Y-71170800D03*
G04 #@! TO.N,Net-(J24-Pad1)*
X158826200Y-69011800D03*
X163677600Y-68808600D03*
G04 #@! TO.N,3V3*
X167487600Y-75031600D03*
X162560000Y-70180200D03*
X170281600Y-72644000D03*
X174980600Y-69824600D03*
G04 #@! TO.N,GND*
X131749800Y-81153000D03*
X142163800Y-69646800D03*
X143535400Y-99466400D03*
X139217400Y-109296200D03*
X129006600Y-126365000D03*
X139446000Y-55880000D03*
X153771600Y-112649000D03*
X158165800Y-100152200D03*
X129921000Y-81915000D03*
X139344400Y-121208800D03*
X142570200Y-67919600D03*
X156544550Y-113213750D03*
X133299200Y-76211550D03*
X142671800Y-58115200D03*
X170434000Y-71247000D03*
X162509200Y-68427600D03*
X175056800Y-62814200D03*
X157509750Y-112756550D03*
X155726850Y-70052650D03*
X153771600Y-110591600D03*
X137744200Y-79857600D03*
X137820400Y-73253600D03*
X169697400Y-74980800D03*
X128328800Y-132630100D03*
X149707600Y-105257600D03*
X152323800Y-67945000D03*
X166217600Y-124256800D03*
X154228800Y-106756200D03*
X125882400Y-81915000D03*
X152806400Y-66675000D03*
X165451675Y-99884249D03*
X159744950Y-113540050D03*
X141986000Y-90424000D03*
X128295400Y-58674000D03*
X148767800Y-108889800D03*
X156488850Y-72719650D03*
X170561000Y-90093800D03*
X176758600Y-77343000D03*
X165633400Y-119456200D03*
X135051800Y-91739650D03*
X136194800Y-93416051D03*
X139761000Y-69318500D03*
X143027400Y-66700400D03*
X125882400Y-85115400D03*
X174879000Y-52552600D03*
X144653000Y-104013000D03*
X152450800Y-58140600D03*
X144246600Y-75522900D03*
X130937000Y-84124800D03*
X125933200Y-78790800D03*
X180924200Y-58775600D03*
X148691600Y-103987600D03*
X166090600Y-95927300D03*
X140208000Y-76174600D03*
X168605200Y-75082400D03*
X152476200Y-107365800D03*
X145084800Y-98526600D03*
X159486600Y-107873800D03*
X135307400Y-95540600D03*
X135178800Y-92908050D03*
X130759200Y-73253600D03*
X133309400Y-69293100D03*
X129032000Y-125095000D03*
X138217051Y-95129400D03*
X139852400Y-63500000D03*
X140157200Y-83870800D03*
X130886200Y-87249000D03*
X176682400Y-132410200D03*
X134823200Y-81102200D03*
X136626600Y-76160750D03*
X170942000Y-85598000D03*
X149453600Y-70993000D03*
X167335200Y-109270800D03*
X173304200Y-68834000D03*
X149072600Y-107645200D03*
X159943800Y-73710800D03*
X172897800Y-82169000D03*
X153372650Y-100067025D03*
X167157400Y-117398800D03*
X137769600Y-81000600D03*
X134289800Y-73228200D03*
X136560600Y-69293100D03*
X158775400Y-52044600D03*
X167894000Y-86233000D03*
X169951400Y-70002400D03*
X139420600Y-61010800D03*
G04 #@! TO.N,3V3*
X123977400Y-76809600D03*
X148844000Y-120599200D03*
X156159200Y-106705400D03*
X156641800Y-120599200D03*
X123977400Y-74523600D03*
X159719550Y-108968050D03*
X124002800Y-65278000D03*
X166565950Y-105003600D03*
X151688800Y-112699800D03*
X155371800Y-121869200D03*
X155371800Y-120599200D03*
X148844000Y-121869200D03*
X156641800Y-121869200D03*
X153390050Y-72719650D03*
X172745400Y-70649500D03*
X167284400Y-110769400D03*
X166636100Y-106146600D03*
X142227900Y-70662799D03*
X135839200Y-61061600D03*
X167868600Y-83159600D03*
X157454600Y-106857800D03*
X149479000Y-65252600D03*
X159385000Y-100203000D03*
X153974250Y-70027250D03*
X156641800Y-123139200D03*
X166928800Y-69951600D03*
X144297400Y-74303700D03*
X148844000Y-123139200D03*
X141986000Y-91567000D03*
X150114000Y-120599200D03*
X124002800Y-69926200D03*
X148691600Y-102870000D03*
X135813800Y-66268600D03*
X166192200Y-122580400D03*
X151231600Y-106807000D03*
X155274550Y-113213750D03*
X154541050Y-100041625D03*
X150114000Y-121869200D03*
X124028200Y-62966600D03*
X150114000Y-123139200D03*
X158093950Y-109632350D03*
X170865800Y-83515200D03*
X156895800Y-73685400D03*
X141376400Y-76225400D03*
X156337000Y-67970400D03*
X124002800Y-60680600D03*
X146100800Y-66700400D03*
X124028200Y-72173500D03*
X140131800Y-84988400D03*
X165760400Y-98983800D03*
X148005800Y-98247200D03*
X124002800Y-67589400D03*
X175564800Y-61036200D03*
X155829000Y-66649600D03*
X170535600Y-88925400D03*
X138293250Y-98304400D03*
X155371800Y-123139200D03*
X166420800Y-71247000D03*
X135332800Y-97750400D03*
X135712200Y-55880000D03*
X152857200Y-109067600D03*
X146583400Y-67945000D03*
G04 #@! TO.N,Net-(C9-Pad1)*
X130302000Y-123799600D03*
X143560800Y-113157000D03*
G04 #@! TO.N,Net-(C10-Pad1)*
X130302000Y-122555000D03*
X142494000Y-112014000D03*
G04 #@! TO.N,/Sensores/GNSS_Tx*
X139446000Y-104165400D03*
X141401800Y-94335600D03*
G04 #@! TO.N,/Sensores/GNSS_Rx*
X141351000Y-95453200D03*
X139446000Y-105384600D03*
G04 #@! TO.N,/Conexiones_extra/I2CA_SCL*
X162606150Y-98323400D03*
X168808400Y-107111800D03*
G04 #@! TO.N,/Sensores/GNSS_SDA*
X139217400Y-120015000D03*
X156311600Y-98247200D03*
X151130000Y-111429800D03*
G04 #@! TO.N,/Sensores/GNSS_SCL*
X155651200Y-99161600D03*
X139217400Y-118719600D03*
X146685000Y-107264200D03*
G04 #@! TO.N,/Conexiones_extra/I2CA_SDA*
X168808400Y-104089200D03*
X163550600Y-99441000D03*
G04 #@! TO.N,/MCU/TIM3_CH1*
X144729200Y-112293400D03*
G04 #@! TO.N,/MCU/TIM3_CH2*
X145694400Y-113360200D03*
G04 #@! TO.N,/Debug/NRST*
X140309600Y-67056000D03*
X147802600Y-89077800D03*
G04 #@! TO.N,/MCU/TIM3_CH3*
X146608800Y-111988600D03*
G04 #@! TO.N,/MCU/TIM3_CH4*
X147599400Y-113334800D03*
G04 #@! TO.N,/MCU/TIM4_CH1*
X169062400Y-112141000D03*
G04 #@! TO.N,/Debug/SWO*
X151909950Y-73253600D03*
G04 #@! TO.N,/MCU/TIM4_CH2*
X169316400Y-113309400D03*
G04 #@! TO.N,/MCU/TIM4_CH3*
X171500800Y-112141000D03*
G04 #@! TO.N,/MCU/TIM4_CH4*
X171500800Y-113538000D03*
G04 #@! TO.N,/Conexiones_extra/UARTA_TX*
X157988000Y-95046800D03*
G04 #@! TO.N,/Conexiones_extra/UARTB_TX*
X154673300Y-77101700D03*
G04 #@! TO.N,/Conexiones_extra/UARTA_RX*
X156946600Y-94411800D03*
G04 #@! TO.N,/Conexiones_extra/UARTB_RX*
X156591000Y-76733400D03*
G04 #@! TO.N,/Conexiones_extra/UARTC_TX*
X158851600Y-77419200D03*
G04 #@! TO.N,/Sensores/MAG_INT_DATA_RDY*
X152120600Y-95046800D03*
G04 #@! TO.N,/MCU/SDMMC1_D0*
X169341800Y-81864200D03*
X173202600Y-74523600D03*
G04 #@! TO.N,/MCU/SDMMC1_D1*
X168376600Y-81356200D03*
X172212000Y-75819000D03*
G04 #@! TO.N,/MCU/TIM1_CH1*
X156972000Y-99161600D03*
G04 #@! TO.N,/MCU/TIM1_CH2*
X160248600Y-98196400D03*
G04 #@! TO.N,/MCU/TIM1_CH3*
X160909000Y-99161600D03*
G04 #@! TO.N,/MCU/TIM1_CH4*
X161671000Y-99847400D03*
G04 #@! TO.N,/Conexiones_extra/UARTC_RX*
X157632400Y-77038200D03*
G04 #@! TO.N,Net-(J24-Pad5)*
X168478200Y-68630800D03*
X158521400Y-67183000D03*
G04 #@! TO.N,Net-(Q2-Pad3)*
X129565400Y-65328800D03*
X132334000Y-67360800D03*
G04 #@! TO.N,Net-(Q3-Pad3)*
X129641600Y-69418200D03*
X131902200Y-74345800D03*
G04 #@! TO.N,Net-(Q4-Pad3)*
X129565400Y-62128400D03*
X135559800Y-67310000D03*
G04 #@! TO.N,Net-(Q5-Pad3)*
X129590800Y-60452000D03*
X138734800Y-67233800D03*
G04 #@! TO.N,Net-(Q7-Pad3)*
X135509000Y-74295000D03*
X129565400Y-67106800D03*
G04 #@! TO.N,/MCU/SPI2_MISO*
X167792400Y-100355400D03*
X168681400Y-98171000D03*
G04 #@! TO.N,/MCU/PD3(EXTI3)*
X175310800Y-64846200D03*
X160045400Y-77165200D03*
G04 #@! TO.N,Net-(R16-Pad1)*
X165227000Y-103454200D03*
X167132000Y-98450400D03*
G04 #@! TO.N,Net-(R17-Pad1)*
X168325800Y-101473000D03*
X169519600Y-99060000D03*
G04 #@! TO.N,/Leds indicadores + pulsadores/LED1*
X147167600Y-77622400D03*
X134137400Y-72186800D03*
G04 #@! TO.N,/Leds indicadores + pulsadores/LED2*
X140919200Y-73329800D03*
X146456400Y-76962000D03*
G04 #@! TO.N,/Leds indicadores + pulsadores/LED3*
X148361400Y-77165200D03*
X137515600Y-72212200D03*
G04 #@! TO.N,/Leds indicadores + pulsadores/LED4*
X146481800Y-79578200D03*
X136017000Y-81076800D03*
G04 #@! TO.N,/Leds indicadores + pulsadores/LED5*
X130835400Y-86156800D03*
X146583400Y-84099400D03*
G04 #@! TO.N,/Leds indicadores + pulsadores/LED6*
X146558000Y-81864200D03*
X132969000Y-81153000D03*
G04 #@! TO.N,/Leds indicadores + pulsadores/LED7*
X129921000Y-78816200D03*
X147421600Y-78638400D03*
G04 #@! TO.N,/Leds indicadores + pulsadores/LED8*
X131089400Y-82956400D03*
X146837400Y-82829400D03*
G04 #@! TO.N,/Leds indicadores + pulsadores/SW_1*
X151511000Y-77190600D03*
X140563600Y-58851800D03*
G04 #@! TO.N,/Leds indicadores + pulsadores/SW_2*
X139750800Y-62280800D03*
X145669000Y-70104000D03*
G04 #@! TO.N,/Sensores/GNSS_PPS*
X139471400Y-106680000D03*
X142849600Y-95173800D03*
G04 #@! TO.N,/MCU/TIM8_CH2*
X164668200Y-82677000D03*
G04 #@! TO.N,Net-(Q1-Pad3)*
X124002800Y-86055200D03*
X129717800Y-76454000D03*
G04 #@! TO.N,Net-(Q8-Pad3)*
X129616200Y-74345800D03*
X124053600Y-82956400D03*
G04 #@! TO.N,Net-(Q6-Pad3)*
X124053600Y-79781400D03*
X129641600Y-71907400D03*
G04 #@! TD*
D21*
G04 #@! TO.N,/MCU/SDMMC1_D3*
X160832800Y-73583800D02*
X160832800Y-75742800D01*
X160832800Y-75742800D02*
X161213800Y-76123800D01*
X162102800Y-73219700D02*
X161196900Y-73219700D01*
X161196900Y-73219700D02*
X160832800Y-73583800D01*
X161213800Y-76123800D02*
X163372800Y-76123800D01*
X163372800Y-76123800D02*
X163931600Y-75565000D01*
G04 #@! TO.N,/MCU/SDMMC1_CMD*
X165430200Y-75361800D02*
X165430200Y-76733400D01*
X162153600Y-77165200D02*
X164998400Y-77165200D01*
X164998400Y-77165200D02*
X165430200Y-76733400D01*
X166039800Y-74752200D02*
X165430200Y-75361800D01*
G04 #@! TO.N,/Debug/SWCLK*
X165557200Y-73355200D02*
X168046400Y-73355200D01*
X168706800Y-74015600D02*
X170891200Y-74015600D01*
X168046400Y-73355200D02*
X168706800Y-74015600D01*
X170891200Y-74015600D02*
X172389800Y-72517000D01*
X172389800Y-72517000D02*
X175209200Y-72517000D01*
X175209200Y-72517000D02*
X176326800Y-71399400D01*
X176326800Y-71399400D02*
X176326800Y-69860400D01*
X176326800Y-69860400D02*
X177952400Y-68234800D01*
G04 #@! TO.N,/MCU/SDMMC1_D3*
X163931600Y-73126600D02*
X164566600Y-72491600D01*
X163931600Y-75565000D02*
X163931600Y-73126600D01*
G04 #@! TO.N,Net-(J24-Pad1)*
X158826200Y-68503800D02*
X158826200Y-69011800D01*
X164160200Y-67310000D02*
X163677600Y-66827400D01*
X160502600Y-66827400D02*
X158826200Y-68503800D01*
X163677600Y-68808600D02*
X164160200Y-68326000D01*
X164160200Y-68326000D02*
X164160200Y-67310000D01*
X163677600Y-66827400D02*
X160502600Y-66827400D01*
G04 #@! TO.N,/MCU/PD3(EXTI3)*
X160045400Y-77165200D02*
X160045400Y-76225400D01*
X157581600Y-70053200D02*
X157581600Y-65582800D01*
X160045400Y-76225400D02*
X158013400Y-74193400D01*
X158013400Y-74193400D02*
X158013400Y-70485000D01*
X158013400Y-70485000D02*
X157581600Y-70053200D01*
X174396400Y-65760600D02*
X175310800Y-64846200D01*
X157581600Y-65582800D02*
X158800800Y-64363600D01*
X158800800Y-64363600D02*
X167716200Y-64363600D01*
X167716200Y-64363600D02*
X169113200Y-65760600D01*
X169113200Y-65760600D02*
X174396400Y-65760600D01*
G04 #@! TO.N,Net-(C9-Pad1)*
X130302000Y-123799600D02*
X140055600Y-123799600D01*
X140055600Y-123799600D02*
X143560800Y-120294400D01*
X143560800Y-120294400D02*
X143560800Y-113157000D01*
G04 #@! TO.N,Net-(C10-Pad1)*
X130302000Y-122555000D02*
X139293600Y-122555000D01*
X141274800Y-120573800D02*
X139598400Y-122250200D01*
X142494000Y-112014000D02*
X142494000Y-119354600D01*
X139293600Y-122555000D02*
X139598400Y-122250200D01*
X142494000Y-119354600D02*
X141274800Y-120573800D01*
G04 #@! TO.N,/Sensores/GNSS_Tx*
X138760200Y-100253800D02*
X133299200Y-100253800D01*
X132054600Y-99009200D02*
X127899400Y-99009200D01*
X139674600Y-99339400D02*
X138760200Y-100253800D01*
X140081000Y-103530400D02*
X139446000Y-104165400D01*
X127899400Y-99009200D02*
X126619000Y-100289600D01*
X139674600Y-99339400D02*
X140081000Y-99745800D01*
X140081000Y-100584000D02*
X140081000Y-103530400D01*
X139674600Y-96062800D02*
X139674600Y-99339400D01*
X133299200Y-100253800D02*
X132054600Y-99009200D01*
X140081000Y-99745800D02*
X140081000Y-100584000D01*
X141401800Y-94335600D02*
X139674600Y-96062800D01*
G04 #@! TO.N,/Sensores/GNSS_Rx*
X141351000Y-95453200D02*
X140741400Y-96062800D01*
X136296400Y-105384600D02*
X132461000Y-101549200D01*
X140741400Y-100330000D02*
X140741400Y-97815400D01*
X140741400Y-104089200D02*
X140741400Y-100330000D01*
X127899400Y-101549200D02*
X126619000Y-102829600D01*
X139446000Y-105384600D02*
X140741400Y-104089200D01*
X139446000Y-105384600D02*
X136296400Y-105384600D01*
X140741400Y-96062800D02*
X140741400Y-97815400D01*
X132461000Y-101549200D02*
X127899400Y-101549200D01*
G04 #@! TO.N,/Conexiones_extra/I2CA_SCL*
X175706000Y-124007800D02*
X174071200Y-124007800D01*
X172288200Y-107899200D02*
X172897800Y-108508800D01*
X162534600Y-103581200D02*
X162534600Y-98394950D01*
X168808400Y-107467400D02*
X169240200Y-107899200D01*
X172288200Y-123545600D02*
X172948600Y-122885200D01*
X169240200Y-107899200D02*
X172288200Y-107899200D01*
X172948600Y-121259600D02*
X171780200Y-120091200D01*
X171780200Y-120091200D02*
X171780200Y-115087400D01*
X178246000Y-124007800D02*
X176981000Y-125272800D01*
X171780200Y-115087400D02*
X172897800Y-113969800D01*
X172948600Y-122885200D02*
X172948600Y-121259600D01*
X172669200Y-125272800D02*
X172288200Y-124891800D01*
X166801800Y-107848400D02*
X162534600Y-103581200D01*
X162534600Y-98394950D02*
X162606150Y-98323400D01*
X172288200Y-124891800D02*
X172288200Y-123545600D01*
X172897800Y-113969800D02*
X172897800Y-108508800D01*
X174071200Y-124007800D02*
X172948600Y-122885200D01*
X168275000Y-107848400D02*
X166801800Y-107848400D01*
X168808400Y-107111800D02*
X168808400Y-107315000D01*
X168808400Y-107315000D02*
X168275000Y-107848400D01*
X176981000Y-125272800D02*
X172669200Y-125272800D01*
X168808400Y-107111800D02*
X168808400Y-107467400D01*
G04 #@! TO.N,/Sensores/GNSS_SDA*
X147688300Y-102400100D02*
X147688300Y-108369100D01*
X148513800Y-111429800D02*
X151130000Y-111429800D01*
X140055600Y-120015000D02*
X139217400Y-120015000D01*
X147688300Y-108648500D02*
X146710400Y-109626400D01*
X126619000Y-110449600D02*
X127878600Y-111709200D01*
X139115800Y-114452400D02*
X140512800Y-115849400D01*
X139115800Y-112572800D02*
X139115800Y-114452400D01*
X155041600Y-101854000D02*
X148234400Y-101854000D01*
X140512800Y-115849400D02*
X140512800Y-119557800D01*
X156311600Y-100584000D02*
X155041600Y-101854000D01*
X127878600Y-111709200D02*
X130962400Y-111709200D01*
X143941800Y-109626400D02*
X142062200Y-109626400D01*
X140131800Y-111556800D02*
X139115800Y-112572800D01*
X148234400Y-101854000D02*
X147688300Y-102400100D01*
X146710400Y-109626400D02*
X148513800Y-111429800D01*
X135001000Y-112801400D02*
X133908800Y-111709200D01*
X146710400Y-109626400D02*
X143941800Y-109626400D01*
X147688300Y-108369100D02*
X147688300Y-108648500D01*
X142062200Y-109626400D02*
X140131800Y-111556800D01*
X156311600Y-98247200D02*
X156311600Y-100584000D01*
X136144000Y-120015000D02*
X135001000Y-118872000D01*
X133908800Y-111709200D02*
X130962400Y-111709200D01*
X135001000Y-118872000D02*
X135001000Y-112801400D01*
X140512800Y-119557800D02*
X140055600Y-120015000D01*
X139217400Y-120015000D02*
X136144000Y-120015000D01*
G04 #@! TO.N,/Sensores/GNSS_SCL*
X147243800Y-101447600D02*
X147078700Y-101612700D01*
X137693400Y-110998000D02*
X138430000Y-110261400D01*
X147078700Y-101612700D02*
X146989800Y-101701600D01*
X145923000Y-102768400D02*
X145923000Y-104089200D01*
X137693400Y-110998000D02*
X137693400Y-111201200D01*
X139979400Y-116789200D02*
X138595100Y-115404900D01*
X145923000Y-104495600D02*
X146685000Y-105257600D01*
X155651200Y-100253800D02*
X154813000Y-101092000D01*
X140157200Y-110261400D02*
X145923000Y-104495600D01*
X147078700Y-101612700D02*
X145923000Y-102768400D01*
X152247600Y-101092000D02*
X152196800Y-101041200D01*
X127878600Y-109169200D02*
X135864600Y-109169200D01*
X139395200Y-118719600D02*
X139979400Y-118135400D01*
X154813000Y-101092000D02*
X152247600Y-101092000D01*
X139979400Y-118135400D02*
X139979400Y-116789200D01*
X146685000Y-105257600D02*
X146685000Y-107264200D01*
X126619000Y-107909600D02*
X127878600Y-109169200D01*
X135864600Y-109169200D02*
X137693400Y-110998000D01*
X152196800Y-101041200D02*
X147650200Y-101041200D01*
X155651200Y-99161600D02*
X155651200Y-100253800D01*
X137693400Y-114503200D02*
X138595100Y-115404900D01*
X139217400Y-118719600D02*
X139395200Y-118719600D01*
X147650200Y-101041200D02*
X147243800Y-101447600D01*
X137693400Y-111201200D02*
X137693400Y-114503200D01*
X138430000Y-110261400D02*
X140157200Y-110261400D01*
X147243800Y-101447600D02*
X146964400Y-101727000D01*
X145923000Y-104089200D02*
X145923000Y-104495600D01*
G04 #@! TO.N,/Conexiones_extra/I2CA_SDA*
X168503600Y-103276400D02*
X167005000Y-103276400D01*
X168808400Y-103581200D02*
X168503600Y-103276400D01*
X174117000Y-118389400D02*
X174655400Y-118927800D01*
X173634400Y-116713000D02*
X174117000Y-117195600D01*
X169240200Y-103149400D02*
X170738800Y-103149400D01*
X165760400Y-104521000D02*
X164896800Y-104521000D01*
X173634400Y-106045000D02*
X173634400Y-107035600D01*
X174117000Y-117195600D02*
X174117000Y-118389400D01*
X172923200Y-119227600D02*
X172923200Y-117424200D01*
X164896800Y-104521000D02*
X164820600Y-104444800D01*
X163550600Y-103174800D02*
X163550600Y-99441000D01*
X170738800Y-103149400D02*
X173634400Y-106045000D01*
X173634400Y-107035600D02*
X173634400Y-116713000D01*
X164820600Y-104444800D02*
X163550600Y-103174800D01*
X178246000Y-118927800D02*
X176981000Y-120192800D01*
X167005000Y-103276400D02*
X165760400Y-104521000D01*
X172923200Y-117424200D02*
X173634400Y-116713000D01*
X173888400Y-120192800D02*
X172923200Y-119227600D01*
X168808400Y-103581200D02*
X169240200Y-103149400D01*
X174655400Y-118927800D02*
X175706000Y-118927800D01*
X176981000Y-120192800D02*
X173888400Y-120192800D01*
X168808400Y-104089200D02*
X168808400Y-103581200D01*
G04 #@! TO.N,/MCU/TIM3_CH1*
X144729200Y-112293400D02*
X144729200Y-120802400D01*
X144729200Y-120802400D02*
X138557000Y-126974600D01*
X138557000Y-126974600D02*
X133858000Y-126974600D01*
X131640900Y-129191700D02*
X131640900Y-131215600D01*
X133858000Y-126974600D02*
X131640900Y-129191700D01*
G04 #@! TO.N,/MCU/TIM3_CH2*
X134180900Y-129735900D02*
X134195500Y-129735900D01*
X134180900Y-131215600D02*
X134180900Y-129735900D01*
X136245600Y-127685800D02*
X138963400Y-127685800D01*
X138963400Y-127685800D02*
X145694400Y-120954800D01*
X134195500Y-129735900D02*
X136245600Y-127685800D01*
X145694400Y-120954800D02*
X145694400Y-113360200D01*
G04 #@! TO.N,/Debug/NRST*
X148564600Y-71729600D02*
X149834600Y-72999600D01*
X143002000Y-68884800D02*
X145846800Y-71729600D01*
X149834600Y-72999600D02*
X149834600Y-80086200D01*
X152679400Y-70180200D02*
X152679400Y-79070200D01*
X180492400Y-68234800D02*
X179222400Y-66964800D01*
X150749000Y-81000600D02*
X150749000Y-87579200D01*
X154813000Y-68046600D02*
X152679400Y-70180200D01*
X179222400Y-63296800D02*
X173837600Y-57912000D01*
X173837600Y-57912000D02*
X158648400Y-57912000D01*
X149834600Y-80086200D02*
X150749000Y-81000600D01*
X142138400Y-68884800D02*
X143002000Y-68884800D01*
X154813000Y-61747400D02*
X154813000Y-68046600D01*
X158648400Y-57912000D02*
X154813000Y-61747400D01*
X152679400Y-79070200D02*
X150749000Y-81000600D01*
X145846800Y-71729600D02*
X148564600Y-71729600D01*
X140309600Y-67056000D02*
X142138400Y-68884800D01*
X179222400Y-66964800D02*
X179222400Y-63296800D01*
X150749000Y-87579200D02*
X149250400Y-89077800D01*
X149250400Y-89077800D02*
X147802600Y-89077800D01*
G04 #@! TO.N,/MCU/TIM3_CH3*
X139260900Y-128353500D02*
X137609900Y-128353500D01*
X146608800Y-121005600D02*
X139260900Y-128353500D01*
X137609900Y-128353500D02*
X136720900Y-129242500D01*
X136720900Y-129242500D02*
X136720900Y-131215600D01*
X146608800Y-111988600D02*
X146608800Y-121005600D01*
G04 #@! TO.N,/MCU/TIM3_CH4*
X139260900Y-129394900D02*
X139260900Y-131215600D01*
X147599400Y-113334800D02*
X147599400Y-121056400D01*
X147599400Y-121056400D02*
X139260900Y-129394900D01*
G04 #@! TO.N,/MCU/TIM4_CH1*
X168097200Y-124637800D02*
X166827200Y-125907800D01*
X153772400Y-129158200D02*
X153772400Y-131215600D01*
X168097200Y-113106200D02*
X168097200Y-124637800D01*
X157022800Y-125907800D02*
X153772400Y-129158200D01*
X169062400Y-112141000D02*
X168097200Y-113106200D01*
X166827200Y-125907800D02*
X157022800Y-125907800D01*
G04 #@! TO.N,/Debug/SWO*
X180492400Y-65694800D02*
X180492400Y-62636400D01*
X154051000Y-67970400D02*
X151909950Y-70111450D01*
X180492400Y-62636400D02*
X175260000Y-57404000D01*
X151909950Y-70111450D02*
X151909950Y-73253600D01*
X175260000Y-57404000D02*
X158242000Y-57404000D01*
X158242000Y-57404000D02*
X154051000Y-61595000D01*
X154051000Y-61595000D02*
X154051000Y-67970400D01*
G04 #@! TO.N,/MCU/TIM4_CH2*
X158523000Y-127050800D02*
X167462200Y-127050800D01*
X168884600Y-113741200D02*
X169316400Y-113309400D01*
X156312400Y-131215600D02*
X156312400Y-129261400D01*
X156312400Y-129261400D02*
X158523000Y-127050800D01*
X167462200Y-127050800D02*
X168884600Y-125628400D01*
X168884600Y-125628400D02*
X168884600Y-113741200D01*
G04 #@! TO.N,/MCU/TIM4_CH3*
X170662600Y-113436400D02*
X169595800Y-114503200D01*
X158852400Y-131215600D02*
X158852400Y-129818600D01*
X169595800Y-126619000D02*
X169595800Y-119151400D01*
X171500800Y-112141000D02*
X170662600Y-112979200D01*
X158852400Y-129818600D02*
X160832800Y-127838200D01*
X170662600Y-112979200D02*
X170662600Y-113436400D01*
X168376600Y-127838200D02*
X169595800Y-126619000D01*
X169595800Y-114503200D02*
X169595800Y-119151400D01*
X160832800Y-127838200D02*
X168376600Y-127838200D01*
G04 #@! TO.N,/MCU/TIM4_CH4*
X161392400Y-129488400D02*
X162356800Y-128524000D01*
X170332400Y-114706400D02*
X171500800Y-113538000D01*
X162356800Y-128524000D02*
X169037000Y-128524000D01*
X170332400Y-127228600D02*
X170332400Y-114706400D01*
X169037000Y-128524000D02*
X170332400Y-127228600D01*
X161392400Y-131215600D02*
X161392400Y-129488400D01*
G04 #@! TO.N,/Conexiones_extra/UARTA_TX*
X176971000Y-102412800D02*
X173990000Y-102412800D01*
X173990000Y-102412800D02*
X172593000Y-101015800D01*
X169037000Y-94665800D02*
X158369000Y-94665800D01*
X172593000Y-98221800D02*
X169037000Y-94665800D01*
X158369000Y-94665800D02*
X157988000Y-95046800D01*
X172593000Y-101015800D02*
X172593000Y-98221800D01*
X178246000Y-103687800D02*
X176971000Y-102412800D01*
G04 #@! TO.N,/Conexiones_extra/UARTB_TX*
X175336200Y-97332800D02*
X174447200Y-97332800D01*
X154673300Y-77101700D02*
X159918400Y-82346800D01*
X172694600Y-95580200D02*
X170053000Y-92938600D01*
X166141400Y-92938600D02*
X159918400Y-86715600D01*
X159918400Y-82346800D02*
X159918400Y-82473800D01*
X159918400Y-86715600D02*
X159918400Y-84226400D01*
X159918400Y-84226400D02*
X159918400Y-82473800D01*
X178246000Y-98607800D02*
X176971000Y-97332800D01*
X170053000Y-92938600D02*
X166141400Y-92938600D01*
X176971000Y-97332800D02*
X175336200Y-97332800D01*
X174447200Y-97332800D02*
X172694600Y-95580200D01*
G04 #@! TO.N,/Conexiones_extra/UARTA_RX*
X157353000Y-96189800D02*
X158292800Y-96189800D01*
X159207200Y-95275400D02*
X168427400Y-95275400D01*
X156946600Y-94411800D02*
X156718000Y-94640400D01*
X171932600Y-98780600D02*
X171932600Y-102539800D01*
X174345600Y-104952800D02*
X176971000Y-104952800D01*
X171932600Y-102539800D02*
X174345600Y-104952800D01*
X168427400Y-95275400D02*
X171932600Y-98780600D01*
X156718000Y-94640400D02*
X156718000Y-95554800D01*
X156718000Y-95554800D02*
X157353000Y-96189800D01*
X158292800Y-96189800D02*
X159207200Y-95275400D01*
X176971000Y-104952800D02*
X178246000Y-106227800D01*
G04 #@! TO.N,/Conexiones_extra/UARTB_RX*
X174193200Y-99872800D02*
X176971000Y-99872800D01*
X155956000Y-75717400D02*
X154508200Y-75717400D01*
X165023800Y-93624400D02*
X169316400Y-93624400D01*
X176971000Y-99872800D02*
X178246000Y-101147800D01*
X158902400Y-87503000D02*
X165023800Y-93624400D01*
X153339800Y-77952600D02*
X158902400Y-83515200D01*
X158902400Y-83515200D02*
X158902400Y-87503000D01*
X156591000Y-76733400D02*
X156591000Y-76352400D01*
X153339800Y-76885800D02*
X153339800Y-77952600D01*
X153339800Y-76885800D02*
X154508200Y-75717400D01*
X173405800Y-97713800D02*
X173405800Y-99085400D01*
X173405800Y-99085400D02*
X174193200Y-99872800D01*
X169316400Y-93624400D02*
X173405800Y-97713800D01*
X156591000Y-76352400D02*
X155956000Y-75717400D01*
G04 #@! TO.N,/Conexiones_extra/UARTC_TX*
X178246000Y-93527800D02*
X175701000Y-90982800D01*
X162890200Y-86741000D02*
X162102800Y-85953600D01*
X167132000Y-90982800D02*
X162890200Y-86741000D01*
X162102800Y-80670400D02*
X162102800Y-81026000D01*
X175701000Y-90982800D02*
X168503600Y-90982800D01*
X162102800Y-81610200D02*
X162102800Y-81026000D01*
X162102800Y-85953600D02*
X162102800Y-81610200D01*
X158851600Y-77419200D02*
X162102800Y-80670400D01*
X168503600Y-90982800D02*
X167132000Y-90982800D01*
G04 #@! TO.N,/Sensores/MAG_INT_DATA_RDY*
X142265400Y-102590600D02*
X144957800Y-99898200D01*
X142265400Y-105283000D02*
X142265400Y-102590600D01*
X152247600Y-95173800D02*
X152247600Y-97917000D01*
X152120600Y-95046800D02*
X152247600Y-95173800D01*
X129159000Y-107909600D02*
X139638800Y-107909600D01*
X139638800Y-107909600D02*
X142265400Y-105283000D01*
X150266400Y-99898200D02*
X151028400Y-99136200D01*
X144957800Y-99898200D02*
X150266400Y-99898200D01*
X152247600Y-97917000D02*
X151028400Y-99136200D01*
G04 #@! TO.N,/MCU/SDMMC1_D0*
X174421800Y-77266800D02*
X173329600Y-78359000D01*
X173202600Y-74523600D02*
X174421800Y-75742800D01*
X174421800Y-75742800D02*
X174421800Y-77266800D01*
X172847000Y-78359000D02*
X169341800Y-81864200D01*
X173329600Y-78359000D02*
X172847000Y-78359000D01*
G04 #@! TO.N,/MCU/SDMMC1_D1*
X170992800Y-78740000D02*
X168376600Y-81356200D01*
X172212000Y-75920600D02*
X170992800Y-77139800D01*
X172212000Y-75819000D02*
X172212000Y-75920600D01*
X170992800Y-77139800D02*
X170992800Y-78740000D01*
G04 #@! TO.N,/MCU/TIM1_CH1*
X144957800Y-124993400D02*
X141800900Y-128150300D01*
X150545800Y-124993400D02*
X144957800Y-124993400D01*
X161518600Y-116179600D02*
X154711400Y-116179600D01*
X162445700Y-115252500D02*
X161518600Y-116179600D01*
X156972000Y-103632000D02*
X162445700Y-109105700D01*
X162445700Y-109105700D02*
X162445700Y-115252500D01*
X156972000Y-99161600D02*
X156972000Y-103632000D01*
X152196800Y-123342400D02*
X150545800Y-124993400D01*
X141800900Y-128150300D02*
X141800900Y-131215600D01*
X154711400Y-116179600D02*
X152196800Y-118694200D01*
X152196800Y-118694200D02*
X152196800Y-123342400D01*
G04 #@! TO.N,/MCU/TIM1_CH2*
X150901400Y-125679200D02*
X146761200Y-125679200D01*
X161848800Y-116916200D02*
X155295600Y-116916200D01*
X160248600Y-105511600D02*
X163271200Y-108534200D01*
X160248600Y-98196400D02*
X160248600Y-105511600D01*
X163271200Y-115493800D02*
X161848800Y-116916200D01*
X146761200Y-125679200D02*
X144340900Y-128099500D01*
X152781000Y-119430800D02*
X152781000Y-123799600D01*
X163271200Y-108534200D02*
X163271200Y-115493800D01*
X144340900Y-128099500D02*
X144340900Y-131215600D01*
X155295600Y-116916200D02*
X152781000Y-119430800D01*
X152781000Y-123799600D02*
X150901400Y-125679200D01*
G04 #@! TO.N,/MCU/TIM1_CH3*
X164084000Y-115900200D02*
X162318700Y-117665500D01*
X164084000Y-107924600D02*
X164084000Y-115900200D01*
X151028400Y-126415800D02*
X148590000Y-126415800D01*
X146880900Y-128124900D02*
X146880900Y-131215600D01*
X153416000Y-124028200D02*
X151028400Y-126415800D01*
X148590000Y-126415800D02*
X146880900Y-128124900D01*
X155689300Y-117665500D02*
X153416000Y-119938800D01*
X153416000Y-119938800D02*
X153416000Y-124028200D01*
X160909000Y-99161600D02*
X160909000Y-104749600D01*
X160909000Y-104749600D02*
X164084000Y-107924600D01*
X162318700Y-117665500D02*
X155689300Y-117665500D01*
G04 #@! TO.N,/MCU/TIM1_CH4*
X154000200Y-124333000D02*
X151358600Y-126974600D01*
X156502100Y-118554500D02*
X155765500Y-118554500D01*
X150545800Y-126974600D02*
X149420900Y-128099500D01*
X161671000Y-99847400D02*
X161671000Y-104165400D01*
X162598100Y-118554500D02*
X156502100Y-118554500D01*
X151358600Y-126974600D02*
X150545800Y-126974600D01*
X164973000Y-116179600D02*
X162598100Y-118554500D01*
X164973000Y-107467400D02*
X164973000Y-116179600D01*
X155765500Y-118554500D02*
X154000200Y-120319800D01*
X161671000Y-104165400D02*
X164973000Y-107467400D01*
X149420900Y-128099500D02*
X149420900Y-131215600D01*
X154000200Y-120319800D02*
X154000200Y-124333000D01*
G04 #@! TO.N,/Conexiones_extra/UARTC_RX*
X157632400Y-77978000D02*
X161163000Y-81508600D01*
X161163000Y-82981800D02*
X161163000Y-81940400D01*
X172135800Y-92989400D02*
X170891200Y-91744800D01*
X174752000Y-94792800D02*
X173939200Y-94792800D01*
X167335200Y-91744800D02*
X166751000Y-91744800D01*
X161163000Y-81508600D02*
X161163000Y-81940400D01*
X163296600Y-88290400D02*
X161163000Y-86156800D01*
X173939200Y-94792800D02*
X172135800Y-92989400D01*
X176971000Y-94792800D02*
X174752000Y-94792800D01*
X166751000Y-91744800D02*
X163296600Y-88290400D01*
X157632400Y-77038200D02*
X157632400Y-77978000D01*
X178246000Y-96067800D02*
X176971000Y-94792800D01*
X161163000Y-86156800D02*
X161163000Y-82981800D01*
X170891200Y-91744800D02*
X167335200Y-91744800D01*
G04 #@! TO.N,Net-(J24-Pad5)*
X160959800Y-65786000D02*
X162382200Y-65786000D01*
X168478200Y-68630800D02*
X168478200Y-66827400D01*
X158521400Y-67183000D02*
X158521400Y-66598800D01*
X167436800Y-65786000D02*
X162382200Y-65786000D01*
X159334200Y-65786000D02*
X160959800Y-65786000D01*
X168478200Y-66827400D02*
X167436800Y-65786000D01*
X158521400Y-66598800D02*
X159334200Y-65786000D01*
G04 #@! TO.N,Net-(Q2-Pad3)*
X130759200Y-65328800D02*
X129565400Y-65328800D01*
X132334000Y-66903600D02*
X130759200Y-65328800D01*
X132334000Y-67360800D02*
X132334000Y-66903600D01*
G04 #@! TO.N,Net-(Q3-Pad3)*
X131648200Y-70967600D02*
X131648200Y-74091800D01*
X131648200Y-74091800D02*
X131902200Y-74345800D01*
X131343400Y-70662800D02*
X130098800Y-69418200D01*
X130098800Y-69418200D02*
X129641600Y-69418200D01*
X131648200Y-70967600D02*
X131343400Y-70662800D01*
G04 #@! TO.N,Net-(Q4-Pad3)*
X133858000Y-66192400D02*
X134975600Y-67310000D01*
X130302000Y-62128400D02*
X133858000Y-65684400D01*
X129565400Y-62128400D02*
X130302000Y-62128400D01*
X134975600Y-67310000D02*
X135559800Y-67310000D01*
X133858000Y-65684400D02*
X133858000Y-66192400D01*
G04 #@! TO.N,Net-(Q5-Pad3)*
X129590800Y-60452000D02*
X132308600Y-60452000D01*
X138734800Y-65887600D02*
X138734800Y-67233800D01*
X132308600Y-60452000D02*
X133718300Y-61861700D01*
X133718300Y-63741300D02*
X134620000Y-64643000D01*
X137490200Y-64643000D02*
X138734800Y-65887600D01*
X134620000Y-64643000D02*
X137490200Y-64643000D01*
X133718300Y-61861700D02*
X133718300Y-63741300D01*
G04 #@! TO.N,Net-(Q7-Pad3)*
X135509000Y-74295000D02*
X135509000Y-72635767D01*
X135509000Y-72635767D02*
X129980033Y-67106800D01*
X129980033Y-67106800D02*
X129565400Y-67106800D01*
G04 #@! TO.N,/MCU/SPI2_MISO*
X168681400Y-98171000D02*
X168681400Y-99466400D01*
X168681400Y-99466400D02*
X167792400Y-100355400D01*
G04 #@! TO.N,Net-(R16-Pad1)*
X166674800Y-99669600D02*
X166674800Y-98907600D01*
X166674800Y-98907600D02*
X167132000Y-98450400D01*
X165277800Y-103403400D02*
X165277800Y-101066600D01*
X165277800Y-101066600D02*
X166674800Y-99669600D01*
X165227000Y-103454200D02*
X165277800Y-103403400D01*
G04 #@! TO.N,Net-(R17-Pad1)*
X169519600Y-99060000D02*
X169519600Y-99898200D01*
X169519600Y-100279200D02*
X168325800Y-101473000D01*
X169519600Y-99898200D02*
X169519600Y-100279200D01*
G04 #@! TO.N,/Leds indicadores + pulsadores/LED1*
X134137400Y-72186800D02*
X133451600Y-72186800D01*
X132892800Y-73837800D02*
X134289800Y-75234800D01*
X132892800Y-72745600D02*
X132892800Y-73837800D01*
X142722600Y-75234800D02*
X145110200Y-77622400D01*
X145110200Y-77622400D02*
X147167600Y-77622400D01*
X133451600Y-72186800D02*
X132892800Y-72745600D01*
X134289800Y-75234800D02*
X142722600Y-75234800D01*
G04 #@! TO.N,/Leds indicadores + pulsadores/LED2*
X146075400Y-73329800D02*
X146939000Y-74193400D01*
X146939000Y-76479400D02*
X146456400Y-76962000D01*
X146939000Y-74193400D02*
X146939000Y-76479400D01*
X140919200Y-73329800D02*
X146075400Y-73329800D01*
G04 #@! TO.N,/Leds indicadores + pulsadores/LED3*
X137528300Y-72199500D02*
X146621500Y-72199500D01*
X137515600Y-72212200D02*
X137528300Y-72199500D01*
X146621500Y-72199500D02*
X148361400Y-73939400D01*
X148361400Y-73939400D02*
X148361400Y-77165200D01*
G04 #@! TO.N,/Leds indicadores + pulsadores/LED4*
X146481800Y-79578200D02*
X140792200Y-79578200D01*
X136017000Y-79603600D02*
X136017000Y-81076800D01*
X140792200Y-79578200D02*
X140106400Y-78892400D01*
X140106400Y-78892400D02*
X136728200Y-78892400D01*
X136728200Y-78892400D02*
X136017000Y-79603600D01*
G04 #@! TO.N,/Leds indicadores + pulsadores/LED5*
X146126200Y-86156800D02*
X130835400Y-86156800D01*
X146583400Y-84099400D02*
X146761200Y-84277200D01*
X146761200Y-84277200D02*
X146761200Y-85521800D01*
X146761200Y-85521800D02*
X146126200Y-86156800D01*
G04 #@! TO.N,/Leds indicadores + pulsadores/LED6*
X132969000Y-81153000D02*
X132969000Y-81483200D01*
X132969000Y-81483200D02*
X133680200Y-82194400D01*
X146227800Y-82194400D02*
X146558000Y-81864200D01*
X133680200Y-82194400D02*
X146227800Y-82194400D01*
G04 #@! TO.N,/Leds indicadores + pulsadores/LED7*
X129921000Y-78816200D02*
X135509000Y-78816200D01*
X140792200Y-78460600D02*
X141097000Y-78765400D01*
X135864600Y-78460600D02*
X140792200Y-78460600D01*
X141097000Y-78765400D02*
X147294600Y-78765400D01*
X147294600Y-78765400D02*
X147421600Y-78638400D01*
X135509000Y-78816200D02*
X135864600Y-78460600D01*
G04 #@! TO.N,/Leds indicadores + pulsadores/LED8*
X131216400Y-82829400D02*
X131089400Y-82956400D01*
X146837400Y-82829400D02*
X131216400Y-82829400D01*
G04 #@! TO.N,/Leds indicadores + pulsadores/SW_1*
X141605000Y-60629800D02*
X140563600Y-59588400D01*
X151511000Y-77190600D02*
X151714200Y-76987400D01*
X151714200Y-76987400D02*
X151714200Y-74142600D01*
X151714200Y-74142600D02*
X150876000Y-73304400D01*
X150876000Y-61950600D02*
X149555200Y-60629800D01*
X149555200Y-60629800D02*
X141605000Y-60629800D01*
X140563600Y-59588400D02*
X140563600Y-58851800D01*
X150876000Y-73304400D02*
X150876000Y-61950600D01*
G04 #@! TO.N,/Leds indicadores + pulsadores/SW_2*
X139801600Y-62331600D02*
X139750800Y-62280800D01*
X143052800Y-62331600D02*
X142138400Y-62331600D01*
X144551400Y-67919600D02*
X144551400Y-63830200D01*
X145669000Y-69037200D02*
X144970500Y-68338700D01*
X144970500Y-68338700D02*
X144551400Y-67919600D01*
X145669000Y-70104000D02*
X145669000Y-69037200D01*
X144551400Y-63830200D02*
X143052800Y-62331600D01*
X142138400Y-62331600D02*
X139801600Y-62331600D01*
G04 #@! TO.N,/Sensores/GNSS_PPS*
X133400800Y-104089200D02*
X127899400Y-104089200D01*
X139471400Y-106680000D02*
X135991600Y-106680000D01*
X135991600Y-106680000D02*
X133400800Y-104089200D01*
X141376400Y-104775000D02*
X141376400Y-102666800D01*
X142849600Y-95173800D02*
X141376400Y-96647000D01*
X139471400Y-106680000D02*
X141376400Y-104775000D01*
X141376400Y-102666800D02*
X141376400Y-99237800D01*
X141376400Y-96647000D02*
X141376400Y-99237800D01*
X127899400Y-104089200D02*
X126619000Y-105369600D01*
G04 #@! TO.N,/MCU/TIM8_CH2*
X164312600Y-86995000D02*
X172974000Y-86995000D01*
X164668200Y-82677000D02*
X163957000Y-82677000D01*
X172974000Y-86995000D02*
X176966800Y-90987800D01*
X163220400Y-83413600D02*
X163220400Y-85902800D01*
X176966800Y-90987800D02*
X178246000Y-90987800D01*
X163957000Y-82677000D02*
X163220400Y-83413600D01*
X163220400Y-85902800D02*
X164312600Y-86995000D01*
G04 #@! TO.N,Net-(Q1-Pad3)*
X128828800Y-84251800D02*
X127025400Y-86055200D01*
X129717800Y-76454000D02*
X128828800Y-77343000D01*
X128828800Y-77343000D02*
X128828800Y-84251800D01*
X127025400Y-86055200D02*
X124002800Y-86055200D01*
G04 #@! TO.N,Net-(Q8-Pad3)*
X129616200Y-74345800D02*
X128295400Y-75666600D01*
X126974600Y-82956400D02*
X124053600Y-82956400D01*
X128295400Y-75666600D02*
X128295400Y-81635600D01*
X128295400Y-81635600D02*
X126974600Y-82956400D01*
G04 #@! TO.N,Net-(Q6-Pad3)*
X126542800Y-79781400D02*
X127609600Y-78714600D01*
X127609600Y-78714600D02*
X127609600Y-73939400D01*
X124053600Y-79781400D02*
X126542800Y-79781400D01*
X127609600Y-73939400D02*
X129641600Y-71907400D01*
G04 #@! TD*
M02*
